<svg width="16" height="16" viewBox="0 0 16 16" fill="none" xmlns="http://www.w3.org/2000/svg">
<path d="M0.000771193 5.30573C0.0764741 5.13441 0.211833 5.04745 0.382607 4.97077C0.515578 4.49924 0.685565 4.04387 0.864052 3.58698C0.76482 3.46082 0.63169 3.32275 0.613076 3.15925C0.601403 3.05662 0.620922 2.99055 0.685341 2.91022L0.776162 2.90143C0.977746 2.97149 1.03079 3.08348 1.12479 3.2569C1.16076 3.16293 1.19281 3.04464 1.24394 2.95808C1.29938 2.8643 1.3271 2.86521 1.42948 2.83112L1.44413 2.83698C1.57791 2.77096 1.62907 2.62303 1.69413 2.49909C1.689 2.49366 1.68376 2.48786 1.67851 2.48249C1.59328 2.39558 1.49116 2.30567 1.44511 2.19245C1.40454 2.09247 1.41661 2.02424 1.45683 1.9278C1.51504 1.89627 1.52747 1.8805 1.59745 1.87995C1.78478 1.87865 1.90956 2.02763 2.03593 2.14167L2.51933 1.69929C2.4803 1.58085 2.42356 1.45123 2.4744 1.32819C2.50533 1.25341 2.54533 1.21114 2.62968 1.19733C2.73939 1.17951 2.83803 1.25278 2.9246 1.30671C3.14975 1.13154 4.54782 0.036104 4.65897 0.00104407C4.75056 0.0166595 4.77344 0.0157001 4.84159 0.0742862L4.83964 0.149482C4.73448 0.350093 4.55653 0.462153 4.36601 0.578193C4.91639 0.425702 5.50883 0.241422 6.07401 0.159247C6.36706 0.116729 6.7324 0.253884 7.00663 0.142646C7.06336 0.0752475 7.08925 0.0323512 7.17655 6.64435e-05C7.33939 0.0239474 7.48854 0.107253 7.64823 0.123114C7.86598 0.144744 8.08979 0.136758 8.30936 0.15827C9.65119 0.289849 10.8953 0.626459 12.0086 1.38581C13.2692 2.2457 14.5808 4.10088 15.115 5.48542C15.3677 6.14019 15.5031 6.82742 15.6228 7.51374C15.7731 7.61575 15.9266 7.73647 15.9998 7.90241C15.9672 8.02869 15.8632 8.05154 15.782 8.1485C15.6756 8.27588 15.7181 8.4545 15.7293 8.60749C15.7362 8.84319 15.7199 9.08109 15.6951 9.3155C15.5145 11.0241 14.8396 12.3338 13.45 13.421L13.7088 13.6915C13.6385 13.8053 13.5675 13.9362 13.4197 13.9649C13.2066 14.0061 12.9782 13.8334 12.8064 13.7325C12.7397 13.7887 12.3746 14.0505 12.3738 14.1231C12.3744 14.1936 12.4343 14.2593 12.4129 14.3331C12.3901 14.4105 12.3279 14.4706 12.2527 14.504C12.127 14.5598 11.8888 14.4377 11.7683 14.3917C11.5398 14.5129 11.3097 14.6025 11.0652 14.6905C11.1236 14.7418 11.1778 14.7919 11.2127 14.8614C11.252 14.9401 11.2415 15.0201 11.2137 15.0997C11.1779 15.1369 11.1459 15.1682 11.0965 15.1885C10.7703 15.3219 10.5677 15.1501 10.2791 15.044C10.1893 15.011 10.1421 15.0005 10.0525 15.0333C9.9951 15.1166 9.94666 15.1836 9.86405 15.2471C9.71177 15.2752 9.59678 15.2191 9.45878 15.1661C9.38407 15.188 9.35178 15.1963 9.29374 15.2501C9.2254 15.3134 9.27232 15.28 9.19804 15.3321C9.07761 15.4162 8.80776 15.3421 8.66776 15.3204C8.79471 15.4542 8.92893 15.5349 9.07694 15.6426C9.17071 15.7109 9.20846 15.7718 9.22636 15.8819C9.18293 15.9425 9.16226 15.9806 9.07987 15.9962C8.76722 16.0547 8.22766 15.4661 7.97245 15.3038C7.66106 15.1059 7.11891 15.1227 6.75565 15.0137C5.94015 14.7691 5.09887 14.3548 4.39726 13.8917C2.43743 12.598 0.869066 10.7163 0.366006 8.45319C0.199673 7.70474 0.190483 6.94494 0.0456931 6.19733C0.0327332 6.09244 0.0303525 6.01099 0.104287 5.92585C0.383022 5.60503 -0.0198753 5.64473 0.000771193 5.30573ZM12.1609 5.6319C12.6272 6.11869 13.1449 6.56059 13.6258 7.03425C14.0388 7.44115 14.4175 7.88421 14.8484 8.2735C14.9333 8.35019 15.0962 8.51816 15.2117 8.52741C15.2173 8.52783 15.2236 8.52689 15.2293 8.52643L15.2312 7.94147C14.7005 7.62429 12.4704 5.70147 12.1609 5.6319ZM10.9764 6.2862C11.8782 7.07492 12.7912 7.81713 13.615 8.68659C13.9354 9.02469 14.6631 9.93769 15.0516 10.1163C15.106 10.0822 15.0911 10.1047 15.1033 10.0528C15.1573 9.82983 15.1924 9.61187 15.2049 9.38288C14.6601 9.04636 14.1312 8.68807 13.618 8.30866C13.2421 8.03218 11.2079 6.28406 10.9764 6.2862ZM12.4529 3.69538C12.8976 4.33118 13.3726 4.94558 13.8767 5.53913C14.2485 5.97099 14.6467 6.3825 14.993 6.83405C14.928 6.58809 14.8538 6.35344 14.7596 6.11628C14.3815 5.28357 13.805 4.74182 13.1629 4.09186C12.9865 3.91339 12.8049 3.67459 12.6023 3.52741C12.6454 3.58904 12.8342 3.81517 12.8338 3.87214C12.7332 3.79356 12.6171 3.65364 12.4949 3.628C12.454 3.68496 12.463 3.66067 12.4529 3.69538ZM10.1648 7.18561C10.5009 7.45056 10.84 7.71382 11.1541 8.003C11.5975 8.41124 14.3759 11.167 14.6043 11.2628C14.6727 11.2167 14.644 11.245 14.6902 11.1749L14.8543 10.796C14.3749 10.5036 13.9311 10.1866 13.493 9.83991C13.0179 9.46401 10.5129 7.22665 10.1648 7.18561ZM8.30644 7.2989C8.66833 7.59922 9.03443 7.89726 9.38749 8.2071C10.0048 8.74901 13.7539 12.1773 14.0027 12.2423C14.0713 12.2111 14.1103 12.1763 14.1629 12.1241L14.2469 12.003C14.2024 11.8535 13.7658 11.5996 13.618 11.4923C13.0951 11.1116 12.5865 10.7135 12.0926 10.2989C11.5313 9.83153 8.84193 7.4854 8.38944 7.30671C8.36307 7.29641 8.3339 7.29373 8.30644 7.2989ZM6.85722 7.54694C7.25121 8.04036 8.06474 8.70198 8.56034 9.15729C9.87998 10.3697 11.6438 12.1381 13.1346 13.0753C13.1945 13.0595 13.2423 13.0418 13.2967 13.0128C13.2379 12.852 12.0957 12.0951 11.867 11.9258C11.3764 11.5627 10.9149 11.135 10.4598 10.7315C9.68669 10.0412 8.91801 9.34624 8.15311 8.64753C7.89342 8.41127 7.17622 7.68118 6.92265 7.55768C6.88874 7.54122 6.89375 7.54526 6.85722 7.54694ZM6.5203 9.06745C6.64513 9.23458 6.80016 9.37717 6.94901 9.52448C6.91047 9.57083 6.83742 9.62987 6.84452 9.6905C6.87412 9.93024 7.1933 10.0633 7.32108 10.2569C7.42208 10.3457 7.52387 10.4338 7.62675 10.5206C7.84091 10.785 8.026 10.9684 8.32011 11.1495C8.35874 11.1825 8.39666 11.2101 8.4412 11.2354C8.93455 11.5157 9.32139 11.9744 9.75956 12.3321C10.4363 12.875 11.1468 13.374 11.8904 13.8292C12.0247 13.7204 12.1697 13.6355 12.3191 13.5479C10.6489 12.725 9.24453 11.401 7.86601 10.1993C7.51059 9.88958 6.90834 9.26202 6.5203 9.06745ZM8.07597 12.043C8.86778 12.8858 9.70642 13.668 10.6355 14.3731L11.0848 14.2383C11.0615 14.1492 10.896 14.0851 10.8133 14.0372C10.1802 13.6705 9.5956 13.2755 9.03202 12.8165C8.72483 12.5662 8.42278 12.2329 8.08378 12.0303L8.07597 12.043ZM7.11405 0.713935C7.5142 1.02009 10.7785 3.2984 10.9568 3.29694L10.9519 3.26765C10.5327 2.89289 8.05849 1.07706 7.95487 0.839911L7.9744 0.731513C7.82882 0.625262 7.42025 0.638715 7.24198 0.660224C7.17793 0.6679 7.16161 0.670626 7.11405 0.713935ZM9.45683 0.896552C9.5486 1.00415 9.63352 1.13007 9.79081 1.13972C9.85501 1.14354 9.87659 1.12021 9.92948 1.09089C9.79901 0.97204 9.66255 0.905465 9.48515 0.876044L9.45683 0.896552ZM5.5955 0.85456C6.07114 1.23446 9.70588 3.9744 9.8455 4.00593L9.81718 3.95124C9.14167 3.17273 7.8228 2.23158 6.99296 1.53718C6.68602 1.28029 6.43641 0.957575 6.12479 0.710028C5.97682 0.735551 5.72825 0.745896 5.60624 0.826239L5.5955 0.85456ZM4.07694 1.25202C4.39981 1.41857 4.70547 1.59955 5.0037 1.80378C5.44681 2.10732 9.31964 4.9721 9.46171 4.95417L9.35331 4.85554C8.1456 3.85333 6.86566 2.92971 5.70292 1.87897C5.39088 1.59702 5.03849 1.30925 4.78593 0.975653C4.5911 1.04422 4.22464 1.12384 4.07694 1.25202ZM6.44999 13.17C7.06896 13.7268 7.67293 14.3189 8.32499 14.8389C8.57287 14.7873 8.81066 14.7649 9.06327 14.7491C8.99042 14.6536 6.796 13.3373 6.48808 13.1602L6.44999 13.17ZM3.26835 1.6739C3.85244 2.06116 4.38832 2.54229 4.93339 2.97956C5.66866 3.56941 6.43347 4.10072 7.20878 4.63972C7.52193 4.85747 7.81107 5.10495 8.13944 5.30183L8.15507 5.28815C8.11358 5.24045 8.07323 5.19213 8.02811 5.14753C7.13325 4.39533 6.19725 3.69087 5.31718 2.92194C4.75027 2.42657 4.2283 1.80873 3.60136 1.38776C3.47695 1.47664 3.36529 1.55568 3.26835 1.6739ZM2.48319 2.35651C2.96866 2.70704 5.60397 5.11413 5.93534 5.1485C5.89654 5.10266 5.85932 5.05681 5.8162 5.01472C5.012 4.31471 4.23306 3.60385 3.49882 2.83503C3.25389 2.5786 2.98028 2.31772 2.78397 2.02448C2.67515 2.12928 2.56185 2.22807 2.48319 2.35651ZM1.78007 3.20417C2.01561 3.44898 2.25911 3.68629 2.50956 3.91706C2.83682 4.21478 5.54557 6.58757 5.72636 6.6446C5.7076 6.57635 5.68497 6.54834 5.63358 6.49811C4.88107 5.81023 2.4163 3.63055 2.02714 2.89558L1.78007 3.20417ZM4.48319 9.71589C4.52997 9.78471 4.56699 9.81825 4.63944 9.86335C4.64904 9.86929 4.70777 9.90381 4.71854 9.91413C4.79489 9.99166 4.70676 10.0165 4.72147 10.1085C4.81792 10.112 4.88506 10.0915 4.9744 10.0616L5.00956 10.0499L5.00761 10.086L4.94608 10.1612C4.96728 10.2636 5.07256 10.3563 5.15995 10.4132C5.25785 10.4769 5.35866 10.519 5.47733 10.4971C5.48799 10.4284 5.46046 10.4113 5.41874 10.3555C5.3818 10.3062 5.34126 10.2584 5.2996 10.212L5.17362 10.0743C5.07746 9.91256 4.93255 9.71459 4.77128 9.60944C4.68938 9.55599 4.64634 9.55166 4.55155 9.56745C4.50169 9.62882 4.49296 9.63973 4.48319 9.71589ZM1.62187 10.6182C2.59624 12.0082 3.73804 13.1695 5.27421 13.9981C5.32833 13.9907 5.31318 14.0016 5.33378 13.9815C4.48585 13.2938 3.64764 12.6045 2.86405 11.8477C2.44454 11.4426 2.06823 10.9971 1.64921 10.5928L1.62187 10.6182ZM0.806435 5.71393C1.48267 6.51789 2.17655 7.29932 2.88358 8.07819C3.3797 8.62477 3.86608 9.17544 4.41483 9.67487C4.49607 9.59142 4.61092 9.50125 4.62382 9.38386C4.58941 9.25355 4.45627 9.14259 4.36405 9.04401C3.58757 8.13181 2.8385 7.199 2.11698 6.24616C1.73446 5.74988 1.33157 5.26715 1.00077 4.7364C0.867847 5.03958 0.814838 5.38631 0.806435 5.71393ZM0.657021 6.80573C0.667014 7.0285 0.679976 7.25178 0.684365 7.47468C0.795362 7.42433 0.842031 7.38767 0.965615 7.40143C1.17526 7.55227 1.34505 7.75437 1.52714 7.93464C1.86581 8.26391 2.19988 8.59765 2.52909 8.93561C2.63862 9.04844 2.74426 9.1948 2.8621 9.29499C2.91113 9.33652 2.96797 9.34782 3.03007 9.35944C3.03611 9.46134 3.02451 9.47396 3.09745 9.54597C3.17055 9.56635 3.24203 9.58337 3.3162 9.59968C3.37813 9.61333 3.39787 9.62797 3.4412 9.66999L3.42851 9.71882L3.31425 9.77936C3.31771 9.85145 3.35813 9.90166 3.41874 9.94733C3.50717 10.0137 3.62893 10.0111 3.73612 10.0176L3.80546 10.0684C3.76577 10.1357 3.7912 10.106 3.72343 10.1563C3.85036 10.3531 4.18425 10.6329 4.38358 10.7686C4.46275 10.7358 4.46348 10.7214 4.50761 10.6485L4.50175 10.5938L4.34745 10.6397L4.32304 10.6133C4.34617 10.5732 4.36831 10.5406 4.39628 10.504L4.3953 10.4913L4.29472 10.4405C4.29384 10.3792 4.28809 10.4086 4.31229 10.3526C4.20601 10.3076 4.0915 10.3659 3.99296 10.3292C4.07032 10.2994 4.14543 10.2684 4.2205 10.2335L4.2205 10.1915L4.15507 10.1485C4.09522 10.1638 3.9536 10.2235 3.89921 10.2081C3.94924 10.152 3.99555 10.126 4.06327 10.0919L4.02616 10.0841L4.08573 10.0753C3.95227 9.846 3.47271 9.4247 3.2664 9.20417C2.79874 8.70582 2.33378 8.20451 1.87187 7.70124C1.58407 7.3823 1.04629 6.6446 0.709756 6.43757C0.641706 6.53423 0.649864 6.69006 0.657021 6.80573ZM1.20487 4.25104C1.92896 4.83238 2.56822 5.5583 3.2244 6.21101C3.44316 6.42859 3.65968 6.67403 3.90409 6.86335L3.83476 6.73737C3.35158 6.21686 2.85919 5.70523 2.38749 5.17487C2.05426 4.80014 1.74049 4.37645 1.36698 4.04011L1.30546 4.03913C1.23809 4.10958 1.22775 4.16078 1.20487 4.25104ZM0.756631 8.09479C0.777314 8.21157 0.793985 8.33043 0.819131 8.44636C1.34884 8.87235 1.78444 9.3537 2.24394 9.84577C2.52858 10.1506 2.82537 10.4907 3.16776 10.7364L3.20194 10.7315L3.12382 10.6251C2.54713 10.1536 1.83402 9.28678 1.36112 8.70124C1.19363 8.49388 0.987912 8.10017 0.774209 7.95222C0.732153 8.01588 0.747253 8.02306 0.756631 8.09479Z" fill="#54E6ED"/>
<path d="M12.9924 4.86787L12.8335 4.95096L12.754 4.99249C12.7275 5.00644 12.7018 5.02178 12.6758 5.03635L12.3638 5.21332C11.5383 5.6964 10.7571 6.25286 10.0227 6.86047C9.65603 7.16495 9.29955 7.48068 8.95418 7.80694C8.61003 8.13432 8.2765 8.47145 7.95427 8.8171C7.63206 9.16271 7.32118 9.51698 7.02279 9.87802L6.91207 10.014L6.85675 10.082L6.76303 10.2009L6.66441 10.3262L6.61509 10.3889C6.59868 10.4098 6.58272 10.4297 6.56363 10.4557L6.34374 10.7503C6.32529 10.7743 6.30728 10.8003 6.28927 10.8265L6.23517 10.9044L6.12694 11.0601L5.90891 11.3776C5.76678 11.5852 5.62464 11.7928 5.48259 12.0003C5.33346 11.6444 5.18438 11.2886 5.0354 10.933L4.97974 10.7999C4.97068 10.7764 4.96059 10.7592 4.95092 10.7393L4.92171 10.6812L4.86328 10.5651L4.83407 10.507L4.81946 10.478L4.81213 10.4636L4.80375 10.451L4.66978 10.2504C4.64744 10.217 4.62547 10.1832 4.60171 10.1514L4.55243 10.0874C4.38222 9.8654 4.18343 9.6484 3.97372 9.4372C3.55191 9.01565 3.07677 8.61607 2.58689 8.24754C2.53206 8.20407 2.49026 8.16889 2.46056 8.14162C2.43122 8.11446 2.41174 8.09346 2.4075 8.08189C2.39759 8.06658 2.39833 8.05745 2.40793 8.05357C2.41272 8.05162 2.41974 8.05099 2.42874 8.05151C2.43398 8.05229 2.43607 8.0509 2.44104 8.05146C2.44598 8.05198 2.45132 8.05276 2.45706 8.05379C2.55093 8.07118 2.75649 8.16257 2.95442 8.2643C2.82226 8.19727 2.87433 8.13962 2.7406 8.07396C2.7661 8.04516 2.85883 8.04829 3.00594 8.10223C3.15256 8.15641 3.35448 8.26102 3.5888 8.4378C3.47627 8.34495 3.36224 8.25364 3.24621 8.16404C3.14771 8.05584 3.29946 8.10736 3.33505 8.07021C3.45227 8.16057 3.56664 8.25331 3.58493 8.23489C3.60309 8.2165 3.63952 8.1796 3.65772 8.16118C3.54258 8.06716 3.3067 7.88428 3.18601 7.79606C3.30602 7.885 3.42404 7.97616 3.44172 7.95758C3.45948 7.9388 3.49505 7.90126 3.51285 7.88242C3.64084 7.96515 3.78362 8.08697 3.92297 8.21175C4.06253 8.33643 4.19847 8.46418 4.31937 8.55598L4.37734 8.50366C4.27503 8.39366 4.13289 8.26904 3.98551 8.15047C3.83821 8.03168 3.68586 7.91874 3.56612 7.82619C3.70365 7.90029 3.72124 7.88253 3.75735 7.84508C3.94555 7.9775 4.11242 8.1323 4.27939 8.28658C4.44656 8.44107 4.61371 8.59479 4.80719 8.73034C4.69816 8.62331 4.58705 8.51856 4.47406 8.41633C4.63559 8.4747 4.8383 8.65383 5.03371 8.86653C5.08235 8.92002 5.1316 8.97423 5.17871 9.03055C5.20243 9.05845 5.22609 9.08631 5.24956 9.11397C5.27261 9.14218 5.29547 9.17017 5.31805 9.19781C5.36387 9.25235 5.40658 9.30797 5.44908 9.35924C5.47047 9.38471 5.49081 9.41031 5.51079 9.43498C5.52092 9.44721 5.53086 9.45922 5.54065 9.47104C5.54562 9.4769 5.55053 9.48269 5.55541 9.48846L5.55909 9.49276C5.56023 9.49407 5.56198 9.49618 5.56164 9.49554L5.56234 9.49548C5.61945 9.54237 5.65759 9.58418 5.68217 9.63436L5.68675 9.64366C5.68736 9.64662 5.68859 9.64374 5.68969 9.64196L5.69307 9.63661L5.7066 9.6158C5.71571 9.60229 5.72483 9.58931 5.73419 9.57663C5.74345 9.56392 5.75312 9.55166 5.76276 9.53932L5.79495 9.50006C5.86868 9.41153 5.94276 9.32262 6.01687 9.23368C6.12286 9.10947 6.22863 8.98508 6.33677 8.8632C6.76579 8.37285 7.20909 7.90559 7.61141 7.46617C7.91204 7.1346 8.2344 6.80654 8.57867 6.49017C8.62151 6.45044 8.66441 6.41066 8.70734 6.37084L8.83947 6.25397C8.92818 6.17642 9.01595 6.09764 9.10656 6.02123C9.19795 5.94547 9.28945 5.86962 9.38102 5.79372L9.44991 5.73696L9.52037 5.68164L9.66168 5.57128C9.8484 5.42241 10.0445 5.28265 10.2377 5.14096C10.3355 5.0713 10.4356 5.00419 10.5344 4.93606C10.5839 4.90216 10.6334 4.86831 10.6829 4.83449C10.7328 4.80117 10.7839 4.76924 10.8343 4.73667C10.9355 4.67195 11.0364 4.60739 11.137 4.54306C11.24 4.4815 11.3427 4.42013 11.445 4.35901C11.4963 4.32855 11.5474 4.29815 11.5984 4.26782C11.65 4.2382 11.7026 4.20995 11.7544 4.18107C11.8585 4.1237 11.9621 4.06661 12.0651 4.00979C12.0925 4.05254 11.9982 4.19128 12.1483 4.13755C12.446 4.02641 12.6081 3.99542 12.7012 4.00083C12.7946 4.00699 12.821 4.05213 12.8465 4.09527C12.8707 4.13616 12.4364 4.40934 12.5986 4.38287C12.5986 4.38287 12.7276 4.33857 12.8141 4.33663C12.987 4.33382 12.7599 4.53426 12.9322 4.53168C12.9655 4.51529 13.006 4.49295 13.0525 4.4717C13.0988 4.45023 13.1494 4.42682 13.1999 4.40337C13.301 4.35649 13.4021 4.30963 13.4694 4.27839C13.6273 4.26114 13.4667 4.62706 13.6004 4.56522L12.9924 4.86787Z" fill="#203B53"/>
</svg>
