<svg width="241" height="354" viewBox="0 0 241 354" fill="none" xmlns="http://www.w3.org/2000/svg">
<path d="M195.781 137.001H204.476C209.449 137.804 217.425 142.211 221.908 144.775C231.332 150.163 236.696 156.992 239.501 167.447C242.295 177.863 240.28 190.843 236.202 200.738C234.809 204.117 232.9 207.359 231.063 210.51C221.671 226.625 203.742 242.202 185.54 246.925C176.1 249.375 164.912 249.716 156.252 244.565C150.726 241.278 146.807 236.168 142.714 231.354C140.828 229.136 138.798 227.014 137.295 224.506C135.827 222.057 134.802 219.471 134.11 216.703C130.63 202.77 135.817 187.228 143.031 175.236C152.167 160.049 166.475 146.46 183.278 140.232C187.339 138.727 191.403 138.116 195.564 137.059L195.781 137.001Z" fill="#203B53"/>
<path d="M223.46 152.344C224.627 152.759 225.791 153.427 226.887 154.004C234.672 158.104 234.966 161.394 237.367 169.195C233.521 167.435 230.007 165.141 226.279 163.167C225.896 159.351 225.051 155.834 223.46 152.344Z" fill="#F9CF31"/>
<path d="M146.975 233.06C151.889 235.245 156.643 235.969 161.986 236.172C165.538 238.87 168.565 242.788 171.695 245.986C170.107 245.987 168.484 246.033 166.912 245.771C160.443 244.692 155.672 241.531 150.942 237.174C149.585 235.925 148.046 234.557 146.975 233.06Z" fill="#EB8B32"/>
<path d="M176.818 232.386C176.93 232.367 177.317 232.295 177.42 232.308C177.9 232.37 177.979 232.652 178.252 233.002C181.17 236.744 184.156 240.203 187.462 243.609C183.608 244.848 179.975 245.613 175.962 246.071C175.507 246.122 175.093 246.115 174.636 246.086C171.99 242.402 168.514 238.994 165.4 235.708C169.388 234.894 173.02 233.83 176.818 232.386Z" fill="#F9CF31"/>
<path d="M226.48 166.004C229.055 167.67 236.24 171.366 237.833 173.353C239.024 174.839 237.933 184.546 237.615 186.855C233.984 184.218 228.077 181.682 225.098 179.003C225.862 174.668 226.237 170.396 226.48 166.004Z" fill="#EB8B32"/>
<path d="M195.359 221.819C197.351 220.413 199.01 218.61 201.027 217.232C205.601 220.204 209.542 224.406 213.481 228.155C210.396 230.912 207.153 233.497 203.613 235.656C200.999 232.731 198.243 229.119 195.148 226.714C195.482 225.061 195.465 223.491 195.359 221.819Z" fill="#F9CF31"/>
<path d="M179.914 231.287C183.45 229.633 186.824 227.779 189.918 225.38C190.232 225.88 190.521 226.387 190.911 226.831C191.763 227.117 192.815 227.341 193.493 227.946C193.914 230.23 199.611 234.762 201.21 237.041C197.627 239.38 194.127 241.068 190.168 242.657C186.965 238.681 183.201 235.194 179.914 231.287Z" fill="#F9CF31"/>
<path d="M211.788 205.595C214.553 207.674 221.719 214.319 223.813 216.926C221.271 220.346 218.336 223.428 215.339 226.446C214.216 225.931 212.131 223.226 211.059 222.164C208.633 219.763 206.028 217.565 203.426 215.359C206.52 212.299 209.106 208.999 211.788 205.595Z" fill="#EB8B32"/>
<path d="M188.717 223.014C187.445 224.338 185.711 225.351 184.116 226.231C174.788 231.38 161.973 235.232 151.428 232.149C146.191 230.617 141.628 227.443 138.999 222.572C133.914 213.154 135.341 201.152 138.282 191.291C139.529 187.11 141.408 183.442 143.473 179.62C145.302 176.234 147.195 172.856 149.438 169.722C156.522 159.823 166.301 151.556 176.981 145.777C184.522 141.696 197.732 137.186 206.245 139.791C220.207 144.066 224.987 157.55 223.834 171.031C223.732 172.227 222.223 180.465 222.298 180.798C222.345 181.006 222.501 181.175 222.602 181.363C227.724 183.065 232.262 186.998 237.048 189.466C236.23 193.359 234.971 197.481 233.189 201.058C231.294 199.881 222.443 193.576 220.91 193.838C220.318 193.939 220.172 194.228 219.839 194.669C219.954 195.485 220.309 195.78 220.953 196.26C224.402 198.836 228.321 200.949 231.921 203.346C230.146 207.113 228.134 211.545 225.352 214.654C223.167 212.526 221.004 210.36 218.76 208.295C216.918 206.6 214.959 205 213.177 203.247C213.675 202.48 214.266 201.742 214.427 200.827C214.337 200.519 214.365 200.351 214.071 200.165C213.6 199.865 213.047 199.906 212.507 199.907C209.064 205.561 204.426 210.861 199.478 215.249C197.656 216.865 195.482 218.238 193.782 219.953C194.308 220.572 194.857 221.18 195.357 221.819C195.464 223.491 195.481 225.061 195.147 226.714L193.493 227.946C192.815 227.342 191.764 227.117 190.911 226.832C190.521 226.387 190.233 225.88 189.919 225.38C189.705 224.44 189.308 223.766 188.717 223.014Z" fill="#F9CF31"/>
<path d="M143.37 200.612C143.773 200.634 144.302 200.616 144.684 200.732C144.947 200.812 145.302 200.961 145.413 201.24C145.828 202.285 145.216 204.261 145.231 205.434C145.261 207.613 146.633 212.01 145.98 213.76C145.616 213.864 145.277 213.924 144.904 213.983C144.481 213.809 144.249 213.577 144.004 213.189C142.229 210.381 142.613 203.773 143.37 200.612Z" fill="#203B53"/>
<path d="M197.546 146.562C198.005 146.509 198.491 146.43 198.953 146.439C199.492 146.449 199.679 146.626 200.015 147.011C200.116 147.571 200.161 148.1 199.887 148.626C199.859 148.68 199.548 149.099 199.447 149.146C198.831 149.429 196.933 149.365 196.171 149.445C193.949 149.69 191.753 150.077 189.582 150.605C188.853 150.838 188.172 151.151 187.402 150.969C186.975 150.651 186.671 150.445 186.56 149.873C186.458 149.349 186.663 149.081 186.934 148.685C189.399 147.642 193.057 147.068 195.743 146.83C196.298 146.781 196.82 146.714 197.366 146.601L197.546 146.562Z" fill="#203B53"/>
<path d="M150.23 219.766C152.172 220.133 153.902 222.363 155.842 223.082C157.597 223.732 159.657 223.527 161.425 224.186C161.956 224.384 162.136 224.551 162.385 225.046C162.181 225.676 161.838 225.893 161.363 226.343C157.919 226.539 152.98 225.437 150.244 223.243C149.569 222.701 149.267 222.191 149.169 221.333C149.326 220.597 149.716 220.27 150.23 219.766Z" fill="#203B53"/>
<path d="M182.125 217.729C182.9 218.218 183.157 219.016 183.531 219.816C179.737 222.295 174.81 224.099 170.35 224.844C170.086 224.696 169.764 224.539 169.531 224.338C169.12 223.984 168.984 223.681 168.922 223.16C169.956 222.017 175.236 220.824 176.891 220.152C178.676 219.426 180.399 218.581 182.125 217.729Z" fill="#203B53"/>
<path d="M208.467 151.078C209.079 151.246 209.593 151.453 210.126 151.806C213.391 153.966 215.683 158.435 216.427 162.187C216.7 163.561 216.94 164.704 216.135 165.925C215.705 165.904 215.324 165.846 214.904 165.75C213.308 164.123 213.529 160.747 212.488 158.676C211.368 156.45 208.657 155 207.677 152.862C207.749 152.148 208.097 151.668 208.467 151.078Z" fill="#203B53"/>
<path d="M155.066 172.925C155.803 173.193 156.282 173.383 156.696 174.053C156.733 175.836 153.964 178.273 153 179.809C150.939 183.087 149.873 186.875 147.915 190.176C147.525 190.086 147.14 189.973 146.754 189.867C146.354 189.403 146.136 189.157 146.12 188.523C146.03 184.954 152.508 175.729 155.066 172.925Z" fill="#203B53"/>
<path d="M188.715 223.014C188.56 222.65 188.494 222.31 188.458 221.918C188.35 220.746 188.817 219.192 189.63 218.326C189.931 218.005 190.329 217.796 190.77 217.809C191.948 217.841 192.986 219.179 193.781 219.953C194.307 220.572 194.856 221.18 195.356 221.819C195.462 223.491 195.479 225.061 195.146 226.714L193.492 227.946C192.814 227.342 191.762 227.117 190.91 226.832C190.52 226.387 190.232 225.881 189.917 225.381C189.703 224.441 189.307 223.766 188.715 223.014Z" fill="#FAEECB"/>
<path d="M176.93 152.87C177.194 152.949 177.374 152.991 177.627 153.127C178.145 153.405 178.275 153.795 178.405 154.323C177.815 155.906 175.504 156.659 174.13 157.615C172.266 158.913 170.489 160.321 168.799 161.84C167.109 163.358 165.519 164.975 164.03 166.69C163.595 166.601 163.068 166.518 162.761 166.157C162.407 165.742 162.361 165.361 162.475 164.843C163.071 162.142 174.262 154.262 176.93 152.87Z" fill="#203B53"/>
<path d="M215.398 172.442C216.003 172.383 216.534 172.374 217.139 172.419C217.515 172.76 217.525 173.123 217.543 173.615C217.66 176.954 213.874 189.676 211.743 192.137C211.058 191.846 210.125 191.447 209.762 190.755C209.451 190.163 211.832 185.965 212.139 185.017C213.468 180.922 213.899 176.424 215.398 172.442Z" fill="#203B53"/>
<path d="M192.625 156.016C192.702 156.004 192.779 155.989 192.856 155.98C196.849 155.5 200.904 156.149 204.125 158.66C207.855 161.568 209.95 165.599 210.518 170.264C211.229 176.098 209.684 180.893 207.828 186.323C207.068 188.547 206.351 190.823 205.276 192.92C203.976 195.455 202.295 197.936 200.529 200.173C192.125 210.821 182.804 216.873 169.123 218.524C169.033 218.542 168.943 218.565 168.85 218.575C164.902 219.005 160.43 217.574 157.268 215.229C157.059 215.073 156.854 214.912 156.654 214.745C156.454 214.579 156.257 214.407 156.065 214.231C155.873 214.055 155.686 213.874 155.503 213.688C155.32 213.502 155.142 213.312 154.969 213.118C154.795 212.923 154.627 212.724 154.464 212.521C154.3 212.318 154.142 212.111 153.989 211.9C153.836 211.689 153.689 211.474 153.547 211.256C153.404 211.038 153.268 210.816 153.137 210.591C153.006 210.365 152.881 210.137 152.761 209.905C152.642 209.674 152.528 209.439 152.42 209.202C152.312 208.965 152.211 208.725 152.115 208.482C152.019 208.24 151.929 207.995 151.846 207.748C151.763 207.502 151.686 207.253 151.615 207.002C151.543 206.751 151.479 206.499 151.421 206.245C151.363 205.991 151.31 205.735 151.265 205.479C151.22 205.222 151.18 204.965 151.148 204.706C149.7 194.045 155.829 183.697 162.038 175.534C168.312 167.288 182.246 157.461 192.625 156.016Z" fill="#FBB329"/>
<path d="M184.701 166.686C184.918 166.683 185.136 166.676 185.353 166.682C186.063 166.703 186.283 166.805 186.74 167.304C187.004 168.379 186.496 169.79 186.31 170.892C187.111 170.973 187.935 171.036 188.724 171.199C190.298 171.522 192.554 172.444 193.402 173.916C193.708 174.448 193.898 175.091 193.688 175.694C193.478 176.295 193.144 176.532 192.605 176.815C190.958 177.013 190.24 175.128 188.877 174.497C186.572 173.43 184.158 173.427 181.802 174.342C178.61 175.583 175.713 178.068 174.435 181.287C173.928 182.566 173.772 183.814 174.398 185.08C176.334 188.995 184.878 186.444 188.579 187.799C190.891 188.646 192.003 190.298 193.002 192.418C192.745 195.487 191.936 198.262 190.009 200.709C187.08 204.428 182.588 206.512 177.951 207.059C177.834 208.708 177.559 210.417 177.153 212.019C176.782 212.1 176.184 212.263 175.809 212.198C175.194 212.094 175.064 211.876 174.703 211.423C174.384 209.924 174.962 208.741 175.514 207.38C173.079 206.757 169.366 205.624 168.043 203.289C167.84 202.93 167.774 202.539 167.934 202.156C168.248 201.404 168.872 201.145 169.571 200.856C170.232 200.997 173.58 203.785 174.737 204.428C176.008 204.386 177.29 204.405 178.546 204.181C182.318 203.509 186.283 201.42 188.431 198.154C189.337 196.776 190.168 194.359 189.759 192.703C188.689 188.364 177.933 191.572 173.724 189.121C172.567 188.448 171.755 187.386 171.454 186.077C170.868 183.525 171.665 180.496 172.988 178.296C175.331 174.401 178.952 172.468 183.249 171.433C183.668 169.895 183.986 168.102 184.701 166.686Z" fill="#203B53"/>
<path d="M119.493 89.5366L117.242 97.9356C115.18 102.531 108.858 109.095 105.222 112.762C97.5781 120.47 89.5939 123.884 78.7686 123.887C67.9847 123.89 55.9681 118.584 47.4657 112.084C44.563 109.864 41.9254 107.181 39.3568 104.591C26.2222 91.3485 15.8163 69.9985 15.9645 51.1947C16.0416 41.4417 18.6076 30.5473 25.8247 23.5152C30.4299 19.0284 36.3801 16.5649 42.0894 13.8576C44.7196 12.6102 47.2956 11.1988 50.1063 10.396C52.8518 9.61187 55.6155 9.29048 58.4687 9.339C72.8272 9.58367 86.4973 18.6169 96.2134 28.6883C108.518 41.4434 117.941 58.7814 119.608 76.6235C120.011 80.936 119.549 85.0194 119.493 89.3121L119.493 89.5366Z" fill="#203B53"/>
<path d="M97.5088 112.302C96.8062 113.322 95.8597 114.274 95.0187 115.182C89.0431 121.641 85.7895 121.074 77.6331 121.373C80.328 118.114 83.453 115.313 86.3253 112.224C90.1102 112.842 93.7262 112.935 97.5088 112.302Z" fill="#F9CF31"/>
<path d="M39.3389 17.5319C35.9563 21.7136 34.0267 26.118 32.4475 31.2262C28.9219 33.9586 24.3545 35.8684 20.4554 38.0648C20.8653 36.53 21.2408 34.9503 21.9004 33.5003C24.6171 27.5311 28.9055 23.7405 34.338 20.2992C35.8964 19.3116 37.6156 18.1798 39.3389 17.5319Z" fill="#EB8B32"/>
<path d="M32.266 46.5324C32.2551 46.6462 32.2249 47.0385 32.1855 47.134C32.0013 47.5818 31.7086 47.5858 31.2998 47.7589C26.9306 49.6082 22.8164 51.5971 18.6707 53.9097C18.4712 49.8657 18.6728 46.1584 19.2683 42.1642C19.3371 41.711 19.4509 41.313 19.5978 40.8794C23.8403 39.277 28.0326 36.8017 32.0119 34.6442C31.766 38.7066 31.8542 42.4903 32.266 46.5324Z" fill="#F9CF31"/>
<path d="M83.5327 111.683C81.2566 113.739 75.8272 119.723 73.4958 120.747C71.7525 121.513 62.6584 117.947 60.5104 117.042C63.997 114.217 67.9749 109.168 71.3342 106.983C75.3243 108.843 79.3531 110.311 83.5327 111.683Z" fill="#EB8B32"/>
<path d="M37.675 67.1758C38.5175 69.4639 39.8291 71.5336 40.6386 73.8387C36.584 77.4869 31.5051 80.2061 26.8646 83.0411C24.9998 79.3471 23.3421 75.5459 22.1732 71.5676C25.6747 69.8001 29.8773 68.0721 33.0008 65.7058C34.511 66.4555 36.0319 66.8457 37.675 67.1758Z" fill="#F9CF31"/>
<path d="M32.5258 49.8074C33.2083 53.6509 34.1256 57.3901 35.6422 60.9993C35.0779 61.1735 34.5141 61.3211 33.9836 61.5824C33.4875 62.3322 32.9982 63.2898 32.2388 63.788C29.9234 63.6041 24.0711 67.9337 21.4563 68.8889C20.1247 64.8224 19.4 61.0046 18.8898 56.7695C23.5589 54.7045 27.9014 51.9716 32.5258 49.8074Z" fill="#F9CF31"/>
<path d="M49.0935 87.2451C46.3692 89.3777 38.0964 94.5795 35.0356 95.9278C32.3901 92.5869 30.1732 88.9541 28.0334 85.2783C28.8217 84.3264 31.9746 83.0134 33.2775 82.252C36.2249 80.53 39.0217 78.5826 41.8264 76.6405C43.981 80.4211 46.4999 83.7736 49.0935 87.2451Z" fill="#EB8B32"/>
<path d="M38.2389 60.4514C37.2894 58.8805 36.7598 56.9437 36.3221 55.1746C33.7627 44.8319 33.3592 31.4567 39.0667 22.0688C41.9013 17.4067 46.1486 13.8213 51.5336 12.542C61.9474 10.0681 73.1707 14.5529 81.9345 19.9461C85.6506 22.2329 88.707 24.9969 91.8642 27.9806C94.6618 30.6241 97.4342 33.3268 99.8815 36.3044C107.61 45.7088 113.063 57.2943 115.882 69.1059C117.872 77.4459 118.81 91.3739 114.09 98.9217C106.346 111.302 92.0849 112.429 79.3615 107.826C78.2328 107.418 70.6657 103.828 70.3252 103.815C70.1116 103.807 69.9087 103.913 69.7008 103.962C66.7314 108.469 61.7573 111.835 58.1343 115.819C54.586 114.021 50.9302 111.738 47.9369 109.091C49.5642 107.565 57.9451 100.647 58.089 99.0988C58.1443 98.5015 57.9032 98.2849 57.5633 97.8496C56.745 97.7489 56.3684 98.0163 55.7376 98.5138C52.3576 101.178 49.3016 104.417 46.0547 107.274C42.8757 104.585 39.1151 101.494 36.8324 98.0018C39.4536 96.442 42.1055 94.9141 44.681 93.2802C46.7944 91.9401 48.8472 90.4617 51.0012 89.1945C51.6132 89.8738 52.1735 90.6361 53.0157 91.0285C53.3369 91.0214 53.4911 91.0912 53.7477 90.8559C54.1591 90.4784 54.2628 89.9333 54.4016 89.4119C49.8312 84.623 45.9125 78.771 42.9538 72.8553C41.8647 70.6773 41.1016 68.2227 39.8844 66.1365C39.1509 66.4847 38.4212 66.8572 37.6748 67.1752C36.0317 66.8451 34.5108 66.4549 33.0006 65.7052L32.2387 63.7887C32.9981 63.2904 33.4874 62.3329 33.9835 61.583C34.514 61.3217 35.0778 61.1741 35.6421 60.9999C36.6056 61.0365 37.3595 60.8283 38.2389 60.4514Z" fill="#F9CF31"/>
<path d="M71.614 22.4482C71.4886 22.8314 71.3696 23.347 71.158 23.6858C71.0126 23.9192 70.7771 24.2239 70.4793 24.2587C69.3623 24.3896 67.6123 23.2867 66.4753 22.9981C64.363 22.4624 59.76 22.6499 58.2389 21.5665C58.232 21.1879 58.2621 20.8447 58.302 20.4693C58.5791 20.1057 58.8634 19.9416 59.3017 19.8049C62.4733 18.818 68.7568 20.8989 71.614 22.4482Z" fill="#203B53"/>
<path d="M109.8 88.7667C109.733 89.2238 109.683 89.7139 109.555 90.158C109.406 90.6761 109.187 90.81 108.728 91.0356C108.16 90.988 107.638 90.8944 107.201 90.494C107.156 90.4531 106.832 90.0443 106.813 89.9341C106.698 89.2654 107.251 87.4493 107.371 86.6919C107.71 84.483 107.904 82.2615 107.957 80.0272C107.92 79.2636 107.794 78.5245 108.169 77.8274C108.587 77.4976 108.865 77.2573 109.446 77.2981C109.978 77.3349 110.184 77.6027 110.497 77.9669C110.866 80.6174 110.474 84.2999 110.008 86.9562C109.912 87.5042 109.841 88.0265 109.809 88.5824L109.8 88.7667Z" fill="#203B53"/>
<path d="M51.3366 24.1174C50.4798 25.8976 47.8786 26.9914 46.6817 28.68C45.5995 30.2063 45.2647 32.2494 44.1708 33.7864C43.8415 34.2483 43.6339 34.379 43.0906 34.4916C42.5353 34.1315 42.4144 33.7442 42.1033 33.1682C42.8044 29.7913 45.1475 25.306 47.975 23.2309C48.673 22.7189 49.2437 22.5593 50.0985 22.6867C50.7688 23.0286 50.9835 23.49 51.3366 24.1174Z" fill="#203B53"/>
<path d="M45.0505 55.4525C44.3779 56.0739 43.5405 56.1161 42.6706 56.2695C41.2583 51.9634 40.7909 46.738 41.2257 42.2371C41.4371 42.0205 41.6714 41.7498 41.9265 41.5765C42.3747 41.2713 42.702 41.2181 43.2213 41.2931C44.0576 42.588 43.8436 47.9969 44.0646 49.7694C44.3035 51.6813 44.6737 53.5642 45.0505 55.4525Z" fill="#203B53"/>
<path d="M102.612 98.1475C102.291 98.6951 101.958 99.138 101.479 99.5613C98.5476 102.156 93.6377 103.213 89.8212 102.961C88.4228 102.869 87.2568 102.805 86.2859 101.711C86.4176 101.301 86.572 100.948 86.7734 100.567C88.7588 99.447 91.9622 100.535 94.2317 100.064C96.6725 99.5587 98.7741 97.3158 101.093 96.922C101.764 97.1762 102.137 97.6374 102.612 98.1475Z" fill="#203B53"/>
<path d="M95.3298 40.9116C94.8804 41.5539 94.5733 41.9678 93.819 42.1942C92.0873 41.7685 90.4492 38.463 89.216 37.1339C86.5827 34.295 83.1996 32.2842 80.5183 29.5395C80.7062 29.186 80.9149 28.8429 81.1168 28.4971C81.6681 28.2315 81.9625 28.0844 82.5789 28.2331C86.0498 29.0694 93.2835 37.7151 95.3298 40.9116Z" fill="#203B53"/>
<path d="M38.2387 60.4503C38.6307 60.3948 38.9763 60.4192 39.3643 60.4853C40.5241 60.6842 41.9044 61.5377 42.5306 62.5468C42.7625 62.9206 42.8611 63.3598 42.7349 63.7825C42.3988 64.9118 40.8379 65.568 39.8842 66.1354C39.1507 66.4837 38.421 66.8561 37.6746 67.1742C36.0315 66.844 34.5106 66.4539 33.0004 65.7041L32.2385 63.7876C32.9979 63.2894 33.4872 62.3318 33.9832 61.582C34.5138 61.3207 35.0776 61.173 35.6419 60.9988C36.6053 61.0354 37.3593 60.8272 38.2387 60.4503Z" fill="#FAEECB"/>
<path d="M109.043 67.2205C108.899 67.455 108.812 67.6185 108.615 67.8275C108.212 68.2562 107.802 68.2806 107.258 68.2699C105.882 67.29 105.753 64.8627 105.185 63.2886C104.413 61.1516 103.513 59.0705 102.484 57.0453C101.455 55.0197 100.305 53.066 99.0334 51.1833C99.2319 50.7867 99.4481 50.2993 99.8762 50.0957C100.369 49.8618 100.748 49.9157 101.219 50.16C103.674 51.4343 108.389 64.2838 109.043 67.2205Z" fill="#203B53"/>
<path d="M80.1821 99.3133C80.0823 99.912 79.9532 100.427 79.7537 101C79.3265 101.275 78.9732 101.191 78.4937 101.081C75.238 100.33 63.9296 93.3806 62.1041 90.6847C62.5626 90.0983 63.1891 89.3009 63.9511 89.1293C64.604 88.9819 68.0422 92.3677 68.8789 92.9106C72.4901 95.2531 76.723 96.8341 80.1821 99.3133Z" fill="#203B53"/>
<path d="M101.942 81.5675C101.934 81.6446 101.929 81.7225 101.917 81.7993C101.347 85.7802 99.6713 89.5294 96.4117 91.9907C92.6379 94.8408 88.2015 95.8209 83.5483 95.1626C77.7295 94.3391 73.4981 91.6057 68.7332 88.4079C66.7815 87.098 64.7686 85.8168 63.0218 84.2351C60.9091 82.3231 58.9481 80.058 57.2439 77.7731C49.1345 66.8996 45.7004 56.3292 47.6463 42.6878C47.6532 42.5956 47.6536 42.5025 47.6679 42.4109C48.2748 38.4854 50.8147 34.537 53.8981 32.0891C54.1032 31.9278 54.3117 31.7719 54.5242 31.6211C54.737 31.4708 54.9533 31.3255 55.1732 31.1856C55.3929 31.0461 55.6165 30.912 55.8431 30.7833C56.0698 30.6546 56.2997 30.532 56.5322 30.4146C56.7651 30.2974 57.0009 30.1863 57.2394 30.0812C57.4776 29.9761 57.7187 29.8766 57.9621 29.7836C58.2054 29.6905 58.4511 29.6039 58.6988 29.5231C58.9466 29.4419 59.1961 29.3675 59.4475 29.2993C59.699 29.2312 59.9523 29.1693 60.207 29.1136C60.4613 29.0582 60.7174 29.0092 60.9746 28.9662C61.2316 28.9236 61.4896 28.8875 61.7485 28.8579C62.0076 28.8279 62.267 28.8047 62.5269 28.7883C62.7869 28.7715 63.0472 28.7614 63.3081 28.7578C63.5686 28.754 63.8291 28.7569 64.0895 28.7665C64.35 28.7761 64.6101 28.7919 64.8694 28.8141C65.129 28.8369 65.3879 28.8657 65.6463 28.9014C76.3188 30.2623 84.7277 38.8599 91.0054 46.9707C97.3468 55.1646 103.233 71.1672 101.942 81.5675Z" fill="#FBB329"/>
<path d="M93.6868 71.1508C93.6334 71.3616 93.5842 71.5736 93.5217 71.782C93.3176 72.462 93.1621 72.6481 92.5626 72.9605C91.4558 72.9381 90.2242 72.0821 89.2081 71.6167C88.9217 72.3692 88.6477 73.1491 88.2868 73.8687C87.567 75.3053 86.0923 77.2467 84.4508 77.6842C83.8579 77.8423 83.1876 77.8598 82.6602 77.5005C82.1334 77.1422 81.9911 76.7581 81.8577 76.1646C82.0918 74.5221 84.0992 74.3164 85.0613 73.1631C86.6887 71.2127 87.3163 68.8821 87.0418 66.369C86.67 62.965 85.0189 59.5235 82.24 57.4557C81.1367 56.6349 79.9711 56.1616 78.5866 56.4385C74.3031 57.2956 74.5563 66.2089 72.2895 69.4329C70.8734 71.4466 68.9892 72.0929 66.6837 72.5094C63.7848 71.4669 61.3143 69.9668 59.4492 67.472C56.6149 63.681 55.7651 58.8029 56.4368 54.1814C54.8739 53.6418 53.295 52.9339 51.8518 52.1272C51.8696 51.7481 51.8674 51.1288 52.0267 50.7823C52.2869 50.2154 52.5307 50.146 53.062 49.9152C54.5925 49.995 55.5861 50.859 56.7575 51.7449C57.9888 49.5537 60.0442 46.2606 62.6427 45.5873C63.0413 45.4841 63.4368 45.5219 63.765 45.7748C64.41 46.2726 64.4992 46.943 64.5969 47.6932C64.2898 48.2952 60.7299 50.8076 59.8095 51.7585C59.5213 52.9973 59.1709 54.2301 59.062 55.5014C58.7354 59.3193 59.7272 63.6893 62.3261 66.6099C63.4223 67.8416 65.542 69.2695 67.2467 69.3032C71.7154 69.3923 71.4007 58.1732 74.8569 54.7414C75.8068 53.7984 77.0428 53.2888 78.3855 53.3374C81.0013 53.4315 83.721 54.985 85.504 56.8328C88.6597 60.1032 89.5896 64.1017 89.4775 68.5196C90.8549 69.3225 92.5036 70.0941 93.6868 71.1508Z" fill="#203B53"/>
<path d="M62.9058 350.711L58.122 351.182C55.3427 351.01 50.7157 349.017 48.1109 347.85C42.6345 345.395 39.3135 341.929 37.2043 336.329C35.1032 330.75 35.5088 323.5 37.2165 317.835C37.7997 315.901 38.6746 314.014 39.5144 312.181C43.8088 302.807 52.8292 293.266 62.5869 289.682C67.6481 287.823 73.7844 287.029 78.8279 289.394C82.0459 290.903 84.479 293.502 86.9913 295.929C88.1489 297.047 89.3806 298.105 90.3432 299.403C91.2835 300.671 91.9878 302.038 92.5183 303.524C95.1872 311 93.175 319.832 89.8559 326.82C85.6522 335.67 78.5161 343.92 69.6093 348.257C67.4565 349.305 65.2538 349.861 63.0221 350.668L62.9058 350.711Z" fill="#203B53"/>
<path d="M46.8477 343.77C46.1832 343.605 45.5064 343.3 44.8724 343.042C40.3675 341.208 40.0275 339.414 38.2843 335.253C40.4952 336.012 42.5529 337.084 44.7105 337.968C45.1278 340.047 45.7835 341.936 46.8477 343.77Z" fill="#F9CF31"/>
<path d="M84.5547 295.225C81.7325 294.289 79.078 294.148 76.1276 294.326C74.0275 293.034 72.1501 291.042 70.2545 289.453C71.1284 289.366 72.0189 289.253 72.8975 289.312C76.5149 289.555 79.311 291.036 82.1492 293.176C82.9636 293.79 83.884 294.46 84.5547 295.225Z" fill="#EB8B32"/>
<path d="M68.1734 297.212C68.1124 297.228 67.9036 297.289 67.8464 297.287C67.5789 297.279 67.5198 297.128 67.3507 296.951C65.5432 295.05 63.7131 293.309 61.7095 291.614C63.7629 290.723 65.7204 290.106 67.9028 289.636C68.1507 289.584 68.3788 289.565 68.6318 289.557C70.2868 291.44 72.3837 293.127 74.2748 294.766C72.125 295.429 70.1846 296.212 68.1734 297.212Z" fill="#F9CF31"/>
<path d="M44.4463 336.419C42.9395 335.642 38.7865 333.997 37.8026 332.991C37.0671 332.238 37.1415 326.838 37.1916 325.551C39.3318 326.805 42.7188 327.88 44.5031 329.192C44.3176 331.619 44.3425 333.989 44.4463 336.419Z" fill="#EB8B32"/>
<path d="M58.5452 304.03C57.5253 304.911 56.7099 305.993 55.6748 306.861C52.9979 305.473 50.6021 303.375 48.2318 301.526C49.78 299.842 51.424 298.244 53.2547 296.865C54.8509 298.332 56.5633 300.17 58.3957 301.325C58.3018 302.253 58.3961 303.116 58.5452 304.03Z" fill="#F9CF31"/>
<path d="M66.5297 297.984C64.674 299.086 62.918 300.288 61.3459 301.776C61.1459 301.518 60.9597 301.255 60.7212 301.031C60.2367 300.92 59.646 300.854 59.2404 300.558C58.8847 299.324 55.5052 297.139 54.5019 295.972C56.3466 294.491 58.1808 293.373 60.2727 292.284C62.2501 294.298 64.5096 296.013 66.5297 297.984Z" fill="#F9CF31"/>
<path d="M50.3847 313.845C48.7509 312.85 44.4489 309.583 43.1553 308.262C44.3689 306.242 45.8168 304.388 47.302 302.565C47.948 302.788 49.2412 304.164 49.8888 304.689C51.3536 305.879 52.9057 306.947 54.4566 308.02C52.9201 309.871 51.6759 311.827 50.3847 313.845Z" fill="#EB8B32"/>
<path d="M62.1346 303.008C62.7625 302.211 63.6614 301.56 64.4915 300.989C69.3444 297.651 76.1861 294.838 82.1546 295.964C85.1186 296.522 87.8006 298.022 89.511 300.559C92.8185 305.465 92.6833 312.145 91.5991 317.73C91.1395 320.098 90.3044 322.217 89.3754 324.432C88.5524 326.394 87.6938 328.354 86.6297 330.2C83.2685 336.03 78.3361 341.107 72.7737 344.865C68.8461 347.519 61.8223 350.715 56.9982 349.743C49.0851 348.147 45.7251 340.988 45.6296 333.509C45.6209 332.845 46.005 328.231 45.9457 328.052C45.9084 327.94 45.8138 327.856 45.7479 327.758C42.8381 327.099 40.1281 325.181 37.3614 324.082C37.6009 321.896 38.0702 319.56 38.8569 317.496C39.9633 318.041 45.1742 321.03 46.0034 320.803C46.3232 320.715 46.3884 320.548 46.5474 320.288C46.4401 319.845 46.2285 319.702 45.8483 319.473C43.8116 318.243 41.5408 317.292 39.4304 316.168C40.203 314 41.0701 311.452 42.4324 309.591C43.7498 310.644 45.0566 311.719 46.4034 312.733C47.5082 313.566 48.6728 314.34 49.7479 315.208C49.5155 315.656 49.2302 316.095 49.1912 316.607C49.2574 316.772 49.2513 316.865 49.423 316.952C49.6984 317.091 50.0006 317.039 50.2974 317.009C51.8853 313.712 54.1501 310.545 56.6348 307.863C57.5497 306.875 58.6711 306.002 59.5135 304.966C59.1905 304.655 58.8557 304.35 58.5459 304.025C58.3968 303.111 58.3025 302.248 58.3964 301.321L59.2397 300.554C59.6453 300.849 60.236 300.916 60.7205 301.027C60.959 301.25 61.1452 301.513 61.3452 301.771C61.5138 302.277 61.7683 302.627 62.1346 303.008Z" fill="#F9CF31"/>
<path d="M88.2953 312.881C88.0726 312.891 87.7827 312.93 87.5662 312.886C87.4171 312.857 87.2136 312.794 87.1376 312.647C86.8524 312.094 87.0823 310.974 87.0103 310.33C86.8762 309.132 85.883 306.787 86.1474 305.789C86.3419 305.712 86.5254 305.661 86.7274 305.608C86.9694 305.681 87.1097 305.796 87.2657 305.996C88.3939 307.445 88.5406 311.101 88.2953 312.881Z" fill="#203B53"/>
<path d="M61.4169 345.547C61.1672 345.601 60.9041 345.671 60.6494 345.692C60.3522 345.715 60.2403 345.628 60.0342 345.434C59.9484 345.132 59.8951 344.843 60.0171 344.539C60.0296 344.508 60.1779 344.26 60.2313 344.229C60.555 344.04 61.6023 343.972 62.0175 343.887C63.2262 343.632 64.4136 343.3 65.5797 342.892C65.9677 342.724 66.3255 342.515 66.7592 342.574C67.0112 342.726 67.1897 342.823 67.2818 343.131C67.3663 343.414 67.2678 343.572 67.1402 343.805C65.8408 344.512 63.8591 345.026 62.3941 345.303C62.0919 345.36 61.8079 345.425 61.5141 345.516L61.4169 345.547Z" fill="#203B53"/>
<path d="M83.4834 302.715C82.3955 302.618 81.3231 301.485 80.2164 301.194C79.216 300.932 78.0938 301.156 77.0855 300.89C76.7824 300.809 76.6744 300.727 76.5104 300.468C76.5886 300.111 76.7654 299.973 77.0029 299.699C78.8865 299.405 81.6634 299.744 83.2876 300.803C83.6884 301.064 83.8821 301.328 83.9826 301.795C83.9362 302.209 83.7392 302.41 83.4834 302.715Z" fill="#203B53"/>
<path d="M66.0475 305.563C65.5951 305.336 65.4102 304.911 65.1615 304.491C67.1144 302.922 69.727 301.662 72.1404 301.011C72.2936 301.078 72.4793 301.147 72.6186 301.245C72.8638 301.418 72.9551 301.577 73.0174 301.86C72.5102 302.545 69.67 303.487 68.796 303.946C67.8533 304.442 66.9512 305 66.0475 305.563Z" fill="#203B53"/>
<path d="M55.1637 343.655C54.8179 343.595 54.5238 343.509 54.2116 343.344C52.2984 342.332 50.7958 339.998 50.183 337.974C49.9584 337.233 49.7645 336.617 50.1412 335.902C50.379 335.89 50.5918 335.901 50.828 335.931C51.7941 336.74 51.8552 338.609 52.5404 339.692C53.2772 340.856 54.8468 341.507 55.502 342.63C55.5011 343.027 55.3352 343.31 55.1637 343.655Z" fill="#203B53"/>
<path d="M83.3589 328.744C82.939 328.637 82.6651 328.558 82.4011 328.212C82.2842 327.233 83.6755 325.742 84.1231 324.845C85.0792 322.93 85.4609 320.788 86.3589 318.867C86.5784 318.895 86.7966 318.936 87.0148 318.973C87.2595 319.207 87.393 319.33 87.4361 319.678C87.6791 321.637 84.6143 327.063 83.3589 328.744Z" fill="#203B53"/>
<path d="M62.1343 303.012C62.2393 303.204 62.294 303.388 62.3354 303.601C62.4583 304.24 62.2854 305.12 61.8852 305.641C61.737 305.834 61.5289 305.97 61.2857 305.987C60.636 306.033 59.9925 305.353 59.5133 304.97C59.1903 304.659 58.8555 304.354 58.5456 304.029C58.3965 303.115 58.3023 302.252 58.3962 301.325L59.2394 300.557C59.6451 300.853 60.2358 300.92 60.7203 301.031C60.9588 301.254 61.1449 301.517 61.345 301.775C61.5136 302.281 61.7681 302.63 62.1343 303.012Z" fill="#FAEECB"/>
<path d="M72.4179 340.961C72.2683 340.931 72.1668 340.918 72.0204 340.857C71.7201 340.732 71.6277 340.525 71.5273 340.241C71.7664 339.339 72.9971 338.799 73.7008 338.199C74.6564 337.384 75.5579 336.513 76.4053 335.586C77.2529 334.659 78.0398 333.683 78.7664 332.659C79.0103 332.685 79.3045 332.702 79.4932 332.884C79.7102 333.093 79.7562 333.3 79.7215 333.591C79.5401 335.109 73.8099 340.051 72.4179 340.961Z" fill="#203B53"/>
<path d="M50.1936 332.277C49.8644 332.342 49.5728 332.376 49.2373 332.384C49.0119 332.216 48.9866 332.017 48.9505 331.748C48.705 329.917 50.0988 322.713 51.1382 321.244C51.5309 321.367 52.0654 321.536 52.3026 321.897C52.506 322.206 51.4236 324.644 51.3056 325.182C50.7967 327.507 50.8029 330.005 50.1936 332.277Z" fill="#203B53"/>
<path d="M63.6118 340.081C63.5702 340.092 63.5289 340.104 63.4869 340.113C61.3163 340.593 59.0501 340.456 57.142 339.249C54.9327 337.851 53.5618 335.746 52.9964 333.211C52.2896 330.04 52.88 327.318 53.6068 324.23C53.9045 322.966 54.1755 321.675 54.6538 320.463C55.2317 318.998 56.0218 317.542 56.8722 316.215C60.9193 309.902 65.7197 306.068 73.1565 304.419C73.2056 304.404 73.2538 304.386 73.304 304.376C75.4532 303.926 77.9906 304.471 79.8574 305.59C79.9808 305.664 80.102 305.742 80.2214 305.822C80.3406 305.903 80.4579 305.987 80.5731 306.073C80.6881 306.16 80.801 306.25 80.9117 306.342C81.0224 306.434 81.1306 306.529 81.2366 306.626C81.3426 306.724 81.446 306.825 81.5468 306.927C81.6476 307.03 81.746 307.136 81.8415 307.243C81.937 307.351 82.0297 307.461 82.1197 307.574C82.21 307.686 82.2971 307.801 82.3813 307.918C82.4655 308.035 82.5468 308.154 82.6252 308.275C82.7034 308.395 82.7786 308.518 82.851 308.643C82.923 308.768 82.9919 308.894 83.0577 309.022C83.1236 309.15 83.1861 309.28 83.2452 309.411C83.3045 309.543 83.3604 309.675 83.4131 309.81C83.4658 309.944 83.515 310.079 83.5607 310.216C83.6065 310.352 83.649 310.49 83.6879 310.629C83.7267 310.767 83.7622 310.907 83.794 311.047C85.1678 316.834 82.3567 322.859 79.3824 327.686C76.3776 332.562 69.244 338.724 63.6118 340.081Z" fill="#FBB329"/>
<path d="M67.3943 333.781C67.2748 333.795 67.1556 333.81 67.0356 333.819C66.644 333.846 66.5174 333.801 66.239 333.552C66.0351 332.975 66.2383 332.171 66.2812 331.555C65.8361 331.553 65.3792 331.563 64.9367 331.516C64.0532 331.424 62.7617 331.039 62.2157 330.275C62.0185 329.999 61.8789 329.655 61.9621 329.312C62.0449 328.97 62.216 328.822 62.497 328.637C63.3925 328.438 63.8897 329.437 64.6737 329.71C65.9997 330.173 67.3278 330.043 68.5746 329.412C70.2634 328.557 71.7225 327.033 72.2513 325.192C72.4612 324.462 72.4791 323.766 72.0664 323.104C70.7889 321.055 66.2265 322.921 64.1171 322.376C62.7995 322.035 62.0983 321.186 61.4339 320.075C61.4089 318.372 61.704 316.801 62.6317 315.351C64.0413 313.146 66.3997 311.757 68.9216 311.204C68.8965 310.291 68.9554 309.336 69.0918 308.432C69.2914 308.368 69.6114 308.246 69.8217 308.261C70.1657 308.285 70.249 308.398 70.4719 308.628C70.7286 309.435 70.475 310.117 70.2447 310.896C71.6181 311.106 73.7221 311.529 74.5764 312.742C74.7074 312.928 74.7649 313.14 74.6979 313.359C74.5659 313.79 74.2365 313.967 73.8674 314.163C73.4961 314.122 71.5031 312.769 70.8319 312.478C70.1348 312.57 69.4287 312.629 68.7498 312.82C66.7109 313.394 64.643 314.758 63.6379 316.671C63.214 317.478 62.8879 318.853 63.2024 319.742C64.0263 322.071 69.7698 319.724 72.2183 320.844C72.8911 321.152 73.3954 321.692 73.6317 322.396C74.0923 323.768 73.818 325.478 73.2091 326.76C72.1315 329.029 70.2437 330.289 67.9361 331.091C67.7889 331.96 67.7106 332.963 67.3943 333.781Z" fill="#203B53"/>
<path d="M89.642 216.088C89.5625 217.501 89.2799 218.76 88.8112 220.089C86.178 227.555 67.55 260.938 64.2537 268.135C62.2487 272.513 60.4063 277.805 57.7391 281.789C57.2149 282.571 56.6953 282.91 55.868 283.314C55.7623 282.953 55.6559 282.594 55.5717 282.228C55.3795 281.391 55.2597 280.685 55.4737 279.843C56.7172 274.953 84.3244 221.296 87.0343 217.45C87.8741 216.26 88.2735 216.365 89.642 216.088Z" fill="#203B53"/>
<path d="M129.395 269.664C129.17 270.282 128.875 270.804 128.489 271.333C126.318 274.3 113.56 286.653 111.13 289.412C109.652 291.091 108.123 293.198 106.403 294.613C106.065 294.89 105.789 294.972 105.367 295.041C105.368 294.866 105.369 294.692 105.38 294.518C105.407 294.12 105.448 293.79 105.656 293.444C106.864 291.435 126.332 271.268 128.052 269.921C128.585 269.504 128.749 269.604 129.395 269.664Z" fill="#203B53"/>
<path d="M112.563 200.358C112.469 201.009 112.286 201.58 112.015 202.176C110.492 205.523 91.8055 237.333 89.9863 240.529C88.8798 242.473 87.8111 244.846 86.4142 246.581C86.1397 246.921 85.8855 247.057 85.4861 247.21C85.452 247.039 85.4174 246.868 85.3934 246.696C85.3386 246.301 85.312 245.969 85.4454 245.588C86.2206 243.376 109.89 202.551 111.301 200.882C111.738 200.366 111.919 200.431 112.563 200.358Z" fill="#203B53"/>
</svg>
