<svg width="92" height="56" viewBox="0 0 92 56" fill="none" xmlns="http://www.w3.org/2000/svg">
<path d="M73.8487 51.8389C73.6535 51.6436 73.6535 51.327 73.8487 51.1317L77.0307 47.9498C77.226 47.7545 77.5426 47.7545 77.7378 47.9498C77.9331 48.145 77.9331 48.4616 77.7378 48.6569L74.9094 51.4853L77.7378 54.3137C77.9331 54.509 77.9331 54.8256 77.7378 55.0208C77.5426 55.2161 77.226 55.2161 77.0307 55.0208L73.8487 51.8389ZM4.97422 0.282616C5.09435 0.0339729 5.3933 -0.0702088 5.64194 0.0499204C5.89059 0.17005 5.99477 0.468999 5.87464 0.717642L4.97422 0.282616ZM81.4239 21.5002L81.207 21.9507L81.4239 21.5002ZM74.2023 51.4853L74.2023 50.9853C79.2877 50.9853 83.0979 49.5665 85.7507 47.3759C88.4043 45.1846 89.9346 42.1928 90.4131 38.9824C91.3722 32.5466 88.0986 25.2689 81.207 21.9507L81.4239 21.5002L81.6408 21.0497C88.9462 24.5671 92.4227 32.2819 91.4021 39.1298C90.8907 42.5612 89.2488 45.7841 86.3874 48.1469C83.5252 50.5104 79.4777 51.9853 74.2023 51.9853L74.2023 51.4853ZM81.4239 21.5002L81.207 21.9507C74.6046 18.7718 65.0855 18.9774 54.7795 20.3612C49.6418 21.0511 44.3393 22.0285 39.1443 23.005C33.9543 23.9806 28.868 24.956 24.1834 25.6363C19.5013 26.3162 15.1926 26.7058 11.5572 26.5009C7.93245 26.2966 4.89815 25.4977 2.84023 23.7255C0.753462 21.9285 -0.240725 19.211 0.0498587 15.3907C0.339076 11.5884 1.90116 6.64324 4.97422 0.282616L5.42443 0.500129L5.87464 0.717642C2.8227 7.03456 1.32226 11.8475 1.04698 15.4666C0.773068 19.0676 1.71242 21.4346 3.49277 22.9677C5.30197 24.5257 8.06838 25.3027 11.6135 25.5025C15.1479 25.7017 19.3782 25.3236 24.0397 24.6467C28.6988 23.9701 33.7609 22.9994 38.9595 22.0222C44.1531 21.0459 49.4795 20.0639 54.6464 19.3701C64.9497 17.9867 74.743 17.7286 81.6408 21.0497L81.4239 21.5002Z" fill="#30A0A6"/>
</svg>
