<svg width="46" height="80" viewBox="0 0 46 80" fill="none" xmlns="http://www.w3.org/2000/svg">
<path d="M24.9765 1.66608C24.7192 1.76622 24.5917 2.05603 24.6919 2.31337L26.3238 6.50704C26.4239 6.76438 26.7137 6.89182 26.9711 6.79168C27.2284 6.69153 27.3559 6.40173 27.2557 6.14439L25.8051 2.41669L29.5328 0.966087C29.7902 0.865947 29.9176 0.576147 29.8175 0.318799C29.7173 0.0614571 29.4275 -0.0659798 29.1702 0.0341601L24.9765 1.66608ZM35.001 9.22211L35.3822 8.89862L35.3776 8.89317L35.3728 8.88786L35.001 9.22211ZM0.471108 78.7231C0.195458 78.7395 -0.0146409 78.9764 0.00183792 79.252C0.018318 79.5277 0.255135 79.7378 0.530786 79.7213L0.471108 78.7231ZM27.001 49.2221L26.6707 48.8467L27.001 49.2221ZM41.501 51.2221L41.0758 50.9589L41.501 51.2221ZM25.1578 2.13205L24.9566 2.58975C27.911 3.88894 31.5371 6.11644 34.6291 9.55635L35.001 9.22211L35.3728 8.88786C32.1673 5.32159 28.4153 3.01826 25.3591 1.67435L25.1578 2.13205ZM27.001 49.2221L27.3313 49.5975C28.3012 48.7439 29.1656 48.5624 29.8746 48.7547C30.6065 48.9531 31.3124 49.5861 31.865 50.6492C32.9693 52.7738 33.3254 56.3813 32.1255 60.3493C29.7461 68.2177 21.2274 77.4822 0.471108 78.7231L0.500947 79.2222L0.530786 79.7213C21.5931 78.4621 30.5526 69.0058 33.0827 60.6387C34.3375 56.489 34.0061 52.6002 32.7523 50.188C32.1258 48.9828 31.2349 48.0873 30.1363 47.7895C29.0147 47.4854 27.8148 47.8399 26.6707 48.8467L27.001 49.2221ZM35.001 9.22211L34.6197 9.54559C38.8238 14.5004 42.0694 22.2468 43.4389 30.0929C44.8105 37.9513 44.2791 45.7844 41.0758 50.9589L41.501 51.2221L41.9261 51.4853C45.318 46.006 45.813 37.8791 44.424 29.9209C43.0328 21.9504 39.7308 14.0238 35.3822 8.89862L35.001 9.22211ZM41.501 51.2221L41.0758 50.9589C37.959 55.9939 33.0834 56.7528 29.7174 55.6639C28.0174 55.1139 26.7692 54.1163 26.2765 53.0319C26.0344 52.499 25.9715 51.9425 26.1184 51.3813C26.2665 50.8161 26.6382 50.2074 27.3313 49.5975L27.001 49.2221L26.6707 48.8467C25.8638 49.5568 25.3604 50.3287 25.1511 51.1279C24.9407 51.9313 25.0378 52.723 25.3661 53.4455C26.014 54.8717 27.5471 56.0128 29.4096 56.6153C33.1685 57.8314 38.543 56.9503 41.9261 51.4853L41.501 51.2221Z" fill="#30A0A6"/>
</svg>
