<svg width="22" height="50" viewBox="0 0 22 50" fill="none" xmlns="http://www.w3.org/2000/svg">
<path d="M16.4376 46.4043C16.6609 46.2418 16.7102 45.9291 16.5477 45.7058L13.8999 42.0672C13.7374 41.844 13.4247 41.7947 13.2014 41.9572C12.9782 42.1196 12.9289 42.4324 13.0913 42.6556L15.445 45.8899L12.2107 48.2435C11.9874 48.406 11.9381 48.7187 12.1006 48.942C12.2631 49.1653 12.5758 49.2146 12.7991 49.0521L16.4376 46.4043ZM21.514 0.943171C21.7587 0.81518 21.8533 0.513062 21.7253 0.268373C21.5973 0.0236843 21.2952 -0.0709174 21.0505 0.0570744L21.514 0.943171ZM16.1434 46L16.2213 45.5061C8.52522 44.2932 1.85095 37.3604 1.07542 28.6434C0.30401 19.9727 5.37667 9.3843 21.514 0.943171L21.2823 0.500123L21.0505 0.0570744C4.68784 8.61607 -0.739531 19.5277 0.0793527 28.732C0.89411 37.8899 7.90045 45.2071 16.0656 46.4939L16.1434 46Z" fill="#30A0A6"/>
</svg>
