<svg width="89" height="72" viewBox="0 0 89 72" fill="none" xmlns="http://www.w3.org/2000/svg">
<path d="M0.206401 2.74358C-0.0168792 2.90606 -0.0661648 3.21878 0.0963184 3.44206L2.74413 7.08062C2.90661 7.3039 3.21934 7.35318 3.44262 7.1907C3.6659 7.02822 3.71518 6.71549 3.5527 6.49221L1.19909 3.25794L4.43336 0.904331C4.65664 0.741848 4.70592 0.429125 4.54344 0.205846C4.38096 -0.0174337 4.06824 -0.0667214 3.84496 0.0957621L0.206401 2.74358ZM69.6721 70.7433C69.4465 70.9026 69.3927 71.2146 69.552 71.4401C69.7112 71.6657 70.0232 71.7195 70.2488 71.5602L69.6721 70.7433ZM0.500602 3.14786L0.422762 3.64177C8.3523 4.89147 41.4126 10.7582 64.603 21.8493C70.3961 24.6199 75.5535 27.7076 79.5436 31.1167C83.536 34.5278 86.3292 38.2343 87.4516 42.2375C89.6769 50.1743 85.3983 59.6412 69.6721 70.7433L69.9604 71.1518L70.2488 71.5602C86.0429 60.4103 90.8245 50.5632 88.4145 41.9676C87.2192 37.7046 84.2708 33.8403 80.1932 30.3564C76.1134 26.8707 70.8724 23.7392 65.0344 20.9471C41.7 9.78717 8.51012 3.904 0.578443 2.65396L0.500602 3.14786Z" fill="#30A0A6"/>
</svg>
