<svg width="134" height="47" viewBox="0 0 134 47" fill="none" xmlns="http://www.w3.org/2000/svg">
<path d="M8.65348 44.6011C8.8917 44.4614 8.97159 44.1551 8.83192 43.9169L6.55586 40.0349C6.41619 39.7967 6.10986 39.7168 5.87164 39.8565C5.63342 39.9961 5.55354 40.3025 5.69321 40.5407L7.71637 43.9913L4.26574 46.0145C4.02752 46.1541 3.94763 46.4605 4.0873 46.6987C4.22697 46.9369 4.53331 47.0168 4.77153 46.8771L8.65348 44.6011ZM44.8827 18.0001L44.7542 18.4833L44.8827 18.0001ZM70.8833 10L70.5579 10.3796L70.8833 10ZM95.3826 31L95.4786 31.4907L95.3826 31ZM132.869 0.385585C132.806 0.116786 132.537 -0.049836 132.268 0.0134242C131.999 0.0766843 131.833 0.345871 131.896 0.61467L132.869 0.385585ZM8.40059 44.1698L8.52676 43.6859C4.83415 42.723 2.35759 39.9486 1.41935 36.4829C0.479635 33.0118 1.08705 28.8451 3.60307 25.1599C8.61596 17.8175 21.3447 12.2574 44.7542 18.4833L44.8827 18.0001L45.0112 17.5169C21.4207 11.2428 8.13971 16.7415 2.7772 24.596C0.105521 28.5092 -0.566178 32.9755 0.454097 36.7442C1.47584 40.5183 4.19835 43.5906 8.27442 44.6536L8.40059 44.1698ZM44.8827 18.0001L44.7542 18.4833C53.4527 20.7967 61.8062 20.3012 67.1348 18.4407C69.7792 17.5175 71.7808 16.2219 72.6353 14.6665C73.073 13.8696 73.2077 13.0048 72.9647 12.1217C72.725 11.251 72.1323 10.4121 71.2087 9.62039L70.8833 10L70.5579 10.3796C71.3842 11.0879 71.8299 11.7673 72.0005 12.3871C72.1677 12.9946 72.0842 13.5927 71.7588 14.185C71.0869 15.4082 69.382 16.597 66.8052 17.4966C61.6916 19.282 53.5448 19.7865 45.0112 17.5169L44.8827 18.0001ZM70.8833 10L71.2087 9.62039C69.6954 8.32331 68.1523 7.80248 66.7036 7.94958C65.2606 8.09611 63.9957 8.89684 63.0159 10.0773C61.0658 12.4268 60.1572 16.3704 61.0926 20.3016C62.0345 24.2604 64.8443 28.2142 70.3357 30.591C75.8112 32.9609 83.9219 33.7518 95.4786 31.4907L95.3826 31L95.2866 30.5093C83.8432 32.7482 75.9568 31.9343 70.7329 29.6733C65.5249 27.4192 62.9329 23.716 62.0654 20.0701C61.1914 16.3966 62.0657 12.7878 63.7854 10.716C64.6405 9.68569 65.6824 9.05842 66.8046 8.94447C67.9212 8.83109 69.2019 9.21732 70.5579 10.3796L70.8833 10ZM95.3826 31L95.4786 31.4907C106.328 29.3681 116.157 23.8218 123.027 17.7343C126.462 14.6903 129.173 11.4975 130.902 8.51055C132.621 5.54057 133.413 2.6954 132.869 0.385585L132.383 0.500127L131.896 0.61467C132.353 2.5548 131.708 5.12128 130.036 8.00964C128.374 10.881 125.741 13.9932 122.364 16.9859C115.609 22.9717 105.938 28.4255 95.2866 30.5093L95.3826 31Z" fill="#30A0A6"/>
</svg>
