<svg width="32" height="32" viewBox="0 0 32 32" fill="none" xmlns="http://www.w3.org/2000/svg">
<path fill-rule="evenodd" clip-rule="evenodd" d="M0.00156628 10.6114C0.153062 10.2686 0.424383 10.0949 0.766215 9.94148C1.03214 8.99852 1.37216 8.08855 1.72911 7.17488C1.53056 6.92241 1.26332 6.6457 1.22618 6.31844C1.2029 6.11322 1.24264 5.98114 1.37168 5.82039L1.55332 5.80379C1.9562 5.9439 2.06166 6.16702 2.24961 6.51375C2.3216 6.32569 2.38649 6.08925 2.48887 5.91609C2.59964 5.72885 2.65434 5.7313 2.85899 5.66316L2.88926 5.67488C3.15672 5.54273 3.25813 5.24597 3.38828 4.99812C3.37793 4.98715 3.36766 4.97577 3.35703 4.96492C3.18671 4.79126 2.98242 4.61297 2.89024 4.3868C2.80879 4.18643 2.83305 4.04879 2.91368 3.85555C3.0303 3.79239 3.05553 3.76186 3.1959 3.76082C3.57066 3.75827 3.82003 4.05616 4.07286 4.28426L5.03965 3.39852C4.96158 3.16161 4.847 2.90243 4.94883 2.65633C5.01066 2.50695 5.09088 2.42321 5.25938 2.39559C5.47914 2.3597 5.67685 2.50639 5.8502 2.61434C6.30051 2.264 9.09565 0.0731254 9.31797 0.00300748C9.50165 0.0343414 9.54754 0.0319744 9.68418 0.149492L9.6793 0.298906C9.469 0.700306 9.11417 0.925174 8.73301 1.1573C9.83379 0.852335 11.0177 0.482782 12.148 0.318437C12.7342 0.233226 13.4647 0.508729 14.0133 0.28621C14.127 0.151212 14.1784 0.0647005 14.3531 7.56666e-05C14.679 0.0477002 14.977 0.215345 15.2965 0.247148C15.7321 0.290437 16.1795 0.273456 16.6188 0.316484C19.3026 0.579589 21.7905 1.25282 24.0172 2.77156C26.5385 4.49102 29.1614 8.20159 30.2301 10.9708C30.7355 12.2803 31.0072 13.6539 31.2467 15.0264C31.5474 15.2306 31.8533 15.4736 31.9996 15.8057C31.9344 16.0583 31.7273 16.1038 31.565 16.2979C31.3523 16.5526 31.4371 16.909 31.4596 17.2149C31.4735 17.6862 31.4398 18.1612 31.3902 18.63C31.0292 22.0474 29.6805 24.6664 26.901 26.8409L27.4176 27.3839C27.2771 27.6116 27.1354 27.8737 26.8395 27.9307C26.4133 28.013 25.9573 27.6667 25.6139 27.4649C25.4802 27.5774 24.7466 28.103 24.7477 28.2471C24.7491 28.3881 24.8701 28.5195 24.8268 28.6671C24.781 28.822 24.656 28.9412 24.5055 29.0079C24.254 29.1195 23.7787 28.8744 23.5377 28.7823C23.0805 29.0248 22.6205 29.204 22.1315 29.38C22.2483 29.4825 22.3557 29.5827 22.4254 29.7218C22.5046 29.8796 22.4842 30.0408 22.4283 30.2003C22.3566 30.2748 22.2922 30.3374 22.193 30.378C21.5405 30.6447 21.1356 30.2992 20.5582 30.087C20.3789 30.0211 20.285 30.0001 20.1061 30.0655C19.991 30.2324 19.8936 30.366 19.7281 30.4932C19.4234 30.5493 19.1938 30.4372 18.9176 30.3311C18.768 30.3749 18.7039 30.3922 18.5875 30.5001C18.4509 30.6268 18.5453 30.5592 18.3971 30.6632C18.1563 30.8319 17.6155 30.684 17.3356 30.6407C17.5894 30.9083 17.8579 31.0697 18.1539 31.2852C18.3414 31.4218 18.4169 31.5428 18.4527 31.7628C18.3659 31.884 18.3255 31.9612 18.1607 31.9923C17.5355 32.1099 16.4564 30.9312 15.9459 30.6065C15.3231 30.2108 14.2378 30.2464 13.5113 30.0284C11.8803 29.539 10.1978 28.7095 8.79454 27.7833C4.87467 25.1959 1.73898 21.4317 0.733012 16.9054C0.400453 15.4088 0.380886 13.8905 0.0914101 12.3956C0.0654775 12.1857 0.0607009 12.0219 0.208598 11.8516C0.766195 11.2099 -0.0400614 11.2898 0.00156628 10.6114ZM24.3219 11.2637C25.2545 12.2375 26.2897 13.121 27.2516 14.0684C28.078 14.8825 28.8357 15.7691 29.6979 16.5479C29.8676 16.7014 30.1935 17.0365 30.4244 17.0548C30.4356 17.0556 30.4473 17.0527 30.4586 17.0518L30.4625 15.8839C29.4006 15.2493 24.9381 11.4001 24.3219 11.2637ZM21.9527 12.5733C23.7565 14.1507 25.5833 15.6342 27.2311 17.3731C27.8717 18.0493 29.3271 19.8753 30.1041 20.2325C30.2128 20.1645 30.1843 20.2099 30.2086 20.1065C30.3165 19.6606 30.3859 19.2237 30.4107 18.7657C29.3212 18.0927 28.2624 17.3771 27.2359 16.6182C26.4838 16.0649 22.4142 12.5674 21.9527 12.5733ZM24.9068 7.39168C25.7962 8.66311 26.7454 9.89223 27.7535 11.0792C28.4971 11.9429 29.2934 12.7659 29.9859 13.669C29.856 13.1768 29.7078 12.7071 29.5191 12.2325C28.763 10.5671 27.6111 9.48362 26.3268 8.18367C25.974 7.82679 25.6108 7.35009 25.2057 7.05574C25.2919 7.17925 25.6694 7.63132 25.6686 7.74519C25.4673 7.58809 25.2352 7.30823 24.9908 7.25691C24.9089 7.37084 24.927 7.32223 24.9068 7.39168ZM20.3297 14.3721C21.002 14.9021 21.6809 15.4276 22.3092 16.0059C23.1961 16.8225 28.7544 22.3355 29.2096 22.5255C29.3465 22.4332 29.2887 22.4904 29.3815 22.3497L29.7086 21.5929C28.7497 21.0081 27.8623 20.3732 26.9859 19.6798C26.0349 18.9271 21.0237 14.452 20.3297 14.3721ZM16.6139 14.5987C17.3378 15.1995 18.0697 15.7953 18.776 16.4151C20.0106 17.4989 27.5078 24.3546 28.0055 24.4845C28.143 24.422 28.2214 24.3536 28.3268 24.2491L28.4947 24.0059C28.4059 23.7069 27.5336 23.1992 27.2379 22.9845C26.192 22.2231 25.1743 21.4281 24.1861 20.5987C23.0645 19.6649 17.6821 14.9688 16.7789 14.6134C16.7263 14.5928 16.6687 14.5885 16.6139 14.5987ZM13.7154 15.0938C14.5034 16.0806 16.1295 17.4049 17.1207 18.3155C19.76 20.7402 23.2876 24.2752 26.2691 26.1495C26.3896 26.1178 26.4862 26.0829 26.5953 26.0245C26.4766 25.7024 24.1904 24.1895 23.734 23.8516C22.753 23.1255 21.8306 22.2708 20.9205 21.4639C19.3742 20.0832 17.8362 18.6935 16.3063 17.296C15.7867 16.8233 14.352 15.3615 13.8453 15.1153C13.7777 15.0825 13.7881 15.0904 13.7154 15.0938ZM13.0406 18.1358C13.2903 18.4701 13.6003 18.7553 13.8981 19.0499C13.8208 19.1427 13.6743 19.2605 13.6891 19.3819C13.7483 19.8613 14.3865 20.1267 14.6422 20.5137C14.8443 20.6915 15.0486 20.8673 15.2545 21.0411C15.6829 21.57 16.0528 21.9377 16.6412 22.2999C16.7184 22.3658 16.7944 22.4202 16.8834 22.4708C17.87 23.0313 18.6429 23.9489 19.5191 24.6641C20.8726 25.7499 22.2935 26.7489 23.7809 27.6593C24.0496 27.4416 24.3402 27.2719 24.6393 27.0968C21.2985 25.451 18.4893 22.8021 15.732 20.3985C15.0212 19.7791 13.8167 18.5249 13.0406 18.1358ZM16.1529 24.087C17.7368 25.7726 19.4145 27.3369 21.2731 28.7471L22.1695 28.4766C22.1231 28.2983 21.793 28.1692 21.6275 28.0733C20.3616 27.3401 19.1921 26.5517 18.065 25.6339C17.4505 25.1333 16.8457 24.4668 16.1676 24.0616L16.1529 24.087ZM14.2281 1.42977C15.0287 2.04224 21.5534 6.59491 21.9137 6.5948L21.9059 6.53621C21.0695 5.78819 16.1167 2.15496 15.9098 1.68074L15.9488 1.46394C15.6573 1.2517 14.8403 1.27836 14.484 1.32137C14.3558 1.33673 14.3238 1.34254 14.2281 1.42977ZM18.9137 1.79305C19.0974 2.00832 19.2669 2.25995 19.5816 2.27937C19.7104 2.28715 19.7531 2.24043 19.859 2.18172C19.5981 1.94404 19.3261 1.81185 18.9713 1.75301L18.9137 1.79305ZM11.191 1.71004C12.1417 2.46939 19.4163 7.95152 19.692 8.0118L19.6344 7.9034C18.2834 6.34645 15.6456 4.465 13.9859 3.07625C13.3717 2.56225 12.8733 1.91521 12.2496 1.42C11.9537 1.47104 11.4575 1.49272 11.2135 1.6534L11.191 1.71004ZM8.15489 2.50496C8.80074 2.8381 9.41182 3.19994 10.0084 3.60848C10.8943 4.21531 18.6339 9.94081 18.9234 9.90926L18.7076 9.71199C16.2921 7.70753 13.7325 5.85941 11.4068 3.75789C10.7828 3.19402 10.077 2.61938 9.57188 1.95223C9.18214 2.08932 8.4502 2.24869 8.15489 2.50496ZM12.9 26.3399C14.138 27.4536 15.3458 28.6377 16.65 29.6778C17.1461 29.5744 17.622 29.5288 18.1275 29.4971C17.9818 29.3061 13.5925 26.6733 12.9772 26.3194L12.9 26.3399ZM6.5377 3.34773C7.70592 4.12225 8.7776 5.08452 9.86778 5.95906C11.3382 7.13866 12.8671 8.20149 14.4176 9.27937C15.0441 9.71502 15.6229 10.2107 16.2799 10.6046L16.3121 10.5772C16.229 10.4816 16.1477 10.3844 16.0572 10.295C14.2676 8.7907 12.3945 7.38351 10.6344 5.84578C9.50053 4.85506 8.45763 3.61837 7.20371 2.77645C6.95498 2.95413 6.73154 3.11143 6.5377 3.34773ZM4.96739 4.71297C5.93786 5.4136 11.2062 10.2273 11.8707 10.2979C11.7931 10.2062 11.7197 10.1136 11.6334 10.0294C10.0251 8.6295 8.46607 7.20944 6.99766 5.67195C6.50787 5.15919 5.96254 4.63622 5.56993 4.04988C5.35219 4.25958 5.12482 4.45602 4.96739 4.71297ZM3.56114 6.40828C4.03246 6.89814 4.51896 7.37428 5.02012 7.83602C5.6759 8.43252 11.0912 13.1761 11.4527 13.2901C11.4152 13.1534 11.371 13.0977 11.2682 12.9971C9.76378 11.622 4.83424 7.26242 4.05528 5.79207L3.56114 6.40828ZM8.96641 19.4327C9.0601 19.5705 9.13458 19.6372 9.27989 19.7276C9.29934 19.7397 9.41989 19.8096 9.43907 19.8292C9.5913 19.984 9.41377 20.0322 9.44297 20.2159C9.63652 20.2231 9.77144 20.1831 9.95079 20.1231L10.0201 20.0997L10.0152 20.172L9.89219 20.3223C9.93449 20.5271 10.1451 20.7125 10.3199 20.8262C10.5159 20.9539 10.7171 21.0379 10.9547 20.9942C10.9759 20.857 10.9219 20.8225 10.8385 20.711C10.7646 20.6123 10.6835 20.5168 10.6002 20.4239L10.3482 20.1495C10.1559 19.826 9.86521 19.4301 9.54258 19.2198C9.37884 19.1129 9.29365 19.1042 9.10411 19.1358C9.00434 19.2586 8.98597 19.2798 8.96641 19.4327ZM3.24375 21.2374C5.19246 24.0172 7.47719 26.3381 10.5494 27.9952C10.6577 27.9803 10.6264 28.0041 10.6676 27.9639C8.97168 26.5885 7.29631 25.2088 5.72911 23.6954C4.88988 22.885 4.13669 21.9942 3.29844 21.1856L3.24375 21.2374ZM1.61387 11.4288C2.96635 13.0366 4.35313 14.5986 5.76719 16.1563C6.75975 17.2498 7.73277 18.3515 8.83067 19.3507C8.99314 19.1838 9.22187 19.0034 9.24766 18.7686C9.17904 18.5079 8.91364 18.2862 8.72911 18.0889C7.17599 16.2644 5.67716 14.399 4.23399 12.4932C3.46894 11.5007 2.66414 10.5352 2.00254 9.47371C1.73665 10.0802 1.63065 10.7735 1.61387 11.4288ZM1.31407 13.6114C1.33405 14.0571 1.36095 14.5043 1.36973 14.9503C1.59188 14.8495 1.68467 14.7761 1.93223 14.8038C2.35155 15.1055 2.69107 15.5097 3.05528 15.8702C3.73248 16.5286 4.3999 17.1964 5.05821 17.8721C5.27727 18.0978 5.48855 18.3896 5.72422 18.5899C5.8223 18.6732 5.93591 18.6956 6.06016 18.7188C6.0723 18.923 6.04993 18.9478 6.1959 19.0919C6.3422 19.1327 6.48496 19.1667 6.6334 19.1993C6.7573 19.2266 6.7967 19.2558 6.8834 19.3399L6.85801 19.4386L6.62852 19.5587C6.63541 19.7029 6.71625 19.8032 6.8375 19.8946C7.0144 20.0278 7.25769 20.0222 7.47227 20.0352L7.61094 20.1378C7.53167 20.2722 7.58421 20.213 7.44883 20.3136C7.70288 20.7071 8.36867 21.2659 8.76719 21.5372C8.92585 21.4715 8.92796 21.4436 9.01621 21.2979L9.0045 21.1876L8.6959 21.2794L8.6461 21.2276C8.69255 21.1469 8.7364 21.0805 8.79258 21.0069L8.79063 20.9825L8.59043 20.8809C8.58866 20.7586 8.57623 20.817 8.62461 20.7052C8.41196 20.6152 8.18308 20.7329 7.98594 20.6593C8.14079 20.5997 8.29076 20.5367 8.44102 20.4669L8.44102 20.3829L8.31016 20.2979C8.19047 20.3285 7.90825 20.4478 7.79942 20.4171C7.89949 20.3048 7.99112 20.2529 8.12657 20.1846L8.05332 20.168L8.17149 20.1514C7.9045 19.6928 6.94519 18.8482 6.53282 18.4073C5.5975 17.4106 4.66759 16.4089 3.74375 15.4024C3.16799 14.7644 2.09256 13.2886 1.41954 12.8751C1.28345 13.0684 1.29975 13.3801 1.31407 13.6114ZM2.40977 8.50203C3.85819 9.66474 5.13726 11.1164 6.44981 12.422C6.88719 12.857 7.31956 13.348 7.80821 13.7266L7.66954 13.4747C6.70328 12.4338 5.71831 11.4122 4.775 10.3516C4.10845 9.60212 3.48112 8.75387 2.73399 8.08113L2.61094 8.0782C2.4761 8.21915 2.45553 8.32145 2.40977 8.50203ZM1.51329 16.1895C1.55469 16.4232 1.58893 16.6606 1.63926 16.8927C2.69885 17.7448 3.56972 18.7082 4.48887 19.6925C5.05816 20.3021 5.65078 20.9804 6.33555 21.4718L6.40489 21.463L6.24864 21.2501C5.09495 20.307 3.6681 18.5725 2.72227 17.4014C2.38709 16.9864 1.9761 16.1988 1.54844 15.9034C1.46404 16.031 1.49451 16.0459 1.51329 16.1895Z" fill="#203B53"/>
<path d="M11.834 22.3345C11.4923 22.3345 11.209 22.0511 11.209 21.7095C11.209 21.3678 11.4923 21.0845 11.834 21.0845H20.1673C20.509 21.0845 20.7923 21.3678 20.7923 21.7095C20.7923 22.0511 20.509 22.3345 20.1673 22.3345H11.834Z" fill="url(#paint0_linear_2349_4231)"/>
<path fill-rule="evenodd" clip-rule="evenodd" d="M19.6242 10.9838C19.1825 11.3004 18.5492 11.1088 18.3575 10.6004L16.7825 6.40044C16.5159 5.67544 15.4909 5.67544 15.2242 6.40044L13.6409 10.5921C13.4492 11.1088 12.8242 11.3004 12.3825 10.9754L9.04921 8.59211C8.38254 8.12544 7.49921 8.78377 7.77421 9.55877L11.2409 19.2671C11.3575 19.6004 11.6742 19.8171 12.0242 19.8171H19.9659C20.3159 19.8171 20.6325 19.5921 20.7492 19.2671L24.2159 9.55877C24.4992 8.78377 23.6159 8.12544 22.9575 8.60044L19.6242 10.9838ZM13.9159 16.2921C13.5742 16.2921 13.2909 16.0088 13.2909 15.6671C13.2909 15.3254 13.5742 15.0421 13.9159 15.0421H18.0825C18.4242 15.0421 18.7075 15.3254 18.7075 15.6671C18.7075 16.0088 18.4242 16.2921 18.0825 16.2921H13.9159Z" fill="url(#paint1_linear_2349_4231)"/>
<defs>
<linearGradient id="paint0_linear_2349_4231" x1="16.0007" y1="21.0845" x2="16.0007" y2="22.3345" gradientUnits="userSpaceOnUse">
<stop stop-color="#F8DB5D"/>
<stop offset="1" stop-color="#EDBD38"/>
</linearGradient>
<linearGradient id="paint1_linear_2349_4231" x1="15.9965" y1="5.85669" x2="15.9965" y2="19.8171" gradientUnits="userSpaceOnUse">
<stop stop-color="#F8DB5D"/>
<stop offset="1" stop-color="#EDBD38"/>
</linearGradient>
</defs>
</svg>
