<svg width="239" height="240" viewBox="0 0 239 240" fill="none" xmlns="http://www.w3.org/2000/svg">
<path d="M146.342 31.0108C148.432 31.9343 149.49 33.587 150.425 35.671C156.172 37.2916 161.715 39.3629 167.283 41.5382C168.821 40.3283 170.503 38.6982 172.498 38.4718C173.749 38.3294 174.554 38.5726 175.534 39.3595L175.638 40.464C174.784 42.9208 173.424 43.5644 171.311 44.7101C172.457 45.1487 173.896 45.5414 174.951 46.1651C176.094 46.8409 176.076 47.1742 176.492 48.422L176.42 48.6056C177.225 50.2369 179.034 50.8561 180.545 51.6495C180.613 51.5861 180.68 51.5221 180.747 51.4571C181.806 50.4185 182.894 49.1737 184.274 48.6124C185.495 48.1161 186.333 48.2617 187.51 48.753C187.896 49.465 188.078 49.6197 188.084 50.4757C188.1 52.7595 186.285 54.2768 184.895 55.8175L190.293 61.714C191.737 61.2382 193.316 60.5358 194.816 61.1563C195.727 61.5333 196.235 62.024 196.403 63.0519C196.622 64.3917 195.73 65.5957 195.072 66.6524C197.207 69.3964 210.557 86.4253 210.986 87.7813C210.795 88.9015 210.809 89.181 210.093 90.0138L209.181 89.9854C206.735 88.704 205.368 86.5424 203.954 84.2198C205.812 90.9277 208.06 98.1403 209.061 105.028C209.581 108.6 207.901 113.05 209.257 116.394C210.081 117.087 210.608 117.398 211.002 118.464C210.713 120.451 209.691 122.268 209.498 124.216C209.234 126.87 209.336 129.596 209.074 132.273C207.47 148.628 203.367 163.787 194.112 177.356C183.633 192.721 161.022 208.705 144.147 215.217C136.167 218.297 127.798 219.954 119.433 221.413C118.189 223.246 116.711 225.112 114.687 226.003C113.147 225.606 112.872 224.339 111.688 223.35C110.135 222.053 107.961 222.57 106.096 222.707C103.224 222.792 100.332 222.587 97.4751 222.285C76.6502 220.085 60.6896 211.87 47.439 194.933L44.1343 198.081C42.7458 197.224 41.1488 196.36 40.8013 194.555C40.2997 191.957 42.4084 189.178 43.6382 187.085C42.9525 186.27 39.7508 181.8 38.8726 181.807C38.0126 181.814 37.2142 182.556 36.314 182.292C35.3678 182.014 34.6397 181.25 34.2329 180.33C33.5531 178.798 35.0472 175.902 35.6079 174.434C34.1302 171.648 33.0379 168.848 31.9653 165.867C31.3406 166.579 30.7327 167.234 29.8852 167.658C28.9233 168.141 27.9434 168.017 26.9712 167.676C26.5163 167.238 26.1352 166.845 25.8872 166.239C24.262 162.263 26.3648 159.8 27.6577 156.281C28.0597 155.187 28.1902 154.614 27.7915 153.523C26.7742 152.821 25.9587 152.23 25.1831 151.222C24.8412 149.364 25.5255 147.965 26.1724 146.281C25.9054 145.369 25.798 144.979 25.1401 144.27C24.3679 143.437 24.7818 144.013 24.147 143.108C23.1187 141.64 24.0208 138.347 24.2847 136.641C22.6538 138.188 21.6703 139.824 20.3569 141.628C19.5245 142.771 18.7866 143.229 17.4448 143.447C16.7064 142.918 16.2399 142.673 16.0503 141.669C15.3331 137.858 22.5177 131.281 24.4946 128.171C26.9058 124.376 26.6896 117.765 28.0181 113.338C31.0004 103.398 36.0549 93.1445 41.6997 84.5929C57.4667 60.7061 80.4005 41.5992 107.983 35.4688C117.104 33.4417 126.358 33.3213 135.469 31.5567C136.748 31.3987 137.743 31.3713 138.781 32.2726C142.693 35.6716 142.205 30.7549 146.342 31.0108ZM142.366 179.214C136.431 184.898 131.047 191.207 125.273 197.068C120.312 202.105 114.911 206.722 110.166 211.976C109.23 213.01 107.184 214.994 107.073 216.401C107.068 216.47 107.084 216.539 107.089 216.608L114.208 216.633C118.076 210.162 141.535 182.969 142.366 179.214ZM134.384 164.778C124.772 175.77 115.733 186.902 105.137 196.942C101.018 200.846 89.8882 209.712 87.7114 214.447C88.1266 215.111 87.8474 214.935 88.48 215.084C91.1974 215.742 93.8551 216.167 96.646 216.318C100.747 209.679 105.112 203.229 109.737 196.974C113.108 192.392 134.419 167.591 134.384 164.778ZM165.96 182.776C158.212 188.196 150.72 193.98 143.487 200.124C138.223 204.656 133.209 209.51 127.706 213.731C130.706 212.939 133.568 212.035 136.461 210.885C146.611 206.277 153.211 199.256 161.133 191.429C163.308 189.279 166.214 187.067 168.007 184.598C167.256 185.122 164.502 187.427 163.807 187.423C164.764 186.197 166.467 184.78 166.78 183.29C166.086 182.791 166.384 182.899 165.96 182.776ZM123.424 154.884C120.195 158.981 116.992 163.12 113.467 166.949C108.491 172.354 74.8864 206.236 73.7388 209.001C74.3009 209.835 73.9513 209.48 74.8091 210.046L79.4214 212.042C82.985 206.198 86.8504 200.79 91.0767 195.449C95.6603 189.657 122.946 159.106 123.424 154.884ZM122.039 132.24C118.377 136.652 114.749 141.116 110.971 145.42C104.367 152.943 62.5983 198.621 61.8022 201.658C62.1827 202.496 62.598 202.974 63.2349 203.616L64.7173 204.641C66.5395 204.099 69.6285 198.782 70.937 196.981C75.5765 190.607 80.423 184.41 85.477 178.389C91.1648 171.557 119.794 138.746 121.955 133.247C122.08 132.925 122.102 132.575 122.039 132.24ZM119.023 114.577C113.009 119.379 104.939 129.29 99.3901 135.33C84.6144 151.414 63.0715 172.91 51.6499 191.079C51.8433 191.814 52.0556 192.4 52.4116 193.066C54.371 192.35 63.5945 178.412 65.6538 175.63C70.079 169.651 75.2893 164.032 80.2065 158.485C88.6208 149.063 97.0869 139.689 105.603 130.366C108.483 127.2 117.392 118.459 118.892 115.371C119.093 114.958 119.043 115.023 119.023 114.577ZM100.487 110.47C98.4496 111.991 96.7102 113.878 94.9145 115.692C94.3483 115.222 93.6318 114.329 92.8911 114.42C89.9696 114.781 88.3526 118.67 85.9936 120.228C84.9104 121.459 83.8386 122.702 82.7798 123.957C79.5569 126.568 77.3211 128.822 75.1138 132.407C74.7114 132.878 74.3755 133.34 74.0669 133.883C70.6505 139.896 65.0604 144.607 60.7017 149.947C54.0854 158.195 48.0022 166.854 42.4546 175.917C43.7812 177.555 44.8157 179.324 45.8833 181.147C55.9123 160.789 72.0521 143.673 86.6987 126.87C90.4731 122.539 98.1154 115.199 100.487 110.47ZM64.2241 129.436C53.952 139.088 44.4186 149.306 35.8247 160.632L37.4722 166.096C38.5589 165.813 39.3438 163.804 39.9282 162.796C44.3967 155.08 49.2035 147.954 54.7974 141.085C57.8476 137.34 61.9066 133.656 64.3755 129.524L64.2241 129.436ZM202.291 117.703C198.559 122.581 170.8 162.363 170.815 164.54L171.17 164.488C175.729 159.392 197.871 129.214 200.761 127.953L202.08 128.192C203.375 126.417 203.211 121.438 202.949 119.266C202.855 118.483 202.823 118.287 202.291 117.703ZM200.077 146.259C198.764 147.379 197.229 148.41 197.111 150.329C197.064 151.113 197.35 151.373 197.708 152.018C199.156 150.428 199.963 148.771 200.322 146.608L200.077 146.259ZM200.583 99.1983C195.956 104.992 162.544 149.325 162.18 151L162.844 150.647C172.332 142.414 183.797 126.345 192.259 116.232C195.392 112.488 199.33 109.446 202.348 105.645C202.037 103.841 201.907 100.821 200.928 99.3341L200.583 99.1983ZM195.739 80.6964C193.708 84.633 191.502 88.3561 189.012 91.9923C185.313 97.3925 150.401 144.583 150.616 146.318L151.82 145.001C164.035 130.281 175.297 114.685 188.103 100.513C191.539 96.7096 195.041 92.4104 199.107 89.3321C198.271 86.9577 197.301 82.4965 195.739 80.6964ZM50.4927 109.613C43.7059 117.157 36.49 124.513 30.1519 132.46C30.7821 135.484 31.0597 138.384 31.2524 141.466C32.4172 140.577 48.464 113.822 50.6167 110.078L50.4927 109.613ZM190.602 70.838C185.882 77.9573 180.019 84.4893 174.69 91.1329C167.501 100.094 161.023 109.411 154.454 118.86C151.798 122.679 148.779 126.204 146.378 130.209L146.549 130.4C147.132 129.894 147.722 129.4 148.267 128.849C157.434 117.942 166.01 106.529 175.381 95.8028C181.419 88.8935 188.951 82.5377 194.082 74.8966C192.998 73.3804 192.043 72.0195 190.602 70.838ZM182.283 61.2687C178.015 67.1815 148.67 99.3017 148.25 103.341C148.81 102.868 149.371 102.416 149.884 101.89C158.415 92.0886 167.071 82.5902 176.441 73.6417C179.566 70.6565 182.751 67.3321 186.325 64.9395C185.047 63.6124 183.849 62.2281 182.283 61.2687ZM171.953 52.6993C168.967 55.5717 166.067 58.5357 163.253 61.5899C159.625 65.5785 130.708 98.5858 130.013 100.789C130.847 100.56 131.185 100.293 131.798 99.6661C140.178 90.4987 166.753 60.4517 175.71 55.7101L171.953 52.6993ZM92.5825 85.6397C91.7424 86.2108 91.3387 86.6668 90.7876 87.5528C90.7133 87.6728 90.2866 88.4009 90.1675 88.5177C89.2227 89.448 88.9302 88.3628 87.8091 88.5421C87.7651 89.7225 88.01 90.5424 88.3755 91.6358L88.52 92.0587L88.0806 92.0313L88.0806 92.0274L87.1616 91.2833C85.9136 91.541 84.7848 92.8223 84.0913 93.8878C83.3135 95.0819 82.7989 96.3065 83.0649 97.754C83.9045 97.8849 84.1148 97.5574 84.7964 97.0479C85.3976 96.5978 85.9747 96.1045 86.5405 95.5968L88.2183 94.0587C90.1895 92.8867 92.5996 91.1195 93.8813 89.1534C94.5333 88.1548 94.5874 87.6349 94.395 86.4796C93.6457 85.8707 93.5153 85.759 92.5825 85.6397ZM81.5894 50.7667C64.6482 62.6426 50.5032 76.5656 40.4048 95.2892C40.4956 95.9488 40.3512 95.7548 40.5962 96.006C48.9778 85.6715 57.3872 75.4653 66.6099 65.9151C71.549 60.8001 76.9766 56.2079 81.9048 51.0987L81.5894 50.7667ZM141.356 40.8341C131.558 49.0758 122.043 57.5286 112.551 66.1456C105.888 72.1941 99.1749 78.1242 93.0864 84.8145C94.1035 85.8046 95.1987 87.1994 96.6294 87.3565C98.2194 86.939 99.5695 85.3174 100.772 84.1925C111.89 74.728 123.258 65.5983 134.872 56.8038C140.92 52.1415 146.8 47.2361 153.269 43.2042C149.573 41.5836 145.35 40.9361 141.356 40.8341ZM132.542 39.6485C131.364 38.8194 129.467 38.9217 128.057 39.0089C125.341 39.1307 122.619 39.2942 119.902 39.3478C120.516 40.7021 120.964 41.2672 120.794 42.7774C118.956 45.3327 116.492 47.3969 114.295 49.6163C110.283 53.7438 106.213 57.812 102.094 61.8243C100.719 63.1593 98.9402 64.4438 97.7192 65.88C97.2101 66.4785 97.0761 67.1741 96.9341 67.9327C95.6901 68.0067 95.5406 67.8674 94.6626 68.7569C94.4138 69.6491 94.2044 70.5195 94.0054 71.4249C93.8388 72.1801 93.6598 72.4167 93.147 72.9454L92.5493 72.7921L91.8149 71.3936C90.936 71.4356 90.3248 71.9272 89.7681 72.6661C88.9565 73.744 88.9893 75.2248 88.9097 76.5323L88.2886 77.379C87.4684 76.8953 87.8316 77.2155 87.2183 76.3897C84.8197 77.9368 81.4109 81.9976 79.7573 84.4269C80.1577 85.3939 80.3317 85.4023 81.2202 85.9405L81.8911 85.8741L81.3306 83.9903L81.646 83.6895C82.1379 83.9726 82.5393 84.2388 82.9878 84.5811L83.1392 84.5704L83.7563 83.3468C84.5045 83.3361 84.1476 83.2617 84.8296 83.5567C85.378 82.2606 84.6625 80.8666 85.1118 79.6651C85.4751 80.6092 85.8531 81.5254 86.2788 82.4415L86.7954 82.4376L87.312 81.6407C87.1258 80.9114 86.4 79.1927 86.5874 78.5294C87.2713 79.1392 87.5843 79.6962 88.0005 80.5216L88.104 80.0782L88.2046 80.794C90.9997 79.167 96.1427 73.3255 98.8296 70.8126C104.904 65.1121 111.01 59.4451 117.144 53.8145C121.032 50.3058 130.023 43.7498 132.542 39.6485ZM159.194 45.6866C152.109 54.513 143.263 62.3044 135.307 70.3028C132.655 72.9695 129.661 75.6056 127.353 78.5851L128.893 77.7394C135.237 71.8505 141.462 65.8467 147.925 60.0978C152.493 56.0352 157.66 52.2122 161.76 47.6583L161.777 46.9103C160.918 46.0885 160.294 45.9655 159.194 45.6866ZM114.087 40.4356C113.31 39.9214 113.225 40.1074 112.35 40.2218C110.925 40.4743 109.477 40.6805 108.062 40.9874C102.869 47.4449 97.0008 52.755 91.0024 58.3565C87.2873 61.8256 83.1508 65.4338 80.1567 69.6065L80.2134 70.0333L81.5083 69.0792C87.2549 62.0487 97.8228 53.3519 104.959 47.588C107.488 45.5454 112.287 43.0418 114.087 40.4356Z" fill="#54E6ED"/>
<path d="M62.4189 42.0008C57.0735 42.8019 27.7895 51.5089 23.5778 54.1568C23.1277 54.4403 23.0881 54.3363 23.0296 54.7794C22.7508 56.9045 24.4404 60.8078 25.0808 62.8797C25.918 65.5128 26.8053 68.1294 27.7429 70.7288C28.6804 73.3283 29.6683 75.9088 30.7051 78.4705C31.7419 81.0315 32.8272 83.5725 33.9621 86.0922C35.0964 88.6118 36.2785 91.1085 37.5091 93.5827C38.7397 96.0575 40.017 98.5069 41.3421 100.932C42.6667 103.357 44.0373 105.756 45.454 108.128C46.8713 110.501 48.3329 112.845 49.84 115.162C51.347 117.478 52.8979 119.764 54.4924 122.021C69.3831 143.419 89.6322 164.227 113.549 175.413C121.87 179.304 130.374 181.807 139.39 183.428C149.443 185.235 159.878 184.867 169.947 183.467C171.758 183.215 174.863 183.034 176.314 181.928C176.594 181.715 176.972 181.425 176.997 181.039C177.106 179.35 172.169 171.082 171.111 168.877C163.14 152.284 152.322 135.356 137.998 123.517C132.265 118.777 125.985 114.661 119.898 110.398C108.094 102.131 96.7978 93.679 87.1627 82.8942C79.0329 73.7938 72.7706 64.0051 67.3242 53.0992C65.6759 49.798 64.5463 44.768 62.4189 42.0008Z" fill="#203B53"/>
<path d="M161.762 177.278L161.142 177.488C160.73 178.657 160.889 180.121 160.89 181.355C163.271 181.192 165.649 180.997 168.025 180.771C168.403 180.744 168.746 180.595 169.104 180.476C168.01 179.388 163.384 177.964 161.762 177.278Z" fill="#A5EEF1"/>
<path d="M60.7667 45.1432L57.2001 46.1316C58.94 49.8908 60.5333 53.7114 61.9801 57.5922L65.5449 56.5389C63.8175 52.7939 62.2986 48.9709 60.7667 45.1432Z" fill="#FEFEFE"/>
<path d="M166.717 167.496C164.801 169.377 163.22 171.979 162.031 174.368L168.342 176.87L172.453 178.5C170.735 174.717 168.982 170.992 166.717 167.496Z" fill="#CE82EB"/>
<path d="M124.122 117.124C122.359 117.486 120.596 118.23 118.897 118.829C121.838 122.187 125.661 125.034 128.837 128.22C131.182 127.147 133.563 126.394 136.022 125.646C132.174 122.658 128.336 119.587 124.122 117.124Z" fill="#FEFEFE"/>
<path d="M67.0833 59.0844C65.1367 59.6941 63.1617 60.2228 61.1973 60.774C63.294 65.6468 66.5362 70.8398 69.7359 75.0621C71.5874 74.2735 73.3167 73.3046 75.0713 72.3233C72.2863 67.9952 69.7342 63.4969 67.0833 59.0844Z" fill="#FEFEFE"/>
<path d="M138.099 127.458L134.628 128.84C136.562 131.662 139.633 133.774 142.034 136.2C145.842 140.049 149.45 144.231 152.781 148.501C155.019 151.395 157.152 154.365 159.181 157.41C160.732 159.771 162.136 162.587 164.108 164.62C164.519 165.044 164.713 165.115 165.275 165.231C165.423 164.858 165.487 164.875 165.438 164.55C165.15 162.65 163.275 159.988 162.27 158.27C155.81 147.232 147.856 135.832 138.099 127.458Z" fill="#F8F5EB"/>
<path d="M118.896 118.829C115.226 120.458 111.801 122.793 108.795 125.452C113.056 127.945 117.187 130.821 121.553 133.098C123.823 131.236 126.251 129.61 128.837 128.22C125.661 125.034 121.838 122.187 118.896 118.829Z" fill="#A5EEF1"/>
<path d="M57.2004 46.1315C52.7341 47.4962 48.2129 48.7162 43.7761 50.1701C45.2454 53.6522 47.2327 56.9446 47.7644 60.7333L47.8241 61.128C47.8354 61.2071 47.8448 61.2863 47.8554 61.3655C52.4281 59.8093 57.2867 58.7388 61.9805 57.5921C60.5336 53.7112 58.9403 49.8907 57.2004 46.1315Z" fill="#EF6CAC"/>
<path d="M61.1977 60.7741C57.0108 62.0136 52.7974 63.1757 48.6229 64.4535C51.6696 69.7038 54.5644 75.2217 58.0695 80.1784C61.9581 78.4976 65.9228 76.9043 69.7363 75.0622C66.5366 70.8399 63.2944 65.6469 61.1977 60.7741Z" fill="#A5EEF1"/>
<path d="M43.7761 50.17C38.0166 52.1379 32.2328 54.0332 26.4248 55.8558C27.2797 59.6238 28.2527 63.3226 29.5169 66.9784C35.5719 65.0164 41.6853 62.9245 47.8555 61.3654C47.8448 61.2862 47.8354 61.2071 47.8242 61.1279L47.7645 60.7333C47.2328 56.9446 45.2454 53.6521 43.7761 50.17Z" fill="#EC4076"/>
<path d="M98.3657 142.696C98.3479 142.712 98.3278 142.727 98.3119 142.745C95.524 145.921 97.177 157.624 97.4358 161.81C100.591 164.623 104.995 167.636 108.844 169.422C107.48 162.646 107.973 156.974 109.983 150.383L98.3657 142.696Z" fill="#A5EEF1"/>
<path d="M107.431 127.042C104.574 128.965 100.416 136.794 98.5742 140.126C102.548 142.796 106.518 145.749 110.701 148.068C113.289 142.689 115.998 138.737 120.241 134.516C115.774 132.291 111.618 129.739 107.431 127.042Z" fill="#A5EEF1"/>
<path d="M134.627 128.84C130.762 130.312 127.689 131.814 124.585 134.556C128.329 137.203 132.322 139.465 136.133 142.011C146.098 148.667 156.558 156.69 164.047 166.086C164.578 165.86 164.869 165.639 165.274 165.231C164.712 165.115 164.519 165.044 164.107 164.62C162.136 162.587 160.731 159.771 159.18 157.41C157.152 154.365 155.018 151.395 152.781 148.501C149.45 144.231 145.842 140.049 142.033 136.2C139.633 133.774 136.561 131.662 134.627 128.84Z" fill="#F8ED2A"/>
<path d="M76.3146 74.1642L72.0893 76.4423C80.5139 88.961 93.1613 100.069 105.15 109.152C108.638 111.794 113.442 113.795 116.408 116.925C118.005 116.155 119.655 115.513 121.3 114.852C103.504 103.218 89.3089 90.9832 76.3146 74.1642Z" fill="#FEFEFE"/>
<path d="M46.645 64.9055C41.2884 65.8749 35.6783 68.2115 30.4759 69.8899C31.5777 72.6548 36.5291 86.1075 38.1986 87.204L38.9536 87.0291C44.6907 85.2006 50.4851 83.2959 56.0615 81.0232C52.4542 75.9312 49.492 70.4458 46.645 64.9055Z" fill="#30A0A6"/>
<path d="M112.494 152.032C112.442 152.104 112.383 152.171 112.336 152.247C109.586 156.689 110.551 166.017 111.742 170.839C127.234 178.342 139.606 181.013 156.712 181.663C157.096 181.621 157.3 181.596 157.628 181.371C158.181 180.993 158.238 176.773 158.402 175.786L158.47 175.392C150.536 172.058 142.732 168.443 135.059 164.544C127.387 160.645 119.865 156.475 112.494 152.032Z" fill="#FBDB20"/>
<path d="M122.943 136.244C119.231 137.652 114.756 146.044 113.157 149.487C126.307 157.908 139.984 164.718 154.164 171.208C155.838 171.894 157.471 172.727 159.107 173.501C160.355 171.398 161.617 169.304 162.895 167.219C152.504 155.084 136.569 144.43 122.943 136.244Z" fill="#F8ED2A"/>
<path d="M72.089 76.4424C67.8868 78.4003 63.6981 80.4083 59.4261 82.2108C70.0118 96.4132 81.1664 109.175 95.2926 119.984C98.2111 122.217 101.182 124.568 104.335 126.459C107.993 122.67 111.781 119.478 116.407 116.925C113.441 113.795 108.638 111.794 105.149 109.152C93.1611 100.07 80.5136 88.9611 72.089 76.4424Z" fill="#5FDCD8"/>
<path d="M57.4044 82.9644C51.6331 85.763 44.8976 87.6003 38.7776 89.4754C49.794 113.023 69.2313 139.684 89.4184 156.11C91.2026 157.508 93.021 158.865 94.8217 160.241C94.7195 159.648 94.635 159.053 94.5683 158.454C93.1764 146.8 96.1008 137.19 103.293 127.993C99.3548 125.897 95.6128 122.922 92.1077 120.164C77.484 108.657 68.4864 97.6714 57.4044 82.9644Z" fill="#30A0A6"/>
<path d="M196.703 46.8322C197.594 47.2815 198.417 47.8596 199.028 48.6572C200.189 50.1729 200.802 51.9519 200.444 53.8594C199.897 56.7633 197.688 59.2877 195.234 60.8073C192.148 62.7192 189.549 62.9927 186.087 62.144C184.964 61.3735 183.909 60.5486 183.133 59.4148C182.109 57.9174 181.676 56.1281 182.084 54.3429C182.675 51.7549 184.746 49.6051 186.957 48.2697C190.132 46.3533 193.145 46.0027 196.703 46.8322Z" fill="#203B53"/>
<path d="M185.301 57.1268C185.247 56.5516 185.178 55.9696 185.209 55.3912C185.297 53.7989 186.504 52.261 187.651 51.2434C189.257 49.818 191.387 49.0098 193.546 49.1546C195.456 49.2828 196.447 50.1903 197.65 51.5601C194.17 53.2588 190.548 53.2387 187.356 55.7495C186.699 56.2658 186.049 56.7492 185.301 57.1268Z" fill="white"/>
<path d="M197.651 51.5602C197.676 52.9831 197.629 54.3063 197.414 55.7141C195.402 57.7283 193.082 59.916 190.026 59.8948C189.84 59.8937 189.654 59.8832 189.468 59.8627C189.283 59.8423 189.1 59.8122 188.917 59.7729C188.735 59.7329 188.556 59.6838 188.379 59.6254C188.202 59.5667 188.028 59.4988 187.859 59.4222C187.689 59.3456 187.523 59.2599 187.363 59.1661C187.202 59.0724 187.046 58.97 186.897 58.8596C186.746 58.7495 186.602 58.6309 186.464 58.5056C186.327 58.3808 186.196 58.248 186.072 58.1087C185.647 57.6369 185.631 57.5913 185.301 57.1268C186.05 56.7493 186.7 56.2658 187.357 55.7488C190.549 53.238 194.17 53.2588 197.651 51.5602Z" fill="white"/>
<path d="M179.399 95.3212C180.988 96.1467 182.361 96.9835 183.608 98.288C185.874 100.66 187.477 103.969 187.329 107.301C187.25 109.126 186.619 110.907 185.231 112.144C183.285 113.878 181.064 113.931 178.592 113.803C177.309 113.211 175.751 112.622 174.763 111.586C172.375 109.083 170.811 105.229 170.986 101.758C171.079 99.8969 171.683 98.0508 173.136 96.8117C174.906 95.3017 177.179 95.1143 179.399 95.3212Z" fill="#203B53"/>
<path d="M181.859 100.622C183.307 102.551 184.523 104.551 184.15 107.067C183.957 108.368 183.415 109.673 182.282 110.426C181.422 110.998 180.545 111.034 179.57 110.798C178.008 110.422 176.682 108.903 175.741 107.697C179.674 105.064 179.609 104.843 181.859 100.622Z" fill="white"/>
<path d="M174.803 98.8251C176.05 98.4158 177.315 98.0724 178.634 98.3204C180.059 98.5872 180.786 99.3433 181.597 100.473L181.859 100.622C179.609 104.843 179.674 105.064 175.741 107.697C175.216 106.694 174.769 105.657 174.4 104.587C173.68 102.439 173.8 100.829 174.803 98.8251Z" fill="white"/>
<path d="M174.803 98.8251C176.05 98.4158 177.315 98.0724 178.634 98.3204C180.059 98.5872 180.786 99.3433 181.597 100.473C180.923 101.356 180.766 101.805 179.55 101.837C178.001 101.877 176.391 100.771 175.438 99.6382C175.216 99.3748 175.012 99.0982 174.803 98.8251Z" fill="white"/>
<path d="M150.782 110.367C149.416 111.067 147.826 111.191 146.333 110.866C144.573 110.484 143.236 109.247 142.315 107.735C141.077 105.7 140.928 103.269 141.524 100.996C142.329 97.9276 144.334 94.9127 147.128 93.3268C148.841 92.3552 150.918 91.9252 152.817 92.5907C155.078 93.3829 156.576 95.3291 157.515 97.4391C157.844 100.912 157.241 104.419 155.018 107.231C153.945 108.588 152.473 109.903 150.782 110.367Z" fill="#203B53"/>
<path d="M144.31 101.52C144.888 99.5442 145.852 97.4512 147.528 96.1666C148.998 95.0393 150.46 95.0032 152.218 95.2842C151.368 96.2639 145.431 101.172 144.31 101.52Z" fill="#F8F5EB"/>
<path d="M152.217 95.2839C153.199 96.009 154.056 96.6015 154.732 97.6462C155.083 100.678 154.751 103.243 152.73 105.65C151.75 106.817 150.444 107.746 149.164 108.556C148.539 108.487 147.902 108.418 147.293 108.263C146.019 107.938 144.876 107.098 144.253 105.93C143.486 104.495 143.811 102.973 144.309 101.52C145.43 101.172 151.367 96.2637 152.217 95.2839Z" fill="white"/>
<path d="M199.686 74.9507C201.877 75.9704 203.891 77.2688 205.137 79.4103C206.064 81.004 206.407 82.8751 205.913 84.6697C205.371 86.6337 204.046 88.179 202.261 89.1349C199.148 90.803 195.9 90.1717 192.715 89.1671C190.341 87.8516 187.929 86.3522 186.525 83.9468C185.623 82.4013 185.231 80.6349 185.747 78.8863C186.265 77.1346 187.539 75.7807 189.134 74.9398C192.496 73.1672 196.254 73.8214 199.686 74.9507Z" fill="#203B53"/>
<path d="M198.034 77.0552C199.499 77.8151 201.029 78.5211 202.041 79.8773C202.861 80.9771 203.353 82.3356 203.001 83.7145C202.681 84.9728 201.74 85.8807 200.627 86.4661C198.376 87.6511 195.932 87.1047 193.616 86.4481C192.022 85.6216 190.3 84.657 189.292 83.1173C188.632 82.1074 188.335 80.7799 188.702 79.6061C189.034 78.543 189.83 77.7541 190.77 77.2133C193.059 75.8967 195.629 76.3475 198.034 77.0552Z" fill="white"/>
<path d="M134.939 70.5479C136.55 71.3014 137.871 72.29 139.038 73.6379C140.129 74.8975 140.798 76.3179 140.631 78.0141C140.42 80.1468 138.962 82.0239 137.267 83.234C133.745 85.7471 129.559 86.0111 125.441 85.3335C123.435 84.4469 121.631 83.5415 120.401 81.6527C119.409 80.1302 119.133 78.3808 119.601 76.6241C120.253 74.1771 122.117 72.1042 124.345 70.9577C127.864 69.1468 131.271 69.4298 134.939 70.5479Z" fill="#203B53"/>
<path d="M122.745 80.899C122.421 79.847 122.128 78.7644 122.259 77.6508C122.435 76.17 123.311 74.7717 124.478 73.8692C126.783 72.0871 129.531 71.9828 132.295 72.3079C131.244 73.1237 130.312 73.5764 129.809 74.8251L129.996 75.4647C127.417 77.0791 125.221 79.1538 122.745 80.899Z" fill="white"/>
<path d="M132.296 72.3083C134.095 72.8751 135.476 73.7071 136.911 74.9157C137.571 76.1342 138.118 77.3871 137.695 78.8012C137.208 80.4373 135.482 81.442 133.991 82.0096C131.15 83.0896 127.212 83.4086 124.427 81.9968C123.804 81.6809 123.286 81.3397 122.746 80.8993C125.222 79.1542 127.418 77.0795 129.997 75.4651L129.81 74.8255C130.313 73.5768 131.245 73.1241 132.296 72.3083Z" fill="white"/>
<path d="M132.295 72.3079C134.094 72.8747 135.475 73.7067 136.91 74.9153C134.583 74.922 132.252 74.8094 129.996 75.4647L129.809 74.8251C130.312 73.5764 131.244 73.1237 132.295 72.3079Z" fill="white"/>
<path d="M173.549 27.7153C174.584 28.204 175.624 28.68 176.417 29.5304C178.411 31.6676 179.078 34.8762 178.822 37.7123C178.512 41.156 176.986 44.9336 174.183 47.0889C171.962 48.7967 169.966 48.761 167.301 48.3505C166.42 47.8744 165.562 47.2036 164.874 46.4748C162.966 44.4537 162.133 41.4954 162.246 38.7644C162.379 35.4929 163.775 32.0708 166.23 29.86C168.522 27.7962 170.571 27.4898 173.549 27.7153Z" fill="#203B53"/>
<path d="M165.821 42.3144C165.519 41.1814 165.343 40.1718 165.406 38.9919C165.542 36.47 166.597 33.3506 168.555 31.6495C169.492 30.8348 170.633 30.3905 171.892 30.5931C173.632 30.8726 174.512 32.0548 175.575 33.322C174.189 33.798 172.757 34.2242 171.396 34.7646C169.91 36.9069 168.007 41.0076 165.821 42.3144Z" fill="white"/>
<path d="M175.575 33.3217C176.294 36.9274 175.883 39.7959 173.858 42.9428C173.067 44.1701 171.916 45.5335 170.419 45.8488C169.376 46.0682 168.675 45.7095 167.898 45.0667C167.017 44.3366 166.32 43.3388 165.821 42.3147C168.007 41.0079 169.91 36.9073 171.396 34.7643C172.757 34.2238 174.189 33.7977 175.575 33.3217Z" fill="white"/>
<path d="M144.189 39.7868C145.92 40.8122 147.482 42.0264 148.788 43.566C150.654 45.7652 152.064 48.8367 151.695 51.7772C151.475 53.5335 150.581 55.0909 149.111 56.0943C146.596 57.8115 143.713 57.5825 140.879 57.1179C138.172 56.0612 135.643 54.2351 134.086 51.7527C132.674 49.5025 132.057 46.8341 132.803 44.2408C133.362 42.2989 134.597 40.6059 136.421 39.6857C139.045 38.3629 141.531 38.9242 144.189 39.7868Z" fill="#203B53"/>
<path d="M142.612 41.9449L143.888 43.1402C143.665 44.1915 143.1 44.5289 142.223 45.1406C139.998 46.6904 138.119 47.7125 136.235 49.733C135.852 48.6229 135.405 47.3943 135.442 46.2083C135.486 44.83 136.085 43.4088 137.202 42.5634C138.882 41.2927 140.683 41.5433 142.612 41.9449Z" fill="white"/>
<path d="M142.612 41.945C145.189 43.4073 147.791 45.3167 148.578 48.3442C148.957 49.8009 148.809 51.3806 147.937 52.6348C147.061 53.8964 145.701 54.5916 144.188 54.7368C142.281 54.9192 140.091 54.0728 138.695 52.7807C137.756 51.9123 136.979 50.7715 136.235 49.7331C138.119 47.7126 139.998 46.6905 142.223 45.1407C143.1 44.529 143.665 44.1916 143.888 43.1403L142.612 41.945Z" fill="white"/>
<path d="M172.994 59.1143C175.847 61.0036 178.137 62.8884 179.678 66.0608C179.788 66.2885 179.893 66.5194 179.991 66.7526C180.09 66.9862 180.182 67.2222 180.268 67.4603C180.355 67.6983 180.435 67.9385 180.509 68.181C180.584 68.4228 180.651 68.667 180.714 68.9126C180.775 69.1585 180.831 69.4054 180.88 69.6541C180.929 69.9027 180.971 70.1519 181.007 70.4029C181.044 70.6532 181.074 70.9052 181.097 71.1574C181.121 71.4094 181.138 71.6626 181.148 71.9155C181.159 72.1687 181.163 72.4219 181.161 72.6754C181.158 72.9282 181.149 73.1813 181.134 73.434C181.119 73.6874 181.097 73.9397 181.068 74.1916C181.04 74.4436 181.006 74.6941 180.964 74.9438C180.923 75.194 180.876 75.4424 180.822 75.6903C180.768 75.9383 180.708 76.1839 180.641 76.4279C180.575 76.6724 180.503 76.9151 180.424 77.1557C180.345 77.3967 180.26 77.6355 180.169 77.8719C178.434 82.3843 174.733 86.0103 170.279 87.8381C164.941 90.0287 160.589 88.9627 155.551 86.7648C152.67 84.6936 150.353 82.4341 148.819 79.1556C148.709 78.9199 148.604 78.6821 148.506 78.4416C148.408 78.2011 148.315 77.9585 148.229 77.7136C148.143 77.4686 148.063 77.2209 147.989 76.9715C147.915 76.7228 147.848 76.4717 147.787 76.2189C147.726 75.9661 147.671 75.7123 147.623 75.4572C147.575 75.202 147.534 74.9452 147.498 74.6874C147.462 74.4306 147.434 74.1725 147.411 73.9133C147.389 73.6542 147.374 73.3948 147.364 73.135C147.355 72.8757 147.353 72.6157 147.357 72.3557C147.36 72.0957 147.371 71.8362 147.388 71.5773C147.405 71.3178 147.428 71.0593 147.458 70.8009C147.488 70.5429 147.525 70.2848 147.568 70.029C147.611 69.7727 147.66 69.5175 147.716 69.2638C147.772 69.0097 147.834 68.7574 147.903 68.5072C147.971 68.257 148.047 68.0079 148.127 67.7612C148.208 67.5145 148.295 67.2695 148.389 67.0267C149.903 63.119 152.995 60.3015 156.816 58.6852C162.354 56.3425 167.6 56.8207 172.994 59.1143Z" fill="#203B53"/>
<path d="M152.238 65.9782C152.421 65.6933 152.61 65.4126 152.805 65.1354C154.661 62.515 157.695 60.9749 160.827 60.4754C165.698 59.6989 169.8 61.032 173.751 63.7809C173.242 64.5368 173.013 65.2913 172.004 65.3892C170.663 65.5191 168.779 65.0554 167.45 64.8404C161.615 63.8947 157.845 63.941 152.238 65.9782Z" fill="white"/>
<path d="M173.75 63.781C175.984 66.5025 177.788 69.4717 177.46 73.1586C177.143 76.7053 175.035 80.396 172.218 82.5564C169.528 84.6201 166.049 85.3611 162.718 84.9052C159.018 84.399 155.462 82.3603 153.215 79.3666C151.156 76.6233 150.416 73.3201 150.945 69.9498C151.168 68.5303 151.626 67.2696 152.238 65.9783C157.844 63.9411 161.615 63.8948 167.45 64.8405C168.779 65.0555 170.663 65.5191 172.004 65.3893C173.013 65.2914 173.242 64.5369 173.75 63.781Z" fill="white"/>
</svg>
