<svg width="240" height="239" viewBox="0 0 240 239" fill="none" xmlns="http://www.w3.org/2000/svg">
<path d="M148.342 22.0097C150.432 22.9332 151.49 24.5859 152.425 26.6699C158.171 28.2905 163.714 30.3608 169.282 32.5361C170.821 31.3262 172.503 29.6971 174.497 29.4706C175.749 29.3283 176.553 29.5707 177.533 30.3574L177.638 31.4628C176.784 33.9197 175.424 34.5632 173.311 35.7089C174.456 36.1475 175.895 36.5402 176.95 37.164C178.093 37.8397 178.076 38.1731 178.491 39.4208L178.42 39.6044C179.225 41.2357 181.034 41.854 182.545 42.6474C182.612 42.5841 182.68 42.5209 182.746 42.456C183.805 41.4173 184.894 40.1716 186.273 39.6103C187.494 39.114 188.332 39.2605 189.51 39.7519C189.895 40.4638 190.078 40.6186 190.084 41.4746C190.1 43.7584 188.285 45.2756 186.895 46.8164L192.294 52.7119C193.738 52.2361 195.316 51.5347 196.815 52.1552C197.727 52.5322 198.234 53.0228 198.402 54.0507C198.621 55.3905 197.729 56.5946 197.071 57.6513C199.206 60.3953 212.557 77.4245 212.985 78.7802C212.794 79.9004 212.809 80.1798 212.093 81.0126L211.181 80.9843C208.735 79.7029 207.368 77.5413 205.953 75.2187C207.812 81.9266 210.059 89.1392 211.061 96.0273C211.58 99.5993 209.901 104.049 211.257 107.393C212.081 108.086 212.608 108.397 213.002 109.463C212.712 111.45 211.691 113.267 211.497 115.215C211.233 117.869 211.335 120.595 211.073 123.271C209.47 139.626 205.366 154.785 196.111 168.354C185.633 183.719 163.022 199.704 146.146 206.216C138.166 209.296 129.797 210.953 121.433 212.412C120.189 214.245 118.71 216.111 116.687 217.002C115.146 216.604 114.871 215.338 113.687 214.349C112.135 213.051 109.96 213.569 108.096 213.706C105.223 213.791 102.331 213.586 99.4746 213.284C78.6497 211.084 62.6891 202.869 49.4385 185.932L46.1338 189.08C44.7453 188.223 43.1484 187.358 42.8008 185.554C42.2992 182.956 44.4079 180.177 45.6377 178.084C44.9521 177.269 41.7519 172.801 40.873 172.806C40.0129 172.813 39.2139 173.555 38.3135 173.291C37.3673 173.013 36.6392 172.248 36.2324 171.329C35.5526 169.796 37.0467 166.901 37.6074 165.433C36.1297 162.647 35.0374 159.846 33.9648 156.866C33.3402 157.578 32.733 158.232 31.8857 158.657C30.9237 159.14 29.943 159.015 28.9707 158.675C28.5158 158.237 28.1357 157.844 27.8877 157.238C26.2623 153.262 28.3643 150.799 29.6572 147.28C30.0592 146.186 30.1897 145.613 29.791 144.521C28.7737 143.82 27.9582 143.229 27.1826 142.221C26.8407 140.363 27.525 138.964 28.1719 137.28C27.9049 136.368 27.7976 135.978 27.1396 135.268C26.3674 134.436 26.7813 135.011 26.1465 134.106C25.1182 132.639 26.0203 129.346 26.2842 127.64C24.6533 129.187 23.6698 130.823 22.3564 132.627C21.524 133.77 20.7861 134.228 19.4443 134.446C18.7059 133.917 18.2394 133.671 18.0498 132.667C17.3334 128.856 24.5173 122.28 26.4941 119.17C28.9053 115.375 28.6892 108.764 30.0176 104.337C32.9999 94.3967 38.0544 84.1434 43.6992 75.5917C59.4663 51.7048 82.4007 32.5969 109.983 26.4667C119.105 24.4396 128.359 24.3202 137.47 22.5556C138.748 22.3976 139.743 22.3703 140.78 23.2714C144.692 26.6705 144.205 21.7538 148.342 22.0097ZM144.366 170.213C138.432 175.897 133.047 182.206 127.273 188.067C122.313 193.103 116.912 197.72 112.166 202.975C111.231 204.009 109.184 205.993 109.073 207.4C109.068 207.469 109.084 207.538 109.09 207.607L116.209 207.632C120.076 201.161 143.536 173.968 144.366 170.213ZM136.385 155.777C126.772 166.769 117.733 177.9 107.137 187.941C103.017 191.845 91.8887 200.711 89.7119 205.446C90.1271 206.11 89.8479 205.934 90.4805 206.083C93.1977 206.74 95.8548 207.165 98.6455 207.316C102.747 200.677 107.112 194.228 111.736 187.973C115.107 183.391 136.419 158.591 136.385 155.777ZM167.961 173.775C160.212 179.195 152.72 184.979 145.486 191.123C140.223 195.654 135.209 200.509 129.705 204.729C132.706 203.938 135.569 203.034 138.462 201.884C148.611 197.276 155.212 190.254 163.134 182.428C165.309 180.278 168.214 178.066 170.008 175.597C169.257 176.121 166.503 178.426 165.808 178.422C166.765 177.195 168.466 175.779 168.779 174.289C168.085 173.79 168.384 173.898 167.961 173.775ZM125.425 145.883C122.195 149.98 118.993 154.119 115.468 157.948C110.492 163.353 76.8909 197.231 75.7393 199.999C76.3018 200.834 75.9516 200.479 76.8096 201.045L81.4219 203.041C84.9855 197.197 88.8509 191.789 93.0771 186.448C97.661 180.656 124.946 150.105 125.425 145.883ZM124.039 123.238C120.378 127.65 116.749 132.114 112.972 136.419C106.367 143.942 64.5955 189.622 63.8018 192.657C64.1822 193.495 64.5977 193.973 65.2344 194.615L66.7178 195.64C68.54 195.098 71.629 189.781 72.9375 187.979C77.577 181.606 82.4235 175.409 87.4775 169.388C93.1654 162.556 121.796 129.743 123.955 124.245C124.081 123.923 124.102 123.573 124.039 123.238ZM121.023 105.576C115.01 110.378 106.94 120.289 101.391 126.329C86.6149 142.412 65.072 163.909 53.6504 182.078C53.8438 182.813 54.0561 183.399 54.4121 184.064C56.3716 183.348 65.5939 169.411 67.6533 166.629C72.0786 160.65 77.2897 155.031 82.207 149.484C90.6213 140.062 99.0874 130.688 107.604 121.365C110.484 118.199 119.393 109.457 120.893 106.37C121.093 105.957 121.044 106.021 121.023 105.576ZM102.487 101.469C100.45 102.99 98.7107 104.877 96.915 106.691C96.3488 106.22 95.6323 105.328 94.8916 105.419C91.97 105.78 90.3531 109.668 87.9941 111.226C86.9108 112.457 85.8392 113.701 84.7803 114.956C81.5574 117.566 79.3216 119.821 77.1143 123.406C76.7118 123.877 76.376 124.338 76.0674 124.882C72.651 130.894 67.0609 135.606 62.7021 140.946C56.0859 149.194 50.0027 157.852 44.4551 166.916C45.7816 168.554 46.8161 170.323 47.8838 172.145C57.9128 151.788 74.0526 134.671 88.6992 117.869C92.4735 113.538 100.116 106.198 102.487 101.469ZM66.2246 120.435C55.9524 130.086 46.4191 140.305 37.8252 151.631L39.4727 157.095C40.5594 156.811 41.3443 154.803 41.9287 153.795C46.3972 146.079 51.2031 138.953 56.7969 132.084C59.847 128.339 63.906 124.655 66.375 120.522L66.2246 120.435ZM204.291 108.702C200.56 113.579 172.8 153.363 172.815 155.539L173.171 155.487C177.729 150.391 199.87 120.215 202.761 118.952L204.08 119.19C205.375 117.416 205.21 112.437 204.948 110.265C204.854 109.482 204.823 109.286 204.291 108.702ZM202.077 137.258C200.765 138.377 199.229 139.408 199.111 141.327C199.064 142.111 199.35 142.371 199.708 143.017C201.156 141.426 201.963 139.769 202.321 137.607L202.077 137.258ZM202.583 90.1972C197.954 95.9925 164.543 140.324 164.18 141.999L164.845 141.645C174.332 133.413 185.797 117.344 194.26 107.23C197.392 103.487 201.33 100.444 204.348 96.6435C204.037 94.84 203.908 91.8199 202.929 90.333L202.583 90.1972ZM197.739 71.6953C195.709 75.6319 193.503 79.3549 191.013 82.9912C187.313 88.3915 152.4 135.583 152.616 137.317L153.82 136C166.035 121.28 177.297 105.684 190.104 91.5117C193.54 87.7084 197.042 83.4092 201.107 80.331C200.272 77.9566 199.301 73.4955 197.739 71.6953ZM52.4932 100.612C45.7064 108.156 38.4905 115.512 32.1523 123.459C32.7826 126.483 33.0602 129.383 33.2529 132.465C34.4186 131.574 50.4646 104.82 52.6172 101.077L52.4932 100.612ZM192.603 61.8359C187.883 68.9554 182.02 75.488 176.69 82.1318C169.502 91.0933 163.023 100.41 156.454 109.859C153.799 113.678 150.779 117.202 148.379 121.207L148.55 121.399C149.133 120.892 149.723 120.399 150.268 119.848C159.435 108.941 168.011 97.5278 177.382 86.8017C183.419 79.8924 190.952 73.5365 196.082 65.8955C194.999 64.3792 194.043 63.0174 192.603 61.8359ZM184.282 52.2675C180.014 58.1808 150.67 90.3008 150.251 94.3398C150.81 93.8666 151.371 93.4145 151.885 92.8886C160.416 83.0875 169.072 73.5891 178.441 64.6406C181.567 61.6554 184.751 58.331 188.325 55.9384C187.047 54.6111 185.849 53.227 184.282 52.2675ZM173.953 43.6982C170.968 46.5705 168.068 49.5346 165.254 52.5888C161.626 56.5774 132.709 89.5847 132.014 91.788C132.848 91.5592 133.186 91.2921 133.799 90.665C142.179 81.4976 168.752 51.4512 177.71 46.7089L173.953 43.6982ZM94.583 76.6386C93.7428 77.2097 93.3392 77.6656 92.7881 78.5517C92.7139 78.6715 92.2871 79.3998 92.168 79.5165C91.2232 80.4469 90.9306 79.3618 89.8096 79.541C89.7656 80.7214 90.0104 81.5413 90.376 82.6347L90.5205 83.0576L90.0811 83.0302L90.0811 83.0263L89.1621 82.2812C87.9141 82.5389 86.7852 83.8212 86.0918 84.8867C85.314 86.0808 84.7993 87.3053 85.0654 88.7529C85.905 88.8837 86.1153 88.5563 86.7969 88.0468C87.3981 87.5967 87.9752 87.1033 88.541 86.5956L90.2187 85.0576C92.1899 83.8855 94.6001 82.1183 95.8818 80.1523C96.5338 79.1537 96.5869 78.6338 96.3945 77.4785C95.6452 76.8696 95.5158 76.7579 94.583 76.6386ZM83.5889 41.7656C66.6479 53.6414 52.5036 67.5646 42.4053 86.288C42.496 86.9475 42.351 86.754 42.5957 87.0048C50.9773 76.6704 59.3868 66.4642 68.6094 56.914C73.5485 51.7991 78.9762 47.2067 83.9043 42.0976L83.5889 41.7656ZM143.356 31.833C133.559 40.0747 124.044 48.5275 114.552 57.1445C107.888 63.1929 101.175 69.1231 95.0869 75.8134C96.1039 76.8034 97.1983 78.1981 98.6289 78.3554C100.219 77.9381 101.57 76.3164 102.772 75.1913C113.891 65.727 125.258 56.5971 136.871 47.8027C142.92 43.1402 148.801 38.2351 155.27 34.2031C151.573 32.5825 147.351 31.935 143.356 31.833ZM134.543 30.6474C133.365 29.8181 131.467 29.9205 130.058 30.0078C127.342 30.1296 124.62 30.2931 121.902 30.3466C122.517 31.7011 122.963 32.266 122.794 33.7763C120.956 36.3315 118.493 38.3958 116.296 40.6152C112.283 44.7427 108.213 48.8109 104.095 52.8232C102.72 54.1581 100.941 55.4427 99.7197 56.8788C99.2107 57.4773 99.0765 58.1721 98.9346 58.9306C97.6905 59.0046 97.5411 58.8663 96.6631 59.7558C96.4143 60.648 96.2049 61.5184 96.0059 62.4238C95.8393 63.1791 95.6596 63.4154 95.1465 63.9443L94.5498 63.791L93.8154 62.3925C92.9365 62.4345 92.3253 62.9261 91.7686 63.665C90.9569 64.7429 90.9889 66.2236 90.9092 67.5312L90.2891 68.3779C89.469 67.8942 89.8319 68.2142 89.2187 67.3886C86.8202 68.9357 83.4115 72.9964 81.7578 75.4257C82.1582 76.3927 82.3323 76.4012 83.2207 76.9394L83.8916 76.873L83.3311 74.9892L83.6465 74.6884C84.1383 74.9715 84.5398 75.2377 84.9883 75.58L85.1396 75.5693L85.7568 74.3456C86.5048 74.3349 86.148 74.2606 86.8301 74.5556C87.3785 73.2595 86.663 71.8655 87.1123 70.664C87.4756 71.608 87.8536 72.5243 88.2793 73.4404L88.7959 73.4365L89.3125 72.6396C89.1263 71.9103 88.4005 70.1915 88.5879 69.5283C89.2716 70.138 89.5839 70.6953 90 71.5204L90.1045 71.0761L90.2051 71.7929C93.0002 70.1658 98.1433 64.3244 100.83 61.8115C106.904 56.111 113.01 50.4439 119.145 44.8134C123.033 41.3046 132.024 34.7486 134.543 30.6474ZM161.194 36.6855C154.109 45.5119 145.263 53.3033 137.308 61.3017C134.655 63.9684 131.661 66.6045 129.354 69.5839L130.893 68.7372C137.236 62.8485 143.461 56.8454 149.925 51.0966C154.493 47.034 159.661 43.2111 163.761 38.6572L163.777 37.9091C162.918 37.0873 162.295 36.9643 161.194 36.6855ZM116.088 31.4345C115.31 30.9203 115.225 31.1062 114.351 31.2206C112.925 31.4732 111.477 31.6794 110.062 31.9863C104.87 38.4437 99.0013 43.7539 93.0029 49.3554C89.2878 52.8245 85.1513 56.4327 82.1572 60.6054L82.2139 61.0322L83.5088 60.0781C89.2554 53.0476 99.8223 44.3507 106.959 38.5869C109.488 36.5442 114.287 34.0409 116.088 31.4345Z" fill="#54E6ED"/>
<path d="M187.398 60.3288C181.555 59.6032 175.757 58.6219 170.049 57.1716C166.617 56.2998 163.212 55.3206 159.791 54.4046C156.563 53.5402 153.313 52.7599 150.007 52.2543C148.678 52.0509 147.325 52.0089 145.997 51.8056C143.761 51.4635 141.512 51.4905 139.275 51.594C133.046 51.8821 127.018 53.1148 121.284 55.65C118.481 56.8895 115.87 58.4508 113.505 60.3805C111.336 62.1497 109.354 64.1244 107.797 66.484C107.536 66.8802 107.364 67.4249 106.732 67.4159C106.841 67.746 106.913 68.0941 107.064 68.4033C108.117 70.5633 108.988 72.7961 109.714 75.083C110.424 77.3196 111.158 79.5539 111.731 81.8272C112.12 83.3668 112.794 84.8531 112.767 86.4887C112.765 86.6335 112.829 86.7806 112.87 86.9246C113.49 89.0839 114.077 91.253 114.74 93.3988C115.993 97.4556 117.297 101.496 118.565 105.547C119.401 108.216 120.245 110.883 121.029 113.567C122.737 119.412 124.391 125.274 126.1 131.118C127.138 134.665 128.263 138.185 129.303 141.731C129.793 143.405 130.207 145.103 130.599 146.803C130.886 148.045 129.955 148.896 128.676 148.662C127.159 148.384 125.686 147.882 124.126 147.809C123.434 147.777 122.742 147.652 122.058 147.524C120.728 147.274 120.231 146.747 120.245 145.383C120.268 143.271 119.778 141.226 119.527 139.152C119.264 136.979 118.806 134.83 118.419 132.674C117.679 128.545 116.674 124.475 115.61 120.422C114.33 115.546 112.985 110.687 111.661 105.823C110.874 102.933 110.092 100.043 109.272 97.1622C108.342 93.8977 107.407 90.634 106.41 87.3891C105.692 85.0512 104.866 82.7471 104.097 80.425C103.168 77.6189 101.963 74.9344 100.616 72.3062C100.247 71.5859 99.7349 71.168 98.9711 70.9092C96.3226 70.0119 93.6659 69.1483 90.8891 68.7431C89.1665 68.4918 87.4393 68.1527 85.7077 68.1061C83.5221 68.0476 81.3133 67.8195 79.1398 68.3305C78.9484 68.3755 78.7414 68.3597 78.5418 68.3567C77.1868 68.3365 75.87 68.6321 74.5465 68.8512C72.7264 69.1528 70.9452 69.6277 69.1581 70.0921C65.5245 71.0367 62.0109 72.3242 58.4981 73.6154C54.8442 74.9584 51.2421 76.4432 47.478 77.4674C45.6503 77.9648 43.8196 78.4412 41.9162 78.5403C41.3985 78.7166 40.871 78.8674 40.3653 79.073C35.6011 81.0109 30.734 82.6218 25.7146 83.7615C24.5157 84.0338 24.0318 84.2867 23.0301 85.085C23.0159 86.7963 23.229 88.5175 23.5021 90.2326C23.7159 91.5786 23.4091 92.1233 22.1869 92.7243C20.9361 93.3388 19.7012 93.987 18.467 94.636C17.6649 95.0577 17.4181 95.6601 17.5876 96.61C17.8232 97.9275 17.8134 99.2862 17.9545 100.623C18.0798 101.812 18.2771 102.992 18.4234 104.178C18.4842 104.669 18.4947 105.167 18.5285 105.661C19.5481 111.311 20.567 116.962 21.5866 122.612C21.8957 122.996 21.9032 123.441 21.8537 123.899L21.8462 123.871C21.9512 124.145 22.0945 124.411 22.1568 124.694C23.0099 128.594 23.8435 132.497 24.6995 136.397C25.9405 142.048 27.3495 147.66 28.2994 153.38C28.9604 157.362 29.9387 161.293 30.7956 165.243C31.7154 169.486 32.6547 173.725 33.5933 177.963C33.9437 179.546 34.3781 181.106 34.8561 182.761C35.6266 182.44 36.3363 182.202 36.9928 181.861C38.6329 181.013 40.2663 180.148 41.8711 179.235C45.6931 177.062 49.611 175.077 53.5717 173.175C54.0077 172.966 54.5148 172.906 54.989 172.776C55.4887 172.551 55.9907 172.332 56.4874 172.099C60.5531 170.195 64.6504 168.361 68.8999 166.899C71.021 166.169 73.1038 165.345 75.1993 164.548C77.8988 163.521 80.6561 162.639 83.4104 161.764C91.4548 159.208 99.6089 157.118 108.021 156.186C109.505 156.022 111.003 155.962 112.496 155.913C113.19 155.89 113.905 155.963 114.404 156.578C114.651 156.442 114.887 156.269 115.15 156.179C115.452 156.076 115.778 156.045 116.093 155.983C116.59 155.965 117.087 155.919 117.583 155.932C121.185 156.031 124.742 156.581 128.305 157.056C131.124 157.433 133.89 157.38 136.571 156.347C138.293 155.684 140.005 154.99 141.696 154.251C143.571 153.431 145.436 152.581 147.271 151.674C148.583 151.027 150.016 150.886 151.398 150.536C151.685 150.463 151.968 150.477 152.177 150.235C152.774 149.546 153.597 149.34 154.441 149.189C154.981 149.093 155.532 149.049 156.066 148.928C159.083 148.24 162.101 147.549 165.112 146.835C168.562 146.017 172.003 145.158 175.529 144.727C178.156 144.406 180.786 144.098 183.423 143.875C187.95 143.49 192.48 143.073 197.018 142.856C202.757 142.583 208.505 142.643 214.245 142.991C214.891 143.03 215.541 143.015 216.189 143.024C215.676 142.394 215.375 141.706 215.243 140.873C214.933 138.908 214.514 136.959 214.113 135.009C213.271 130.912 212.445 126.81 211.548 122.724C210.801 119.317 209.982 115.925 209.16 112.535C207.774 106.818 206.389 101.1 204.951 95.396C202.891 87.2255 200.811 79.0595 198.676 70.9084C198.127 68.8122 197.766 66.7241 197.889 64.5596C197.335 64.2932 196.777 64.1822 196.161 64.3758C195.738 64.5086 195.281 64.5318 194.85 64.6444C194.429 64.7547 194.067 64.6586 193.716 64.4395C193.758 64.7351 193.774 65.0368 193.848 65.3234C194.097 66.2897 194.386 67.2456 194.626 68.2142C195.379 71.2663 196.123 74.32 196.859 77.3758C198.119 82.615 199.387 87.852 200.619 93.0972C201.633 97.418 202.578 101.755 203.593 106.076C204.575 110.253 205.581 114.425 206.626 118.586C207.539 122.216 208.366 125.869 209.494 129.443C210.125 131.442 210.711 133.455 211.319 135.462C211.406 135.749 211.513 136.03 211.583 136.322C211.711 136.856 211.505 137.223 210.985 137.334C210.406 137.458 209.818 137.536 209.192 137.641C208.615 136.904 207.761 136.763 206.943 136.553C202.162 135.324 197.353 134.212 192.51 133.262C189.923 132.754 187.31 132.376 184.704 131.965C183.673 131.802 182.632 131.706 181.595 131.587C180.953 131.512 180.309 131.38 179.669 131.395C176.331 131.473 172.983 131.133 169.653 131.663C168.427 131.858 167.165 131.833 165.943 132.043C162.458 132.642 158.966 133.214 155.537 134.095C155.009 134.23 154.505 134.39 153.927 134.205C153.635 134.111 153.237 134.231 152.922 134.348C152.221 134.609 151.529 134.9 150.858 135.23C148.933 136.175 147.007 137.118 145.11 138.117C144.184 138.604 143.328 139.22 142.43 139.759C142.186 139.905 141.904 140.096 141.629 139.787C141.62 139.685 141.569 139.563 141.609 139.493C142.13 138.581 142.723 137.715 143.547 137.051C145.344 135.603 147.328 134.441 149.408 133.464C151.485 132.49 153.597 131.584 155.733 130.747C157.541 130.038 159.343 129.3 161.246 128.841C163.96 128.186 166.662 127.501 169.431 127.098C172.334 126.676 175.217 126.103 178.126 125.722C180.404 125.423 182.657 125.029 184.872 124.438C186.562 123.988 188.211 123.411 189.755 122.56C191.405 121.651 192.754 120.413 193.822 118.873C195.416 116.574 195.907 113.908 196.062 111.211C196.177 109.231 196.315 107.217 195.838 105.24C195.758 104.907 195.818 104.543 195.802 104.193C195.786 103.844 195.78 103.492 195.728 103.148C195.462 101.377 195.189 99.6059 194.908 97.8367C194.579 95.7712 194.302 93.6952 193.893 91.6446C192.938 86.8534 191.958 82.0673 190.913 77.2948C189.963 72.959 188.905 68.6463 187.917 64.3187C187.617 63.0103 187.346 61.6883 187.398 60.3288Z" fill="#FAE3B3"/>
<path d="M21.5862 122.612C20.5666 116.961 19.5477 111.31 18.5281 105.661C18.2482 104.764 17.9571 103.87 17.6922 102.969C17.4394 102.107 17.1033 101.291 16.5593 100.473C14.4015 100.572 12.7029 101.632 11.0823 102.878C11.3336 102.943 11.576 103.048 11.6075 103.334C11.6518 103.73 11.6578 104.132 11.6668 104.531C11.6908 105.631 11.6015 106.745 11.7478 107.827C12.0697 110.207 11.9084 112.612 12.2407 114.99C12.4403 116.42 12.4786 117.873 12.6361 119.31C12.7824 120.647 12.9857 121.978 13.1718 123.312C13.3991 124.941 13.6078 126.574 13.8756 128.198C14.1922 130.117 14.5396 132.031 14.917 133.939C15.7198 138.002 16.4805 142.076 17.3914 146.115C18.1717 149.573 19.1298 152.991 20.0226 156.424C21.2051 160.972 22.5991 165.452 24.2122 169.87C25.6227 173.733 27.3814 177.43 29.3148 181.044C30.372 183.02 31.4291 185.018 32.9184 186.728C33.202 187.053 33.2853 187.427 33.2853 187.837C35.2968 187.097 37.3023 186.34 39.3206 185.618C44.0181 183.937 48.7103 182.243 53.425 180.612C57.196 179.307 60.9894 178.065 64.7858 176.837C66.5407 176.269 68.3263 175.795 70.1015 175.292C70.3866 175.211 70.6912 175.196 70.9868 175.151C72.4243 174.456 74.006 174.307 75.5328 173.953C75.7421 173.88 75.9514 173.808 76.1615 173.736C76.3566 173.716 76.5516 173.697 76.7467 173.678C76.8728 173.599 76.9891 173.481 77.1256 173.449C79.5558 172.877 81.9079 172.072 84.2323 171.167C84.8287 170.936 85.4814 170.838 86.1147 170.714C87.4802 170.446 88.8652 170.261 90.2165 169.936C93.9431 169.037 97.6562 168.083 101.375 167.151C102.54 166.892 103.7 166.611 104.869 166.379C106.379 166.081 107.897 165.822 109.411 165.546C110.651 165.265 111.888 164.963 113.134 164.709C113.803 164.573 114.49 164.521 115.169 164.43C115.418 164.42 115.668 164.418 115.917 164.4C116.694 164.344 117.262 164.705 117.707 165.299C117.887 165.538 118.05 165.791 118.211 166.044C119.451 168 121.351 168.653 123.508 168.473C126.341 168.238 129.16 167.834 131.982 167.469C134.307 167.167 136.636 166.869 138.946 166.472C140.815 166.15 142.644 165.65 144.442 165.013C145.415 164.669 146.485 164.594 147.513 164.407C149.785 163.992 151.965 163.283 154.073 162.349C154.392 162.208 154.698 162.032 155.002 161.86C156.188 161.184 156.801 160.165 156.813 158.794C156.818 158.194 156.801 157.593 156.825 156.994C156.84 156.597 156.871 156.193 156.962 155.808C157.149 155.018 157.646 154.48 158.427 154.246C158.905 154.103 159.392 153.971 159.884 153.904C162.258 153.579 164.629 153.236 167.011 152.978C169.938 152.66 172.872 152.402 175.806 152.155C177.697 151.995 179.593 151.918 181.485 151.768C183.276 151.627 185.063 151.437 186.852 151.274C188.294 151.143 189.737 151.026 191.179 150.888C192.768 150.735 194.357 150.569 195.944 150.401C196.986 150.291 198.026 150.148 199.069 150.052C203.245 149.664 207.403 149.129 211.552 148.519C215.358 147.96 219.14 147.282 222.888 146.42C223.52 146.274 224.147 146.098 224.764 145.898C225.622 145.621 226.46 145.406 227.395 145.474C228.526 145.556 229.146 144.843 229.047 143.674C228.972 142.781 228.779 141.898 228.632 141.011C227.293 132.966 225.33 125.064 223.237 117.188C221.043 108.928 218.944 100.644 216.772 92.377C215.247 86.5751 213.614 80.8032 211.679 75.122C211.212 73.7505 210.683 72.3993 210.138 71.0563C209.895 70.4576 209.563 69.8926 209.237 69.3321C208.361 67.8278 206.959 67.1001 205.308 66.8922C204.325 66.7684 203.308 66.8075 202.316 66.8885C200.931 67.001 200.498 67.5052 200.302 68.987C200.656 70.3893 200.968 71.8043 201.37 73.1931C204.146 82.7809 206.88 92.377 209.204 102.09C210.877 109.08 212.829 116.004 214.578 122.977C216.084 128.98 217.48 135.011 218.922 141.03C218.981 141.273 219.054 141.515 219.078 141.762C219.105 142.047 219.084 142.337 219.084 142.562C218.734 142.763 218.477 142.91 218.22 143.057C218.36 143.208 218.47 143.365 218.292 143.576C216.318 143.709 214.336 143.854 212.351 143.972C210.164 144.102 207.976 144.207 205.788 144.324C205.688 144.329 205.59 144.345 205.491 144.356C203.959 144.528 202.429 144.712 200.895 144.87C198.669 145.1 196.433 145.26 194.213 145.545C191.747 145.861 189.29 146.258 186.836 146.665C183.104 147.283 179.374 147.915 175.651 148.589C172.761 149.113 169.885 149.719 167 150.274C161.569 151.32 156.15 152.418 150.793 153.811C150.063 154 149.52 154.338 149.05 154.865C148.819 155.124 148.629 155.417 148.419 155.694C148.398 156.128 148.124 156.416 147.842 156.699C146.463 158.083 144.894 159.195 143.107 159.982C142.801 160.117 142.44 160.123 142.104 160.189L142.122 160.179C141.953 160.46 141.764 160.503 141.548 160.228C140.989 160.434 140.428 160.634 139.872 160.847C137.442 161.776 134.96 162.405 132.327 162.317C131.087 162.276 129.845 162.337 128.604 162.351C129.286 162.851 130.181 162.335 131.08 162.864C130.626 162.889 130.381 162.921 130.138 162.913C127.655 162.83 125.179 162.626 122.781 161.952C120.721 161.373 118.721 160.616 117.04 159.218C116.999 159.249 116.959 159.279 116.917 159.309C116.695 159.404 116.478 159.556 116.248 159.584C114.52 159.795 112.792 159.996 111.06 160.171C108.335 160.448 105.636 160.886 102.939 161.361C96.1482 162.555 89.5195 164.377 82.9703 166.497C79.8394 167.51 76.74 168.626 73.6571 169.779C69.4533 171.35 65.2667 172.968 61.0967 174.626C57.5291 176.045 54.0088 177.581 50.4435 179.007C45.9065 180.822 41.347 182.582 36.7936 184.355C36.3322 184.534 35.8475 184.681 35.3606 184.754C35.1633 184.784 34.8789 184.627 34.7318 184.465C34.6411 184.365 34.7348 184.097 34.7461 183.904C34.5728 183.828 34.3012 183.795 34.2441 183.666C34.0633 183.26 33.9396 182.824 33.8345 182.389C32.7729 177.97 31.7172 173.55 30.6631 169.13C29.053 162.378 27.6462 155.582 26.3422 148.765C25.4606 144.156 24.5821 139.546 23.7133 134.935C23.1123 131.746 22.5218 128.555 21.9463 125.362C21.8585 124.876 21.8743 124.37 21.8421 123.874L21.8496 123.903C21.5172 123.521 21.5434 123.068 21.5862 122.612Z" fill="#008386"/>
<path d="M187.398 60.3287C187.346 61.6882 187.617 63.0102 187.916 64.3202C188.902 68.6486 189.962 72.9604 190.911 77.2963C191.955 82.0681 192.936 86.8548 193.891 91.6461C194.299 93.6959 194.577 95.7719 194.906 97.8382C195.187 99.6073 195.461 101.378 195.726 103.149C195.778 103.494 195.784 103.846 195.8 104.195C195.816 104.544 195.756 104.909 195.836 105.241C196.314 107.218 196.175 109.233 196.061 111.213C195.905 113.91 195.414 116.576 193.82 118.875C192.754 120.413 191.405 121.651 189.753 122.561C188.209 123.412 186.56 123.989 184.87 124.439C182.656 125.03 180.402 125.424 178.125 125.723C175.216 126.105 172.333 126.677 169.429 127.1C166.66 127.503 163.957 128.188 161.244 128.843C159.341 129.302 157.539 130.039 155.731 130.748C153.596 131.586 151.483 132.491 149.406 133.466C147.327 134.441 145.343 135.605 143.546 137.052C142.722 137.716 142.129 138.582 141.608 139.494C141.568 139.564 141.618 139.686 141.627 139.789C141.903 140.097 142.184 139.906 142.428 139.76C143.327 139.221 144.183 138.605 145.108 138.118C147.005 137.12 148.932 136.176 150.856 135.231C151.527 134.902 152.22 134.611 152.921 134.35C153.236 134.233 153.633 134.113 153.925 134.206C154.503 134.392 155.007 134.231 155.535 134.096C158.965 133.215 162.457 132.643 165.941 132.045C167.163 131.835 168.425 131.86 169.651 131.665C172.981 131.134 176.328 131.475 179.667 131.397C180.307 131.382 180.952 131.514 181.593 131.588C182.631 131.708 183.672 131.804 184.702 131.966C187.308 132.377 189.921 132.755 192.508 133.263C197.351 134.214 202.16 135.326 206.941 136.554C207.759 136.764 208.613 136.906 209.19 137.643C209.817 137.538 210.405 137.46 210.983 137.336C211.504 137.224 211.709 136.857 211.581 136.323C211.511 136.032 211.404 135.751 211.317 135.463C210.71 133.457 210.123 131.443 209.492 129.444C208.364 125.871 207.537 122.218 206.625 118.588C205.579 114.426 204.573 110.254 203.591 106.077C202.576 101.757 201.632 97.4195 200.617 93.0987C199.385 87.8527 198.117 82.6158 196.857 77.3773C196.122 74.3214 195.377 71.2671 194.624 68.2157C194.385 67.2471 194.096 66.2912 193.847 65.3248C193.772 65.0382 193.757 64.7359 193.715 64.441C193.58 64.0704 193.448 63.6997 193.31 63.3306C193.074 62.6936 192.835 62.0574 192.518 61.2118C191.047 60.3512 189.199 60.4608 187.398 60.3287Z" fill="#FCEFD3"/>
<path d="M115.168 164.429C114.489 164.519 113.804 164.572 113.134 164.708C111.887 164.961 110.652 165.263 109.411 165.545C109.401 165.636 109.408 165.799 109.38 165.805C106.99 166.337 104.599 166.868 102.201 167.36C101.951 167.411 101.652 167.225 101.375 167.149C97.6569 168.081 93.943 169.035 90.2164 169.933C88.8651 170.259 87.4809 170.444 86.1146 170.711C85.4814 170.835 84.8286 170.933 84.2321 171.165C81.9078 172.069 79.5556 172.875 77.1255 173.447C76.9889 173.479 76.8726 173.598 76.7466 173.676C76.5748 173.932 76.3835 173.99 76.1614 173.734C75.952 173.806 75.7427 173.878 75.5327 173.951C75.4869 174.065 75.4666 174.257 75.3916 174.282C74.1379 174.692 72.8774 175.083 71.6184 175.476C66.0634 177.287 60.5128 179.109 55.0403 181.165C48.7274 183.537 42.3141 185.62 35.9299 187.789C33.3782 188.655 30.8685 189.647 28.3454 190.595C27.397 190.952 26.5612 191.489 25.9032 192.277C25.4545 192.815 25.4208 193.185 25.7637 193.773C26.0938 194.341 26.6145 194.633 27.2327 194.688C28.2276 194.777 29.2285 194.816 30.1971 194.466C31.8402 193.872 33.493 193.302 35.1302 192.692C38.733 191.35 42.326 189.983 45.9281 188.639C50.3255 186.998 54.7094 185.317 59.1331 183.753C63.3234 182.271 67.5467 180.876 71.7775 179.514C77.6229 177.633 83.4894 175.81 89.4976 174.508C92.3727 173.884 95.271 173.374 98.1573 172.801C102.902 171.859 107.645 170.907 112.389 169.957C113.024 169.83 113.654 169.669 114.293 169.561C115.12 169.422 115.502 169.637 115.853 170.378C115.896 170.468 115.94 170.561 115.961 170.657C116.219 171.844 116.996 172.431 118.161 172.574C118.704 172.64 119.246 172.763 119.789 172.765C121.234 172.769 122.685 172.874 124.118 172.55C124.405 172.484 124.715 172.515 125.014 172.511C127.316 172.484 129.584 172.13 131.846 171.764C137.518 170.846 143.085 169.455 148.636 167.998C151.05 167.365 153.46 166.716 155.861 166.033C157.013 165.705 158.118 165.248 159.133 164.581C160.454 163.713 161.265 162.509 161.634 160.99C161.74 160.554 161.872 160.116 161.907 159.673C161.978 158.774 162.497 158.326 163.318 158.177C164.15 158.024 164.988 157.888 165.829 157.797C167.662 157.599 169.498 157.434 171.332 157.257C171.531 157.237 171.73 157.218 171.929 157.212C174.074 157.152 176.202 156.903 178.33 156.641C179.714 156.471 181.111 156.41 182.5 156.268C183.788 156.136 185.071 155.954 186.358 155.809C187.645 155.663 188.935 155.539 190.223 155.397C191.806 155.223 193.389 155.031 194.973 154.863C196.262 154.724 197.553 154.621 198.842 154.479C200.178 154.332 201.513 154.162 202.847 153.995C203.786 153.877 204.723 153.741 205.663 153.627C208.334 153.303 211.011 153.025 213.676 152.658C216.983 152.203 220.282 151.693 223.58 151.173C225.016 150.946 226.402 150.533 227.679 149.803C228.302 149.446 228.811 148.989 229.143 148.344C229.356 147.928 229.445 147.488 229.331 147.037C229.227 146.629 228.992 146.294 228.526 146.266C228.084 146.24 227.622 146.185 227.199 146.278C224.616 146.845 222.033 147.415 219.468 148.054C216.851 148.706 214.216 149.255 211.548 149.622C210.216 149.805 208.868 149.869 207.529 150.001C205.943 150.158 204.359 150.327 202.773 150.491C202.574 150.512 202.377 150.544 202.178 150.56C199.597 150.78 197.011 150.964 194.433 151.226C192.254 151.447 190.084 151.77 187.908 152.025C185.83 152.269 183.746 152.473 181.667 152.714C180.529 152.846 179.397 153.024 178.26 153.169C177.173 153.308 176.085 153.45 174.994 153.553C173.555 153.69 172.112 153.778 170.673 153.91C168.887 154.072 167.104 154.264 165.319 154.429C164.822 154.475 164.317 154.44 163.822 154.496C162.339 154.666 160.845 154.794 159.38 155.068C157.876 155.349 157.466 155.913 157.408 157.431C157.379 158.18 157.371 158.932 157.405 159.68C157.438 160.386 157.207 160.963 156.677 161.403C156.219 161.784 155.767 162.213 155.239 162.458C154.017 163.023 152.779 163.582 151.497 163.977C148.159 165.006 144.788 165.919 141.382 166.709C137.444 167.623 133.494 168.458 129.508 169.127C127.382 169.484 125.241 169.576 123.092 169.482C121.769 169.424 120.531 169.034 119.421 168.319C119.015 168.058 118.677 167.666 118.37 167.284C118.091 166.938 117.87 166.536 117.668 166.136C117.306 165.422 116.741 164.979 115.989 164.742C115.712 164.655 115.442 164.534 115.168 164.429Z" fill="#00A6AA"/>
<path d="M33.2861 187.836C33.2861 187.426 33.2028 187.053 32.9192 186.727C31.4299 185.017 30.3736 183.02 29.3157 181.043C27.3822 177.429 25.6243 173.732 24.213 169.869C22.5991 165.452 21.2059 160.972 20.0234 156.423C19.1314 152.991 18.1725 149.572 17.3922 146.114C16.4814 142.075 15.7206 138.001 14.9178 133.939C14.5404 132.031 14.193 130.116 13.8764 128.197C13.6086 126.574 13.4007 124.941 13.1726 123.311C12.9866 121.978 12.7832 120.647 12.6369 119.31C12.4801 117.872 12.4419 116.42 12.2416 114.99C11.9092 112.611 12.0705 110.206 11.7486 107.826C11.6023 106.743 11.6908 105.629 11.6676 104.53C11.6586 104.131 11.6526 103.729 11.6083 103.333C11.5761 103.047 11.3345 102.942 11.0831 102.877C9.7071 103.972 8.98757 105.419 8.96957 107.158C8.94781 109.255 8.94332 111.358 9.07837 113.449C9.2877 116.687 9.59155 119.92 9.91117 123.15C10.1663 125.734 10.4716 128.314 10.813 130.887C11.2204 133.956 11.6173 137.028 12.1507 140.076C12.934 144.551 13.7856 149.015 14.698 153.465C15.8406 159.04 17.0171 164.609 18.2835 170.156C19.6745 176.248 21.617 182.182 23.7073 188.066C24.0232 188.956 24.4756 189.797 24.8875 190.713C25.1793 190.713 25.4839 190.776 25.7495 190.702C26.7084 190.433 27.6756 190.173 28.6006 189.81C30.1792 189.191 31.7263 188.498 33.2861 187.836Z" fill="#00625B"/>
<path d="M218.222 143.054C218.479 142.907 218.736 142.76 219.086 142.559C219.086 142.334 219.107 142.044 219.08 141.759C219.057 141.512 218.982 141.27 218.925 141.027C217.481 135.008 216.086 128.977 214.581 122.974C212.832 116.001 210.879 109.078 209.206 102.087C206.882 92.374 204.149 82.7779 201.373 73.1901C200.97 71.8014 200.658 70.3863 200.304 68.9841C199.992 68.0987 199.689 67.2097 199.364 66.3288C199.084 65.568 198.711 64.8733 197.891 64.5582C197.767 66.7235 198.128 68.8107 198.678 70.907C200.813 79.0581 202.893 87.2241 204.952 95.3946C206.391 101.099 207.775 106.817 209.161 112.534C209.983 115.924 210.801 119.316 211.549 122.723C212.446 126.809 213.272 130.91 214.115 135.008C214.516 136.958 214.934 138.907 215.245 140.872C215.376 141.704 215.677 142.393 216.191 143.023C216.867 143.034 217.545 143.043 218.222 143.054Z" fill="#FCEFD3"/>
<path d="M81.8322 45.8319C81.4713 45.7119 81.1074 45.7554 80.8575 46.021C80.6287 46.2641 80.3924 46.5807 80.3421 46.8943C80.2408 47.5291 80.2543 48.1841 80.2356 48.8308C80.1995 50.077 80.1815 51.324 80.1388 52.5702C80.1305 52.8035 80.0382 53.0346 79.9715 53.322C79.0764 53.0819 78.3246 52.6947 77.6141 52.2408C76.605 51.5963 75.6303 50.8986 74.628 50.2436C73.6256 49.5886 72.6277 48.9246 71.5886 48.3326C71.0769 48.0415 70.4925 47.8269 69.9147 47.7151C68.9259 47.5246 68.1373 48.1713 68.0563 49.1767C68.0248 49.5706 68.075 49.9742 68.1216 50.3689C68.1508 50.6142 68.2348 50.8543 68.3054 51.0936C69.5148 55.2134 70.8541 59.2897 72.3644 63.3097C72.6135 63.9729 72.9676 64.5679 73.4741 65.0676C73.9145 65.0046 74.3624 64.9738 74.7945 64.8725C75.8584 64.6227 76.9148 64.3406 77.9735 64.0712C78.1828 64.0149 78.3921 63.9587 78.6015 63.9024C78.7808 63.8799 78.9594 63.8566 79.1387 63.8341C79.1694 62.918 78.843 62.0747 78.6022 61.2142C78.2136 59.8239 77.8062 58.4389 77.4423 57.0418C77.3763 56.789 77.485 56.4904 77.5196 56.1445C78.0462 56.1115 78.4867 56.05 78.9241 56.0642C79.8394 56.0935 80.5492 55.7139 81.1742 55.0776C82.5592 53.6663 82.6605 51.8297 82.623 50.0665C82.5914 48.6507 82.2741 47.2109 81.8322 45.8319Z" fill="#F19700"/>
<path d="M81.8328 45.8319C82.2747 47.2117 82.5921 48.6507 82.6221 50.068C82.6596 51.8312 82.5583 53.6678 81.1733 55.0791C80.5483 55.7161 79.8393 56.095 78.9232 56.0657C78.4858 56.0515 78.0454 56.113 77.5187 56.146C77.4842 56.4919 77.3754 56.7905 77.4414 57.0434C77.8045 58.4404 78.2127 59.8254 78.6013 61.2157C78.8414 62.0762 79.1678 62.9195 79.1378 63.8356C79.4386 63.8506 79.7395 63.8656 80.0404 63.8806C81.4494 63.594 82.8772 63.5528 84.3079 63.5513C86.0321 63.5498 87.7562 63.555 89.4796 63.5573C91.0109 62.6719 91.1475 62.3591 90.545 60.6777C89.2493 57.0614 87.7577 53.5268 85.8273 50.2001C85.155 49.0416 84.3567 47.9507 83.5412 46.8853C83.1308 46.3481 82.6393 45.7952 81.8328 45.8319Z" fill="#F1B200"/>
<path d="M218.222 143.054C217.544 143.044 216.867 143.034 216.189 143.024C215.541 143.014 214.891 143.03 214.245 142.991C208.505 142.642 202.758 142.582 197.017 142.856C192.479 143.072 187.95 143.489 183.422 143.874C180.786 144.098 178.155 144.405 175.528 144.726C172.003 145.157 168.561 146.017 165.112 146.834C162.1 147.549 159.083 148.24 156.065 148.927C155.532 149.049 154.981 149.092 154.44 149.188C153.596 149.339 152.774 149.545 152.177 150.235C151.967 150.476 151.684 150.463 151.398 150.535C150.017 150.885 148.582 151.026 147.271 151.674C145.436 152.58 143.571 153.431 141.695 154.25C140.005 154.989 138.293 155.683 136.571 156.347C133.889 157.379 131.124 157.432 128.304 157.056C124.742 156.58 121.185 156.03 117.582 155.932C117.087 155.918 116.59 155.964 116.092 155.983C115.809 156.232 115.528 156.48 115.296 156.685C115.665 157.778 116.487 158.347 117.237 158.979C117.725 159.227 118.209 159.485 118.704 159.721C121.838 161.22 125.123 162.157 128.605 162.348C129.846 162.334 131.089 162.273 132.328 162.314C134.962 162.402 137.444 161.773 139.874 160.844C140.43 160.631 140.991 160.432 141.55 160.225C141.741 160.209 141.932 160.192 142.123 160.177L142.106 160.186C142.375 159.988 142.625 159.754 142.916 159.595C144.651 158.655 146.237 157.508 147.716 156.206C147.933 156.015 148.185 155.863 148.421 155.692C148.629 155.414 148.821 155.121 149.051 154.862C149.522 154.335 150.065 153.997 150.795 153.808C156.152 152.416 161.57 151.317 167.002 150.271C169.886 149.716 172.762 149.11 175.653 148.586C179.375 147.912 183.105 147.28 186.837 146.662C189.292 146.255 191.748 145.858 194.215 145.542C196.434 145.257 198.67 145.097 200.897 144.867C202.43 144.709 203.96 144.526 205.492 144.353C205.591 144.342 205.69 144.326 205.789 144.321C207.977 144.204 210.166 144.1 212.353 143.969C214.337 143.851 216.32 143.706 218.294 143.573C218.471 143.362 218.361 143.205 218.222 143.054Z" fill="#00625B"/>
<path d="M34.7496 183.901C34.7383 184.094 34.6446 184.362 34.7353 184.462C34.8816 184.623 35.166 184.781 35.3641 184.751C35.851 184.677 36.3357 184.531 36.7971 184.352C41.3513 182.579 45.91 180.819 50.4469 179.004C54.0115 177.578 57.5326 176.042 61.1001 174.623C65.2702 172.965 69.4567 171.347 73.6605 169.776C76.7434 168.623 79.8429 167.507 82.9738 166.494C89.523 164.375 96.1517 162.552 102.942 161.358C105.639 160.883 108.338 160.444 111.063 160.168C112.795 159.993 114.524 159.792 116.252 159.581C116.483 159.552 116.698 159.401 116.921 159.306C115.949 158.52 115.055 157.662 114.404 156.578C113.906 155.964 113.191 155.891 112.497 155.914C111.004 155.962 109.506 156.022 108.022 156.187C99.6097 157.118 91.4557 159.21 83.4112 161.765C80.6569 162.64 77.8996 163.522 75.2001 164.549C73.1046 165.345 71.0226 166.17 68.9008 166.9C64.6512 168.361 60.5547 170.196 56.4882 172.1C55.9922 172.333 55.4896 172.552 54.9891 172.777C54.695 172.958 54.4136 173.167 54.1053 173.318C49.6809 175.476 45.3698 177.845 41.1014 180.296C38.9894 181.508 36.8669 182.7 34.7496 183.901Z" fill="#00625B"/>
<path d="M77.9724 64.0727C78.1817 64.0164 78.391 63.9601 78.5996 63.9039C78.3903 63.9601 78.1817 64.0164 77.9724 64.0727Z" fill="#F2B200"/>
<path d="M8.12836 106.434C8.2394 103.883 9.50963 102.119 11.7897 101.038C12.0606 100.91 12.3216 100.761 12.5955 100.641C13.6481 100.183 14.7061 99.7372 15.7579 99.2765C16.0671 99.1415 16.3619 98.9734 16.6965 98.8031C16.602 98.0986 16.5142 97.4586 16.4295 96.8179C16.3709 96.3722 16.3259 95.9243 16.2576 95.4801C16.1511 94.7959 16.4519 94.3284 17.0169 93.9908C17.2742 93.837 17.5249 93.672 17.7875 93.5271C19.099 92.8024 20.4157 92.0874 21.7249 91.3588C22.019 91.1953 22.2921 90.9957 22.59 90.8029C22.3259 88.9594 22.079 87.1813 21.8134 85.4054C21.5726 83.7915 21.6169 83.4396 23.3845 83.0292C28.9861 81.7313 34.4519 79.9906 39.7819 77.8268C45.4743 75.5159 51.0241 72.884 56.6107 70.3353C61.4747 68.1159 66.3808 66.0122 71.5524 64.5971C71.782 64.5341 71.9929 64.4036 72.2502 64.2873C72.1444 63.8499 72.0754 63.456 71.9531 63.0801C71.1518 60.6117 70.3407 58.147 69.5282 55.6823C68.9505 53.9289 68.339 52.186 67.7996 50.4206C67.6127 49.8084 67.5227 49.1444 67.5182 48.5029C67.5077 46.9566 68.4958 46.0848 70.0399 46.3031C70.7722 46.4066 71.5022 46.6355 72.1917 46.9131C73.5437 47.4578 74.7547 48.2621 75.8913 49.1692C76.7902 49.8864 77.6522 50.6487 78.5458 51.3727C78.7581 51.5453 78.9367 51.8492 79.3689 51.7043C79.5182 51.2077 79.4476 50.6645 79.4349 50.128C79.4146 49.2779 79.3396 48.4271 79.3704 47.5793C79.3951 46.8846 79.4694 46.1755 79.6457 45.5055C80.0419 44.0042 81.3323 43.7041 82.4518 44.2586C83.2305 44.645 83.8908 45.1829 84.4235 45.8447C85.2683 46.8936 86.1034 47.9597 86.8409 49.0859C88.6581 51.8589 89.9605 54.8848 91.0147 58.0187C91.4754 59.388 91.894 60.7707 92.3532 62.215C97.5001 62.6547 102.512 63.7103 107.309 65.679C108.025 64.775 108.672 63.8881 109.391 63.0636C112.017 60.0497 115.174 57.6961 118.672 55.7971C127.873 50.8025 137.693 49.3395 147.995 50.7627C151.609 51.2617 155.167 52.0555 158.703 52.9551C164.509 54.4316 170.28 56.0642 176.19 57.0891C179.782 57.7118 183.389 58.2528 186.999 58.7622C188.878 59.0278 190.776 59.1509 192.667 59.3272C193.576 59.412 193.884 59.6333 194.146 60.5291C194.314 61.1038 194.412 61.6988 194.583 62.272C194.678 62.5894 194.859 62.8813 194.967 63.1116C196.187 63.1116 197.286 63.1086 198.386 63.1123C199.3 63.1153 199.877 63.534 200.128 64.4433C200.27 64.9535 200.283 65.5365 200.699 65.8936C202.447 66.0174 204.141 66.1225 205.834 66.2598C208.16 66.4481 209.906 67.5142 210.897 69.687C211.125 70.1867 211.386 70.6736 211.58 71.1861C211.934 72.1187 212.268 73.0603 212.579 74.0079C217.071 87.7237 220.862 101.643 224.536 115.593C226.087 121.48 227.383 127.437 228.704 133.383C229.386 136.452 229.936 139.555 230.407 142.664C230.623 144.083 230.606 145.56 230.516 146.999C230.396 148.916 229.379 150.27 227.52 150.903C226.86 151.128 226.19 151.357 225.507 151.472C222.404 151.993 219.297 152.497 216.184 152.963C212.924 153.452 209.657 153.907 206.39 154.347C203.666 154.715 200.937 155.048 198.21 155.383C196.176 155.633 194.141 155.866 192.104 156.099C188.926 156.462 185.747 156.816 182.57 157.178C179.64 157.511 176.711 157.852 173.781 158.185C170.504 158.559 167.227 158.927 163.95 159.306C163.666 159.339 163.387 159.423 163.091 159.486C163.062 159.997 163.049 160.445 163.01 160.892C162.874 162.426 162.204 163.678 160.913 164.526C160.165 165.017 159.373 165.473 158.544 165.798C157.059 166.381 155.548 166.913 154.017 167.361C148.839 168.875 143.591 170.116 138.321 171.255C133.778 172.238 129.217 173.137 124.577 173.51C122.787 173.654 120.982 173.645 119.184 173.643C118.595 173.643 117.99 173.496 117.42 173.325C116.316 172.993 115.478 172.32 115.032 171.219C114.906 170.906 114.754 170.605 114.608 170.287C114.029 170.356 113.53 170.384 113.044 170.479C108.143 171.433 103.236 172.36 98.3457 173.37C91.0079 174.886 83.7602 176.763 76.5973 178.964C67.624 181.722 58.8045 184.923 50.0374 188.272C43.5558 190.748 37.0689 193.21 30.4882 195.413C29.8752 195.618 29.2472 195.792 28.6155 195.927C27.5479 196.158 26.6392 195.831 25.9085 195.027C25.1304 194.172 24.4544 193.25 24.0598 192.146C23.6734 191.065 23.2562 189.995 22.8938 188.906C21.2365 183.93 19.9272 178.854 18.5752 173.79C16.707 166.793 15.1015 159.733 13.6557 152.639C12.7583 148.236 12.0133 143.8 11.2615 139.369C10.7851 136.562 10.3875 133.741 10.0153 130.918C9.63643 128.044 9.33331 125.161 8.99568 122.282C8.5005 118.06 8.17186 113.823 8.00755 109.575C7.97003 108.533 8.08258 107.482 8.12836 106.434ZM23.1654 94.6308C23.0837 94.0899 22.9674 93.5542 22.8676 93.017C21.797 93.2023 19.8897 94.1979 18.1476 95.4666C18.1311 101.58 32.2333 172.709 35.2794 181.842C35.7581 181.917 36.0868 181.57 36.4469 181.355C41.0754 178.581 45.7834 175.952 50.6024 173.522C63.9791 166.777 77.9081 161.503 92.447 157.87C96.9044 156.755 101.401 155.797 105.955 155.172C111.02 154.477 116.111 154.274 121.216 154.664C121.763 154.705 122.311 154.728 122.858 154.76C120.781 153.94 118.612 153.617 116.445 153.342C112.175 152.802 107.884 152.519 103.577 152.748C98.1258 153.039 92.7268 153.769 87.4419 155.133C74.7029 158.421 62.3038 162.676 50.4659 168.473C47.2794 170.034 44.1823 171.759 41.1631 173.624C40.7812 173.86 40.4069 174.123 39.9957 174.292C39.1306 174.647 38.3856 174.211 38.2288 173.292C38.153 172.85 38.114 172.4 38.0488 171.956C37.9835 171.513 37.9054 171.071 37.8259 170.587C37.5033 170.419 37.0576 170.323 36.852 170.047C36.6014 169.71 36.5024 169.231 36.4236 168.798C35.2982 162.608 34.2133 156.411 33.0661 150.225C32.0653 144.824 30.9909 139.437 29.9637 134.041C28.9921 128.94 28.0025 123.843 27.0894 118.731C26.1756 113.619 25.3278 108.495 24.4874 103.37C24.0095 100.464 23.6081 97.5441 23.1654 94.6308ZM160.98 136.486C153.983 138.605 147.237 141.332 140.804 144.815C138.292 146.175 135.91 147.731 133.742 149.599C133.44 149.86 133.121 150.117 132.888 150.433C132.775 150.585 132.844 150.871 132.827 151.169C133.072 151.083 133.231 151.066 133.337 150.982C138.779 146.727 144.881 143.664 151.246 141.084C157.24 138.656 163.45 136.986 169.828 135.937C175.474 135.009 181.158 134.714 186.869 135.011C189.517 135.148 192.133 135.586 194.747 136.005C198.249 136.567 201.749 137.134 205.25 137.703C206.088 137.839 206.922 137.995 207.761 138.13C208.247 138.209 208.738 138.263 209.226 138.328C208.14 137.601 206.941 137.292 205.752 136.961C201.709 135.835 197.628 134.856 193.477 134.233C190.562 133.795 187.622 133.516 184.668 133.472C181.115 133.419 177.565 133.456 174.03 133.843C169.6 134.329 165.246 135.194 160.98 136.486ZM169.367 132.601C160.788 133.166 152.895 135.257 145.472 139.079C141.432 141.159 138.408 143.178 137.667 144.322C138.425 144.342 138.874 143.807 139.428 143.544C140.013 143.267 140.565 142.919 141.139 142.615C141.758 142.288 142.38 141.971 143.008 141.661C143.59 141.374 144.176 141.096 144.765 140.822C145.353 140.549 145.945 140.282 146.537 140.015C147.128 139.748 147.718 139.477 148.314 139.221C148.956 138.946 149.605 138.686 150.252 138.421C150.853 138.175 151.453 137.927 152.057 137.692C152.662 137.457 153.271 137.234 153.88 137.008C154.488 136.782 155.096 136.556 155.707 136.337C156.365 136.103 157.025 135.872 157.688 135.652C158.304 135.447 158.923 135.252 159.544 135.064C160.165 134.876 160.788 134.696 161.413 134.522C162.038 134.348 162.667 134.186 163.295 134.021C163.971 133.845 164.646 133.66 165.327 133.502C165.959 133.356 166.6 133.249 167.233 133.11C167.86 132.972 168.483 132.813 169.367 132.601ZM136.193 144.955C136.07 145.229 135.946 145.507 135.822 145.785C136.059 145.564 136.377 145.383 136.202 144.952C136.2 144.954 136.196 144.954 136.193 144.955ZM136.922 144.891C136.859 144.849 136.793 144.793 136.737 144.802C136.558 144.832 136.385 144.897 136.21 144.95C136.542 145.272 136.647 145.264 136.922 144.891ZM136.951 144.873C137.295 144.865 137.57 144.773 137.586 144.29C137.209 144.353 136.882 144.398 136.951 144.873ZM135.749 145.86C135.731 145.849 135.714 145.837 135.696 145.825C135.705 145.846 135.713 145.867 135.722 145.888C135.731 145.879 135.74 145.87 135.749 145.86ZM174.35 137.135C161.206 138.632 148.983 142.8 137.814 149.944C136.764 150.615 135.767 151.373 134.764 152.115C134.285 152.47 133.847 152.882 133.281 153.363C133.439 154.072 133.576 154.686 133.739 155.413C134.069 155.187 134.318 155.034 134.546 154.855C142.371 148.709 151.159 144.405 160.557 141.273C165.103 139.759 169.707 138.448 174.413 137.524C175.69 137.274 176.952 136.901 177.87 136.893C176.949 136.582 175.639 136.989 174.35 137.135ZM140.024 153.143C140.056 153.166 140.088 153.189 140.12 153.212C140.146 153.182 140.171 153.151 140.197 153.121C140.165 153.098 140.129 153.054 140.101 153.058C140.072 153.062 140.049 153.113 140.024 153.143ZM140.737 152.744C140.67 152.759 140.608 152.801 140.544 152.831C140.577 152.861 140.609 152.892 140.648 152.928C140.708 152.896 140.771 152.863 140.833 152.83C140.801 152.799 140.762 152.739 140.737 152.744ZM134.777 157.649C133.913 158.031 133.138 158.096 132.192 157.864C130.45 157.437 128.659 157.179 126.876 156.961C123.599 156.56 120.312 156.262 117.005 156.277C116.72 156.279 116.435 156.299 116.173 156.31C116.036 156.696 116.287 156.845 116.437 157.016C118.224 159.054 120.567 160.111 123.128 160.768C126.071 161.523 129.072 161.569 132.071 161.346C135.372 161.101 138.607 160.46 141.706 159.267C142.82 158.839 143.911 158.317 144.945 157.72C147.535 156.225 149.4 154.053 150.63 151.332C150.644 151.217 150.657 151.102 150.671 150.987C150.568 151.025 150.465 151.062 150.362 151.1C149.56 151.369 148.736 151.586 147.962 151.918C143.559 153.808 139.161 155.713 134.777 157.649ZM127.76 152.748C124.046 151.993 120.289 151.55 116.514 151.265C115.757 151.208 114.988 151.313 114.229 151.314C117.228 151.543 120.197 152.024 123.1 152.779C125.981 153.528 128.807 154.496 131.874 155.435C131.749 154.799 131.647 154.278 131.527 153.667C130.26 153.356 129.019 153.005 127.76 152.748ZM131.113 151.645C130.924 150.788 130.787 150.172 130.636 149.487C129.069 149.157 127.571 148.782 126.051 148.53C120.573 147.62 115.053 147.093 109.499 147.018C99.0427 146.874 88.7773 148.191 78.7289 151.133C67.6728 154.37 57.0608 158.682 47.0063 164.317C44.7885 165.56 42.6862 167.011 40.5382 168.377C40.1623 168.617 39.8217 168.911 39.4368 169.202C39.5733 170.197 39.6633 171.17 39.9409 172.198C40.2238 172.069 40.4061 172.008 40.5652 171.91C49.0321 166.722 58.0925 162.816 67.3982 159.43C69.3181 158.732 71.1923 157.906 73.0785 157.116C80.1491 154.155 87.4651 152.015 95.0062 150.671C99.3871 149.891 103.808 149.433 108.266 149.362C111.967 149.304 115.664 149.34 119.348 149.721C122.776 150.074 126.187 150.558 129.551 151.333C129.982 151.432 130.418 151.506 131.113 151.645ZM90.1511 61.1669C89.0152 57.2759 87.5942 53.502 85.3741 50.0845C84.6433 48.9591 83.7918 47.9079 82.9447 46.865C82.5801 46.4156 82.1494 45.9737 81.5267 45.8687C81.1065 46.3601 81.1508 46.9266 81.1478 47.466C81.1425 48.4144 81.1935 49.362 81.2003 50.3103C81.2048 50.9586 81.2198 51.6121 81.1485 52.2543C80.9729 53.8449 79.876 54.3783 78.4933 53.535C77.9433 53.1997 77.4594 52.7555 76.953 52.3503C75.9401 51.54 74.9625 50.6825 73.9151 49.9202C72.7837 49.0971 71.5712 48.3986 70.1719 48.1098C69.9806 48.07 69.784 48.0572 69.4839 48.019C69.1238 48.785 69.3519 49.4265 69.5087 50.032C69.7578 50.9953 70.0797 51.9422 70.4165 52.8793C71.6815 56.3966 72.9127 59.9244 73.9376 63.5205C73.9631 63.609 74.0374 63.6833 74.1417 63.8491C75.8553 63.5392 77.6004 63.1806 79.3598 62.9173C81.1838 62.6449 83.0175 62.4146 84.8541 62.2608C86.6398 62.1115 88.4352 62.0822 90.3147 61.9967C90.2607 61.7116 90.2284 61.4325 90.1511 61.1669ZM192.683 61.9584C192.622 61.7176 192.518 61.4872 192.404 61.1669C191.799 61.0948 191.161 61.0056 190.521 60.9448C181.599 60.1045 172.825 58.4464 164.156 56.191C160.099 55.1354 156.049 54.055 151.932 53.2312C146.951 52.234 141.932 51.7254 136.874 52.1748C128.261 52.9408 120.433 55.8039 113.681 61.3304C112.322 62.4423 111.103 63.6976 110.013 65.0743C109.703 65.4652 109.422 65.8801 109.128 66.2838C108.716 66.848 108.663 67.3904 108.922 68.0919C110.007 71.0428 111.04 74.0131 112.04 76.994C114.342 83.8575 116.319 90.8216 118.288 97.785C120.76 106.526 123.115 115.3 125.521 124.06C125.663 124.574 125.814 125.086 125.99 125.701L126.427 127.383C128.19 133.678 129.958 139.972 131.732 146.264C131.754 146.341 131.864 146.393 131.982 146.501C132.202 146.323 132.442 146.152 132.654 145.951C139.492 139.487 147.609 135.359 156.616 132.887C161.307 131.599 166.1 130.952 170.958 130.7C175.718 130.454 180.46 130.658 185.187 131.148C190.06 131.653 194.871 132.561 199.655 133.618C203.362 134.436 207.03 135.399 210.634 136.597C210.857 136.671 211.091 136.714 211.579 136.836C211.014 134.698 210.524 132.819 210.02 130.943C206.765 118.842 203.812 106.667 200.842 94.4935C198.192 83.6325 195.41 72.8022 192.683 61.9584ZM198.675 65.7886C198.592 65.5065 198.461 65.2386 198.326 64.8965C197.818 64.886 197.322 64.859 196.83 64.871C196.391 64.8815 195.952 64.9363 195.4 64.9805C195.444 65.3384 195.448 65.6273 195.516 65.8989C197.533 73.9351 199.576 81.9638 201.573 90.0053C203.244 96.7383 204.813 103.498 206.518 110.222C208.725 118.93 211.023 127.615 213.282 136.31C213.42 136.841 213.588 137.366 213.703 137.902C213.885 138.741 213.296 139.452 212.407 139.11C212.188 139.025 211.966 138.947 211.746 138.866C211.121 140.551 211.104 140.527 209.32 140.208C205.534 139.531 201.745 138.851 197.908 138.533C195.368 138.323 192.825 138.074 190.28 138.025C183.048 137.888 175.928 138.71 168.928 140.612C161.683 142.582 154.611 144.995 147.926 148.447C145.976 149.454 144.089 150.587 142.181 151.674C141.884 151.843 141.624 152.082 141.347 152.288C141.207 152.379 140.914 152.4 141.094 152.654C141.142 152.721 141.419 152.625 141.59 152.604C143.205 151.939 144.825 151.289 146.432 150.608C150.122 149.042 153.971 147.989 157.852 147.036C162.749 145.834 167.658 144.679 172.62 143.778C176.651 143.046 180.703 142.455 184.793 142.132C195.026 141.323 205.269 141.27 215.52 141.625C216.218 141.649 216.915 141.74 217.614 141.779C217.9 141.795 218.19 141.757 218.499 141.742C218.499 141.521 218.529 141.367 218.495 141.229C212.288 115.976 206.041 90.7354 198.675 65.7886ZM26.2709 192.608C27.4938 194.418 27.7152 194.484 29.7057 193.815C35.7154 191.796 41.6538 189.58 47.5743 187.314C56.153 184.032 64.7707 180.858 73.5264 178.072C81.6677 175.481 89.9185 173.305 98.2841 171.577C103.174 170.567 108.082 169.648 112.984 168.695C113.621 168.572 114.264 168.466 114.908 168.393C115.835 168.287 116.32 168.663 116.48 169.568C116.505 169.715 116.491 169.87 116.519 170.016C116.671 170.818 117.094 171.411 117.914 171.601C118.542 171.747 119.187 171.87 119.829 171.901C122.235 172.019 124.631 171.83 127.008 171.49C136.07 170.193 144.954 168.077 153.754 165.588C155.191 165.181 156.594 164.641 157.989 164.104C158.636 163.855 159.253 163.502 159.841 163.129C160.746 162.555 161.215 161.698 161.242 160.62C161.255 160.071 161.215 159.519 161.245 158.97C161.292 158.121 161.702 157.699 162.542 157.614C164.978 157.368 167.416 157.144 169.851 156.884C171.888 156.667 173.921 156.413 175.956 156.173C178.139 155.916 180.322 155.649 182.506 155.399C185.782 155.022 189.06 154.661 192.337 154.283C195.166 153.958 197.996 153.633 200.823 153.282C203.45 152.954 206.075 152.603 208.698 152.242C211.173 151.903 213.647 151.56 216.116 151.181C219.226 150.703 222.332 150.202 225.433 149.674C226.065 149.567 226.702 149.36 227.274 149.074C227.7 148.861 228.114 148.505 228.375 148.108C228.694 147.624 228.889 147.036 228.626 146.335C228.335 146.367 228.044 146.372 227.767 146.435C221.725 147.817 215.624 148.868 209.486 149.711C205.179 150.302 200.873 150.895 196.556 151.398C193.032 151.807 189.492 152.083 185.959 152.42C181.083 152.884 176.209 153.364 171.331 153.811C167.199 154.189 163.098 154.802 158.997 155.424C158.857 155.445 158.726 155.52 158.487 155.609C158.487 155.983 158.507 156.372 158.484 156.758C158.432 157.604 158.383 158.452 158.287 159.294C158.148 160.508 157.523 161.474 156.531 162.139C155.749 162.662 154.901 163.113 154.033 163.478C151.77 164.429 149.386 165.002 147.003 165.549C141.404 166.837 135.759 167.892 130.089 168.808C127.724 169.19 125.348 169.585 122.935 169.482C122.291 169.454 121.641 169.372 121.011 169.236C119.458 168.899 118.314 167.978 117.513 166.625C117.234 166.153 116.998 165.655 116.715 165.12C116.443 165.12 116.148 165.076 115.869 165.126C106.771 166.751 97.7905 168.911 88.8194 171.111C81.2566 172.966 73.7163 174.925 66.3058 177.321C59.3732 179.563 52.4939 181.974 45.6003 184.336C40.1218 186.212 34.6762 188.18 29.374 190.522C28.2824 191.004 27.1982 191.505 26.0315 192.033C26.1298 192.274 26.1711 192.461 26.2709 192.608ZM9.7662 108.839C9.84422 110.987 9.94102 113.136 10.1113 115.278C10.3334 118.069 10.6035 120.855 10.9074 123.637C11.2 126.32 11.5264 129 11.903 131.671C12.3142 134.589 12.7929 137.498 13.2543 140.409C14.0841 145.639 15.0804 150.836 16.1819 156.016C18.0313 164.711 20.1884 173.331 22.6095 181.883C23.3298 184.427 24.1686 186.938 24.9624 189.461C25.0487 189.735 25.1957 189.991 25.3413 190.315C25.6781 190.19 25.9565 190.106 26.2184 189.986C32.76 186.982 39.523 184.551 46.3191 182.204C53.3477 179.777 60.353 177.28 67.4679 175.106C75.4441 172.669 83.5067 170.551 91.6149 168.613C97.5384 167.197 103.487 165.883 109.433 164.564C111.626 164.078 113.843 163.695 116.053 163.29C117.361 163.05 117.706 163.237 118.345 164.409C118.536 164.759 118.718 165.116 118.899 165.472C119.621 166.902 120.818 167.637 122.384 167.676C123.68 167.708 124.993 167.698 126.273 167.526C129.243 167.128 132.212 166.697 135.155 166.137C139.471 165.315 143.771 164.41 148.059 163.456C149.759 163.078 151.42 162.505 153.077 161.958C153.782 161.725 154.452 161.365 155.103 160.999C155.981 160.505 156.536 159.739 156.609 158.717C156.676 157.773 156.654 156.821 156.676 155.873C156.686 155.425 156.684 154.975 156.728 154.53C156.761 154.204 156.993 153.979 157.3 153.906C157.736 153.801 158.184 153.742 158.63 153.681C162.342 153.171 166.051 152.631 169.769 152.173C172.199 151.873 174.644 151.69 177.082 151.461C179.919 151.195 182.757 150.936 185.594 150.675C188.132 150.441 190.673 150.233 193.209 149.967C196.191 149.654 199.172 149.324 202.145 148.943C205.416 148.523 208.682 148.064 211.942 147.573C217.376 146.756 222.783 145.788 228.139 144.547C228.327 144.503 228.504 144.412 228.695 144.339C228.85 143.707 228.715 143.121 228.632 142.533C228.071 138.572 227.191 134.674 226.322 130.775C224.867 124.245 223.362 117.727 221.584 111.275C218.336 99.4851 215.16 87.6742 211.375 76.0404C210.912 74.6171 210.411 73.2058 209.896 71.7998C209.692 71.2394 209.416 70.7037 209.151 70.1672C208.577 69.0058 207.631 68.302 206.36 68.137C204.68 67.9194 202.994 67.683 201.204 67.8106C201.267 68.1347 201.304 68.4168 201.379 68.6884C203.842 77.5882 206.369 86.4715 208.756 95.3916C210.704 102.672 212.487 109.998 214.343 117.303C215.794 123.012 217.253 128.72 218.69 134.432C219.25 136.659 219.764 138.898 220.292 141.132C220.384 141.521 220.463 141.915 220.513 142.311C220.595 142.968 220.34 143.347 219.66 143.49C219.226 143.582 218.766 143.624 218.325 143.592C210.332 143.01 202.334 143.133 194.332 143.355C189.68 143.484 185.039 143.776 180.424 144.349C174.868 145.038 169.377 146.116 163.93 147.403C160.53 148.206 157.152 149.105 153.765 149.962C153.574 150.01 153.389 150.081 153.16 150.154C153.017 150.464 152.862 150.773 152.73 151.092C150.802 155.724 147.489 158.935 142.821 160.748C140.014 161.839 137.103 162.506 134.119 162.908C131.878 163.209 129.634 163.283 127.384 163.172C124.926 163.051 122.526 162.598 120.227 161.685C118.392 160.957 116.728 159.955 115.391 158.489C114.791 157.831 114.294 157.08 113.69 156.292C111.764 156.302 109.772 156.478 107.795 156.738C95.2515 158.392 83.1878 161.896 71.3724 166.318C59.5525 170.742 48.2758 176.296 37.465 182.803C36.7372 183.241 36.0237 183.705 35.2757 184.105C34.4804 184.53 33.9372 184.26 33.7234 183.378C31.5378 174.353 29.3005 165.339 27.472 156.233C25.7029 147.42 23.9667 138.601 22.2591 129.776C21.0549 123.55 19.9017 117.312 18.7688 111.072C18.1798 107.828 17.6839 104.568 17.1414 101.317C17.1182 101.178 17.0499 101.048 16.9689 100.819C16.7266 100.879 16.4895 100.905 16.2794 100.995C15.0407 101.524 13.7982 102.048 12.576 102.615C10.9509 103.368 9.97853 104.595 9.90276 106.446C9.87425 107.246 9.73769 108.045 9.7662 108.839Z" fill="#203B53"/>
<path d="M119.527 139.152C119.778 141.226 120.268 143.271 120.245 145.383C90.5947 140.058 53.5704 157.606 38.7646 167.045C38.7646 167.045 23.716 91.5786 23.5021 90.2326C23.229 88.5175 23.0159 86.7963 23.0302 85.085C24.0318 84.2867 24.5157 84.0338 25.7147 83.7615C30.7341 82.6218 35.6011 81.0109 40.3654 79.073C40.8711 78.8674 41.3985 78.7166 41.9162 78.5403C43.8197 78.4412 45.6504 77.9648 47.478 77.4674C51.2422 76.4432 54.8443 74.9584 58.4981 73.6154C62.0109 72.3242 65.5245 71.0367 69.1581 70.0921C70.9453 69.6277 72.7264 69.1528 74.5466 68.8512C75.8701 68.6321 77.1868 68.3365 78.5418 68.3567C78.7414 68.3597 78.9485 68.3755 79.1398 68.3305C81.3134 67.8195 83.5222 68.0476 85.7077 68.1061C87.4394 68.1527 89.1665 68.4918 90.8892 68.7431C93.666 69.1483 96.3227 70.0119 98.9712 70.9092C99.735 71.168 100.247 71.5859 100.617 72.3062C101.963 74.9344 103.168 77.6189 104.097 80.425C104.866 82.7471 105.692 85.0512 106.41 87.3891C107.407 90.634 108.342 93.8977 109.272 97.1622C110.092 100.043 110.874 102.933 111.661 105.823C112.985 110.687 114.33 115.546 115.61 120.422C116.674 124.475 117.679 128.545 118.419 132.674C118.806 134.83 119.264 136.979 119.527 139.152Z" fill="#FAE3B3"/>
<path d="M42.6826 78.0871C45.0925 77.0045 47.5196 75.9578 49.9183 74.8512C53.359 73.2636 56.7743 71.6197 60.2136 70.0269C62.9746 68.7477 65.8024 67.6297 68.688 66.6611C69.3933 66.4248 70.0985 66.1877 70.8038 65.9529C71.6936 65.6573 72.5834 65.3639 73.4733 65.069C73.9137 65.006 74.3616 64.9753 74.7938 64.874C75.8577 64.6241 76.9141 64.342 77.9727 64.0727C78.182 64.0164 78.3913 63.9601 78.5999 63.9039C78.7792 63.8814 78.9586 63.8581 79.1371 63.8356C79.438 63.8506 79.7389 63.8656 80.0397 63.8806C81.4487 63.594 82.8765 63.5527 84.3073 63.5512C86.0314 63.5497 87.7556 63.555 89.479 63.5572C89.9171 63.645 90.3553 63.8003 90.7957 63.8093C92.7997 63.8506 94.7722 64.162 96.7372 64.4973C99.493 64.9678 102.242 65.4967 104.867 66.4998C105.511 66.7459 106.111 67.1076 106.731 67.4167C106.84 67.7468 106.912 68.0949 107.063 68.404C108.116 70.5641 108.987 72.7969 109.713 75.0838C110.423 77.3204 111.157 79.5547 111.73 81.828C112.119 83.3668 112.792 84.8539 112.766 86.4895C112.764 86.6343 112.828 86.7814 112.869 86.9254C113.489 89.0847 114.076 91.2538 114.739 93.3996C115.992 97.4563 117.296 101.497 118.564 105.548C119.4 108.217 120.244 110.883 121.028 113.568C122.736 119.413 124.389 125.274 126.099 131.119C127.137 134.666 128.262 138.186 129.302 141.732C129.792 143.406 130.206 145.104 130.597 146.804C130.884 148.046 129.954 148.897 128.674 148.663C127.157 148.385 125.684 147.883 124.125 147.81C123.432 147.778 122.74 147.653 122.056 147.525C120.727 147.275 120.229 146.748 120.243 145.384C120.266 143.272 119.776 141.227 119.525 139.152C119.262 136.98 118.804 134.831 118.417 132.674C117.677 128.546 116.672 124.476 115.608 120.422C114.328 115.546 112.983 110.688 111.659 105.823C110.872 102.934 110.09 100.043 109.27 97.163C108.34 93.8978 107.405 90.6348 106.408 87.3898C105.69 85.052 104.864 82.7479 104.095 80.4258C103.166 77.6197 101.961 74.9352 100.615 72.307C100.245 71.5867 99.7331 71.1681 98.9693 70.9092C96.3208 70.0119 93.664 69.1483 90.8873 68.7432C89.1646 68.4918 87.4375 68.1527 85.7058 68.1062C83.5203 68.0477 81.3114 67.8196 79.1379 68.3305C78.9466 68.3755 78.7395 68.3598 78.5399 68.3568C77.1849 68.3365 75.8682 68.6321 74.5447 68.8512C72.7245 69.1528 70.9433 69.6277 69.1562 70.0922C65.5226 71.0368 62.009 72.3242 58.4962 73.6155C54.8424 74.9585 51.2403 76.4433 47.4761 77.4674C45.6484 77.9648 43.8177 78.4413 41.9143 78.5403C42.1709 78.388 42.4132 78.2079 42.6826 78.0871Z" fill="#FCEFD3"/>
<path d="M102.645 76.7261C102.461 76.7689 102.25 76.7141 102.054 76.6788C99.5435 76.2234 97.0082 75.9751 94.4626 75.8775C89.0095 75.6697 83.5805 75.9391 78.1725 76.7126C73.8081 77.3368 69.5556 78.3805 65.4268 79.9178C61.1134 81.5241 57.0439 83.6489 53.0224 85.866C50.2689 87.3838 47.5431 88.9527 44.7851 90.4622C41.1912 92.4295 37.4534 94.0898 33.6277 95.5514C33.209 95.7112 32.7836 95.8582 32.3545 95.9865C31.9035 96.1216 31.6327 96.0338 31.6004 95.7764C31.5599 95.4538 31.8 95.3555 32.0303 95.2625C32.3079 95.1507 32.5938 95.0607 32.8706 94.9489C34.4417 94.3119 36.0181 93.6862 37.5809 93.0289C41.9618 91.1877 46.0651 88.8094 50.2118 86.5105C53.2227 84.8419 56.2553 83.2085 59.3292 81.6592C63.3965 79.6087 67.6618 78.0766 72.099 77.0202C78.2055 75.5669 84.4156 75.0755 90.6669 74.9517C94.0259 74.8647 97.3534 75.2361 100.681 75.5947C101.373 75.6697 102.06 75.819 102.738 75.9818C102.875 76.0148 103.041 76.2654 103.042 76.4155C103.043 76.5243 102.802 76.6894 102.645 76.7261Z" fill="#203B53"/>
<path d="M109.644 110.311C109.46 110.354 109.249 110.299 109.053 110.263C106.542 109.808 104.007 109.56 101.462 109.462C96.0085 109.254 90.5795 109.524 85.1715 110.297C80.8071 110.921 76.5546 111.965 72.4258 113.502C68.1124 115.109 64.0429 117.234 60.0214 119.451C57.2679 120.968 54.5421 122.537 51.7841 124.047C48.1903 126.014 44.4524 127.674 40.6267 129.136C40.2081 129.296 39.7826 129.443 39.3535 129.571C38.9026 129.706 38.6317 129.618 38.5995 129.361C38.5589 129.038 38.799 128.94 39.0294 128.847C39.307 128.735 39.5928 128.645 39.8697 128.534C41.4408 127.897 43.0171 127.271 44.5799 126.614C48.9608 124.772 53.0641 122.394 57.2109 120.095C60.2217 118.427 63.2544 116.793 66.3283 115.244C70.3955 113.193 74.6609 111.661 79.098 110.605C85.2045 109.152 91.4146 108.66 97.6659 108.536C101.025 108.449 104.352 108.821 107.68 109.179C108.372 109.254 109.059 109.404 109.737 109.566C109.874 109.599 110.04 109.85 110.041 110C110.042 110.109 109.801 110.274 109.644 110.311Z" fill="#203B53"/>
<path d="M37.3946 107.261C38.7061 106.539 40.0303 105.84 41.3343 105.106C44.2049 103.492 47.0432 101.816 49.9378 100.245C54.9481 97.5261 60.1363 95.2175 65.6568 93.7154C68.6482 92.9014 71.6809 92.3117 74.766 91.968C74.9116 91.968 75.0714 91.935 75.2079 91.9778C75.3362 92.0175 75.4983 92.1143 75.541 92.2261C75.6251 92.4445 75.4818 92.6125 75.2687 92.6583C74.781 92.7633 74.2911 92.8661 73.7966 92.9276C70.6192 93.3208 67.5078 94.014 64.4429 94.9331C59.1099 96.532 54.1011 98.8743 49.249 101.567C46.2381 103.238 43.2655 104.978 40.2667 106.671C39.3986 107.161 38.5012 107.601 37.6107 108.05C37.4396 108.137 37.24 108.181 37.0495 108.207C36.9707 108.218 36.8259 108.146 36.8041 108.08C36.7621 107.954 36.7269 107.749 36.7951 107.68C36.9624 107.508 37.1808 107.379 37.3946 107.261Z" fill="#203B53"/>
<path d="M42.1936 145.561C43.379 144.821 44.56 144.068 45.7837 143.394C50.7865 140.635 56.0828 138.564 61.4975 136.781C64.8175 135.688 68.1592 134.67 71.5963 133.999C71.8371 133.951 72.0862 133.898 72.327 133.914C72.4373 133.921 72.5979 134.077 72.6241 134.19C72.6482 134.296 72.5536 134.509 72.4598 134.546C72.0922 134.693 71.7111 134.82 71.3232 134.9C67.598 135.663 63.9787 136.799 60.3901 138.028C54.2348 140.134 48.2461 142.616 42.7488 146.157C42.5875 146.261 42.3924 146.341 42.2048 146.364C42.09 146.378 41.9595 146.26 41.7329 146.151C41.9085 145.919 42.0105 145.675 42.1936 145.561Z" fill="#203B53"/>
<path d="M188.637 68.329C188.403 68.3891 188.141 68.3591 187.892 68.3403C186.846 68.2608 185.801 68.1445 184.754 68.0912C181.207 67.9104 177.677 67.5533 174.159 67.0918C169.058 66.4218 163.969 65.6671 158.873 64.9595C154.909 64.4096 150.93 64.0412 146.892 64.0404C142.961 63.9797 139.039 64.3361 135.164 65.1936C129.975 66.3423 125.225 68.4881 120.864 71.4982C119.344 72.5471 117.907 73.716 116.427 74.822C116.151 75.0283 115.853 75.2061 115.551 75.3727C115.503 75.3989 115.362 75.3141 115.305 75.2466C115.248 75.1813 115.192 75.0358 115.225 74.9878C115.392 74.7477 115.553 74.4813 115.78 74.308C117.407 73.064 119.008 71.7811 120.692 70.6196C127.773 65.7413 135.698 63.507 144.229 63.2256C148.636 63.0801 153.026 63.3689 157.394 63.9174C161.756 64.4651 166.106 65.0976 170.457 65.7271C174.909 66.3716 179.366 66.947 183.863 67.1849C185.26 67.2584 186.654 67.3889 188.049 67.4977C188.247 67.5135 188.463 67.5127 188.636 67.5945C188.797 67.6703 188.911 67.8459 189.045 67.9779C188.909 68.0995 188.792 68.2893 188.637 68.329Z" fill="#203B53"/>
<path d="M191.212 89.0037C187.212 88.4057 183.207 87.8445 179.218 87.1828C174.235 86.356 169.225 85.764 164.183 85.5314C156.726 85.1878 149.309 85.5292 141.946 86.9164C135.478 88.1349 129.274 90.0856 123.399 93.0635C123.133 93.1985 122.872 93.3861 122.589 93.4349C122.411 93.4656 122.196 93.2818 121.984 93.188C122.09 93.017 122.123 92.9014 122.198 92.8526C122.574 92.6118 122.946 92.3605 123.346 92.1631C128.152 89.787 133.156 87.9766 138.398 86.8077C144.612 85.4219 150.894 84.6656 157.258 84.5718C161.31 84.5118 165.348 84.7346 169.384 85.0858C172.92 85.3934 176.438 85.848 179.93 86.4535C183.72 87.11 187.524 87.6525 191.334 88.1642C191.764 88.2219 192.275 88.1394 192.476 88.6766C192.596 88.9985 192.122 89.1395 191.212 89.0037Z" fill="#203B53"/>
<path d="M130.724 59.8091C128.793 59.6329 127.012 59.8293 125.31 60.6343C122.495 61.9649 120.706 64.6422 119.633 67.6568L119.178 68.9341L118.338 67.8697C116.946 66.1059 115.381 64.729 113.361 63.8834C110.92 62.8617 108.257 62.9274 105.807 63.9527C103.264 65.0168 101.165 66.942 100.134 69.4732C99.0144 72.2223 99.4476 74.838 100.599 77.6353L101.074 78.7916L99.8311 78.6666C98.8458 78.568 97.9441 78.592 96.9814 78.7632C94.5877 79.1896 92.3775 80.4265 91.0537 82.4234C89.8596 84.2248 89.4609 86.5917 89.96 88.7056V88.7066C90.6259 91.5272 92.6792 93.3826 95.2109 94.9664L96.0215 95.4742L95.335 96.1412C94.3572 97.0904 93.5486 98.0079 92.9365 99.149V99.15C92.8668 99.2794 92.8003 99.41 92.7373 99.5425L92.5576 99.9459C92.501 100.082 92.4479 100.219 92.3984 100.357C92.3487 100.496 92.3025 100.636 92.2598 100.776C92.2173 100.916 92.1778 101.058 92.1416 101.201V101.202C92.1058 101.345 92.0731 101.488 92.0449 101.631V101.632C92.0162 101.777 91.991 101.922 91.9697 102.067C91.9483 102.213 91.93 102.359 91.916 102.504V102.506L91.8848 102.947C91.8781 103.094 91.8747 103.241 91.875 103.388C91.8753 103.535 91.8791 103.681 91.8867 103.829C91.8943 103.975 91.9059 104.122 91.9209 104.269C91.9359 104.416 91.9543 104.562 91.9766 104.707L91.9775 104.709C91.9994 104.853 92.0252 104.997 92.0547 105.14V105.142C92.084 105.287 92.1169 105.429 92.1533 105.571C92.1899 105.713 92.2295 105.853 92.2725 105.992C92.9602 108.166 94.6488 109.988 96.7031 111.033C98.9821 112.192 101.95 112.412 104.358 111.553C106.05 110.95 107.177 109.911 107.949 108.293L108.592 106.946L109.289 108.264C110.239 110.06 111.284 111.595 112.667 113.044C113.935 114.172 115.315 115.013 116.891 115.563L117.21 115.669C120.003 116.56 122.897 116.463 125.469 115.119C128.562 113.502 130.295 110.631 131.35 107.231L131.694 106.119L132.564 106.893C134.12 108.278 135.642 109.618 137.431 110.343C139.573 111.211 142.095 111.189 144.181 110.221C145.961 109.395 147.382 107.878 147.978 106.026C148.721 103.713 148.036 101.719 146.899 99.4283L146.577 98.7789L147.214 98.4351C151.341 96.203 154.928 94.044 156.515 89.7369C157.538 86.9597 157.494 84.1802 156.378 81.4927L156.141 80.9556C154.824 78.1607 152.312 75.6743 149.427 74.6773C146.62 73.707 144.282 74.3324 141.567 75.6685L140.476 76.2056L140.486 74.9888C140.521 71.1067 139.869 67.0073 137.72 63.8648C136.036 61.4039 133.679 60.3462 130.724 59.8091Z" fill="#F0EBEB" stroke="#203B53" stroke-width="1.5"/>
<path d="M113.877 95.9722C111.712 94.4116 109.448 93.3862 106.841 93.1467C102.537 92.7514 98.5337 94.6912 95.1744 97.4952L94.1334 98.3641L93.9509 97.0206C93.535 93.9711 92.6431 91.2376 90.8308 88.8113C88.6363 85.8743 85.413 84.0819 81.7777 83.5808C78.013 83.0621 74.1606 83.8737 71.1482 86.1678C67.8682 88.6656 66.5536 92.098 65.9666 96.1931L65.7896 97.4311L64.781 96.6922C63.8172 95.9856 62.8612 95.4328 61.7879 94.9889L61.3199 94.8058C58.1752 93.6335 54.6629 93.5467 51.6618 95.0043C48.9571 96.318 46.8119 98.8658 45.918 101.747C44.7212 105.602 45.8805 109.265 47.7582 112.879L48.2005 113.728L47.2694 113.953C45.4613 114.391 43.8539 114.912 42.3186 115.844L42.3181 115.845C42.1435 115.95 41.972 116.06 41.8032 116.173C41.6337 116.288 41.4677 116.405 41.3054 116.527L41.3049 116.528C41.1414 116.651 40.9808 116.777 40.8242 116.907C40.6675 117.037 40.5147 117.171 40.3651 117.308L40.3646 117.309C40.2149 117.447 40.068 117.588 39.9241 117.733L39.9236 117.734C39.7803 117.879 39.6406 118.027 39.5057 118.179L39.5052 118.18C39.3691 118.332 39.2367 118.487 39.1091 118.646C38.9807 118.805 38.8572 118.967 38.7379 119.131L38.736 119.132C38.6761 119.214 38.6177 119.297 38.5599 119.381L38.3886 119.634C38.2771 119.805 38.1699 119.979 38.0665 120.155C37.9637 120.331 37.8651 120.508 37.7707 120.689C37.6766 120.87 37.5862 121.053 37.501 121.239C37.4157 121.424 37.3358 121.612 37.2601 121.801L37.2591 121.803C37.1833 121.991 37.1119 122.181 37.0462 122.373L37.0465 122.375C36.9799 122.568 36.9178 122.762 36.8616 122.957C36.8048 123.154 36.7533 123.351 36.7067 123.548C35.9961 126.639 36.7342 130.001 38.4475 132.689C40.3504 135.674 43.7295 138.02 47.2093 138.692C49.6738 139.168 51.7775 138.714 53.8517 137.319L55.0884 136.487L55.0196 137.976C54.8909 140.752 55.0571 143.293 55.6836 145.972C56.4462 148.345 57.5909 150.426 59.2422 152.273C61.9324 155.283 65.4465 157.205 69.4597 157.412C74.2859 157.661 78.3544 155.455 81.9561 152.187L82.8181 151.404L83.1741 152.513C84.035 155.194 84.902 157.854 86.5255 159.977C88.4735 162.522 91.5033 164.276 94.6845 164.591C97.4014 164.861 100.184 164.05 102.216 162.244C104.76 159.982 105.339 157.087 105.589 153.615L105.641 152.893L106.365 152.92C112.718 153.158 118.495 153.121 123.402 149.114C126.773 146.362 128.709 142.751 129.112 138.421C129.504 134.19 128.266 129.479 125.528 126.263C122.849 123.116 119.602 122.223 115.478 121.909L114.265 121.817L114.893 120.775C117.619 116.245 119.713 110.953 119.36 105.723C119.081 101.587 116.996 98.6646 113.877 95.9722Z" fill="white" stroke="#203B53" stroke-width="1.5"/>
<path d="M55.9595 98.9474C57.6704 89.6759 58.5259 85.0401 61.9377 82.6913C65.3495 80.3425 69.9853 81.1979 79.2568 82.9088L157.929 97.4263C167.2 99.1372 171.836 99.9926 174.185 103.404C176.533 106.816 175.668 111.507 173.937 120.887C172.232 130.126 171.38 134.746 168.027 137.095C164.675 139.444 160.096 138.678 150.938 137.145L72.0244 123.939C62.583 122.359 57.8623 121.569 55.4571 118.137C53.0519 114.704 53.9204 109.997 55.6576 100.584L55.9595 98.9474Z" fill="#203B53"/>
<path d="M55.6617 95.1281C57.0059 85.2243 57.6779 80.2724 61.2064 77.7613C64.7349 75.2502 69.6337 76.2375 79.4313 78.2121L159.751 94.3992C168.466 96.1557 172.824 97.0339 175.118 100.257C177.411 103.48 176.814 107.885 175.618 116.695L175.353 118.643C174.009 128.546 173.337 133.498 169.809 136.009C166.28 138.52 161.382 137.533 151.584 135.559L71.2644 119.371C62.5491 117.615 58.1914 116.737 55.8977 113.514C53.6039 110.291 54.2017 105.886 55.3974 97.0759L55.6617 95.1281Z" fill="#30A0A6"/>
<path d="M103.68 103.059L103.275 105.254L97.5634 104.2L97.9684 102.005L103.68 103.059ZM101.174 104.867L101.932 103.274C103.144 103.497 104.12 103.848 104.862 104.327C105.619 104.808 106.148 105.378 106.45 106.035C106.754 106.677 106.836 107.384 106.693 108.155C106.418 109.65 105.662 110.657 104.427 111.178C103.195 111.683 101.572 111.749 99.558 111.378C99.1647 111.305 98.7349 111.209 98.2687 111.091C97.8153 110.991 97.3598 110.858 96.9023 110.692C96.4605 110.529 96.0531 110.357 95.6801 110.174C94.9585 109.764 94.6586 109.229 94.7806 108.568L96.919 96.9796C96.9713 96.6963 97.0906 96.4906 97.277 96.3623C97.482 96.2211 97.7255 96.1359 98.0075 96.1066C98.5744 96.0322 99.2177 96.0289 99.9373 96.0966C100.66 96.1486 101.399 96.2443 102.154 96.3837C104.042 96.7321 105.444 97.3325 106.361 98.185C107.278 99.0375 107.611 100.14 107.361 101.493C107.228 102.217 106.906 102.817 106.395 103.292C105.903 103.754 105.228 104.061 104.37 104.212C103.528 104.366 102.51 104.332 101.314 104.111L101.391 102.637C102.256 102.797 102.933 102.743 103.422 102.475C103.91 102.207 104.213 101.759 104.329 101.129C104.442 100.515 104.284 100.006 103.854 99.6016C103.428 99.1812 102.726 98.881 101.751 98.701C101.357 98.6284 100.977 98.5744 100.609 98.5391C100.242 98.5038 99.9275 98.4865 99.667 98.4873L97.8335 108.424C98.1179 108.557 98.4696 108.679 98.8887 108.789C99.3077 108.899 99.7217 108.992 100.131 109.067C101.106 109.247 101.901 109.215 102.516 108.97C103.149 108.713 103.534 108.215 103.671 107.475C103.795 106.798 103.646 106.242 103.222 105.806C102.801 105.354 102.118 105.041 101.174 104.867ZM114.734 114.227C113.491 113.997 112.462 113.58 111.646 112.974C110.833 112.352 110.267 111.588 109.946 110.683C109.64 109.781 109.589 108.779 109.792 107.677L110.106 105.978L113.08 106.527L112.788 108.108C112.602 109.115 112.734 109.945 113.183 110.597C113.651 111.237 114.317 111.636 115.183 111.796C116.032 111.953 116.79 111.816 117.455 111.385C118.123 110.939 118.55 110.213 118.736 109.206L119.027 107.624L122.025 108.177L121.711 109.877C121.508 110.978 121.095 111.894 120.472 112.625C119.849 113.356 119.047 113.867 118.066 114.158C117.103 114.436 115.993 114.459 114.734 114.227ZM112.927 107.353L109.954 106.804L111.495 98.4491C111.627 98.4409 111.823 98.4364 112.084 98.4356C112.36 98.4378 112.632 98.4635 112.899 98.5129C113.466 98.6174 113.856 98.7952 114.07 99.0462C114.287 99.2814 114.346 99.6666 114.247 100.202L112.927 107.353ZM121.868 109.027L118.871 108.474L120.417 100.095C120.548 100.087 120.752 100.084 121.029 100.086C121.305 100.088 121.577 100.114 121.844 100.164C122.395 100.265 122.777 100.441 122.991 100.692C123.224 100.931 123.291 101.317 123.192 101.852L121.868 109.027ZM131.554 111.986L128.911 111.498C128.599 110.806 128.267 110.045 127.916 109.216C127.584 108.373 127.254 107.515 126.927 106.641C126.6 105.768 126.292 104.922 126.004 104.104C125.734 103.273 125.514 102.525 125.345 101.859C125.527 101.665 125.763 101.489 126.052 101.331C126.357 101.175 126.707 101.134 127.1 101.207C127.541 101.288 127.876 101.456 128.105 101.709C128.351 101.966 128.553 102.37 128.712 102.92C128.86 103.354 129.016 103.83 129.18 104.348C129.361 104.87 129.538 105.407 129.713 105.96C129.89 106.497 130.061 107.025 130.226 107.543C130.394 108.046 130.546 108.497 130.684 108.897L130.802 108.918C131.375 108.194 131.897 107.526 132.368 106.913C132.858 106.288 133.331 105.659 133.79 105.028C134.248 104.397 134.721 103.727 135.21 103.02C135.416 102.961 135.641 102.929 135.886 102.926C136.134 102.906 136.368 102.917 136.588 102.957C136.997 103.033 137.315 103.205 137.542 103.475C137.769 103.745 137.844 104.084 137.769 104.493C137.737 104.666 137.587 104.948 137.32 105.338C137.071 105.715 136.696 106.207 136.193 106.814C135.691 107.421 135.051 108.157 134.273 109.022C133.514 109.874 132.607 110.862 131.554 111.986ZM128.982 110.315L131.909 110.855L130.816 116.779C130.681 116.803 130.477 116.806 130.204 116.789C129.943 116.789 129.687 116.766 129.436 116.72C128.853 116.613 128.463 116.435 128.265 116.187C128.067 115.939 128.014 115.563 128.107 115.059L128.982 110.315Z" fill="white"/>
<path d="M159.275 149.22C160.233 149.305 161.092 149.207 161.905 148.826C163.254 148.194 164.138 146.908 164.681 145.398L165.135 144.132L165.973 145.185C166.673 146.065 167.443 146.731 168.426 147.139C169.606 147.629 170.897 147.6 172.095 147.103C173.348 146.583 174.364 145.651 174.859 144.444C175.392 143.147 175.199 141.902 174.617 140.501L174.137 139.342L175.385 139.466C175.869 139.514 176.306 139.503 176.773 139.42C177.949 139.213 179.006 138.615 179.631 137.681C180.161 136.889 180.362 135.855 180.189 134.907L180.15 134.718C179.837 133.403 178.869 132.509 177.572 131.705L176.752 131.196L177.447 130.527C177.946 130.047 178.337 129.602 178.631 129.059L178.632 129.058C178.665 128.997 178.697 128.935 178.728 128.872C178.758 128.808 178.787 128.744 178.813 128.68L178.813 128.679C178.841 128.614 178.867 128.548 178.891 128.483C178.915 128.417 178.937 128.351 178.957 128.284L179.014 128.08C179.031 128.012 179.046 127.945 179.06 127.878L179.06 127.877C179.073 127.808 179.086 127.738 179.096 127.67C179.106 127.6 179.114 127.53 179.121 127.461L179.121 127.461L179.137 127.251C179.14 127.181 179.142 127.111 179.142 127.041C179.141 126.971 179.139 126.902 179.136 126.832C179.132 126.762 179.126 126.692 179.119 126.622C179.112 126.552 179.103 126.482 179.093 126.414L179.092 126.413C179.081 126.344 179.07 126.275 179.056 126.208L179.055 126.207C179.041 126.138 179.025 126.069 179.008 126.003C178.99 125.935 178.971 125.869 178.951 125.804C178.626 124.786 177.819 123.913 176.82 123.41C175.716 122.853 174.268 122.747 173.105 123.158L173.105 123.159C172.313 123.439 171.799 123.909 171.437 124.662L170.795 125.995L170.099 124.689C169.619 123.79 169.095 123.03 168.408 122.313C167.739 121.724 167.013 121.298 166.175 121.033C164.793 120.596 163.382 120.649 162.137 121.294C160.641 122.07 159.781 123.453 159.247 125.161L158.901 126.264L158.034 125.5C157.214 124.776 156.466 124.127 155.6 123.779C154.569 123.365 153.354 123.377 152.359 123.835L152.358 123.836C151.512 124.225 150.846 124.936 150.569 125.788C150.229 126.839 150.527 127.756 151.112 128.925L151.438 129.577L150.796 129.921C148.634 131.081 146.886 132.143 146.111 134.228C145.576 135.669 145.636 137.1 146.294 138.486C146.945 139.856 148.186 141.067 149.588 141.547C150.923 142.005 152.037 141.725 153.417 141.051L154.507 140.52L154.496 141.733C154.478 143.708 154.815 145.74 155.875 147.276C156.675 148.435 157.794 148.951 159.275 149.22Z" fill="#F0EBEB" stroke="#203B53" stroke-width="1.5"/>
</svg>
