<svg width="238" height="241" viewBox="0 0 238 241" fill="none" xmlns="http://www.w3.org/2000/svg">
<path d="M146.342 36.0101C148.432 36.9336 149.49 38.5863 150.425 40.6703C156.171 42.2909 161.714 44.3612 167.282 46.5365C168.821 45.3267 170.503 43.6975 172.497 43.4711C173.749 43.3287 174.553 43.5712 175.533 44.3578L175.638 45.4633C174.784 47.9201 173.424 48.5637 171.311 49.7094C172.456 50.148 173.895 50.5407 174.95 51.1644C176.093 51.8402 176.076 52.1735 176.491 53.4213L176.42 53.6049C177.225 55.2361 179.034 55.8544 180.545 56.6478C180.612 56.5845 180.68 56.5214 180.746 56.4564C181.805 55.4177 182.894 54.172 184.273 53.6107C185.494 53.1145 186.332 53.261 187.51 53.7523C187.895 54.4643 188.078 54.619 188.084 55.475C188.1 57.7588 186.285 59.2761 184.895 60.8168L190.294 66.7123C191.738 66.2366 193.316 65.5351 194.815 66.1556C195.727 66.5326 196.234 67.0232 196.402 68.0512C196.621 69.391 195.729 70.595 195.071 71.6517C197.206 74.3958 210.557 91.4249 210.985 92.7806C210.794 93.9008 210.809 94.1802 210.093 95.0131L209.181 94.9847C206.735 93.7033 205.368 91.5417 203.953 89.2191C205.812 95.927 208.059 103.14 209.061 110.028C209.58 113.6 207.901 118.05 209.257 121.393C210.081 122.087 210.608 122.397 211.002 123.463C210.712 125.45 209.691 127.267 209.497 129.215C209.233 131.87 209.335 134.595 209.073 137.272C207.47 153.627 203.366 168.786 194.111 182.355C183.633 197.72 161.022 213.704 144.146 220.216C136.166 223.296 127.797 224.953 119.433 226.412C118.189 228.245 116.71 230.111 114.687 231.002C113.146 230.605 112.871 229.338 111.687 228.349C110.135 227.052 107.96 227.57 106.096 227.706C103.223 227.791 100.331 227.587 97.4746 227.285C76.6497 225.085 60.6891 216.87 47.4385 199.932L44.1338 203.08C42.7453 202.224 41.1484 201.359 40.8008 199.554C40.2992 196.956 42.4079 194.177 43.6377 192.084C42.9521 191.269 39.7519 186.801 38.873 186.806C38.0129 186.813 37.2139 187.556 36.3135 187.291C35.3673 187.013 34.6392 186.249 34.2324 185.329C33.5526 183.797 35.0467 180.901 35.6074 179.433C34.1297 176.647 33.0374 173.847 31.9648 170.867C31.3402 171.578 30.733 172.233 29.8857 172.658C28.9237 173.141 27.943 173.016 26.9707 172.675C26.5158 172.237 26.1357 171.844 25.8877 171.239C24.2623 167.262 26.3643 164.799 27.6572 161.281C28.0592 160.186 28.1897 159.613 27.791 158.522C26.7737 157.821 25.9582 157.229 25.1826 156.221C24.8407 154.364 25.525 152.965 26.1719 151.281C25.9049 150.369 25.7976 149.978 25.1396 149.269C24.3674 148.436 24.7813 149.012 24.1465 148.107C23.1182 146.639 24.0203 143.346 24.2842 141.64C22.6533 143.187 21.6698 144.823 20.3564 146.627C19.524 147.771 18.7861 148.229 17.4443 148.447C16.7059 147.917 16.2394 147.672 16.0498 146.667C15.3334 142.856 22.5173 136.281 24.4941 133.17C26.9053 129.375 26.6892 122.765 28.0176 118.337C30.9999 108.397 36.0544 98.1438 41.6992 89.5922C57.4663 65.7052 80.4007 46.5974 107.983 40.4672C117.105 38.4401 126.359 38.3207 135.47 36.556C136.748 36.398 137.743 36.3707 138.78 37.2719C142.692 40.6709 142.205 35.7542 146.342 36.0101ZM142.365 184.213C136.431 189.897 131.046 196.206 125.272 202.068C120.312 207.104 114.911 211.721 110.165 216.975C109.23 218.009 107.183 219.993 107.072 221.401C107.067 221.469 107.083 221.539 107.089 221.608L114.208 221.632C118.075 215.161 141.535 187.968 142.365 184.213ZM134.384 169.778C124.771 180.769 115.732 191.901 105.136 201.942C101.016 205.846 89.8877 214.712 87.7109 219.447C88.1261 220.111 87.8469 219.934 88.4795 220.083C91.1967 220.741 93.8539 221.165 96.6445 221.317C100.746 214.677 105.111 208.228 109.735 201.973C113.106 197.392 134.418 172.591 134.384 169.778ZM165.96 187.776C158.211 193.195 150.719 198.979 143.485 205.123C138.222 209.655 133.208 214.51 127.704 218.73C130.705 217.938 133.568 217.034 136.461 215.884C146.61 211.276 153.211 204.255 161.133 196.428C163.308 194.278 166.213 192.066 168.007 189.597C167.256 190.121 164.502 192.426 163.807 192.422C164.764 191.196 166.465 189.779 166.778 188.289C166.084 187.791 166.383 187.898 165.96 187.776ZM123.424 159.883C120.194 163.981 116.992 168.119 113.467 171.949C108.491 177.353 74.8899 211.231 73.7383 213.999C74.3008 214.834 73.9506 214.479 74.8086 215.045L79.4209 217.041C82.9845 211.198 86.8499 205.789 91.0762 200.449C95.66 194.656 122.945 164.105 123.424 159.883ZM122.038 137.239C118.377 141.651 114.748 146.115 110.971 150.419C104.366 157.943 62.5946 203.622 61.8008 206.658C62.1812 207.496 62.5967 207.973 63.2334 208.616L64.7168 209.64C66.539 209.098 69.6281 203.781 70.9365 201.98C75.576 195.606 80.4225 189.41 85.4766 183.388C91.1645 176.556 119.795 143.743 121.954 138.245C122.08 137.924 122.101 137.574 122.038 137.239ZM119.022 119.577C113.009 124.378 104.939 134.289 99.3896 140.329C84.6139 156.413 63.071 177.909 51.6494 196.078C51.8428 196.813 52.0551 197.399 52.4111 198.065C54.3706 197.349 63.5929 183.411 65.6523 180.629C70.0776 174.651 75.2887 169.031 80.2061 163.485C88.6203 154.062 97.0864 144.689 105.603 135.366C108.483 132.199 117.392 123.458 118.892 120.37C119.092 119.957 119.043 120.022 119.022 119.577ZM100.486 115.469C98.4491 116.991 96.7097 118.877 94.9141 120.692C94.3478 120.221 93.6313 119.328 92.8906 119.419C89.969 119.78 88.3521 123.669 85.9932 125.226C84.9098 126.458 83.8382 127.702 82.7793 128.956C79.5564 131.567 77.3206 133.821 75.1133 137.407C74.7109 137.878 74.375 138.339 74.0664 138.882C70.65 144.895 65.0599 149.607 60.7012 154.947C54.0849 163.195 48.0017 171.853 42.4541 180.916C43.7807 182.554 44.8152 184.323 45.8828 186.146C55.9118 165.788 72.0516 148.672 86.6982 131.87C90.4726 127.538 98.1149 120.198 100.486 115.469ZM64.2236 134.435C53.9515 144.087 44.4181 154.305 35.8242 165.631L37.4717 171.095C38.5584 170.812 39.3433 168.804 39.9277 167.795C44.3962 160.08 49.2021 152.953 54.7959 146.084C57.8461 142.34 61.905 138.655 64.374 134.523L64.2236 134.435ZM202.29 122.703C198.559 127.58 170.799 167.363 170.814 169.539L171.17 169.488C175.728 164.391 197.869 134.215 200.76 132.953L202.079 133.191C203.374 131.416 203.209 126.437 202.947 124.265C202.853 123.482 202.822 123.286 202.29 122.703ZM200.076 151.258C198.764 152.378 197.228 153.409 197.11 155.328C197.063 156.112 197.349 156.372 197.707 157.017C199.155 155.427 199.962 153.77 200.32 151.608L200.076 151.258ZM200.582 104.198C195.953 109.993 162.542 154.324 162.179 155.999L162.844 155.646C172.331 147.413 183.796 131.345 192.259 121.231C195.391 117.488 199.329 114.445 202.347 110.644C202.036 108.84 201.907 105.82 200.928 104.333L200.582 104.198ZM195.738 85.6957C193.708 89.6323 191.502 93.3554 189.012 96.9916C185.312 102.392 150.399 149.584 150.615 151.318L151.819 150C164.034 135.28 175.296 119.684 188.103 105.512C191.539 101.709 195.041 97.4097 199.106 94.3314C198.271 91.957 197.3 87.4959 195.738 85.6957ZM50.4922 114.613C43.7054 122.157 36.4895 129.512 30.1514 137.459C30.7816 140.483 31.0592 143.384 31.2519 146.465C32.4176 145.575 48.4636 118.821 50.6162 115.078L50.4922 114.613ZM190.602 75.8363C185.882 82.9558 180.019 89.4884 174.689 96.1322C167.501 105.094 161.022 114.41 154.453 123.86C151.798 127.678 148.778 131.203 146.378 135.207L146.549 135.4C147.132 134.893 147.722 134.399 148.267 133.848C157.434 122.942 166.01 111.528 175.381 100.802C181.418 93.8928 188.951 87.5369 194.081 79.8959C192.998 78.3796 192.042 77.0178 190.602 75.8363ZM182.281 66.2679C178.013 72.1813 148.669 104.301 148.25 108.34C148.809 107.867 149.37 107.415 149.884 106.889C158.415 97.0879 167.071 87.5895 176.44 78.641C179.566 75.6558 182.75 72.3314 186.324 69.9388C185.046 68.6116 183.848 67.2274 182.281 66.2679ZM171.952 57.6986C168.967 60.571 166.067 63.535 163.253 66.5892C159.625 70.5778 130.708 103.585 130.013 105.788C130.847 105.56 131.185 105.293 131.798 104.665C140.178 95.4981 166.751 65.4516 175.709 60.7094L171.952 57.6986ZM92.582 90.639C91.7419 91.2101 91.3382 91.6661 90.7871 92.5521C90.7129 92.672 90.2861 93.4002 90.167 93.517C89.2222 94.4474 88.9296 93.3622 87.8086 93.5414C87.7646 94.7218 88.0095 95.5417 88.375 96.6351L88.5195 97.058L88.0801 97.0306L88.0801 97.0267L87.1611 96.2816C85.9131 96.5394 84.7843 97.8216 84.0908 98.8871C83.313 100.081 82.7983 101.306 83.0645 102.753C83.904 102.884 84.1143 102.557 84.7959 102.047C85.3971 101.597 85.9742 101.104 86.54 100.596L88.2178 99.058C90.189 97.886 92.5991 96.1187 93.8809 94.1527C94.5328 93.1541 94.586 92.6342 94.3936 91.4789C93.6442 90.87 93.5148 90.7583 92.582 90.639ZM81.5879 55.766C64.6469 67.6418 50.5027 81.5651 40.4043 100.288C40.495 100.948 40.3501 100.754 40.5947 101.005C48.9764 90.6708 57.3858 80.4646 66.6084 70.9144C71.5475 65.7995 76.9752 61.2071 81.9033 56.098L81.5879 55.766ZM141.355 45.8334C131.558 54.0751 122.043 62.5279 112.551 71.1449C105.887 77.1934 99.1744 83.1235 93.0859 89.8138C94.1029 90.8039 95.1974 92.1985 96.6279 92.3558C98.2182 91.9385 99.5689 90.3168 100.771 89.1918C111.89 79.7274 123.257 70.5975 134.87 61.8031C140.919 57.1407 146.8 52.2355 153.269 48.2035C149.572 46.5829 145.35 45.9354 141.355 45.8334ZM132.542 44.6478C131.364 43.8186 129.466 43.921 128.057 44.0082C125.341 44.13 122.619 44.2935 119.901 44.347C120.516 45.7015 120.962 46.2664 120.793 47.7767C118.955 50.3319 116.492 52.3962 114.295 54.6156C110.282 58.7431 106.212 62.8113 102.094 66.8236C100.719 68.1585 98.9397 69.4431 97.7187 70.8793C97.2097 71.4777 97.0755 72.1726 96.9336 72.931C95.6895 73.005 95.5401 72.8668 94.6621 73.7562C94.4133 74.6484 94.2039 75.5188 94.0049 76.4242C93.8383 77.1795 93.6586 77.4158 93.1455 77.9447L92.5488 77.7914L91.8145 76.3929C90.9355 76.4349 90.3243 76.9265 89.7676 77.6654C88.9559 78.7433 88.9879 80.224 88.9082 81.5316L88.2881 82.3783C87.468 81.8947 87.8309 82.2146 87.2178 81.389C84.8192 82.9361 81.4105 86.9968 79.7568 89.4261C80.1572 90.3931 80.3313 90.4016 81.2197 90.9398L81.8906 90.8734L81.3301 88.9896L81.6455 88.6888C82.1374 88.9719 82.5388 89.2382 82.9873 89.5804L83.1387 89.5697L83.7559 88.3461C84.5038 88.3354 84.147 88.261 84.8291 88.556C85.3775 87.2599 84.662 85.8659 85.1113 84.6644C85.4746 85.6085 85.8526 86.5248 86.2783 87.4408L86.7949 87.4369L87.3115 86.64C87.1253 85.9107 86.3995 84.192 86.5869 83.5287C87.2706 84.1384 87.583 84.6957 87.999 85.5209L88.1035 85.0765L88.2041 85.7933C90.9992 84.1662 96.1423 78.3248 98.8291 75.8119C104.903 70.1114 111.009 64.4444 117.144 58.8138C121.032 55.305 130.023 48.749 132.542 44.6478ZM159.193 50.6859C152.108 59.5123 143.262 67.3037 135.307 75.3021C132.654 77.9688 129.66 80.6049 127.353 83.5844L128.892 82.7377C135.235 76.849 141.46 70.8458 147.924 65.097C152.492 61.0345 157.66 57.2116 161.76 52.6576L161.776 51.9096C160.917 51.0877 160.294 50.9648 159.193 50.6859ZM114.087 45.4349C113.309 44.9207 113.224 45.1067 112.35 45.2211C110.925 45.4736 109.476 45.6798 108.062 45.9867C102.869 52.4442 97.0003 57.7543 91.002 63.3558C87.2868 66.8249 83.1504 70.4331 80.1562 74.6058L80.2129 75.0326L81.5078 74.0785C87.2544 67.048 97.8213 58.3511 104.958 52.5873C107.487 50.5446 112.286 48.0413 114.087 45.4349Z" fill="#54E6ED"/>
<path d="M65.6136 153.711L66.196 153.954L66.4558 154.642L66.794 154.769C66.4661 162.381 66.3186 169.907 66.7963 177.52C66.321 177.414 65.9143 177.259 65.458 177.09C65.0566 172.036 64.1846 158.223 65.6136 153.711Z" fill="#203B53"/>
<path d="M65.5764 201.273C65.5694 201.194 65.403 200.721 65.348 200.681C65.1852 200.563 64.2288 200.512 63.9708 200.465C60.7579 199.882 57.8967 198.401 55.9234 195.734C54.0064 193.143 53.3862 189.709 53.9581 186.571C54.5617 183.26 56.4348 179.881 59.2977 178.032C61.2317 176.782 63.2491 176.572 65.458 177.089C65.9142 177.259 66.3209 177.413 66.7962 177.519C69.7206 178.338 72.1895 180.037 73.7416 182.696C74.9952 184.844 75.4771 187.21 75.708 189.66C75.4624 192.733 74.6924 195.059 73.2178 197.741C71.4003 199.304 69.4853 200.532 66.988 200.51L65.9869 200.65C65.8377 200.855 65.6834 201.043 65.5764 201.273Z" fill="#203B53"/>
<path d="M62.9812 178.575C65.2537 178.62 67.2475 179.118 69.1322 180.443C71.6598 182.221 73.2699 184.996 73.7894 188.023C74.2557 190.739 73.8933 193.748 72.255 196.03C70.8393 198.001 68.9169 198.844 66.5906 199.244C64.6046 199.278 62.8002 199.089 60.9999 198.179C60.8469 198.102 60.6955 198.022 60.5468 197.937C60.3976 197.852 60.251 197.764 60.1071 197.671C59.9626 197.579 59.8208 197.483 59.6816 197.383C59.5423 197.283 59.4057 197.18 59.2717 197.074C59.1376 196.966 59.0067 196.856 58.8788 196.743C58.7504 196.629 58.6255 196.512 58.5032 196.392C58.381 196.272 58.2622 196.149 58.1465 196.022C58.0308 195.896 57.9186 195.766 57.8099 195.634C57.7013 195.502 57.5956 195.366 57.4939 195.228C57.3922 195.091 57.2941 194.95 57.1993 194.808C57.1046 194.664 57.0143 194.519 56.9271 194.371C56.8403 194.224 56.7569 194.074 56.678 193.922C56.599 193.77 56.5235 193.616 56.4525 193.46C56.3814 193.304 56.3142 193.146 56.2514 192.987C56.1886 192.828 56.1297 192.667 56.0752 192.505C56.0207 192.342 55.9705 192.178 55.9247 192.013C55.0745 189.021 55.5815 185.422 57.1841 182.753C58.5374 180.501 60.4618 179.198 62.9812 178.575Z" fill="#F8CEB3"/>
<path d="M71.2888 187.339C71.6303 187.647 71.534 187.499 71.7357 187.962C72.2743 189.197 72.2058 190.639 71.6393 191.844C70.6814 193.884 68.7182 195.581 66.5888 196.291C64.5899 196.959 62.601 196.832 60.7268 195.88C59.9825 195.17 59.2334 194.507 58.4195 193.877C59.5191 193.918 60.648 193.956 61.7414 193.815C66.1109 193.251 68.6905 190.586 71.2888 187.339Z" fill="#F7B89F"/>
<path d="M66.4654 90.4564C73.3452 70.8339 80.4773 62.8391 99.4332 54.2812C99.9203 54.092 100.41 53.9095 100.901 53.7324C101.393 53.5553 101.887 53.3846 102.383 53.2201C102.878 53.0556 103.376 52.8975 103.876 52.7451C104.375 52.5933 104.877 52.4473 105.381 52.3075C105.884 52.1678 106.389 52.0343 106.896 51.9071C107.402 51.7799 107.911 51.659 108.42 51.5444C108.93 51.4297 109.441 51.3214 109.953 51.2192C110.465 51.1176 110.979 51.0222 111.494 50.9326C112.008 50.8434 112.524 50.761 113.041 50.6849C113.558 50.6087 114.076 50.5388 114.594 50.4755C115.113 50.4118 115.631 50.3548 116.151 50.3045C116.671 50.2542 117.192 50.2101 117.713 50.1722C118.234 50.1343 118.755 50.1036 119.277 50.0786C119.799 50.0541 120.321 50.0357 120.843 50.024C121.365 50.0124 121.888 50.0074 122.41 50.009C122.933 50.0102 123.454 50.018 123.976 50.0324C124.499 50.0465 125.021 50.0676 125.542 50.0948C126.064 50.1221 126.585 50.1555 127.106 50.1961C127.627 50.2361 128.147 50.2828 128.667 50.3361C129.186 50.3889 129.705 50.4488 130.223 50.5148C130.741 50.5808 131.259 50.653 131.775 50.7317C132.292 50.8105 132.807 50.8958 133.321 50.9877C133.835 51.0797 134.348 51.1777 134.86 51.2823C135.372 51.3864 135.883 51.4971 136.392 51.6144C136.901 51.7317 137.408 51.855 137.914 51.9849C138.42 52.1144 138.924 52.2503 139.427 52.3929C139.929 52.5349 140.43 52.6835 140.929 52.8382C141.428 52.9929 141.925 53.1536 142.42 53.3208C142.915 53.4881 143.408 53.6614 143.899 53.8407C144.389 54.0201 144.878 54.2054 145.364 54.3968C145.85 54.5882 146.333 54.7861 146.814 54.9896C147.296 55.1931 147.774 55.4026 148.25 55.6176C149.501 56.1817 150.736 56.7772 151.957 57.4042C172.999 67.5 182.406 96.3477 182.406 96.3477C183.15 99.2425 184.55 103.2 182.917 105.973C182.068 107.414 180.912 107.857 179.382 108.335C178.891 111.489 178.343 114.647 177.997 117.821C180.234 119.594 181.658 121.658 181.971 124.57C182.341 128.01 181.186 131.73 178.992 134.401C178.862 134.559 178.729 134.713 178.592 134.864C178.454 135.015 178.313 135.163 178.168 135.307C178.023 135.45 177.875 135.59 177.723 135.727C177.571 135.863 177.415 135.996 177.257 136.124C177.098 136.252 176.936 136.377 176.772 136.497C176.607 136.618 176.438 136.734 176.267 136.846C176.096 136.958 175.923 137.065 175.747 137.168C175.571 137.271 175.392 137.369 175.211 137.463C175.03 137.557 174.846 137.646 174.66 137.731C174.475 137.815 174.287 137.895 174.097 137.97C173.908 138.046 173.716 138.116 173.522 138.181C173.329 138.247 173.134 138.308 172.938 138.363C172.742 138.419 172.544 138.47 172.345 138.515C172.146 138.561 171.946 138.602 171.745 138.637C171.545 138.673 171.343 138.703 171.139 138.728C170.937 138.753 170.734 138.773 170.531 138.788C169.293 138.876 168.256 138.764 167.066 138.437C164.503 142.217 161.778 145.096 158.169 147.886C161.569 148.094 165.782 147.898 168.239 150.649C169.73 152.318 170.519 154.56 171.765 156.413C172.732 157.851 174.073 159.148 174.937 160.636C175.325 161.304 175.219 162.337 175.564 162.906C175.621 162.999 176.106 163.092 176.126 163.094C177.383 163.204 178.239 162.534 179.535 163.062C180.251 163.772 180.317 164.501 180.322 165.46C180.346 169.755 178.482 180.85 177.446 185.209C180.686 187.288 182.68 190.012 183.509 193.797C184.149 196.721 183.9 199.843 182.22 202.389C180.168 205.498 176.882 206.704 173.448 207.557C172.947 210.787 172.118 219.755 169.672 221.651C168.801 222.327 167.661 222.69 166.608 222.97C160.977 224.462 155.078 225.237 149.388 226.571L133.836 230.284C130.978 230.956 128.07 231.759 125.16 232.15C121.357 232.659 117.57 232.674 113.778 232.045C103.707 230.375 74.1787 219.527 66.1893 213.806C65.6238 209.708 65.4754 205.407 65.5732 201.273C65.6803 201.042 65.8346 200.855 65.9837 200.65L66.9849 200.51C69.4822 200.532 71.3972 199.304 73.2146 197.741C74.6893 195.06 75.4593 192.733 75.7049 189.659C75.4744 187.21 74.992 184.844 73.7384 182.696C72.1864 180.037 69.7175 178.337 66.7931 177.519C66.3154 169.906 66.4629 162.381 66.7907 154.768L66.4526 154.642L66.1927 153.953L65.6104 153.711C68.0634 150.88 74.0898 148.736 77.4116 146.854C79.1385 145.875 80.2622 144.066 81.9205 143.089C82.5318 142.729 83.3292 142.587 84.013 142.421C80.8392 139.512 78.6284 136.409 76.4628 132.702C72.7195 133.081 69.2767 132.526 66.2634 130.054C63.5932 127.863 62.2265 124.669 61.9391 121.287C61.6595 118 62.4768 114.769 64.6697 112.253C65.6648 111.112 66.7498 110.412 68.1127 109.783C65.9494 103.363 64.6161 97.1689 66.4654 90.4564Z" fill="#203B53"/>
<path d="M125.52 169.988C126.28 170.373 127.299 170.724 127.745 171.48L127.589 171.953C126.975 172.245 126.666 172.272 125.991 172.206C125.632 171.762 125.728 172.005 125.663 171.492C125.677 170.96 125.605 170.51 125.52 169.988Z" fill="#E46338"/>
<path d="M114.561 172.814L116.93 173.552C116.78 173.988 116.536 174.498 116.46 174.946L116.021 174.888L115.075 174.476C114.824 174.365 114.699 174.221 114.504 174.03C114.383 173.47 114.393 173.363 114.561 172.814Z" fill="#9DCF66"/>
<path d="M123.107 174.076C123.838 174.034 124.556 173.987 125.282 173.892C125.774 173.828 126.014 173.875 126.463 174.116C126.661 174.606 126.633 174.933 126.587 175.454L124.592 175.255C124.186 175.109 123.811 174.983 123.444 174.75C123.129 174.549 123.188 174.419 123.107 174.076Z" fill="#8CD464"/>
<path d="M82.8643 138.905C83.7227 139.293 84.6697 139.84 85.6126 139.948C86.3517 140.467 87.1919 140.965 87.8044 141.631C86.9478 141.694 86.1827 141.638 85.3338 141.517C84.4209 140.69 83.5985 139.906 82.8643 138.905Z" fill="#F7B89F"/>
<path d="M116.93 173.553L119.701 173.999C120.836 174.046 121.971 174.071 123.107 174.076C123.188 174.418 123.129 174.549 123.444 174.75C123.811 174.983 124.186 175.109 124.592 175.255L123.635 175.177C121.249 175.407 118.842 175.156 116.46 174.947C116.535 174.498 116.78 173.989 116.93 173.553Z" fill="#63C071"/>
<path d="M132.804 91.6804C135.488 94.7513 138.146 97.6227 141.287 100.239C140.641 100.097 139.874 99.9791 139.277 99.7043C136.063 98.2231 133.895 94.9125 132.804 91.6804Z" fill="#203B53"/>
<path d="M87.8051 141.631L88.1625 141.837C89.6441 142.698 90.974 143.904 92.5265 144.633C96.0957 146.309 99.9618 147.377 103.561 149.017L103.113 148.977C102.544 148.923 102.009 148.805 101.453 148.677L101.335 148.725C101.915 149.016 103.11 149.415 103.351 150.024C103.376 150.086 103.371 150.156 103.38 150.222C100.606 149.012 97.8657 147.721 95.0676 146.568C92.5787 145.543 89.814 144.656 87.4889 143.304C86.688 142.838 86.003 142.153 85.3344 141.517C86.1834 141.638 86.948 141.694 87.8051 141.631Z" fill="#F69373"/>
<path d="M116.942 169.181L118.069 167.888C118.846 167.635 119.046 167.784 119.81 168.015C120.306 169.585 120.32 170.923 120.385 172.544C120.287 172.589 120.196 172.656 120.091 172.677C118.075 173.067 115.041 171.342 113.335 170.381C114.521 169.933 115.732 169.562 116.942 169.181Z" fill="#E46338"/>
<path d="M119.81 168.015C121.042 168.139 122.283 168.303 123.519 168.359C124.145 168.928 124.771 169.59 125.519 169.988C125.604 170.51 125.676 170.96 125.663 171.492L124.421 171.189L124.142 171.373L124.447 171.899L124.796 172.328C124.094 173.041 122.012 172.87 121.012 172.885L120.385 172.545C120.319 170.923 120.306 169.586 119.81 168.015Z" fill="#E33A1E"/>
<path d="M121.013 172.885C121.112 172.014 121.173 171.09 121.344 170.232C121.355 170.177 121.382 170.124 121.39 170.068C121.408 169.952 121.412 169.834 121.423 169.718C121.515 169.832 121.61 169.946 121.701 170.062C122.106 170.581 122.455 171.135 122.987 171.537C123.615 172.012 123.674 172.023 124.447 171.899L124.797 172.328C124.094 173.041 122.012 172.87 121.013 172.885Z" fill="#D56B26"/>
<path d="M175.922 109.446L177.589 109.057C177.724 111.063 177.126 115.235 176.336 117.05L176.132 117.19C174.695 117.009 173.672 117.049 172.275 117.468L171.879 117.589C171.351 115.345 171.823 112.552 171.593 110.201L171.559 109.871C173.036 109.796 174.462 109.686 175.922 109.446Z" fill="#4B2A5D"/>
<path d="M73.7003 131.179C72.869 131.118 72.012 131.043 71.208 130.818C68.5401 130.071 66.269 128.355 64.9144 125.929C63.4192 123.25 63.0983 119.87 63.9313 116.93C64.4072 115.249 65.4647 112.617 67.1959 111.86C67.8091 111.592 68.2444 111.714 68.8529 111.904C69.8496 113.018 70.4633 114.459 71.1365 115.783C69.8768 115.984 69.0435 116.459 68.2875 117.508C67.3818 118.764 66.8342 120.573 67.1523 122.112C67.9272 125.863 73.1647 127.927 73.6842 131.086C73.689 131.117 73.6946 131.148 73.7003 131.179Z" fill="#F8CEB3"/>
<path d="M72.372 151.787C76.6018 155.279 94.7476 161.082 100.952 163.322C105.345 164.913 109.708 166.586 114.039 168.34C113.327 168.819 112.417 170.06 111.602 170.11C108.481 168.599 105.039 167.499 101.789 166.281L82.8328 159.212C78.2379 157.467 73.7822 154.999 69.0381 153.704C70.1556 153.077 71.2617 152.427 72.372 151.787Z" fill="#3FA147"/>
<path d="M173.057 161.926L173.618 161.943L173.859 162.341C173.885 162.976 173.915 163.058 173.581 163.588C169.502 165.026 163.716 165.363 159.32 166.141C151.824 167.467 144.356 168.921 136.847 170.191C134.625 170.568 131.718 171.429 129.494 171.276L128.693 170.347C128.184 169.8 127.413 169.405 126.779 169C142.238 167.689 157.523 163.42 173.057 161.926Z" fill="#3FA147"/>
<path d="M81.5492 145.805C81.6579 145.183 81.7818 144.925 82.1933 144.446C84.1252 143.633 93.3701 147.666 95.8083 148.658C103.365 151.734 110.769 155.74 116.421 161.731C117.492 162.865 118.63 164.033 119.25 165.482L119.174 166.005C118.631 166.135 118.322 166.215 117.78 165.941C116.85 165.47 116.124 164.117 115.346 163.408L114.563 163.663C108.162 157.578 100.441 154.076 92.3956 150.733C89.5476 149.627 86.6714 148.6 83.767 147.651C82.5896 147.347 81.4437 146.927 80.2937 146.534C80.6568 146.252 81.1466 146.035 81.5492 145.805Z" fill="#FBFBFA"/>
<path d="M81.5492 145.805C82.9429 146.109 84.2617 146.584 85.6039 147.058C84.9975 147.263 84.3886 147.499 83.767 147.651C82.5896 147.347 81.4437 146.927 80.2936 146.534C80.6568 146.252 81.1465 146.035 81.5492 145.805Z" fill="#203B53"/>
<path d="M85.604 147.058C88.1914 148.045 90.7927 149.006 93.3661 150.027C92.7648 150.211 92.7577 150.219 92.3953 150.733C89.5473 149.627 86.671 148.6 83.7666 147.651C84.3888 147.499 84.9976 147.263 85.604 147.058Z" fill="#203B53"/>
<path d="M92.3958 150.734C92.7577 150.219 92.7649 150.211 93.3666 150.028C101.41 153.126 109.339 157.075 115.347 163.409L114.563 163.663C108.162 157.578 100.441 154.077 92.3958 150.734Z" fill="#203B53"/>
<path d="M173.976 118.834C174.655 118.825 175.388 118.851 176.054 118.99C177.583 119.309 179.013 120.373 179.762 121.737C180.881 123.776 180.781 126.452 180.141 128.625C179.151 131.983 177.026 134.544 173.995 136.255C172.454 136.88 169.772 137.883 168.178 137.21C167.969 136.507 169.236 133.772 169.507 132.964C170.195 130.919 170.781 128.775 171.109 126.64C171.417 124.642 171.112 122.17 171.957 120.314C172.364 119.419 173.128 119.175 173.976 118.834Z" fill="#F7B89F"/>
<path d="M103.561 149.017C105.749 149.413 107.988 150.748 110.182 151.338C118.116 153.47 126.909 153.875 135.044 152.858C138.058 152.463 141.056 151.976 144.04 151.396C146.235 150.947 148.57 150.214 150.807 150.11C150.877 150.107 150.948 150.106 151.019 150.104C148.478 151.656 145.612 152.526 142.795 153.432C134.5 156.1 126.494 158.621 121.248 166.11C118.531 158.815 109.952 153.633 103.38 150.223C103.371 150.156 103.376 150.086 103.352 150.024C103.111 149.415 101.916 149.017 101.335 148.725L101.453 148.678C102.009 148.805 102.544 148.924 103.113 148.977L103.561 149.017Z" fill="#F7B89F"/>
<path d="M80.2934 146.535C81.4439 146.927 82.5898 147.348 83.7668 147.651C86.6712 148.6 89.5474 149.628 92.3954 150.734C100.441 154.077 108.162 157.578 114.562 163.663C115.423 164.581 116.344 165.387 116.666 166.636C116.486 167.233 116.461 167.219 115.939 167.572C112.321 166.698 108.612 164.58 105.091 163.267C94.4778 159.307 83.6559 155.978 73.4514 150.982C75.7147 149.534 78.3436 148.413 80.2934 146.535Z" fill="#E0CDCF"/>
<path d="M173.579 186.216C175.232 186.285 176.621 186.621 177.975 187.6C180.236 189.235 181.498 192.051 181.912 194.755C182.302 197.3 181.853 199.834 180.274 201.909C178.369 204.411 175.64 205.468 172.619 205.85C170.544 205.822 168.785 205.611 167.089 204.297C165.287 202.901 164.347 200.679 164.063 198.464C164.038 198.278 164.018 198.091 164.003 197.904C163.987 197.716 163.976 197.529 163.971 197.341C163.965 197.153 163.963 196.965 163.967 196.777C163.97 196.59 163.979 196.402 163.992 196.215C164.005 196.027 164.023 195.84 164.046 195.653C164.068 195.467 164.096 195.281 164.128 195.096C164.16 194.911 164.196 194.727 164.238 194.543C164.279 194.36 164.325 194.177 164.375 193.997C164.426 193.816 164.481 193.636 164.541 193.458C164.601 193.28 164.665 193.104 164.734 192.929C164.803 192.754 164.876 192.581 164.953 192.409C165.031 192.238 165.112 192.069 165.198 191.902C165.285 191.735 165.375 191.57 165.469 191.407C165.564 191.245 165.662 191.085 165.765 190.927C165.867 190.77 165.973 190.615 166.084 190.463C166.194 190.31 166.308 190.161 166.426 190.015C168.291 187.714 170.687 186.559 173.579 186.216Z" fill="#F7B89F"/>
<path d="M169.05 207.153L171.681 207.775C171.48 209.753 171.353 212.136 170.742 214.017C170.336 215.968 169.914 217.977 168.991 219.76C168.452 220.436 167.959 220.627 167.15 220.858C161.809 222.386 156.086 223.115 150.659 224.381C141.872 226.432 133.004 229.046 124.127 230.601C125.189 225.487 125.181 219.988 125.756 214.789C125.743 217.244 125.491 219.695 125.291 222.139C136.37 220.864 152.926 218.338 162.501 212.617C165.024 211.11 167.011 209.254 169.05 207.153Z" fill="#3FA147"/>
<path d="M168.99 219.761C168.792 218.905 168.857 218.022 169.021 217.166C169.222 216.127 169.593 214.074 170.474 213.477L170.741 214.017C170.335 215.968 169.913 217.977 168.99 219.761Z" fill="#63C071"/>
<path d="M127.193 164.202C126.18 164.918 125.309 166.135 124.284 166.727C123.86 166.972 123.654 166.848 123.23 166.714L123.207 166.261C123.87 165.201 124.789 164.392 125.72 163.57C127.608 161.903 129.717 160.23 131.968 159.08C139.45 155.258 158.08 150.464 166.386 150.949C168.415 153.282 170.182 157.469 172.265 160.279C170.969 160.399 169.676 160.541 168.386 160.705C158.961 162.205 149.589 163.948 140.184 165.558C136.25 166.233 132.235 167.147 128.276 167.561C127.428 167.65 126.677 167.692 125.852 167.465L125.574 167.075C125.825 166.329 126.463 165.955 127.06 165.491L127.193 164.202Z" fill="#E0CDCF"/>
<path d="M127.193 164.202C126.18 164.918 125.309 166.135 124.284 166.727C123.86 166.972 123.654 166.848 123.23 166.714L123.207 166.261C123.87 165.201 124.789 164.392 125.72 163.57C127.608 161.903 129.717 160.23 131.968 159.08C139.45 155.258 158.08 150.464 166.386 150.949C168.415 153.282 170.182 157.469 172.265 160.279C170.969 160.399 169.676 160.541 168.386 160.705C167.84 158.578 168.02 156.694 168.186 154.532C163.736 154.476 159.19 155.645 154.792 156.287L154.52 156.037L154.084 156.204C154.586 156.164 155.113 156.143 155.591 155.978C158.88 154.846 162.871 155.482 165.888 153.585C165.974 153.531 166.059 153.474 166.143 153.418C163.623 153.805 155.601 156.046 153.754 155.507C145.271 156.444 133.853 160.472 127.06 165.492L127.193 164.202Z" fill="#FBFBFA"/>
<path d="M156.333 153.848C159.688 153.2 163.138 152.38 166.571 152.693L166.869 152.927C166.661 153.054 157.131 154.736 155.947 154.939C155.895 154.598 156.189 154.146 156.333 153.848Z" fill="#203B53"/>
<path d="M127.193 164.202C136.14 158.113 145.877 155.844 156.333 153.848C156.189 154.146 155.895 154.598 155.947 154.938L153.753 155.506C145.271 156.443 133.853 160.471 127.06 165.491L127.193 164.202Z" fill="#203B53"/>
<path d="M71.1359 115.784C71.3243 116.155 71.5189 116.632 71.7803 116.953C71.9869 117.208 72.2526 117.528 72.6085 117.498C74.7919 117.318 77.9273 113.368 79.1891 111.678C81.3375 108.8 82.7774 105.18 84.6153 102.077C89.4303 93.949 95.4098 84.4476 101.544 77.2725C105.017 85.4725 107.872 91.7352 114.556 97.9555C120.697 103.671 132.164 109.577 140.758 109.081C141.631 109.031 142.237 108.895 142.833 108.24C142.973 105.924 138.25 101.35 136.798 99.4429C146.83 107.262 157.228 108.148 169.238 109.973C169.431 110.985 169.484 112.044 169.584 113.071C165.349 112.815 161.022 112.693 156.874 111.732C154.187 111.109 149.757 109.378 147.054 109.964C146.522 110.08 146.48 110.067 146.183 110.541C146.583 111.152 146.924 111.067 147.62 111.214L145.064 111.458L144.888 111.05C143.101 110.785 137.43 111.538 134.863 111.428C122.086 110.883 111.779 104.406 104.305 94.2983C102.437 91.7706 101.095 89.2207 100.145 86.2246C98.3929 88.0618 96.7663 89.9263 95.2953 91.9997C92.8843 95.3986 90.9665 99.1443 88.7349 102.662C86.1139 106.793 82.5918 110.953 80.8557 115.542C80.2759 117.075 80.1628 118.874 80.2028 120.507C80.3096 124.911 82.6415 135.704 85.2109 139.383C85.2934 139.502 85.3733 139.622 85.4568 139.739C85.5066 139.81 85.5603 139.878 85.6126 139.948C84.6696 139.84 83.7226 139.294 82.8642 138.905C80.1201 136.26 78.0962 132.355 76.6609 128.867C76.0013 127.263 75.5109 124.37 74.3437 123.2L73.9477 123.301C72.1077 125.423 75.1436 128.472 75.2285 130.833C74.7177 131.342 74.3899 131.178 73.7002 131.18C73.6945 131.149 73.6888 131.118 73.6836 131.087C73.1641 127.928 67.9266 125.863 67.1517 122.113C66.8335 120.574 67.3812 118.765 68.2869 117.509C69.0433 116.46 69.8762 115.984 71.1359 115.784Z" fill="#F7B89F"/>
<path d="M74.2986 101.304C78.3419 98.9865 81.7494 93.218 84.8205 89.6145C90.8591 82.5294 97.6747 76.133 102.357 67.9876C104.494 72.8714 106.427 77.9534 110.485 81.599C115.504 84.6323 120.656 87.7015 126.543 88.6547C126.707 87.1863 126.885 85.7615 126.651 84.2878L127.525 84.6417C128.054 88.6985 133.91 98.4644 136.435 101.896C137.974 103.064 139.362 105.605 140.458 107.231C134.554 106.946 128.861 105.207 123.68 102.373C114.735 97.4827 108.653 89.3373 104.464 80.2186C103.511 78.1464 102.538 76.1394 101.89 73.9487C101.565 73.9366 98.8043 78.3403 98.3797 78.9303C94.2209 84.7038 89.8476 90.3655 86.0968 96.4186C83.118 101.226 80.7535 106.656 77.4241 111.208C76.2458 112.82 74.9737 114.143 73.2827 115.223L73.0131 115.392L72.7927 115.047C67.6179 106.787 66.1307 99.654 68.2261 90.2124C68.1996 90.7369 68.1849 91.2394 68.2934 91.7571C68.9947 95.1098 71.4614 99.4067 74.2986 101.304Z" fill="#4B2A5D"/>
<path d="M110.484 81.599C115.503 84.6323 120.656 87.7016 126.542 88.6548C126.706 87.1863 126.885 85.7616 126.651 84.2878L127.525 84.6417C128.054 88.6986 133.909 98.4644 136.435 101.896C134.649 102.477 130.534 100.398 128.933 99.5793C123.215 96.6579 112.436 87.7099 110.484 81.599Z" fill="#55416B"/>
<path d="M112.254 171.938L114.562 172.814C114.393 173.363 114.383 173.47 114.505 174.03C114.7 174.221 114.825 174.364 115.076 174.476L116.021 174.888L116.46 174.946C118.842 175.156 121.249 175.406 123.635 175.176L124.592 175.254L126.587 175.454L124.275 213.294C124.273 219.082 123.568 224.844 123.597 230.636C119.532 230.83 115.597 230.565 111.638 229.611C111.779 227.544 112.57 223.32 111.756 221.476C111.441 221.384 111.256 221.345 110.92 221.343C110.603 223.99 110.738 226.823 110.592 229.5C106.406 228.055 102.122 226.855 97.9163 225.458C92.5046 223.612 87.1403 221.636 81.8229 219.532C76.8553 217.576 71.9765 215.589 67.4482 212.721C67.2491 208.654 67.0074 204.583 66.9883 200.511C69.4856 200.533 71.4006 199.305 73.2181 197.742C73.0922 201.304 72.6385 206.733 75.1511 209.607C76.7333 211.416 79.9864 212.391 82.1807 213.247C91.4961 216.88 100.818 219.557 110.657 221.358C110.771 216.753 110.551 212.126 110.599 207.517C110.675 200.353 111.003 193.215 111.3 186.059C111.492 181.434 111.4 176.487 112.254 171.938Z" fill="#3FA147"/>
<path d="M124.591 175.255L126.587 175.454L124.275 213.295C123.934 216.294 123.856 219.325 123.714 222.339L114.623 221.758L112.103 221.426C112.658 210.734 113.602 200 114.311 189.311C114.634 184.442 115.267 179.344 115.076 174.476L116.021 174.888L116.46 174.946C118.842 175.156 121.249 175.406 123.635 175.176L124.591 175.255Z" fill="#9DCF66"/>
<path d="M115.076 174.476L116.022 174.888L115.527 175.104C115.164 176.651 115.274 178.423 115.288 180.008L115.615 176.6L115.719 176.664C115.75 177.649 115.782 178.597 115.689 179.58C115.581 180.713 116.027 181.751 116.06 182.884C116.136 185.548 115.994 188.257 115.867 190.919C115.677 194.899 113.911 219.743 114.623 221.758L112.103 221.426C112.658 210.733 113.602 199.999 114.311 189.31C114.634 184.442 115.267 179.344 115.076 174.476Z" fill="#8CD464"/>
<path d="M128.192 173.266C133.594 172.116 139.106 171.366 144.549 170.421L178.542 164.635C178.62 171.149 176.938 178.121 175.927 184.56C174.176 184.481 172.663 184.57 170.977 185.136C170.773 185.206 170.571 185.281 170.371 185.361C170.171 185.441 169.974 185.526 169.778 185.615C169.583 185.705 169.389 185.8 169.198 185.899C169.007 185.998 168.819 186.103 168.633 186.212C168.447 186.32 168.264 186.434 168.085 186.552C167.905 186.67 167.727 186.792 167.553 186.919C167.379 187.046 167.209 187.177 167.041 187.312C166.873 187.448 166.709 187.587 166.549 187.731C166.388 187.874 166.231 188.021 166.078 188.173C165.925 188.324 165.775 188.479 165.63 188.638C165.484 188.797 165.343 188.959 165.205 189.125C165.068 189.291 164.935 189.46 164.806 189.632C164.677 189.804 164.552 189.98 164.432 190.158C164.312 190.337 164.196 190.519 164.085 190.703C163.974 190.887 163.867 191.075 163.766 191.264C163.664 191.454 163.567 191.646 163.474 191.84C162.074 194.825 162.108 198.335 163.317 201.379C164.454 204.238 166.276 205.971 169.051 207.152C167.012 209.253 165.025 211.109 162.501 212.616C152.927 218.336 136.37 220.863 125.291 222.138C125.492 219.693 125.744 217.243 125.757 214.788L127.381 188.889C127.698 183.696 128.145 178.47 128.192 173.266Z" fill="#9DCF66"/>
<path d="M66.7949 154.769C69.6736 154.993 72.7057 156.54 75.303 157.727C87.3821 162.964 99.9778 167.165 112.255 171.939C111.401 176.487 111.492 181.434 111.3 186.059C111.003 193.215 110.675 200.353 110.6 207.517C110.551 212.126 110.772 216.753 110.657 221.358C100.819 219.557 91.4968 216.88 82.1814 213.247C79.9871 212.391 76.734 211.416 75.1518 209.607C72.6392 206.733 73.0934 201.304 73.2188 197.742C74.6934 195.061 75.4634 192.734 75.709 189.66C75.4785 187.211 74.9962 184.845 73.7426 182.697C72.1905 180.038 69.7217 178.338 66.7972 177.52C66.3195 169.907 66.4671 162.381 66.7949 154.769Z" fill="#63C071"/>
<path d="M66.7949 154.769C69.6736 154.993 72.7057 156.54 75.303 157.727C73.961 162.254 75.378 175.985 75.8654 181.338C76.0441 183.299 76.5828 186.836 76.1844 188.676C76.0915 189.107 75.9577 189.317 75.7086 189.66C75.4781 187.211 74.9957 184.845 73.7421 182.697C72.19 180.038 69.7212 178.338 66.7968 177.52C66.3195 169.907 66.4671 162.381 66.7949 154.769Z" fill="#3FA147"/>
<path d="M68.2258 90.2124C70.6816 79.7686 80.881 66.3592 89.821 60.8048C92.5374 59.117 95.5132 57.8608 98.4828 56.6945C110.933 51.8069 123.827 50.8506 136.843 54C151.364 57.5141 164.143 65.9545 171.953 78.8237C174.571 83.1371 182.548 99.2635 181.576 103.888C181.378 104.831 180.834 105.487 180.011 105.973C175.777 108.469 163.229 107.027 158.414 106.186C152.479 105.38 146.452 103.254 141.287 100.238C138.146 97.6223 135.488 94.7508 132.804 91.68C131.016 88.7319 129.118 85.8436 127.418 82.8436C127.431 83.4461 127.428 84.0453 127.525 84.6412L126.651 84.2873C126.885 85.7611 126.706 87.1858 126.542 88.6543C120.657 87.7016 115.504 84.6319 110.485 81.5985C106.426 77.953 104.494 72.8714 102.357 67.9871C97.6744 76.1325 90.8588 82.529 84.8203 89.6141C81.7492 93.2171 78.3417 98.986 74.2984 101.304C71.4611 99.4063 68.9944 95.1094 68.2926 91.7566C68.1846 91.2394 68.1993 90.737 68.2258 90.2124Z" fill="url(#paint0_linear_2351_4407)"/>
<path d="M126.65 84.2878C126.342 82.74 126.242 81.1658 126.108 79.5961L127.487 81.4415C127.476 81.8976 127.508 82.3977 127.417 82.8441C127.43 83.4466 127.427 84.0458 127.524 84.6417L126.65 84.2878Z" fill="#203B53"/>
<path d="M100.145 86.2242C101.095 89.2202 102.437 91.7702 104.306 94.2978C111.779 104.405 122.086 110.883 134.863 111.428C137.43 111.538 143.101 110.785 144.888 111.05L145.064 111.457L147.62 111.214C146.924 111.067 146.583 111.151 146.183 110.54C146.48 110.066 146.522 110.079 147.054 109.964C149.757 109.377 154.188 111.108 156.875 111.731C161.023 112.693 165.349 112.814 169.584 113.07C169.786 123.93 169.241 134.289 161.266 142.543C158.648 145.253 154.557 148.72 151.017 150.104C150.947 150.106 150.875 150.107 150.805 150.11C148.568 150.214 146.233 150.947 144.039 151.396C141.055 151.976 138.056 152.463 135.042 152.858C126.907 153.875 118.114 153.47 110.18 151.338C107.986 150.748 105.748 149.413 103.559 149.017C99.9603 147.377 96.0942 146.309 92.525 144.633C90.9729 143.904 89.6431 142.698 88.161 141.837L87.8036 141.631C87.1906 140.964 86.3508 140.467 85.6118 139.948C85.56 139.878 85.5058 139.81 85.456 139.739C85.3725 139.622 85.2926 139.501 85.2101 139.383C82.6407 135.704 80.3083 124.91 80.2019 120.507C80.1621 118.874 80.2751 117.075 80.8549 115.542C82.5909 110.953 86.1131 106.793 88.7341 102.662C90.9657 99.1442 92.8835 95.3985 95.2945 91.9997C96.7664 89.9259 98.3931 88.0614 100.145 86.2242Z" fill="#F8CEB3"/>
<path d="M150.42 124.268C150.786 124.671 151.021 124.856 150.93 125.459C150.823 126.174 150.238 126.906 149.619 127.25C149.398 127.372 149.217 127.443 148.978 127.547L148.438 127.367C149.23 126.358 149.84 125.412 150.42 124.268Z" fill="#FCE2C9"/>
<path d="M101.524 107.921C102.039 107.86 102.274 107.952 102.74 108.168L102.639 108.386L102.41 108.014L102.59 108.555C101.876 109.308 97.944 110.318 96.1843 111.557L95.9725 111.76L95.6326 111.714C95.5107 111.168 95.4392 110.669 95.7665 110.16C96.8473 108.483 99.7236 108.173 101.524 107.921Z" fill="#203B53"/>
<path d="M121.942 122.001C123.062 122.192 123.986 122.41 124.694 123.369C125.106 123.926 125.3 124.421 125.196 125.102L124.758 125.304C123.63 125.091 123.017 124.361 122.193 123.62C121.668 123.714 121.43 123.763 121.011 124.114C120.299 124.71 119.74 125.092 118.794 125.232L118.603 124.918C118.746 124.534 118.888 124.176 119.104 123.827C119.849 122.619 120.601 122.347 121.942 122.001Z" fill="#203B53"/>
<path d="M104.98 122.114C105.398 122.873 105.655 123.42 105.419 124.316C105.089 125.567 104.09 126.482 102.966 127.058C102.273 127.414 101.513 127.608 100.762 127.797L99.0423 127.278C99.1788 126.728 99.2993 126.425 99.659 125.985C100.129 125.932 100.585 125.877 101.043 125.75C103.101 125.175 103.998 123.872 104.98 122.114Z" fill="#FBFBFA"/>
<path d="M145.065 111.457L147.621 111.213C150.297 112.278 153.279 113.715 154.527 116.49L154.498 117.012C152.978 117.083 150.362 114.154 148.875 113.454C147.862 112.976 146.377 113.025 145.524 112.27C145.209 111.992 145.149 111.854 145.065 111.457Z" fill="#203B53"/>
<path d="M130.482 134.014C130.916 134.13 131.138 134.267 131.482 134.554C131.623 134.974 131.624 135.181 131.531 135.628C131.084 137.766 128.735 140.009 126.94 141.086C124.776 142.385 122.164 142.905 119.699 142.262C116.914 141.536 115.131 139.64 113.747 137.226C113.301 136.276 112.639 134.866 112.876 133.819L113.356 133.552C114.897 133.864 115.386 136.673 116.826 137.724C118.861 139.209 121.358 139.73 123.828 139.265C127.106 138.646 128.766 136.644 130.482 134.014Z" fill="#203B53"/>
<path d="M96.0165 115.587C96.4985 115.289 96.9877 115.004 97.4851 114.733C98.8465 114.008 100.538 113.861 102 114.372C102.166 114.43 102.33 114.495 102.489 114.57C102.648 114.645 102.804 114.728 102.954 114.819C103.105 114.91 103.251 115.009 103.391 115.115C103.532 115.22 103.667 115.334 103.796 115.454C103.924 115.574 104.046 115.701 104.162 115.833C104.277 115.966 104.386 116.104 104.487 116.249C104.588 116.393 104.681 116.542 104.767 116.696C104.852 116.85 104.93 117.008 104.999 117.17C105.643 118.704 105.561 120.585 104.98 122.114C103.996 123.871 103.1 125.175 101.042 125.749C100.585 125.877 100.129 125.932 99.6583 125.985C99.2987 126.425 99.1781 126.727 99.0417 127.277C98.1096 127.094 97.1762 126.917 96.241 126.746L96.0956 126.394L97.0467 126.319L97.201 126.024C97.0484 125.779 96.917 125.553 96.8068 125.285C96.778 125.214 96.752 125.143 96.7246 125.071C95.7047 124.064 95.0479 123.002 94.6962 121.598C94.1535 119.43 94.9446 117.442 96.0165 115.587Z" fill="#203B53"/>
<path d="M99.6956 114.437C100.432 114.47 101.091 114.431 101.73 114.85C101.99 115.509 101.853 115.652 101.653 116.313C101.415 116.259 101.175 116.211 100.941 116.143C100.249 115.944 99.878 115.682 99.524 115.062L99.6956 114.437Z" fill="#FBFBFA"/>
<path d="M96.7251 125.071C97.7089 125.508 98.6012 125.788 99.6588 125.985C99.2991 126.426 99.1786 126.728 99.0422 127.278C98.1101 127.094 97.1767 126.917 96.2415 126.747L96.0961 126.395L97.0471 126.319L97.2015 126.024C97.0489 125.779 96.9175 125.554 96.8073 125.286C96.7785 125.214 96.7526 125.143 96.7251 125.071Z" fill="#FCE2C9"/>
<path d="M97.2471 116.492C97.4855 116.603 97.8839 116.754 98.0919 116.933C98.6297 117.394 98.6675 117.61 98.7854 118.267C98.5986 119.052 98.2511 119.42 97.7217 119.99C97.4718 119.905 97.0031 119.783 96.7751 119.62C96.2214 119.224 96.2162 119.01 96.1134 118.387C96.3541 117.597 96.7258 117.125 97.2471 116.492Z" fill="#FBFBFA"/>
<path d="M148.437 127.367C147.231 128.192 146.099 128.777 144.595 128.743C143.122 128.709 141.845 128.117 140.873 127.006C139.701 125.665 139.144 123.793 139.345 122.029C139.531 120.383 140.374 118.783 141.698 117.775C142.984 116.795 144.735 116.448 146.315 116.745C147.852 117.034 149.07 118.002 149.924 119.285C150.974 120.862 150.777 122.489 150.42 124.268C149.84 125.412 149.229 126.358 148.437 127.367Z" fill="#203B53"/>
<path d="M142.717 118.251C142.751 118.292 142.791 118.328 142.818 118.374C143.153 118.947 143.361 119.574 143.214 120.227C142.638 120.921 142.341 120.967 141.513 121.273C141.107 121.191 141.323 121.278 140.908 120.92C140.981 119.705 141.866 119.011 142.717 118.251Z" fill="#FBFBFA"/>
<path d="M146.948 129.829C149.307 129.678 152.035 130.048 154.038 131.345C155.415 132.236 156.465 133.589 156.739 135.232C156.977 136.666 156.556 138.102 155.691 139.255C153.937 141.592 151.121 142.435 148.371 142.871C147.474 142.947 146.589 142.97 145.69 142.92C143.395 142.79 140.81 142.156 139.274 140.321C137.678 138.412 137.785 136.348 137.997 134.033C138.295 133.557 138.598 133.072 138.973 132.652C140.934 130.446 144.161 129.978 146.948 129.829Z" fill="#F4747A"/>
<path d="M86.0562 132.114C86.5137 130.577 87.132 129.234 88.4074 128.195C90.6266 126.386 93.5651 126.512 96.2417 126.746C97.1765 126.917 98.1099 127.094 99.0424 127.277L100.762 127.797C101.343 127.963 101.92 128.138 102.473 128.381C103.806 128.968 105.021 129.839 105.538 131.26C106.08 132.747 105.822 134.756 105.14 136.157C104.325 137.832 102.758 138.909 101.02 139.468C97.867 140.483 93.7488 139.884 90.8696 138.287C88.2628 136.84 86.8166 134.946 86.0562 132.114Z" fill="#F4747A"/>
<path d="M94.1304 4.03465C94.4571 3.93823 94.8844 4.06435 95.2089 4.15169C96.416 4.4752 97.3194 5.29097 97.9354 6.35898C98.5848 7.48533 98.8731 8.8454 98.4653 10.1063C98.008 11.5219 97.0595 12.178 95.777 12.8117C97.4246 15.6129 99.497 18.2688 101.45 20.8632C106.488 27.5549 111.892 34.211 118.033 39.9315C119.583 37.6411 120.907 35.1015 122.298 32.7063C124.782 28.4297 127.284 24.1703 129.553 19.7739C128.467 18.7984 127.645 17.794 127.383 16.2994C127.357 16.1524 127.339 16.0046 127.328 15.8558C127.318 15.7069 127.314 15.5577 127.318 15.4086C127.323 15.2594 127.334 15.1109 127.353 14.9628C127.372 14.815 127.399 14.6683 127.433 14.5229C127.467 14.3776 127.508 14.2344 127.557 14.0932C127.605 13.9521 127.661 13.8137 127.723 13.6782C127.786 13.5426 127.855 13.4105 127.93 13.282C128.006 13.1534 128.088 13.029 128.176 12.9085C128.265 12.7876 128.359 12.6716 128.459 12.5602C128.56 12.4487 128.665 12.3429 128.777 12.2426C128.887 12.142 129.003 12.0473 129.124 11.9586C129.244 11.8699 129.369 11.7874 129.499 11.7112C129.628 11.6351 129.76 11.5659 129.896 11.5034C130.032 11.4408 130.171 11.3849 130.313 11.3364C130.455 11.2878 130.598 11.2469 130.744 11.213C130.89 11.1792 131.038 11.1526 131.186 11.1337C132.383 10.9842 133.654 11.2983 134.59 12.0735C135.579 12.8928 136.129 14.2319 136.233 15.4917C136.247 15.643 136.253 15.7943 136.251 15.9462C136.249 16.0979 136.239 16.2491 136.221 16.4001C136.204 16.5506 136.179 16.7002 136.145 16.8483C136.112 16.9964 136.072 17.1425 136.024 17.2864C135.976 17.4303 135.92 17.5715 135.857 17.7098C135.795 17.8478 135.725 17.9827 135.649 18.1137C135.572 18.2447 135.489 18.3715 135.399 18.4942C135.31 18.6164 135.214 18.7338 135.112 18.8467C134.082 20.002 132.906 20.1596 131.449 20.2364C132.144 24.8215 137.22 61.4524 136.992 62.3052C136.244 63.078 134.907 62.853 133.878 62.8645C126.041 62.9532 118.324 64.3549 110.827 66.5954C105.245 68.2636 99.8597 70.4017 94.9162 73.524C93.6993 74.2926 88.97 78.2051 88.2845 78.3033C87.0785 76.8321 85.338 72.0821 84.2588 70.0803C80.6348 63.3564 76.1584 56.8656 71.5727 50.7653C70.2042 48.9448 68.7917 46.8779 67.0966 45.3526C67.046 45.3072 66.9942 45.2635 66.9432 45.2188C65.6918 45.5818 64.3681 45.7641 63.1502 45.1804C62.1713 44.7112 61.4925 43.828 61.1878 42.7959C60.7717 41.3866 61.0687 39.8288 61.8306 38.5899C62.4588 37.5691 63.4216 36.7998 64.6137 36.5755C65.5961 36.3907 66.8 36.5972 67.6256 37.175C68.6307 37.8783 69.2403 39.1412 69.451 40.3224C69.6124 41.2263 69.6082 42.3327 69.0524 43.1079C68.8235 43.4272 68.9032 43.2389 68.8204 43.6152C70.614 44.722 72.9425 45.3599 74.9252 46.0775C79.4176 47.6968 83.9314 49.2536 88.4669 50.7478C92.2068 39.7715 94.0529 24.6685 93.8506 13.0444C92.9482 12.7803 92.0224 12.5511 91.2842 11.9359C90.2742 11.0939 89.705 9.92005 89.6366 8.61063C89.5754 7.44585 89.9318 6.24229 90.744 5.38739C91.6877 4.39415 92.8046 4.08217 94.1304 4.03465Z" fill="#203B53"/>
<path d="M93.9179 36.2378L94.384 36.4554C94.6355 37.463 94.638 38.799 94.4539 39.8296C94.3864 39.7992 94.3183 39.7709 94.2519 39.7387C94.0175 39.6245 93.8844 39.5179 93.7006 39.3401C92.8167 41.1491 92.9754 45.9354 92.3406 47.7794C91.6764 49.3225 90.7632 51.6276 90.5749 53.2777C90.1958 53.5264 89.8388 53.7682 89.4146 53.9362L89.4111 53.4335C90.5927 51.9934 91.1587 47.8433 91.7889 45.9085C91.9552 44.6882 92.3713 43.4151 92.6525 42.2109C93.1092 40.2272 93.5308 38.2361 93.9179 36.2378Z" fill="#F8ED2A"/>
<path d="M65.2976 38.1712C65.3427 38.1799 65.3885 38.1848 65.4332 38.1967C66.1812 38.3934 66.8967 38.9457 67.2621 39.6284C67.6066 40.2726 67.6017 40.9776 67.3973 41.6666C67.0909 42.7003 66.3992 43.1304 65.4919 43.6153C65.0926 43.6468 64.717 43.673 64.333 43.5308C63.8107 43.3369 63.3702 42.7122 63.1882 42.2105C62.8818 41.3668 63.0044 40.362 63.4079 39.5704C63.8352 38.7312 64.4295 38.4381 65.2976 38.1712Z" fill="#FEFEFE"/>
<path d="M93.5121 5.85071C93.9764 5.89333 94.4917 5.95377 94.9229 6.13649C95.6373 6.43904 96.2466 7.06685 96.5303 7.78829C96.5575 7.85711 96.5813 7.92698 96.6015 7.99825C96.6218 8.06917 96.6386 8.14114 96.6519 8.21416C96.6648 8.28718 96.6742 8.36019 96.6802 8.43391C96.6861 8.50762 96.6885 8.58169 96.6871 8.65541C96.6857 8.72947 96.6805 8.80319 96.6718 8.87655C96.663 8.95027 96.6508 9.02294 96.6351 9.09526C96.619 9.16758 96.5995 9.23885 96.5767 9.30907C96.5537 9.37929 96.5271 9.44847 96.4974 9.51624C96.1271 10.3523 95.3987 10.6104 94.6042 10.9207C94.2804 10.9975 93.9949 11.0667 93.6582 11.0182C92.9654 10.9175 92.3051 10.506 91.9505 9.89914C91.5655 9.23989 91.5169 8.4374 91.7258 7.71107C92.0172 6.69722 92.6143 6.31187 93.5121 5.85071Z" fill="#FEFEFE"/>
<path d="M131.234 12.8538C131.591 12.8444 131.986 12.8489 132.332 12.9443C133.08 13.15 133.74 13.9029 134.068 14.5748C134.425 15.3063 134.492 16.1759 134.187 16.9379C133.88 17.7044 133.392 18.002 132.664 18.3252C132.298 18.3329 131.918 18.3496 131.556 18.284C130.837 18.1536 130.211 17.5919 129.841 16.978C129.424 16.2866 129.309 15.4866 129.527 14.7068C129.793 13.7565 130.397 13.2947 131.234 12.8538Z" fill="#FEFEFE"/>
<path d="M93.9169 36.2378C94.9475 29.4947 95.7608 22.76 95.8094 15.9285C102.018 25.746 109.841 34.847 118.183 42.9225C120.09 40.3149 121.679 37.4305 123.319 34.6485C125.688 30.6305 128.182 26.4744 130.112 22.2237C131.177 31.4071 132.321 40.5807 133.542 49.7446C134.047 53.4664 134.682 57.1784 135.133 60.9064C120.569 61.0832 100.162 65.6288 89.0743 75.5762C89.0481 75.5336 89.0216 75.4913 88.9961 75.4484C87.6234 73.1475 86.6766 70.5597 85.3522 68.2064C81.5431 61.4399 75.0962 51.694 70.0039 45.9372C71.706 46.6569 73.4018 47.4244 75.1322 48.0725C77.9649 49.3079 80.8849 50.2973 83.8069 51.2961C85.5639 51.897 87.8177 52.4728 89.4101 53.4335L89.4136 53.9362C89.8377 53.7682 90.1947 53.5264 90.5738 53.2777C90.7621 51.6277 91.6753 49.3225 92.3395 47.7794C92.9743 45.9355 92.8157 41.1492 93.6996 39.3401C93.8833 39.518 94.0164 39.6245 94.2509 39.7388C94.3172 39.7709 94.3854 39.7992 94.4528 39.8296C94.6369 38.799 94.6345 37.463 94.3829 36.4554L93.9169 36.2378Z" fill="#FBDB20"/>
<path d="M92.3401 47.7793C92.9749 45.9354 92.8163 41.1491 93.7001 39.3401C93.8839 39.5179 94.017 39.6245 94.2514 39.7387C94.3178 39.7709 94.386 39.7992 94.4534 39.8295C94.0293 42.5647 92.5284 53.8303 91.4796 55.6009C91.3811 55.4217 91.2714 55.3399 91.1183 55.2079L90.6334 55.3665C90.2855 55.9527 89.8687 56.5645 89.6929 57.2251L89.3743 56.49C89.3327 56.4153 89.2863 56.343 89.2492 56.2657C88.8394 55.4091 89.0836 54.7747 89.4141 53.9362C89.8383 53.7681 90.1953 53.5264 90.5744 53.2776C90.7627 51.6276 91.6759 49.3225 92.3401 47.7793Z" fill="#F3E661"/>
<path d="M86.6455 61.7736C86.7094 62.1254 86.6462 62.0437 86.8198 62.27C87.427 63.0603 88.0125 63.9858 88.3839 64.9144C88.5153 65.2428 88.6023 65.6257 88.3717 65.9345C88.1027 66.2944 87.7558 66.4753 87.3355 66.5952C86.44 66.1183 74.714 50.4905 74.3108 48.9495C74.22 48.6033 74.2154 48.7496 74.4048 48.4244L75.0211 48.597C77.2615 50.3358 79.6299 52.0253 81.0186 54.5805C81.2586 55.0148 81.4602 55.3586 81.8305 55.702C82.5439 56.5485 83.2423 57.381 83.8572 58.3037L84.2303 58.4445C84.5825 59.2299 84.7918 60.1152 85.6376 60.4642C85.9639 60.9093 86.2849 61.3547 86.6455 61.7736Z" fill="#FEFCCC"/>
<path d="M75.1329 48.0724C77.9655 49.3078 80.8855 50.2972 83.8076 51.296C85.5645 51.8969 87.8183 52.4727 89.4107 53.4334L89.4142 53.9362C89.0837 54.7747 88.8395 55.4091 89.2493 56.2657C89.2863 56.343 89.3328 56.4153 89.3744 56.49C88.9687 56.6008 88.9226 56.6539 88.6948 57.0368C88.2347 57.8106 88.8779 58.7752 88.4611 59.5183L88.0244 59.5501C87.8127 59.6703 87.6813 59.7534 87.449 59.8467C86.8942 60.07 86.2133 59.6983 85.6903 59.4998L85.639 60.4641C84.7931 60.115 84.5839 59.2297 84.2317 58.4444L83.8586 58.3036C83.2437 57.3809 82.5453 56.5484 81.8319 55.7019C81.4616 55.3584 81.26 55.0147 81.02 54.5804C79.6313 52.0252 77.2629 50.3356 75.0225 48.5968L75.1329 48.0724Z" fill="#F8ED2A"/>
<path d="M104.866 44.1676C106.284 44.0722 107.615 44.0935 108.945 44.663C110.691 45.4106 112.02 46.9185 112.646 48.6999C112.688 48.8159 112.726 48.9329 112.762 49.0506C112.797 49.1684 112.829 49.2872 112.859 49.4066C112.888 49.5261 112.914 49.6463 112.938 49.7672C112.961 49.8881 112.981 50.0097 112.998 50.1316C113.015 50.2535 113.029 50.3758 113.04 50.4984C113.05 50.621 113.058 50.7437 113.062 50.8666C113.067 50.9896 113.068 51.1126 113.066 51.2359C113.064 51.3589 113.06 51.4819 113.051 51.6045C113.043 51.7275 113.032 51.8501 113.018 51.9724C113.003 52.0943 112.986 52.2162 112.965 52.3375C112.945 52.459 112.921 52.5799 112.894 52.6998C112.867 52.8199 112.837 52.9394 112.804 53.0578C112.772 53.1766 112.736 53.2944 112.697 53.4111C112.658 53.5278 112.616 53.6434 112.571 53.7583C112.526 53.8729 112.479 53.9861 112.428 54.0983C112.377 54.2104 112.324 54.3215 112.268 54.4309C111.159 56.5557 109.418 57.6073 107.199 58.2728C105.793 58.4887 104.36 58.3741 103.037 57.8225C101.361 57.1234 99.9671 55.7536 99.3173 54.0487C98.6482 52.2935 98.8861 50.4093 99.6715 48.7331C100.731 46.4716 102.56 45.0113 104.866 44.1676Z" fill="#203B53"/>
<path d="M105.399 46.1112L105.681 46.3194C105.447 46.5629 105.214 46.6929 104.926 46.8644C103.073 47.9719 101.92 49.5654 101.384 51.6462C101.221 52.2789 101.17 52.9863 100.9 53.5848C100.696 53.1051 100.473 52.6069 100.384 52.0909C100.171 50.8591 100.628 49.5545 101.342 48.5602C102.352 47.1551 103.719 46.3841 105.399 46.1112Z" fill="#FEFEFE"/>
<path d="M105.399 46.1112C106.889 46.0689 108.391 46.2083 109.501 47.3018C110.539 48.3244 111.092 49.8794 111.049 51.3248C111.002 52.9217 110.218 54.5787 109.005 55.6212C108.046 56.4461 106.881 56.7825 105.628 56.6424C103.983 56.4587 102.293 55.5346 101.304 54.2109C101.149 54.0033 101.018 53.8143 100.899 53.5848C101.169 52.9863 101.22 52.2789 101.384 51.6462C101.92 49.5654 103.072 47.9719 104.926 46.8644C105.213 46.6929 105.446 46.5629 105.68 46.3194L105.399 46.1112Z" fill="#DE235B"/>
<path d="M106.272 51.8558C106.821 52.05 106.9 52.0507 107.236 52.5164C107.265 52.8525 107.29 53.1062 107.135 53.422C106.885 53.9307 106.37 54.2685 105.833 54.4037C105.181 54.5679 104.677 54.1916 104.138 53.88C103.844 53.4653 103.478 52.9084 103.462 52.3931L103.598 52.3085C104.34 52.5038 104.925 53.0111 105.539 53.4541L106.272 51.8558Z" fill="#203B53"/>
<path d="M207.503 148.004C208.345 148 208.558 147.947 209.297 148.398C210.976 151.135 210.525 155.38 210.549 158.512C212.488 158.182 214.571 158.091 216.537 158.064C218.244 158.041 220.014 158.007 221.304 159.272C221.52 159.971 221.587 160.151 221.312 160.868C220.264 163.6 214.241 166.187 211.725 167.254C212.301 168.883 212.904 170.518 213.376 172.181C213.886 173.978 214.636 176.42 213.659 178.15C213.291 178.387 213.15 178.576 212.688 178.558C209.885 178.452 205.715 173.294 203.748 171.241L202.596 172.274C200.558 173.987 195.671 178.053 192.926 177.957C192.543 177.708 192.495 177.78 192.383 177.335C191.784 174.965 196.448 167.276 197.561 164.768C195.575 163.46 189.597 159.422 189.075 157.109C188.908 156.37 189.016 156.257 189.407 155.668C192.382 154.098 198.018 156.102 201.144 156.932C203.179 153.897 205.184 150.832 207.503 148.004Z" fill="#203B53"/>
<path d="M201.902 159.535C203.844 156.443 205.836 153.432 208.189 150.63C208.538 153.961 208.043 157.279 208.152 160.615C211.831 160.384 215.463 160.04 219.157 160.019C217.407 161.408 215.653 162.748 213.65 163.755C212.558 164.304 210.953 164.764 209.995 165.46C209.639 165.718 209.518 165.931 209.464 166.349C209.196 168.423 211.379 173.637 211.717 176.196C208.945 173.798 206.634 170.953 203.914 168.521C203.396 168.921 202.806 169.484 202.242 169.801C201.736 170.341 201.202 170.853 200.64 171.337C200.079 171.821 199.494 172.274 198.885 172.696C198.276 173.118 197.646 173.506 196.996 173.861C196.346 174.216 195.678 174.536 194.994 174.82C196.33 171.815 197.826 167.534 200.257 165.268C197.508 162.872 193.911 160.286 191.728 157.373C192.507 156.905 194.372 157.412 195.235 157.581C197.541 158.044 199.718 158.654 201.902 159.535Z" fill="#FBDB20"/>
<path d="M23.2917 66.9209C23.4839 66.383 23.4996 66.2356 23.9585 65.8686C26.0932 65.4328 28.6949 66.7046 30.6975 67.415C30.9367 66.1019 31.3617 64.7529 31.8005 63.4932C32.1813 62.3995 32.5701 61.2633 33.6757 60.7336C34.1716 60.7581 34.3015 60.7571 34.6949 61.0989C36.1941 62.4006 36.4474 66.8406 36.544 68.6922C37.7166 68.7022 38.8988 68.6969 40.0686 68.7817C41.3327 68.8732 43.0638 68.961 43.9404 69.9848C44.0062 70.2745 44.0936 70.4079 43.9753 70.6988C43.2577 72.4616 39.002 73.9243 37.2369 74.7025L37.6288 75.677C38.2486 77.3735 39.7078 81.4321 39.0104 83.1599C38.7627 83.346 38.7978 83.3933 38.4878 83.362C36.8381 83.1948 33.0167 78.4378 31.6755 77.1468C30.3811 78.1098 26.4207 80.9857 24.8247 80.7823C24.3149 80.7174 24.2675 80.6217 23.9828 80.2365C23.6716 77.9756 26.2559 74.8464 27.5096 73.0458C26.0465 71.0442 24.5572 69.0558 23.2917 66.9209Z" fill="#203B53"/>
<path d="M29.3455 73.166C27.8245 71.2111 26.3659 69.2427 25.1251 67.0925C27.3298 67.6427 29.3305 68.7276 31.4829 69.4311C32.1888 67.0319 32.8113 64.6362 33.6547 62.2763C34.134 63.7141 34.5821 65.1427 34.7599 66.6535C34.8569 67.477 34.7776 68.6075 34.9994 69.3795C35.0818 69.6664 35.1893 69.7928 35.4431 69.9241C36.7034 70.576 40.5342 70.3924 42.2442 70.7701C40.0729 71.9819 37.723 72.796 35.5414 73.9661C35.6768 74.3897 35.8986 74.8964 35.9699 75.3291C36.1972 75.7773 36.3999 76.2364 36.5783 76.7067C36.7568 77.1765 36.9099 77.6545 37.0376 78.1408C37.1652 78.6272 37.2671 79.1185 37.3427 79.6154C37.4182 80.1123 37.4674 80.6121 37.4898 81.1143C35.8836 79.5661 33.5008 77.6192 32.6197 75.5438C30.4546 76.7417 27.9719 78.4352 25.6079 79.1521C25.4904 78.5468 26.246 77.4752 26.5537 76.9642C27.384 75.6009 28.2773 74.3541 29.3455 73.166Z" fill="#FBDB20"/>
<path d="M50.4912 139.253C51.0437 139.398 51.192 139.401 51.5974 139.826C52.2169 141.915 51.1758 144.617 50.642 146.674C51.9709 146.798 53.3517 147.104 54.6447 147.432C55.7674 147.716 56.933 148.005 57.5568 149.061C57.5754 149.557 57.5877 149.686 57.2813 150.108C56.1147 151.714 51.7134 152.352 49.8772 152.609C49.9691 153.778 50.077 154.955 50.0942 156.128C50.1128 157.395 50.1755 159.128 49.2318 160.09C48.9489 160.18 48.8236 160.279 48.5235 160.187C46.705 159.625 44.8783 155.512 43.9498 153.821L43.013 154.296C41.3767 155.061 37.4602 156.867 35.6783 156.322C35.4715 156.092 35.4273 156.131 35.4317 155.819C35.455 154.161 39.8622 149.941 41.0319 148.493C39.9602 147.287 36.7512 143.591 36.8152 141.984C36.8357 141.47 36.9268 141.415 37.2858 141.098C39.5112 140.591 42.853 142.894 44.7557 143.987C46.6227 142.355 48.4742 140.699 50.4912 139.253Z" fill="#203B53"/>
<path d="M44.7954 145.826C46.6109 144.141 48.4452 142.517 50.4795 141.094C50.1228 143.338 49.2157 145.425 48.7018 147.631C51.1533 148.126 53.5939 148.538 56.0181 149.173C54.6274 149.776 53.2431 150.346 51.7534 150.654C50.9415 150.822 49.8084 150.842 49.0585 151.13C48.7798 151.237 48.6633 151.355 48.5545 151.619C48.0145 152.931 48.53 156.731 48.3022 158.468C46.9065 156.41 45.8915 154.14 44.5363 152.068C44.126 152.239 43.6406 152.504 43.2157 152.613C42.7889 152.878 42.3491 153.12 41.8961 153.339C41.4435 153.557 40.9807 153.751 40.5072 153.921C40.0338 154.09 39.5532 154.234 39.0647 154.353C38.5763 154.471 38.0827 154.563 37.5843 154.629C38.9872 152.895 40.7199 150.352 42.7109 149.294C41.3296 147.241 39.4268 144.915 38.5074 142.622C39.1002 142.452 40.2333 143.112 40.7692 143.374C42.1994 144.083 43.5191 144.865 44.7954 145.826Z" fill="#FBDB20"/>
<defs>
<linearGradient id="paint0_linear_2351_4407" x1="123.499" y1="107.259" x2="130.961" y2="53.0827" gradientUnits="userSpaceOnUse">
<stop stop-color="#583D69"/>
<stop offset="1" stop-color="#846482"/>
</linearGradient>
</defs>
</svg>
