<svg width="240" height="241" viewBox="0 0 240 241" fill="none" xmlns="http://www.w3.org/2000/svg">
<path d="M109.532 221.445C108.254 221.603 107.259 221.63 106.221 220.729C102.309 217.33 102.797 222.247 98.6598 221.991C96.5699 221.067 95.5124 219.415 94.5773 217.331C88.8306 215.71 83.2878 213.639 77.7197 211.464C76.1811 212.674 74.4988 214.303 72.5046 214.53C71.2527 214.672 70.4487 214.429 69.4686 213.642L69.3643 212.537C70.2181 210.08 71.5781 209.437 73.6916 208.292C72.5456 207.853 71.1066 207.46 70.0514 206.837C68.9086 206.161 68.9259 205.827 68.5105 204.58L68.5816 204.396C67.7768 202.765 65.9681 202.146 64.4572 201.353C64.3901 201.416 64.3222 201.479 64.2559 201.544C63.1967 202.583 62.1084 203.828 60.7286 204.39C59.5076 204.886 58.6703 204.739 57.4927 204.248C57.1073 203.536 56.9241 203.382 56.9178 202.526C56.902 200.242 58.7177 198.725 60.1078 197.185L54.7087 191.288C53.2649 191.764 51.6869 192.466 50.187 191.845C49.2756 191.468 48.7677 190.978 48.5995 189.95C48.3807 188.61 49.2733 187.406 49.9312 186.349C47.7963 183.605 34.4447 166.575 34.0174 165.22C34.2085 164.1 34.1935 163.821 34.9099 162.988L35.8221 163.016C38.2681 164.298 39.6344 166.46 41.049 168.782C39.1906 162.075 36.9436 154.862 35.9421 147.974C35.4224 144.402 37.1016 139.952 35.7455 136.608C34.9217 135.914 34.3941 135.604 34 134.538C34.2898 132.551 35.3119 130.734 35.5054 128.786C35.7692 126.132 35.6665 123.407 35.9287 120.73C37.532 104.375 41.6358 89.2158 50.8907 75.6469C61.3691 60.2821 83.9796 44.2983 100.855 37.7863C108.835 34.7064 117.204 33.0496 125.568 31.5903C126.812 29.7574 128.291 27.8915 130.315 27.0001C131.855 27.3976 132.13 28.6643 133.314 29.6536C134.867 30.9508 137.04 30.4323 138.905 30.2956C141.778 30.2109 144.67 30.4158 147.527 30.7179C168.351 32.9179 184.312 41.1328 197.562 58.0705L200.867 54.9215C202.255 55.7783 203.852 56.6433 204.2 58.4483C204.701 61.0459 202.592 63.8245 201.363 65.9175C202.048 66.7324 205.249 71.2024 206.128 71.1958C206.988 71.1884 207.786 70.4468 208.687 70.711C209.633 70.9892 210.361 71.7531 210.768 72.6724C211.448 74.2049 209.954 77.1005 209.393 78.5688C210.87 81.3548 211.963 84.1548 213.035 87.1351C213.66 86.4232 214.267 85.7689 215.115 85.3442C216.077 84.8611 217.057 84.9862 218.029 85.3269C218.484 85.7648 218.865 86.1574 219.113 86.7632C220.738 90.7393 218.636 93.2027 217.343 96.7213C216.941 97.816 216.811 98.3888 217.209 99.4802C218.227 100.181 219.042 100.772 219.817 101.781C220.159 103.638 219.475 105.037 218.829 106.721C219.095 107.633 219.202 108.024 219.86 108.733C220.632 109.566 220.219 108.99 220.854 109.895C221.882 111.363 220.98 114.656 220.716 116.362C222.347 114.815 223.33 113.178 224.644 111.374C225.476 110.231 226.214 109.773 227.556 109.555C228.294 110.084 228.76 110.33 228.95 111.334C229.667 115.145 222.483 121.721 220.506 124.831C218.095 128.626 218.311 135.237 216.983 139.664C214 149.604 208.946 159.857 203.301 168.409C187.534 192.296 164.601 211.403 137.018 217.533C127.897 219.56 118.643 219.68 109.532 221.445Z" fill="#54E6ED"/>
<path d="M44.924 106.742L44.6792 106.391C45.0378 104.229 45.8465 102.576 47.295 100.985C47.6528 101.631 47.9387 101.887 47.8913 102.671C47.7744 104.591 46.2367 105.622 44.924 106.742Z" fill="white"/>
<path d="M156.782 158.943C157.896 157.927 159.001 156.854 160.204 155.953C160.886 155.444 161.094 155.117 161.934 155.248C162.2 156.696 161.686 157.918 160.908 159.112C160.215 160.178 159.086 161.459 157.837 161.717L156.919 160.972L156.782 158.943Z" fill="white"/>
<path d="M156.917 160.97L156.478 160.943L156.623 161.366C156.989 162.46 157.233 163.279 157.189 164.46C156.068 164.64 155.777 163.553 154.832 164.485C154.712 164.602 154.286 165.33 154.212 165.449C153.661 166.335 153.258 166.79 152.417 167.362C151.484 167.242 151.356 167.132 150.606 166.523C150.413 165.366 150.465 164.846 151.117 163.847C152.399 161.881 154.81 160.113 156.781 158.941L156.917 160.97Z" fill="white"/>
<path d="M132.649 212.78C131.773 212.895 131.69 213.081 130.912 212.566C132.712 209.96 137.511 207.456 140.04 205.413C147.177 199.649 157.745 190.953 163.491 183.922L164.787 182.969L164.842 183.395C161.848 187.568 157.712 191.174 153.997 194.643C147.998 200.245 142.13 205.555 136.937 212.012C135.522 212.319 134.074 212.528 132.649 212.78Z" fill="white"/>
<path d="M85.806 207.314C84.705 207.035 84.0818 206.912 83.2225 206.09L83.2391 205.343C87.339 200.789 92.5051 196.966 97.0733 192.903C103.537 187.154 109.763 181.152 116.107 175.263L117.645 174.417C115.337 177.397 112.343 180.031 109.691 182.698C101.735 190.697 92.8913 198.488 85.806 207.314Z" fill="white"/>
<path d="M180.774 123.565L180.624 123.478C183.093 119.346 187.151 115.663 190.201 111.918C195.795 105.049 200.6 97.9214 205.069 90.2052C205.654 89.197 206.437 87.1903 207.524 86.9072L209.174 92.3707C200.58 103.697 191.046 113.913 180.774 123.565Z" fill="white"/>
<path d="M194.507 143.389L194.382 142.923C196.534 139.181 212.581 112.427 213.745 111.539C213.938 114.62 214.215 117.518 214.846 120.542C208.508 128.489 201.293 135.845 194.507 143.389Z" fill="white"/>
<path d="M163.411 202.234L163.094 201.902C168.023 196.792 173.45 192.202 178.39 187.087C187.613 177.536 196.022 167.329 204.404 156.993C204.65 157.245 204.503 157.05 204.594 157.71C194.495 176.434 180.352 190.358 163.411 202.234Z" fill="white"/>
<path d="M62.716 191.734C61.149 190.774 59.9517 189.389 58.673 188.061C62.2468 185.669 65.4313 182.345 68.5566 179.36C77.9268 170.411 86.5839 160.913 95.1153 151.111C95.6287 150.585 96.1879 150.135 96.7471 149.662C96.3285 153.7 66.9833 185.822 62.716 191.734Z" fill="white"/>
<path d="M73.0481 200.302L69.2878 197.291C78.2442 192.551 104.82 162.501 113.199 153.334C113.812 152.707 114.15 152.442 114.984 152.213C114.289 154.416 85.3754 187.423 81.747 191.412C78.9329 194.466 76.0336 197.43 73.0481 200.302Z" fill="white"/>
<path d="M125.978 138.423C125.957 137.978 125.907 138.044 126.107 137.631C127.607 134.543 136.515 125.802 139.396 122.636C147.912 113.312 156.378 103.939 164.793 94.5155C169.71 88.9689 174.92 83.3515 179.345 77.3728C181.403 74.5925 190.626 60.6533 192.586 59.9372C192.942 60.6031 193.156 61.1882 193.35 61.9232C181.928 80.0922 160.384 101.587 145.608 117.671C140.059 123.711 131.991 133.621 125.978 138.423Z" fill="white"/>
<path d="M102.632 73.7886C103.461 70.0347 126.925 42.8409 130.791 36.3708L137.909 36.3939C137.914 36.4638 137.93 36.5338 137.925 36.6029C137.814 38.0103 135.768 39.9914 134.833 41.026C130.087 46.2804 124.686 50.897 119.725 55.9332C113.951 61.7951 108.567 68.1046 102.632 73.7886Z" fill="white"/>
<path d="M42.7109 135.299C42.1777 134.714 42.1478 134.518 42.0538 133.734C41.7915 131.562 41.6272 126.586 42.9225 124.811L44.2391 125.047C47.1251 123.792 69.2696 93.6099 73.8284 88.5127L74.1846 88.4608C74.2051 90.6304 46.4419 130.422 42.7109 135.299Z" fill="white"/>
<path d="M44.417 153.805L44.0719 153.666C43.0925 152.179 42.9638 149.159 42.6526 147.356C45.6705 143.555 49.6076 140.514 52.74 136.771C61.2027 126.657 72.6675 110.588 82.1555 102.355L82.8213 102.001C82.473 103.657 49.0421 148.015 44.417 153.805Z" fill="white"/>
<path d="M121.573 98.1195C122.047 93.9013 149.339 63.3444 153.922 57.5534C158.148 52.2126 162.012 46.8043 165.575 40.9606L170.189 42.9565C171.047 43.5227 170.696 43.168 171.259 44.0034C170.111 46.7681 136.507 80.6476 131.532 86.0526C128.006 89.8823 124.803 94.0214 121.573 98.1195Z" fill="white"/>
<path d="M79.0389 70.2255C78.6156 70.1029 78.9165 70.2107 78.2215 69.7111C78.5343 68.2214 80.2355 66.8073 81.1928 65.581C80.4985 65.576 77.7452 67.879 76.9941 68.4033C78.7878 65.9341 81.6911 63.7242 83.8662 61.5743C91.7888 53.7471 98.3892 46.7247 108.539 42.1164C111.432 40.9666 114.293 40.0637 117.294 39.2719C111.79 43.4926 106.778 48.3486 101.514 52.8804C94.2798 59.0245 86.7877 64.8057 79.0389 70.2255Z" fill="white"/>
<path d="M110.613 88.2262C110.571 85.4204 131.895 60.6068 135.262 56.0282C139.887 49.7729 144.25 43.3251 148.352 36.6855C151.143 36.8369 153.801 37.2616 156.518 37.9192C157.151 38.0682 156.871 37.8921 157.286 38.5563C155.109 43.2913 143.981 52.1565 139.861 56.0603C129.265 66.1016 120.226 77.2342 110.613 88.2262Z" fill="white"/>
<path d="M54.3974 182.165C52.956 180.983 52.0003 179.622 50.9167 178.105C56.0473 170.464 63.5797 164.108 69.6169 157.198C78.988 146.472 87.5652 135.061 96.7325 124.155C97.2774 123.604 97.8674 123.111 98.4503 122.604L98.6201 122.794C96.2199 126.799 93.1997 130.322 90.5444 134.141C83.9748 143.592 77.4968 152.909 70.3072 161.872C64.9776 168.515 59.1172 175.046 54.3974 182.165Z" fill="white"/>
<path d="M49.261 172.306C47.6988 170.506 46.7281 166.046 45.8925 163.671C49.9584 160.593 53.4588 156.295 56.8953 152.492C69.7019 138.32 80.9638 122.724 93.1789 108.004L94.3818 106.685C94.6021 108.414 59.6809 155.617 55.9862 161.011C53.4959 164.648 51.2916 168.37 49.261 172.306Z" fill="white"/>
<path d="M122.96 120.761C122.897 120.426 122.919 120.078 123.045 119.756C125.201 114.261 153.832 81.4462 159.52 74.614C164.575 68.5916 169.422 62.394 174.062 56.0194C175.371 54.2177 178.46 48.9008 180.282 48.3609L181.764 49.384C182.401 50.0268 182.816 50.5049 183.196 51.3436C182.405 54.3766 140.634 100.059 134.029 107.582C130.252 111.887 126.622 116.349 122.96 120.761Z" fill="white"/>
<path d="M116.943 213.992C115.533 214.079 113.636 214.181 112.457 213.351C114.977 209.25 123.966 202.695 127.855 199.186C133.989 193.556 140.093 187.89 146.168 182.189C148.855 179.677 153.999 173.832 156.794 172.206L156.893 172.924L156.998 172.48C157.414 173.305 157.725 173.864 158.409 174.474C158.599 173.812 157.872 172.092 157.686 171.362L158.204 170.563L158.719 170.562C159.144 171.478 159.524 172.392 159.888 173.336C160.337 172.134 159.619 170.741 160.168 169.444C160.851 169.74 160.493 169.667 161.242 169.657L161.858 168.43L162.01 168.421C162.458 168.764 162.859 169.029 163.351 169.312L163.666 169.011L163.106 167.126L163.777 167.062C164.666 167.601 164.839 167.608 165.239 168.575C163.585 171.005 160.178 175.068 157.78 176.614C157.165 175.787 157.53 176.107 156.709 175.623L156.09 176.468C156.01 177.776 156.042 179.257 155.23 180.335C154.673 181.074 154.064 181.566 153.185 181.608L152.448 180.21L151.851 180.057C151.338 180.586 151.159 180.822 150.992 181.578C150.793 182.483 150.583 183.352 150.334 184.244C149.456 185.134 149.308 184.994 148.063 185.068C147.921 185.827 147.788 186.523 147.278 187.122C146.056 188.558 144.278 189.841 142.903 191.176C138.784 195.188 134.717 199.257 130.704 203.385C128.507 205.605 126.044 207.667 124.205 210.223C124.035 211.734 124.483 212.298 125.097 213.653C122.38 213.706 119.659 213.87 116.943 213.992Z" fill="white"/>
<path d="M150.086 137.308C148.29 139.123 146.551 141.01 144.513 142.532C146.884 137.802 154.527 130.463 158.301 126.131C172.948 109.329 189.09 92.2131 199.119 71.8548C200.187 73.6779 201.22 75.4474 202.547 77.0853C196.999 86.1488 190.917 94.8049 184.301 103.053C179.942 108.394 174.352 113.104 170.935 119.117C170.626 119.661 170.291 120.121 169.888 120.593C167.68 124.179 165.446 126.433 162.223 129.044C161.164 130.299 160.093 131.543 159.009 132.775C156.649 134.332 155.031 138.223 152.108 138.583C151.368 138.674 150.653 137.779 150.086 137.308Z" fill="white"/>
<path d="M169.888 120.596C167.681 124.182 165.446 126.436 162.223 129.047C161.922 126.907 163.988 126.844 162.387 124.638C164.413 122.61 166.393 120.573 168.629 118.799C169.164 118.375 168.942 118.593 169.365 118.065L170.056 118.039C170.004 118.892 169.949 119.744 169.888 120.596Z" fill="#54E6ED"/>
<path d="M159.008 132.776C156.648 134.333 155.031 138.224 152.108 138.583C151.367 138.675 150.652 137.78 150.086 137.309C152.189 135.152 154.254 132.923 156.421 130.837C158.317 128.812 160.248 126.351 162.386 124.636C163.987 126.841 161.921 126.905 162.222 129.045C161.163 130.3 160.092 131.544 159.008 132.776Z" fill="#54E6ED"/>
<path d="M50.7566 148.965C50.4492 148.688 50.1593 148.392 49.8611 148.106C50.0613 147.294 50.3076 146.509 50.6897 145.747C51.1468 144.842 51.4356 143.853 51.8153 142.907C52.2979 141.705 52.7988 140.51 53.2904 139.311C53.6241 138.498 53.9482 137.679 54.2897 136.868C55.4042 134.222 56.5166 131.575 57.6447 128.934C58.6092 126.678 59.5814 124.424 60.5736 122.18C61.3981 120.317 62.2614 118.47 63.0982 116.612C63.6688 115.345 64.2183 114.068 64.7844 112.799C65.691 110.77 66.6074 108.744 67.5107 106.713C68.0757 105.443 68.6154 104.162 69.181 102.892C70.067 100.904 70.9641 98.9207 71.8592 96.9366C72.8886 94.6561 73.9059 92.3695 74.9553 90.098C75.9654 87.9113 77.0149 85.7417 78.0399 83.5612C79.2228 81.045 80.3885 78.52 81.5811 76.008C82.2965 74.5003 83.0462 73.0075 83.7848 71.5104C85.5911 67.8514 87.394 64.1915 89.2098 60.5372C90.0967 58.751 91.0117 56.9782 91.912 55.1985C93.6709 51.7218 95.4302 48.2461 97.1852 44.7677C97.7074 43.7328 98.2605 42.7097 98.72 41.6472C99.1973 40.5453 99.7994 39.4877 100.049 38.2945C101.944 40.2733 103.817 42.2737 105.741 44.2234C107.241 45.744 108.809 47.1987 110.341 48.688C115.611 53.8089 121.093 58.6982 126.666 63.4803L127.023 63.787C131.771 67.8618 136.519 71.936 141.221 76.0652C143.839 78.3643 146.509 80.6071 149.202 82.8185C152.144 85.2356 155.141 87.5863 158.114 89.966C157.746 90.1716 157.441 90.4055 157.321 90.8595C156.814 92.7699 156.027 94.5784 155.293 96.4085C154.73 97.8119 154.273 99.2573 153.768 100.684C153.687 100.659 153.605 100.637 153.521 100.62C151.812 98.4412 149.756 96.6562 147.409 95.1972C147.056 94.9776 146.693 94.7668 146.367 94.5117C142.931 91.8223 139.504 89.1208 136.068 86.43C132.522 83.6534 128.969 80.8863 125.421 78.1127C121.359 74.9383 117.248 71.8324 112.92 69.0247C110.542 67.4814 108.106 66.0339 105.475 64.9634C103.753 64.2628 101.983 63.6952 100.07 63.8403C97.9685 63.9989 96.2369 64.8825 94.8893 66.4925C94.5989 66.8402 94.3487 67.2616 94.2168 67.6916C94.0466 68.2486 93.7603 68.6942 93.37 69.1048C92.0493 70.4958 90.9816 72.0753 90.0645 73.7479L89.8612 74.1183C88.4104 76.7622 86.9584 79.4082 85.6195 82.1095C84.7572 83.8502 84.1379 85.711 83.3757 87.5038C82.8145 88.8245 82.5809 90.2706 81.8146 91.5125C81.6972 91.7028 81.6416 91.948 81.6141 92.1748C81.4047 93.9243 81.2091 95.676 81.0094 97.4274C80.9379 98.0527 81.026 98.6247 81.4731 99.1159C81.6239 99.2813 81.7083 99.5135 81.7973 99.7259C82.658 101.783 84.0235 103.46 85.6836 104.917C86.0295 105.288 86.344 105.694 86.7255 106.023C90.0255 108.873 93.3293 111.719 96.6482 114.546C99.6501 117.103 102.756 119.53 105.921 121.884C108.264 123.627 110.526 125.48 112.876 127.213C116.049 129.553 119.307 131.771 122.759 133.693C124.869 134.868 127.041 135.91 129.303 136.749C130.298 137.118 131.344 137.378 132.387 137.587C133.686 137.848 134.971 137.655 136.22 137.228C135.598 138.365 135.015 139.526 134.344 140.633C133.069 142.737 131.757 144.818 130.431 146.89C129.882 147.749 129.253 148.557 128.674 149.399C128.5 149.652 128.295 149.796 127.985 149.77C127.473 148.838 127.022 147.865 126.432 146.986C125.756 145.976 124.888 145.144 123.651 144.808C122.939 144.615 122.292 144.623 121.704 145.154C121.468 145.366 121.156 145.49 120.886 145.666C119.62 146.487 119.28 147.831 119.98 149.174C120.327 149.837 120.86 150.331 121.397 150.828L121.42 150.849C122.166 151.54 122.929 152.216 123.633 152.949C124.044 153.376 124.353 153.9 124.709 154.382C123.804 155.78 122.589 156.912 121.493 158.146C121.283 158.384 121.086 158.635 120.882 158.879C110.144 168.69 98.7068 170.149 94.3305 169.652C93.8028 169.281 93.1745 169.325 92.589 169.296C90.226 169.179 87.9007 168.859 85.6208 168.207C84.106 167.775 82.5833 167.366 81.0551 166.983C79.164 166.51 77.3987 165.707 75.5903 165.005C72.5567 163.828 69.7295 162.259 66.941 160.618C64.6685 159.28 62.4009 157.928 60.2838 156.343C59.0958 155.453 57.8773 154.603 56.6593 153.753L56.4413 153.601C56.3141 153.512 56.1004 153.549 55.9262 153.528C55.6428 153.296 55.3494 153.075 55.0766 152.832C53.6335 151.546 52.1935 150.257 50.7566 148.965Z" fill="#B8D05A"/>
<path d="M136.22 137.228C135.598 138.365 135.015 139.526 134.344 140.634C133.069 142.737 131.757 144.818 130.431 146.89C129.882 147.749 129.253 148.558 128.675 149.399C128.5 149.652 128.295 149.796 127.985 149.77C128.034 149.947 128.076 150.127 128.135 150.3C128.779 152.202 129.106 154.155 128.996 156.162C128.961 156.801 128.796 157.436 128.658 158.066C128.487 158.848 127.592 159.121 127.101 158.417C126.813 158.003 126.544 157.574 126.289 157.138C125.755 156.224 125.235 155.301 124.71 154.382C123.806 155.781 122.591 156.913 121.495 158.147C121.284 158.385 109.889 168.974 94.3317 169.653C93.804 169.282 93.1757 169.327 92.5903 169.298C90.2266 169.18 87.9013 168.86 85.6221 168.209C84.1072 167.776 82.5846 167.368 81.0564 166.985C79.1652 166.511 77.3993 165.708 75.5915 165.007C72.5586 163.83 69.7315 162.26 66.9422 160.619C64.6698 159.282 62.4028 157.93 60.2851 156.344C59.0921 155.451 57.8697 154.598 56.6474 153.745L56.4426 153.602C56.3161 153.513 56.1016 153.55 55.9275 153.529C56.4883 154.084 57.049 154.64 57.6117 155.193C62.8161 160.305 68.0346 165.403 73.2225 170.532C83.3403 180.532 93.8374 190.115 104.69 199.311C107.526 201.713 110.289 204.201 113.104 206.628C114.546 207.872 116.021 209.078 117.496 210.283L117.603 210.371C117.899 210.613 118.112 210.884 118.286 211.221C118.424 211.489 118.807 211.558 119.006 211.351L119.012 211.344C119.292 211.052 119.596 210.734 119.742 210.369C120.876 207.511 122.32 204.805 123.746 202.09C123.962 201.679 124.186 201.271 124.406 200.862C124.507 200.608 124.592 200.346 124.712 200.1C125.257 198.985 125.812 197.875 126.363 196.764L126.529 196.429C127.35 194.766 128.171 193.103 129.002 191.444C129.018 191.413 129.162 191.446 129.247 191.449L129.612 190.926C129.426 190.669 129.473 190.407 129.62 190.159C129.64 190.125 129.772 190.159 129.853 190.161C130.006 189.937 130.188 189.728 130.306 189.487C130.468 189.155 130.565 188.793 130.718 188.457C131.292 187.194 131.88 185.937 132.461 184.675C133.503 182.406 134.545 180.137 135.585 177.867C136.182 176.563 136.774 175.258 137.369 173.953C138.194 172.143 139.014 170.33 139.848 168.524C140.604 166.886 141.386 165.259 142.14 163.619C143.165 161.391 144.158 159.148 145.194 156.926C146.015 155.164 146.885 153.424 147.723 151.67C149.238 148.496 150.735 145.312 152.261 142.144C153.708 139.14 155.185 136.153 156.649 133.157C156.427 132.618 156.548 132.178 157.028 131.845C157.027 131.847 157.027 131.849 157.026 131.851L157.037 131.839C157.034 131.841 157.031 131.843 157.028 131.845C157.256 131.251 157.471 130.65 157.717 130.064C158 129.388 158.298 128.718 158.61 128.055C159.545 126.069 160.49 124.088 161.442 122.11C161.456 122.079 161.601 122.112 161.684 122.115C161.801 121.975 161.957 121.851 162.027 121.69C162.807 119.911 163.605 118.139 164.337 116.341C165.156 114.327 166.136 112.386 166.894 110.342C167.537 108.611 168.335 106.937 169.068 105.24C169.361 104.561 169.614 103.856 169.981 103.217C170.322 102.623 170.79 102.101 171.202 101.548C170.92 101.178 170.637 100.808 170.355 100.438C168.974 99.2842 167.6 98.1219 166.21 96.9778C165.32 96.2452 164.408 95.54 163.506 94.8228C162.44 93.9476 161.363 93.0838 160.313 92.1891C159.937 91.8687 159.623 91.4757 159.282 91.1144C159.283 91.1149 159.284 91.1154 159.285 91.1159L159.272 91.1038C159.275 91.1073 159.279 91.1108 159.282 91.1144C159.141 91.0354 158.822 91.0552 159.084 90.7528C158.761 90.4915 158.438 90.2295 158.116 89.9682C157.749 90.174 157.443 90.4086 157.323 90.8618C156.816 92.7722 156.028 94.5807 155.294 96.4108C154.732 97.8142 154.275 99.2596 153.77 100.687C153.974 100.995 154.165 101.313 154.38 101.612C155.306 102.901 155.75 104.32 155.655 105.92C155.568 107.378 155.181 108.749 154.626 110.084C153.573 112.62 152.234 115.004 150.722 117.287C147.417 122.273 144.082 127.238 140.751 132.207C140.313 132.861 139.818 133.478 139.365 134.122C138.502 135.346 137.481 136.408 136.22 137.228Z" fill="#72962D"/>
<path d="M129.609 190.924C129.487 191.099 129.366 191.273 129.243 191.447C128.425 193.272 127.607 195.098 126.785 196.92C126.749 196.997 126.658 197.049 126.594 197.112C126.169 198.086 125.757 199.065 125.317 200.032C125.052 200.615 124.744 201.179 124.454 201.752C123.564 203.791 122.678 205.832 121.782 207.868C121.17 209.262 120.544 210.65 119.893 212.111C120.104 212.245 120.271 212.408 120.47 212.467C121.688 212.834 122.872 212.636 123.972 212.076C124.405 211.856 124.767 211.444 125.078 211.053C125.361 210.696 125.549 210.257 125.75 209.84C127.076 207.083 128.392 204.321 129.719 201.564C129.818 201.359 129.976 201.182 130.105 200.994C130.359 200.401 130.606 199.801 130.87 199.21C133.746 192.767 136.584 186.307 139.514 179.89C141.808 174.866 144.198 169.887 146.579 164.903C148.219 161.469 149.92 158.064 151.584 154.642C152.192 153.391 152.772 152.126 153.366 150.868C153.533 150.386 153.676 149.895 153.871 149.427C154.8 147.2 155.727 144.973 156.684 142.758C158.269 139.097 159.831 135.425 161.485 131.795C163.872 126.56 166.556 121.47 169.244 116.384C169.37 116.145 169.558 115.937 169.717 115.715C169.829 115.413 169.92 115.1 170.057 114.81C171.409 111.972 172.771 109.137 174.124 106.3C174.461 105.594 174.78 104.879 175.107 104.168C175.388 103.008 175.572 101.813 175.984 100.701C176.248 99.9854 176.279 99.3853 175.977 98.7269C175.452 98.2171 174.927 97.7074 174.402 97.1974C174.005 96.8713 173.607 96.5458 173.21 96.2197C172.876 95.9713 172.533 95.7334 172.209 95.4725C161.52 86.8866 150.867 78.257 140.376 69.4294C135.433 65.2703 130.447 61.16 125.554 56.9422C119.244 51.5022 113.341 45.643 107.924 39.303C107.656 38.9892 107.383 38.6182 107.029 38.4524C106.174 38.0514 105.68 37.3448 105.193 36.6022C104.434 35.4472 104.277 34.2846 105.104 33.0928C105.107 32.8929 105.112 32.6932 105.115 32.4933C105.16 32.2654 105.209 32.038 105.248 31.8092C105.416 30.8204 105.995 30.1604 106.837 29.6396C107.982 28.9307 109.212 28.6495 110.54 28.6074C112.272 28.5525 113.968 28.8432 115.64 29.1799C118.965 29.8497 122.166 30.9833 125.373 32.0716C126.292 32.3838 127.188 32.769 128.087 33.1384C129.114 33.561 130.133 34.0019 131.154 34.4394C132.559 35.0412 133.986 35.5969 135.36 36.2608C139.79 38.3985 144.059 40.8423 148.382 43.182C152.013 45.1476 155.585 47.2211 159.19 49.2361C161.861 50.7301 164.539 52.2122 167.222 53.6875C167.95 54.0877 168.702 54.4452 169.443 54.8222C169.85 54.9653 170.339 54.9554 170.573 55.4242L170.556 55.4118C172.141 55.8964 173.535 56.7488 174.896 57.6649C175.15 57.7762 175.411 57.8701 175.654 58.0008C178.206 59.382 180.759 60.7632 183.305 62.1565C184.394 62.7516 185.467 63.3739 186.548 63.9834C186.842 64.1165 187.144 64.2337 187.43 64.3839C192.064 66.814 196.764 69.1067 201.531 71.2641C201.664 71.299 201.809 71.3111 201.93 71.3716C203.577 72.2075 205.284 72.8844 207.077 73.3361C207.654 73.3072 208.232 73.2778 208.813 73.2492C208.807 73.3986 208.835 73.5052 208.795 73.5695C207.408 75.8005 206.439 78.2337 205.377 80.6209C204.488 82.6776 203.599 84.7341 202.708 86.7901C202.691 86.8289 202.645 86.8556 202.613 86.8882C201.709 89.0254 200.868 91.1909 199.892 93.2949C196.239 101.168 192.516 109.01 188.871 116.888C186.629 121.732 184.447 126.604 182.297 131.489C179.978 136.757 177.789 142.083 175.431 147.334C172.941 152.88 170.318 158.367 167.753 163.88C167.684 164.098 167.634 164.325 167.539 164.531C166.889 165.953 166.228 167.371 165.571 168.789C164.736 170.686 163.908 172.587 163.062 174.478C162.857 174.936 162.589 175.365 162.35 175.807C162.201 176.196 162.074 176.594 161.901 176.971C160.802 179.367 159.702 181.761 158.584 184.148C158.273 184.813 157.901 185.448 157.556 186.097C157.461 186.336 157.366 186.573 157.271 186.812C157.221 187.224 157.091 187.6 156.769 187.885C156.532 188.49 156.285 189.091 156.06 189.701C155.883 190.179 155.678 190.658 155.583 191.154C155.434 191.937 156.101 192.581 156.84 192.357C157.739 192.084 158.584 191.693 158.995 190.741C159.309 190.016 159.638 189.298 159.954 188.575C161.335 185.425 162.704 182.27 164.097 179.125C165.659 175.599 167.23 172.076 168.82 168.562C170.334 165.218 171.894 161.894 173.403 158.547C175.009 154.989 176.578 151.414 178.164 147.847C179.731 144.322 181.299 140.798 182.868 137.274C184.682 133.198 186.499 129.124 188.31 125.046C189.876 121.521 191.457 118.003 192.991 114.463C194.247 111.564 195.465 108.647 196.663 105.723C198.284 101.766 199.831 97.7806 201.661 93.9119C202.376 92.4005 203.013 90.8517 203.676 89.3155C203.882 88.8402 204.104 88.4351 204.61 88.1617C204.94 87.9836 205.194 87.5734 205.369 87.2121C206.136 85.6221 206.857 84.0097 207.603 82.4091C208.545 80.3876 209.504 78.3728 210.438 76.348C210.808 75.5469 211.164 74.7369 211.472 73.9103C211.754 73.1507 211.853 72.3738 211.185 71.6558C211.457 71.543 211.668 71.4556 211.82 71.3925C211.942 71.0343 211.779 70.8562 211.585 70.7332C211.075 70.4125 210.568 70.0821 210.029 69.8171C205.319 67.5037 200.578 65.2523 195.893 62.8892C186.521 58.1628 177.184 53.3683 167.825 48.6185C161.155 45.2339 154.622 41.5954 148.076 37.9823C143.319 35.3564 138.563 32.726 133.667 30.3641C129.562 28.3843 125.4 26.5335 121.032 25.215C117.139 24.0397 113.147 23.4396 109.067 23.6498C106.385 23.7875 103.819 24.4025 101.516 25.8441C100.774 26.3092 100.08 26.8719 99.4308 27.463C98.6864 28.1407 98.154 28.9438 98.4446 30.0513C98.4859 30.2076 98.3677 30.4057 98.3243 30.5841C98.217 31.0329 98.1323 31.4893 97.9961 31.9303C97.6702 32.9875 97.6702 34.0229 98.1075 35.0497C98.1605 35.1752 98.1729 35.318 98.2048 35.4523C98.82 36.3975 99.4357 37.3435 100.051 38.2893C101.945 40.2681 103.818 42.2685 105.742 44.2182C107.243 45.7388 108.81 47.194 110.343 48.6828C115.613 53.8029 121.094 58.6928 126.667 63.4751C131.535 67.6522 136.403 71.8273 141.223 76.0601C143.841 78.3591 146.511 80.6019 149.203 82.8133C152.146 85.2297 155.143 87.5811 158.116 89.9608C158.438 90.2227 158.761 90.4839 159.083 90.746C159.151 90.8673 159.218 90.988 159.285 91.1091L159.272 91.097C159.444 91.1633 159.646 91.1914 159.781 91.3013C161.133 92.4043 162.474 93.5208 163.819 94.634C164.585 95.2288 165.364 95.8082 166.115 96.4213C167.654 97.6783 169.179 98.9538 170.709 100.221C171.035 100.43 171.433 100.557 171.605 100.948C171.454 101.17 171.327 101.355 171.201 101.54C170.789 102.094 170.32 102.616 169.979 103.21C169.612 103.849 169.36 104.554 169.066 105.233C168.333 106.93 167.535 108.604 166.893 110.335C166.134 112.378 165.155 114.32 164.335 116.334C163.604 118.132 162.806 119.904 162.026 121.683C161.955 121.844 161.799 121.967 161.683 122.108C161.532 122.547 161.421 123.004 161.224 123.421C159.977 126.058 158.713 128.687 157.445 131.313C157.349 131.511 157.167 131.668 157.026 131.844L157.037 131.832C156.908 132.271 156.778 132.711 156.649 133.151C155.185 136.146 153.709 139.135 152.261 142.137C150.734 145.305 149.238 148.489 147.722 151.663C146.885 153.418 146.014 155.156 145.193 156.919C144.158 159.141 143.165 161.385 142.14 163.612C141.386 165.252 140.604 166.879 139.848 168.518C139.014 170.324 138.194 172.136 137.369 173.946C136.774 175.251 136.182 176.557 135.584 177.861C134.545 180.131 133.503 182.4 132.46 184.669C131.881 185.929 131.292 187.186 130.717 188.45C130.564 188.786 130.467 189.149 130.306 189.48C130.188 189.721 130.006 189.93 129.853 190.154C129.77 190.414 129.689 190.669 129.609 190.924Z" fill="#72962D"/>
<path d="M173.211 96.22C173.609 96.5462 174.006 96.8716 174.404 97.1978C174.851 97.3334 175.203 97.2154 175.525 96.8645C176.434 95.8711 177.373 94.9061 178.286 93.9158C179.353 92.7587 180.274 91.4465 181.745 90.7285C181.786 90.709 181.814 90.6669 181.851 90.6384C183.543 89.3418 185.218 88.0263 186.971 86.8065C188.914 85.4551 190.86 84.1169 192.917 82.9411C193.356 82.6896 193.747 82.3537 194.166 82.0635C194.565 81.7875 194.947 81.4672 195.604 81.3699C195.138 82.1721 194.736 82.8389 194.358 83.5194C192.982 85.9925 191.569 88.447 190.256 90.9526C188.986 93.3733 187.821 95.8485 186.612 98.3014C186.12 99.2996 185.621 100.294 185.151 101.302C184.328 103.065 183.523 104.835 182.713 106.605C181.885 108.416 181.058 110.227 180.236 112.041C179.586 113.474 178.941 114.91 178.302 116.348C177.738 117.617 177.17 118.885 176.629 120.165C175.998 121.657 175.415 123.17 174.775 124.658C173.879 126.741 172.945 128.808 172.037 130.886C171.723 131.607 171.435 132.34 171.14 133.07C170.739 134.056 170.35 135.047 169.945 136.032C169.522 137.059 169.078 138.076 168.656 139.103C168.269 140.046 167.912 141 167.519 141.94C166.822 143.604 166.101 145.258 165.404 146.923C165.01 147.862 164.653 148.817 164.262 149.757C163.835 150.782 163.388 151.799 162.948 152.818C162.509 153.838 162.067 154.856 161.626 155.875C160.817 157.745 159.997 159.61 159.201 161.485C158.568 162.977 157.982 164.488 157.344 165.977C156.706 167.466 156.016 168.932 155.375 170.42C154.386 172.716 153.429 175.023 152.403 177.304C151.356 179.631 150.271 181.935 149.042 184.171C146.999 187.89 144.624 191.358 141.627 194.395C139.725 196.322 137.628 197.992 135.444 199.566C134.241 200.432 133.035 201.297 131.793 202.105C131.058 202.583 130.249 202.949 129.474 203.366C129.134 204.067 128.793 204.769 128.449 205.478C128.883 205.922 129.394 205.98 129.897 205.909C130.536 205.819 131.196 205.725 131.786 205.484C133.626 204.73 135.468 203.966 137.253 203.091C139.121 202.174 140.959 201.182 142.744 200.113C144.29 199.188 145.773 198.149 147.23 197.086C149.26 195.606 150.682 193.615 151.733 191.356C152.122 190.518 152.422 189.64 152.776 188.785C152.845 188.619 152.972 188.477 153.072 188.323C153.452 187.392 153.831 186.462 154.21 185.532C154.49 183.96 155.305 182.577 155.788 181.076C156.029 180.326 156.326 179.593 156.633 178.867C157.57 176.645 158.519 174.427 159.474 172.212C160.594 169.613 161.722 167.018 162.853 164.424C163.706 162.468 164.59 160.525 165.424 158.561C166.602 155.786 167.745 152.996 168.909 150.215C169.877 147.905 170.864 145.603 171.826 143.291C172.931 140.636 174.01 137.97 175.117 135.317C176.51 131.978 177.891 128.632 179.332 125.314C180.92 121.654 182.552 118.013 184.197 114.379C186.111 110.152 188.047 105.935 190.011 101.732C190.279 101.158 190.439 100.489 190.993 100.072C191.116 99.8788 191.257 99.6941 191.358 99.4899C192.82 96.5328 194.242 93.5553 195.744 90.619C197.499 87.1863 199.448 83.8515 201.002 80.3156C201.242 79.7687 201.507 79.2321 201.617 78.5795C201.233 78.3421 200.888 78.1174 200.532 77.9102C196.562 75.5941 192.611 73.2444 188.614 70.9756C181.104 66.7126 173.562 62.5067 166.044 58.2588C161.598 55.7467 157.205 53.137 152.728 50.6809C146.663 47.3534 140.549 44.1134 134.439 40.8692C128.485 37.7081 122.391 34.8469 116.043 32.5544C114.511 32.0008 112.959 31.5357 111.314 31.4273C110.095 31.347 108.91 31.5815 107.71 31.6957C106.911 31.7713 106.158 31.8862 105.519 32.4194C105.428 32.4954 105.252 32.4714 105.116 32.4935C105.113 32.6934 105.108 32.8931 105.104 33.0914C105.197 33.0974 105.328 33.147 105.376 33.1043C105.899 32.6369 106.47 32.7087 107.075 32.8997C107.561 33.0532 108.059 33.2503 108.559 33.2699C110.303 33.3376 111.913 33.9728 113.578 34.3708C113.894 34.4458 114.207 34.5435 114.506 34.6671C115.617 35.1257 116.708 35.6342 117.831 36.0594C119.656 36.7498 121.393 37.623 123.113 38.5253C125.741 39.9035 128.331 41.3525 130.937 42.7726C135.459 45.2363 139.919 47.8044 144.264 50.5726C146.728 52.1426 149.237 53.6443 151.723 55.1809C155.156 57.303 158.622 59.3741 162.008 61.5677C167.27 64.976 172.471 68.4759 177.708 71.9225C180.306 73.6322 182.933 75.2972 185.533 77.0039C186.774 77.8184 187.991 78.6704 189.202 79.5296C189.672 79.8629 189.657 80.2178 189.21 80.5252C188.447 81.0506 187.7 81.6055 186.905 82.0781C185.3 83.0323 183.892 84.2403 182.481 85.4432C180.856 86.8293 179.32 88.3071 177.844 89.8582C176.754 91.0046 175.672 92.1459 174.741 93.4255C174.113 94.2904 173.532 95.1844 173.211 96.22Z" fill="#FCEFD3"/>
<path d="M129.474 203.366C130.249 202.95 131.058 202.584 131.793 202.106C133.035 201.297 134.241 200.433 135.444 199.567C137.628 197.992 139.725 196.322 141.627 194.395C144.624 191.358 147 187.891 149.042 184.172C150.271 181.936 151.356 179.632 152.403 177.305C153.428 175.024 154.386 172.716 155.375 170.421C156.016 168.933 156.707 167.467 157.344 165.978C157.982 164.489 158.568 162.977 159.201 161.486C159.997 159.61 160.817 157.745 161.626 155.876C162.068 154.857 162.509 153.838 162.948 152.819C163.388 151.799 163.836 150.783 164.262 149.758C164.653 148.818 165.01 147.863 165.404 146.923C166.101 145.259 166.822 143.605 167.519 141.94C167.912 141.001 168.268 140.046 168.656 139.104C169.078 138.077 169.522 137.059 169.945 136.033C170.35 135.048 170.74 134.057 171.14 133.07C171.435 132.341 171.723 131.608 172.037 130.887C172.945 128.809 173.879 126.742 174.775 124.659C175.415 123.171 175.998 121.658 176.629 120.166C177.17 118.886 177.737 117.618 178.302 116.348C178.941 114.91 179.587 113.474 180.236 112.041C181.058 110.228 181.885 108.416 182.713 106.605C183.523 104.837 184.328 103.066 185.151 101.303C185.621 100.294 186.121 99.2998 186.612 98.3021C187.821 95.8492 188.986 93.374 190.256 90.9533C191.569 88.4477 192.982 85.9932 194.358 83.5201C194.736 82.8396 195.138 82.1728 195.604 81.3705C194.947 81.4677 194.565 81.7882 194.166 82.0642C193.748 82.3537 193.356 82.6896 192.917 82.9417C190.86 84.1176 188.914 85.4551 186.971 86.8072C185.218 88.0268 183.542 89.3423 181.851 90.639C181.814 90.6675 181.785 90.7095 181.745 90.7292C180.274 91.4471 179.353 92.7594 178.286 93.9165C177.373 94.9067 176.434 95.8718 175.525 96.8652C175.203 97.2168 174.851 97.3348 174.404 97.1984C174.929 97.7084 175.454 98.2181 175.979 98.7281C176.931 99.2181 177.009 99.3835 176.709 100.285C176.68 100.371 176.648 100.456 176.617 100.543C176.323 101.355 176.02 102.165 175.737 102.981C175.589 103.412 175.485 103.862 175.107 104.169C174.78 104.88 174.461 105.595 174.124 106.301C172.771 109.139 171.409 111.973 170.057 114.812C169.92 115.101 169.829 115.414 169.717 115.716C169.495 116.323 169.296 116.94 169.046 117.535C168.776 118.176 168.451 118.793 168.16 119.425C166.877 122.203 165.595 124.981 164.316 127.762C163.27 130.036 162.23 132.315 161.184 134.589C160.117 136.905 159.053 139.222 157.975 141.533C156.996 143.635 156.035 145.746 154.999 147.82C154.485 148.849 154.11 149.96 153.366 150.868C152.774 152.126 152.193 153.391 151.584 154.642C149.92 158.065 148.22 161.47 146.579 164.903C144.199 169.887 141.808 174.867 139.514 179.891C136.584 186.309 133.745 192.768 130.87 199.21C130.606 199.802 130.359 200.401 130.105 200.995C129.896 201.784 129.685 202.575 129.474 203.366Z" fill="#FAE3B3"/>
<path d="M105.116 32.4943C105.252 32.4722 105.428 32.4961 105.519 32.4201C106.158 31.8869 106.911 31.7721 107.71 31.6965C108.91 31.5823 110.094 31.3478 111.314 31.428C112.958 31.5363 114.51 32.0014 116.043 32.5552C122.391 34.8479 128.485 37.7082 134.439 40.87C140.549 44.1142 146.663 47.3543 152.728 50.6817C157.205 53.1378 161.597 55.7474 166.044 58.2596C173.562 62.5082 181.104 66.714 188.614 70.9763C192.611 73.2452 196.562 75.5951 200.532 77.9109C200.887 78.1182 201.233 78.3431 201.617 78.5803C201.507 79.2329 201.242 79.7702 201.001 80.3164C199.448 83.853 197.499 87.1871 195.743 90.6198C194.241 93.5561 192.82 96.5336 191.358 99.4907C191.257 99.6949 191.116 99.8796 190.993 100.074C190.843 100.513 190.729 100.967 190.54 101.386C187.656 107.78 184.718 114.148 181.89 120.566C180.261 124.263 178.797 128.033 177.278 131.777C176.265 134.274 175.326 136.802 174.281 139.285C172.84 142.71 171.303 146.095 169.857 149.517C167.252 155.678 164.651 161.842 162.111 168.029C160.152 172.8 158.222 177.58 155.925 182.202C155.37 183.32 154.782 184.423 154.209 185.532C153.83 186.463 153.451 187.393 153.071 188.323C152.974 188.729 152.864 189.131 152.782 189.539C152.728 189.81 152.673 190.092 152.692 190.363C152.719 190.745 152.873 191.082 153.27 191.239C153.663 191.395 154.024 191.295 154.281 190.996C154.58 190.649 154.855 190.269 155.075 189.867C155.697 188.729 156.285 187.573 156.887 186.425C157.03 186.159 157.172 185.894 157.315 185.629C157.316 185.543 157.347 185.471 157.408 185.411C157.478 185.193 157.523 184.962 157.622 184.758C159.122 181.642 160.628 178.528 162.133 175.415C162.934 173.6 163.73 171.782 164.539 169.971C164.82 169.343 165.138 168.731 165.44 168.11C165.892 167.006 166.332 165.894 166.805 164.798C167.076 164.17 167.401 163.566 167.703 162.952C168.047 162.09 168.373 161.221 168.738 160.37C170.076 157.256 171.391 154.132 172.78 151.041C174.949 146.215 177.189 141.421 179.368 136.6C182.483 129.705 185.582 122.803 188.662 115.893C191.912 108.602 195.136 101.298 198.616 94.1113C199.931 91.3965 201.245 88.6806 202.56 85.9658C202.577 85.8757 202.577 85.7782 202.612 85.6967C203.389 83.9321 204.166 82.1687 204.952 80.4082C205.026 80.2444 205.153 80.1045 205.256 79.9535C205.426 79.4262 205.554 78.8803 205.775 78.3745C206.299 77.1766 206.55 75.9167 206.766 74.6386C206.84 74.2017 206.691 73.9312 206.403 73.6714C205.386 73.2869 204.359 72.9272 203.355 72.5108C202.608 72.2008 201.89 71.8191 201.159 71.4686C200.723 71.3112 200.273 71.1821 199.852 70.9925C197.947 70.1367 196.024 69.3151 194.155 68.3852C191.372 67.0009 188.629 65.536 185.869 64.1058C185.701 64.0312 185.527 63.9685 185.367 63.8795C181.771 61.8762 178.177 59.8692 174.582 57.8634C173.437 57.222 172.287 56.5888 171.151 55.9331C170.928 55.8039 170.754 55.5884 170.558 55.4122L170.575 55.4247C170.133 55.3453 169.731 55.1928 169.444 54.8226C168.704 54.4457 167.952 54.0882 167.224 53.6879C164.542 52.2128 161.863 50.7306 159.191 49.2365C155.587 47.2216 152.015 45.1474 148.384 43.1825C144.061 40.8421 139.791 38.399 135.362 36.2613C133.987 35.5974 132.56 35.0416 131.156 34.4399C130.135 34.0024 129.115 33.5615 128.088 33.1389C127.189 32.7686 126.293 32.3841 125.374 32.0721C122.167 30.9837 118.967 29.8502 115.642 29.1804C113.971 28.8438 112.274 28.5532 110.542 28.6079C109.213 28.65 107.984 28.9312 106.838 29.64C105.996 30.1608 105.418 30.8201 105.25 31.8097C105.21 32.0389 105.161 32.2656 105.116 32.4943Z" fill="#4C6A2A"/>
<path d="M46.8263 141.821C47.038 141.667 47.2211 141.421 47.3232 141.177C47.9329 139.721 48.503 138.249 49.1082 136.791C50.0523 134.519 51.0105 132.254 51.9682 129.987C52.8722 127.849 53.7791 125.712 54.6914 123.577C55.5858 121.485 56.4754 119.392 57.3898 117.309C58.4353 114.928 59.5046 112.558 60.5642 110.184C61.9455 107.089 63.3062 103.984 64.7138 100.902C66.3528 97.3116 68.0576 93.7511 69.6877 90.1562C71.2605 86.689 72.7656 83.1913 74.3164 79.7146C76.1325 75.6442 77.9363 71.5683 79.7995 67.5192C81.9336 62.8794 84.1277 58.2666 86.2927 53.6408C87.7693 50.4867 89.2396 47.3294 90.7149 44.1749C91.738 41.9881 92.7449 39.7941 93.7992 37.6229C94.2054 36.7866 94.621 35.9688 94.8477 35.0556C95.0711 34.1545 95.4732 33.3222 96.1067 32.622C96.5295 32.1147 97.0499 32.5077 97.5193 32.4868C97.9097 31.8927 97.7535 31.0872 98.3237 30.5904C98.2164 31.0392 98.1317 31.4956 97.9955 31.9367C97.6698 32.9932 97.6696 34.0292 98.1069 35.0561C98.16 35.1816 98.1723 35.3243 98.2042 35.4586C98.8193 36.4044 99.4345 37.3496 100.05 38.2957C99.8006 39.4889 99.1986 40.5465 98.7212 41.6483C98.2617 42.7109 97.7087 43.7339 97.1864 44.7688C95.4314 48.2472 93.6721 51.723 91.9132 55.1996C91.0129 56.9793 90.0986 58.7523 89.2111 60.5383C87.3952 64.1926 85.5923 67.8525 83.786 71.5115C83.0468 73.0085 82.2977 74.5014 81.5817 76.0089C80.3891 78.521 79.2233 81.046 78.0405 83.5621C77.0155 85.7426 75.9659 87.9122 74.9559 90.0989C73.9065 92.3704 72.8892 94.657 71.8598 96.9375C70.9647 98.9216 70.0676 100.905 69.1816 102.893C68.616 104.163 68.0762 105.444 67.5112 106.714C66.6079 108.745 65.6915 110.771 64.785 112.8C64.2189 114.069 63.6694 115.346 63.0987 116.613C62.2619 118.471 61.3986 120.318 60.5741 122.181C59.5819 124.425 58.6097 126.679 57.6452 128.935C56.5171 131.576 55.4047 134.223 54.2903 136.869C53.9487 137.68 53.6246 138.499 53.291 139.312C52.7993 140.511 52.2984 141.706 51.8159 142.908C51.4362 143.854 51.1473 144.843 50.6902 145.748C50.3065 146.508 50.0604 147.292 49.86 148.105C49.0329 147.295 48.179 146.51 47.3913 145.664C47.0507 145.298 46.8209 144.818 46.5888 144.365C46.4433 144.081 46.3509 143.757 46.2987 143.439C46.197 142.821 46.2424 142.245 46.8263 141.821Z" fill="#B8D05A"/>
<path d="M153.522 100.621C151.813 98.4423 149.756 96.6571 147.41 95.1976C147.057 94.978 146.694 94.7681 146.368 94.5122C142.931 91.8225 139.504 89.121 136.069 86.4304C132.523 83.6538 128.97 80.8867 125.422 78.1131C121.36 74.9381 117.249 71.8328 112.921 69.0251C110.543 67.4818 108.107 66.035 105.476 64.9638C103.754 64.2633 101.984 63.6956 100.071 63.8407C97.9693 64 96.2378 64.8829 94.8902 66.4929C94.5998 66.8406 94.3496 67.262 94.2178 67.692C94.0471 68.2481 93.7608 68.6938 93.3709 69.1052C92.0504 70.4956 90.9832 72.0759 90.0654 73.7483C88.5472 76.5156 87.0212 79.2823 85.6205 82.1099C84.7579 83.8513 84.1388 85.7114 83.3767 87.5043C82.8154 88.825 82.5818 90.271 81.8156 91.5129C81.6981 91.7033 81.6418 91.9483 81.615 92.1752C81.4054 93.9254 81.2099 95.6771 81.0103 97.4278C80.939 98.0525 81.0271 98.6245 81.474 99.1164C81.6241 99.2816 81.7092 99.5139 81.7983 99.7264C82.6589 101.784 84.0245 103.461 85.6846 104.918C86.5563 105.138 87.2806 105.649 88.034 106.105C89.9388 107.259 91.8326 108.429 93.7546 109.553C95.1957 110.396 96.6467 111.231 98.1415 111.97C99.8817 112.832 101.678 113.58 103.446 114.389C104.708 114.967 105.947 115.598 107.31 115.921C107.535 115.974 107.779 116.023 107.967 116.146C108.766 116.665 109.68 116.858 110.58 117.075C112.695 117.585 114.758 118.274 116.944 118.549C118.598 118.756 120.246 118.988 121.91 119.045C124.658 119.139 127.366 118.836 130.062 118.268C133.503 117.543 136.71 116.246 139.771 114.559C140.579 114.114 141.326 113.553 142.077 113.011C143.167 112.226 144.312 111.494 145.296 110.59C147.177 108.859 148.879 106.947 150.422 104.906C151.482 103.499 152.489 102.05 153.522 100.621Z" fill="#00A6AA"/>
<path d="M153.523 100.621C152.491 102.051 151.483 103.5 150.42 104.906C148.877 106.948 147.175 108.86 145.294 110.59C144.311 111.495 143.165 112.226 142.075 113.012C141.324 113.553 140.577 114.115 139.769 114.56C136.708 116.247 133.5 117.543 130.06 118.268C127.364 118.836 124.656 119.14 121.908 119.046C120.244 118.988 118.596 118.757 116.942 118.549C114.756 118.275 112.693 117.586 110.578 117.075C109.678 116.859 108.765 116.666 107.965 116.146C107.776 116.024 107.533 115.975 107.308 115.921C105.945 115.598 104.705 114.968 103.443 114.39C101.677 113.581 99.8802 112.833 98.1393 111.971C96.644 111.231 95.1935 110.396 93.7524 109.553C91.8311 108.429 89.9366 107.259 88.0318 106.106C87.279 105.65 86.5547 105.139 85.6824 104.919C86.0281 105.289 86.3427 105.695 86.7242 106.024C90.024 108.874 93.3271 111.72 96.647 114.547C99.6495 117.105 102.755 119.531 105.92 121.885C108.263 123.628 110.525 125.481 112.875 127.214C116.048 129.554 119.306 131.772 122.757 133.694C124.867 134.869 127.04 135.911 129.301 136.75C130.297 137.119 131.343 137.379 132.386 137.588C133.684 137.849 134.969 137.656 136.219 137.229C137.48 136.409 138.501 135.347 139.363 134.121C139.816 133.477 140.311 132.86 140.749 132.206C144.08 127.237 147.414 122.272 150.719 117.286C152.233 115.004 153.571 112.619 154.624 110.083C155.178 108.748 155.565 107.376 155.652 105.919C155.748 104.319 155.304 102.9 154.378 101.611C154.163 101.312 153.971 100.995 153.768 100.685C153.688 100.658 153.606 100.637 153.523 100.621Z" fill="#009CA1"/>
<path d="M157.024 131.849C157.165 131.673 157.347 131.516 157.443 131.318C158.711 128.692 159.975 126.062 161.222 123.426C161.419 123.009 161.53 122.552 161.681 122.113C161.597 122.11 161.453 122.077 161.439 122.108C160.487 124.086 159.543 126.068 158.607 128.053C158.295 128.716 157.996 129.386 157.714 130.062C157.468 130.65 157.253 131.252 157.024 131.849Z" fill="#82AC49"/>
<path d="M156.647 133.155C156.776 132.716 156.906 132.276 157.035 131.836C156.547 132.17 156.423 132.612 156.647 133.155Z" fill="#82AC49"/>
<path d="M173.212 96.2201C173.533 95.1845 174.114 94.2905 174.742 93.4256C175.672 92.1467 176.755 91.0047 177.845 89.8584C179.321 88.3072 180.857 86.8294 182.482 85.4433C183.893 84.2404 185.301 83.0325 186.906 82.0782C187.701 81.6056 188.447 81.0505 189.211 80.5253C189.658 80.218 189.673 79.863 189.203 79.5298C187.992 78.6705 186.775 77.8185 185.534 77.004C182.934 75.298 180.307 73.6323 177.709 71.9226C172.472 68.4767 167.271 64.9761 162.009 61.5678C158.623 59.3742 155.157 57.3031 151.724 55.1811C149.238 53.6444 146.729 52.1427 144.265 50.5727C139.92 47.8045 135.46 45.2366 130.938 42.7727C128.332 41.3527 125.742 39.9036 123.114 38.5254C121.394 37.6231 119.656 36.7497 117.832 36.0595C116.709 35.6343 115.618 35.1258 114.507 34.6672C114.208 34.5436 113.895 34.4459 113.579 34.3709C111.914 33.9736 110.304 33.3378 108.559 33.27C108.06 33.2504 107.563 33.0535 107.076 32.8998C106.471 32.7089 105.9 32.637 105.377 33.1044C105.329 33.1471 105.198 33.0975 105.105 33.0915C104.278 34.2847 104.436 35.4468 105.194 36.6023C105.682 37.3442 106.175 38.0508 107.03 38.4526C107.384 38.619 107.658 38.99 107.926 39.3031C113.343 45.6433 119.246 51.5016 125.556 56.9423C130.449 61.1601 135.434 65.2704 140.377 69.4295C150.869 78.2571 161.522 86.8863 172.21 95.4726C172.536 95.7341 172.879 95.9718 173.212 96.2201Z" fill="#FAE3B3"/>
<path d="M45.6657 142.541C46.0163 141.58 46.3321 140.604 46.727 139.662C47.8588 136.962 49.0003 134.265 50.1795 131.585C52.2007 126.991 54.2531 122.411 56.293 117.827C57.8987 114.218 59.5088 110.611 61.1134 107.001C62.4351 104.029 63.7439 101.051 65.0708 98.0807C66.625 94.602 68.2008 91.1319 69.7545 87.6523C71.3082 84.1728 72.8122 80.6712 74.3996 77.2064C76.2955 73.0671 78.2694 68.9631 80.1856 64.8321C82.5899 59.6477 84.9514 54.4424 87.3661 49.2622C89.5448 44.5881 91.7494 39.9253 93.9827 35.2767C95.2099 32.7219 96.5395 30.2191 98.2089 27.915C99.8763 25.6126 102.053 24.0382 104.8 23.2613C106.328 22.8291 107.887 22.6082 109.469 22.5291C113.454 22.3295 117.35 22.8381 121.18 23.9439C125.617 25.2245 129.865 26.9915 134.038 28.9411C139.805 31.6353 145.456 34.5628 151.056 37.5871C157.227 40.9196 163.366 44.3096 169.55 47.6168C175.734 50.924 181.935 54.2012 188.168 57.4153C193.287 60.055 198.459 62.5905 203.618 65.154C206.197 66.4354 208.798 67.6729 211.386 68.9365C212.013 69.2423 212.637 69.5534 213.245 69.894C213.88 70.2498 213.987 70.6016 213.721 71.2837C213.653 71.4565 213.549 71.6142 213.474 71.7841C212.872 73.1439 212.277 74.5066 211.673 75.8659C210.372 78.7968 209.068 81.7255 207.765 84.6558C206.405 87.7125 205.043 90.7689 203.684 93.8267C202.382 96.7565 201.086 99.6896 199.78 102.619C198.209 106.141 196.631 109.66 195.06 113.183C193.677 116.281 192.298 119.38 190.922 122.48C189.602 125.453 188.291 128.43 186.97 131.403C185.629 134.418 184.28 137.429 182.938 140.442C181.633 143.372 180.331 146.302 179.031 149.233C177.712 152.207 176.403 155.185 175.081 158.157C173.74 161.172 172.384 164.179 171.043 167.194C169.721 170.166 168.413 173.145 167.094 176.118C165.472 179.771 163.845 183.421 162.216 187.071C161.553 188.556 160.867 190.031 160.217 191.521C159.971 192.085 159.576 192.408 158.987 192.536C157.423 192.878 155.866 193.004 154.308 192.486C153.839 192.33 153.352 192.225 152.86 192.093C152.746 192.311 152.653 192.468 152.579 192.635C151.761 194.464 150.433 195.869 148.908 197.125C147.251 198.491 145.48 199.688 143.619 200.751C139.654 203.016 135.529 204.951 131.272 206.601C130.277 206.987 129.268 207.336 128.225 207.717C127.628 209.003 127.062 210.174 126.541 211.366C126.32 211.872 125.974 212.199 125.489 212.42C124.38 212.928 123.228 213.251 122.001 213.314C120.644 213.383 119.438 213.063 118.384 212.159C116.974 210.95 115.522 209.79 114.097 208.598C107.607 203.173 101.402 197.427 95.1236 191.764C88.3612 185.665 81.5618 179.605 75.0498 173.235C68.9042 167.224 62.7887 161.181 56.6642 155.147C53.5522 152.081 50.4469 149.01 47.3488 145.93C46.856 145.439 46.4091 144.901 45.9562 144.372C45.4888 143.827 45.4229 143.205 45.6657 142.541ZM208.342 69.3354C201.816 66.0815 195.248 62.9077 188.75 59.5974C182.502 56.4137 176.304 53.1301 170.117 49.8264C163.89 46.5012 157.709 43.0913 151.5 39.7312C145.535 36.5028 139.514 33.3809 133.38 30.4843C130.1 28.9357 126.75 27.5411 123.316 26.3666C118.747 24.8041 114.071 23.8901 109.208 24.2251C107.343 24.3539 105.517 24.6565 103.787 25.4055C101.88 26.2312 100.474 27.5798 99.4819 29.4064C98.7178 30.8129 98.6187 32.256 99.1939 33.7063C99.5503 34.606 100.04 35.4683 100.572 36.2801C101.671 37.9566 102.997 39.4558 104.367 40.9167C107.198 43.9362 110.201 46.7799 113.249 49.5769C122.971 58.4992 132.938 67.1457 142.916 75.7773C151.278 83.0113 159.772 90.0856 168.502 96.8741C169.745 97.8408 171.005 98.7849 172.256 99.7384C173.249 99.4972 174.196 99.2697 175.139 99.0313C175.215 99.0124 175.271 98.9155 175.342 98.85C175.351 98.5136 175.035 98.4188 174.847 98.2607C166.889 91.5571 158.904 84.8877 150.716 78.4648C144.023 73.2142 137.628 67.615 131.253 61.99C126.307 57.6255 121.302 53.3264 116.379 48.9351C114.092 46.8953 111.914 44.7315 109.732 42.5763C108.209 41.0705 106.832 39.4262 105.681 37.6137C105.161 36.7935 104.682 35.9275 104.323 35.0266C103.076 31.8881 104.704 29.2015 107.122 28.0004C108.179 27.4746 109.307 27.2263 110.48 27.1685C112.213 27.083 113.92 27.3295 115.597 27.7101C119.412 28.5756 123.136 29.7417 126.794 31.1403C133.06 33.5352 139.033 36.5352 144.929 39.7068C155.482 45.3835 165.878 51.3416 176.267 57.3089C182.19 60.7102 188.203 63.9428 194.374 66.8729C197.984 68.5873 201.628 70.2293 205.352 71.6874C206.216 72.0256 207.069 72.3852 207.962 72.7494C208.511 72.4304 209.036 72.1413 209.545 71.8251C210.045 71.5127 210.591 71.2567 211.072 70.7633C210.197 70.1025 209.233 69.7792 208.342 69.3354ZM161.761 77.4764C163.153 78.5605 164.55 79.6398 165.938 80.7285C169.665 83.6506 173.394 86.5717 177.111 89.5056C178.021 90.2241 178.891 90.9935 179.833 91.784C180.017 91.683 180.235 91.6077 180.397 91.4678C183.932 88.4264 187.741 85.7651 191.684 83.2878C191.991 83.0954 192.282 82.8794 192.681 82.6061C191.776 81.8096 190.872 81.1864 190.016 80.5042C189.691 80.2442 189.373 79.9699 189.083 79.6732C189.02 79.6095 189.043 79.3799 189.111 79.2942C189.173 79.2169 189.382 79.1717 189.471 79.218C189.757 79.3645 190.027 79.5462 190.284 79.7399C191.318 80.522 192.345 81.3138 193.383 82.1093C194.07 81.9523 194.575 81.5235 195.143 81.2261C195.678 80.9454 196.199 80.6378 196.733 80.3531C197.307 80.046 197.891 79.7573 198.465 79.4494C198.981 79.173 199.562 78.9969 200.101 78.4984C199.119 77.8717 198.25 77.2776 197.344 76.7467C190.937 72.9893 184.548 69.1974 178.1 65.5081C168.67 60.1127 159.192 54.8007 149.74 49.4408C141.94 45.0179 134.005 40.8527 125.958 36.903C123.244 35.571 120.451 34.4183 117.29 33.392C117.96 33.8576 118.383 34.182 118.835 34.4605C128 40.1172 137.164 45.7764 146.34 51.4177C152.865 55.4298 159.448 59.3505 165.928 63.4343C170.994 66.6262 175.941 70.0074 180.943 73.3C182.378 74.2444 183.825 75.169 185.261 76.1116C185.53 76.2883 185.794 76.4869 186.009 76.7216C186.08 76.7992 185.992 77.0227 185.968 77.2611C185.393 77.1773 185.039 76.8851 184.661 76.635C181.137 74.305 177.599 71.9957 174.087 69.6493C165.746 64.0769 157.187 58.8552 148.614 53.6527C140.279 48.5943 131.993 43.4566 123.686 38.3522C120.798 36.5777 117.92 34.7891 115.025 33.0271C113.019 31.8068 109.749 31.7247 107.655 32.8095C107.582 32.8471 107.54 32.9456 107.384 33.14C110.334 35.6291 113.232 38.1 116.157 40.5377C122.758 46.0375 129.364 51.5308 135.988 57.0035C137.884 58.5709 139.85 60.055 141.778 61.5847C142.103 61.843 142.414 62.1249 142.702 62.424C142.772 62.4969 142.775 62.7729 142.732 62.7925C142.586 62.8612 142.367 62.931 142.247 62.8665C141.924 62.6917 141.627 62.4619 141.339 62.2294C137.361 59.0255 133.35 55.8618 129.419 52.6005C122.163 46.5804 114.957 40.5014 107.725 34.4525C107.343 34.1326 107.032 33.6938 106.399 33.5805C106.238 33.7456 106.053 33.9351 105.875 34.1185C105.897 34.2879 105.878 34.4453 105.94 34.5572C106.454 35.4906 106.891 36.4863 107.529 37.3284C108.621 38.7712 109.757 40.1993 111.027 41.4838C113.213 43.6966 115.447 45.8719 117.781 47.9264C126.392 55.5067 135.009 63.0809 143.713 70.5553C147.868 74.1238 152.24 77.439 156.479 80.9102C162.409 85.7642 168.307 90.6566 174.219 95.5318C174.605 95.8506 174.997 96.1623 175.406 96.4929C176.683 95.1438 177.925 93.8328 179.238 92.4467C179 92.1968 178.782 91.9072 178.509 91.6872C175.436 89.2112 172.366 86.7291 169.27 84.2817C166.756 82.2947 164.206 80.3542 161.676 78.3887C161.384 78.1615 161.092 77.9265 160.84 77.6568C160.739 77.5481 160.748 77.3371 160.708 77.1806C161.199 76.9704 161.471 77.2506 161.761 77.4764ZM156.363 191.114C157.13 191.172 157.847 191.107 158.512 190.89C158.582 190.829 158.62 190.801 158.652 190.768C158.683 190.734 158.713 190.698 158.736 190.658C158.808 190.539 158.889 190.423 158.946 190.297C176.219 151.459 193.491 112.621 210.763 73.7823C210.801 73.6978 210.831 73.6084 210.854 73.5191C210.876 73.4297 210.884 73.3366 210.899 73.2451C210.096 73.345 209.132 73.9328 208.835 74.5664C208.145 76.0383 207.479 77.5216 206.808 79.003C205.467 81.965 204.126 84.9273 202.791 87.8916C201.265 91.2796 199.744 94.6714 198.219 98.0595C196.693 101.448 195.163 104.834 193.636 108.222C192.3 111.186 190.969 114.153 189.629 117.116C188.329 119.994 187.015 122.867 185.716 125.746C184.187 129.134 182.668 132.525 181.142 135.914C179.617 139.303 178.091 142.691 176.561 146.078C175.261 148.956 173.954 151.832 172.653 154.71C171.314 157.673 169.975 160.636 168.639 163.601C167.113 166.989 165.59 170.379 164.065 173.768C162.54 177.157 161.018 180.547 159.488 183.933C158.475 186.177 157.448 188.414 156.434 190.657C156.38 190.774 156.391 190.921 156.363 191.114ZM153.963 190.585C154.128 190.643 154.308 190.661 154.523 190.705C154.753 190.26 154.981 189.86 155.17 189.443C172.467 151.077 189.763 112.711 207.087 74.2815C206.37 73.9614 205.749 73.6579 205.109 73.4033C199.621 71.224 194.261 68.7595 188.99 66.1023C183.847 63.5097 178.801 60.7356 173.818 57.849C164.013 52.1707 154.149 46.5991 144.186 41.2027C140.101 38.9898 135.972 36.8603 131.722 34.9788C126.484 32.6589 121.123 30.6713 115.518 29.4251C114.119 29.1138 112.675 28.9559 111.243 28.8497C109.93 28.7523 108.649 29.0043 107.496 29.7142C106.679 30.2178 106.343 30.619 105.949 31.5843C106.115 31.7994 106.27 31.6205 106.4 31.547C108.3 30.4831 110.319 30.207 112.465 30.5102C114.689 30.8244 116.824 31.4469 118.94 32.168C123.841 33.8381 128.411 36.2337 133.016 38.555C143.097 43.6369 152.875 49.2686 162.689 54.8375C170.604 59.3296 178.528 63.8034 186.42 68.3342C191.372 71.177 196.319 74.0333 201.107 77.1502C201.496 77.4032 201.889 77.6524 202.254 77.9374C203.095 78.5931 203.144 78.8939 202.642 79.8171C201.487 81.9377 200.292 84.038 199.196 86.1885C197.424 89.6644 195.688 93.1596 193.991 96.6723C192.233 100.311 190.513 103.969 188.827 107.641C187.469 110.596 186.178 113.582 184.87 116.56C183.47 119.751 182.075 122.945 180.697 126.147C179.54 128.836 178.411 131.537 177.27 134.234C176.076 137.059 174.879 139.883 173.691 142.71C172.737 144.982 171.797 147.258 170.849 149.531C169.883 151.847 168.915 154.162 167.949 156.479C167.037 158.666 166.134 160.858 165.214 163.042C164.042 165.825 162.863 168.607 161.675 171.383C160.541 174.032 159.391 176.673 158.248 179.318C157.105 181.962 155.954 184.603 154.825 187.254C154.394 188.268 153.89 189.257 153.561 190.329C153.738 190.445 153.841 190.541 153.963 190.585ZM200.109 80.5988L200.178 80.5977L200.143 80.5225L200.109 80.5988ZM130.001 205.278C131.596 204.634 133.183 203.971 134.782 203.336C135.29 203.134 135.629 202.808 135.855 202.313C136.799 200.242 137.784 198.189 138.705 196.108C140.152 192.836 141.567 189.549 142.981 186.263C144.138 183.574 145.261 180.869 146.424 178.182C147.716 175.198 149.023 172.219 150.349 169.249C151.656 166.322 152.978 163.401 154.322 160.491C155.686 157.54 157.084 154.603 158.474 151.664C158.593 151.414 158.742 151.166 158.932 150.969C159.018 150.88 159.238 150.922 159.398 150.904C159.525 151.487 159.246 151.89 159.049 152.296C156.191 158.191 153.439 164.135 150.825 170.142C148.562 175.34 146.311 180.542 144.049 185.74C142.065 190.3 140.079 194.857 138.082 199.411C137.674 200.34 137.214 201.247 136.709 202.311C137.052 202.213 137.231 202.188 137.387 202.112C138.266 201.687 139.13 201.231 140.018 200.824C140.516 200.595 140.799 200.239 141.028 199.748C142.01 197.644 143.019 195.552 144.045 193.47C145.462 190.595 146.902 187.732 148.336 184.866C148.437 184.663 148.555 184.46 148.706 184.293C148.775 184.216 148.97 184.167 149.055 184.211C149.156 184.263 149.261 184.43 149.257 184.542C149.25 184.719 149.171 184.902 149.09 185.066C146.983 189.309 144.875 193.552 142.757 197.79C142.491 198.321 142.222 198.842 142.093 199.556C142.358 199.464 142.532 199.43 142.678 199.348C144.79 198.156 146.78 196.791 148.599 195.179C149.805 194.11 150.666 192.828 151.29 191.339C152.962 187.354 154.694 183.394 156.396 179.422C158.044 175.578 159.691 171.734 161.328 167.885C163.074 163.779 164.819 159.673 166.541 155.557C168.03 151.999 169.475 148.422 170.959 144.861C172.121 142.073 173.316 139.299 174.494 136.517C175.653 133.778 176.802 131.035 177.968 128.298C179.133 125.562 180.307 122.83 181.49 120.1C182.562 117.628 183.637 115.156 184.737 112.695C186.235 109.345 187.721 105.988 189.279 102.665C191.112 98.7536 192.986 94.8604 194.9 90.9875C196.381 87.9907 197.953 85.0383 199.484 82.0655C199.69 81.6656 199.957 81.2869 199.983 80.7284C199.757 80.7789 199.568 80.7818 199.42 80.8606C197.982 81.6219 196.553 82.4015 195.115 83.1645C194.64 83.4166 194.34 83.7999 194.104 84.2737C193.091 86.3113 192.026 88.3237 191.043 90.3753C189.296 94.0199 187.567 97.6727 185.884 101.347C184.511 104.346 183.215 107.381 181.891 110.402C180.754 112.999 179.615 115.594 178.497 118.199C177.324 120.932 176.175 123.676 175.017 126.414C173.858 129.153 172.711 131.898 171.538 134.631C170.403 137.278 169.261 139.924 168.085 142.554C166.358 146.412 164.619 150.266 162.848 154.105C161.7 156.594 160.488 159.052 159.301 161.523C159.147 161.843 159.097 162.282 158.606 162.275C158.342 162.271 158.356 161.787 158.636 161.195C160.423 157.415 162.237 153.648 163.988 149.852C165.35 146.899 166.64 143.912 167.948 140.934C169.108 138.297 170.265 135.658 171.397 133.009C172.585 130.232 173.736 127.439 174.916 124.658C176.077 121.92 177.251 119.188 178.427 116.456C179.529 113.895 180.63 111.334 181.751 108.782C183.059 105.804 184.349 102.818 185.717 99.8671C187.573 95.8638 189.493 91.8906 191.392 87.9066C191.732 87.1942 192.11 86.5002 192.451 85.7886C192.599 85.4793 192.693 85.1441 192.84 84.7435C188.806 86.3958 179.163 94.1897 176.89 97.6109C177.052 98.0936 177.545 98.3311 177.869 98.7006C178.354 99.2518 178.467 99.7836 178.139 100.477C176.229 104.507 174.343 108.548 172.461 112.591C170.538 116.718 168.634 120.854 166.714 124.981C165.011 128.646 163.293 132.305 161.588 135.969C159.902 139.591 158.223 143.217 156.54 146.841C154.837 150.507 153.133 154.171 151.428 157.836C149.723 161.5 148.017 165.164 146.312 168.829C144.607 172.493 142.902 176.158 141.197 179.822C139.727 182.981 138.256 186.14 136.786 189.299C135.083 192.964 133.381 196.631 131.677 200.296C130.915 201.935 130.151 203.574 129.39 205.207C129.597 205.502 129.814 205.353 130.001 205.278ZM124.589 210.956C124.844 210.833 125.041 210.505 125.176 210.228C125.79 208.977 126.376 207.712 126.965 206.449C128.928 202.239 130.892 198.029 132.85 193.817C134.553 190.152 136.243 186.48 137.949 182.816C139.89 178.647 141.847 174.485 143.786 170.315C145.707 166.188 147.61 162.052 149.529 157.924C151.232 154.259 152.951 150.602 154.657 146.937C156.361 143.273 158.051 139.601 159.756 135.937C161.461 132.273 163.181 128.616 164.885 124.952C166.591 121.288 168.28 117.616 169.984 113.952C171.904 109.824 173.834 105.701 175.755 101.573C175.889 101.285 175.983 100.978 176.122 100.613C174.832 100.743 173.694 101.133 172.497 101.452C155.4 137.889 138.312 174.305 121.227 210.722C121.131 210.926 121.071 211.147 120.936 211.524C122.331 211.772 123.489 211.484 124.589 210.956ZM47.2383 143.311C47.6646 143.786 48.0442 144.251 48.4675 144.672C51.4658 147.653 54.4717 150.626 57.4798 153.597C62.9677 159.016 68.4507 164.44 73.9498 169.847C80.9741 176.753 88.2843 183.353 95.6063 189.938C101.684 195.404 107.67 200.975 113.92 206.248C115.41 207.505 116.914 208.747 118.417 209.99C118.693 210.219 118.994 210.416 119.377 210.698C136.527 174.157 153.631 137.715 170.731 101.27C170.787 101.15 170.784 101.002 170.818 100.819C170.617 100.648 170.418 100.46 170.201 100.295C160.6 92.9665 151.319 85.247 142.181 77.3529C132.059 68.6083 121.955 59.8432 112.102 50.7941C109.124 48.0599 106.192 45.2792 103.409 42.3443C102.032 40.8923 100.715 39.3892 99.5489 37.7609C98.5972 36.4322 97.752 35.0454 97.3316 33.4407C97.3028 33.3297 97.198 33.238 97.0622 33.0412C96.4203 34.0426 95.9626 35.0442 95.4931 36.0333C93.0823 41.1098 90.6747 46.1878 88.2965 51.2803C85.8989 56.4152 83.5432 61.5693 81.1584 66.7105C79.2235 70.882 77.2524 75.0373 75.3361 79.2174C74.0005 82.1312 72.7344 85.0766 71.4301 88.0052C70.1261 90.9332 68.8141 93.8584 67.5062 96.7846C66.179 99.7533 64.849 102.721 63.5263 105.692C62.1656 108.748 60.8108 111.806 59.4546 114.864C58.3803 117.285 57.3121 119.707 56.2334 122.126C54.9273 125.054 53.6064 127.974 52.3035 130.903C50.5656 134.809 48.795 138.702 47.3904 142.746C47.3457 142.875 47.3183 143.012 47.2383 143.311Z" fill="#203B53"/>
<path d="M83.4001 103.386C82.5158 102.495 81.7533 101.493 81.1358 100.389C80.27 98.8425 79.8952 97.1915 80.1099 95.4275C80.222 94.5074 80.3915 93.5948 80.5208 92.7696C81.0346 91.3618 81.4574 90.0293 82.0015 88.7481C83.6724 84.8151 85.4121 80.9113 87.3727 77.1131C88.9072 74.1421 90.5439 71.2266 92.5595 68.5471C93.7909 66.9096 95.133 65.374 96.7843 64.1323C98.1713 63.0899 99.716 62.5696 101.454 62.5809C103.212 62.5923 104.869 63.0593 106.431 63.7851C107.943 64.4877 109.413 65.2978 110.837 66.1657C115.159 68.8022 119.277 71.7443 123.373 74.7134C131.757 80.7898 139.878 87.2072 147.948 93.6889C149.901 95.2577 151.777 96.925 153.636 98.6052C154.389 99.286 155.05 100.085 155.668 100.895C156.972 102.604 157.47 104.568 157.111 106.68C156.926 107.77 156.619 108.871 156.17 109.879C155.453 111.486 154.668 113.08 153.743 114.575C150.298 120.138 146.81 125.674 143.281 131.185C142.384 132.587 141.311 133.882 140.26 135.179C139.5 136.119 138.599 136.932 137.585 137.606C136.464 138.351 135.234 138.714 133.89 138.621C132.773 138.545 131.68 138.335 130.622 137.947C128.437 137.143 126.332 136.173 124.302 135.033C120.895 133.122 117.666 130.938 114.513 128.644C105.275 121.922 96.3956 114.743 87.6345 107.418C86.1417 106.17 84.7739 104.768 83.4001 103.386ZM116.484 128.025C119.5 130.194 122.595 132.243 125.87 134.011C127.509 134.897 129.203 135.657 130.945 136.308C131.859 136.649 132.802 136.877 133.79 136.959C134.968 137.058 136.023 136.783 136.919 136.05C137.707 135.407 138.463 134.706 139.145 133.952C140.422 132.537 141.498 130.964 142.513 129.351C145.728 124.245 148.968 119.155 152.152 114.029C152.982 112.693 153.638 111.248 154.387 109.86C154.902 108.906 155.172 107.872 155.408 106.828C155.797 105.105 155.5 103.49 154.471 102.056C153.958 101.342 153.384 100.656 152.749 100.051C151.506 98.8668 150.246 97.6919 148.913 96.6122C137.765 87.5839 126.521 78.6809 114.654 70.5975C112.314 69.003 109.95 67.4462 107.456 66.0943C105.969 65.2892 104.406 64.7352 102.753 64.3986C101.118 64.0652 99.6137 64.3427 98.2281 65.2669C96.9836 66.096 95.8779 67.0729 94.9123 68.2252C93.0528 70.4437 91.5629 72.9028 90.1506 75.4124C88.4638 78.4097 86.9946 81.5174 85.6091 84.6628C84.7099 86.7029 83.8441 88.7584 82.9877 90.8165C82.6843 91.5444 82.4512 92.3013 82.1272 93.2109C82.016 93.9173 81.8573 94.7845 81.7477 95.6575C81.548 97.2493 81.9556 98.7132 82.8445 100.023C83.3905 100.827 83.9853 101.617 84.662 102.311C85.8922 103.574 87.1359 104.838 88.4852 105.969C97.5941 113.604 106.828 121.083 116.484 128.025Z" fill="#203B53"/>
<path d="M137.224 52.5536C136.932 52.3395 136.68 52.0661 136.427 51.8038C136.39 51.7666 136.425 51.6204 136.471 51.5562C136.518 51.4915 136.645 51.4113 136.692 51.4334C137.023 51.5858 137.369 51.7267 137.662 51.9382C139.77 53.4555 141.887 54.9627 143.965 56.5217C152.501 62.9259 161.033 69.3361 169.548 75.7687C173.102 78.4529 176.612 81.1947 180.138 83.9168C180.427 84.1404 180.696 84.3994 180.94 84.6716C180.991 84.7278 180.915 84.9301 180.855 85.0411C180.823 85.1003 180.698 85.1087 180.539 85.1682C180.282 84.9734 179.988 84.7547 179.697 84.532C175.272 81.1535 170.862 77.7558 166.421 74.3997C158.462 68.3858 150.489 62.3917 142.512 56.4026C140.77 55.0939 138.982 53.8432 137.224 52.5536Z" fill="#203B53"/>
<path d="M166.107 134.093C167.553 130.719 169.005 127.347 170.434 123.965C171.629 121.14 172.791 118.301 173.979 115.474C175.22 112.517 176.47 109.564 177.728 106.615C178.804 104.093 179.894 101.578 180.986 99.0625C181.226 98.509 181.477 97.9593 181.764 97.43C181.831 97.3071 182.063 97.273 182.219 97.1978C182.287 97.3489 182.406 97.5003 182.408 97.6523C182.41 97.8284 182.321 98.0113 182.247 98.1808C180.936 101.208 179.611 104.23 178.31 107.261C177.099 110.079 175.907 112.905 174.716 115.732C173.527 118.559 172.357 121.394 171.166 124.221C169.958 127.09 168.739 129.956 167.515 132.819C166.711 134.699 165.894 136.573 165.072 138.445C164.981 138.653 164.843 138.852 164.685 139.015C164.616 139.086 164.412 139.106 164.322 139.056C164.237 139.007 164.199 138.84 164.18 138.72C164.167 138.636 164.221 138.542 164.283 138.31C164.853 136.993 165.485 135.545 166.107 134.093Z" fill="#203B53"/>
<path d="M105.028 160.683C104.642 160.213 104.223 159.662 104.087 159.058C103.376 155.904 107.888 150.456 109.573 147.796C108.2 145.66 106.553 143.626 105.335 141.402C104.49 139.857 103.601 137.609 104.166 135.866C104.443 135.009 105.105 134.42 105.917 134.069C109.579 132.487 114.795 134.621 118.251 135.944C119.845 133.852 121.337 131.628 123.113 129.684C124.198 128.497 125.792 127.044 127.489 127.03C128.235 127.024 128.848 127.353 129.37 127.866C132.185 130.633 131.65 136.181 131.621 139.794L131.598 141.511C134.619 142.214 137.747 142.848 140.371 144.594C141.652 145.446 142.893 146.616 143.157 148.201C143.311 149.125 143.128 150.089 142.56 150.845C140.682 153.345 133.47 153.815 130.44 154.295C130.504 156.308 130.797 158.266 130.561 160.288C130.323 162.33 129.547 164.716 127.838 165.982C127.077 166.546 126.215 166.726 125.284 166.582C121.611 166.018 118.871 161.407 116.901 158.602C113.547 159.717 108.507 162.127 105.028 160.683Z" fill="#203B53"/>
<path d="M106.278 158.867C105.962 154.909 111.806 151.16 111.783 147.751C111.765 145.152 105.971 140.305 106.357 137.215C106.41 136.79 106.595 136.464 106.959 136.226C109.36 134.654 116.483 137.964 119.044 138.66L119.268 138.718C120.553 137.124 121.69 135.384 122.894 133.725C123.91 132.326 125.52 129.762 127.313 129.476C127.788 129.606 128.025 129.699 128.33 130.104C130.064 132.402 129.12 139.459 128.867 142.312C128.872 142.613 128.86 143.062 128.957 143.341C129.076 143.682 129.238 143.824 129.57 143.929C130.345 144.173 131.419 144.146 132.242 144.235C134.641 144.494 137.41 145.25 139.42 146.624C140.072 147.07 140.688 147.72 140.781 148.541C140.835 149.031 140.794 149.358 140.449 149.727C138.803 151.483 131.053 151 128.705 152.522C126.813 153.748 129.519 160.729 127.262 163.259C126.805 163.772 126.046 164.177 125.346 164.161C122.785 164.105 120.183 158.653 118.606 156.954C118.248 156.568 118.036 156.337 117.494 156.263C114.966 155.916 109.966 159.008 106.278 158.867Z" fill="#FACA2E"/>
<path d="M121.708 157.111C120.737 155.884 119.417 154.172 119.01 152.661C118.854 152.08 118.839 151.421 119.216 150.915C119.536 150.484 120.084 150.151 120.633 150.18C121.441 150.222 122.028 150.874 122.566 151.4C123.733 152.831 125.088 154.355 125.248 156.281C125.304 156.955 125.205 157.69 124.707 158.185C124.471 158.42 124.077 158.521 123.747 158.461C122.871 158.302 122.258 157.768 121.708 157.111Z" fill="#E5F5F0"/>
<path d="M206.752 150.189C206.498 149.841 206.225 149.435 206.154 149.003C205.779 146.746 209.188 143.08 210.486 141.269C209.603 139.705 208.522 138.201 207.752 136.581C207.217 135.455 206.681 133.831 207.151 132.622C207.381 132.028 207.873 131.639 208.461 131.424C211.112 130.455 214.71 132.174 217.098 133.249C218.309 131.836 219.453 130.325 220.787 129.024C221.601 128.23 222.786 127.267 223.986 127.327C224.513 127.352 224.932 127.61 225.28 127.994C227.157 130.063 226.554 133.96 226.387 136.512L226.301 137.724C228.407 138.343 230.591 138.918 232.373 140.257C233.243 140.911 234.073 141.788 234.195 142.919C234.267 143.578 234.098 144.252 233.666 144.762C232.238 146.452 227.124 146.492 224.964 146.708C224.927 148.132 225.055 149.528 224.806 150.946C224.555 152.379 223.91 154.034 222.652 154.859C222.091 155.226 221.475 155.318 220.823 155.179C218.251 154.631 216.502 151.263 215.224 149.201C212.81 149.853 209.151 151.35 206.752 150.189Z" fill="#203B53"/>
<path d="M207.71 148.957C207.647 146.148 211.928 143.737 212.05 141.327C212.143 139.491 208.247 135.831 208.645 133.664C208.699 133.366 208.843 133.144 209.11 132.99C210.87 131.977 215.767 134.604 217.549 135.2L217.704 135.25C218.677 134.176 219.551 132.993 220.469 131.87C221.243 130.923 222.485 129.177 223.763 129.047C224.093 129.158 224.257 129.234 224.456 129.532C225.588 131.226 224.634 136.173 224.34 138.179C224.331 138.391 224.304 138.708 224.362 138.909C224.432 139.155 224.54 139.262 224.771 139.349C225.308 139.553 226.068 139.578 226.646 139.674C228.33 139.954 230.255 140.601 231.62 141.653C232.062 141.994 232.471 142.479 232.503 143.063C232.522 143.411 232.48 143.64 232.221 143.887C230.987 145.061 225.532 144.405 223.811 145.385C222.425 146.174 224.053 151.216 222.356 152.912C222.012 153.255 221.459 153.51 220.965 153.471C219.159 153.327 217.542 149.37 216.497 148.106C216.26 147.819 216.119 147.647 215.739 147.572C213.968 147.225 210.31 149.206 207.71 148.957Z" fill="#FACA2E"/>
<path d="M218.68 148.343C218.044 147.436 217.182 146.173 216.956 145.09C216.869 144.673 216.885 144.206 217.172 143.864C217.416 143.573 217.816 143.36 218.203 143.402C218.771 143.465 219.16 143.949 219.519 144.343C220.285 145.401 221.181 146.532 221.215 147.899C221.227 148.378 221.128 148.893 220.756 149.223C220.58 149.379 220.297 149.434 220.067 149.379C219.454 149.231 219.042 148.829 218.68 148.343Z" fill="#E5F5F0"/>
<path d="M64.2404 45.2956C64.7601 46.008 65.3186 46.8387 65.4655 47.7232C66.2318 52.3402 59.2575 59.8402 56.6016 63.5449C58.4084 66.7454 60.621 69.8217 62.1954 73.1368C63.2896 75.4404 64.3866 78.7636 63.4258 81.236C62.954 82.4511 61.9481 83.2475 60.7455 83.687C55.3218 85.6698 47.9609 82.152 43.075 79.9531C40.5981 82.8453 38.2563 85.9357 35.5282 88.5977C33.8625 90.2225 31.4375 92.191 28.9835 92.0701C27.9047 92.0172 27.0469 91.4902 26.3347 90.7049C22.4952 86.4726 23.73 78.4988 24.0717 73.2784L24.2466 70.799C19.9386 69.5321 15.4707 68.3558 11.8237 65.6152C10.0435 64.2773 8.34632 62.4833 8.09609 60.1704C7.95029 58.8223 8.2955 57.4439 9.17863 56.3989C12.1013 52.9414 22.563 52.8609 26.982 52.4187C27.0567 49.5042 26.7964 46.6494 27.3047 43.7469C27.8182 40.8154 29.1381 37.4311 31.713 35.7432C32.8598 34.9912 34.1203 34.8037 35.4544 35.088C40.716 36.208 44.2932 43.0999 46.9078 47.3181C51.8472 45.9845 59.3325 42.9209 64.2404 45.2956Z" fill="#203B53"/>
<path d="M62.2818 47.8166C62.4095 53.5635 53.6521 58.4974 53.4021 63.4262C53.2115 67.1837 61.1832 74.6704 60.369 79.1044C60.257 79.7134 59.9627 80.1693 59.4173 80.483C55.8165 82.5562 45.7972 77.1811 42.1525 75.9626L41.8347 75.8595C39.8447 78.0572 38.056 80.4777 36.1787 82.7747C34.5946 84.7127 32.0537 88.2842 29.4397 88.5492C28.7635 88.3227 28.4291 88.168 28.0216 87.558C25.7059 84.0915 27.6564 73.9707 28.2593 69.8679C28.2766 69.4335 28.3311 68.7858 28.2135 68.3745C28.0701 67.8715 27.8482 67.6519 27.3774 67.4735C26.2776 67.0567 24.7234 67.0061 23.54 66.8089C20.0955 66.2358 16.1562 64.9124 13.3646 62.7596C12.4596 62.062 11.6225 61.0705 11.5573 59.876C11.5188 59.1642 11.6059 58.6948 12.1358 58.1905C14.66 55.7886 25.8203 57.1297 29.3408 55.1253C32.1768 53.5111 28.8456 43.1964 32.3181 39.7265C33.0213 39.0241 34.1517 38.5012 35.1623 38.5819C38.8582 38.8766 42.1665 46.9715 44.3043 49.5588C44.7896 50.1458 45.0767 50.4972 45.8543 50.6496C49.4789 51.3609 56.9627 47.3071 62.2818 47.8166Z" fill="#FACA2E"/>
<path d="M39.8369 49.0735C41.1384 50.9283 42.9028 53.5121 43.3656 55.7288C43.5432 56.5816 43.511 57.5354 42.9237 58.236C42.4246 58.8315 41.6062 59.2676 40.814 59.1808C39.6509 59.0526 38.8554 58.0623 38.1219 57.2571C36.5547 55.0911 34.7216 52.777 34.6511 49.9803C34.6261 49.0002 34.8297 47.9468 35.5904 47.273C35.951 46.9529 36.5293 46.8399 37.001 46.9539C38.2538 47.2563 39.0964 48.0786 39.8369 49.0735Z" fill="#E5F5F0"/>
</svg>
