<svg width="85" height="83" viewBox="0 0 85 83" fill="none" xmlns="http://www.w3.org/2000/svg">
<mask id="path-1-outside-1_2369_566" maskUnits="userSpaceOnUse" x="-0.0742223" y="-0.500675" width="85" height="84" fill="black">
<rect fill="white" x="-0.0742223" y="-0.500675" width="85" height="84"/>
<path d="M82.9189 45.1985C83.0707 53.4249 80.4669 61.923 74.8291 68.0501C67.3805 76.1444 54.4071 81.0316 43.5752 81.47C33.111 81.8942 22.1398 77.8315 14.4551 70.721C5.20562 62.1631 2.01063 50.384 1.50195 38.1556C2.02383 29.7283 4.39915 21.1097 10.0605 14.6341C16.4904 7.27988 26.1613 2.12414 35.9717 1.5589C47.5257 0.893821 58.4339 5.9281 66.9229 13.5599C76.7555 22.4001 82.2528 31.8481 82.9189 45.1985Z"/>
</mask>
<path d="M82.9189 45.1985C83.0707 53.4249 80.4669 61.923 74.8291 68.0501C67.3805 76.1444 54.4071 81.0316 43.5752 81.47C33.111 81.8942 22.1398 77.8315 14.4551 70.721C5.20562 62.1631 2.01063 50.384 1.50195 38.1556C2.02383 29.7283 4.39915 21.1097 10.0605 14.6341C16.4904 7.27988 26.1613 2.12414 35.9717 1.5589C47.5257 0.893821 58.4339 5.9281 66.9229 13.5599C76.7555 22.4001 82.2528 31.8481 82.9189 45.1985Z" fill="#3FBBC1"/>
<path d="M82.9189 45.1985L84.4187 45.1709L84.4183 45.1473L84.4171 45.1238L82.9189 45.1985ZM74.8291 68.0501L75.9329 69.0658L75.9329 69.0658L74.8291 68.0501ZM43.5752 81.47L43.5145 79.9713L43.5144 79.9713L43.5752 81.47ZM14.4551 70.721L15.4738 69.62L15.4738 69.62L14.4551 70.721ZM1.50195 38.1556L0.00482018 38.0629L2.12866e-05 38.1404L0.00324852 38.2179L1.50195 38.1556ZM10.0605 14.6341L8.9313 13.6468L8.93127 13.6468L10.0605 14.6341ZM35.9717 1.5589L35.8855 0.0613757L35.8854 0.0613805L35.9717 1.5589ZM66.9229 13.5599L67.9257 12.4444L67.9257 12.4444L66.9229 13.5599ZM82.9189 45.1985L81.4192 45.2262C81.5652 53.1431 79.0544 61.2428 73.7253 67.0344L74.8291 68.0501L75.9329 69.0658C81.8794 62.6032 84.5761 53.7068 84.4187 45.1709L82.9189 45.1985ZM74.8291 68.0501L73.7253 67.0344C66.6039 74.7731 54.042 79.5452 43.5145 79.9713L43.5752 81.47L43.6359 82.9688C54.7722 82.5181 68.157 77.5157 75.9329 69.0658L74.8291 68.0501ZM43.5752 81.47L43.5144 79.9713C33.4505 80.3792 22.8672 76.4609 15.4738 69.62L14.4551 70.721L13.4364 71.822C21.4124 79.202 32.7715 83.4092 43.6359 82.9688L43.5752 81.47ZM14.4551 70.721L15.4738 69.62C6.63453 61.4416 3.50113 50.1246 3.00065 38.0932L1.50195 38.1556L0.00324852 38.2179C0.520117 50.6434 3.7767 62.8846 13.4364 71.822L14.4551 70.721ZM1.50195 38.1556L2.99908 38.2483C3.50934 30.0085 5.82503 21.7577 11.1898 15.6214L10.0605 14.6341L8.93127 13.6468C2.97327 20.4616 0.538306 29.4481 0.00482018 38.0629L1.50195 38.1556ZM10.0605 14.6341L11.1898 15.6214C17.3816 8.53945 26.6889 3.59623 36.058 3.05641L35.9717 1.5589L35.8854 0.0613805C25.6337 0.652046 15.5992 6.02032 8.9313 13.6468L10.0605 14.6341ZM35.9717 1.5589L36.0579 3.05642C47.1126 2.42009 57.6449 7.23578 65.92 14.6754L66.9229 13.5599L67.9257 12.4444C59.223 4.62043 47.9389 -0.632444 35.8855 0.0613757L35.9717 1.5589ZM66.9229 13.5599L65.92 14.6753C75.5192 23.3057 80.7785 32.3999 81.4208 45.2733L82.9189 45.1985L84.4171 45.1238C83.7271 31.2963 77.9918 21.4946 67.9257 12.4444L66.9229 13.5599Z" fill="#203B53" mask="url(#path-1-outside-1_2369_566)"/>
<path d="M33.1533 70.129C32.9893 70.7125 32.9101 70.9934 32.4395 71.3878C31.8388 71.3968 31.6538 71.2494 31.1895 70.8751C26.4201 67.0312 22.0754 62.5326 17.5615 58.3898C14.7504 55.8101 11.6873 53.5138 8.89551 50.9327C8.98883 50.7541 9.08341 50.575 9.18945 50.4034C9.48498 49.925 9.56448 49.6897 10.1514 49.5704C13.8948 51.6045 29.4637 66.4409 33.1533 70.129ZM33.1436 53.5597C32.8749 54.1565 32.6971 54.5803 32.1602 54.9933C31.7226 54.8632 11.4731 37.511 9.37891 35.5704C9.56035 34.9705 9.64149 34.6497 10.1123 34.2062C10.7807 34.1802 11.0484 34.3097 11.6074 34.6769C14.543 36.6031 17.2315 39.3223 19.8418 41.67C24.2454 45.6668 28.6796 49.6299 33.1436 53.5597ZM66.6094 66.84C66.2899 67.3607 66.1452 67.5951 65.5723 67.8322C63.6862 67.4583 59.8455 63.0253 58.2363 61.5636C50.5242 54.5129 42.7534 47.5261 34.9258 40.6036C28.6635 35.0579 22.4549 29.5107 15.707 24.5509C15.774 24.3689 15.8543 24.1262 15.957 23.9659C16.3293 23.3851 16.4822 23.3927 17.1152 23.3116C21.2977 24.7551 60.8014 60.8472 66.6094 66.84ZM73.4365 58.4718C73.3894 58.6693 73.3819 58.7346 73.2881 58.9415C73.0251 59.5189 72.8593 59.699 72.2607 59.8654C71.9751 59.7537 71.741 59.6664 71.4912 59.4835C69.532 58.0523 67.6803 56.0754 65.8271 54.4679L49.46 40.0441L29.3301 22.3859C26.8628 20.1967 23.9315 18.2183 21.7441 15.7628C21.8002 15.5635 21.8647 15.3032 21.9551 15.1212C22.2417 14.5437 22.3473 14.4633 22.9248 14.3087C24.7224 14.9617 39.2453 28.5251 41.6582 30.6466L73.4365 58.4718ZM76.0811 48.7482C76.0188 49.2116 75.9684 49.5239 75.7412 49.9435C75.5118 50.3661 75.6293 50.2202 75.1103 50.379C71.2682 47.8842 67.2414 43.7585 63.6406 40.756C57.5554 35.6815 51.3671 30.7308 45.3271 25.6007C40.7562 21.718 36.3649 17.6346 31.7393 13.8146C31.7689 13.6623 31.7857 13.506 31.8291 13.3566C31.9941 12.7921 32.3433 12.4962 32.8281 12.2267C33.7658 12.4671 72.0942 45.1813 76.0811 48.7482ZM75.7852 39.5519C75.5023 40.0761 75.177 40.4032 74.7607 40.8204C74.6137 40.8308 74.4655 40.872 74.3193 40.8517C73.5275 40.7375 44.4077 13.6688 39.3652 10.2814C39.3912 10.089 39.416 9.82248 39.4961 9.64758C39.7548 9.08345 39.9456 9.02709 40.4912 8.9093C43.9994 10.3532 52.8673 19.293 56.1445 22.1554C62.7422 27.9181 69.567 33.3606 75.7852 39.5519ZM50.0908 73.9972C50.0592 74.1476 50.0513 74.3046 49.9971 74.4484C49.8227 74.9078 49.5265 74.9462 49.1133 75.0597C47.0071 74.4794 42.4558 69.5867 40.6103 67.9259C41.1138 67.3951 41.524 66.8036 42.2891 66.7003C44.6971 67.8014 48.2665 71.9631 50.0908 73.9972Z" fill="#3FBBC1"/>
<path d="M18.4384 38.1637H21.4624V47.7397C21.3344 47.7877 21.1424 47.8277 20.8864 47.8597C20.6304 47.9077 20.3584 47.9317 20.0704 47.9317C19.4944 47.9317 19.0784 47.8277 18.8224 47.6197C18.5664 47.3957 18.4384 47.0277 18.4384 46.5157V38.1637ZM21.4624 41.6677H18.4384V33.2197C18.5664 33.1877 18.7664 33.1477 19.0384 33.0997C19.3104 33.0517 19.5824 33.0277 19.8544 33.0277C20.4144 33.0277 20.8224 33.1317 21.0784 33.3397C21.3344 33.5317 21.4624 33.8997 21.4624 34.4437V41.6677ZM35.3873 40.3717V42.6997H32.4353V40.4917C32.4353 39.7877 32.2353 39.2757 31.8353 38.9557C31.4353 38.6197 30.8993 38.4517 30.2273 38.4517C29.7313 38.4517 29.2833 38.5157 28.8833 38.6437C28.4993 38.7557 28.1553 38.8917 27.8513 39.0517V42.6997H24.8993V38.8597C24.8993 38.4757 24.9793 38.1637 25.1393 37.9237C25.2993 37.6677 25.5393 37.4357 25.8593 37.2277C26.3393 36.9077 26.9553 36.6437 27.7073 36.4357C28.4753 36.2117 29.3233 36.0997 30.2513 36.0997C31.8673 36.0997 33.1233 36.4597 34.0193 37.1797C34.9313 37.8997 35.3873 38.9637 35.3873 40.3717ZM24.8993 41.5237H27.8513V47.7397C27.7233 47.7877 27.5393 47.8277 27.2993 47.8597C27.0593 47.9077 26.7953 47.9317 26.5073 47.9317C25.9633 47.9317 25.5553 47.8357 25.2833 47.6437C25.0273 47.4357 24.8993 47.0757 24.8993 46.5637V41.5237ZM32.4353 41.5237H35.3873V47.7397C35.2753 47.7877 35.0913 47.8277 34.8353 47.8597C34.5953 47.9077 34.3393 47.9317 34.0673 47.9317C33.5073 47.9317 33.0913 47.8357 32.8193 47.6437C32.5633 47.4357 32.4353 47.0757 32.4353 46.5637V41.5237ZM48.981 40.3717V42.6997H46.029V40.4917C46.029 39.7877 45.829 39.2757 45.429 38.9557C45.029 38.6197 44.493 38.4517 43.821 38.4517C43.325 38.4517 42.877 38.5157 42.477 38.6437C42.093 38.7557 41.749 38.8917 41.445 39.0517V42.6997H38.493V38.8597C38.493 38.4757 38.573 38.1637 38.733 37.9237C38.893 37.6677 39.133 37.4357 39.453 37.2277C39.933 36.9077 40.549 36.6437 41.301 36.4357C42.069 36.2117 42.917 36.0997 43.845 36.0997C45.461 36.0997 46.717 36.4597 47.613 37.1797C48.525 37.8997 48.981 38.9637 48.981 40.3717ZM38.493 41.5237H41.445V47.7397C41.317 47.7877 41.133 47.8277 40.893 47.8597C40.653 47.9077 40.389 47.9317 40.101 47.9317C39.557 47.9317 39.149 47.8357 38.877 47.6437C38.621 47.4357 38.493 47.0757 38.493 46.5637V41.5237ZM46.029 41.5237H48.981V47.7397C48.869 47.7877 48.685 47.8277 48.429 47.8597C48.189 47.9077 47.933 47.9317 47.661 47.9317C47.101 47.9317 46.685 47.8357 46.413 47.6437C46.157 47.4357 46.029 47.0757 46.029 46.5637V41.5237ZM53.3828 43.6117L53.2628 41.5477L59.6948 40.5877C59.6468 39.9797 59.4148 39.4517 58.9988 39.0037C58.5828 38.5557 57.9748 38.3317 57.1748 38.3317C56.3588 38.3317 55.6788 38.6197 55.1348 39.1957C54.5908 39.7557 54.3108 40.5637 54.2948 41.6197L54.3668 42.8677C54.5108 43.8917 54.9028 44.6437 55.5428 45.1237C56.1988 45.6037 57.0228 45.8437 58.0148 45.8437C58.6868 45.8437 59.3108 45.7477 59.8868 45.5557C60.4628 45.3477 60.9188 45.1237 61.2548 44.8837C61.4788 45.0277 61.6548 45.2117 61.7828 45.4357C61.9268 45.6437 61.9988 45.8757 61.9988 46.1317C61.9988 46.5477 61.8148 46.9077 61.4468 47.2117C61.0788 47.4997 60.5828 47.7237 59.9588 47.8837C59.3348 48.0437 58.6228 48.1237 57.8228 48.1237C56.5908 48.1237 55.4948 47.8997 54.5348 47.4517C53.5908 46.9877 52.8468 46.2997 52.3028 45.3877C51.7748 44.4757 51.5108 43.3397 51.5108 41.9797C51.5108 41.0037 51.6628 40.1477 51.9668 39.4117C52.2708 38.6757 52.6788 38.0677 53.1908 37.5877C53.7188 37.0917 54.3268 36.7237 55.0148 36.4837C55.7028 36.2277 56.4228 36.0997 57.1748 36.0997C58.2308 36.0997 59.1508 36.3157 59.9348 36.7477C60.7348 37.1637 61.3588 37.7477 61.8068 38.4997C62.2708 39.2517 62.5028 40.1157 62.5028 41.0917C62.5028 41.5397 62.3828 41.8757 62.1428 42.0997C61.9188 42.3077 61.5988 42.4357 61.1828 42.4837L53.3828 43.6117ZM67.8357 39.1477V42.4357H64.8837V38.9077C64.8837 38.5077 64.9797 38.1717 65.1717 37.8997C65.3637 37.6117 65.6357 37.3477 65.9877 37.1077C66.4677 36.8197 67.0757 36.5797 67.8117 36.3877C68.5477 36.1957 69.3397 36.0997 70.1877 36.0997C71.6917 36.0997 72.4437 36.5637 72.4437 37.4917C72.4437 37.7157 72.4117 37.9237 72.3477 38.1157C72.2837 38.2917 72.2037 38.4517 72.1077 38.5957C71.9477 38.5637 71.7477 38.5397 71.5077 38.5237C71.2677 38.4917 71.0117 38.4757 70.7397 38.4757C70.1637 38.4757 69.6197 38.5397 69.1077 38.6677C68.6117 38.7797 68.1877 38.9397 67.8357 39.1477ZM64.8837 41.4517L67.8357 41.5957V47.7397C67.7077 47.7877 67.5237 47.8277 67.2837 47.8597C67.0437 47.9077 66.7797 47.9317 66.4917 47.9317C65.9477 47.9317 65.5397 47.8357 65.2677 47.6437C65.0117 47.4357 64.8837 47.0757 64.8837 46.5637V41.4517Z" fill="#203B53"/>
</svg>
