<svg width="85" height="83" viewBox="0 0 85 83" fill="none" xmlns="http://www.w3.org/2000/svg">
<mask id="path-1-outside-1_2369_578" maskUnits="userSpaceOnUse" x="-0.0751989" y="-0.499637" width="85" height="84" fill="black">
<rect fill="white" x="-0.0751989" y="-0.499637" width="85" height="84"/>
<path d="M82.9189 45.1986C83.0707 53.425 80.4669 61.923 74.8291 68.0502C67.3805 76.1446 54.4072 81.0316 43.5752 81.4701C33.1109 81.8944 22.1399 77.8315 14.4551 70.7211C5.20562 62.1632 2.01063 50.3841 1.50195 38.1556C2.02386 29.7284 4.39823 21.1096 10.0596 14.6342C16.4893 7.27993 26.1604 2.12428 35.9707 1.55896C47.525 0.89377 58.4338 5.92893 66.9229 13.5609C76.7553 22.4011 82.2528 31.8483 82.9189 45.1986Z"/>
</mask>
<path d="M82.9189 45.1986C83.0707 53.425 80.4669 61.923 74.8291 68.0502C67.3805 76.1446 54.4072 81.0316 43.5752 81.4701C33.1109 81.8944 22.1399 77.8315 14.4551 70.7211C5.20562 62.1632 2.01063 50.3841 1.50195 38.1556C2.02386 29.7284 4.39823 21.1096 10.0596 14.6342C16.4893 7.27993 26.1604 2.12428 35.9707 1.55896C47.525 0.89377 58.4338 5.92893 66.9229 13.5609C76.7553 22.4011 82.2528 31.8483 82.9189 45.1986Z" fill="#C1C1C1"/>
<path d="M82.9189 45.1986L84.4187 45.1709L84.4183 45.1474L84.4171 45.1239L82.9189 45.1986ZM74.8291 68.0502L75.9329 69.0659L75.9329 69.0658L74.8291 68.0502ZM43.5752 81.4701L43.5145 79.9713L43.5144 79.9713L43.5752 81.4701ZM14.4551 70.7211L15.4738 69.6201L15.4738 69.62L14.4551 70.7211ZM1.50195 38.1556L0.00482018 38.0629L2.12866e-05 38.1404L0.00324852 38.218L1.50195 38.1556ZM10.0596 14.6342L8.93031 13.6468L8.9303 13.6469L10.0596 14.6342ZM35.9707 1.55896L35.8845 0.0614376L35.8844 0.0614422L35.9707 1.55896ZM66.9229 13.5609L67.9257 12.4455L67.9257 12.4454L66.9229 13.5609ZM82.9189 45.1986L81.4192 45.2263C81.5653 53.1432 79.0544 61.2428 73.7253 67.0345L74.8291 68.0502L75.9329 69.0658C81.8794 62.6032 84.5762 53.7069 84.4187 45.1709L82.9189 45.1986ZM74.8291 68.0502L73.7253 67.0345C66.6039 74.7733 54.0421 79.5452 43.5145 79.9713L43.5752 81.4701L43.6359 82.9689C54.7723 82.5181 68.1571 77.5159 75.9329 69.0659L74.8291 68.0502ZM43.5752 81.4701L43.5144 79.9713C33.4504 80.3794 22.8673 76.461 15.4738 69.6201L14.4551 70.7211L13.4364 71.8221C21.4124 79.2021 32.7715 83.4094 43.636 82.9689L43.5752 81.4701ZM14.4551 70.7211L15.4738 69.62C6.63453 61.4417 3.50113 50.1247 3.00065 38.0933L1.50195 38.1556L0.00324852 38.218C0.520117 50.6435 3.7767 62.8847 13.4364 71.8221L14.4551 70.7211ZM1.50195 38.1556L2.99908 38.2484C3.50939 30.0085 5.82417 21.7576 11.1888 15.6214L10.0596 14.6342L8.9303 13.6469C2.97229 20.4617 0.538336 29.4483 0.00482018 38.0629L1.50195 38.1556ZM10.0596 14.6342L11.1888 15.6215C17.3806 8.53951 26.6879 3.59636 36.057 3.05647L35.9707 1.55896L35.8844 0.0614422C25.6328 0.652189 15.5981 6.02036 8.93031 13.6468L10.0596 14.6342ZM35.9707 1.55896L36.0569 3.05648C47.1118 2.42004 57.6447 7.23656 65.92 14.6764L66.9229 13.5609L67.9257 12.4454C59.2229 4.62129 47.9382 -0.632502 35.8845 0.0614376L35.9707 1.55896ZM66.9229 13.5609L65.92 14.6764C75.519 23.3067 80.7785 32.4002 81.4208 45.2734L82.9189 45.1986L84.4171 45.1239C83.7271 31.2964 77.9916 21.4955 67.9257 12.4455L66.9229 13.5609Z" fill="#3A3A3A" mask="url(#path-1-outside-1_2369_578)"/>
<path d="M33.1528 70.1293C32.9888 70.7128 32.9097 70.9937 32.439 71.3881C31.8384 71.3971 31.6533 71.2497 31.189 70.8754C26.4196 67.0315 22.0749 62.5329 17.561 58.3901C14.7499 55.8104 11.6868 53.5141 8.89502 50.933C8.98834 50.7544 9.08292 50.5753 9.18896 50.4037C9.4845 49.9253 9.56399 49.69 10.1509 49.5707C13.8943 51.6048 29.4632 66.4412 33.1528 70.1293ZM33.1431 53.56C32.8744 54.1568 32.6966 54.5806 32.1597 54.9936C31.7221 54.8635 11.4726 37.5113 9.37842 35.5707C9.55986 34.9708 9.64101 34.65 10.1118 34.2065C10.7802 34.1806 11.0479 34.31 11.6069 34.6772C14.5425 36.6034 17.231 39.3226 19.8413 41.6703C24.2449 45.6671 28.6791 49.6302 33.1431 53.56ZM66.6089 66.8403C66.2894 67.361 66.1447 67.5954 65.5718 67.8325C63.6857 67.4586 59.845 63.0256 58.2358 61.5639C50.5237 54.5132 42.7529 47.5264 34.9253 40.6039C28.663 35.0582 22.4544 29.511 15.7065 24.5512C15.7735 24.3692 15.8538 24.1265 15.9565 23.9662C16.3288 23.3854 16.4818 23.393 17.1147 23.3119C21.2972 24.7554 60.8009 60.8475 66.6089 66.8403ZM73.436 58.4721C73.3889 58.6696 73.3814 58.7349 73.2876 58.9418C73.0246 59.5192 72.8588 59.6993 72.2603 59.8657C71.9746 59.754 71.7405 59.6667 71.4907 59.4838C69.5315 58.0526 67.6798 56.0758 65.8267 54.4682L49.4595 40.0444L29.3296 22.3862C26.8623 20.197 23.931 18.2186 21.7437 15.7631C21.7997 15.5638 21.8642 15.3035 21.9546 15.1215C22.2412 14.544 22.3468 14.4636 22.9243 14.309C24.7219 14.962 39.2448 28.5254 41.6577 30.6469L73.436 58.4721ZM76.0806 48.7485C76.0183 49.2119 75.9679 49.5242 75.7407 49.9438C75.5113 50.3664 75.6288 50.2205 75.1099 50.3793C71.2677 47.8845 67.2409 43.7588 63.6401 40.7563C57.5549 35.6818 51.3666 30.7311 45.3267 25.601C40.7557 21.7183 36.3644 17.6349 31.7388 13.8149C31.7685 13.6626 31.7853 13.5063 31.8286 13.3569C31.9936 12.7924 32.3428 12.4965 32.8276 12.227C33.7653 12.4674 72.0937 45.1816 76.0806 48.7485ZM75.7847 39.5522C75.5018 40.0764 75.1765 40.4035 74.7603 40.8207C74.6132 40.8311 74.465 40.8723 74.3188 40.852C73.527 40.7378 44.4072 13.6691 39.3647 10.2817C39.3907 10.0893 39.4155 9.82279 39.4956 9.64789C39.7543 9.08375 39.9451 9.0274 40.4907 8.90961C43.999 10.3535 52.8668 19.2933 56.144 22.1557C62.7417 27.9184 69.5665 33.3609 75.7847 39.5522ZM50.0903 73.9975C50.0588 74.1479 50.0508 74.3049 49.9966 74.4487C49.8222 74.9081 49.526 74.9465 49.1128 75.06C47.0066 74.4797 42.4553 69.587 40.6099 67.9262C41.1133 67.3954 41.5235 66.8039 42.2886 66.7006C44.6966 67.8017 48.266 71.9634 50.0903 73.9975Z" fill="#C1C1C1"/>
<path d="M18.4379 38.164H21.4619V47.74C21.3339 47.788 21.1419 47.828 20.8859 47.86C20.6299 47.908 20.3579 47.932 20.0699 47.932C19.4939 47.932 19.0779 47.828 18.8219 47.62C18.5659 47.396 18.4379 47.028 18.4379 46.516V38.164ZM21.4619 41.668H18.4379V33.22C18.5659 33.188 18.7659 33.148 19.0379 33.1C19.3099 33.052 19.5819 33.028 19.8539 33.028C20.4139 33.028 20.8219 33.132 21.0779 33.34C21.3339 33.532 21.4619 33.9 21.4619 34.444V41.668ZM35.3868 40.372V42.7H32.4348V40.492C32.4348 39.788 32.2348 39.276 31.8348 38.956C31.4348 38.62 30.8988 38.452 30.2268 38.452C29.7308 38.452 29.2828 38.516 28.8828 38.644C28.4988 38.756 28.1548 38.892 27.8508 39.052V42.7H24.8988V38.86C24.8988 38.476 24.9788 38.164 25.1388 37.924C25.2988 37.668 25.5388 37.436 25.8588 37.228C26.3388 36.908 26.9548 36.644 27.7068 36.436C28.4748 36.212 29.3228 36.1 30.2508 36.1C31.8668 36.1 33.1228 36.46 34.0188 37.18C34.9308 37.9 35.3868 38.964 35.3868 40.372ZM24.8988 41.524H27.8508V47.74C27.7228 47.788 27.5388 47.828 27.2988 47.86C27.0588 47.908 26.7948 47.932 26.5068 47.932C25.9628 47.932 25.5548 47.836 25.2828 47.644C25.0268 47.436 24.8988 47.076 24.8988 46.564V41.524ZM32.4348 41.524H35.3868V47.74C35.2748 47.788 35.0908 47.828 34.8348 47.86C34.5948 47.908 34.3388 47.932 34.0668 47.932C33.5068 47.932 33.0908 47.836 32.8188 47.644C32.5628 47.436 32.4348 47.076 32.4348 46.564V41.524ZM48.9805 40.372V42.7H46.0285V40.492C46.0285 39.788 45.8285 39.276 45.4285 38.956C45.0285 38.62 44.4925 38.452 43.8205 38.452C43.3245 38.452 42.8765 38.516 42.4765 38.644C42.0925 38.756 41.7485 38.892 41.4445 39.052V42.7H38.4925V38.86C38.4925 38.476 38.5725 38.164 38.7325 37.924C38.8925 37.668 39.1325 37.436 39.4525 37.228C39.9325 36.908 40.5485 36.644 41.3005 36.436C42.0685 36.212 42.9165 36.1 43.8445 36.1C45.4605 36.1 46.7165 36.46 47.6125 37.18C48.5245 37.9 48.9805 38.964 48.9805 40.372ZM38.4925 41.524H41.4445V47.74C41.3165 47.788 41.1325 47.828 40.8925 47.86C40.6525 47.908 40.3885 47.932 40.1005 47.932C39.5565 47.932 39.1485 47.836 38.8765 47.644C38.6205 47.436 38.4925 47.076 38.4925 46.564V41.524ZM46.0285 41.524H48.9805V47.74C48.8685 47.788 48.6845 47.828 48.4285 47.86C48.1885 47.908 47.9325 47.932 47.6605 47.932C47.1005 47.932 46.6845 47.836 46.4125 47.644C46.1565 47.436 46.0285 47.076 46.0285 46.564V41.524ZM53.3823 43.612L53.2623 41.548L59.6943 40.588C59.6463 39.98 59.4143 39.452 58.9983 39.004C58.5823 38.556 57.9743 38.332 57.1743 38.332C56.3583 38.332 55.6783 38.62 55.1343 39.196C54.5903 39.756 54.3103 40.564 54.2943 41.62L54.3663 42.868C54.5103 43.892 54.9023 44.644 55.5423 45.124C56.1983 45.604 57.0223 45.844 58.0143 45.844C58.6863 45.844 59.3103 45.748 59.8863 45.556C60.4623 45.348 60.9183 45.124 61.2543 44.884C61.4783 45.028 61.6543 45.212 61.7823 45.436C61.9263 45.644 61.9983 45.876 61.9983 46.132C61.9983 46.548 61.8143 46.908 61.4463 47.212C61.0783 47.5 60.5823 47.724 59.9583 47.884C59.3343 48.044 58.6223 48.124 57.8223 48.124C56.5903 48.124 55.4943 47.9 54.5343 47.452C53.5903 46.988 52.8463 46.3 52.3023 45.388C51.7743 44.476 51.5103 43.34 51.5103 41.98C51.5103 41.004 51.6623 40.148 51.9663 39.412C52.2703 38.676 52.6783 38.068 53.1903 37.588C53.7183 37.092 54.3263 36.724 55.0143 36.484C55.7023 36.228 56.4223 36.1 57.1743 36.1C58.2303 36.1 59.1503 36.316 59.9343 36.748C60.7343 37.164 61.3583 37.748 61.8063 38.5C62.2703 39.252 62.5023 40.116 62.5023 41.092C62.5023 41.54 62.3823 41.876 62.1423 42.1C61.9183 42.308 61.5983 42.436 61.1823 42.484L53.3823 43.612ZM67.8352 39.148V42.436H64.8832V38.908C64.8832 38.508 64.9792 38.172 65.1712 37.9C65.3632 37.612 65.6352 37.348 65.9872 37.108C66.4672 36.82 67.0752 36.58 67.8112 36.388C68.5472 36.196 69.3392 36.1 70.1872 36.1C71.6912 36.1 72.4432 36.564 72.4432 37.492C72.4432 37.716 72.4112 37.924 72.3472 38.116C72.2832 38.292 72.2032 38.452 72.1072 38.596C71.9472 38.564 71.7472 38.54 71.5072 38.524C71.2672 38.492 71.0112 38.476 70.7392 38.476C70.1632 38.476 69.6192 38.54 69.1072 38.668C68.6112 38.78 68.1872 38.94 67.8352 39.148ZM64.8832 41.452L67.8352 41.596V47.74C67.7072 47.788 67.5232 47.828 67.2832 47.86C67.0432 47.908 66.7792 47.932 66.4912 47.932C65.9472 47.932 65.5392 47.836 65.2672 47.644C65.0112 47.436 64.8832 47.076 64.8832 46.564V41.452Z" fill="#3A3A3A"/>
</svg>
