<svg width="85" height="83" viewBox="0 0 85 83" fill="none" xmlns="http://www.w3.org/2000/svg">
<mask id="path-1-outside-1_2369_542" maskUnits="userSpaceOnUse" x="-0.0742223" y="-0.499668" width="85" height="84" fill="black">
<rect fill="white" x="-0.0742223" y="-0.499668" width="85" height="84"/>
<path d="M82.9189 45.1986C83.0707 53.425 80.4669 61.923 74.8291 68.0501C67.3805 76.1446 54.4072 81.0316 43.5752 81.4701C33.1109 81.8943 22.1398 77.8316 14.4551 70.721C5.20577 62.1633 2.01069 50.3848 1.50195 38.1566C2.02383 29.7293 4.39816 21.1097 10.0596 14.6341C16.4893 7.27996 26.1604 2.12431 35.9707 1.55893C47.525 0.89374 58.4338 5.9289 66.9229 13.5609C76.7554 22.4011 82.2528 31.8483 82.9189 45.1986Z"/>
</mask>
<path d="M82.9189 45.1986C83.0707 53.425 80.4669 61.923 74.8291 68.0501C67.3805 76.1446 54.4072 81.0316 43.5752 81.4701C33.1109 81.8943 22.1398 77.8316 14.4551 70.721C5.20577 62.1633 2.01069 50.3848 1.50195 38.1566C2.02383 29.7293 4.39816 21.1097 10.0596 14.6341C16.4893 7.27996 26.1604 2.12431 35.9707 1.55893C47.525 0.89374 58.4338 5.9289 66.9229 13.5609C76.7554 22.4011 82.2528 31.8483 82.9189 45.1986Z" fill="#54E6ED"/>
<path d="M82.9189 45.1986L84.4187 45.1709L84.4183 45.1474L84.4171 45.1238L82.9189 45.1986ZM74.8291 68.0501L75.9329 69.0658L75.9329 69.0658L74.8291 68.0501ZM43.5752 81.4701L43.5145 79.9713L43.5144 79.9713L43.5752 81.4701ZM14.4551 70.721L15.4738 69.62L15.4738 69.62L14.4551 70.721ZM1.50195 38.1566L0.00482018 38.0639L2.12866e-05 38.1414L0.00324852 38.2189L1.50195 38.1566ZM10.0596 14.6341L8.93031 13.6468L8.9303 13.6468L10.0596 14.6341ZM35.9707 1.55893L35.8845 0.0614071L35.8844 0.0614123L35.9707 1.55893ZM66.9229 13.5609L67.9257 12.4454L67.9257 12.4454L66.9229 13.5609ZM82.9189 45.1986L81.4192 45.2263C81.5653 53.1432 79.0544 61.2428 73.7253 67.0345L74.8291 68.0501L75.9329 69.0658C81.8794 62.6032 84.5762 53.7069 84.4187 45.1709L82.9189 45.1986ZM74.8291 68.0501L73.7253 67.0344C66.6039 74.7733 54.0421 79.5452 43.5145 79.9713L43.5752 81.4701L43.6359 82.9688C54.7724 82.5181 68.1571 77.5159 75.9329 69.0658L74.8291 68.0501ZM43.5752 81.4701L43.5144 79.9713C33.4504 80.3793 22.8672 76.461 15.4738 69.62L14.4551 70.721L13.4363 71.822C21.4124 79.2021 32.7714 83.4093 43.636 82.9688L43.5752 81.4701ZM14.4551 70.721L15.4738 69.62C6.63466 61.4418 3.50119 50.1254 3.00065 38.0942L1.50195 38.1566L0.00324852 38.2189C0.520178 50.6443 3.77688 62.8848 13.4364 71.8221L14.4551 70.721ZM1.50195 38.1566L2.99908 38.2493C3.50935 30.0094 5.82413 21.7576 11.1888 15.6214L10.0596 14.6341L8.9303 13.6468C2.97221 20.4618 0.538298 29.4492 0.00482018 38.0639L1.50195 38.1566ZM10.0596 14.6341L11.1888 15.6214C17.3805 8.53954 26.688 3.5964 36.057 3.05644L35.9707 1.55893L35.8844 0.0614123C25.6329 0.652227 15.5981 6.02038 8.93031 13.6468L10.0596 14.6341ZM35.9707 1.55893L36.0569 3.05645C47.1118 2.42001 57.6447 7.23653 65.92 14.6764L66.9229 13.5609L67.9257 12.4454C59.2229 4.62126 47.9382 -0.632533 35.8845 0.0614071L35.9707 1.55893ZM66.9229 13.5609L65.92 14.6763C75.5191 23.3067 80.7784 32.4001 81.4208 45.2733L82.9189 45.1986L84.4171 45.1238C83.7271 31.2964 77.9917 21.4955 67.9257 12.4454L66.9229 13.5609Z" fill="#203B53" mask="url(#path-1-outside-1_2369_542)"/>
<path d="M33.1533 70.1295C32.9893 70.7131 32.9101 70.9939 32.4395 71.3883C31.8388 71.3973 31.6538 71.25 31.1895 70.8756C26.4201 67.0317 22.0754 62.5331 17.5615 58.3903C14.7504 55.8106 11.6873 53.5143 8.89551 50.9333C8.98883 50.7546 9.08341 50.5755 9.18945 50.404C9.48498 49.9255 9.56448 49.6902 10.1514 49.571C13.8948 51.605 29.4637 66.4414 33.1533 70.1295ZM33.1436 53.5602C32.8749 54.157 32.6971 54.5809 32.1602 54.9938C31.7226 54.8637 11.4731 37.5115 9.37891 35.571C9.56035 34.971 9.64149 34.6502 10.1123 34.2067C10.7807 34.1808 11.0484 34.3103 11.6074 34.6774C14.543 36.6037 17.2315 39.3228 19.8418 41.6706C24.2454 45.6673 28.6796 49.6304 33.1436 53.5602ZM66.6094 66.8405C66.2899 67.3612 66.1452 67.5956 65.5723 67.8327C63.6862 67.4588 59.8455 63.0258 58.2363 61.5641C50.5242 54.5134 42.7534 47.5266 34.9258 40.6042C28.6635 35.0584 22.4549 29.5112 15.707 24.5514C15.774 24.3694 15.8543 24.1267 15.957 23.9665C16.3293 23.3856 16.4822 23.3932 17.1152 23.3122C21.2977 24.7556 60.8014 60.8477 66.6094 66.8405ZM73.4365 58.4723C73.3894 58.6698 73.3819 58.7351 73.2881 58.942C73.0251 59.5194 72.8593 59.6995 72.2607 59.8659C71.9751 59.7542 71.741 59.6669 71.4912 59.484C69.532 58.0528 67.6803 56.076 65.8271 54.4684L49.46 40.0446L29.3301 22.3864C26.8628 20.1972 23.9315 18.2188 21.7441 15.7633C21.8002 15.5641 21.8647 15.3037 21.9551 15.1217C22.2417 14.5442 22.3473 14.4639 22.9248 14.3092C24.7224 14.9622 39.2453 28.5256 41.6582 30.6471L73.4365 58.4723ZM76.0811 48.7487C76.0188 49.2121 75.9684 49.5244 75.7412 49.944C75.5118 50.3666 75.6293 50.2207 75.1103 50.3795C71.2682 47.8847 67.2414 43.759 63.6406 40.7565C57.5554 35.682 51.3671 30.7313 45.3271 25.6012C40.7562 21.7185 36.3649 17.6351 31.7393 13.8151C31.7689 13.6629 31.7857 13.5065 31.8291 13.3571C31.9941 12.7927 32.3433 12.4968 32.8281 12.2272C33.7658 12.4676 72.0942 45.1818 76.0811 48.7487ZM75.7852 39.5524C75.5023 40.0766 75.177 40.4037 74.7607 40.821C74.6137 40.8313 74.4655 40.8725 74.3193 40.8522C73.5275 40.738 44.4077 13.6693 39.3652 10.2819C39.3912 10.0895 39.416 9.823 39.4961 9.6481C39.7548 9.08397 39.9456 9.02761 40.4912 8.90982C43.9994 10.3537 52.8673 19.2935 56.1445 22.1559C62.7422 27.9187 69.567 33.3611 75.7852 39.5524ZM50.0908 73.9977C50.0592 74.1481 50.0513 74.3051 49.9971 74.4489C49.8227 74.9084 49.5265 74.9467 49.1133 75.0602C47.0071 74.4799 42.4558 69.5872 40.6103 67.9264C41.1138 67.3956 41.524 66.8041 42.2891 66.7008C44.6971 67.8019 48.2665 71.9636 50.0908 73.9977Z" fill="#54E6ED"/>
<path d="M18.4384 38.1642H21.4624V47.7402C21.3344 47.7882 21.1424 47.8282 20.8864 47.8602C20.6304 47.9082 20.3584 47.9322 20.0704 47.9322C19.4944 47.9322 19.0784 47.8282 18.8224 47.6202C18.5664 47.3962 18.4384 47.0282 18.4384 46.5162V38.1642ZM21.4624 41.6682H18.4384V33.2202C18.5664 33.1882 18.7664 33.1482 19.0384 33.1002C19.3104 33.0522 19.5824 33.0282 19.8544 33.0282C20.4144 33.0282 20.8224 33.1322 21.0784 33.3402C21.3344 33.5322 21.4624 33.9002 21.4624 34.4442V41.6682ZM35.3873 40.3722V42.7002H32.4353V40.4922C32.4353 39.7882 32.2353 39.2762 31.8353 38.9562C31.4353 38.6202 30.8993 38.4522 30.2273 38.4522C29.7313 38.4522 29.2833 38.5162 28.8833 38.6442C28.4993 38.7562 28.1553 38.8922 27.8513 39.0522V42.7002H24.8993V38.8602C24.8993 38.4762 24.9793 38.1642 25.1393 37.9242C25.2993 37.6682 25.5393 37.4362 25.8593 37.2282C26.3393 36.9082 26.9553 36.6442 27.7073 36.4362C28.4753 36.2122 29.3233 36.1002 30.2513 36.1002C31.8673 36.1002 33.1233 36.4602 34.0193 37.1802C34.9313 37.9002 35.3873 38.9642 35.3873 40.3722ZM24.8993 41.5242H27.8513V47.7402C27.7233 47.7882 27.5393 47.8282 27.2993 47.8602C27.0593 47.9082 26.7953 47.9322 26.5073 47.9322C25.9633 47.9322 25.5553 47.8362 25.2833 47.6442C25.0273 47.4362 24.8993 47.0762 24.8993 46.5642V41.5242ZM32.4353 41.5242H35.3873V47.7402C35.2753 47.7882 35.0913 47.8282 34.8353 47.8602C34.5953 47.9082 34.3393 47.9322 34.0673 47.9322C33.5073 47.9322 33.0913 47.8362 32.8193 47.6442C32.5633 47.4362 32.4353 47.0762 32.4353 46.5642V41.5242ZM48.981 40.3722V42.7002H46.029V40.4922C46.029 39.7882 45.829 39.2762 45.429 38.9562C45.029 38.6202 44.493 38.4522 43.821 38.4522C43.325 38.4522 42.877 38.5162 42.477 38.6442C42.093 38.7562 41.749 38.8922 41.445 39.0522V42.7002H38.493V38.8602C38.493 38.4762 38.573 38.1642 38.733 37.9242C38.893 37.6682 39.133 37.4362 39.453 37.2282C39.933 36.9082 40.549 36.6442 41.301 36.4362C42.069 36.2122 42.917 36.1002 43.845 36.1002C45.461 36.1002 46.717 36.4602 47.613 37.1802C48.525 37.9002 48.981 38.9642 48.981 40.3722ZM38.493 41.5242H41.445V47.7402C41.317 47.7882 41.133 47.8282 40.893 47.8602C40.653 47.9082 40.389 47.9322 40.101 47.9322C39.557 47.9322 39.149 47.8362 38.877 47.6442C38.621 47.4362 38.493 47.0762 38.493 46.5642V41.5242ZM46.029 41.5242H48.981V47.7402C48.869 47.7882 48.685 47.8282 48.429 47.8602C48.189 47.9082 47.933 47.9322 47.661 47.9322C47.101 47.9322 46.685 47.8362 46.413 47.6442C46.157 47.4362 46.029 47.0762 46.029 46.5642V41.5242ZM53.3828 43.6122L53.2628 41.5482L59.6948 40.5882C59.6468 39.9802 59.4148 39.4522 58.9988 39.0042C58.5828 38.5562 57.9748 38.3322 57.1748 38.3322C56.3588 38.3322 55.6788 38.6202 55.1348 39.1962C54.5908 39.7562 54.3108 40.5642 54.2948 41.6202L54.3668 42.8682C54.5108 43.8922 54.9028 44.6442 55.5428 45.1242C56.1988 45.6042 57.0228 45.8442 58.0148 45.8442C58.6868 45.8442 59.3108 45.7482 59.8868 45.5562C60.4628 45.3482 60.9188 45.1242 61.2548 44.8842C61.4788 45.0282 61.6548 45.2122 61.7828 45.4362C61.9268 45.6442 61.9988 45.8762 61.9988 46.1322C61.9988 46.5482 61.8148 46.9082 61.4468 47.2122C61.0788 47.5002 60.5828 47.7242 59.9588 47.8842C59.3348 48.0442 58.6228 48.1242 57.8228 48.1242C56.5908 48.1242 55.4948 47.9002 54.5348 47.4522C53.5908 46.9882 52.8468 46.3002 52.3028 45.3882C51.7748 44.4762 51.5108 43.3402 51.5108 41.9802C51.5108 41.0042 51.6628 40.1482 51.9668 39.4122C52.2708 38.6762 52.6788 38.0682 53.1908 37.5882C53.7188 37.0922 54.3268 36.7242 55.0148 36.4842C55.7028 36.2282 56.4228 36.1002 57.1748 36.1002C58.2308 36.1002 59.1508 36.3162 59.9348 36.7482C60.7348 37.1642 61.3588 37.7482 61.8068 38.5002C62.2708 39.2522 62.5028 40.1162 62.5028 41.0922C62.5028 41.5402 62.3828 41.8762 62.1428 42.1002C61.9188 42.3082 61.5988 42.4362 61.1828 42.4842L53.3828 43.6122ZM67.8357 39.1482V42.4362H64.8837V38.9082C64.8837 38.5082 64.9797 38.1722 65.1717 37.9002C65.3637 37.6122 65.6357 37.3482 65.9877 37.1082C66.4677 36.8202 67.0757 36.5802 67.8117 36.3882C68.5477 36.1962 69.3397 36.1002 70.1877 36.1002C71.6917 36.1002 72.4437 36.5642 72.4437 37.4922C72.4437 37.7162 72.4117 37.9242 72.3477 38.1162C72.2837 38.2922 72.2037 38.4522 72.1077 38.5962C71.9477 38.5642 71.7477 38.5402 71.5077 38.5242C71.2677 38.4922 71.0117 38.4762 70.7397 38.4762C70.1637 38.4762 69.6197 38.5402 69.1077 38.6682C68.6117 38.7802 68.1877 38.9402 67.8357 39.1482ZM64.8837 41.4522L67.8357 41.5962V47.7402C67.7077 47.7882 67.5237 47.8282 67.2837 47.8602C67.0437 47.9082 66.7797 47.9322 66.4917 47.9322C65.9477 47.9322 65.5397 47.8362 65.2677 47.6442C65.0117 47.4362 64.8837 47.0762 64.8837 46.5642V41.4522Z" fill="#203B53"/>
</svg>
