<svg width="250" height="250" viewBox="0 0 250 250" fill="none" xmlns="http://www.w3.org/2000/svg">
<path d="M215.638 140H222.236C226.01 140.609 232.062 143.953 235.464 145.898C242.614 149.987 246.685 155.168 248.813 163.102C250.933 171.006 249.404 180.855 246.31 188.364C245.253 190.927 243.804 193.387 242.411 195.778C235.284 208.006 221.679 219.826 207.868 223.41C200.704 225.269 192.215 225.528 185.644 221.619C181.451 219.125 178.477 215.248 175.371 211.595C173.94 209.912 172.4 208.301 171.26 206.399C170.146 204.541 169.367 202.578 168.842 200.477C166.202 189.905 170.138 178.112 175.612 169.012C182.544 157.488 193.401 147.178 206.151 142.452C209.233 141.309 212.316 140.846 215.474 140.043L215.638 140Z" fill="#203B53"/>
<path d="M236.642 151.642C237.527 151.957 238.411 152.463 239.242 152.901C245.149 156.013 245.372 158.509 247.194 164.428C244.276 163.093 241.609 161.353 238.781 159.854C238.49 156.959 237.849 154.29 236.642 151.642Z" fill="#F9CF31"/>
<path d="M178.604 212.889C182.334 214.547 185.941 215.097 189.995 215.251C192.69 217.298 194.987 220.271 197.363 222.697C196.157 222.698 194.926 222.733 193.733 222.535C188.825 221.716 185.204 219.317 181.615 216.011C180.585 215.063 179.418 214.025 178.604 212.889Z" fill="#EB8B32"/>
<path d="M201.249 212.378C201.335 212.364 201.628 212.309 201.706 212.319C202.071 212.366 202.131 212.579 202.338 212.845C204.552 215.684 206.817 218.309 209.327 220.894C206.402 221.834 203.645 222.414 200.6 222.762C200.255 222.801 199.941 222.796 199.594 222.773C197.586 219.978 194.949 217.392 192.586 214.899C195.612 214.281 198.368 213.474 201.249 212.378Z" fill="#F9CF31"/>
<path d="M238.933 162.007C240.887 163.272 246.339 166.076 247.547 167.583C248.451 168.711 247.623 176.077 247.382 177.829C244.627 175.828 240.145 173.904 237.884 171.871C238.463 168.581 238.748 165.34 238.933 162.007Z" fill="#EB8B32"/>
<path d="M215.318 204.359C216.829 203.293 218.089 201.925 219.619 200.879C223.089 203.134 226.08 206.323 229.069 209.167C226.728 211.259 224.267 213.221 221.581 214.859C219.598 212.64 217.506 209.899 215.158 208.074C215.411 206.82 215.398 205.629 215.318 204.359Z" fill="#F9CF31"/>
<path d="M203.599 211.544C206.282 210.289 208.842 208.882 211.19 207.062C211.428 207.441 211.647 207.826 211.943 208.163C212.59 208.38 213.388 208.55 213.902 209.009C214.222 210.742 218.545 214.181 219.758 215.91C217.039 217.685 214.383 218.966 211.379 220.171C208.949 217.155 206.093 214.509 203.599 211.544Z" fill="#F9CF31"/>
<path d="M227.785 192.049C229.883 193.627 235.32 198.668 236.91 200.647C234.98 203.242 232.753 205.58 230.479 207.871C229.627 207.48 228.045 205.427 227.231 204.621C225.39 202.799 223.414 201.132 221.439 199.458C223.787 197.136 225.75 194.631 227.785 192.049Z" fill="#EB8B32"/>
<path d="M210.278 205.267C209.313 206.271 207.998 207.04 206.787 207.708C199.709 211.615 189.985 214.538 181.983 212.198C178.01 211.036 174.548 208.627 172.552 204.931C168.694 197.784 169.777 188.678 172.009 181.195C172.955 178.022 174.381 175.239 175.947 172.339C177.335 169.77 178.772 167.207 180.474 164.828C185.849 157.317 193.269 151.044 201.373 146.659C207.095 143.562 217.119 140.14 223.578 142.117C234.173 145.361 237.8 155.592 236.925 165.822C236.848 166.729 235.703 172.981 235.76 173.233C235.796 173.391 235.914 173.519 235.99 173.662C239.877 174.953 243.321 177.938 246.952 179.811C246.331 182.765 245.376 185.892 244.024 188.606C242.586 187.713 235.87 182.929 234.706 183.128C234.258 183.204 234.146 183.424 233.894 183.758C233.981 184.378 234.251 184.601 234.739 184.966C237.356 186.92 240.33 188.524 243.062 190.342C241.715 193.201 240.188 196.564 238.077 198.923C236.419 197.308 234.778 195.664 233.075 194.098C231.678 192.812 230.191 191.598 228.839 190.268C229.217 189.686 229.665 189.125 229.788 188.431C229.719 188.197 229.74 188.07 229.517 187.928C229.16 187.701 228.74 187.732 228.33 187.733C225.718 192.023 222.198 196.044 218.444 199.375C217.061 200.601 215.412 201.642 214.122 202.944C214.521 203.413 214.938 203.875 215.317 204.36C215.398 205.629 215.411 206.82 215.158 208.074L213.903 209.009C213.388 208.55 212.59 208.38 211.943 208.163C211.648 207.826 211.429 207.442 211.19 207.062C211.028 206.349 210.727 205.837 210.278 205.267Z" fill="#F9CF31"/>
<path d="M175.869 188.268C176.175 188.285 176.576 188.271 176.866 188.359C177.066 188.42 177.335 188.533 177.419 188.744C177.735 189.537 177.27 191.036 177.282 191.926C177.304 193.58 178.345 196.917 177.85 198.244C177.574 198.324 177.316 198.369 177.033 198.414C176.712 198.282 176.536 198.106 176.35 197.811C175.004 195.681 175.295 190.666 175.869 188.268Z" fill="#203B53"/>
<path d="M216.978 147.255C217.326 147.215 217.695 147.154 218.045 147.161C218.455 147.169 218.596 147.303 218.851 147.595C218.928 148.02 218.962 148.422 218.754 148.821C218.733 148.862 218.497 149.18 218.42 149.215C217.952 149.43 216.513 149.382 215.934 149.442C214.249 149.628 212.582 149.922 210.934 150.322C210.382 150.499 209.865 150.737 209.28 150.599C208.956 150.357 208.726 150.201 208.641 149.767C208.564 149.37 208.72 149.166 208.925 148.865C210.795 148.074 213.571 147.638 215.61 147.458C216.03 147.421 216.427 147.37 216.841 147.284L216.978 147.255Z" fill="#203B53"/>
<path d="M181.075 202.802C182.548 203.081 183.861 204.772 185.333 205.318C186.665 205.811 188.228 205.656 189.569 206.155C189.972 206.306 190.109 206.433 190.298 206.809C190.143 207.286 189.883 207.451 189.522 207.792C186.909 207.942 183.162 207.105 181.085 205.44C180.573 205.029 180.344 204.642 180.27 203.991C180.388 203.432 180.685 203.184 181.075 202.802Z" fill="#203B53"/>
<path d="M205.277 201.256C205.864 201.627 206.06 202.232 206.343 202.84C203.464 204.721 199.726 206.089 196.342 206.655C196.141 206.542 195.897 206.424 195.72 206.271C195.408 206.002 195.305 205.773 195.258 205.377C196.043 204.51 200.049 203.605 201.305 203.095C202.659 202.544 203.967 201.903 205.277 201.256Z" fill="#203B53"/>
<path d="M225.265 150.681C225.729 150.809 226.119 150.966 226.524 151.234C229.001 152.873 230.74 156.264 231.305 159.111C231.512 160.154 231.694 161.021 231.083 161.947C230.757 161.931 230.468 161.888 230.149 161.815C228.938 160.579 229.106 158.018 228.316 156.447C227.466 154.757 225.409 153.657 224.665 152.035C224.72 151.494 224.984 151.129 225.265 150.681Z" fill="#203B53"/>
<path d="M184.744 167.259C185.303 167.463 185.667 167.606 185.981 168.115C186.009 169.468 183.908 171.317 183.176 172.482C181.613 174.97 180.803 177.844 179.318 180.349C179.022 180.28 178.73 180.195 178.436 180.115C178.134 179.763 177.968 179.576 177.956 179.095C177.887 176.387 182.803 169.387 184.744 167.259Z" fill="#203B53"/>
<path d="M210.277 205.267C210.16 204.99 210.11 204.732 210.082 204.435C210 203.546 210.355 202.366 210.971 201.709C211.2 201.466 211.502 201.307 211.837 201.317C212.73 201.341 213.518 202.356 214.121 202.944C214.52 203.413 214.937 203.875 215.316 204.359C215.397 205.629 215.41 206.82 215.157 208.074L213.902 209.009C213.388 208.55 212.59 208.38 211.943 208.163C211.647 207.826 211.428 207.442 211.189 207.062C211.027 206.349 210.726 205.837 210.277 205.267Z" fill="#FAEECB"/>
<path d="M201.334 152.041C201.534 152.101 201.671 152.133 201.863 152.236C202.257 152.447 202.355 152.743 202.454 153.144C202.006 154.344 200.252 154.916 199.21 155.642C197.795 156.626 196.447 157.695 195.165 158.847C193.882 159.999 192.676 161.226 191.546 162.527C191.216 162.46 190.816 162.397 190.583 162.123C190.315 161.808 190.28 161.519 190.366 161.126C190.818 159.077 199.31 153.097 201.334 152.041Z" fill="#203B53"/>
<path d="M230.524 166.892C230.983 166.848 231.386 166.841 231.845 166.875C232.131 167.134 232.138 167.409 232.151 167.783C232.241 170.316 229.368 179.969 227.751 181.837C227.231 181.616 226.523 181.313 226.248 180.789C226.012 180.339 227.818 177.154 228.052 176.434C229.059 173.327 229.387 169.914 230.524 166.892Z" fill="#203B53"/>
<path d="M213.244 154.428C213.302 154.419 213.361 154.408 213.419 154.401C216.449 154.037 219.526 154.529 221.97 156.435C224.8 158.641 226.39 161.7 226.821 165.24C227.36 169.667 226.188 173.305 224.78 177.425C224.203 179.113 223.659 180.84 222.843 182.431C221.857 184.355 220.582 186.237 219.242 187.935C212.865 196.014 205.791 200.607 195.411 201.86C195.342 201.873 195.274 201.891 195.204 201.898C192.207 202.224 188.815 201.138 186.415 199.359C186.256 199.24 186.101 199.118 185.949 198.992C185.797 198.866 185.648 198.736 185.502 198.602C185.357 198.468 185.215 198.331 185.076 198.19C184.937 198.049 184.802 197.905 184.67 197.757C184.539 197.61 184.411 197.459 184.287 197.304C184.163 197.15 184.043 196.993 183.927 196.833C183.811 196.673 183.699 196.51 183.591 196.344C183.483 196.179 183.38 196.01 183.28 195.839C183.181 195.669 183.086 195.495 182.995 195.319C182.904 195.144 182.818 194.966 182.736 194.786C182.654 194.606 182.577 194.424 182.505 194.24C182.432 194.056 182.364 193.87 182.301 193.683C182.237 193.496 182.179 193.307 182.125 193.116C182.071 192.926 182.022 192.735 181.978 192.542C181.934 192.349 181.894 192.155 181.86 191.961C181.825 191.766 181.796 191.571 181.771 191.374C180.673 183.285 185.323 175.433 190.035 169.239C194.795 162.982 205.368 155.525 213.244 154.428Z" fill="#FBB329"/>
<path d="M207.231 162.525C207.396 162.523 207.561 162.517 207.726 162.522C208.264 162.538 208.431 162.615 208.778 162.993C208.979 163.809 208.593 164.88 208.452 165.716C209.06 165.778 209.685 165.826 210.283 165.949C211.478 166.194 213.19 166.894 213.833 168.011C214.066 168.415 214.21 168.903 214.05 169.36C213.891 169.816 213.638 169.996 213.229 170.21C211.979 170.361 211.434 168.93 210.4 168.452C208.65 167.642 206.819 167.64 205.031 168.334C202.609 169.275 200.411 171.161 199.441 173.604C199.056 174.574 198.938 175.521 199.413 176.482C200.882 179.453 207.366 177.517 210.174 178.545C211.928 179.188 212.772 180.442 213.53 182.05C213.335 184.379 212.721 186.485 211.258 188.342C209.036 191.164 205.628 192.744 202.109 193.16C202.02 194.411 201.811 195.707 201.504 196.924C201.222 196.985 200.769 197.108 200.483 197.06C200.017 196.98 199.918 196.815 199.645 196.471C199.402 195.334 199.841 194.436 200.26 193.403C198.412 192.931 195.595 192.071 194.591 190.299C194.437 190.027 194.387 189.73 194.508 189.44C194.746 188.869 195.22 188.672 195.751 188.453C196.252 188.56 198.793 190.676 199.67 191.164C200.635 191.132 201.607 191.146 202.561 190.976C205.423 190.466 208.431 188.881 210.061 186.402C210.749 185.357 211.379 183.523 211.069 182.267C210.257 178.974 202.096 181.408 198.902 179.549C198.024 179.038 197.408 178.232 197.18 177.238C196.735 175.303 197.339 173.004 198.343 171.334C200.121 168.379 202.869 166.912 206.129 166.127C206.447 164.96 206.689 163.6 207.231 162.525Z" fill="#203B53"/>
<path d="M39.907 29.9024L39.1554 32.7074C38.4667 34.2423 36.3553 36.4344 35.141 37.6588C32.5882 40.2331 29.9217 41.3734 26.3064 41.3744C22.705 41.3753 18.6918 39.6034 15.8523 37.4325C14.8829 36.6913 14.002 35.7951 13.1442 34.9302C8.75762 30.5075 5.28237 23.3773 5.33188 17.0975C5.35762 13.8402 6.2146 10.2019 8.62489 7.85338C10.1629 6.35493 12.15 5.5322 14.0568 4.62806C14.9352 4.21144 15.7955 3.74009 16.7342 3.47199C17.6511 3.21011 18.5741 3.10277 19.5269 3.11897C24.3222 3.20069 28.8876 6.2175 32.1325 9.58102C36.2419 13.8408 39.3886 19.6312 39.9454 25.5899C40.08 27.0301 39.9257 28.3938 39.9073 29.8275L39.907 29.9024Z" fill="#203B53"/>
<path d="M32.5649 37.5054C32.3303 37.846 32.0142 38.1639 31.7333 38.4674C29.7377 40.6243 28.6511 40.4348 25.9271 40.535C26.8271 39.4466 27.8707 38.5111 28.83 37.4794C30.094 37.6857 31.3017 37.7169 32.5649 37.5054Z" fill="#F9CF31"/>
<path d="M13.1382 5.85516C12.0085 7.25174 11.3641 8.72267 10.8367 10.4286C9.65924 11.3412 8.13389 11.979 6.83169 12.7125C6.96859 12.1999 7.09401 11.6724 7.3143 11.1881C8.22158 9.19459 9.65379 7.92865 11.468 6.77938C11.9885 6.44953 12.5627 6.07154 13.1382 5.85516Z" fill="#EB8B32"/>
<path d="M10.776 15.5405C10.7724 15.5785 10.7623 15.7095 10.7491 15.7414C10.6876 15.8909 10.5899 15.8923 10.4534 15.9501C8.99417 16.5677 7.62015 17.2319 6.23564 18.0043C6.16902 16.6537 6.23635 15.4156 6.4352 14.0816C6.45819 13.9303 6.49619 13.7974 6.54526 13.6525C7.96211 13.1174 9.36222 12.2907 10.6912 11.5702C10.609 12.9269 10.6385 14.1906 10.776 15.5405Z" fill="#F9CF31"/>
<path d="M27.8976 37.2988C27.1374 37.9853 25.3242 39.9837 24.5455 40.3258C23.9634 40.5815 20.9262 39.3905 20.2088 39.0883C21.3732 38.145 22.7018 36.4587 23.8236 35.7291C25.1562 36.3503 26.5017 36.8405 27.8976 37.2988Z" fill="#EB8B32"/>
<path d="M12.5827 22.4347C12.864 23.1989 13.3021 23.8901 13.5724 24.6599C12.2183 25.8783 10.5221 26.7864 8.97233 27.7332C8.34955 26.4995 7.79592 25.2301 7.40554 23.9014C8.57496 23.3112 9.97849 22.7341 11.0216 21.9438C11.526 22.1942 12.0339 22.3245 12.5827 22.4347Z" fill="#F9CF31"/>
<path d="M10.8626 16.6342C11.0905 17.9178 11.3969 19.1666 11.9034 20.3719C11.7149 20.4301 11.5266 20.4794 11.3494 20.5667C11.1837 20.8171 11.0203 21.1369 10.7667 21.3033C9.99346 21.2419 8.03895 22.6878 7.1657 23.0068C6.72098 21.6487 6.47897 20.3737 6.30856 18.9593C7.86789 18.2697 9.31816 17.357 10.8626 16.6342Z" fill="#F9CF31"/>
<path d="M16.3958 29.1372C15.486 29.8495 12.7231 31.5867 11.701 32.037C10.8175 30.9212 10.0771 29.708 9.36245 28.4804C9.6257 28.1625 10.6787 27.724 11.1138 27.4697C12.0981 26.8946 13.0322 26.2443 13.9689 25.5957C14.6884 26.8582 15.5297 27.9779 16.3958 29.1372Z" fill="#EB8B32"/>
<path d="M12.7712 20.189C12.4541 19.6644 12.2772 19.0175 12.131 18.4267C11.2763 14.9726 11.1415 10.5057 13.0477 7.37044C13.9943 5.81345 15.4128 4.61604 17.2112 4.1888C20.6891 3.36261 24.4373 4.86037 27.3641 6.66152C28.6052 7.42525 29.6259 8.34836 30.6803 9.34481C31.6147 10.2276 32.5405 11.1303 33.3579 12.1247C35.9388 15.2655 37.7602 19.1346 38.7016 23.0794C39.3661 25.8646 39.6792 30.5162 38.1029 33.0369C35.517 37.1716 30.7541 37.548 26.5048 36.0107C26.1279 35.8745 23.6007 34.6756 23.487 34.671C23.4157 34.6683 23.3479 34.7039 23.2785 34.7203C22.2868 36.2253 20.6256 37.3495 19.4156 38.68C18.2306 38.0795 17.0097 37.3171 16.01 36.4331C16.5535 35.9235 19.3524 33.6132 19.4005 33.096C19.4189 32.8965 19.3384 32.8242 19.2249 32.6788C18.9516 32.6452 18.8259 32.7345 18.6152 32.9006C17.4864 33.7905 16.4658 34.8722 15.3814 35.8264C14.3197 34.9282 13.0638 33.8959 12.3015 32.7296C13.1769 32.2087 14.0625 31.6985 14.9226 31.1528C15.6284 30.7053 16.314 30.2115 17.0334 29.7883C17.2378 30.0152 17.4249 30.2698 17.7062 30.4008C17.8134 30.3984 17.8649 30.4218 17.9506 30.3432C18.088 30.2171 18.1227 30.0351 18.169 29.8609C16.6427 28.2616 15.3339 26.3072 14.3458 24.3315C13.9821 23.6041 13.7272 22.7844 13.3208 22.0877C13.0758 22.204 12.8321 22.3283 12.5828 22.4346C12.0341 22.3243 11.5261 22.194 11.0218 21.9436L10.7673 21.3036C11.0209 21.1372 11.1843 20.8174 11.35 20.567C11.5272 20.4797 11.7155 20.4304 11.904 20.3722C12.2257 20.3844 12.4775 20.3149 12.7712 20.189Z" fill="#F9CF31"/>
<path d="M23.9173 7.49714C23.8754 7.62513 23.8357 7.79732 23.765 7.91045C23.7164 7.98841 23.6378 8.09017 23.5383 8.10179C23.1653 8.1455 22.5809 7.77718 22.2011 7.68079C21.4957 7.50189 19.9584 7.5645 19.4504 7.20267C19.4481 7.07624 19.4582 6.96161 19.4715 6.83625C19.564 6.71483 19.659 6.66002 19.8054 6.61437C20.8646 6.28477 22.9631 6.97972 23.9173 7.49714Z" fill="#203B53"/>
<path d="M36.6696 29.6454C36.647 29.7981 36.6306 29.9617 36.5878 30.11C36.5379 30.2831 36.4647 30.3278 36.3114 30.4031C36.122 30.3872 35.9475 30.356 35.8014 30.2223C35.7865 30.2086 35.6782 30.0721 35.672 30.0353C35.6337 29.812 35.8184 29.2054 35.8585 28.9525C35.9714 28.2148 36.0365 27.4729 36.0539 26.7267C36.0417 26.4717 35.9996 26.2248 36.1248 25.992C36.2644 25.8819 36.3572 25.8016 36.5514 25.8152C36.729 25.8275 36.7976 25.917 36.9022 26.0386C37.0256 26.9238 36.8945 28.1536 36.739 29.0407C36.707 29.2238 36.6833 29.3982 36.6727 29.5838L36.6696 29.6454Z" fill="#203B53"/>
<path d="M17.1451 8.05453C16.8589 8.64905 15.9902 9.01437 15.5905 9.5783C15.2291 10.088 15.1173 10.7704 14.7519 11.2837C14.6419 11.4379 14.5726 11.4816 14.3912 11.5192C14.2057 11.3989 14.1653 11.2696 14.0614 11.0772C14.2956 9.94944 15.0781 8.4515 16.0224 7.75848C16.2555 7.58748 16.4461 7.53417 16.7316 7.57672C16.9554 7.6909 17.0272 7.84501 17.1451 8.05453Z" fill="#203B53"/>
<path d="M15.0457 18.5195C14.8211 18.727 14.5415 18.7411 14.251 18.7924C13.7793 17.3543 13.6232 15.6091 13.7684 14.106C13.839 14.0336 13.9172 13.9432 14.0024 13.8854C14.1521 13.7834 14.2614 13.7657 14.4349 13.7907C14.7141 14.2232 14.6427 16.0296 14.7165 16.6215C14.7963 17.2601 14.9199 17.8889 15.0457 18.5195Z" fill="#203B53"/>
<path d="M34.2691 32.7782C34.162 32.9611 34.0506 33.109 33.8908 33.2504C32.9118 34.117 31.272 34.4698 29.9974 34.3857C29.5304 34.355 29.141 34.3336 28.8167 33.9684C28.8607 33.8315 28.9123 33.7135 28.9796 33.5864C29.6426 33.2122 30.7124 33.5754 31.4704 33.4184C32.2855 33.2495 32.9874 32.5005 33.7619 32.369C33.9858 32.4539 34.1106 32.6079 34.2691 32.7782Z" fill="#203B53"/>
<path d="M31.8375 13.6633C31.6874 13.8778 31.5848 14.016 31.3329 14.0916C30.7546 13.9495 30.2075 12.8455 29.7957 12.4016C28.9162 11.4536 27.7864 10.782 26.8909 9.86537C26.9536 9.74729 27.0233 9.63271 27.0908 9.51722C27.2749 9.42854 27.3732 9.3794 27.5791 9.42905C28.7382 9.70837 31.1541 12.5957 31.8375 13.6633Z" fill="#203B53"/>
<path d="M12.7711 20.1886C12.9021 20.1701 13.0175 20.1782 13.1471 20.2003C13.5344 20.2667 13.9954 20.5518 14.2045 20.8888C14.282 21.0136 14.3149 21.1603 14.2727 21.3014C14.1605 21.6786 13.6392 21.8977 13.3207 22.0872C13.0757 22.2035 12.832 22.3279 12.5828 22.4342C12.034 22.3239 11.5261 22.1936 11.0217 21.9432L10.7673 21.3031C11.0209 21.1367 11.1843 20.817 11.35 20.5665C11.5272 20.4793 11.7155 20.43 11.9039 20.3718C12.2257 20.384 12.4774 20.3145 12.7711 20.1886Z" fill="#FAEECB"/>
<path d="M36.4172 22.4496C36.3688 22.5279 36.3399 22.5826 36.2742 22.6523C36.1395 22.7955 36.0027 22.8037 35.8209 22.8001C35.3615 22.4729 35.3183 21.6622 35.1284 21.1365C34.8709 20.4228 34.5703 19.7278 34.2265 19.0514C33.8828 18.375 33.4987 17.7225 33.0742 17.0937C33.1405 16.9613 33.2127 16.7985 33.3557 16.7305C33.5203 16.6524 33.6469 16.6704 33.8042 16.752C34.624 17.1776 36.1988 21.4689 36.4172 22.4496Z" fill="#203B53"/>
<path d="M26.7787 33.1676C26.7453 33.3676 26.7022 33.5396 26.6356 33.7311C26.4929 33.8228 26.3749 33.7948 26.2148 33.7578C25.1275 33.5072 21.3508 31.1863 20.7412 30.286C20.8943 30.0901 21.1035 29.8238 21.358 29.7665C21.5761 29.7173 22.7243 30.848 23.0037 31.0293C24.2098 31.8117 25.6234 32.3396 26.7787 33.1676Z" fill="#203B53"/>
<path d="M34.046 27.2411C34.0432 27.2668 34.0413 27.2928 34.0376 27.3185C33.8472 28.648 33.2875 29.9001 32.1989 30.7221C30.9385 31.6739 29.4569 32.0013 27.9029 31.7814C25.9596 31.5064 24.5465 30.5935 22.9551 29.5255C22.3033 29.0881 21.6311 28.6602 21.0477 28.132C20.3421 27.4934 19.6872 26.737 19.118 25.9739C16.4098 22.3425 15.2629 18.8123 15.9128 14.2565C15.9151 14.2257 15.9152 14.1946 15.92 14.164C16.1227 12.853 16.9709 11.5344 18.0007 10.7169C18.0692 10.663 18.1388 10.6109 18.2098 10.5606C18.2808 10.5104 18.3531 10.4618 18.4265 10.4151C18.4999 10.3685 18.5746 10.3238 18.6502 10.2808C18.7259 10.2378 18.8027 10.1968 18.8804 10.1576C18.9582 10.1185 19.0369 10.0814 19.1166 10.0463C19.1961 10.0112 19.2766 9.97796 19.3579 9.94688C19.4392 9.9158 19.5212 9.88686 19.6039 9.85989C19.6867 9.83278 19.77 9.80792 19.854 9.78516C19.938 9.7624 20.0226 9.74173 20.1077 9.72314C20.1926 9.70465 20.2781 9.68826 20.364 9.6739C20.4498 9.65968 20.536 9.64763 20.6225 9.63775C20.709 9.62772 20.7956 9.61998 20.8824 9.61449C20.9692 9.60887 21.0562 9.60552 21.1433 9.6043C21.2303 9.60304 21.3173 9.60401 21.4043 9.60722C21.4913 9.61043 21.5781 9.61569 21.6647 9.62312C21.7514 9.63071 21.8379 9.64033 21.9242 9.65228C25.4885 10.1068 28.2968 12.9781 30.3933 15.6869C32.5112 18.4234 34.477 23.7677 34.046 27.2411Z" fill="#FBB329"/>
<path d="M31.2885 23.7622C31.2707 23.8326 31.2542 23.9034 31.2334 23.973C31.1652 24.2001 31.1133 24.2623 30.913 24.3666C30.5434 24.3591 30.1321 24.0732 29.7927 23.9178C29.6971 24.1691 29.6056 24.4296 29.4851 24.6699C29.2447 25.1497 28.7522 25.7981 28.204 25.9442C28.006 25.997 27.7821 26.0028 27.606 25.8828C27.43 25.7632 27.3825 25.6349 27.3379 25.4367C27.4161 24.8881 28.0865 24.8194 28.4079 24.4343C28.9513 23.7829 29.1609 23.0045 29.0693 22.1653C28.9451 21.0284 28.3937 19.8791 27.4656 19.1885C27.0972 18.9144 26.7079 18.7563 26.2455 18.8488C24.815 19.135 24.8995 22.1118 24.1425 23.1885C23.6695 23.861 23.0403 24.0768 22.2703 24.216C21.3022 23.8678 20.4771 23.3668 19.8542 22.5336C18.9077 21.2675 18.6238 19.6384 18.8482 18.095C18.3262 17.9148 17.7989 17.6784 17.3169 17.409C17.3229 17.2824 17.3222 17.0755 17.3754 16.9598C17.4623 16.7704 17.5437 16.7473 17.7211 16.6702C18.2322 16.6968 18.5641 16.9854 18.9553 17.2813C19.3665 16.5495 20.0529 15.4497 20.9208 15.2248C21.0539 15.1904 21.186 15.203 21.2956 15.2874C21.511 15.4537 21.5408 15.6776 21.5734 15.9281C21.4708 16.1292 20.2819 16.9682 19.9746 17.2858C19.8783 17.6995 19.7613 18.1113 19.7249 18.5358C19.6158 19.8109 19.9471 21.2703 20.815 22.2457C21.1811 22.657 21.889 23.1339 22.4584 23.1452C23.9508 23.1749 23.8456 19.4281 24.9999 18.282C25.3172 17.9671 25.7299 17.7969 26.1783 17.8131C27.0519 17.8446 27.9602 18.3634 28.5557 18.9805C29.6096 20.0727 29.9202 21.408 29.8827 22.8835C30.3427 23.1516 30.8934 23.4093 31.2885 23.7622Z" fill="#203B53"/>
<path d="M121.906 49.7069C123.982 45.4789 127.041 42.5202 131.55 41.0023C131.825 40.9091 132.102 40.8225 132.381 40.7432C132.66 40.6638 132.941 40.5911 133.223 40.5255C133.506 40.4605 133.79 40.4021 134.075 40.3507C134.36 40.2993 134.647 40.2551 134.935 40.2184C135.223 40.1818 135.511 40.1521 135.8 40.1295C136.09 40.1069 136.379 40.0918 136.669 40.0835C136.959 40.0759 137.249 40.0751 137.539 40.0813C137.829 40.0879 138.118 40.1014 138.407 40.1223C138.697 40.1432 138.985 40.1715 139.273 40.2071C139.562 40.2427 139.848 40.285 140.134 40.3345C140.42 40.3846 140.704 40.4413 140.987 40.5053C141.27 40.5693 141.551 40.6404 141.831 40.7181C142.11 40.7958 142.387 40.8806 142.662 40.9725C142.938 41.0644 143.21 41.1633 143.48 41.2687C143.75 41.3742 144.018 41.4865 144.282 41.6053C144.547 41.7242 144.808 41.8493 145.067 41.9814C150.061 44.5598 152.512 48.3791 154.723 53.375C158.115 51.7541 162.146 51.1357 165.774 52.379C167.867 53.0958 169.52 54.5402 170.41 56.5767C171.505 59.0844 171.121 61.8661 170.053 64.3112C167.917 69.1979 163.245 73.671 158.932 76.6687C161.133 78.4368 162.327 80.5243 162.62 83.3503C162.664 83.7958 162.697 84.2424 162.72 84.6902C161.667 87.2581 160.881 88.8886 158.696 90.6959C164.534 97.2133 170.719 103.765 175.449 111.151C188.037 130.805 197.06 163.8 195.834 186.97C195.397 195.208 194.632 198.605 190.253 205.677C193.678 207.758 195.748 211.656 196.685 215.469C197.831 220.133 197.185 225.29 194.596 229.374C191.871 233.673 187.379 236.247 182.475 237.26C177.261 238.337 171.389 237.599 166.088 237.419L145.856 236.785C135.001 236.428 123.987 236.623 113.167 235.774C108.444 235.405 103.843 234.794 99.2313 233.676C90.702 231.612 82.5105 228.545 74.3355 225.388C69.9164 223.678 65.5124 221.786 60.9707 220.426C52.8578 217.995 43.1043 217.868 35.9536 213.035C35.684 212.853 35.4188 212.666 35.1588 212.471C34.8983 212.276 34.6428 212.075 34.3923 211.868C34.1418 211.661 33.8969 211.448 33.657 211.229C33.4171 211.009 33.1828 210.784 32.954 210.553C32.7257 210.322 32.503 210.086 32.2858 209.843C32.0686 209.602 31.8579 209.354 31.6527 209.102C31.4481 208.85 31.2494 208.593 31.0574 208.33C30.8652 208.068 30.6796 207.801 30.501 207.53C30.3219 207.258 30.1503 206.983 29.9846 206.703C29.8195 206.423 29.6613 206.139 29.5101 205.852C29.3589 205.564 29.2151 205.272 29.0782 204.978C28.9413 204.683 28.8119 204.385 28.6899 204.083C28.5678 203.782 28.4531 203.478 28.3463 203.171C28.2395 202.864 28.1399 202.555 28.0483 202.243C27.9565 201.932 27.8727 201.618 27.7966 201.301C27.7205 200.986 27.6522 200.668 27.5915 200.348C26.7432 195.944 27.4923 191.933 30.0854 188.218C32.7461 184.407 36.1457 182.061 40.4943 180.516C36.0928 167.805 42.2509 154.962 47.7938 143.577C58.1954 122.211 75.3693 103.656 94.5185 89.8289C98.182 87.1833 102.087 85.0067 105.852 82.5344C104.563 80.4484 103.886 78.325 104.479 75.8752C105.12 73.2255 107.025 71.3313 109.056 69.6539C105.892 66.2599 103.259 62.623 101.495 58.3076C101.315 57.8694 101.398 58.0544 101.132 57.5769L102.307 56.8137C103.1 55.0818 102.988 53.6086 102.462 51.8251C101.965 50.839 101.329 49.9041 100.748 48.9653C103.8 46.3584 107.376 44.4542 111.539 44.817C115.491 45.1617 118.753 47.5149 121.906 49.7069Z" fill="#203B53"/>
<path d="M157.035 55.7253C160.104 54.7633 162.781 55.2019 165.811 55.9791C166.917 57.3141 167.717 58.2891 167.491 60.0965C166.841 65.2886 161.436 70.748 157.42 73.7317C152.013 77.7482 146.368 76.6645 140.086 75.9485C145.555 71.948 154.427 62.1691 157.035 55.7253Z" fill="#63C071"/>
<path d="M102.461 51.8251C103.558 50.6435 104.576 49.7226 106.027 48.9662C114.197 44.7065 117.01 52.2422 121.583 53.5002C123.651 54.069 125.327 49.7021 126.441 48.3067C127.543 46.9254 128.979 45.7587 130.531 44.9192C133.922 43.0852 138.225 42.8329 141.881 44.0225C146.26 45.4467 149.039 48.6087 151.027 52.6024C146.341 51.0002 139.345 49.652 134.467 50.7246C134.375 50.7936 134.282 50.8613 134.19 50.9321C129.999 54.1837 127.798 59.4251 121.519 58.8687C117.315 58.4961 114.038 55.651 108.942 55.1716C107.186 56.3217 105.478 57.5993 103.466 58.2554C103.051 57.8104 102.685 57.2911 102.307 56.8137C103.1 55.0817 102.988 53.6086 102.461 51.8251Z" fill="#CDDE72"/>
<path d="M111.08 72.1623C121.053 77.1107 137.847 79.8562 148.899 80.2352C151.385 80.2212 156.366 79.1054 158.142 81.0015C158.981 81.8977 159.116 83.1982 158.941 84.3638C158.786 85.3946 158.299 86.3776 157.882 87.3232C156.783 87.9791 155.725 88.5717 154.465 88.8562C150.525 89.7469 141.901 89.5 137.923 88.5061L137.746 88.6028C131.941 88.1935 111.948 84.8371 108.259 80.6596C107.49 79.7894 107.046 78.7106 107.152 77.5387C107.376 75.0611 109.33 73.6351 111.08 72.1623Z" fill="url(#paint0_linear_2351_4531)"/>
<path d="M148.899 80.2353C151.385 80.2212 156.366 79.1055 158.141 81.0016C158.981 81.8978 159.115 83.1982 158.94 84.3638C158.785 85.3947 158.299 86.3776 157.882 87.3233C156.783 87.9792 155.724 88.5718 154.465 88.8563C150.524 89.747 141.9 89.5001 137.923 88.5062C140.102 87.5831 142.222 85.819 143.878 84.1461C143.936 84.088 143.993 84.0281 144.05 83.9688L144.058 84.1139L143.774 83.5296C143.369 83.399 143.083 83.362 142.658 83.4068C138.951 83.7959 126.014 81.4237 121.695 80.6883C123.906 80.2747 141.106 83.3301 145.47 83.826C146.195 83.4413 146.931 82.9814 147.521 82.4005C148.185 81.7467 148.881 81.1759 148.899 80.2353Z" fill="#FBB329"/>
<path d="M134.467 50.7247C139.345 49.652 146.342 51.0002 151.028 52.6024C150.89 53.785 150.869 55.262 151.617 56.2382C152.284 56.6767 152.925 56.8155 153.716 56.6843C154.813 56.5025 155.957 56.0345 157.035 55.7252C154.427 62.169 145.555 71.9479 140.086 75.9484C139.765 76.019 139.429 76.0432 139.101 76.0478C134.753 76.1097 116.531 72.2425 113.311 69.6814C109.564 66.7015 107.132 61.8351 103.659 58.441L103.466 58.2554C105.478 57.5993 107.187 56.3217 108.942 55.1717C114.038 55.651 117.315 58.4961 121.519 58.8687C127.798 59.4251 130 54.1837 134.191 50.9322C134.282 50.8613 134.375 50.7936 134.467 50.7247Z" fill="#8CD464"/>
<path d="M150.541 92.6745C152.084 92.6242 153.624 92.5815 155.161 92.4393C174.901 110.444 185.284 134.866 189.949 160.747C190.981 166.474 191.982 172.134 192.245 177.962C192.498 183.558 192.639 193.56 190.347 198.608C189.351 200.8 186.564 203.107 186.345 205.475C186.21 206.924 200.799 217.566 190.352 229.012C187.277 232.381 183.568 234.154 178.991 234.316C175.148 234.453 171.249 234.15 167.407 234.033L146.636 233.431C130.629 232.932 113.137 233.815 97.6236 229.869C85.098 226.681 73.6389 220.819 61.2897 217.167C53.1622 214.763 42.3009 214.679 35.9017 208.607C35.586 208.309 35.2818 208 34.9893 207.68C34.6967 207.36 34.4168 207.03 34.1482 206.689C33.8797 206.349 33.6243 205.998 33.3817 205.639C33.1393 205.279 32.9102 204.911 32.6952 204.535C32.4796 204.158 32.2789 203.774 32.0916 203.383C31.9047 202.992 31.7322 202.594 31.5744 202.19C31.4166 201.786 31.274 201.377 31.1467 200.962C31.0193 200.547 30.9069 200.129 30.8106 199.706C31.2324 199.653 31.7775 199.538 32.1972 199.633C33.907 200.02 37.4868 204.044 41.1958 204.977C47.7778 206.631 54.5679 207.439 61.1242 209.204C70.0335 211.603 78.6094 215.024 87.5747 217.232C91.7019 218.249 95.9463 218.847 100.121 219.647C116.477 222.78 133.162 225.401 149.827 223.171C152.988 222.747 156.546 222.349 159.294 220.613C166.379 216.136 172.134 203.31 173.932 195.293C176.255 184.935 176.815 174.648 176.161 164.086C175.835 158.829 175.511 153.533 174.566 148.346C171.035 128.947 160.93 109.24 150.541 92.6745Z" fill="#63C071"/>
<path d="M108.88 84.7167C118.358 89.9449 139.751 92.5545 150.541 92.6745C160.929 109.24 171.035 128.947 174.566 148.346C175.511 153.533 175.836 158.829 176.161 164.086C176.816 174.648 176.256 184.935 173.932 195.293C172.134 203.31 166.379 216.136 159.294 220.613C156.546 222.349 152.988 222.747 149.827 223.171C133.162 225.401 116.478 222.78 100.121 219.647C95.9466 218.847 91.7022 218.249 87.5751 217.232C78.6097 215.024 70.0338 211.603 61.1246 209.204C54.5683 207.439 47.7782 206.631 41.1962 204.977C37.4871 204.044 33.9073 200.02 32.1976 199.633C31.7778 199.538 31.2327 199.653 30.8109 199.706C30.6272 198.566 30.5302 197.451 30.4734 196.297C30.6128 195.201 30.8228 194.115 31.1757 193.065C33.259 186.866 38.0839 185.651 43.1069 182.868C43.363 182.725 43.53 182.606 43.7463 182.424C44.5006 181.791 44.3501 181.492 44.0998 180.612C42.0098 173.273 41.8469 170.349 43.8071 162.847C44.9423 158.501 47.0183 154.181 48.8084 150.073C57.6673 129.743 72.4502 111.169 89.8307 97.4418C95.8348 92.6991 102.297 88.5965 108.88 84.7167Z" fill="#8CD464"/>
<path d="M30.4734 196.297C30.6128 195.201 30.8228 194.115 31.1757 193.065C33.259 186.866 38.0839 185.651 43.1069 182.868C43.363 182.725 43.53 182.606 43.7463 182.424C44.5006 181.791 44.3501 181.492 44.0998 180.612C42.0098 173.273 41.8469 170.349 43.8071 162.847C44.9423 158.501 47.0183 154.181 48.8085 150.073C57.6673 129.743 72.4502 111.169 89.8307 97.4418C95.8353 92.6992 102.297 88.5966 108.881 84.7168C109.21 86.5593 109.516 88.1717 110.456 89.8206C90.692 100.583 74.4719 118.993 62.6132 137.872C59.9126 142.171 57.1838 146.647 55.0566 151.262C53.1454 155.409 51.5906 159.944 50.2867 164.32C50.0435 165.164 49.8289 166.015 49.643 166.872C49.4569 167.731 49.3003 168.595 49.1733 169.463C49.0462 170.332 48.9485 171.204 48.8805 172.08C48.8125 172.955 48.7741 173.832 48.7658 174.71C48.7576 175.588 48.7787 176.465 48.8297 177.342C48.8807 178.218 48.9614 179.092 49.0717 179.963C49.182 180.834 49.3217 181.701 49.4909 182.562C49.6601 183.424 49.8585 184.279 50.0855 185.127C45.1917 185.089 39.8346 186.234 36.254 189.84C35.0649 191.037 33.1557 195.712 31.9792 196.144C31.6011 196.283 30.8941 196.254 30.4734 196.297Z" fill="#CDDE72"/>
<path d="M128.442 109.449C128.801 109.468 129.152 109.483 129.505 109.555C132.286 110.118 133.787 112.686 135.216 114.878C135.397 117.18 135.028 119.573 134.816 121.868C138.969 123.472 143.622 125.916 146.533 129.376C148.177 131.329 149.095 133.794 148.858 136.36C148.621 138.936 147.32 141.42 145.276 143.018C144.964 143.257 144.639 143.477 144.3 143.677C143.961 143.877 143.611 144.057 143.251 144.215C142.891 144.373 142.522 144.509 142.146 144.622C141.769 144.736 141.386 144.827 140.999 144.894C135.027 145.954 132.519 140.988 127.152 140.515C126.195 140.43 125.785 140.655 125.078 141.271C124.819 141.932 124.726 142.438 124.821 143.138C124.931 143.929 125.372 144.741 125.968 145.27C129.324 148.247 133.87 150.159 137.383 153.052C142.991 157.67 147.231 165.091 147.914 172.359C148.467 178.236 146.333 183.665 142.592 188.139C137.738 193.944 131.112 196.621 123.675 197.282C123.64 198.355 123.608 199.436 123.319 200.477C122.779 202.427 121.501 204.216 119.722 205.209C116.636 206.93 113.788 205.891 110.683 204.97C110.09 204.794 109.579 204.598 109.025 204.322C108.56 203.913 108.131 203.47 107.739 202.992C105.515 200.297 105.605 197.492 105.848 194.212C101.484 192.191 97.2602 189.891 93.8279 186.46C91.2161 183.85 88.0835 179.709 88.1728 175.874C88.2322 173.304 89.3486 170.471 91.2152 168.701C102.512 157.986 109.122 173.971 117.826 173.627C118.826 173.588 119.627 173.134 120.285 172.399C120.909 171.704 121.008 171.186 120.973 170.278C119.836 167.939 115.853 166.44 113.66 165.079C107.048 160.974 101.113 155.422 99.3144 147.604C98.0338 142.036 99.2584 136.259 102.298 131.478C106.146 125.425 111.685 122.42 118.522 120.874C118.604 117.704 118.385 114.246 120.781 111.79C122.873 109.646 125.631 109.418 128.442 109.449Z" fill="#203B53"/>
<path d="M121.778 120.325C122.066 118.457 121.88 116.769 122.81 115.038C123.404 113.933 124.285 112.951 125.546 112.636C127.466 112.155 129.301 113.103 130.857 114.117C128.223 115.57 127.756 117.516 126.966 120.254L126.895 120.499C125.067 120.767 123.51 121.166 121.778 120.325Z" fill="#FDE579"/>
<path d="M91.7199 175.737C91.8212 173.496 92.6348 172.106 94.2795 170.593C95.7383 169.251 98.1118 167.877 100.18 168.126C101.521 168.287 102.774 168.721 103.593 169.768C102.225 172.152 97.6075 174.852 94.9934 175.599C94.4407 175.758 93.9267 175.751 93.3597 175.74C92.8206 175.73 92.2569 175.691 91.7199 175.737Z" fill="#F9CF31"/>
<path d="M102.784 147.749C102.687 147.422 102.596 147.103 102.528 146.769C101.479 141.591 102.391 136.943 105.404 132.594C108.966 127.452 114.29 125.109 120.276 124.071L120.193 124.338C119.981 125.043 119.856 125.652 119.806 126.388C119.742 127.322 119.57 127.78 118.859 128.412C117.529 129.592 115.562 129.988 113.984 130.762C109.387 133.019 106.839 137.948 106.344 142.879C106.22 144.125 106.197 145.392 106.155 146.643C105.035 147.025 103.92 147.418 102.784 147.749Z" fill="#FDE579"/>
<path d="M121.512 133.981C124.637 133.731 128.233 134.064 130.924 135.811C132.272 136.686 132.826 137.338 133.168 138.921C130.504 137.985 128.009 137.232 125.188 136.943C123.229 138.261 121.973 139.924 121.555 142.301C121.286 143.835 121.544 145.388 122.48 146.654C124.398 149.247 128.368 150.773 131.062 152.52C138.683 157.462 145.572 166.563 144.35 176.143C143.712 181.146 140.321 186.349 136.338 189.365C133.49 191.522 129.025 193.437 125.488 193.806C124.071 193.954 121.366 193.746 120.162 194.325C119.784 194.506 119.752 195.23 119.656 195.622C120.234 196.889 120.269 199.024 119.76 200.333C119.367 201.345 118.417 202.113 117.415 202.477C115.443 203.194 113.024 202.572 111.243 201.583C111.059 201.481 110.917 201.374 110.741 201.252C107.739 198.258 110.26 195.888 109.969 192.506C109.924 191.977 109.83 192.039 109.454 191.715C114.77 191.56 127.261 185.578 131.48 182.251C134.887 179.564 136.763 174.641 137.217 170.393C138.218 161.04 133.187 155.339 125.437 150.936C122.822 149.451 119.657 148.074 117.786 145.644C116.661 144.183 116.213 142.086 116.552 140.28C117.095 137.386 119.213 135.554 121.512 133.981Z" fill="#EB8B32"/>
<path d="M130.857 114.117C130.908 114.203 130.961 114.289 131.012 114.377C132.869 117.578 130.377 121.512 131.752 123.847C133.897 127.49 144.166 125.43 145.618 136.382C144.787 138.428 143.83 140.282 141.7 141.26C140.132 141.98 138.418 141.784 136.86 141.136C135.535 140.584 135.014 139.654 133.487 139.328L133.167 138.921C132.825 137.338 132.271 136.685 130.924 135.811C128.233 134.064 124.636 133.731 121.511 133.98C119.212 135.554 117.094 137.386 116.551 140.28C116.212 142.086 116.66 144.183 117.785 145.644C119.656 148.074 122.821 149.451 125.436 150.936C133.187 155.339 138.217 161.04 137.217 170.393C136.762 174.641 134.886 179.564 131.479 182.251C127.261 185.578 114.769 191.56 109.454 191.715C106.345 190.964 103.017 189.186 100.413 187.35C96.1372 184.335 92.6378 181.043 91.7203 175.737C92.2573 175.691 92.821 175.729 93.3601 175.74C93.9271 175.751 94.4411 175.758 94.9938 175.599C97.6079 174.851 102.225 172.152 103.594 169.768C106.775 172.575 110.256 175.161 114.332 176.507C116.532 177.234 119.077 177.506 121.186 176.351C123.55 175.057 124.096 172.864 124.773 170.47C124.327 169.157 123.822 167.895 122.835 166.886C121.061 165.074 118.623 164.044 116.44 162.816C110.058 159.227 105.365 154.65 102.784 147.749C103.92 147.418 105.036 147.025 106.156 146.643C106.198 145.392 106.22 144.124 106.345 142.879C106.839 137.948 109.387 133.019 113.985 130.762C115.563 129.988 117.53 129.592 118.859 128.412C119.571 127.78 119.742 127.322 119.806 126.388C119.857 125.652 119.982 125.043 120.194 124.337L120.277 124.071C120.814 124.083 121.135 123.982 121.63 123.779C122.174 122.754 121.876 121.443 121.777 120.324C123.509 121.166 125.066 120.767 126.894 120.498L126.965 120.253C127.755 117.516 128.222 115.57 130.857 114.117Z" fill="#FBB329"/>
<path d="M132.825 130.545C133.479 130.556 134.133 130.583 134.782 130.666C136.82 130.924 139.516 131.65 140.797 133.352C140.92 134.23 140.917 134.166 140.392 134.885C138.798 135.428 137.746 135.3 136.257 134.54C136.056 134.439 135.86 134.328 135.669 134.208C135.479 134.087 135.295 133.957 135.117 133.818C134.94 133.68 134.769 133.532 134.606 133.376C134.443 133.221 134.288 133.057 134.141 132.886C133.994 132.715 133.856 132.537 133.727 132.353C133.597 132.168 133.477 131.977 133.367 131.781C133.256 131.585 133.155 131.383 133.065 131.177C132.975 130.97 132.894 130.759 132.825 130.545Z" fill="#FAEECB"/>
<defs>
<linearGradient id="paint0_linear_2351_4531" x1="132.008" y1="87.0628" x2="133.788" y2="76.5164" gradientUnits="userSpaceOnUse">
<stop stop-color="#FEAA08"/>
<stop offset="1" stop-color="#FEF23A"/>
</linearGradient>
</defs>
</svg>
