<svg width="32" height="32" viewBox="0 0 32 32" fill="none" xmlns="http://www.w3.org/2000/svg">
<path fill-rule="evenodd" clip-rule="evenodd" d="M0.00157482 10.6114C0.15305 10.2686 0.424455 10.0949 0.766223 9.94152C1.03215 8.99854 1.37216 8.0886 1.72911 7.17492C1.53066 6.92256 1.2635 6.6465 1.22618 6.31945C1.20282 6.11402 1.24257 5.98127 1.37169 5.82042L1.55333 5.80382C1.95635 5.94391 2.06168 6.16707 2.24962 6.51378C2.32161 6.32572 2.3865 6.08928 2.48888 5.91613C2.59964 5.7289 2.65435 5.73133 2.859 5.6632L2.88927 5.67492C3.15682 5.54279 3.25812 5.24604 3.38829 4.99816C3.378 4.98725 3.36761 4.97573 3.35704 4.96495C3.18671 4.7913 2.98235 4.61302 2.89025 4.38683C2.8088 4.18645 2.83305 4.04883 2.91368 3.85558C3.03036 3.7924 3.05562 3.76191 3.19591 3.76085C3.57068 3.75826 3.82004 4.05619 4.07286 4.28429L5.04064 3.39855C4.96257 3.16162 4.847 2.90249 4.94884 2.65636C5.01062 2.50712 5.09115 2.42427 5.25939 2.39659C5.47927 2.36069 5.67776 2.5064 5.85118 2.61437C6.30276 2.26304 9.09568 0.0731808 9.31798 0.00303991C9.50174 0.0343948 9.54761 0.0320888 9.68419 0.149524L9.67931 0.298938C9.46901 0.700338 9.11417 0.925207 8.73302 1.15734C9.83374 0.852384 11.0178 0.483804 12.1481 0.319446C12.7342 0.234172 13.4647 0.509628 14.0133 0.287219C14.1272 0.152038 14.1782 0.0647844 14.3531 0.000109999C14.679 0.0476716 14.977 0.215307 15.2965 0.24718C15.732 0.290462 16.1796 0.273519 16.6188 0.316516C19.3026 0.579621 21.7905 1.25381 24.0172 2.77257C26.5385 4.49215 29.1615 8.20264 30.2301 10.9718C30.7354 12.2811 31.0073 13.6541 31.2467 15.0265C31.5475 15.2306 31.8543 15.4736 32.0006 15.8058C31.9354 16.0584 31.7274 16.1038 31.5651 16.298C31.3522 16.5528 31.4372 16.9099 31.4596 17.2159C31.4735 17.6871 31.4398 18.1614 31.3902 18.63C31.0292 22.0472 29.6812 24.6666 26.902 26.8409L27.4186 27.3839C27.278 27.6117 27.1356 27.8738 26.8395 27.9308C26.4132 28.013 25.9573 27.6667 25.6139 27.465C25.4802 27.5775 24.7466 28.1031 24.7477 28.2472C24.749 28.3882 24.8701 28.5194 24.8268 28.6671C24.7811 28.8221 24.6561 28.9412 24.5055 29.0079C24.254 29.1195 23.7787 28.8744 23.5377 28.7823C23.0807 29.0247 22.6213 29.2041 22.1324 29.38C22.2492 29.4825 22.3557 29.5828 22.4254 29.7218C22.5047 29.8797 22.4843 30.0408 22.4283 30.2003C22.3566 30.2748 22.2922 30.3374 22.193 30.378C21.5406 30.6447 21.1365 30.2992 20.5592 30.087C20.3796 30.0211 20.2852 30.0001 20.1061 30.0655C19.991 30.2324 19.8936 30.366 19.7281 30.4933C19.4235 30.5492 19.1938 30.4373 18.9176 30.3312C18.7681 30.3749 18.7039 30.3922 18.5875 30.5001C18.4509 30.6268 18.5454 30.5592 18.3971 30.6632C18.1563 30.8319 17.6156 30.684 17.3356 30.6407C17.5894 30.9083 17.858 31.0698 18.1539 31.2853C18.3415 31.4219 18.417 31.5436 18.4527 31.7638C18.3661 31.8848 18.3254 31.9612 18.1608 31.9923C17.5354 32.1097 16.4563 30.9309 15.9459 30.6066C15.3231 30.2109 14.2379 30.2464 13.5113 30.0284C11.8803 29.539 10.1978 28.7096 8.79454 27.7833C4.8747 25.1959 1.73898 21.4317 0.73302 16.9054C0.400489 15.4088 0.380917 13.8905 0.0914186 12.3956C0.0654861 12.1858 0.0607095 12.022 0.208606 11.8517C0.766287 11.2099 -0.040173 11.29 0.00157482 10.6114ZM24.3219 11.2638C25.2546 12.2376 26.2906 13.1209 27.2526 14.0685C28.0789 14.8824 28.8367 15.7692 29.6988 16.548C29.8686 16.7015 30.1937 17.0364 30.4244 17.0548C30.4356 17.0556 30.4473 17.0538 30.4586 17.0528L30.4625 15.8839C29.4002 15.2489 24.9379 11.3999 24.3219 11.2638ZM21.9537 12.5734C23.7573 14.1506 25.5834 15.6344 27.2311 17.3732C27.8717 18.0492 29.3271 19.8753 30.1041 20.2325C30.213 20.1644 30.1842 20.2101 30.2086 20.1066C30.3165 19.6607 30.3859 19.2246 30.4108 18.7667C29.3213 18.0937 28.2633 17.3771 27.2369 16.6183C26.4854 16.0654 22.4174 12.5698 21.9537 12.5734ZM24.9068 7.39171C25.7962 8.66325 26.7453 9.89315 27.7535 11.0802C28.497 11.9437 29.2935 12.7662 29.9859 13.6691C29.856 13.1768 29.7078 12.7071 29.5192 12.2325C28.763 10.5671 27.6111 9.48368 26.3268 8.1837C25.974 7.82677 25.6109 7.3501 25.2057 7.05577C25.2917 7.17903 25.6704 7.6313 25.6695 7.74523C25.4683 7.58814 25.2353 7.30827 24.9908 7.25695C24.9089 7.37087 24.927 7.32226 24.9068 7.39171ZM20.3297 14.3722C21.002 14.9021 21.6809 15.4276 22.3092 16.006C23.1962 16.8225 28.7569 22.3372 29.2106 22.5255C29.3472 22.4334 29.2887 22.4903 29.3815 22.3497L29.7096 21.5929C28.7507 21.0081 27.8633 20.3733 26.9869 19.6798C26.0365 18.9277 21.0229 14.451 20.3297 14.3722ZM16.6139 14.5997C17.3378 15.2005 18.0707 15.7953 18.777 16.4151C20.0117 17.499 27.5078 24.3546 28.0055 24.4845C28.143 24.422 28.2214 24.3536 28.3268 24.2491L28.4947 24.006C28.4059 23.707 27.5338 23.2003 27.2379 22.9855C26.192 22.2241 25.1752 21.4281 24.1871 20.5987C23.0661 19.6654 17.6814 14.968 16.7789 14.6134C16.7261 14.5928 16.6688 14.5894 16.6139 14.5997ZM13.7154 15.0939C14.5033 16.0806 16.1294 17.4049 17.1207 18.3155C19.76 20.7402 23.2876 24.2762 26.2692 26.1505C26.3897 26.1188 26.4861 26.0839 26.5953 26.0255C26.4778 25.704 24.191 24.1909 23.734 23.8526C22.7529 23.1265 21.8307 22.2709 20.9205 21.464C19.3742 20.0832 17.8362 18.6935 16.3063 17.296C15.7865 16.8232 14.3519 15.3615 13.8453 15.1153C13.7779 15.0826 13.7882 15.0905 13.7154 15.0939ZM13.0416 18.1359C13.2912 18.47 13.6004 18.7554 13.8981 19.0499C13.8209 19.1427 13.6745 19.2606 13.6891 19.3819C13.7483 19.8612 14.3864 20.1269 14.6422 20.5138C14.8444 20.6916 15.0486 20.8683 15.2545 21.0421C15.6828 21.5709 16.0529 21.9377 16.6412 22.2999C16.7185 22.3659 16.7943 22.4212 16.8834 22.4718C17.87 23.0324 18.6429 23.9499 19.5192 24.6651C20.8726 25.7509 22.2936 26.7489 23.7809 27.6593C24.0496 27.4416 24.3402 27.272 24.6393 27.0968C21.2985 25.451 18.4893 22.8021 15.732 20.3985C15.0213 19.7792 13.8176 18.5251 13.0416 18.1359ZM16.1539 24.087C17.7377 25.7726 19.4146 27.337 21.2731 28.7472L22.1695 28.4767C22.1231 28.2983 21.793 28.1693 21.6276 28.0734C20.3616 27.3401 19.1921 26.5517 18.0651 25.6339C17.4505 25.1334 16.8458 24.4668 16.1676 24.0616L16.1539 24.087ZM14.2281 1.4298C15.0284 2.04208 21.558 6.59776 21.9147 6.59484L21.9059 6.53624C21.0692 5.78803 16.1177 2.15497 15.9108 1.68077L15.9498 1.46495C15.6587 1.25245 14.8416 1.27936 14.485 1.32238C14.3565 1.33777 14.3239 1.34244 14.2281 1.4298ZM18.9147 1.79308C19.0983 2.0083 19.2671 2.26087 19.5817 2.28038C19.7103 2.28816 19.7532 2.24045 19.859 2.18175C19.5981 1.94419 19.326 1.81186 18.9713 1.75304L18.9147 1.79308ZM11.192 1.71007C12.1435 2.46998 19.4121 7.94826 19.692 8.01183L19.6344 7.90343C18.2834 6.34657 15.6466 4.46501 13.9869 3.07628C13.3728 2.56234 12.8732 1.91621 12.2496 1.42101C11.9537 1.47205 11.4575 1.49275 11.2135 1.65343L11.192 1.71007ZM8.15587 2.50499C8.80177 2.83817 9.41276 3.19992 10.0094 3.60851C10.8956 4.21557 18.6403 9.94612 18.9244 9.91027L18.7076 9.71202C16.2921 7.70761 13.7324 5.85939 11.4068 3.75792C10.7828 3.19414 10.0779 2.6193 9.57286 1.95226C9.18335 2.08933 8.45148 2.2488 8.15587 2.50499ZM12.901 26.34C14.1389 27.4536 15.3459 28.6378 16.65 29.6778C17.1461 29.5745 17.622 29.5288 18.1276 29.4972C17.9788 29.3045 13.5914 26.6727 12.9772 26.3194L12.901 26.34ZM6.53771 3.34777C7.70597 4.12227 8.77759 5.08453 9.86779 5.95909C11.3384 7.13881 12.8679 8.20239 14.4186 9.28038C15.045 9.71599 15.623 10.2118 16.2799 10.6056L16.3121 10.5773C16.2289 10.4816 16.1477 10.3845 16.0572 10.295C14.2675 8.7907 12.3945 7.38359 10.6344 5.84581C9.50061 4.85516 8.45754 3.61937 7.20372 2.77745C6.95503 2.95511 6.73152 3.11149 6.53771 3.34777ZM4.9674 4.713C5.9377 5.41341 11.2089 10.2292 11.8717 10.298C11.794 10.2062 11.7197 10.1137 11.6334 10.0294C10.0251 8.62952 8.46608 7.2095 6.99767 5.67199C6.50782 5.15916 5.96256 4.63634 5.56993 4.04992C5.35221 4.25961 5.12483 4.45606 4.9674 4.713ZM3.56114 6.40831C4.03251 6.89822 4.51891 7.37426 5.02013 7.83605C5.67498 8.43175 11.0912 13.1771 11.4527 13.2911C11.4152 13.1543 11.371 13.0987 11.2682 12.9982C9.76397 11.6232 4.83391 7.26232 4.05529 5.7921L3.56114 6.40831ZM8.96642 19.4327C9.06013 19.5706 9.13547 19.6372 9.28087 19.7277C9.3013 19.7403 9.42 19.8097 9.43907 19.8292C9.59172 19.9842 9.41355 20.0329 9.44298 20.2169C9.63663 20.2241 9.77139 20.1831 9.95079 20.1232L10.0201 20.0997L10.0152 20.172L9.8922 20.3224C9.93448 20.5271 10.1451 20.7125 10.3199 20.8263C10.5159 20.9539 10.7171 21.0389 10.9547 20.9952C10.9762 20.8575 10.9221 20.8229 10.8385 20.711C10.7646 20.6124 10.6835 20.5178 10.6002 20.4249L10.3483 20.1495C10.156 19.8261 9.86613 19.4302 9.54357 19.2198C9.37964 19.1128 9.29377 19.1043 9.10411 19.1359C9.00439 19.2586 8.98597 19.28 8.96642 19.4327ZM3.24376 21.2374C5.19258 24.0174 7.47789 26.3381 10.5504 27.9952C10.6583 27.9804 10.6264 28.0041 10.6676 27.964C8.97183 26.5886 7.29717 25.2087 5.73009 23.6954C4.89077 22.885 4.1368 21.9943 3.29845 21.1857L3.24376 21.2374ZM1.61388 11.4298C2.96625 13.0375 4.35325 14.5988 5.7672 16.1564C6.75978 17.2498 7.73373 18.3516 8.83165 19.3507C8.99412 19.1838 9.22285 19.0034 9.24865 18.7687C9.18003 18.5078 8.91366 18.2863 8.72911 18.089C7.17603 16.2645 5.67812 14.399 4.23497 12.4933C3.46989 11.5007 2.66419 10.5363 2.00255 9.47472C1.73675 10.0812 1.63062 10.7745 1.61388 11.4298ZM1.31407 13.6114C1.33406 14.0571 1.36096 14.5044 1.36974 14.9503C1.59201 14.8495 1.68536 14.776 1.93322 14.8038C2.35238 15.1055 2.69117 15.5098 3.05529 15.8702C3.7325 16.5286 4.39991 17.1964 5.05822 17.8722C5.27728 18.0978 5.48855 18.3896 5.72423 18.59C5.82245 18.6735 5.93666 18.6956 6.06115 18.7189C6.07329 18.923 6.04996 18.9478 6.19591 19.0919C6.34232 19.1327 6.48582 19.1667 6.63439 19.1993C6.75805 19.2266 6.7967 19.2568 6.88341 19.3409L6.85802 19.4386L6.62853 19.5587C6.63541 19.7029 6.71636 19.8033 6.83751 19.8946C7.01442 20.0279 7.25769 20.0232 7.47228 20.0362L7.61095 20.1378C7.53166 20.2723 7.58432 20.213 7.44884 20.3136C7.70283 20.7072 8.36863 21.2669 8.7672 21.5382C8.92586 21.4725 8.92796 21.4437 9.01622 21.298L9.00548 21.1876L8.69591 21.2794L8.64611 21.2277C8.69249 21.147 8.73654 21.0814 8.79259 21.0079L8.79064 20.9825L8.59044 20.8819C8.58869 20.7591 8.5762 20.8171 8.62462 20.7052C8.41196 20.6153 8.18307 20.733 7.98595 20.6593C8.14087 20.5997 8.29168 20.5377 8.442 20.4679L8.44103 20.3829L8.31017 20.298C8.19037 20.3286 7.90816 20.4479 7.79943 20.4171C7.8995 20.3049 7.99113 20.253 8.12657 20.1847L8.05431 20.1681L8.1715 20.1515C7.90458 19.6929 6.94636 18.8493 6.5338 18.4083C5.59834 17.4115 4.66775 16.4091 3.74376 15.4025C3.16792 14.7643 2.09249 13.2885 1.41954 12.8751C1.28349 13.0684 1.29976 13.3801 1.31407 13.6114ZM2.40978 8.50206C3.8582 9.66477 5.13727 11.1165 6.44982 12.422C6.88741 12.8572 7.32027 13.3489 7.80919 13.7276L7.67052 13.4747C6.7042 12.4338 5.71838 11.4123 4.77501 10.3517C4.1084 9.60209 3.48122 8.75393 2.734 8.08117L2.61095 8.07824C2.47614 8.21917 2.45553 8.3215 2.40978 8.50206ZM1.51329 16.1896C1.55471 16.4233 1.58894 16.6606 1.63927 16.8927C2.69894 17.7448 3.57065 18.7082 4.48986 19.6925C5.059 20.302 5.651 20.9805 6.33556 21.4718L6.40587 21.463L6.24865 21.2501C5.09506 20.3071 3.66805 18.5735 2.72228 17.4025C2.38709 16.9875 1.97614 16.1999 1.54845 15.9044C1.46427 16.0318 1.49453 16.0461 1.51329 16.1896Z" fill="#203B53"/>
<path d="M11.834 22.3345C11.4923 22.3345 11.209 22.0511 11.209 21.7095C11.209 21.3678 11.4923 21.0845 11.834 21.0845H20.1673C20.509 21.0845 20.7923 21.3678 20.7923 21.7095C20.7923 22.0511 20.509 22.3345 20.1673 22.3345H11.834Z" fill="url(#paint0_linear_2349_4244)"/>
<path fill-rule="evenodd" clip-rule="evenodd" d="M19.6242 10.9838C19.1825 11.3004 18.5492 11.1088 18.3575 10.6004L16.7825 6.40044C16.5159 5.67544 15.4909 5.67544 15.2242 6.40044L13.6409 10.5921C13.4492 11.1088 12.8242 11.3004 12.3825 10.9754L9.04921 8.59211C8.38254 8.12544 7.49921 8.78377 7.77421 9.55877L11.2409 19.2671C11.3575 19.6004 11.6742 19.8171 12.0242 19.8171H19.9659C20.3159 19.8171 20.6325 19.5921 20.7492 19.2671L24.2159 9.55877C24.4992 8.78377 23.6159 8.12544 22.9575 8.60044L19.6242 10.9838ZM13.9159 16.2921C13.5742 16.2921 13.2909 16.0088 13.2909 15.6671C13.2909 15.3254 13.5742 15.0421 13.9159 15.0421H18.0825C18.4242 15.0421 18.7075 15.3254 18.7075 15.6671C18.7075 16.0088 18.4242 16.2921 18.0825 16.2921H13.9159Z" fill="url(#paint1_linear_2349_4244)"/>
<defs>
<linearGradient id="paint0_linear_2349_4244" x1="16.0007" y1="21.0845" x2="16.0007" y2="22.3345" gradientUnits="userSpaceOnUse">
<stop stop-color="#E6EFF6"/>
<stop offset="1" stop-color="#BCD3E5"/>
</linearGradient>
<linearGradient id="paint1_linear_2349_4244" x1="15.9965" y1="5.85669" x2="15.9965" y2="19.8171" gradientUnits="userSpaceOnUse">
<stop stop-color="#E6EFF6"/>
<stop offset="1" stop-color="#BCD3E5"/>
</linearGradient>
</defs>
</svg>
