<svg width="240" height="231" viewBox="0 0 240 231" fill="none" xmlns="http://www.w3.org/2000/svg">
<path d="M156.998 27.0098C159.034 27.9096 160.065 29.5194 160.977 31.5499C166.576 33.1289 171.976 35.1471 177.401 37.2667C178.9 36.0878 180.54 34.4999 182.483 34.2794C183.703 34.1407 184.486 34.377 185.441 35.1436L185.543 36.2208C184.711 38.6146 183.385 39.2412 181.326 40.3575C182.443 40.7849 183.845 41.1676 184.873 41.7755C185.987 42.4339 185.97 42.7589 186.375 43.9747L186.306 44.1534C187.09 45.7426 188.852 46.3462 190.324 47.1192C190.39 47.0575 190.456 46.9951 190.521 46.9317C191.552 45.9197 192.613 44.7061 193.957 44.1592C195.147 43.6757 195.963 43.8192 197.11 44.2979C197.486 44.9912 197.664 45.1418 197.67 45.9757C197.685 48.2008 195.916 49.6786 194.562 51.1798L199.822 56.9249C201.229 56.4613 202.767 55.7772 204.229 56.3819C205.117 56.7492 205.611 57.2279 205.775 58.2296C205.988 59.5349 205.118 60.7078 204.478 61.7374C206.558 64.4111 219.567 81.0052 219.983 82.3253C219.797 83.4164 219.812 83.6886 219.114 84.5001L218.225 84.4727C215.841 83.2241 214.51 81.1166 213.132 78.8536C214.943 85.3895 217.133 92.4174 218.108 99.129C218.615 102.609 216.979 106.946 218.3 110.203C219.102 110.879 219.616 111.182 220 112.22C219.718 114.156 218.722 115.927 218.533 117.825C218.276 120.412 218.377 123.067 218.121 125.675C216.831 138.839 213.874 151.206 207.803 162.563C199.308 155.694 191.79 147.171 184.074 139.497C181.476 136.913 178.907 133.995 176.004 131.746L176.828 133.247C182.566 139.428 188.416 145.493 194.018 151.791C197.976 156.242 201.701 161.277 206.138 165.272L206.281 165.274C205.423 166.734 204.514 168.178 203.543 169.602C202.524 171.096 201.386 172.595 200.148 174.092C197.687 171.573 195.158 169.117 192.562 166.726C188.675 163.189 156.516 135.016 154.369 134.339C154.592 135.151 154.852 135.48 155.463 136.077C163.913 143.802 190.571 167.395 197.335 177.308C195.342 179.465 193.163 181.598 190.853 183.68C181.925 176.388 155.479 152.481 151.883 152.107C152.344 152.652 152.784 153.199 153.296 153.699C162.846 162.012 172.101 170.447 180.82 179.576C183.004 181.862 185.373 184.18 187.405 186.667C185.35 188.381 183.219 190.047 181.043 191.647C175.064 187.391 169.463 182.43 163.778 177.869C155.046 170.865 145.969 164.552 136.762 158.151C133.041 155.564 129.606 152.623 125.704 150.284L125.517 150.45C126.011 151.018 126.492 151.593 127.029 152.124C137.656 161.056 148.776 169.412 159.227 178.543C165.078 183.656 170.523 189.867 176.735 194.688C175.282 195.673 173.817 196.625 172.353 197.538C169.1 195.793 165.989 193.912 162.94 191.824C157.678 188.22 111.694 154.199 110.007 154.412L111.291 155.586C125.634 167.488 140.83 178.461 154.639 190.939C158.31 194.256 162.454 197.638 165.447 201.553C161.784 203.526 158.206 205.201 154.859 206.492C147.084 209.493 138.93 211.108 130.779 212.529C129.567 214.315 128.127 216.134 126.154 217.002C124.654 216.615 124.386 215.38 123.232 214.416C121.72 213.153 119.602 213.658 117.785 213.791C114.986 213.874 112.168 213.673 109.385 213.379C89.0939 211.235 73.5427 203.231 60.6318 186.728L57.4121 189.796C56.0592 188.961 54.5027 188.118 54.1641 186.359C53.6757 183.829 55.7306 181.121 56.9287 179.082C56.2609 178.288 53.1426 173.935 52.2861 173.94C51.4481 173.947 50.6693 174.669 49.792 174.411C48.8702 174.14 48.1609 173.396 47.7646 172.5C47.1023 171.007 48.5581 168.186 49.1045 166.755C47.6647 164.04 46.5997 161.312 45.5547 158.408C44.9461 159.102 44.3548 159.74 43.5293 160.153C42.592 160.624 41.6367 160.502 40.6894 160.17C40.2462 159.743 39.8754 159.361 39.6338 158.771C38.0501 154.896 40.0986 152.496 41.3584 149.067C41.7499 148.001 41.8767 147.443 41.4883 146.38C40.4972 145.697 39.7029 145.121 38.9473 144.139C38.6141 142.329 39.2799 140.965 39.9102 139.324C39.6501 138.436 39.5462 138.056 38.9053 137.364C38.1526 136.553 38.5562 137.114 37.9375 136.232C36.9356 134.802 37.8143 131.593 38.0713 129.931C36.4822 131.438 35.5239 133.033 34.2441 134.791C33.4332 135.905 32.7143 136.35 31.4072 136.563C30.6878 136.047 30.2335 135.808 30.0488 134.83C29.3501 131.117 36.3489 124.71 38.2754 121.679C40.6248 117.981 40.4146 111.539 41.709 107.226C42.16 105.722 42.6593 104.212 43.2021 102.701C49.1785 106.443 54.9965 110.402 60.6504 114.582C65.1141 117.866 89.2789 138.631 92.0205 138.598C81.311 129.232 70.465 120.425 60.6816 110.101C57.5416 106.787 51.1049 98.82 46.3594 94.9473C47.491 92.4537 48.717 89.995 50.0137 87.6065C54.1966 90.3523 58.1853 93.2745 62.1357 96.4005C67.7789 100.866 97.5472 127.453 101.661 127.919C97.6688 124.772 93.6363 121.652 89.9053 118.217C85.5629 114.219 62.3558 91.258 52.8359 82.6964C53.5575 81.5096 54.2937 80.3485 55.04 79.2178C55.9861 77.7845 56.9586 76.3688 57.957 74.9727C59.0384 75.6979 60.0417 76.3403 60.6436 76.7774C66.8539 81.298 72.8926 86.0209 78.7598 90.9454C85.4173 96.4882 117.387 124.383 122.744 126.486C123.058 126.609 123.398 126.63 123.725 126.568C119.425 123.001 115.077 119.465 110.883 115.784C104.78 110.427 72.9074 81.3222 60.6973 71.2774C63.0974 68.1524 65.6315 65.1392 68.293 62.2608C72.7191 65.6613 79.6016 70.2628 81.4473 71.629C87.2727 75.9408 92.748 81.0184 98.1523 85.8096C107.334 94.0081 116.467 102.257 125.551 110.555C128.636 113.361 137.153 122.04 140.161 123.502C140.564 123.697 140.501 123.65 140.935 123.63C136.256 117.771 126.599 109.908 120.714 104.501C106.111 91.0855 86.9273 71.9451 70.0557 60.3936C72.4912 57.8668 75.0276 55.4522 77.6602 53.1661C96.8013 62.9813 113.024 78.2464 128.957 92.1348C133.177 95.8123 140.328 103.259 144.937 105.569C143.454 103.584 141.616 101.889 139.848 100.14C140.306 99.588 141.177 98.8906 141.088 98.169C140.736 95.3222 136.947 93.7468 135.43 91.4483C134.229 90.3927 133.018 89.3483 131.795 88.3165C129.251 85.1763 127.055 82.9984 123.562 80.8477C123.102 80.4556 122.653 80.1279 122.124 79.8272C116.265 76.4984 111.674 71.0518 106.471 66.8048C98.6968 60.5688 90.5489 54.8194 82.0312 49.5577C93.1362 40.8619 105.779 34.4295 119.623 31.3526C128.511 29.3774 137.527 29.2604 146.404 27.5411C147.65 27.3871 148.62 27.3612 149.631 28.2393C153.442 31.5509 152.968 26.7607 156.998 27.0098ZM92.3037 174.44C97.27 178.882 126.672 200.456 127.901 203.272L127.67 204.556C129.399 205.818 134.25 205.658 136.366 205.402C137.129 205.311 137.32 205.281 137.889 204.762C133.136 201.126 94.3753 174.08 92.2529 174.094L92.3037 174.44ZM105.79 166.327C113.812 175.572 129.469 186.743 139.323 194.988C142.97 198.04 145.934 201.877 149.638 204.817C151.395 204.514 154.337 204.389 155.786 203.435L155.919 203.099C150.274 198.59 107.078 166.034 105.445 165.68L105.79 166.327ZM106.1 199.715C105.335 199.669 105.083 199.948 104.454 200.297C106.003 201.708 107.618 202.493 109.725 202.843L110.064 202.605C108.974 201.326 107.969 199.83 106.1 199.715ZM44.3232 132.09C45.0947 135.013 45.9764 137.802 47.0967 140.621C51.5866 150.51 58.4276 156.941 66.0537 164.66C68.1484 166.78 70.3042 169.61 72.71 171.357C72.199 170.626 69.9529 167.943 69.957 167.266C71.1519 168.198 72.532 169.856 73.9834 170.161C74.4694 169.485 74.3651 169.776 74.4844 169.364C69.2036 161.814 63.5676 154.514 57.5811 147.466C53.1658 142.337 48.4353 137.452 44.3232 132.09ZM169.934 98.3585C168.969 99.3494 167.61 100.417 167.457 101.811C167.864 103.36 169.444 104.676 170.54 105.848C179.762 116.681 188.658 127.756 197.227 139.071C201.769 144.965 206.549 150.695 210.478 156.998C212.057 153.397 212.688 149.282 212.787 145.391C204.757 135.844 196.52 126.573 188.124 117.324C182.231 110.832 176.453 104.291 169.934 98.3585ZM41.7207 111.986C41.6543 111.981 41.5867 111.998 41.5195 112.003L41.4961 118.94C47.8013 122.708 74.2956 145.564 77.9551 146.374C72.417 140.592 66.2699 135.346 60.5586 129.72C55.6517 124.886 51.1525 119.624 46.0332 115C45.0251 114.089 43.0919 112.094 41.7207 111.986ZM170.312 85.3712C169.369 85.7613 169.361 85.9313 168.837 86.7969L168.901 87.4503L170.737 86.9044L171.03 87.212C170.754 87.6913 170.496 88.0826 170.162 88.5196L170.172 88.6661L171.364 89.2676C171.375 89.9966 171.447 89.6496 171.16 90.3135C172.423 90.8479 173.781 90.1511 174.951 90.5889C174.031 90.9429 173.139 91.3119 172.246 91.7266L172.25 92.2296L173.026 92.7325C173.737 92.551 175.413 91.8433 176.059 92.0264C175.464 92.6927 174.921 92.998 174.117 93.4034L174.55 93.504L173.851 93.6026C175.436 96.326 181.128 101.337 183.576 103.955C189.13 109.874 194.653 115.822 200.139 121.799C203.557 125.587 209.945 134.348 213.941 136.803C214.749 135.655 214.65 133.806 214.565 132.433C214.447 129.786 214.287 127.134 214.234 124.486C212.915 125.085 212.364 125.521 210.893 125.356C208.403 123.564 206.392 121.165 204.229 119.024C200.208 115.115 196.244 111.149 192.335 107.136C191.034 105.796 189.782 104.063 188.383 102.873C187.8 102.377 187.123 102.246 186.384 102.107C186.312 100.896 186.446 100.75 185.579 99.8946C184.71 99.6522 183.862 99.4479 182.98 99.254C182.244 99.0917 182.013 98.917 181.498 98.4171L181.648 97.836L183.011 97.1202C182.97 96.264 182.491 95.6684 181.771 95.126C180.721 94.3352 179.278 94.3668 178.004 94.2891L177.179 93.6846C177.65 92.8855 177.339 93.2394 178.144 92.6417C176.636 90.3046 172.679 86.9824 170.312 85.3712ZM184.336 85.8165L185.266 87.0782C192.116 92.6774 200.59 102.973 206.206 109.927C208.196 112.391 210.635 117.067 213.175 118.821C213.676 118.063 213.494 117.981 213.383 117.128C213.137 115.74 212.936 114.329 212.637 112.95C206.345 107.891 201.172 102.173 195.714 96.3282C192.334 92.7083 188.818 88.6781 184.752 85.7608L184.336 85.8165ZM161.094 89.5948C159.93 88.8368 158.737 88.3355 157.326 88.5948C157.199 89.4127 157.518 89.6172 158.015 90.2813C158.453 90.8671 158.933 91.4302 159.428 91.9815L160.927 93.6153C162.069 95.5359 163.791 97.884 165.706 99.1329C166.679 99.7683 167.186 99.8214 168.312 99.6339C168.906 98.9038 169.014 98.7771 169.13 97.8682C168.573 97.0496 168.13 96.6561 167.267 96.1192C167.151 96.0476 166.44 95.631 166.326 95.5147C165.42 94.5941 166.477 94.3092 166.303 93.2169C165.152 93.1739 164.353 93.4134 163.287 93.7696L162.875 93.9092L162.902 93.4815L162.906 93.4815L163.632 92.586C163.381 91.37 162.132 90.2704 161.094 89.5948ZM159.728 47.0284C159.085 47.1168 159.274 46.9763 159.029 47.2149C169.099 55.3815 179.043 63.5746 188.349 72.5606C193.333 77.3731 197.807 82.6622 202.785 87.4639L203.109 87.1563C191.538 70.6496 177.971 56.8678 159.728 47.0284ZM90.7363 44.171C91.0122 45.2299 92.9697 45.995 93.9521 46.5645C101.47 50.9184 108.414 55.6015 115.106 61.0518C118.755 64.0238 122.345 67.9783 126.372 70.3839L126.457 70.2374C117.053 60.2287 107.096 50.9399 96.0605 42.5665L90.7363 44.171ZM123.51 37.0391C120.564 37.6531 117.738 37.9227 114.735 38.1104C115.601 39.2447 141.672 54.8814 145.318 56.9786L145.771 56.8575C138.421 50.2448 131.253 43.2147 123.51 37.0391Z" fill="#FFFFFF"/>
<path d="M41.9857 18.0578C44.1086 9.37175 49.8362 8.37113 65.2337 12.2086C108.03 15.3721 150.9 18.0823 193.172 25.8096C199.357 26.9402 209.922 28.4594 215.307 31.4017C215.83 32.7886 215.96 33.9193 215.866 35.3808C215.452 41.7529 214.143 48.2167 213.384 54.5747C212.11 65.6765 211.148 76.8053 210.498 87.9611C209.861 92.9089 209.519 97.9032 209.018 102.867C208.264 110.332 207.393 117.808 206.515 125.259C205.36 135.06 204.128 144.977 202.488 154.709C201.1 162.944 199.357 171.086 197.579 179.243C196.23 185.427 195.148 191.73 193.342 197.801C189.978 199.573 186.691 199.907 182.93 199.635C173.539 198.955 164.091 196.855 154.791 195.369C140.371 193.174 125.939 191.07 111.493 189.056C97.091 187.042 82.6699 185.177 68.2299 183.458C56.7986 182.203 45.0345 181.528 33.7409 179.355C32.0731 179.196 30.2972 179.11 28.6726 178.677C27.2732 178.304 26.0226 177.596 25.3237 176.283C23.7339 173.296 25.2261 161.128 25.4801 157.154C26.4726 141.632 27.3758 126.055 29.1552 110.602C31.8617 87.0932 36.0149 63.7293 40.1804 40.442C40.9487 36.1473 41.3334 30.547 42.673 26.544C41.64 23.5471 41.5781 21.1724 41.9857 18.0578Z" fill="#203B53"/>
<path d="M52.7849 12.8231C55.2541 13.0214 57.9144 13.119 60.2161 14.1211C61.5896 14.7189 62.7004 15.6905 63.1947 17.1324C63.8846 19.1436 63.2249 21.6407 62.2617 23.453C60.7243 26.3452 57.8279 28.7824 54.7113 29.7312C54.2188 29.8034 53.721 29.8775 53.2234 29.9026C51.1445 30.0061 48.9986 29.0356 47.4691 27.6753C45.6099 26.0221 44.4055 23.7187 44.3213 21.2132C44.2469 19.0032 44.9354 16.5836 46.5134 14.9799C48.2314 13.2337 50.4496 12.8888 52.7849 12.8231Z" fill="#7CCF8F"/>
<path d="M57.7289 15.3024C58.3016 15.4628 58.8453 15.6843 59.319 16.0528C59.9773 16.5647 60.3643 17.4268 60.4681 18.2385C60.7018 20.065 59.7724 21.9044 58.6294 23.2643C57.3295 24.8099 55.4587 26.1525 53.3767 26.2318C51.873 26.2895 50.9552 25.6806 49.8631 24.7247C49.5832 24.3653 49.3281 23.9887 49.0986 23.5957C48.2806 22.1874 48.1617 20.3908 48.6177 18.8429C48.9048 17.8683 49.5845 16.5284 50.5746 16.0947C51.093 15.8676 51.5867 15.8113 52.1074 16.0771C53.0499 16.5587 53.2435 17.7132 53.5146 18.6393C54.7355 17.0702 55.8206 15.9674 57.7289 15.3024Z" fill="#203B53"/>
<path d="M57.8879 17.23C58.0926 17.3346 58.2789 17.555 58.448 17.7126C58.7071 18.4588 58.7061 18.9797 58.4386 19.7321C57.8055 21.5138 56.1441 23.3234 54.4318 24.1202C53.7148 24.4539 52.8156 24.6328 52.0737 24.2608C51.0323 23.7391 50.632 22.713 50.2284 21.6865C50.1773 21.1633 50.1155 20.6216 50.1711 20.097C50.2686 19.1739 50.7117 18.4489 51.4076 17.8506C51.9864 18.311 51.8609 19.9301 52.1343 20.6935C52.338 21.2623 52.593 21.4209 53.11 21.6797C53.4939 21.6576 53.743 21.6638 54.0777 21.4474C54.6713 21.0627 54.873 19.8425 55.0252 19.2005C55.9271 18.3741 56.781 17.7599 57.8879 17.23Z" fill="#7CCF8F"/>
<path d="M185.674 176.881C186.895 176.932 188.26 177.027 189.296 177.727C190.807 178.75 191.441 180.452 191.757 182.179C192.372 185.545 192.162 192.543 190.186 195.384C187.822 196.824 183.158 196.153 180.445 195.98C179.022 195.907 177.611 195.706 176.198 195.528C174.526 193.735 173.405 191.667 173.265 189.178C173.09 186.055 174.65 182.833 176.697 180.533C179.205 177.716 182.11 177.1 185.674 176.881Z" fill="#7CCF8F"/>
<path d="M184.401 182.217C185.393 182.335 186.227 182.578 187.016 183.218C188.075 184.078 188.643 185.283 188.782 186.628C188.948 188.234 188.518 189.91 187.472 191.156C186.295 192.558 184.975 192.889 183.222 193.084C182.239 192.972 181.418 192.861 180.586 192.292C179.605 191.622 178.973 190.669 178.763 189.496C178.474 187.881 178.926 186.129 179.859 184.792C181.054 183.08 182.435 182.553 184.401 182.217Z" fill="#203B53"/>
<path d="M183.789 184.047C184.275 184.128 184.764 184.208 185.205 184.441C186.018 184.87 186.57 185.678 186.787 186.562C187.06 187.674 186.809 188.869 186.184 189.819C185.516 190.837 184.772 191.095 183.621 191.345C183.112 191.258 182.597 191.17 182.131 190.937C181.366 190.555 180.793 189.837 180.529 189.03C180.226 188.105 180.374 187.099 180.823 186.248C181.487 184.986 182.463 184.436 183.789 184.047Z" fill="#7CCF8F"/>
<path d="M35.4882 157.359L35.7241 157.387C38.9168 157.799 41.7425 159.356 43.7045 161.925C45.7221 164.567 46.5319 168.081 46.0772 171.353C45.7956 173.38 45.0227 176.511 43.2084 177.674C42.112 178.377 39.9361 177.623 38.7476 177.373C36.485 177.002 29.8597 176.934 28.3645 175.679C27.5671 175.011 27.2478 173.826 27.1434 172.834C26.7062 168.672 27.5312 163.216 30.3306 159.929C31.7401 158.274 33.3444 157.524 35.4882 157.359Z" fill="#7CCF8F"/>
<path d="M36.7036 162.002C38.1424 162.126 39.3086 162.394 40.5316 163.193C40.6474 163.269 40.7611 163.348 40.8727 163.43C40.9843 163.511 41.0939 163.596 41.2013 163.683C41.3088 163.77 41.4138 163.861 41.5167 163.953C41.6196 164.046 41.7201 164.141 41.818 164.239C41.916 164.337 42.0116 164.437 42.1046 164.54C42.1977 164.642 42.2879 164.747 42.3752 164.854C42.4626 164.961 42.5475 165.071 42.6296 165.182C42.7117 165.294 42.7909 165.407 42.8674 165.523C42.9434 165.638 43.0166 165.756 43.087 165.875C43.1574 165.994 43.2246 166.115 43.2886 166.238C43.3526 166.361 43.4137 166.485 43.4718 166.611C43.5294 166.736 43.5842 166.864 43.6356 166.992C43.6868 167.121 43.7349 167.251 43.78 167.381C43.8245 167.513 43.8659 167.645 43.9038 167.778C43.9422 167.911 43.977 168.045 44.0082 168.18C44.0395 168.314 44.0673 168.45 44.0915 168.586C44.3929 170.33 44.0871 172.299 43.0284 173.748C42.0285 175.117 40.6979 175.744 39.0661 176.021C37.3434 176.14 35.5496 176.061 34.0386 175.136C32.6135 174.264 31.7031 172.804 31.3664 171.184C30.9193 169.036 31.3705 166.579 32.5901 164.75C33.6466 163.166 34.8659 162.388 36.7036 162.002Z" fill="#203B53"/>
<path d="M36.3487 164.076C37.2055 164.045 38.1614 164.103 38.9452 164.477C40.3948 165.167 41.5368 166.56 42.0271 168.076C42.4225 169.3 42.437 170.701 41.8206 171.858C41.127 173.159 40.1644 173.61 38.7963 173.977C37.957 173.995 36.9377 174.034 36.1302 173.799C35.0978 173.498 34.1677 172.633 33.6656 171.699C32.9759 170.416 32.8596 168.838 33.2962 167.454C33.8041 165.843 34.8616 164.799 36.3487 164.076Z" fill="#7CCF8F"/>
<path d="M36.3031 167.696C37.0751 167.478 37.7855 167.292 38.5209 167.763C39.0157 168.079 39.2139 168.533 39.2996 169.094C39.3806 169.625 39.1786 170.239 38.8177 170.631C38.4574 171.022 37.9926 171.183 37.4687 171.122C37.0964 171.079 36.7951 170.936 36.4652 170.774C36.2924 170.511 36.1551 170.24 36.0453 169.945C35.7301 169.1 35.9667 168.476 36.3031 167.696Z" fill="#203B53"/>
<path d="M191.524 28.08C197.608 29.043 208.125 30.6242 213.588 32.7504C213.716 36.6674 212.744 40.9628 211.887 44.7752C211.13 45.3095 210.347 45.7157 209.522 46.1323C206.365 47.523 203.161 48.3985 199.699 47.6326C197.043 47.0452 194.85 45.6179 193.404 43.2935C190.758 39.0413 190.427 32.8545 191.524 28.08Z" fill="#46C9CB"/>
<path d="M200.032 31.7398C201.619 31.7762 203.31 31.9756 204.764 32.6378C206.274 33.3259 207.544 34.519 208.074 36.1194C208.132 36.2914 208.181 36.4662 208.222 36.6431C208.262 36.8201 208.294 36.9989 208.316 37.179C208.338 37.3591 208.352 37.5401 208.357 37.7217C208.361 37.9031 208.356 38.0847 208.342 38.2659C208.328 38.4471 208.306 38.6271 208.273 38.8058C208.241 38.9846 208.201 39.1613 208.151 39.336C208.102 39.5107 208.043 39.6825 207.976 39.8515C207.909 40.0204 207.835 40.1853 207.751 40.3469C206.81 42.1979 205.09 43.2636 203.187 43.9118C201.769 44.0539 200.687 43.8494 199.441 43.1159C197.568 42.013 196.088 40.0697 195.607 37.9406C195.288 36.5244 195.428 34.9622 196.281 33.7515C197.222 32.4164 198.502 32.0333 200.032 31.7398Z" fill="#203B53"/>
<path d="M199.972 33.2424C200.956 33.3171 201.931 33.3923 202.884 33.666C204.326 34.0797 205.784 35.0175 206.476 36.3874C206.901 37.2317 206.998 38.1952 206.663 39.0885C206.124 40.5282 204.563 41.4538 203.227 42.0083C202.181 42.051 201.271 42.0723 200.326 41.5647C198.894 40.7964 197.745 39.3051 197.298 37.7508C197.031 36.8209 196.996 35.7623 197.49 34.8984C198.027 33.957 198.986 33.5549 199.972 33.2424Z" fill="#FFFDE3"/>
<path d="M202.134 36.1369C202.713 36.4138 203.083 36.8232 203.255 37.4627C203.44 38.1534 203.327 39.0526 202.911 39.6455C202.536 40.1796 202.273 40.2537 201.658 40.4056C201.064 40.0398 200.49 39.6438 200.162 39.0094C199.905 38.5122 199.815 37.9935 200.043 37.4613C200.439 36.5379 201.259 36.3913 202.134 36.1369Z" fill="#203B53"/>
<path d="M44.4268 28.5867C46.6671 30.8295 48.591 31.9056 51.6603 32.6758C50.7951 37.8383 49.8109 42.9575 49.1395 48.1537C47.9292 57.5152 47.1832 66.906 45.8593 76.2638C42.1125 102.745 37.5924 128.8 37.8887 155.662C36.035 155.274 34.4323 155.349 32.6088 155.782C30.1256 156.694 28.7497 158.373 27.5622 160.645C29.0786 143.27 29.8088 125.821 31.9589 108.504C35.2838 81.7318 40.4299 55.2536 44.4268 28.5867Z" fill="#7CCF8F"/>
<path d="M146.05 21.3611C160.339 23.0233 174.57 25.0892 188.742 27.5589C187.862 32.3261 187.861 35.5613 189.078 40.2715C184.604 39.6218 180.151 38.6531 175.698 37.8682C167.364 36.3696 159.003 35.04 150.614 33.8791C135.662 31.8103 120.707 30.8143 105.689 29.4919C101.493 29.3988 97.2513 29.0216 93.0571 28.7925C83.2505 28.3027 73.4566 27.6333 63.6747 26.785C64.1476 25.9422 64.6408 25.0915 65.0183 24.2014C66.349 21.0626 66.6394 17.7182 65.3444 14.5133C76.9923 15.8323 88.837 16.3386 100.53 17.1792C115.737 18.2044 130.911 19.5988 146.05 21.3611Z" fill="#7CCF8F"/>
<path d="M170.314 179.799C171.491 179.821 172.696 179.99 173.871 180.099C172.287 182.47 171.084 185.404 170.872 188.267C170.674 190.951 171.549 193.266 173.26 195.31C140.556 190.368 107.799 185.809 74.9895 181.633C66.254 180.589 57.4754 179.795 48.7222 178.905C47.5484 178.795 46.3766 178.667 45.2063 178.521C45.5963 177.947 45.9839 177.369 46.3121 176.757C48.461 172.747 48.4945 168.424 47.2093 164.151C58.6883 166.683 70.2271 168.907 81.8252 170.821C93.4233 172.736 105.064 174.338 116.748 175.629C134.522 177.566 152.467 178.761 170.314 179.799Z" fill="#7CCF8F"/>
<path d="M195.867 49.6258C200.943 51.3572 205.52 51.2087 210.367 48.8205C210.74 48.6361 211.111 48.4483 211.48 48.2566C209.157 65.5373 207.944 82.9169 206.369 100.277C205.258 111.404 204.025 122.519 202.67 133.619C201.417 143.958 199.828 154.245 197.906 164.48C196.787 170.25 195.289 175.946 194.189 181.713C193.505 179.286 192.721 177.114 190.406 175.774C188.294 174.551 185.406 174.493 183.106 175.165C182.444 175.361 181.791 175.583 181.146 175.831C182.681 170.401 183.948 164.796 185.015 159.255C188.839 138.875 192.001 118.392 194.5 97.8074C195.394 91.1555 196.194 84.4922 196.898 77.8174C197.732 69.9663 198.484 62.1837 197.613 54.2995C197.501 53.2918 197.415 51.7579 196.98 50.8447C196.69 50.2379 196.283 50.1747 195.712 49.921L195.867 49.6258Z" fill="#7CCF8F"/>
<path d="M61.774 29.0027C75.8812 30.4514 90.084 31.0386 104.231 32.0095C126.121 33.512 147.978 35.5795 169.583 39.505L180.895 41.6073C183.914 42.1532 186.993 42.5675 189.929 43.4713C191.345 45.7538 193.42 48.4086 195.868 49.6258L195.713 49.9209C194.956 51.7835 196.055 59.5582 196.051 62.0004C196.048 64.6341 195.816 67.3027 195.598 69.9277C194.468 82.6098 193.014 95.2544 191.237 107.862C188.876 126.674 185.707 145.349 181.73 163.887C180.952 167.403 179.986 174.191 177.935 176.941C175.932 178.154 162.782 176.761 159.647 176.542C147.661 175.786 135.683 174.903 123.716 173.892C111.97 172.736 100.262 171.278 88.5911 169.521C79.4569 168.082 70.3475 166.5 61.263 164.773C56.5322 163.876 51.649 162.592 46.8684 162.082L46.5034 162.045L46.5261 162.073C44.9317 159.481 42.7967 157.643 40.0551 156.338C39.4658 150.332 40.0662 144.127 40.458 138.125C41.9033 115.992 45.8556 94.1366 48.6777 72.1635C50.3587 59.0752 50.3014 45.3158 54.2438 32.6486C57.3436 31.9521 59.2862 30.9806 61.774 29.0027Z" fill="#FDFCFB"/>
<path d="M71.1884 38.9534C71.702 38.9453 72.1795 38.9622 72.6257 39.2596C73.0867 39.5676 73.1588 39.7373 73.2392 40.2389C71.9339 41.279 66.3477 40.5804 62.8266 43.2002C60.0115 45.2951 59.3397 48.7701 58.8427 52.0208C58.3666 52.3166 58.2379 52.4159 57.6869 52.4488L57.3377 52.1358C57.1725 51.6449 57.0983 51.2433 57.107 50.7222C57.1594 47.6212 58.5317 44.1896 60.761 42.0434C63.7188 39.1963 67.3215 38.8475 71.1884 38.9534Z" fill="#203B53"/>
<path d="M162.233 163.953C161.719 163.961 161.241 163.944 160.795 163.647C160.334 163.339 160.262 163.169 160.182 162.668C161.487 161.627 167.073 162.326 170.594 159.706C173.409 157.611 174.081 154.136 174.578 150.886C175.054 150.59 175.183 150.491 175.734 150.458L176.083 150.771C176.248 151.262 176.323 151.663 176.314 152.184C176.261 155.285 174.889 158.717 172.66 160.863C169.702 163.71 166.099 164.059 162.233 163.953Z" fill="#203B53"/>
<path d="M57.6285 155.287C54.3922 155.035 51.7939 154.066 49.5429 151.621C49.4077 151.474 49.276 151.324 49.1481 151.17C49.0201 151.016 48.8965 150.859 48.7766 150.699C48.6568 150.539 48.5407 150.377 48.4289 150.211C48.317 150.045 48.2094 149.877 48.1059 149.706C48.0024 149.535 47.9036 149.361 47.8089 149.185C47.7138 149.009 47.6237 148.83 47.5376 148.65C47.4521 148.469 47.371 148.287 47.2941 148.102C47.2171 147.918 47.1451 147.731 47.078 147.543C47.0104 147.355 46.9478 147.165 46.8896 146.974C46.8319 146.782 46.779 146.59 46.7306 146.396C46.6822 146.201 46.6389 146.006 46.6002 145.81C46.5614 145.614 46.5278 145.417 46.499 145.219C46.4707 145.021 46.4467 144.823 46.4279 144.624C46.409 144.425 46.3954 144.225 46.3865 144.025C46.3775 143.826 46.3737 143.626 46.375 143.426C46.3759 143.226 46.3823 143.027 46.3933 142.827C46.4928 141.033 47.0399 139.464 48.4135 138.286C48.7908 138.339 49.0588 138.422 49.4132 138.551C50.1342 139.553 49.0561 144.205 49.8068 146.629C50.7481 149.668 53.2575 151.162 56.0904 152.168C56.7661 152.408 57.7332 152.653 58.312 153.06C58.8232 153.419 58.8046 153.563 58.8714 154.134C58.6227 154.746 58.1639 154.958 57.6285 155.287Z" fill="#203B53"/>
<path d="M117.265 55.8281C119.507 53.0909 121.905 51.0195 125.537 50.4212C129.188 49.8199 133.629 50.8183 136.624 53.0047C139.969 55.4479 141.085 58.9222 141.686 62.8339C149.65 68.0645 156.419 76.6642 160.928 84.9527C165.039 92.5087 168.75 101.073 166.157 109.763C166.183 109.841 166.208 109.92 166.236 109.998C166.398 110.458 166.575 110.913 166.675 111.393C167.395 114.831 166.788 118.261 164.897 121.207C165.25 122.935 165.198 124.494 164.717 126.183C163.949 128.882 161.986 132.125 159.494 133.535C158.319 134.504 156.86 135.416 155.872 136.569C152.702 140.268 152.576 142.978 146.993 143.829C145.734 145.82 144.056 147.258 142.32 148.815L142.346 148.929C141.822 149.384 141.696 149.776 141.489 150.429C135.483 152.148 131.287 153.423 124.855 154.227C118.543 154.59 109.708 153.884 109.708 153.884L103.339 152.825L94.0887 150.254C91.3198 148.625 88.4236 148.055 85.6138 146.472C85.3208 146.03 85.2114 145.826 84.7289 145.576C83.4645 144.922 82.7092 143.097 81.5158 142.781C78.7818 140.83 76.9837 136.98 75.8405 133.942C74.8325 134.272 73.7865 134.305 72.7661 134.011C71.2943 133.587 70.2719 132.572 69.5368 131.258C67.6436 127.876 68.4518 125.208 67.9171 121.71C67.613 119.717 66.5492 117.837 66.2127 115.818C65.0912 109.09 67.2015 102.103 68.9911 95.6873C68.7847 95.2252 68.548 94.7353 68.4599 94.2335C67.9418 91.2903 69.621 86.7482 71.2529 84.3268C73.0178 81.7077 75.6138 80.3956 77.653 78.1331C78.9307 76.7159 79.8207 75.0296 81.1409 73.6163C81.6023 73.1175 82.0725 72.6274 82.5513 72.145C83.03 71.6626 83.5172 71.1892 84.0123 70.7247C84.5079 70.2599 85.0115 69.8039 85.5234 69.3573C86.0349 68.9103 86.5545 68.4722 87.0815 68.0438C87.6086 67.6154 88.1432 67.1962 88.6849 66.7863C89.2271 66.3764 89.7763 65.9766 90.3322 65.5864C90.8882 65.1962 91.4511 64.816 92.0208 64.4454C92.5905 64.0752 93.1664 63.7149 93.7489 63.3651C94.3315 63.0153 94.9194 62.6757 95.514 62.3465C96.1086 62.0173 96.7086 61.6988 97.3139 61.391C97.9193 61.0832 98.5304 60.7861 99.1465 60.4996C99.763 60.2132 100.384 59.9382 101.01 59.6738C101.636 59.4093 102.266 59.1563 102.901 58.9143C103.536 58.6723 104.175 58.4416 104.818 58.2223C105.461 58.0029 106.108 57.7949 106.758 57.5986C107.408 57.4023 108.062 57.2173 108.719 57.0439C111.057 56.4207 113.643 56.1946 116.035 55.7251L116.42 56.2809L116.591 56.2046L116.466 55.6217L116.86 55.7342L117.021 55.5815L117.175 55.918L117.265 55.8281Z" fill="#F8CEB3"/>
<path d="M131.972 103.573C132.207 103.899 132.475 104.224 132.667 104.577L132.19 105.66L131.186 105.538L131.972 103.573Z" fill="#203B53"/>
<path d="M110.249 130.504C109.936 130.283 110.001 130.268 109.912 129.917C110.181 129.336 110.684 129.044 111.186 128.677L112.048 129.394L110.249 130.504Z" fill="#203B53"/>
<path d="M111.213 132.172C112.113 132.465 112.947 132.711 113.895 132.816C113.704 133.185 113.589 133.437 113.156 133.585C112.669 133.751 112.205 133.696 111.769 133.429C111.327 133.157 111.292 132.63 111.213 132.172Z" fill="#203B53"/>
<path d="M130.833 106.386L131.186 105.539L132.19 105.66C131.559 107.029 130.981 108.494 130.224 109.794L129.605 109.168L130.833 106.386Z" fill="#203B53"/>
<path d="M111.186 128.677C112.124 128.408 113.134 128.274 114.013 128.806C114.525 129.116 115.093 129.597 115.295 130.183C115.369 130.396 115.361 130.584 115.366 130.802L115.121 131.11L114.682 131.091C114.491 130.675 114.296 130.3 113.977 129.968C113.445 129.416 112.759 129.43 112.048 129.394L111.186 128.677Z" fill="#203B53"/>
<path d="M112.048 129.393C112.759 129.43 113.446 129.415 113.977 129.968C114.296 130.3 114.492 130.675 114.683 131.091C114.371 131.662 114.085 132.192 113.896 132.816C112.948 132.711 112.114 132.465 111.214 132.172C110.848 131.648 110.558 131.065 110.25 130.504L112.048 129.393Z" fill="#FBFBFA"/>
<path d="M92.9117 115.333C93.3666 115.367 93.8246 115.452 94.2677 115.561C95.4172 115.843 96.6787 116.545 97.262 117.621C97.5091 118.077 97.5405 118.315 97.386 118.798L96.9207 118.886C96.3317 118.7 96.0679 118.32 95.6825 117.867L95.5123 117.663C93.9362 116.427 92.0974 117.04 90.2474 117.053L90.049 116.801L90.1668 116.407C90.9494 115.682 91.8799 115.45 92.9117 115.333Z" fill="#203B53"/>
<path d="M132.322 118.762C133.171 118.743 134.093 118.775 134.903 119.046C136.112 119.45 136.928 120.265 137.439 121.427C137.702 122.024 137.733 122.488 137.512 123.094L137.135 123.129C136.423 122.717 135.874 121.319 135.312 120.619C133.086 119.42 131.141 120.635 128.84 120.769L128.647 120.515L128.806 120.165C129.865 119.349 131.046 119.053 132.322 118.762Z" fill="#203B53"/>
<path d="M118.767 139.965C118.812 140.004 118.863 140.036 118.902 140.081C119.117 140.33 119.225 140.461 119.206 140.793C119.173 141.406 118.842 141.734 118.407 142.128C116.617 143.754 113.808 144.318 111.462 144.116C108.525 143.863 106.375 142.644 104.542 140.401C104.399 139.986 104.267 139.73 104.405 139.298C105.277 139.39 106.303 140.895 107.037 141.487C108.805 142.914 111.467 143.444 113.683 143.131C115.975 142.806 117.396 141.727 118.767 139.965Z" fill="#203B53"/>
<path d="M122.511 153.334C128.91 153.192 135.206 151.767 140.661 148.333C141.221 148.566 141.704 148.787 142.321 148.815L142.347 148.929C141.822 149.385 141.696 149.776 141.489 150.43C135.483 152.149 131.706 153.845 125.274 154.648C124.613 154.035 123.38 153.573 122.511 153.334Z" fill="#203B53"/>
<path d="M92.3667 119.463C92.6826 119.478 92.9996 119.493 93.3125 119.542C94.1323 119.668 94.8343 120.271 95.3006 120.934C96.1217 122.1 96.2289 123.719 95.9905 125.085C95.6511 127.032 94.6741 128.532 93.0488 129.625C92.7002 129.664 92.3297 129.68 91.9802 129.646C91.2615 129.576 90.5849 129.029 90.1805 128.454C89.2652 127.153 89.2979 125.149 89.6063 123.658C90.0002 121.751 90.7423 120.515 92.3667 119.463Z" fill="#203B53"/>
<path d="M92.5377 122.192C93.1502 122.389 93.3323 122.524 93.6444 123.068C93.6399 123.777 93.3715 124.19 93.0197 124.793C92.4992 124.515 92.3329 124.357 92.0617 123.832C92.0299 123.145 92.2142 122.79 92.5377 122.192Z" fill="#FBFBFA"/>
<path d="M133.145 123.865C133.562 123.921 133.956 124.016 134.336 124.201C135.285 124.664 135.951 125.829 136.231 126.807C136.737 128.577 136.502 130.771 135.548 132.355C134.917 133.402 134.218 133.769 133.07 134.086C132.7 134.026 132.337 133.939 131.992 133.786C131.131 133.404 130.536 132.535 130.209 131.68C129.536 129.926 129.712 127.719 130.53 126.044C131.125 124.826 131.883 124.278 133.145 123.865Z" fill="#203B53"/>
<path d="M132.854 126.134L133.649 126.399C133.994 126.762 134.197 127.002 134.213 127.524C134.234 128.193 133.874 128.656 133.46 129.13C133.293 129.084 133.033 129.022 132.884 128.943C132.43 128.7 132.358 128.459 132.179 128.013C132.231 127.265 132.498 126.786 132.854 126.134Z" fill="#FBFBFA"/>
<path d="M139.51 99.3215C140.66 99.7414 141.552 102.02 142.051 103.176C142.099 103.289 142.14 103.405 142.185 103.519L141.369 103.92C140.993 103.123 140.49 101.716 139.737 101.245C138.788 102.782 137.873 104.355 136.774 105.79L137.202 106.582C136.602 107.295 136.019 108.106 135.341 108.739C133.93 110.561 131.758 112.749 129.336 113.006C128.741 113.07 128.538 112.919 128.07 112.577C128.404 111.388 129.055 110.272 129.605 109.168L130.224 109.794C130.981 108.494 131.559 107.03 132.19 105.66L132.667 104.577C132.474 104.225 132.207 103.9 131.972 103.573C132.042 103.034 132.287 102.421 132.44 101.893L132.46 101.215L132.396 100.925L133.683 100.797C133.733 100.245 133.832 99.7047 133.925 99.1579C133.942 99.6597 133.847 100.365 134.249 100.705C135.189 101.499 137.124 101.342 138.322 101.491C138.838 100.828 139.155 100.077 139.51 99.3215Z" fill="#203B53"/>
<path d="M136.774 105.791L137.202 106.582C136.603 107.295 136.019 108.107 135.341 108.74L135.025 108.582L135.136 108.467L135.392 108.519L135.023 108.385C134.559 108.64 134.118 108.906 133.618 109.081C134.697 108.01 135.734 106.901 136.774 105.791Z" fill="#E49543"/>
<path d="M133.618 109.081C134.118 108.905 134.559 108.639 135.023 108.385L135.392 108.519L135.136 108.467L135.025 108.582L135.341 108.74C133.93 110.561 131.759 112.749 129.337 113.007C128.741 113.07 128.539 112.919 128.07 112.578C130.074 111.894 131.914 110.31 133.618 109.081Z" fill="#F7B89F"/>
<path d="M133.925 99.1571C133.942 99.6588 133.847 100.364 134.249 100.704C135.189 101.498 137.123 101.341 138.322 101.491L137.89 102.56C137.164 103.129 136.659 104.072 136.079 104.791C134.738 106.453 132.537 109.09 130.529 109.933L130.224 109.794C130.981 108.494 131.559 107.029 132.19 105.66L132.667 104.577C132.474 104.224 132.207 103.9 131.972 103.573C132.042 103.033 132.286 102.42 132.44 101.892L132.46 101.215L132.396 100.924L133.683 100.797C133.732 100.244 133.832 99.7039 133.925 99.1571Z" fill="#E46338"/>
<path d="M132.396 100.924L133.683 100.797L133.345 102.427L132.441 101.893L132.46 101.215L132.396 100.924Z" fill="#203B53"/>
<path d="M132.441 101.892L133.346 102.427C133.129 103.107 132.785 103.881 132.668 104.577C132.475 104.224 132.208 103.9 131.973 103.573C132.043 103.034 132.287 102.421 132.441 101.892Z" fill="#203B53"/>
<path d="M139.737 101.245C140.49 101.716 140.994 103.123 141.37 103.92C145.336 112.499 148.313 121.667 149.205 131.106C149.419 133.376 149.694 135.936 148.948 138.14C148.654 139.009 148.151 139.904 147.552 140.601C147.52 140.082 147.714 139.595 147.842 139.098C148.022 138.398 148.205 137.646 148.211 136.922C148.225 135.08 147.631 132.881 147.302 131.064C146.046 124.141 144.714 117.506 142.203 110.906C141.66 109.476 141.158 107.928 140.348 106.624C139.924 105.94 139.587 105.612 138.797 105.435C138.105 105.585 137.69 106.106 137.202 106.582L136.774 105.79C137.874 104.355 138.788 102.782 139.737 101.245Z" fill="#F69373"/>
<path d="M129.937 104.334C130.067 104.927 130.129 105.278 130.01 105.889C125.895 111.845 117.949 115.97 110.954 117.235C107.121 117.928 101.495 117.484 98.1746 115.293C97.9684 115.156 97.8428 115.011 97.7188 114.8L97.6678 114.391C97.6969 114.392 97.726 114.395 97.7554 114.393C99.7484 114.225 101.727 114.339 103.727 114.305C103.79 114.314 103.853 114.329 103.916 114.333C106.252 114.473 108.773 114.194 111.079 113.846C118.816 112.679 124.298 109.627 129.937 104.334Z" fill="#F7B89F"/>
<path d="M141.37 103.92L142.185 103.519C146.071 111.205 149.286 120.303 150.288 128.888C150.573 131.329 150.571 133.77 150.56 136.223C154.28 132.429 156.937 127.338 158.877 122.434L159.416 123.523C158.338 127.152 156.843 130.755 154.472 133.741C154.251 134.081 153.994 134.455 153.694 134.727L155.811 134.954C155.868 134.949 155.925 134.941 155.983 134.938C156.835 134.895 157.382 134.436 158.064 133.974C158.532 133.765 159 133.66 159.495 133.535C158.32 134.505 156.861 135.416 155.874 136.569C152.703 140.268 152.577 142.979 146.995 143.829C145.735 145.82 144.057 147.259 142.322 148.815C141.706 148.787 141.222 148.565 140.662 148.333C143.563 146.173 145.743 143.72 147.553 140.6C148.152 139.903 148.655 139.008 148.949 138.139C149.694 135.935 149.42 133.375 149.206 131.105C148.313 121.667 145.336 112.499 141.37 103.92Z" fill="#203B53"/>
<path d="M153.694 134.727L155.811 134.954L155.61 135.143C152.581 137.941 152.28 140.814 147.937 142.441C149.197 140.269 151.451 135.838 153.694 134.727Z" fill="#F7B89F"/>
<path d="M133.155 134.926C134.693 135.034 136.229 135.156 137.579 135.973C138.917 136.784 139.818 138.057 140.132 139.592C140.17 139.782 140.199 139.972 140.218 140.165C140.237 140.358 140.246 140.551 140.245 140.744C140.244 140.937 140.234 141.13 140.214 141.322C140.194 141.514 140.163 141.705 140.124 141.895C140.084 142.084 140.035 142.271 139.977 142.455C139.918 142.639 139.85 142.82 139.773 142.997C139.696 143.175 139.61 143.347 139.516 143.516C139.421 143.685 139.318 143.848 139.207 144.006C137.975 145.733 136.269 146.379 134.274 146.745C132.299 146.617 130.337 146.217 128.779 144.913C127.668 143.982 126.964 142.704 126.889 141.247C126.805 139.631 127.447 137.943 128.569 136.78C129.828 135.476 131.381 134.951 133.155 134.926Z" fill="#F4747A"/>
<path d="M87.6596 129.984C89.268 130.048 90.5737 130.233 92.0035 131.054C93.6087 131.977 94.9299 133.492 95.3589 135.321C95.702 136.784 95.474 138.348 94.6144 139.594C93.4051 141.345 91.4965 141.85 89.5227 142.181C87.5885 142.254 85.5141 141.85 83.9018 140.733C82.6101 139.837 81.745 138.516 81.517 136.953C81.2872 135.38 81.7678 133.698 82.7411 132.45C83.9916 130.844 85.7161 130.264 87.6596 129.984Z" fill="#E95962"/>
<path d="M86.9021 91.4747C106.322 88.2855 135.977 92.4678 153.074 102.418C153.433 103.687 154.042 104.873 154.386 106.132C154.792 107.465 155.334 111.219 156.324 111.968C156.82 110.534 156.27 108.738 155.978 107.305L156.285 107.123C159.261 108.149 162.469 109.698 165.187 111.284C165.951 114.42 165.456 117.257 164.133 120.163C162.783 118.908 161.514 118.748 159.767 118.402C159.565 119.49 159.455 120.979 158.879 121.931L158.877 122.433C156.936 127.338 154.279 132.429 150.559 136.223C150.571 133.77 150.572 131.329 150.288 128.888C149.286 120.303 146.071 111.205 142.185 103.519C142.14 103.405 142.099 103.289 142.051 103.176C141.552 102.02 140.66 99.7413 139.51 99.3214C139.156 100.077 138.838 100.828 138.322 101.49C137.124 101.341 135.189 101.498 134.249 100.704C133.848 100.364 133.942 99.6588 133.925 99.157C133.832 99.7038 133.733 100.244 133.683 100.797L132.396 100.924L132.46 101.214C131.648 102.276 130.856 103.359 129.937 104.333C124.297 109.627 118.815 112.679 111.078 113.846C108.772 114.194 106.251 114.472 103.915 114.332C103.852 114.329 103.789 114.314 103.726 114.305C101.726 114.339 99.7475 114.225 97.7542 114.392C97.7247 114.395 97.6956 114.391 97.6665 114.39C99.0847 112.079 102.657 109.322 104.714 107.378C105.518 106.228 106.739 105.162 107.71 104.143L108.151 103.344C107.363 103.459 103.864 106.329 102.961 106.898C98.0452 110.002 87.5531 114.171 81.754 112.255C81.4258 112.222 81.1958 112.132 80.8897 112.017C80.4779 111.458 80.5532 110.797 80.5353 110.132C80.5708 106.42 82.3306 102.613 82.3718 99.5614C83.1697 97.5025 84.5238 95.5242 85.6656 93.6367L85.2225 93.4685C83.9512 94.075 83.6018 95.6274 82.7353 96.6161C82.3543 96.3765 82.0986 96.3514 81.6627 96.373C79.5711 96.4758 77.4518 97.0414 75.3653 97.2917C73.6038 97.5029 71.6287 97.4177 69.9216 97.8058C69.8507 97.8216 69.7816 97.8444 69.7119 97.864C69.8852 97.0251 70.0194 96.1769 70.1665 95.3329C75.4262 93.3314 81.3776 92.4825 86.9021 91.4747Z" fill="#D56B26"/>
<path d="M80.5352 110.132C81.6808 110.397 82.4422 110.848 83.3054 111.636C82.7472 111.8 82.2549 111.946 81.7538 112.255C81.4256 112.222 81.1956 112.132 80.8896 112.017C80.4774 111.459 80.5526 110.797 80.5352 110.132Z" fill="#E49543"/>
<path d="M133.789 97.9462L133.925 99.1574C133.833 99.7042 133.733 100.244 133.683 100.797L132.396 100.924C132.209 100.63 131.988 100.479 131.719 100.262C132.369 99.4205 132.908 98.5658 133.789 97.9462Z" fill="#203B53"/>
<path d="M104.715 107.378C105.519 106.228 106.739 105.162 107.71 104.143L108.37 104.649C107.239 106.018 106.081 107.405 104.767 108.605C104.904 107.998 104.981 107.929 104.715 107.378Z" fill="#203B53"/>
<path d="M104.715 107.378C104.981 107.929 104.904 107.998 104.767 108.605C103.163 110.237 101.508 111.815 99.801 113.34C101.15 113.312 102.492 113.287 103.84 113.337C103.739 113.389 103.639 113.446 103.536 113.494C102.639 113.915 100.751 113.7 99.7938 113.52L99.4957 113.116L99.2271 113.106L98.6959 113.626L98.8393 113.826C100.397 114.048 102.31 113.555 103.727 114.305C101.727 114.339 99.7481 114.225 97.7547 114.392C97.7253 114.395 97.6961 114.391 97.667 114.391C99.0852 112.079 102.658 109.323 104.715 107.378Z" fill="#203B53"/>
<path d="M133.789 97.9463C135.056 97.5614 138.217 98.5941 139.363 99.2293C139.413 99.2576 139.461 99.2909 139.511 99.3215C139.156 100.077 138.839 100.828 138.323 101.491C137.124 101.341 135.19 101.498 134.25 100.704C133.848 100.364 133.943 99.6588 133.926 99.1571L133.789 97.9463Z" fill="#E49543"/>
<path d="M103.84 113.337C105.872 113.001 107.985 113.11 110.031 112.818C118.942 111.55 126.309 107.501 131.719 100.262C131.987 100.478 132.209 100.63 132.396 100.924L132.46 101.214C131.648 102.276 130.856 103.359 129.937 104.333C124.297 109.627 118.815 112.679 111.078 113.846C108.772 114.193 106.251 114.472 103.915 114.332C103.852 114.329 103.789 114.314 103.726 114.305C102.31 113.555 100.396 114.047 98.8389 113.826L98.6956 113.626L99.2268 113.105L99.4953 113.116L99.7935 113.52C100.751 113.7 102.638 113.914 103.536 113.494C103.639 113.446 103.739 113.39 103.84 113.337Z" fill="#203B53"/>
<path d="M113.633 96.2085C112.281 99.2363 110.311 101.975 108.37 104.649L107.71 104.144L108.151 103.344C107.363 103.46 103.864 106.329 102.961 106.899C98.0452 110.002 87.5531 114.171 81.754 112.255C82.255 111.946 82.7473 111.8 83.3055 111.635C83.37 111.638 83.4348 111.646 83.4994 111.644C95.4035 111.309 105.899 104.881 113.633 96.2085Z" fill="#203B53"/>
<path d="M118.44 94.3953C121.939 94.5814 128.969 95.9429 132.32 97.0373C128.96 101.261 124.547 104.073 119.776 106.436C118.084 107.284 116.271 108.023 114.439 108.502C113.257 108.81 110.791 109.434 109.735 108.716C109.482 108.544 109.535 108.598 109.502 108.342L109.845 108.121L109.581 107.951C111.166 105.469 118.111 96.9179 118.398 94.7878C118.416 94.6577 118.426 94.5267 118.44 94.3953Z" fill="#E49543"/>
<path d="M153.399 126.375C151.781 121.085 150.261 115.703 148.037 110.627C146.61 107.367 144.137 104.116 143.21 100.7C147.072 102.22 150.718 104.203 154.385 106.133C154.792 107.465 155.334 111.22 156.324 111.968C156.82 110.535 156.27 108.738 155.978 107.305L156.285 107.124C159.26 108.15 162.469 109.698 165.187 111.285C165.951 114.42 165.456 117.257 164.133 120.163C162.782 118.908 161.513 118.748 159.766 118.403C159.564 119.491 159.455 120.98 158.878 121.931C158.726 121.607 158.755 121.762 158.799 121.318C158.812 121.194 158.833 121.071 158.849 120.947L158.729 120.871C156.925 122.634 155.46 124.919 153.399 126.375Z" fill="#E49543"/>
<path d="M105.862 92.9703C108.625 92.9661 111.484 93.4518 114.223 93.7821C112.432 95.1506 110.772 96.6873 108.995 98.0763C103.815 102.127 98.1912 105.04 91.897 106.95C91.5646 107.049 91.2299 107.139 90.8924 107.22C89.4826 107.558 87.3135 108.174 86.0424 107.192C85.4242 106.715 85.2164 105.917 85.2018 105.173C85.134 101.701 88.078 96.2406 90.5184 93.9428C92.3158 92.2506 103.168 92.9087 105.862 92.9703Z" fill="#E49543"/>
<path d="M125.537 50.4212C121.905 51.0195 119.507 53.0909 117.265 55.8281L117.175 55.9196L117.021 55.5831L116.86 55.7358L116.466 55.6233L116.591 56.2062L116.42 56.2825L116.034 55.7267C113.642 56.1962 111.057 56.4223 108.719 57.0455C108.062 57.2189 107.408 57.4039 106.758 57.6002C106.108 57.7965 105.461 58.0045 104.818 58.2239C104.175 58.4432 103.536 58.6739 102.901 58.9159C102.266 59.1579 101.635 59.4109 101.01 59.6754C100.384 59.9398 99.7629 60.2148 99.1463 60.5012C98.5302 60.7877 97.9191 61.0848 97.3137 61.3926C96.7084 61.7004 96.1084 62.0189 95.5139 62.3481C94.9193 62.6773 94.3313 63.0169 93.7488 63.3667C93.1662 63.7165 92.5903 64.0768 92.0207 64.447C91.451 64.8176 90.888 65.1978 90.3321 65.588C89.7762 65.9782 89.2269 66.3781 88.6848 66.7879C88.143 67.1978 87.6084 67.617 87.0814 68.0454C86.5543 68.4738 86.0348 68.9119 85.5232 69.3589C85.0113 69.8055 84.5077 70.2615 84.0122 70.7263C83.517 71.1908 83.0299 71.6642 82.5511 72.1466C82.0724 72.629 81.6021 73.1191 81.1407 73.6179C79.8205 75.0312 78.9305 76.7175 77.6528 78.1347C75.6137 80.3972 73.0176 81.7094 71.2528 84.3284C69.6208 86.7498 67.9417 91.2919 68.4598 94.2351C68.5479 94.7369 68.7846 95.2268 68.9909 95.6889C67.2013 102.105 65.0911 109.092 66.2125 115.819C66.549 117.839 67.6129 119.719 67.9169 121.712C68.4516 125.21 67.6434 127.877 69.5367 131.259C70.2717 132.573 71.2941 133.588 72.7659 134.013C73.7863 134.307 74.8323 134.273 75.8403 133.943C76.9835 136.981 78.7816 140.832 81.5156 142.783C82.7091 143.099 83.4644 144.924 84.7288 145.578C85.2112 145.828 85.3206 146.031 85.6137 146.473C88.4234 148.057 100.302 156.764 125.274 154.649C124.613 154.036 123.379 153.574 122.511 153.335C112.058 153.785 100.779 152.624 91.2361 148.112C85.2048 145.26 79.6164 140.699 77.3438 134.224C74.0108 124.731 78.1076 108.498 82.3708 99.5629C83.1687 97.504 84.5231 95.5261 85.6646 93.6382L85.2215 93.4699C83.9507 94.0761 83.6011 95.6289 82.7343 96.6176C82.3532 96.378 82.0975 96.3529 81.6617 96.3745C79.5701 96.4773 77.4508 97.0429 75.3642 97.2932C73.6028 97.5044 71.6277 97.4188 69.9205 97.8072C69.8497 97.823 69.7805 97.8459 69.7109 97.8655C69.8846 97.0266 70.0183 96.1784 70.1654 95.3344C75.4253 93.3317 81.3767 92.4828 86.9012 91.4745C106.321 88.2853 135.976 92.4681 153.073 102.418C153.432 103.687 154.042 104.873 154.385 106.132C154.791 107.465 155.333 111.219 156.323 111.968C156.819 110.534 156.269 108.738 155.978 107.305L156.284 107.123C159.26 108.15 162.468 109.698 165.187 111.284C165.95 114.42 165.455 117.256 164.132 120.163C162.782 118.908 161.513 118.747 159.766 118.402C159.564 119.49 159.454 120.979 158.878 121.931L158.876 122.433L159.414 123.523C158.336 127.151 156.842 130.754 154.471 133.741C154.249 134.08 153.993 134.455 153.693 134.726L155.81 134.954C155.867 134.949 155.924 134.941 155.982 134.938C156.834 134.895 157.38 134.436 158.063 133.974C158.531 133.765 158.999 133.66 159.494 133.535C161.986 132.125 163.949 128.882 164.717 126.183C165.198 124.494 165.25 122.935 164.897 121.207C166.788 118.261 167.395 114.831 166.675 111.393C166.575 110.913 166.398 110.458 166.236 109.998C166.208 109.92 166.183 109.841 166.157 109.763C168.75 101.073 165.039 92.5087 160.928 84.9527C156.419 76.6642 149.65 68.0645 141.686 62.8339C141.085 58.9222 139.969 55.4479 136.624 53.0047C133.629 50.8183 129.188 49.8199 125.537 50.4212Z" fill="#203B53"/>
<path d="M74.674 127.068C74.9135 129.019 75.2152 130.961 75.5789 132.893C74.7145 132.921 73.8197 133 72.9593 132.898C74.0691 131.854 72.8153 128.895 74.674 127.068Z" fill="#F7B89F"/>
<path d="M159.769 131.715C159.518 131.449 159.454 131.342 159.319 131.019C160.015 129.297 160.708 127.551 161.118 125.735C161.47 124.173 161.665 122.557 162.073 121.012C162.164 120.666 162.303 120.467 162.552 120.218C163.512 121.198 164.029 122.106 164.051 123.509C164.097 126.361 162.079 129.453 160.113 131.396C160.001 131.506 159.886 131.611 159.769 131.715Z" fill="#F8CEB3"/>
<path d="M154.518 102.926C158.307 104.945 163.799 106.885 165.187 111.284C162.469 109.698 159.261 108.149 156.285 107.123L155.978 107.304C155.529 105.836 155.113 104.343 154.518 102.926Z" fill="#D56B26"/>
<path d="M131.128 52.4471C134.113 53.1049 136.793 54.6404 138.428 57.3037C139.392 58.8737 139.762 60.5121 140.029 62.3137C138.055 61.1003 135.999 60.0488 133.86 59.1592C133.488 55.5493 130.742 54.6014 129.588 52.4166L131.128 52.4471Z" fill="#CDDE72"/>
<path d="M160.179 119.118C161.035 119.412 161.838 119.64 162.553 120.217C162.303 120.467 162.165 120.666 162.074 121.012C161.666 122.557 161.47 124.173 161.118 125.734C160.708 127.551 160.016 129.297 159.319 131.019C159.455 131.341 159.519 131.449 159.769 131.714L159.4 132.235C159.089 133.037 158.396 133.116 158.064 133.974C157.381 134.436 156.835 134.895 155.983 134.938C155.925 134.941 155.868 134.949 155.811 134.954L153.694 134.726C153.994 134.455 154.25 134.08 154.472 133.741C156.843 130.754 158.337 127.151 159.416 123.523C159.839 122.052 160.022 120.635 160.179 119.118Z" fill="#F69373"/>
<path d="M159.401 132.236C159.09 133.038 158.397 133.116 158.065 133.974C157.382 134.437 156.836 134.896 155.984 134.939C155.926 134.942 155.869 134.949 155.811 134.955L153.695 134.727C153.995 134.455 154.251 134.081 154.473 133.742C156.148 134.181 157.932 132.882 159.401 132.236Z" fill="#203B53"/>
<path d="M72.9601 132.898C72.8322 132.834 72.7058 132.768 72.5813 132.699C71.0625 131.85 70.1266 130.147 69.7002 128.509C68.6404 124.439 69.6086 120.897 71.7187 117.389C71.9093 118.52 72.1182 119.726 72.4972 120.808C73.2306 122.902 74.7357 124.81 74.6745 127.067C72.8161 128.895 74.0699 131.853 72.9601 132.898Z" fill="#F8CEB3"/>
<path d="M119.454 55.9963C120.336 55.0076 121.145 54.1332 122.297 53.4363C125.118 51.7306 128.035 51.7422 131.127 52.4472L129.587 52.4164C130.741 54.6011 133.487 55.549 133.859 59.159C129.411 57.2993 124.282 56.059 119.454 55.9963Z" fill="#8CD464"/>
<path d="M130.17 59.1645C143.762 63.336 153.268 73.8383 159.769 86.0843C160.763 87.957 161.684 89.8286 162.289 91.8653C160.746 90.8407 159.196 89.8263 157.639 88.8229C157.64 88.7489 157.652 88.674 157.642 88.6009C157.538 87.8448 156.403 86.6447 155.944 86.0166C150.977 79.2207 145.052 72.515 138.673 67.0094C136.079 64.7701 132.982 62.9809 130.514 60.6142C130.116 60.2319 129.85 60.0243 129.818 59.4514L130.17 59.1645Z" fill="#CDDE72"/>
<path d="M69.7117 97.8656C69.7813 97.846 69.8505 97.8231 69.9213 97.8073C71.6285 97.4189 73.6036 97.5045 75.365 97.2933C77.4515 97.043 79.5709 96.4774 81.6625 96.3746C82.0983 96.353 82.354 96.3781 82.7351 96.6177C77.8829 105.647 75.8721 113.139 74.9221 123.368C73.6481 121.466 73.137 119.79 72.7727 117.552C72.6701 116.923 72.6341 116.19 72.3818 115.603C72.258 115.315 72.2997 115.418 71.9328 115.34C70.574 116.423 69.6568 118.706 68.8437 120.243C66.329 112.623 67.9895 105.457 69.7117 97.8656Z" fill="#E49543"/>
<path d="M79.4723 78.4172C81.4082 75.1817 84.2273 72.4763 87.0883 70.0647C97.3967 61.3768 109.708 56.4451 123.307 57.6059L123.158 57.6966C121.557 58.6498 119.764 59.336 118.128 60.2731C111.677 63.9675 106.963 68.3843 102.608 74.338L102.645 74.7636C103.024 74.9913 103.349 75.0348 103.783 75.1009C95.6595 74.9703 87.2359 76.0209 79.4723 78.4172Z" fill="#63C071"/>
<path d="M71.097 88.0988C71.3109 88.3253 71.507 88.6823 71.8353 88.7023C72.6353 88.7501 78.2068 87.2524 79.6592 87.0037C82.7138 86.4809 85.7484 86.2005 88.8369 85.9747C93.8283 85.6108 98.8747 85.0191 103.876 85.0239C109.092 85.0285 114.492 85.3816 119.634 86.2447C129.35 87.8751 142.928 92.348 151.863 96.3577C153.854 97.2511 155.725 98.3755 157.693 99.3106C159.154 100.005 164.211 103.7 165.423 103.377L165.568 103.128C165.862 104.516 165.474 106.524 165.318 107.935C162.479 105.81 159.43 104.22 156.302 102.582C152.227 100.448 148.131 98.4741 143.817 96.8634C130.09 91.7375 112.664 88.6149 98.0026 89.2057C89.4503 89.5504 81.1822 91.1284 72.9366 93.3419C72.2146 93.5357 70.4745 94.2128 69.8488 93.8638C69.3554 92.3025 70.4629 89.5758 71.097 88.0988Z" fill="#9DCF66"/>
<path d="M123.306 57.6055C125.634 57.9958 127.92 58.4227 130.169 59.1641L129.817 59.4505C129.849 60.0235 130.115 60.2314 130.514 60.6133C132.981 62.98 136.078 64.7693 138.673 67.0085C145.051 72.5137 150.976 79.2194 155.943 86.0157C156.402 86.6438 157.537 87.844 157.641 88.6C157.651 88.6731 157.639 88.748 157.638 88.822C140.756 80.0497 122.777 75.6691 103.781 75.1005C103.348 75.0345 103.023 74.9909 102.643 74.7632L102.607 74.3376C106.962 68.3839 111.675 63.9675 118.127 60.2727C119.763 59.3356 121.555 58.6494 123.157 57.6962L123.306 57.6055Z" fill="#8CD464"/>
<path d="M71.097 88.0988C73.1392 84.2228 75.7401 80.7063 80.1078 79.3637C82.7279 78.5586 85.4833 78.1264 88.186 77.6877C104.956 74.9642 122.247 77.1904 138.41 82.0775C143.463 83.6056 148.567 85.3643 153.225 87.872C156.188 89.4669 163.843 93.4532 164.811 96.4725C165.462 98.5055 165.587 101.009 165.568 103.128L165.422 103.378C164.21 103.7 159.153 100.006 157.693 99.3113C155.725 98.3758 153.854 97.2518 151.863 96.3585C142.927 92.3487 129.35 87.8759 119.634 86.2454C114.491 85.3824 109.091 85.0293 103.876 85.0247C98.8742 85.0198 93.8278 85.6116 88.8365 85.9754C85.748 86.2013 82.7138 86.4813 79.6587 87.0045C78.2064 87.2531 72.6349 88.7509 71.8349 88.703C71.5074 88.6827 71.3114 88.3253 71.097 88.0988Z" fill="#CDDE72"/>
<path d="M150.003 185.895C150.287 185.253 150.795 184.927 151.437 184.639C151.935 182.871 152.573 181.166 153.242 179.453C152.87 178.98 152.368 178.461 152.299 177.847C152.255 177.463 152.329 177.215 152.571 176.914L152.912 176.882C153.668 177.144 153.865 177.563 154.218 178.213C154.353 177.86 154.474 177.417 154.666 177.093C154.874 176.741 154.977 176.747 155.36 176.619L155.417 176.64C155.919 176.393 156.109 175.837 156.354 175.372C156.334 175.351 156.314 175.33 156.294 175.309C155.974 174.984 155.592 174.649 155.419 174.224C155.266 173.849 155.311 173.591 155.462 173.228C155.681 173.11 155.729 173.054 155.992 173.052C156.695 173.047 157.162 173.605 157.636 174.033L159.45 172.372C159.304 171.928 159.088 171.443 159.278 170.981C159.394 170.701 159.545 170.544 159.861 170.492C160.274 170.425 160.645 170.7 160.97 170.902C161.814 170.245 167.052 166.138 167.471 166.006C167.815 166.064 167.901 166.06 168.157 166.28L168.149 166.56C167.755 167.313 167.09 167.734 166.375 168.169C168.439 167.597 170.658 166.906 172.777 166.597C173.876 166.438 175.246 166.954 176.274 166.537C176.488 166.284 176.583 166.121 176.911 166C177.522 166.089 178.082 166.404 178.682 166.464C179.498 166.545 180.337 166.513 181.16 166.594C186.192 167.087 190.857 168.349 195.032 171.197C199.76 174.421 204.678 181.379 206.682 186.571C207.629 189.027 208.139 191.602 208.588 194.176C209.152 194.558 209.727 195.013 210.001 195.636C209.879 196.109 209.488 196.194 209.184 196.558C208.785 197.036 208.944 197.705 208.986 198.279C209.012 199.163 208.949 200.053 208.856 200.931C208.18 207.339 205.652 212.251 200.44 216.328L201.409 217.345C201.146 217.772 200.879 218.263 200.324 218.37C199.525 218.524 198.669 217.875 198.025 217.497C197.774 217.708 196.401 218.692 196.401 218.963C196.404 219.227 196.632 219.474 196.551 219.751C196.465 220.042 196.23 220.265 195.947 220.39C195.476 220.6 194.585 220.14 194.133 219.968C193.276 220.422 192.414 220.759 191.497 221.089C191.716 221.281 191.918 221.468 192.049 221.728C192.197 222.024 192.158 222.326 192.054 222.625C191.919 222.765 191.798 222.882 191.611 222.959C190.388 223.459 189.63 222.812 188.548 222.414C188.211 222.29 188.035 222.25 187.699 222.373C187.483 222.686 187.301 222.937 186.991 223.176C186.42 223.281 185.989 223.07 185.471 222.871C185.19 222.953 185.07 222.986 184.852 223.188C184.595 223.426 184.773 223.299 184.494 223.494C184.043 223.81 183.029 223.533 182.504 223.452C182.98 223.954 183.484 224.257 184.039 224.661C184.391 224.917 184.532 225.144 184.599 225.556C184.436 225.784 184.36 225.927 184.052 225.985C182.879 226.206 180.856 223.996 179.898 223.388C178.731 222.646 176.696 222.712 175.334 222.304C172.276 221.386 169.121 219.83 166.49 218.094C159.14 213.242 153.26 206.185 151.374 197.698C150.75 194.892 150.714 192.044 150.171 189.241C150.122 188.848 150.114 188.542 150.391 188.222C151.437 187.019 149.924 187.168 150.003 185.895ZM195.604 187.119C197.352 188.945 199.294 190.602 201.098 192.379C202.647 193.905 204.068 195.567 205.685 197.027C206.003 197.315 206.614 197.944 207.047 197.978C207.068 197.98 207.089 197.975 207.11 197.973L207.117 195.783C205.126 194.593 196.759 187.374 195.604 187.119ZM191.162 189.575C194.544 192.533 197.969 195.314 201.059 198.574C202.26 199.842 204.988 203.267 206.445 203.936C206.65 203.809 206.595 203.894 206.641 203.699C206.843 202.863 206.974 202.046 207.021 201.187C204.978 199.925 202.993 198.582 201.068 197.159C199.658 196.122 192.027 189.564 191.162 189.575ZM196.7 179.859C198.368 182.243 200.148 184.548 202.038 186.774C203.432 188.394 204.926 189.937 206.225 191.631C205.981 190.708 205.702 189.826 205.349 188.936C203.931 185.813 201.771 183.782 199.362 181.345C198.701 180.675 198.02 179.781 197.261 179.229C197.422 179.46 198.131 180.309 198.13 180.522C197.753 180.228 197.317 179.704 196.858 179.607C196.705 179.821 196.738 179.729 196.7 179.859ZM188.118 192.947C189.379 193.941 190.652 194.927 191.83 196.012C193.493 197.543 203.919 207.882 204.77 208.235C205.026 208.062 204.917 208.17 205.091 207.906L205.705 206.487C203.907 205.391 202.243 204.201 200.6 202.9C198.817 201.49 189.418 193.095 188.118 192.947ZM181.15 193.374C182.508 194.5 183.882 195.617 185.206 196.779C187.521 198.811 201.574 211.662 202.51 211.908C202.768 211.791 202.915 211.663 203.112 211.468L203.428 211.012C203.261 210.451 201.625 209.5 201.07 209.097C199.109 207.67 197.202 206.179 195.35 204.624C193.247 202.874 183.152 194.064 181.46 193.399C181.361 193.361 181.253 193.354 181.15 193.374ZM175.716 194.302C177.193 196.152 180.243 198.635 182.102 200.343C187.05 204.889 193.664 211.518 199.255 215.032C199.481 214.973 199.661 214.907 199.866 214.798C199.646 214.195 195.357 211.357 194.501 210.723C192.661 209.362 190.932 207.758 189.226 206.245C186.326 203.656 183.443 201.051 180.574 198.43C179.6 197.544 176.91 194.803 175.96 194.342C175.833 194.28 175.853 194.295 175.716 194.302ZM174.452 200.005C174.92 200.631 175.5 201.167 176.059 201.72C175.914 201.894 175.639 202.114 175.667 202.342C175.778 203.241 176.975 203.739 177.454 204.465C177.833 204.798 178.216 205.127 178.602 205.453C179.405 206.445 180.099 207.133 181.202 207.812C181.347 207.936 181.489 208.04 181.656 208.135C183.506 209.186 184.956 210.906 186.599 212.247C189.136 214.283 191.801 216.154 194.59 217.861C195.094 217.453 195.638 217.135 196.199 216.806C189.935 213.721 184.668 208.755 179.498 204.248C178.165 203.087 175.907 200.734 174.452 200.005ZM180.288 211.163C183.258 214.323 186.402 217.257 189.887 219.901L191.567 219.394C191.48 219.06 190.863 218.818 190.553 218.638C188.179 217.264 185.986 215.784 183.872 214.063C182.72 213.125 181.586 211.876 180.314 211.116L180.288 211.163ZM176.678 168.68C178.178 169.828 190.418 178.37 191.089 178.366L191.073 178.256C189.505 176.853 180.22 170.04 179.832 169.151L179.904 168.746C179.358 168.348 177.826 168.398 177.158 168.478C176.917 168.507 176.857 168.517 176.678 168.68ZM185.464 169.362C185.808 169.766 186.126 170.238 186.716 170.274C186.957 170.289 187.037 170.201 187.235 170.091C186.746 169.645 186.236 169.397 185.571 169.287L185.464 169.362ZM170.983 169.206C172.766 170.63 186.407 180.91 186.923 181.022L186.814 180.818C184.281 177.899 179.337 174.371 176.225 171.767C175.073 170.804 174.137 169.591 172.968 168.663C172.413 168.759 171.483 168.798 171.025 169.099L170.983 169.206ZM165.291 170.697C166.502 171.322 167.648 172 168.767 172.766C170.428 173.905 184.95 184.648 185.482 184.581L185.077 184.211C180.548 180.452 175.748 176.987 171.388 173.047C170.217 171.989 168.895 170.911 167.948 169.66C167.218 169.917 165.845 170.216 165.291 170.697ZM174.188 215.388C176.51 217.476 178.773 219.696 181.218 221.646C182.148 221.452 183.041 221.368 183.989 221.308C183.716 220.95 175.483 216.012 174.331 215.349L174.188 215.388ZM162.258 172.277C164.448 173.729 166.458 175.534 168.502 177.174C171.259 179.386 174.126 181.379 177.033 183.4C178.208 184.217 179.293 185.146 180.525 185.885L180.585 185.832C180.429 185.653 180.277 185.471 180.107 185.304C176.752 182.483 173.24 179.844 169.939 176.961C167.813 175.103 165.857 172.785 163.506 171.207C163.04 171.54 162.621 171.834 162.258 172.277ZM159.313 174.838C161.134 176.152 171.016 185.18 172.259 185.308C172.113 185.136 171.973 184.963 171.812 184.805C168.796 182.181 165.873 179.517 163.12 176.635C162.202 175.673 161.179 174.693 160.442 173.594C160.034 173.987 159.609 174.356 159.313 174.838ZM156.677 178.015C157.561 178.934 158.472 179.826 159.412 180.692C160.639 181.808 170.79 190.702 171.473 190.92C171.402 190.663 171.321 190.559 171.128 190.371C168.307 187.793 159.062 179.615 157.603 176.859L156.677 178.015ZM166.812 202.437C166.987 202.696 167.128 202.82 167.4 202.989C167.437 203.012 167.661 203.144 167.697 203.18C167.983 203.471 167.65 203.561 167.705 203.906C168.068 203.92 168.321 203.844 168.657 203.731L168.787 203.687L168.778 203.822L168.777 203.822L168.548 204.105C168.627 204.489 169.022 204.836 169.35 205.05C169.717 205.289 170.094 205.448 170.539 205.366C170.579 205.108 170.479 205.043 170.322 204.833C170.184 204.648 170.032 204.47 169.876 204.296L169.402 203.78C169.042 203.174 168.498 202.432 167.894 202.038C167.586 201.837 167.426 201.82 167.07 201.88C166.883 202.11 166.848 202.15 166.812 202.437ZM156.082 205.82C159.736 211.033 164.02 215.385 169.781 218.492C169.984 218.464 169.925 218.509 170.002 218.433C166.822 215.854 163.682 213.266 160.743 210.429C159.169 208.909 157.756 207.239 156.184 205.722L156.082 205.82ZM153.025 187.43C155.561 190.444 158.162 193.372 160.813 196.293C162.675 198.343 164.5 200.409 166.559 202.282C166.863 201.969 167.291 201.632 167.34 201.192C167.211 200.703 166.712 200.287 166.366 199.917C163.454 196.496 160.645 192.999 157.939 189.426C156.505 187.564 154.995 185.755 153.755 183.764C153.256 184.902 153.057 186.201 153.025 187.43ZM152.661 190.141C152.406 190.504 152.437 191.089 152.464 191.522C152.501 192.358 152.552 193.195 152.568 194.031C152.985 193.842 153.159 193.705 153.624 193.757C154.41 194.322 155.045 195.081 155.728 195.757C156.998 196.991 158.25 198.243 159.484 199.511C159.895 199.934 160.291 200.481 160.732 200.856C160.917 201.013 161.13 201.055 161.363 201.098C161.386 201.481 161.344 201.527 161.617 201.797C161.892 201.873 162.16 201.939 162.438 202C162.671 202.051 162.744 202.106 162.906 202.263L162.858 202.447L162.429 202.674C162.442 202.944 162.593 203.132 162.82 203.304C163.152 203.553 163.608 203.543 164.01 203.567L164.271 203.759C164.122 204.011 164.22 203.899 163.966 204.088C164.442 204.826 165.691 205.875 166.438 206.384C166.736 206.26 166.739 206.207 166.904 205.933L166.884 205.727L166.305 205.899L166.212 205.803C166.299 205.651 166.381 205.527 166.486 205.389L166.482 205.343L166.106 205.153C166.103 204.923 166.08 205.032 166.171 204.823C165.772 204.654 165.343 204.874 164.974 204.736C165.264 204.624 165.546 204.508 165.828 204.377L165.826 204.218L165.581 204.058C165.357 204.116 164.828 204.34 164.624 204.282C164.812 204.072 164.983 203.976 165.237 203.847L165.101 203.815L165.321 203.784C164.821 202.924 163.023 201.342 162.25 200.515C160.496 198.646 158.752 196.767 157.02 194.88C155.94 193.683 153.923 190.917 152.661 190.141ZM154.519 181.941C157.234 184.121 159.632 186.843 162.093 189.291C162.913 190.107 163.725 191.029 164.642 191.739L164.381 191.264C162.569 189.313 160.722 187.398 158.953 185.409C157.703 184.003 156.526 182.413 155.125 181.151L154.896 181.146C154.643 181.411 154.604 181.603 154.519 181.941ZM152.903 195.82C152.745 196.059 152.802 196.086 152.837 196.355C152.915 196.794 152.979 197.239 153.073 197.675C155.06 199.272 156.694 201.078 158.417 202.924C159.484 204.067 160.595 205.339 161.879 206.261L162.01 206.243L161.716 205.845C159.553 204.076 156.877 200.825 155.104 198.629C154.475 197.851 153.705 196.374 152.903 195.82Z" fill="white"/>
<path d="M183.948 199.799H178.882V189.157L175.278 190.449C174.938 190.245 174.609 189.961 174.292 189.599C173.997 189.236 173.85 188.737 173.85 188.103C173.85 186.901 174.575 186.063 176.026 185.587L180.072 184.091H181.194C182.032 184.091 182.701 184.34 183.2 184.839C183.698 185.337 183.948 186.006 183.948 186.845V199.799ZM178.882 196.025H183.948V204.967C183.721 205.035 183.404 205.103 182.996 205.171C182.588 205.239 182.146 205.273 181.67 205.273C180.718 205.273 180.015 205.103 179.562 204.763C179.108 204.423 178.882 203.799 178.882 202.893V196.025Z" fill="#203B53"/>
</svg>
