<svg width="324" height="277" viewBox="0 0 324 277" fill="none" xmlns="http://www.w3.org/2000/svg">
<g clip-path="url(#clip0_2351_4732)">
<path d="M162 87.0093C164.036 87.9091 165.066 89.5197 165.978 91.5503C171.577 93.1293 176.978 95.1475 182.403 97.2671C183.902 96.0882 185.541 94.5004 187.484 94.2798C188.704 94.141 189.487 94.3774 190.442 95.144L190.544 96.2212C189.712 98.6147 188.387 99.2416 186.328 100.358C187.445 100.785 188.847 101.167 189.875 101.775C190.988 102.433 190.971 102.759 191.376 103.974L191.307 104.153C192.091 105.742 193.853 106.346 195.325 107.119C195.391 107.057 195.457 106.995 195.521 106.932C196.553 105.92 197.615 104.707 198.959 104.16C200.149 103.676 200.964 103.819 202.111 104.297C202.487 104.991 202.666 105.141 202.672 105.975C202.687 108.201 200.918 109.679 199.563 111.18L204.824 116.925C206.231 116.462 207.769 115.778 209.23 116.382C210.118 116.75 210.613 117.228 210.777 118.229C210.991 119.535 210.121 120.708 209.479 121.738C211.56 124.412 224.569 141.006 224.985 142.326C224.799 143.417 224.814 143.689 224.116 144.5L223.227 144.473C220.843 143.224 219.512 141.117 218.134 138.854C219.945 145.39 222.135 152.418 223.11 159.129C223.617 162.61 221.98 166.947 223.302 170.205C224.104 170.88 224.618 171.183 225.002 172.221C224.72 174.157 223.724 175.928 223.535 177.826C223.278 180.412 223.378 183.067 223.123 185.675C221.561 201.611 217.563 216.383 208.545 229.604C198.335 244.575 176.304 260.149 159.861 266.495C152.086 269.496 143.931 271.11 135.78 272.532C134.568 274.318 133.127 276.136 131.155 277.004C129.655 276.617 129.387 275.382 128.233 274.418C126.721 273.155 124.603 273.659 122.786 273.792C119.987 273.875 117.169 273.676 114.386 273.381C94.0947 271.238 78.5428 263.234 65.6318 246.73L62.4121 249.798C61.0592 248.963 59.5027 248.12 59.1641 246.362C58.6754 243.831 60.7305 241.123 61.9287 239.083C61.2604 238.289 58.1419 233.935 57.2861 233.941C56.4481 233.948 55.6702 234.67 54.793 234.413C53.871 234.141 53.161 233.397 52.7646 232.501C52.1026 231.008 53.5582 228.187 54.1045 226.756C52.6647 224.042 51.6007 221.313 50.5557 218.41C49.947 219.103 49.355 219.741 48.5293 220.155C47.592 220.626 46.6368 220.503 45.6894 220.171C45.2462 219.745 44.8754 219.362 44.6338 218.772C43.0501 214.898 45.0986 212.497 46.3584 209.069C46.75 208.003 46.8767 207.444 46.4883 206.381C45.4971 205.698 44.703 205.122 43.9473 204.139C43.6142 202.329 44.2809 200.966 44.9111 199.326C44.651 198.437 44.5463 198.057 43.9053 197.366C43.1526 196.554 43.5562 197.115 42.9375 196.233C41.9356 194.803 42.8142 191.595 43.0713 189.932C41.4823 191.44 40.5238 193.034 39.2441 194.791C38.4331 195.905 37.7146 196.351 36.4072 196.564C35.6877 196.048 35.2335 195.809 35.0488 194.831C34.3507 191.117 41.3502 184.71 43.2764 181.679C45.6256 177.981 45.4146 171.54 46.709 167.226C49.6149 157.541 54.54 147.551 60.04 139.218C75.4028 115.944 97.7487 97.3261 124.624 91.353C133.512 89.3777 142.529 89.2609 151.406 87.5415C152.652 87.3875 153.621 87.3608 154.632 88.2387C158.443 91.5509 157.969 86.7598 162 87.0093ZM158.126 231.414C152.344 236.952 147.097 243.1 141.471 248.811C136.637 253.718 131.375 258.217 126.751 263.336C125.84 264.345 123.845 266.278 123.737 267.649C123.732 267.715 123.748 267.783 123.754 267.85L130.69 267.874C134.459 261.568 157.318 235.071 158.126 231.414ZM150.349 217.348C140.983 228.058 132.176 238.904 121.852 248.688C117.838 252.492 106.994 261.131 104.873 265.745C105.277 266.391 105.005 266.22 105.621 266.365C108.269 267.005 110.859 267.419 113.578 267.567C117.574 261.098 121.827 254.814 126.333 248.719C129.617 244.255 150.384 220.088 150.349 217.348ZM181.115 234.885C173.565 240.166 166.266 245.802 159.218 251.789C154.089 256.204 149.203 260.934 143.841 265.046C146.764 264.275 149.553 263.394 152.372 262.274C162.261 257.784 168.692 250.942 176.411 243.316C178.53 241.221 181.362 239.066 183.109 236.66C182.378 237.17 179.693 239.417 179.017 239.413C179.949 238.218 181.608 236.838 181.913 235.386C181.237 234.9 181.528 235.005 181.115 234.885ZM139.67 207.708C136.523 211.701 133.402 215.733 129.968 219.464C125.119 224.731 92.378 257.741 91.2578 260.437C91.8059 261.25 91.465 260.904 92.3008 261.456L96.7949 263.401C100.267 257.707 104.033 252.438 108.151 247.234C112.617 241.591 139.202 211.824 139.67 207.708ZM138.319 185.644C134.752 189.943 131.217 194.293 127.536 198.487C121.101 205.818 80.3981 250.328 79.6269 253.284C79.9977 254.1 80.403 254.565 81.0234 255.191L82.4678 256.19C84.2432 255.662 87.2533 250.481 88.5283 248.726C93.0489 242.516 97.7708 236.477 102.695 230.61C108.237 223.953 136.134 191.983 138.238 186.625C138.361 186.312 138.381 185.97 138.319 185.644ZM135.381 168.434C129.521 173.113 121.659 182.77 116.252 188.656C101.855 204.327 80.864 225.273 69.7353 242.976C69.9238 243.692 70.1307 244.262 70.4775 244.911C72.3866 244.213 81.3731 230.633 83.3799 227.922C87.6917 222.097 92.7692 216.621 97.5605 211.216C105.759 202.035 114.008 192.902 122.306 183.818C125.112 180.732 133.792 172.216 135.254 169.207C135.449 168.805 135.401 168.868 135.381 168.434ZM117.32 164.432C115.335 165.915 113.64 167.753 111.891 169.521C111.339 169.062 110.641 168.192 109.92 168.281C107.073 168.632 105.498 172.421 103.199 173.939C102.144 175.139 101.099 176.351 100.067 177.574C96.9273 180.117 94.7493 182.314 92.5986 185.807C92.2065 186.266 91.8788 186.716 91.5781 187.246C88.2493 193.104 82.8016 197.695 78.5547 202.898C72.1081 210.934 66.1807 219.37 60.7754 228.202C62.068 229.797 63.0759 231.521 64.1162 233.297C73.888 213.461 89.6145 196.783 103.886 180.412C107.563 176.191 115.01 169.04 117.32 164.432ZM81.9873 182.912C71.9785 192.316 62.6899 202.272 54.3164 213.308L55.9219 218.632C56.9806 218.356 57.745 216.399 58.3144 215.416C62.6683 207.899 67.3514 200.955 72.8018 194.262C75.7738 190.613 79.7291 187.024 82.1348 182.998L81.9873 182.912ZM216.514 171.48C212.878 176.233 185.829 214.998 185.846 217.117L186.192 217.066C190.634 212.1 212.208 182.696 215.023 181.467L216.308 181.7C217.57 179.971 217.41 175.119 217.154 173.002C217.063 172.239 217.032 172.049 216.514 171.48ZM214.356 199.304C213.078 200.395 211.582 201.399 211.467 203.269C211.421 204.033 211.7 204.286 212.049 204.915C213.46 203.365 214.245 201.751 214.595 199.645L214.356 199.304ZM214.85 153.449C210.341 159.094 177.787 202.289 177.432 203.923L178.079 203.58C187.324 195.558 198.494 179.9 206.74 170.045C209.792 166.398 213.629 163.434 216.569 159.731C216.266 157.974 216.141 155.03 215.187 153.582L214.85 153.449ZM210.13 135.422C208.151 139.258 206.002 142.885 203.576 146.428C199.972 151.69 165.954 197.671 166.164 199.362L167.337 198.078C179.238 183.735 190.212 168.539 202.689 154.73C206.038 151.024 209.451 146.836 213.412 143.836C212.598 141.523 211.652 137.177 210.13 135.422ZM68.6084 163.597C61.9956 170.948 54.9648 178.115 48.7891 185.859C49.4031 188.805 49.6736 191.632 49.8613 194.634C50.9956 193.769 66.6309 167.698 68.7285 164.05L68.6084 163.597ZM205.125 125.816C200.526 132.753 194.814 139.117 189.621 145.59C182.617 154.322 176.304 163.4 169.903 172.607C167.316 176.328 164.374 179.763 162.035 183.665L162.202 183.852C162.77 183.358 163.345 182.876 163.876 182.339C172.808 171.713 181.163 160.592 190.294 150.141C196.176 143.409 203.516 137.216 208.515 129.771C207.459 128.294 206.529 126.967 205.125 125.816ZM197.019 116.492C192.86 122.253 164.268 153.55 163.859 157.486C164.404 157.025 164.951 156.584 165.451 156.072C173.763 146.522 182.198 137.267 191.327 128.547C194.372 125.639 197.475 122.4 200.957 120.069C199.712 118.776 198.545 117.426 197.019 116.492ZM186.954 108.143C184.045 110.942 181.219 113.829 178.478 116.805C174.942 120.691 146.767 152.853 146.09 154.999C146.902 154.777 147.232 154.517 147.829 153.906C155.994 144.974 181.886 115.696 190.614 111.076L186.954 108.143ZM109.619 140.239C108.801 140.795 108.407 141.239 107.87 142.102C107.798 142.218 107.382 142.929 107.266 143.042C106.345 143.949 106.06 142.891 104.968 143.066C104.925 144.216 105.163 145.015 105.52 146.081L105.66 146.493L105.232 146.466L105.232 146.462L104.337 145.737C103.121 145.988 102.021 147.237 101.346 148.275C100.588 149.438 100.086 150.632 100.346 152.042C101.163 152.17 101.368 151.85 102.032 151.354C102.618 150.916 103.18 150.435 103.731 149.941L105.366 148.442C107.287 147.3 109.635 145.578 110.884 143.663C111.519 142.689 111.571 142.182 111.384 141.056C110.654 140.463 110.528 140.355 109.619 140.239ZM98.9072 106.259C82.4004 117.831 68.6178 131.397 58.7783 149.641C58.8667 150.283 58.7262 150.095 58.9648 150.339C67.1316 140.27 75.3253 130.324 84.3115 121.019C89.124 116.035 94.4121 111.561 99.2139 106.582L98.9072 106.259ZM157.142 96.5805C147.595 104.611 138.324 112.847 129.075 121.244C122.583 127.137 116.042 132.916 110.109 139.435C111.1 140.4 112.168 141.758 113.562 141.912C115.111 141.505 116.427 139.925 117.599 138.829C128.432 129.607 139.508 120.711 150.823 112.142C156.717 107.599 162.446 102.819 168.749 98.8901C165.148 97.3112 161.033 96.68 157.142 96.5805ZM148.555 95.4262C147.407 94.6181 145.557 94.7182 144.184 94.8032C141.537 94.9219 138.885 95.0811 136.237 95.1333C136.836 96.453 137.272 97.0034 137.106 98.4751C135.315 100.965 132.916 102.976 130.775 105.138C126.865 109.16 122.9 113.124 118.887 117.034C117.547 118.334 115.814 119.586 114.624 120.985C114.128 121.568 113.997 122.246 113.858 122.985C112.647 123.057 112.501 122.922 111.646 123.789C111.403 124.658 111.199 125.506 111.005 126.388C110.843 127.124 110.668 127.354 110.168 127.87L109.586 127.72L108.87 126.357C108.014 126.398 107.419 126.877 106.877 127.597C106.086 128.648 106.118 130.091 106.04 131.365L105.435 132.189C104.636 131.718 104.99 132.029 104.393 131.225C102.055 132.732 98.7333 136.69 97.1221 139.057C97.5121 139.999 97.6823 140.007 98.5478 140.532L99.2012 140.467L98.6553 138.631L98.9629 138.338C99.4421 138.614 99.8336 138.873 100.271 139.207L100.417 139.197L101.019 138.004C101.748 137.994 101.4 137.921 102.064 138.208C102.599 136.946 101.901 135.588 102.339 134.417C102.693 135.337 103.062 136.229 103.477 137.122L103.98 137.119L104.483 136.341C104.302 135.63 103.595 133.956 103.777 133.31C104.444 133.904 104.749 134.447 105.154 135.251L105.255 134.819L105.354 135.517C108.077 133.932 113.088 128.24 115.706 125.791C121.625 120.237 127.574 114.715 133.551 109.229C137.34 105.81 146.1 99.4223 148.555 95.4262ZM174.522 101.309C167.619 109.909 159 117.501 151.248 125.294C148.664 127.893 145.746 130.462 143.497 133.365L144.998 132.54C151.179 126.802 157.244 120.952 163.542 115.351C167.993 111.393 173.028 107.667 177.022 103.23L177.039 102.501C176.202 101.701 175.595 101.581 174.522 101.309ZM130.572 96.1928C129.814 95.6917 129.732 95.8734 128.879 95.9848C127.49 96.2309 126.08 96.4319 124.701 96.7309C119.642 103.023 113.924 108.197 108.079 113.655C104.459 117.035 100.429 120.551 97.5117 124.617L97.5664 125.032L98.8281 124.102C104.427 117.252 114.724 108.779 121.678 103.163C124.142 101.172 128.818 98.7324 130.572 96.1928Z" fill="#FFFFFF"/>
<path d="M131.668 71.1606C135.993 71.5949 139.873 72.6291 143.308 74.2623C146.869 75.9083 148.955 78.1791 149.564 81.0749C151.531 88.3592 153.586 96.6833 155.731 106.047C157.875 115.41 160.046 125.163 162.241 135.305C164.435 145.446 166.528 155.32 168.52 164.926C170.511 174.532 172.274 183.213 173.809 190.969C172.395 192.245 170.498 193.214 168.118 193.877C165.866 194.553 163.277 194.744 160.35 194.45C156.152 194.028 153.175 192.957 151.42 191.235C149.805 189.398 148.655 186.769 147.97 183.35L143.796 163.025L100.619 158.69C100.167 159.762 99.6992 160.874 99.2185 162.028C98.1606 164.885 96.9693 167.794 95.6442 170.753C94.459 173.597 93.2871 176.315 92.1275 178.904C91.0952 181.506 90.1579 183.795 89.3169 185.772C88.0062 186.027 86.5735 186.207 85.0211 186.308C83.5833 186.55 81.8469 186.569 79.8117 186.364C75.7405 185.956 72.5723 184.865 70.3086 183.092C68.1849 181.203 67.2829 178.664 67.6031 175.475C67.744 174.072 68.0827 172.624 68.618 171.132C69.2806 169.652 69.9625 167.981 70.6635 166.118C72.3584 162.037 74.6001 156.979 77.3905 150.945C80.1938 144.784 83.2399 138.132 86.5274 130.989C89.8149 123.846 93.1723 116.645 96.5998 109.387C100.155 102.142 103.467 95.3874 106.538 89.1243C109.621 82.7341 112.278 77.3962 114.507 73.1104C116.123 72.3707 118.561 71.7771 121.819 71.331C125.077 70.8851 128.36 70.8285 131.668 71.1606ZM210.118 78.8432C214.571 79.2903 217.732 80.4446 219.601 82.3072C221.483 84.0424 222.207 87.0794 221.771 91.4165L211.129 197.421C210.072 197.702 208.513 197.869 206.452 197.919C204.378 198.098 202.196 198.071 199.906 197.841C195.325 197.381 192.1 196.22 190.231 194.358C188.374 192.367 187.651 189.332 188.061 185.25L198.704 79.2434C199.747 79.0905 201.369 78.9319 203.571 78.7663C205.772 78.6008 207.955 78.6261 210.118 78.8432ZM129.364 92.1898C127.248 96.616 124.878 101.661 122.253 107.324C119.755 113 117.105 118.919 114.302 125.08C111.904 130.264 109.617 135.319 107.435 140.24L141.124 143.622C139.835 137.39 138.536 131.267 137.225 125.256C135.957 118.686 134.706 112.569 133.476 106.905C132.245 101.241 131.193 96.3677 130.317 92.2855L129.364 92.1898Z" fill="#FBDB20"/>
<path d="M118.704 81.2236C110.907 94.5111 103.848 115.913 103.848 115.913L106.621 122.184L98.4292 143.007L105.862 159.216L100.618 158.69C100.618 158.69 99.6987 160.875 99.2179 162.028C98.16 164.885 96.9688 167.794 95.6437 170.753C94.4585 173.597 93.2865 176.315 92.127 178.904C91.0947 181.506 90.1574 183.795 89.3164 185.772C88.0056 186.027 86.573 186.207 85.0205 186.308C83.5828 186.55 81.8464 186.569 79.8112 186.364C75.74 185.956 72.5718 184.865 70.3081 183.092C68.1844 181.204 67.2824 178.664 67.6026 175.475C67.7435 174.072 68.0822 172.624 68.6175 171.132C69.2801 169.652 69.962 167.981 70.663 166.118C72.3579 162.037 74.5996 156.979 77.39 150.945C80.1933 144.784 83.2394 138.132 86.5269 130.989C89.8144 123.846 93.1718 116.645 96.5993 109.387C100.154 102.142 103.467 95.3874 106.537 89.1244C109.62 82.7341 112.277 77.3962 114.506 73.1104C116.123 72.3708 118.561 71.7771 121.818 71.3311C125.076 70.8851 121.569 73.8196 118.704 81.2236Z" fill="#F3A835"/>
<path d="M196.336 150.826C200.789 151.274 203.951 152.428 205.82 154.291C207.702 156.026 208.425 159.063 207.99 163.4L206.452 197.919C204.378 198.098 202.196 198.071 199.906 197.841C195.325 197.381 192.1 196.22 190.231 194.358C188.375 192.367 187.651 189.332 188.061 185.25L198.704 79.2434C199.747 79.0905 201.37 78.9319 203.571 78.7663C205.772 78.6008 194.173 150.609 196.336 150.826Z" fill="#F3A835"/>
<path d="M132.651 69.7595C136.788 70.253 140.555 71.2951 143.935 72.9005C147.757 74.6666 150.272 77.2397 151.021 80.7178C152.992 88.0169 155.049 96.3493 157.193 105.712L158.807 112.812C160.426 119.985 162.059 127.377 163.706 134.988L165.334 142.547C166.943 150.056 168.494 157.414 169.988 164.622L171.439 171.656C172.848 178.516 174.128 184.857 175.28 190.678L175.446 191.513L174.813 192.083C173.19 193.548 171.075 194.606 168.548 195.313L168.549 195.314C166.223 196.012 163.622 196.225 160.773 195.994L160.2 195.943C155.883 195.509 152.49 194.386 150.37 192.306L150.33 192.267L150.294 192.225C148.448 190.125 147.216 187.222 146.5 183.651L142.549 164.407L101.573 160.293C101.26 161.037 100.938 161.798 100.613 162.579C99.5457 165.459 98.3463 168.389 97.0131 171.366C95.8306 174.203 94.6605 176.916 93.502 179.503C92.4736 182.095 91.5394 184.381 90.6976 186.36L90.3855 187.093L89.6036 187.245C88.2402 187.51 86.7645 187.693 85.1824 187.8C83.7936 188.024 82.2089 188.059 80.445 187.926L79.6618 187.857C75.4221 187.431 71.9466 186.281 69.3834 184.273L69.3471 184.244L69.3119 184.213C66.858 182.031 65.8152 179.111 66.0807 175.661L66.1105 175.325C66.265 173.786 66.6341 172.218 67.2056 170.625L67.2257 170.571L67.2487 170.518L67.7391 169.398C68.2333 168.239 68.7403 166.97 69.2598 165.59L69.2681 165.566L69.2783 165.543C70.9835 161.436 73.2335 156.359 76.0285 150.316C78.8318 144.155 81.8784 137.504 85.1651 130.362L87.6448 124.99C90.1381 119.608 92.6708 114.194 95.2429 108.747L95.2528 108.726C98.8074 101.481 102.12 94.7273 105.191 88.4645C108.276 82.0698 110.939 76.7201 113.176 72.4183L113.414 71.9612L113.883 71.7462C115.701 70.9141 118.313 70.2972 121.615 69.8451L122.249 69.7634C125.417 69.3774 128.608 69.3458 131.818 69.668L132.651 69.7595ZM220.279 91.2671C220.699 87.0754 219.935 84.6558 218.584 83.4101L218.564 83.3903L218.542 83.3695C217.131 81.9639 214.633 80.9094 210.76 80.4251L209.967 80.3357C208.153 80.1535 206.322 80.1123 204.476 80.2113L203.684 80.2623C202.203 80.3736 201.004 80.482 200.077 80.5843L189.554 185.4L189.493 186.11C189.259 189.563 189.972 191.862 191.306 193.31C192.81 194.797 195.604 195.902 200.055 196.349L200.877 196.422C202.783 196.573 204.598 196.573 206.323 196.424L206.37 196.421L206.415 196.42C207.803 196.386 208.906 196.296 209.747 196.168L220.279 91.2671ZM131.555 90.9023L131.784 91.9715C132.659 96.0519 133.711 100.924 134.941 106.587L135.87 110.929C136.8 115.345 137.739 120.015 138.69 124.937L139.672 129.47C140.652 134.024 141.625 138.641 142.593 143.319L143.007 145.318L105.224 141.525L106.063 139.632C108.248 134.704 110.539 129.642 112.941 124.45C115.74 118.297 118.387 112.387 120.88 106.72L120.886 106.707L120.892 106.693C123.518 101.026 125.892 95.9761 128.01 91.5436L128.465 90.592L131.555 90.9023ZM129.467 95.4636C127.686 99.2164 125.737 103.37 123.625 107.928L123.626 107.929C121.126 113.611 118.473 119.535 115.667 125.701L115.663 125.71C113.575 130.224 111.573 134.64 109.65 138.954L139.239 141.925C138.087 136.387 136.928 130.937 135.759 125.576L135.756 125.558L135.751 125.541C134.802 120.621 133.863 115.956 132.935 111.547L132.01 107.224C131.055 102.828 130.208 98.9074 129.467 95.4636ZM69.0558 176.137C68.918 178.641 69.6877 180.515 71.2724 181.94C73.2355 183.462 76.0841 184.482 79.9615 184.872L80.6765 184.935C82.3065 185.058 83.6654 185.016 84.772 184.83L84.8469 184.817L84.923 184.811C86.114 184.733 87.2229 184.607 88.2504 184.438C89.0029 182.65 89.8322 180.622 90.7332 178.351L90.745 178.32L90.7587 178.291C91.9124 175.715 93.0792 173.009 94.2598 170.176L94.2752 170.14C95.5875 167.21 96.7658 164.332 97.8114 161.508L97.8221 161.479L97.8338 161.451C98.3157 160.294 98.785 159.18 99.2363 158.108L99.6666 157.087L145.044 161.643L149.439 183.048L149.441 183.055L149.568 183.657C150.222 186.579 151.23 188.724 152.506 190.197C153.904 191.544 156.454 192.551 160.5 192.958L161.016 193.004C163.575 193.211 165.79 193.01 167.687 192.44L167.701 192.436L167.715 192.433C169.564 191.917 171.031 191.221 172.162 190.379C171.057 184.809 169.838 178.768 168.501 172.259L167.05 165.231C165.558 158.03 164.008 150.678 162.4 143.175L160.775 135.622C159.13 128.02 157.498 120.637 155.881 113.473L154.269 106.381C152.128 97.032 150.077 88.7276 148.115 81.4664L148.105 81.4251L148.096 81.384C147.615 79.0951 145.963 77.1414 142.679 75.6236L142.671 75.6209L142.664 75.6172C139.609 74.1646 136.158 73.1996 132.296 72.7389L131.518 72.653C128.526 72.3526 125.557 72.3823 122.611 72.7413L122.023 72.8176C119.137 73.2127 117.017 73.7125 115.591 74.2791C113.985 77.3782 112.161 81.0142 110.118 85.1883L107.889 89.7757L107.885 89.7851C104.814 96.0482 101.502 102.803 97.9468 110.048L97.9459 110.047C95.38 115.481 92.8546 120.883 90.3673 126.252L87.8904 131.616C84.6037 138.758 81.5583 145.408 78.7561 151.566L78.7522 151.576C75.9666 157.598 73.7329 162.637 72.0483 166.693C71.3559 168.531 70.6782 170.192 70.0162 171.675C69.5247 173.053 69.2216 174.369 69.0955 175.625L69.0558 176.137ZM212.517 198.605L211.514 198.871C210.291 199.196 208.601 199.365 206.52 199.417C204.635 199.576 202.674 199.574 200.641 199.413L199.756 199.334C195.062 198.862 191.411 197.651 189.172 195.42L189.152 195.401L189.134 195.381C187.002 193.095 186.234 189.832 186.501 185.897L186.569 185.1L197.328 77.9292L198.486 77.7589L199.416 77.6383C200.452 77.5172 201.803 77.3951 203.458 77.2707L204.315 77.2154C206.313 77.1083 208.297 77.1529 210.267 77.3507L211.114 77.4456C215.288 77.9653 218.567 79.1578 220.661 81.2444C223.039 83.4726 223.711 87.1102 223.264 91.5668L212.517 198.605Z" fill="#203B53"/>
<path d="M324.116 160.449C322.612 160.185 318.742 161.786 317.014 162.191C312.01 163.366 307.106 163.758 301.976 163.79C300.965 163.797 299.853 163.699 298.914 164.13C298.307 164.916 298.467 166.04 298.469 166.983C292.557 170.961 285.075 175.065 278.612 178.063C274.963 179.755 271.162 181.137 267.566 182.946C261.939 185.778 257.258 189.683 252.835 194.115C251.098 195.855 248.899 198.004 248.109 200.381C246.01 201.14 243.8 201.653 241.646 202.234C238.812 203.005 235.983 203.791 233.158 204.594C233.891 203.481 236.896 199.689 236.723 198.596C236.661 198.206 236.575 198.148 236.285 197.922C235.95 197.924 235.76 197.994 235.489 198.196C234.433 198.988 232.239 202.13 231.625 203.329C231.417 203.736 231.348 204.182 231.291 204.63C231.3 205.29 231.376 205.926 231.741 206.494C232.848 208.22 236.886 210.371 238.899 210.747C239.2 210.628 239.335 210.465 239.491 210.191C239.621 209.962 239.671 209.689 239.568 209.441C239.243 208.658 235.066 206.868 234.057 206.372C236.281 205.573 238.651 205.016 240.936 204.413C243.629 203.698 246.315 202.958 248.994 202.193C249.505 202.411 250.02 202.619 250.539 202.818C251.058 203.017 251.581 203.206 252.107 203.384C252.633 203.563 253.163 203.732 253.695 203.891C254.228 204.05 254.763 204.198 255.302 204.337C255.84 204.475 256.381 204.604 256.924 204.722C257.467 204.84 258.012 204.947 258.559 205.045C259.106 205.142 259.655 205.229 260.205 205.306C260.756 205.382 261.307 205.449 261.861 205.504C262.413 205.56 262.967 205.605 263.522 205.64C264.077 205.674 264.632 205.699 265.187 205.712C265.743 205.726 266.299 205.729 266.854 205.722C267.41 205.714 267.966 205.697 268.521 205.668C269.076 205.64 269.63 205.601 270.183 205.551C270.737 205.502 271.289 205.442 271.841 205.372C272.392 205.301 272.942 205.221 273.49 205.129C274.038 205.038 274.585 204.937 275.129 204.825C289.649 201.891 303.723 190.883 312.553 179.241C314.723 176.379 316.531 173.266 318.448 170.235C320.085 167.647 321.831 165.132 323.508 162.571C324.013 161.801 324.309 161.383 324.116 160.449Z" fill="#203B53"/>
<path d="M264.193 198.203C264.03 198.183 253.399 201.075 251.794 201.342C254.799 202.435 257.773 203.02 260.939 203.391C264.983 203.945 270.15 204.201 274.047 202.974C270.829 201.604 267.1 200.127 264.193 198.203Z" fill="#74E2D2"/>
<path d="M298.57 169.163C296.919 170.067 295.305 171.263 293.778 172.369C292.73 176.344 292.082 180.433 291.34 184.473L293.138 183.146C296.11 181.1 298.747 178.628 301.415 176.212C299.642 174.118 298.981 171.825 298.57 169.163Z" fill="#74E2D2"/>
<path d="M302.803 177.645C302.261 177.667 300.42 179.682 299.863 180.191C297.758 182.142 295.511 183.914 293.124 185.508C295.004 186.05 296.984 186.385 298.898 186.797C300.023 187.012 301.121 187.269 302.225 187.57C304.662 185.517 306.84 183.068 308.965 180.701C306.611 180.1 304.795 179.012 302.803 177.645Z" fill="#74E2D2"/>
<path d="M300.953 188.893C299.429 188.459 297.775 188.257 296.217 187.932C294.514 187.576 292.831 187.088 291.109 186.83C290.196 187.435 289.356 188.133 288.42 188.713C285.884 190.282 283.103 191.488 280.371 192.665C283.971 193.928 287.695 194.924 291.336 196.075C294.677 193.965 298.009 191.528 300.953 188.893Z" fill="#74E2D2"/>
<path d="M291.62 173.472C290.139 173.883 285.388 176.818 283.689 177.762C283.184 179.453 279.34 190.113 279.544 190.916L280.254 190.608C283.438 189.121 286.578 187.77 289.446 185.702C289.876 183.725 290.06 181.647 290.36 179.644C290.673 177.555 291.112 175.523 291.62 173.472Z" fill="#74E2D2"/>
<path d="M289.369 197.226C285.57 196.204 281.828 195.006 278.141 193.632C274.826 194.813 271.019 196.492 267.631 197.274C267.583 197.285 267.536 197.295 267.488 197.305L267.524 197.488C267.442 197.489 267.36 197.496 267.279 197.49C267.19 197.483 267.103 197.462 267.015 197.449L266.822 197.714C270.207 199.456 273.811 200.882 277.299 202.417C281.661 201.205 285.496 199.571 289.369 197.226Z" fill="#74E2D2"/>
<path d="M270.154 183.879C264.64 185.553 253.692 194.764 250.669 199.727C255.404 198.099 260.541 197.551 265.243 195.812C266.906 191.838 268.387 187.816 270.154 183.879Z" fill="#74E2D2"/>
<path d="M281.527 178.852C280.471 179.138 272.768 182.624 272.455 183.036C271.996 183.64 267.483 194.854 267.501 195.163L267.708 195.187C271.042 194.27 274.254 193.105 277.448 191.788C278.656 187.399 280.001 183.148 281.527 178.852Z" fill="#74E2D2"/>
<path d="M320.436 163.44C318.839 163.605 317.195 164.299 315.589 164.564C313.069 165.006 310.534 165.328 307.984 165.529C305.434 165.729 302.88 165.809 300.323 165.766C300.357 167.997 300.579 169.949 301.225 172.088C301.445 172.685 301.672 173.254 302.012 173.796C303.818 176.675 306.902 178.352 310.137 179.049C312.285 176.854 313.898 174.02 315.538 171.436C317.21 168.799 318.904 166.162 320.436 163.44Z" fill="#FACA2E"/>
<path d="M74.624 34.907C76.8048 38.2417 86.8082 62.4835 86.3521 65.2758L84.9994 66.0939C84.5193 65.5983 84.5582 65.6626 84.0625 65.0014C80.708 60.5212 72.4256 40.6268 73.3449 35.7506L74.624 34.907Z" fill="#203B53"/>
<path d="M143.62 12.5247C144.44 13.6688 144.66 14.3638 144.631 15.7321C144.511 21.4384 142.004 42.687 140.374 47.4649C140.092 48.2915 139.594 48.7922 138.982 49.3882C138.444 48.2661 138.073 47.3079 137.98 46.0535C137.594 40.9023 140.682 15.9067 143.62 12.5247Z" fill="#203B53"/>
<path d="M178.057 17.0992C178.46 17.7561 178.649 18.256 178.885 18.9787C177.864 25.3108 169.505 49.4147 164.978 53.0464C164.479 52.4213 164.199 51.9193 163.918 51.1704C164.858 46.0291 173.689 23.9327 176.191 19.2248C176.688 18.2885 177.236 17.7448 178.057 17.0992Z" fill="#203B53"/>
<path d="M105.777 8.06339C106.406 9.33123 106.782 10.5658 107.031 11.9532C108.428 19.7455 108.716 27.9727 109.404 35.8591C109.823 40.6561 110.834 46.1673 110.482 50.9494C110.412 51.8877 110.128 52.4393 109.608 53.1994C109.338 52.9378 109.068 52.6776 108.814 52.4011C108.234 51.7683 107.781 51.2139 107.551 50.376C106.218 45.5097 103.725 15.2179 104.183 10.5361C104.325 9.08587 104.724 8.98051 105.777 8.06339Z" fill="#203B53"/>
<path d="M42.8742 90.0279C40.5236 89.9033 38.6475 90.1672 36.5695 91.3922C33.7237 93.0694 30.9017 96.3715 28.5309 98.6896C25.0812 102.085 21.5849 105.433 18.0418 108.731C14.79 111.719 11.5126 114.678 8.20914 117.609C6.36384 119.251 4.29222 120.881 2.65581 122.729C1.50456 124.029 0.650635 125.556 0.260773 127.254C-0.395706 130.114 0.213577 132.917 1.77301 135.379C3.48547 138.083 12.2379 147.758 14.8166 149.977C15.3247 150.415 15.8927 150.728 16.5579 150.849C18.1403 151.136 19.5041 149.943 20.6961 149.08C27.2614 155.79 33.348 162.969 39.5606 170C46.9606 178.373 54.4678 186.703 61.7405 195.183L75.6114 211.189C77.9139 213.844 80.3607 217.605 83.2565 219.567C86.0794 221.48 92.8193 222.292 96.3097 223.008C101.915 224.123 129.38 231.039 132.568 230.283C133.202 230.132 133.265 229.998 133.61 229.494C133.663 229.17 133.712 228.895 133.682 228.565C133.499 226.576 132.927 224.523 132.63 222.531C131.508 215.006 130.173 207.532 128.965 200.023C128.315 195.991 127.695 191.954 127.104 187.913C126.722 185.245 126.548 182.333 125.745 179.769C122.962 177.609 120.344 173.676 118.025 170.919L102.98 153.218C91.822 140.223 79.7725 128.083 68.7419 114.98C66.75 112.614 64.3806 110.449 62.5179 107.997C60.8682 105.825 59.9222 103.066 58.322 100.795C54.6245 95.5478 49.3364 91.1283 42.8742 90.0279Z" fill="#203B53"/>
<path d="M65.1109 123.583L64.7215 123.679C64.6455 123.577 64.5703 123.475 64.4934 123.375C64.2863 123.105 64.0939 122.882 63.8511 122.647L63.5611 122.813C63.535 122.952 63.5116 123.091 63.4832 123.229C63.3778 123.74 63.1259 124.199 62.6792 124.494C63.5212 125.472 64.8434 126.669 65.1673 127.944C70.0174 133.485 75.4218 138.468 80.3539 143.923C85.5934 149.719 90.3057 155.941 95.6038 161.699C101.16 167.737 107.319 173.539 112.267 180.081C115.769 180.836 118.896 182.3 122.522 182.645C120.335 178.849 117.252 175.049 114.147 171.94C114.346 173.055 114.455 173.726 113.897 174.752C113.436 175.028 113.301 175.129 112.744 175.09C112.077 175.044 111.504 174.761 111.005 174.325C109.678 173.166 108.513 171.695 107.306 170.402C104.329 167.209 101.372 163.996 98.4377 160.764C94.486 156.474 90.3487 152.318 86.5106 147.927C83.4673 144.445 80.6971 140.721 77.6226 137.267C74.9504 134.264 72.0459 131.464 69.3242 128.505C67.8601 126.913 66.5549 125.191 65.1109 123.583Z" fill="url(#paint0_linear_2351_4732)"/>
<path d="M12.8764 118.252C9.88949 120.88 3.84094 124.924 3.53126 129.139C3.43001 130.519 3.80427 131.855 4.43648 133.073C6.1668 136.407 12.2621 142.73 15.0323 145.756C15.5413 146.311 16.0659 146.85 16.606 147.374C20.6058 143.894 24.8315 140.396 28.4951 136.565C27.1808 136.309 25.8504 136.07 24.558 135.72C20.1294 134.522 16.1103 131.818 13.8573 127.748C12.1224 124.614 11.9006 121.65 12.8764 118.252Z" fill="#905E96"/>
<path d="M60.3062 111.481C59.5329 112.236 58.7174 112.973 57.9831 113.764C58.6899 115.091 59.4953 116.252 60.4019 117.449C61.9536 119.444 63.7494 121.463 65.1109 123.583C66.5549 125.191 67.8601 126.913 69.3243 128.504C72.046 131.464 74.9504 134.263 77.6227 137.266C80.6971 140.721 83.4674 144.445 86.5106 147.927C90.3488 152.318 94.486 156.474 98.4378 160.764C101.372 163.996 104.329 167.209 107.307 170.402C108.513 171.695 109.678 173.166 111.005 174.325C111.504 174.761 112.077 175.044 112.744 175.09C113.301 175.129 113.436 175.028 113.897 174.752C114.455 173.726 114.346 173.055 114.147 171.94C113.43 170.913 112.473 169.947 111.66 168.988C111.404 168.964 111.37 168.968 111.096 168.908C110.67 168.814 110.473 168.667 110.176 168.354C106.962 164.968 104.109 161.153 100.991 157.663C93.4342 149.205 85.7383 140.914 78.2691 132.375L66.9068 119.408C64.6762 116.852 62.1913 114.306 60.3062 111.481Z" fill="#E5F5F0"/>
<path d="M28.8431 141.188C27.1967 141.742 24.3036 145.226 23.0099 146.604C27.9324 152.702 33.6158 158.348 38.7853 164.258C53.102 180.624 67.5369 196.916 81.5787 213.515C82.4157 214.591 83.4359 215.434 84.5189 216.246C84.7072 212.825 84.4076 209.327 84.2532 205.903C80.0371 199.727 74.2845 194.329 69.5022 188.55C64.8573 182.842 60.1139 177.217 55.2712 171.676C51.9736 167.888 48.546 164.204 45.2961 160.375C39.8174 153.921 34.8271 147.213 28.8431 141.188Z" fill="#F3A835"/>
<path d="M123.273 185.723C119.877 186.175 116.278 184.587 113.134 183.427C113.184 185.488 113.97 194.738 112.514 195.992C111.029 197.272 102.683 195.381 100.258 195.261C100.491 197.586 101.925 206.517 100.528 207.883C99.8181 208.577 98.6096 208.518 97.7053 208.397C94.3051 207.942 90.992 207.185 87.5652 206.844C87.6601 210.436 87.6921 214.028 87.6624 217.621C93.4282 218.768 99.1809 219.979 104.92 221.253C113.035 223.137 121.191 225.263 129.421 226.555C129.001 220.359 127.823 214.124 126.75 208.011C126.077 204.171 125.505 200.171 124.547 196.4C124.525 195.175 124.264 193.853 124.116 192.631C123.927 190.311 123.609 188.025 123.273 185.723Z" fill="#EACAD0"/>
<path d="M124.116 192.631C123.329 191.126 122.691 189.679 121.233 188.709L120.754 188.69C120.209 189.194 120.117 189.773 120.082 190.483C119.972 192.768 124.083 218.68 124.829 219.695C125.228 220.237 125.53 220.226 126.141 220.312C126.662 220.087 126.738 220.023 127.079 219.568C127.949 214.429 124.144 202.953 124.547 196.4C124.525 195.175 124.264 193.853 124.116 192.631Z" fill="#E5F5F0"/>
<path d="M58.752 107.933C57.6593 105.442 56.1123 103.143 54.3545 101.075C51.4188 97.6212 46.8413 93.4661 42.0507 93.2173C40.7524 93.15 39.5961 93.4546 38.493 94.1377C35.2857 96.1236 32.4944 99.379 29.774 102.005C24.1483 107.433 18.6628 112.993 12.8758 118.252C11.9 121.65 12.1218 124.614 13.8567 127.748C16.1097 131.818 20.1288 134.522 24.5574 135.72C25.8498 136.07 27.1802 136.309 28.4945 136.565C35.3759 130.784 41.9275 124.405 48.42 118.189C51.8678 114.889 55.7439 111.634 58.752 107.933Z" fill="#C399D6"/>
<path d="M44.0941 96.3779C43.1077 96.3664 42.5493 96.4562 41.8035 97.175C41.5547 97.7353 41.4997 98.1132 41.6912 98.6964C42.6982 101.764 47.7306 106.855 50.6571 108.255C50.8893 108.249 51.09 108.254 51.3154 108.218C51.9087 108.126 52.5345 107.747 52.8606 107.244C53.0952 106.883 53.0782 106.39 52.9834 105.985C52.3393 103.22 46.5963 97.8668 44.0941 96.3779Z" fill="#E5F5F0"/>
<path d="M57.9836 113.764C52.3748 119.211 46.7106 124.599 40.991 129.93C37.7764 132.896 34.3565 135.709 31.2239 138.75C41.9819 151.736 53.1509 164.332 64.0702 177.174C71.6969 186.144 78.9737 195.546 86.9977 204.161C90.708 204.169 94.4201 204.924 98.07 205.526C97.8409 202.034 97.7479 198.464 97.2747 194.999C94.7051 193.03 87.0586 188.04 86.5679 185.084C86.7732 184.514 86.7691 184.535 87.3 184.238C89.6653 184.291 92.6321 187.539 94.4481 189.055C95.3492 189.807 96.2961 190.773 97.3525 191.273C100.405 192.719 106.806 193.193 110.364 193.638C110.385 191.212 110.907 184.356 110.029 182.311C108.771 179.38 95.3913 166.044 92.1566 162.401C89.4353 159.335 86.9844 156.033 84.3452 152.897C80.7686 148.647 76.9557 144.522 73.0644 140.558C70.4733 137.918 56.3133 123.912 56.2688 121.387C56.7347 120.846 56.9748 120.595 57.6615 120.326C58.4238 120.425 58.586 120.611 59.1825 121.068C60.8638 123.416 63.0641 125.962 65.1678 127.944C64.8439 126.669 63.5218 125.472 62.6798 124.494C63.1264 124.199 63.3784 123.74 63.4838 123.229C63.5122 123.091 63.5355 122.952 63.5616 122.813L63.8516 122.647C64.0944 122.881 64.2868 123.105 64.4939 123.375C64.5709 123.475 64.646 123.577 64.7221 123.679L65.1114 123.583C63.7499 121.463 61.9541 119.444 60.4024 117.449C59.4958 116.252 58.6905 115.091 57.9836 113.764Z" fill="#FACA2E"/>
<path d="M53.6352 134.818C53.309 134.836 53.1963 134.83 52.855 134.911C52.2718 135.05 51.8669 135.436 51.5581 135.926C51.5622 136.159 51.5017 136.402 51.5709 136.625C52.0867 138.283 67.7132 154.439 70.2993 157C70.7139 157.096 71.2087 157.154 71.6196 157.006C72.1721 156.806 72.2248 156.549 72.3906 156.052C72.3155 155.392 72.0704 155.037 71.676 154.529C68.7642 150.776 65.0928 147.312 61.863 143.807C59.145 140.857 56.5511 137.548 53.6352 134.818Z" fill="#203B53"/>
<path d="M84.4796 240.857C84.3406 240.966 84.1087 241.178 83.9333 241.243C82.1799 241.888 82.1163 239.392 81.4064 238.427C80.5941 237.322 79.3946 236.274 78.1626 235.687C76.89 235.08 75.4041 234.847 74.064 235.379C72.4055 236.038 71.787 237.409 71.1232 238.933C72.4244 239.49 73.5256 240.141 74.5477 241.118C75.8848 242.396 77.2127 244.386 77.1887 246.3C77.1783 247.13 76.8547 247.884 76.258 248.464C75.6896 249.016 74.9286 249.405 74.1218 249.374C72.9215 249.329 71.7745 248.337 71.0303 247.477C69.2853 245.458 68.7554 243.024 68.8908 240.427C67.2454 240.187 65.7571 240.12 64.2222 240.902C62.9495 241.55 61.2859 243.105 60.8289 244.499C61.202 244.834 63.139 245.028 63.8984 245.471C65.0607 246.148 66.0499 247.123 66.3788 248.462C66.4126 248.601 66.4393 248.74 66.4588 248.881C66.478 249.022 66.4902 249.164 66.4948 249.306C66.4996 249.448 66.4969 249.59 66.4867 249.732C66.4768 249.874 66.4593 250.015 66.4345 250.155C66.41 250.295 66.3779 250.433 66.3387 250.57C66.2995 250.707 66.2534 250.842 66.2005 250.974C66.1475 251.106 66.0877 251.235 66.0211 251.36C65.9546 251.486 65.8818 251.608 65.8027 251.726C65.0883 252.798 63.617 253.828 62.3311 254.014C61.2736 254.166 60.1504 253.812 59.3139 253.168C57.8114 252.013 57.6269 250.32 57.441 248.566C55.7778 251.252 54.1394 253.953 52.5253 256.668C51.2914 258.633 49.4387 260.325 48.4569 262.4C46.4748 263.627 44.3694 264.598 41.9777 264.065C40.449 263.724 38.7817 262.678 37.9545 261.327C37.4542 260.511 37.2852 259.566 37.5133 258.631C37.8276 257.343 38.7982 256.386 39.9332 255.767C41.4812 254.923 43.478 254.573 45.1845 255.108C46.9409 255.658 47.9436 256.877 48.7988 258.422C51.3682 255.026 53.2411 251.224 55.5623 247.674C56.1984 246.701 57.3288 246.191 57.9862 245.262C59.3046 243.4 60.1229 241.442 61.9398 239.934C64.159 238.091 66.7776 238.183 69.4716 238.439C69.7207 237.599 69.9818 236.726 70.4368 235.971C70.488 235.884 70.542 235.799 70.5978 235.715C70.6538 235.631 70.712 235.548 70.7724 235.468C70.8328 235.387 70.895 235.308 70.9595 235.23C71.024 235.153 71.0905 235.077 71.1589 235.003C71.2273 234.929 71.2978 234.857 71.3702 234.787C71.4425 234.717 71.5167 234.649 71.5924 234.582C71.6682 234.516 71.746 234.452 71.8253 234.389C71.9046 234.327 71.9855 234.267 72.068 234.209C72.1505 234.151 72.2344 234.095 72.3198 234.042C72.4052 233.988 72.4919 233.937 72.5801 233.888C72.6683 233.839 72.7575 233.792 72.8482 233.748C72.9388 233.704 73.0307 233.662 73.1233 233.623C73.2158 233.583 73.3097 233.546 73.4045 233.512C73.4993 233.478 73.595 233.446 73.6913 233.416C73.7875 233.387 73.8846 233.36 73.9826 233.336C74.0806 233.312 74.1791 233.29 74.278 233.271C76.4027 232.844 78.6624 233.475 80.4186 234.697C82.4769 236.13 84.0757 238.367 84.4796 240.857Z" fill="#203B53"/>
<path d="M75.1882 246.95L74.7289 247.239C74.0547 247.291 73.5962 247.231 73.0405 246.822C71.4262 245.633 71.0614 243.593 70.7974 241.746L70.8555 241.378L71.1172 241.241C72.2243 241.56 73.2172 242.478 73.9334 243.354C74.8682 244.497 75.3458 245.465 75.1882 246.95Z" fill="#E5F5F0"/>
<path d="M64.5219 249.961C64.3327 250.321 64.1081 250.657 63.8473 250.968C63.3546 251.563 62.6208 252.046 61.8335 252.102C61.2654 252.142 60.7253 251.93 60.3203 251.532C59.5313 250.758 59.5578 249.733 59.5909 248.705C59.661 248.18 59.7075 247.585 60.0359 247.146C60.339 246.742 60.9253 246.578 61.4119 246.58C62.3411 246.584 63.2355 247.138 63.854 247.798C64.5111 248.499 64.5495 249.042 64.5219 249.961Z" fill="#E5F5F0"/>
<path d="M47.111 260.046C46.5934 260.919 45.9091 261.516 44.9597 261.895C44.8223 261.951 44.6828 261.999 44.5403 262.041C44.3978 262.082 44.2541 262.116 44.1084 262.142C43.9627 262.168 43.8159 262.187 43.6678 262.198C43.5203 262.209 43.3724 262.212 43.2242 262.208C43.0761 262.204 42.9287 262.192 42.7819 262.172C42.6351 262.153 42.4895 262.125 42.3457 262.091C42.2017 262.056 42.0597 262.014 41.92 261.965C41.7802 261.915 41.6435 261.859 41.5098 261.796C40.3304 261.228 39.8021 260.36 39.4065 259.151C39.4824 258.953 39.4778 258.948 39.5956 258.734C40.054 257.902 41.0312 257.309 41.9275 257.074C43.0897 256.769 44.4016 256.968 45.4273 257.59C46.4368 258.203 46.8354 258.929 47.111 260.046Z" fill="#E5F5F0"/>
<path d="M170.003 239.895C170.287 239.253 170.795 238.927 171.437 238.639C171.935 236.871 172.573 235.166 173.242 233.453C172.87 232.98 172.368 232.461 172.299 231.847C172.255 231.463 172.329 231.215 172.571 230.914L172.912 230.882C173.668 231.144 173.865 231.563 174.218 232.213C174.353 231.86 174.474 231.417 174.666 231.093C174.874 230.741 174.977 230.747 175.36 230.619L175.417 230.64C175.919 230.393 176.109 229.837 176.354 229.372C176.334 229.351 176.314 229.33 176.294 229.309C175.974 228.984 175.592 228.649 175.419 228.224C175.266 227.849 175.311 227.591 175.462 227.228C175.681 227.11 175.729 227.054 175.992 227.052C176.695 227.047 177.162 227.605 177.636 228.033L179.45 226.372C179.304 225.928 179.088 225.443 179.278 224.981C179.394 224.701 179.545 224.544 179.861 224.492C180.274 224.425 180.645 224.7 180.97 224.902C181.814 224.245 187.052 220.138 187.471 220.006C187.815 220.064 187.901 220.06 188.157 220.28L188.149 220.56C187.755 221.313 187.09 221.734 186.375 222.169C188.439 221.597 190.658 220.906 192.777 220.597C193.876 220.438 195.246 220.954 196.274 220.537C196.488 220.284 196.583 220.121 196.911 220C197.522 220.089 198.082 220.404 198.682 220.464C199.498 220.545 200.337 220.513 201.16 220.594C206.192 221.087 210.857 222.349 215.032 225.197C219.76 228.421 224.678 235.379 226.682 240.571C227.629 243.027 228.139 245.602 228.588 248.176C229.152 248.558 229.727 249.013 230.001 249.636C229.879 250.109 229.488 250.194 229.184 250.558C228.785 251.036 228.944 251.705 228.986 252.279C229.012 253.163 228.949 254.053 228.856 254.931C228.18 261.339 225.652 266.251 220.44 270.328L221.409 271.345C221.146 271.772 220.879 272.263 220.324 272.37C219.525 272.524 218.669 271.875 218.025 271.497C217.774 271.708 216.401 272.692 216.401 272.963C216.404 273.227 216.632 273.474 216.551 273.751C216.465 274.042 216.23 274.265 215.947 274.39C215.476 274.6 214.585 274.14 214.133 273.968C213.276 274.422 212.414 274.759 211.497 275.089C211.716 275.281 211.918 275.468 212.049 275.728C212.197 276.024 212.158 276.326 212.054 276.625C211.919 276.765 211.798 276.882 211.611 276.959C210.388 277.459 209.63 276.812 208.548 276.414C208.211 276.29 208.035 276.25 207.699 276.373C207.483 276.686 207.301 276.937 206.991 277.176C206.42 277.281 205.989 277.07 205.471 276.871C205.19 276.953 205.07 276.986 204.852 277.188C204.595 277.426 204.773 277.299 204.494 277.494C204.043 277.81 203.029 277.533 202.504 277.452C202.98 277.954 203.484 278.257 204.039 278.661C204.391 278.917 204.532 279.144 204.599 279.556C204.436 279.784 204.36 279.927 204.052 279.985C202.879 280.206 200.856 277.996 199.898 277.388C198.731 276.646 196.696 276.712 195.334 276.304C192.276 275.386 189.121 273.83 186.49 272.094C179.14 267.242 173.26 260.185 171.374 251.698C170.75 248.892 170.714 246.044 170.171 243.241C170.122 242.848 170.114 242.542 170.391 242.222C171.437 241.019 169.924 241.168 170.003 239.895ZM215.604 241.119C217.352 242.945 219.294 244.602 221.098 246.379C222.647 247.905 224.068 249.567 225.685 251.027C226.003 251.315 226.614 251.944 227.047 251.978C227.068 251.98 227.089 251.975 227.11 251.973L227.117 249.783C225.126 248.593 216.759 241.374 215.604 241.119ZM211.162 243.575C214.544 246.533 217.969 249.314 221.059 252.574C222.26 253.842 224.988 257.267 226.445 257.936C226.65 257.809 226.595 257.894 226.641 257.699C226.843 256.863 226.974 256.046 227.021 255.187C224.978 253.925 222.993 252.582 221.068 251.159C219.658 250.122 212.027 243.564 211.162 243.575ZM216.7 233.859C218.368 236.243 220.148 238.548 222.038 240.774C223.432 242.394 224.926 243.937 226.225 245.631C225.981 244.708 225.702 243.826 225.349 242.936C223.931 239.813 221.771 237.782 219.362 235.345C218.701 234.675 218.02 233.781 217.261 233.229C217.422 233.46 218.131 234.309 218.13 234.522C217.753 234.228 217.317 233.704 216.858 233.607C216.705 233.821 216.738 233.729 216.7 233.859ZM208.118 246.947C209.379 247.941 210.652 248.927 211.83 250.012C213.493 251.543 223.919 261.882 224.77 262.235C225.026 262.062 224.917 262.17 225.091 261.906L225.705 260.487C223.907 259.391 222.243 258.201 220.6 256.9C218.817 255.49 209.418 247.095 208.118 246.947ZM201.15 247.374C202.508 248.5 203.882 249.617 205.206 250.779C207.521 252.811 221.574 265.662 222.51 265.908C222.768 265.791 222.915 265.663 223.112 265.468L223.428 265.012C223.261 264.451 221.625 263.5 221.07 263.097C219.109 261.67 217.202 260.179 215.35 258.624C213.247 256.874 203.152 248.064 201.46 247.399C201.361 247.361 201.253 247.354 201.15 247.374ZM195.716 248.302C197.193 250.152 200.243 252.635 202.102 254.343C207.05 258.889 213.664 265.518 219.255 269.032C219.481 268.973 219.661 268.907 219.866 268.798C219.646 268.195 215.357 265.357 214.501 264.723C212.661 263.362 210.932 261.758 209.226 260.245C206.326 257.656 203.443 255.051 200.574 252.43C199.6 251.544 196.91 248.803 195.96 248.342C195.833 248.28 195.853 248.295 195.716 248.302ZM194.452 254.005C194.92 254.631 195.5 255.167 196.059 255.72C195.914 255.894 195.639 256.114 195.667 256.342C195.778 257.241 196.975 257.739 197.454 258.465C197.833 258.798 198.216 259.127 198.602 259.453C199.405 260.445 200.099 261.133 201.202 261.812C201.347 261.936 201.489 262.04 201.656 262.135C203.506 263.186 204.956 264.906 206.599 266.247C209.136 268.283 211.801 270.154 214.59 271.861C215.094 271.453 215.638 271.135 216.199 270.806C209.935 267.721 204.668 262.755 199.498 258.248C198.165 257.087 195.907 254.734 194.452 254.005ZM200.288 265.163C203.258 268.323 206.402 271.257 209.887 273.901L211.567 273.394C211.48 273.06 210.863 272.818 210.553 272.638C208.179 271.264 205.986 269.784 203.872 268.063C202.72 267.125 201.586 265.876 200.314 265.116L200.288 265.163ZM196.678 222.68C198.178 223.828 210.418 232.37 211.089 232.366L211.073 232.256C209.505 230.853 200.22 224.04 199.832 223.151L199.904 222.746C199.358 222.348 197.826 222.398 197.158 222.478C196.917 222.507 196.857 222.517 196.678 222.68ZM205.464 223.362C205.808 223.766 206.126 224.238 206.716 224.274C206.957 224.289 207.037 224.201 207.235 224.091C206.746 223.645 206.236 223.397 205.571 223.287L205.464 223.362ZM190.983 223.206C192.766 224.63 206.407 234.91 206.923 235.022L206.814 234.818C204.281 231.899 199.337 228.371 196.225 225.767C195.073 224.804 194.137 223.591 192.968 222.663C192.413 222.759 191.483 222.798 191.025 223.099L190.983 223.206ZM185.291 224.697C186.502 225.322 187.648 226 188.767 226.766C190.428 227.905 204.95 238.648 205.482 238.581L205.077 238.211C200.548 234.452 195.748 230.987 191.388 227.047C190.217 225.989 188.895 224.911 187.948 223.66C187.218 223.917 185.845 224.216 185.291 224.697ZM194.188 269.388C196.51 271.476 198.773 273.696 201.218 275.646C202.148 275.452 203.041 275.368 203.989 275.308C203.716 274.95 195.483 270.012 194.331 269.349L194.188 269.388ZM182.258 226.277C184.448 227.729 186.458 229.534 188.502 231.174C191.259 233.386 194.126 235.379 197.033 237.4C198.208 238.217 199.293 239.146 200.525 239.885L200.585 239.832C200.429 239.653 200.277 239.471 200.107 239.304C196.752 236.483 193.24 233.844 189.939 230.961C187.813 229.103 185.857 226.785 183.506 225.207C183.04 225.54 182.621 225.834 182.258 226.277ZM179.313 228.838C181.134 230.152 191.016 239.18 192.259 239.308C192.113 239.136 191.973 238.963 191.812 238.805C188.796 236.181 185.873 233.517 183.12 230.635C182.202 229.673 181.179 228.693 180.442 227.594C180.034 227.987 179.609 228.356 179.313 228.838ZM176.677 232.015C177.561 232.934 178.472 233.826 179.412 234.692C180.639 235.808 190.79 244.702 191.473 244.92C191.402 244.663 191.321 244.559 191.128 244.371C188.307 241.793 179.062 233.615 177.603 230.859L176.677 232.015ZM186.812 256.437C186.987 256.696 187.128 256.82 187.4 256.989C187.437 257.012 187.661 257.144 187.697 257.18C187.983 257.471 187.65 257.561 187.705 257.906C188.068 257.92 188.321 257.844 188.657 257.731L188.787 257.687L188.778 257.822L188.777 257.822L188.548 258.105C188.627 258.489 189.022 258.836 189.35 259.05C189.717 259.289 190.094 259.448 190.539 259.366C190.579 259.108 190.479 259.043 190.322 258.833C190.184 258.648 190.032 258.47 189.876 258.296L189.402 257.78C189.042 257.174 188.498 256.432 187.894 256.038C187.586 255.837 187.426 255.82 187.07 255.88C186.883 256.11 186.848 256.15 186.812 256.437ZM176.082 259.82C179.736 265.033 184.02 269.385 189.781 272.492C189.984 272.464 189.925 272.509 190.002 272.433C186.822 269.854 183.682 267.266 180.743 264.429C179.169 262.909 177.756 261.239 176.184 259.722L176.082 259.82ZM173.025 241.43C175.561 244.444 178.162 247.372 180.813 250.293C182.675 252.343 184.5 254.409 186.559 256.282C186.863 255.969 187.291 255.632 187.34 255.192C187.211 254.703 186.712 254.287 186.366 253.917C183.454 250.496 180.645 246.999 177.939 243.426C176.505 241.564 174.995 239.755 173.755 237.764C173.256 238.902 173.057 240.201 173.025 241.43ZM172.661 244.141C172.406 244.504 172.437 245.089 172.464 245.522C172.501 246.358 172.552 247.195 172.568 248.031C172.985 247.842 173.159 247.705 173.624 247.757C174.41 248.322 175.045 249.081 175.728 249.757C176.998 250.991 178.25 252.243 179.484 253.511C179.895 253.934 180.291 254.481 180.732 254.856C180.917 255.013 181.13 255.055 181.363 255.098C181.386 255.481 181.344 255.527 181.617 255.797C181.892 255.873 182.16 255.939 182.438 256C182.671 256.051 182.744 256.106 182.906 256.263L182.858 256.447L182.429 256.674C182.442 256.944 182.593 257.132 182.82 257.304C183.152 257.553 183.608 257.543 184.01 257.567L184.271 257.759C184.122 258.011 184.22 257.899 183.966 258.088C184.442 258.826 185.691 259.875 186.438 260.384C186.736 260.26 186.739 260.207 186.904 259.933L186.884 259.727L186.305 259.899L186.212 259.803C186.299 259.651 186.381 259.527 186.486 259.389L186.482 259.343L186.106 259.153C186.103 258.923 186.08 259.032 186.171 258.823C185.772 258.654 185.343 258.874 184.974 258.736C185.264 258.624 185.546 258.508 185.828 258.377L185.826 258.218L185.581 258.058C185.357 258.116 184.828 258.34 184.624 258.282C184.812 258.072 184.983 257.976 185.237 257.847L185.101 257.815L185.321 257.784C184.821 256.924 183.023 255.342 182.25 254.515C180.496 252.646 178.752 250.767 177.02 248.88C175.94 247.683 173.923 244.917 172.661 244.141ZM174.519 235.941C177.234 238.121 179.632 240.843 182.093 243.291C182.913 244.107 183.725 245.029 184.642 245.739L184.381 245.264C182.569 243.313 180.722 241.398 178.953 239.409C177.703 238.003 176.526 236.413 175.125 235.151L174.896 235.146C174.643 235.411 174.604 235.603 174.519 235.941ZM172.903 249.82C172.745 250.059 172.802 250.086 172.837 250.355C172.915 250.794 172.979 251.239 173.073 251.675C175.06 253.272 176.694 255.078 178.417 256.924C179.484 258.067 180.595 259.339 181.879 260.261L182.01 260.243L181.716 259.845C179.553 258.076 176.877 254.825 175.104 252.629C174.475 251.851 173.705 250.374 172.903 249.82Z" fill="white"/>
<path d="M193.191 241.116C193.191 240.413 193.451 239.824 193.973 239.348C194.494 238.849 195.208 238.475 196.115 238.226C197.021 237.977 198.075 237.852 199.277 237.852C200.977 237.852 202.405 238.124 203.561 238.668C204.739 239.189 205.623 239.926 206.213 240.878C206.825 241.807 207.131 242.873 207.131 244.074C207.131 245.275 206.791 246.454 206.111 247.61C205.431 248.743 204.377 249.911 202.949 251.112L198.223 255.056H206.859C206.972 255.237 207.085 255.509 207.199 255.872C207.312 256.212 207.369 256.586 207.369 256.994C207.369 257.697 207.21 258.207 206.893 258.524C206.575 258.841 206.156 259 205.635 259H193.769C193.338 258.705 192.998 258.32 192.749 257.844C192.522 257.368 192.409 256.835 192.409 256.246C192.409 255.566 192.545 254.999 192.817 254.546C193.111 254.07 193.429 253.673 193.769 253.356L198.801 248.902C200.025 247.837 200.863 246.964 201.317 246.284C201.77 245.604 201.997 244.958 201.997 244.346C201.997 243.598 201.713 243.009 201.147 242.578C200.603 242.125 199.809 241.898 198.767 241.898C197.837 241.898 196.999 242.057 196.251 242.374C195.525 242.669 194.925 242.975 194.449 243.292C194.109 243.065 193.814 242.771 193.565 242.408C193.315 242.045 193.191 241.615 193.191 241.116Z" fill="#203B53"/>
</g>
<defs>
<linearGradient id="paint0_linear_2351_4732" x1="94.987" y1="150.571" x2="88.4928" y2="157.776" gradientUnits="userSpaceOnUse">
<stop stop-color="#F3959A"/>
<stop offset="1" stop-color="#FFC9CA"/>
</linearGradient>
<clipPath id="clip0_2351_4732">
<rect width="324" height="277" fill="white"/>
</clipPath>
</defs>
</svg>
