<svg
  width="400"
  height="349"
  viewBox="0 0 400 349"
  xmlns="http://www.w3.org/2000/svg"
  fill="none"
>

  <!-- ========================= -->
  <!-- PARENT SVG (UNCHANGED) -->
  <!-- ========================= -->
  <g id="parent">
<svg width="400" height="349" viewBox="0 0 400 349" fill="none" xmlns="http://www.w3.org/2000/svg"> <path d="M231.998 22.0092C234.034 22.909 235.065 24.5197 235.976 26.5502C241.576 28.1292 246.976 30.1475 252.401 32.267C253.9 31.0881 255.54 29.5002 257.483 29.2797C258.703 29.141 259.486 29.3773 260.441 30.144L260.543 31.2211C259.711 33.6149 258.385 34.2415 256.326 35.3578C257.443 35.7853 258.845 36.1679 259.873 36.7758C260.986 37.4342 260.97 37.7584 261.375 38.974L261.306 39.1528C262.09 40.7422 263.852 41.3455 265.324 42.1186C265.39 42.0569 265.456 41.9954 265.52 41.932C266.552 40.92 267.613 39.7066 268.957 39.1596C270.147 38.676 270.963 38.8185 272.11 39.2973C272.486 39.9909 272.664 40.1411 272.67 40.975C272.685 43.2004 270.917 44.6789 269.562 46.1801L274.823 51.9252C276.23 51.4617 277.767 50.7776 279.228 51.3822C280.116 51.7495 280.611 52.2274 280.775 53.2289C280.988 54.5345 280.119 55.708 279.477 56.7377C281.557 59.4113 294.566 76.0029 294.983 77.3246C294.797 78.416 294.812 78.6881 294.114 79.4994L293.226 79.4721C290.842 78.2234 289.51 76.1171 288.132 73.8539C289.943 80.3899 292.133 87.4177 293.108 94.1293C293.615 97.6098 291.978 101.946 293.3 105.204C294.102 105.88 294.617 106.182 295.001 107.22C294.718 109.156 293.723 110.927 293.534 112.826C293.277 115.412 293.377 118.067 293.121 120.675C291.831 133.839 288.874 146.206 282.803 157.563C274.308 150.695 266.79 142.171 259.074 134.497C256.476 131.912 253.907 128.995 251.004 126.747L251.828 128.247C257.566 134.427 263.416 140.493 269.017 146.79C272.976 151.242 276.7 156.277 281.138 160.272L281.282 160.275C280.424 161.734 279.514 163.178 278.543 164.602C277.524 166.096 276.385 167.595 275.148 169.091C272.687 166.573 270.158 164.118 267.562 161.726C263.675 158.19 231.516 130.015 229.369 129.338C229.592 130.151 229.852 130.48 230.463 131.078C238.913 138.802 265.571 162.394 272.335 172.307C270.342 174.464 268.163 176.598 265.852 178.68C256.925 171.389 230.479 147.481 226.883 147.108C227.344 147.653 227.784 148.199 228.297 148.7C237.847 157.012 247.101 165.446 255.82 174.576C258.004 176.861 260.373 179.18 262.405 181.667C260.35 183.381 258.219 185.047 256.043 186.646C250.064 182.39 244.463 177.43 238.778 172.87C230.046 165.865 220.969 159.552 211.762 153.152C208.041 150.565 204.606 147.622 200.704 145.284L200.517 145.451C201.01 146.018 201.492 146.594 202.029 147.124C212.656 156.057 223.776 164.412 234.227 173.542C240.079 178.655 245.523 184.867 251.735 189.688C250.281 190.673 248.817 191.625 247.352 192.538C244.1 190.793 240.989 188.911 237.94 186.824C232.678 183.219 186.694 149.2 185.007 149.413L186.291 150.586C200.633 162.488 215.83 173.46 229.639 185.938C233.311 189.256 237.455 192.638 240.448 196.553C236.785 198.526 233.207 200.201 229.86 201.493C222.085 204.494 213.93 206.108 205.779 207.53C204.567 209.316 203.126 211.134 201.154 212.002C199.654 211.615 199.386 210.38 198.232 209.416C196.719 208.153 194.602 208.657 192.785 208.79C189.986 208.873 187.168 208.674 184.385 208.379C164.094 206.236 148.543 198.231 135.632 181.728L132.412 184.796C131.059 183.961 129.503 183.118 129.164 181.36C128.675 178.829 130.73 176.122 131.929 174.082C131.261 173.289 128.142 168.934 127.286 168.939C126.448 168.946 125.669 169.669 124.792 169.412C123.87 169.14 123.161 168.396 122.765 167.5C122.102 166.007 123.558 163.186 124.104 161.755C122.665 159.041 121.601 156.312 120.556 153.409C119.947 154.102 119.355 154.74 118.529 155.154C117.592 155.624 116.637 155.502 115.689 155.17C115.246 154.744 114.875 154.361 114.634 153.771C113.05 149.897 115.099 147.496 116.358 144.068C116.75 143.001 116.877 142.443 116.488 141.379C115.497 140.696 114.703 140.12 113.947 139.138C113.614 137.328 114.28 135.964 114.91 134.324C114.65 133.435 114.546 133.055 113.905 132.364C113.153 131.553 113.556 132.114 112.937 131.232C111.936 129.802 112.814 126.594 113.071 124.931C111.482 126.439 110.524 128.033 109.244 129.79C108.433 130.904 107.714 131.35 106.407 131.563C105.688 131.047 105.233 130.808 105.049 129.83C104.351 126.116 111.35 119.709 113.276 116.678C115.625 112.98 115.415 106.54 116.709 102.226C117.16 100.723 117.659 99.212 118.202 97.7016C124.178 101.443 129.997 105.402 135.65 109.581C140.114 112.865 164.278 133.631 167.02 133.598C156.311 124.232 145.465 115.425 135.682 105.1C132.542 101.786 126.105 93.8203 121.359 89.9477C122.491 87.4536 123.718 84.9947 125.015 82.6059C129.197 85.3516 133.185 88.2749 137.136 91.4008C142.779 95.8663 172.546 122.452 176.661 122.918C172.669 119.771 168.636 116.651 164.905 113.216C160.562 109.218 137.356 86.2582 127.836 77.6967C128.557 76.5098 129.294 75.3489 130.04 74.2182C130.986 72.7847 131.958 71.3684 132.957 69.9721C134.038 70.6974 135.042 71.3406 135.643 71.7777C141.854 76.2983 147.893 81.0203 153.76 85.9447C160.416 91.4868 192.387 119.383 197.744 121.487C198.057 121.609 198.398 121.63 198.725 121.569C194.425 118.001 190.077 114.465 185.883 110.785C179.78 105.427 147.907 76.3226 135.697 66.2777C138.097 63.1527 140.631 60.1396 143.293 57.2611C147.719 60.6617 154.602 65.2632 156.447 66.6293C162.273 70.9411 167.748 76.0187 173.152 80.81C182.333 89.0084 191.467 97.2565 200.551 105.554C203.636 108.361 212.153 117.041 215.161 118.502C215.564 118.698 215.501 118.65 215.934 118.63C211.256 112.771 201.599 104.907 195.714 99.5004C181.111 86.0849 161.927 66.9454 145.056 55.394C147.491 52.867 150.027 50.4517 152.66 48.1654C171.801 57.9807 188.024 73.2467 203.957 87.1352C208.178 90.8128 215.329 98.2593 219.937 100.57C218.455 98.5847 216.616 96.8898 214.848 95.1401C215.306 94.5884 216.176 93.8909 216.088 93.1694C215.736 90.3226 211.947 88.7471 210.43 86.4486C209.229 85.393 208.018 84.3486 206.795 83.3168C204.251 80.1765 202.055 77.9978 198.561 75.8471C198.102 75.4551 197.653 75.1282 197.124 74.8276C191.266 71.4989 186.675 66.052 181.472 61.8051C173.697 55.5689 165.548 49.8199 157.03 44.558C168.135 35.8619 180.778 29.43 194.623 26.3529C203.511 24.3777 212.528 24.2608 221.405 22.5414C222.651 22.3875 223.62 22.3608 224.631 23.2387C228.442 26.5506 227.968 21.7602 231.998 22.0092ZM167.304 169.441C172.27 173.883 201.672 195.456 202.901 198.272L202.67 199.556C204.399 200.818 209.25 200.658 211.366 200.403C212.129 200.311 212.32 200.281 212.889 199.762C208.136 196.126 169.374 169.079 167.253 169.094L167.304 169.441ZM180.79 161.328C188.812 170.572 204.469 181.743 214.323 189.989C217.97 193.041 220.934 196.877 224.638 199.818C226.395 199.515 229.338 199.389 230.787 198.435L230.92 198.098C225.275 193.59 182.086 161.04 180.446 160.68L180.79 161.328ZM181.1 194.715C180.336 194.669 180.084 194.949 179.455 195.297C181.004 196.708 182.618 197.494 184.725 197.843L185.065 197.605C183.974 196.326 182.969 194.83 181.1 194.715ZM119.323 127.089C120.095 130.013 120.976 132.803 122.097 135.621C126.587 145.51 133.428 151.942 141.054 159.661C143.148 161.78 145.304 164.61 147.71 166.358C147.199 165.626 144.952 162.941 144.957 162.265C146.152 163.198 147.532 164.857 148.983 165.162C149.47 164.485 149.365 164.776 149.484 164.364C144.204 156.814 138.568 149.514 132.582 142.466C128.167 137.338 123.435 132.452 119.323 127.089ZM244.934 93.3588C243.969 94.3497 242.61 95.417 242.457 96.811C242.864 98.3601 244.444 99.6755 245.54 100.847C254.762 111.68 263.658 122.756 272.226 134.072C276.769 139.965 281.549 145.695 285.477 151.998C287.057 148.397 287.688 144.282 287.787 140.39C279.757 130.844 271.52 121.573 263.124 112.325C257.23 105.832 251.452 99.2912 244.934 93.3588ZM116.721 106.987C116.654 106.982 116.587 106.997 116.52 107.002L116.496 113.939C122.801 117.707 149.298 140.566 152.956 141.374C147.418 135.592 141.27 130.346 135.559 124.72C130.652 119.887 126.152 114.624 121.033 110C120.025 109.089 118.092 107.094 116.721 106.987ZM245.311 80.3715C244.37 80.7615 244.361 80.931 243.837 81.7963L243.901 82.4506L245.737 81.9047L246.03 82.2123C245.755 82.6914 245.495 83.0822 245.162 83.519L245.172 83.6664L246.364 84.268C246.375 84.9971 246.448 84.6495 246.16 85.3139C247.423 85.8481 248.781 85.1507 249.951 85.5883C249.031 85.9422 248.139 86.3113 247.247 86.726L247.25 87.2299L248.026 87.7328C248.737 87.5514 250.413 86.8437 251.059 87.0268C250.464 87.693 249.921 87.9974 249.117 88.4028L249.55 88.5043L248.851 88.602C250.437 91.3252 256.127 96.3365 258.576 98.9545C264.13 104.873 269.652 110.822 275.139 116.799C278.557 120.588 284.945 129.348 288.941 131.803C289.749 130.655 289.65 128.807 289.565 127.433C289.447 124.787 289.286 122.134 289.234 119.487C287.915 120.085 287.364 120.521 285.892 120.356C283.403 118.565 281.393 116.164 279.23 114.024C275.209 110.114 271.244 106.148 267.335 102.135C266.034 100.795 264.782 99.0622 263.383 97.8725C262.8 97.3767 262.123 97.2461 261.384 97.1078C261.312 95.8958 261.446 95.7503 260.58 94.8949C259.711 94.6525 258.863 94.4482 257.98 94.2543C257.244 94.092 257.014 93.9172 256.499 93.4174L256.648 92.8354L258.011 92.1195C257.97 91.2633 257.491 90.6678 256.771 90.1254C255.721 89.3345 254.278 89.3661 253.004 89.2885L252.18 88.684C252.651 87.8853 252.339 88.2387 253.143 87.641C251.636 85.3039 247.678 81.9827 245.311 80.3715ZM259.336 80.8158L260.267 82.0776C267.117 87.6768 275.59 97.9736 281.206 104.927C283.196 107.391 285.636 112.068 288.176 113.822C288.677 113.064 288.494 112.981 288.383 112.128C288.137 110.74 287.936 109.329 287.637 107.951C281.345 102.891 276.172 97.1729 270.714 91.3285C267.334 87.7086 263.818 83.6775 259.752 80.7602L259.336 80.8158ZM236.094 84.5951C234.93 83.8371 233.737 83.3348 232.326 83.5942C232.199 84.4122 232.518 84.6175 233.015 85.2817C233.453 85.8673 233.933 86.4297 234.428 86.9809L235.927 88.6156C237.069 90.5362 238.79 92.8843 240.706 94.1332C241.679 94.7687 242.186 94.8208 243.312 94.6332C243.905 93.9034 244.014 93.7771 244.13 92.8686C243.573 92.05 243.13 91.6565 242.267 91.1195C242.151 91.048 241.44 90.6314 241.326 90.5151C240.42 89.5946 241.477 89.3093 241.303 88.2172C240.152 88.1743 239.353 88.4128 238.288 88.769L237.876 88.9096L237.902 88.4819L237.906 88.4819L238.632 87.5854C238.38 86.3696 237.132 85.2707 236.094 84.5951ZM234.727 42.0287C234.085 42.117 234.274 41.9757 234.029 42.2143C244.099 50.3809 254.043 58.5749 263.349 67.561C268.332 72.3735 272.808 77.6615 277.786 82.4633L278.109 82.1567C266.538 65.6499 252.971 51.8682 234.727 42.0287ZM165.736 39.1713C166.012 40.2301 167.97 40.9944 168.952 41.5639C176.47 45.9177 183.414 50.6009 190.106 56.0512C193.755 59.0232 197.345 62.9786 201.372 65.3842L201.457 65.2367C192.053 55.2281 182.097 45.9392 171.061 37.5658L165.736 39.1713ZM198.511 32.0385C195.564 32.6526 192.738 32.923 189.735 33.1108C190.601 34.2451 216.672 49.8819 220.318 51.9789L220.771 51.8578C213.421 45.2451 206.254 38.2141 198.511 32.0385Z" fill="white"/> <path d="M116.986 13.0578C119.109 4.37175 124.836 3.37113 140.234 7.2086C183.03 10.3721 225.9 13.0823 268.172 20.8096C274.357 21.9402 284.922 23.4594 290.307 26.4017C290.83 27.7886 290.96 28.9193 290.866 30.3808C290.452 36.7529 289.143 43.2167 288.384 49.5747C287.11 60.6765 286.148 71.8053 285.498 82.9611C284.861 87.9089 284.519 92.9032 284.018 97.8668C283.264 105.332 282.393 112.808 281.515 120.259C280.36 130.06 279.128 139.977 277.488 149.709C276.1 157.944 274.357 166.086 272.579 174.243C271.23 180.427 270.148 186.73 268.342 192.801C264.978 194.573 261.691 194.907 257.93 194.635C248.539 193.955 239.091 191.855 229.791 190.369C215.371 188.174 200.939 186.07 186.493 184.056C172.091 182.042 157.67 180.177 143.23 178.458C131.799 177.203 120.034 176.528 108.741 174.355C107.073 174.196 105.297 174.11 103.673 173.677C102.273 173.304 101.023 172.596 100.324 171.283C98.7339 168.296 100.226 156.128 100.48 152.154C101.473 136.632 102.376 121.055 104.155 105.602C106.862 82.0932 111.015 58.7293 115.18 35.442C115.949 31.1473 116.333 25.547 117.673 21.544C116.64 18.5471 116.578 16.1724 116.986 13.0578Z" fill="#203B53"/> <path d="M127.785 7.82316C130.254 8.0215 132.914 8.11907 135.216 9.12119C136.59 9.71899 137.7 10.6906 138.195 12.1324C138.885 14.1437 138.225 16.6408 137.262 18.453C135.724 21.3452 132.828 23.7825 129.711 24.7313C129.219 24.8035 128.721 24.8776 128.223 24.9027C126.144 25.0062 123.999 24.0356 122.469 22.6753C120.61 21.0221 119.405 18.7187 119.321 16.2133C119.247 14.0033 119.935 11.5837 121.513 9.98C123.231 8.23378 125.45 7.88885 127.785 7.82316Z" fill="#7CCF8F"/> <path d="M132.729 10.3024C133.302 10.4628 133.845 10.6843 134.319 11.0528C134.977 11.5647 135.364 12.4268 135.468 13.2385C135.702 15.065 134.772 16.9044 133.629 18.2643C132.329 19.8099 130.459 21.1525 128.377 21.2318C126.873 21.2895 125.955 20.6806 124.863 19.7247C124.583 19.3653 124.328 18.9887 124.099 18.5957C123.281 17.1874 123.162 15.3908 123.618 13.8429C123.905 12.8683 124.585 11.5284 125.575 11.0947C126.093 10.8676 126.587 10.8113 127.107 11.0771C128.05 11.5587 128.244 12.7132 128.515 13.6393C129.736 12.0702 130.821 10.9674 132.729 10.3024Z" fill="#203B53"/> <path d="M132.887 12.23C133.092 12.3346 133.278 12.555 133.447 12.7126C133.706 13.4588 133.705 13.9797 133.438 14.7321C132.805 16.5138 131.143 18.3234 129.431 19.1202C128.714 19.4539 127.815 19.6328 127.073 19.2608C126.031 18.7391 125.631 17.713 125.227 16.6865C125.176 16.1633 125.115 15.6216 125.17 15.097C125.268 14.1739 125.711 13.4489 126.407 12.8506C126.985 13.311 126.86 14.9301 127.133 15.6935C127.337 16.2623 127.592 16.4209 128.109 16.6797C128.493 16.6576 128.742 16.6638 129.077 16.4474C129.67 16.0627 129.872 14.8425 130.024 14.2005C130.926 13.3741 131.78 12.7599 132.887 12.23Z" fill="#7CCF8F"/> <path d="M260.674 171.881C261.895 171.932 263.26 172.027 264.296 172.727C265.807 173.75 266.441 175.452 266.757 177.179C267.372 180.545 267.162 187.543 265.186 190.384C262.822 191.824 258.158 191.153 255.445 190.98C254.022 190.907 252.611 190.706 251.198 190.528C249.526 188.735 248.405 186.667 248.265 184.178C248.09 181.055 249.65 177.833 251.697 175.533C254.205 172.716 257.11 172.1 260.674 171.881Z" fill="#7CCF8F"/> <path d="M259.4 177.217C260.392 177.335 261.226 177.578 262.015 178.218C263.074 179.078 263.642 180.283 263.781 181.628C263.948 183.234 263.517 184.91 262.471 186.156C261.294 187.558 259.974 187.889 258.222 188.084C257.238 187.971 256.417 187.861 255.585 187.292C254.604 186.622 253.972 185.669 253.762 184.496C253.473 182.881 253.925 181.129 254.858 179.792C256.053 178.08 257.434 177.553 259.4 177.217Z" fill="#203B53"/> <path d="M258.789 179.047C259.275 179.128 259.764 179.208 260.205 179.441C261.018 179.87 261.57 180.678 261.787 181.562C262.06 182.674 261.809 183.869 261.184 184.819C260.516 185.837 259.772 186.095 258.621 186.345C258.112 186.258 257.597 186.17 257.131 185.937C256.366 185.555 255.793 184.837 255.529 184.03C255.226 183.105 255.374 182.099 255.823 181.248C256.487 179.986 257.463 179.436 258.789 179.047Z" fill="#7CCF8F"/> <path d="M110.488 152.359L110.724 152.387C113.917 152.799 116.742 154.356 118.704 156.924C120.722 159.567 121.532 163.081 121.077 166.353C120.796 168.38 120.023 171.511 118.208 172.674C117.112 173.377 114.936 172.623 113.748 172.373C111.485 172.002 104.86 171.934 103.364 170.679C102.567 170.011 102.248 168.826 102.143 167.834C101.706 163.672 102.531 158.216 105.331 154.929C106.74 153.274 108.344 152.524 110.488 152.359Z" fill="#7CCF8F"/> <path d="M111.704 157.002C113.142 157.126 114.309 157.394 115.532 158.193C115.647 158.269 115.761 158.348 115.873 158.43C115.984 158.511 116.094 158.596 116.201 158.683C116.309 158.77 116.414 158.861 116.517 158.953C116.62 159.046 116.72 159.141 116.818 159.239C116.916 159.337 117.012 159.437 117.105 159.54C117.198 159.642 117.288 159.747 117.375 159.854C117.463 159.961 117.548 160.071 117.63 160.182C117.712 160.294 117.791 160.407 117.867 160.523C117.943 160.638 118.017 160.756 118.087 160.875C118.157 160.994 118.225 161.115 118.289 161.238C118.353 161.361 118.414 161.485 118.472 161.611C118.529 161.736 118.584 161.864 118.636 161.992C118.687 162.121 118.735 162.251 118.78 162.381C118.824 162.513 118.866 162.645 118.904 162.778C118.942 162.911 118.977 163.045 119.008 163.18C119.039 163.314 119.067 163.45 119.092 163.586C119.393 165.33 119.087 167.299 118.028 168.748C117.028 170.117 115.698 170.744 114.066 171.021C112.343 171.14 110.55 171.061 109.039 170.136C107.613 169.264 106.703 167.804 106.366 166.184C105.919 164.036 106.371 161.579 107.59 159.75C108.647 158.166 109.866 157.388 111.704 157.002Z" fill="#203B53"/> <path d="M111.349 159.076C112.205 159.045 113.161 159.103 113.945 159.477C115.395 160.167 116.537 161.56 117.027 163.076C117.423 164.3 117.437 165.701 116.821 166.858C116.127 168.159 115.164 168.61 113.796 168.977C112.957 168.995 111.938 169.034 111.13 168.799C110.098 168.498 109.168 167.633 108.666 166.699C107.976 165.416 107.86 163.838 108.296 162.454C108.804 160.843 109.862 159.799 111.349 159.076Z" fill="#7CCF8F"/> <path d="M111.302 162.696C112.074 162.478 112.785 162.292 113.52 162.763C114.015 163.079 114.213 163.533 114.299 164.094C114.38 164.625 114.178 165.239 113.817 165.631C113.456 166.022 112.992 166.183 112.468 166.122C112.095 166.079 111.794 165.936 111.464 165.774C111.291 165.511 111.154 165.24 111.044 164.945C110.729 164.1 110.966 163.476 111.302 162.696Z" fill="#203B53"/> <path d="M266.525 23.08C272.609 24.0429 283.126 25.6242 288.589 27.7503C288.717 31.6674 287.745 35.9628 286.888 39.7752C286.131 40.3094 285.348 40.7156 284.523 41.1323C281.366 42.523 278.162 43.3984 274.7 42.6325C272.044 42.0452 269.851 40.6179 268.405 38.2934C265.759 34.0413 265.428 27.8545 266.525 23.08Z" fill="#46C9CB"/> <path d="M275.033 26.7398C276.62 26.7762 278.311 26.9756 279.764 27.6378C281.275 28.3259 282.545 29.519 283.075 31.1194C283.133 31.2914 283.182 31.4662 283.223 31.6431C283.263 31.8201 283.295 31.9989 283.317 32.179C283.339 32.3591 283.353 32.5401 283.357 32.7217C283.362 32.9031 283.357 33.0847 283.343 33.2659C283.329 33.4471 283.307 33.6271 283.274 33.8058C283.242 33.9846 283.202 34.1613 283.152 34.336C283.103 34.5107 283.044 34.6825 282.977 34.8515C282.91 35.0204 282.836 35.1853 282.752 35.3469C281.81 37.1979 280.091 38.2636 278.188 38.9118C276.77 39.0539 275.688 38.8494 274.442 38.1159C272.569 37.013 271.089 35.0697 270.608 32.9406C270.289 31.5244 270.429 29.9622 271.282 28.7515C272.223 27.4164 273.503 27.0333 275.033 26.7398Z" fill="#203B53"/> <path d="M274.972 28.2424C275.956 28.3171 276.931 28.3923 277.884 28.666C279.326 29.0797 280.784 30.0175 281.476 31.3874C281.901 32.2317 281.998 33.1952 281.663 34.0885C281.124 35.5282 279.563 36.4538 278.227 37.0083C277.181 37.051 276.271 37.0723 275.326 36.5647C273.894 35.7964 272.745 34.3051 272.298 32.7508C272.031 31.8209 271.996 30.7623 272.49 29.8984C273.027 28.957 273.986 28.5549 274.972 28.2424Z" fill="#FFFDE3"/> <path d="M277.134 31.1369C277.713 31.4138 278.083 31.8232 278.255 32.4627C278.44 33.1534 278.327 34.0526 277.911 34.6455C277.536 35.1796 277.273 35.2537 276.658 35.4056C276.064 35.0398 275.49 34.6438 275.162 34.0094C274.905 33.5122 274.815 32.9935 275.043 32.4613C275.439 31.5379 276.259 31.3913 277.134 31.1369Z" fill="#203B53"/> <path d="M119.427 23.5866C121.667 25.8294 123.591 26.9056 126.66 27.6757C125.795 32.8382 124.811 37.9574 124.14 43.1536C122.929 52.5151 122.183 61.9059 120.859 71.2637C117.113 97.7446 112.592 123.799 112.889 150.662C111.035 150.274 109.432 150.349 107.609 150.782C105.126 151.693 103.75 153.373 102.562 155.645C104.079 138.269 104.809 120.821 106.959 103.504C110.284 76.7317 115.43 50.2535 119.427 23.5866Z" fill="#7CCF8F"/> <path d="M221.05 16.3611C235.339 18.0233 249.57 20.0892 263.742 22.5589C262.862 27.3261 262.861 30.5613 264.078 35.2715C259.604 34.6218 255.151 33.6531 250.698 32.8682C242.364 31.3696 234.003 30.04 225.614 28.8791C210.662 26.8103 195.707 25.8143 180.689 24.4919C176.493 24.3988 172.251 24.0216 168.057 23.7925C158.251 23.3027 148.457 22.6333 138.675 21.785C139.148 20.9422 139.641 20.0915 140.018 19.2014C141.349 16.0626 141.639 12.7182 140.344 9.51331C151.992 10.8323 163.837 11.3386 175.53 12.1792C190.737 13.2044 205.911 14.5988 221.05 16.3611Z" fill="#7CCF8F"/> <path d="M245.314 174.799C246.491 174.821 247.696 174.99 248.871 175.099C247.287 177.47 246.084 180.404 245.872 183.267C245.674 185.951 246.549 188.266 248.26 190.31C215.556 185.368 182.799 180.809 149.99 176.633C141.254 175.589 132.475 174.795 123.722 173.905C122.548 173.795 121.377 173.667 120.206 173.521C120.596 172.947 120.984 172.369 121.312 171.757C123.461 167.747 123.494 163.424 122.209 159.151C133.688 161.683 145.227 163.907 156.825 165.821C168.423 167.736 180.064 169.338 191.748 170.629C209.522 172.566 227.467 173.761 245.314 174.799Z" fill="#7CCF8F"/> <path d="M270.867 44.6258C275.943 46.3572 280.52 46.2087 285.367 43.8205C285.74 43.6361 286.111 43.4483 286.48 43.2566C284.157 60.5373 282.944 77.9169 281.369 95.2765C280.258 106.404 279.025 117.519 277.67 128.619C276.417 138.958 274.828 149.245 272.906 159.48C271.787 165.25 270.289 170.946 269.189 176.713C268.505 174.286 267.721 172.114 265.406 170.774C263.294 169.551 260.406 169.493 258.106 170.165C257.444 170.361 256.791 170.583 256.146 170.831C257.681 165.401 258.948 159.796 260.015 154.255C263.839 133.875 267.001 113.392 269.5 92.8074C270.394 86.1555 271.194 79.4922 271.898 72.8174C272.732 64.9663 273.484 57.1837 272.613 49.2995C272.501 48.2918 272.415 46.7579 271.98 45.8447C271.69 45.2379 271.283 45.1747 270.712 44.921L270.867 44.6258Z" fill="#7CCF8F"/> <path d="M136.774 24.0027C150.881 25.4514 165.084 26.0386 179.231 27.0095C201.121 28.512 222.978 30.5795 244.583 34.505L255.895 36.6073C258.914 37.1532 261.993 37.5675 264.929 38.4713C266.345 40.7538 268.42 43.4086 270.868 44.6258L270.713 44.9209C269.956 46.7835 271.055 54.5582 271.051 57.0004C271.048 59.6341 270.816 62.3027 270.598 64.9277C269.468 77.6098 268.014 90.2544 266.237 102.862C263.876 121.674 260.707 140.349 256.73 158.887C255.952 162.403 254.986 169.191 252.935 171.941C250.932 173.154 237.782 171.761 234.647 171.542C222.661 170.786 210.683 169.903 198.716 168.892C186.97 167.736 175.262 166.278 163.591 164.521C154.457 163.082 145.347 161.5 136.263 159.773C131.532 158.876 126.649 157.592 121.868 157.082L121.503 157.045L121.526 157.073C119.932 154.481 117.797 152.643 115.055 151.338C114.466 145.332 115.066 139.127 115.458 133.125C116.903 110.992 120.856 89.1366 123.678 67.1635C125.359 54.0752 125.301 40.3158 129.244 27.6486C132.344 26.9521 134.286 25.9806 136.774 24.0027Z" fill="#FDFCFB"/> <path d="M146.188 33.9534C146.702 33.9453 147.179 33.9622 147.626 34.2596C148.087 34.5676 148.159 34.7373 148.239 35.2389C146.934 36.279 141.348 35.5804 137.827 38.2002C135.011 40.2951 134.34 43.7701 133.843 47.0208C133.367 47.3166 133.238 47.4159 132.687 47.4488L132.338 47.1358C132.172 46.6449 132.098 46.2433 132.107 45.7222C132.159 42.6212 133.532 39.1896 135.761 37.0434C138.719 34.1963 142.322 33.8475 146.188 33.9534Z" fill="#203B53"/> <path d="M237.233 158.953C236.72 158.961 236.242 158.944 235.796 158.647C235.335 158.339 235.263 158.169 235.183 157.668C236.488 156.627 242.074 157.326 245.595 154.706C248.41 152.611 249.082 149.136 249.579 145.886C250.055 145.59 250.184 145.491 250.735 145.458L251.084 145.771C251.249 146.262 251.324 146.663 251.315 147.184C251.262 150.285 249.89 153.717 247.661 155.863C244.703 158.71 241.1 159.059 237.233 158.953Z" fill="#203B53"/> <path d="M132.629 150.287C129.392 150.035 126.794 149.066 124.543 146.621C124.408 146.474 124.276 146.324 124.148 146.17C124.02 146.016 123.896 145.859 123.777 145.699C123.657 145.539 123.541 145.377 123.429 145.211C123.317 145.045 123.209 144.877 123.106 144.706C123.002 144.535 122.904 144.361 122.809 144.185C122.714 144.009 122.624 143.83 122.538 143.65C122.452 143.469 122.371 143.287 122.294 143.102C122.217 142.918 122.145 142.731 122.078 142.543C122.01 142.355 121.948 142.165 121.89 141.974C121.832 141.782 121.779 141.59 121.731 141.396C121.682 141.201 121.639 141.006 121.6 140.81C121.561 140.614 121.528 140.417 121.499 140.219C121.471 140.021 121.447 139.823 121.428 139.624C121.409 139.425 121.395 139.225 121.386 139.025C121.378 138.826 121.374 138.626 121.375 138.426C121.376 138.226 121.382 138.027 121.393 137.827C121.493 136.033 122.04 134.464 123.414 133.286C123.791 133.339 124.059 133.422 124.413 133.551C125.134 134.553 124.056 139.205 124.807 141.629C125.748 144.668 128.258 146.162 131.09 147.168C131.766 147.408 132.733 147.653 133.312 148.06C133.823 148.419 133.805 148.563 133.871 149.134C133.623 149.746 133.164 149.958 132.629 150.287Z" fill="#203B53"/> <path d="M235.003 184.895C235.287 184.252 235.796 183.927 236.437 183.639C236.935 181.871 237.573 180.166 238.242 178.452C237.87 177.979 237.369 177.461 237.299 176.847C237.255 176.462 237.329 176.215 237.571 175.913L237.912 175.881C238.668 176.144 238.865 176.562 239.218 177.212C239.353 176.86 239.474 176.417 239.666 176.092C239.874 175.741 239.977 175.746 240.36 175.618L240.417 175.64C240.919 175.392 241.11 174.836 241.354 174.371C241.334 174.351 241.314 174.329 241.294 174.309C240.974 173.983 240.592 173.648 240.419 173.224C240.266 172.848 240.311 172.59 240.462 172.228C240.681 172.109 240.729 172.053 240.992 172.051C241.695 172.046 242.162 172.605 242.636 173.032L244.45 171.371C244.304 170.927 244.088 170.442 244.278 169.981C244.394 169.7 244.545 169.543 244.861 169.491C245.274 169.424 245.645 169.699 245.97 169.902C246.814 169.245 252.052 165.138 252.471 165.005C252.815 165.064 252.901 165.059 253.157 165.279L253.149 165.56C252.755 166.312 252.09 166.733 251.375 167.168C253.439 166.596 255.658 165.905 257.777 165.597C258.876 165.437 260.246 165.954 261.274 165.536C261.488 165.283 261.583 165.12 261.911 164.999C262.523 165.088 263.082 165.404 263.682 165.463C264.498 165.544 265.337 165.512 266.16 165.593C271.193 166.086 275.857 167.349 280.032 170.196C284.76 173.421 289.678 180.378 291.682 185.571C292.629 188.026 293.139 190.601 293.588 193.175C294.152 193.558 294.727 194.012 295.001 194.635C294.879 195.109 294.488 195.194 294.184 195.558C293.785 196.036 293.944 196.705 293.986 197.279C294.012 198.162 293.949 199.052 293.857 199.931C293.18 206.339 290.652 211.25 285.44 215.327L286.409 216.344C286.146 216.771 285.88 217.262 285.324 217.369C284.525 217.524 283.669 216.875 283.025 216.496C282.774 216.708 281.401 217.691 281.401 217.962C281.404 218.227 281.632 218.473 281.551 218.75C281.465 219.041 281.23 219.265 280.947 219.39C280.476 219.599 279.585 219.14 279.133 218.967C278.276 219.422 277.414 219.758 276.497 220.088C276.716 220.28 276.918 220.467 277.049 220.728C277.197 221.024 277.159 221.325 277.054 221.624C276.919 221.764 276.798 221.882 276.611 221.958C275.388 222.458 274.63 221.811 273.548 221.413C273.211 221.29 273.035 221.25 272.699 221.372C272.484 221.685 272.301 221.936 271.991 222.175C271.42 222.28 270.989 222.069 270.471 221.87C270.19 221.952 270.07 221.985 269.852 222.188C269.595 222.425 269.773 222.298 269.494 222.493C269.043 222.81 268.029 222.533 267.504 222.451C267.98 222.953 268.484 223.256 269.039 223.66C269.391 223.916 269.532 224.143 269.599 224.556C269.436 224.783 269.36 224.926 269.052 224.985C267.879 225.205 265.856 222.995 264.898 222.387C263.731 221.645 261.696 221.712 260.334 221.303C257.276 220.385 254.121 218.83 251.49 217.093C244.14 212.242 238.26 205.184 236.374 196.697C235.75 193.891 235.714 191.044 235.171 188.24C235.122 187.847 235.114 187.541 235.391 187.222C236.437 186.018 234.924 186.168 235.003 184.895ZM280.604 186.118C282.352 187.944 284.294 189.601 286.098 191.378C287.647 192.904 289.068 194.566 290.685 196.027C291.003 196.314 291.614 196.944 292.047 196.978C292.068 196.979 292.089 196.975 292.11 196.973L292.117 194.782C290.126 193.592 281.759 186.374 280.604 186.118ZM276.162 188.574C279.544 191.532 282.969 194.313 286.059 197.573C287.26 198.841 289.988 202.266 291.445 202.936C291.65 202.808 291.595 202.893 291.641 202.698C291.843 201.863 291.974 201.045 292.021 200.187C289.978 198.925 287.993 197.581 286.068 196.158C284.658 195.121 277.027 188.563 276.162 188.574ZM281.7 178.859C283.368 181.243 285.148 183.548 287.038 185.774C288.432 187.393 289.926 188.937 291.225 190.63C290.981 189.707 290.702 188.826 290.349 187.936C288.931 184.813 286.771 182.781 284.362 180.344C283.701 179.675 283.02 178.781 282.261 178.229C282.422 178.46 283.131 179.308 283.13 179.522C282.753 179.227 282.317 178.703 281.858 178.607C281.705 178.82 281.738 178.729 281.7 178.859ZM273.118 191.946C274.379 192.94 275.652 193.926 276.83 195.011C278.494 196.542 288.919 206.881 289.77 207.235C290.026 207.062 289.917 207.169 290.091 206.905L290.705 205.487C288.907 204.39 287.243 203.2 285.6 201.9C283.817 200.489 274.418 192.095 273.118 191.946ZM266.15 192.373C267.508 193.5 268.882 194.616 270.206 195.779C272.521 197.811 286.574 210.661 287.51 210.907C287.768 210.79 287.915 210.663 288.112 210.467L288.428 210.011C288.261 209.45 286.625 208.499 286.07 208.097C284.109 206.669 282.202 205.178 280.35 203.623C278.248 201.873 268.152 193.063 266.46 192.399C266.361 192.36 266.253 192.354 266.15 192.373ZM260.716 193.301C262.193 195.151 265.243 197.635 267.102 199.342C272.05 203.888 278.664 210.517 284.255 214.031C284.481 213.972 284.661 213.907 284.866 213.797C284.646 213.194 280.357 210.357 279.501 209.723C277.661 208.361 275.932 206.757 274.226 205.244C271.326 202.655 268.443 200.05 265.574 197.43C264.6 196.544 261.91 193.803 260.96 193.341C260.833 193.279 260.853 193.295 260.716 193.301ZM259.452 199.004C259.92 199.631 260.5 200.166 261.059 200.719C260.914 200.893 260.639 201.113 260.667 201.341C260.778 202.24 261.975 202.738 262.454 203.464C262.833 203.797 263.216 204.127 263.602 204.452C264.405 205.444 265.099 206.133 266.202 206.812C266.347 206.935 266.489 207.039 266.656 207.134C268.506 208.185 269.956 209.905 271.599 211.246C274.137 213.282 276.801 215.154 279.59 216.861C280.094 216.452 280.638 216.134 281.199 215.806C274.935 212.72 269.668 207.754 264.498 203.247C263.165 202.086 260.907 199.734 259.452 199.004ZM265.288 210.162C268.258 213.323 271.402 216.256 274.887 218.901L276.567 218.394C276.48 218.059 275.863 217.818 275.553 217.638C273.179 216.263 270.986 214.784 268.872 213.063C267.72 212.124 266.586 210.875 265.315 210.115L265.288 210.162ZM261.678 167.68C263.178 168.828 275.418 177.369 276.089 177.365L276.073 177.255C274.505 175.852 265.22 169.04 264.832 168.151L264.904 167.745C264.358 167.347 262.826 167.397 262.158 167.478C261.918 167.507 261.857 167.516 261.678 167.68ZM270.464 168.362C270.808 168.765 271.126 169.237 271.716 169.274C271.957 169.288 272.037 169.2 272.235 169.09C271.746 168.645 271.236 168.397 270.571 168.286L270.464 168.362ZM255.983 168.205C257.766 169.629 271.407 179.91 271.923 180.022L271.815 179.818C269.281 176.898 264.337 173.371 261.225 170.767C260.073 169.803 259.137 168.591 257.968 167.662C257.413 167.758 256.483 167.798 256.025 168.099L255.983 168.205ZM250.291 169.696C251.502 170.321 252.648 171 253.767 171.766C255.428 172.904 269.95 183.648 270.482 183.58L270.077 183.21C265.548 179.452 260.748 175.986 256.388 172.046C255.218 170.989 253.895 169.91 252.948 168.659C252.218 168.916 250.845 169.216 250.291 169.696ZM259.189 214.387C261.51 216.475 263.773 218.696 266.218 220.646C267.148 220.452 268.041 220.367 268.989 220.308C268.716 219.95 260.483 215.011 259.331 214.349L259.189 214.387ZM247.258 171.277C249.448 172.729 251.458 174.533 253.502 176.173C256.259 178.385 259.126 180.378 262.033 182.4C263.208 183.217 264.293 184.145 265.525 184.884L265.585 184.831C265.429 184.652 265.277 184.471 265.107 184.303C261.752 181.482 258.24 178.843 254.94 175.96C252.814 174.103 250.857 171.785 248.506 170.206C248.04 170.539 247.621 170.834 247.258 171.277ZM244.314 173.837C246.134 175.152 256.016 184.179 257.259 184.308C257.113 184.136 256.973 183.963 256.812 183.805C253.796 181.18 250.873 178.517 248.12 175.634C247.202 174.672 246.179 173.693 245.442 172.593C245.034 172.986 244.609 173.355 244.314 173.837ZM241.677 177.015C242.561 177.933 243.472 178.826 244.412 179.692C245.639 180.808 255.79 189.701 256.473 189.919C256.402 189.663 256.321 189.559 256.128 189.37C253.307 186.792 244.062 178.615 242.603 175.859L241.677 177.015ZM251.812 201.437C251.987 201.695 252.128 201.819 252.4 201.988C252.437 202.011 252.661 202.143 252.697 202.18C252.984 202.471 252.65 202.56 252.705 202.905C253.068 202.919 253.321 202.843 253.657 202.731L253.787 202.687L253.778 202.821L253.777 202.821L253.548 203.105C253.627 203.489 254.022 203.836 254.35 204.049C254.717 204.288 255.094 204.447 255.539 204.365C255.579 204.107 255.479 204.042 255.322 203.832C255.184 203.647 255.032 203.469 254.876 203.295L254.402 202.779C254.042 202.173 253.498 201.432 252.894 201.037C252.586 200.837 252.426 200.82 252.07 200.879C251.883 201.11 251.848 201.15 251.812 201.437ZM241.082 204.82C244.736 210.032 249.02 214.384 254.781 217.491C254.984 217.464 254.925 217.508 255.002 217.433C251.822 214.854 248.682 212.266 245.743 209.428C244.169 207.908 242.756 206.238 241.184 204.722L241.082 204.82ZM238.025 186.429C240.561 189.444 243.162 192.372 245.814 195.292C247.675 197.343 249.5 199.408 251.559 201.281C251.863 200.969 252.291 200.632 252.34 200.192C252.211 199.702 251.712 199.286 251.366 198.916C248.454 195.495 245.645 191.998 242.94 188.425C241.505 186.564 239.996 184.754 238.755 182.764C238.256 183.901 238.057 185.2 238.025 186.429ZM237.661 189.141C237.406 189.503 237.437 190.088 237.464 190.522C237.501 191.357 237.552 192.195 237.568 193.03C237.985 192.841 238.159 192.704 238.624 192.756C239.41 193.322 240.045 194.08 240.728 194.756C241.998 195.991 243.25 197.243 244.484 198.51C244.895 198.933 245.291 199.48 245.732 199.856C245.917 200.012 246.13 200.054 246.363 200.098C246.386 200.48 246.344 200.526 246.617 200.796C246.892 200.873 247.16 200.938 247.439 200.999C247.671 201.05 247.744 201.105 247.906 201.263L247.858 201.446L247.429 201.673C247.442 201.943 247.593 202.132 247.82 202.303C248.152 202.552 248.608 202.542 249.01 202.567L249.271 202.758C249.122 203.01 249.22 202.898 248.966 203.087C249.442 203.825 250.691 204.874 251.439 205.383C251.736 205.26 251.739 205.206 251.904 204.933L251.884 204.727L251.305 204.899L251.212 204.802C251.299 204.651 251.381 204.527 251.486 204.389L251.482 204.342L251.107 204.153C251.103 203.922 251.08 204.032 251.171 203.822C250.772 203.654 250.343 203.874 249.974 203.736C250.264 203.624 250.546 203.507 250.828 203.376L250.826 203.217L250.581 203.058C250.357 203.115 249.828 203.339 249.624 203.281C249.812 203.071 249.983 202.975 250.237 202.847L250.101 202.815L250.321 202.783C249.821 201.923 248.023 200.342 247.25 199.515C245.496 197.646 243.752 195.767 242.02 193.879C240.94 192.683 238.923 189.916 237.661 189.141ZM239.519 180.941C242.234 183.121 244.632 185.842 247.093 188.29C247.913 189.106 248.725 190.028 249.642 190.738L249.381 190.264C247.569 188.312 245.722 186.397 243.953 184.408C242.703 183.003 241.526 181.412 240.125 180.151L239.896 180.146C239.643 180.41 239.604 180.602 239.519 180.941ZM237.903 194.82C237.745 195.059 237.802 195.085 237.837 195.355C237.915 195.793 237.979 196.239 238.073 196.674C240.06 198.272 241.694 200.078 243.417 201.923C244.484 203.066 245.595 204.339 246.879 205.26L247.01 205.242L246.716 204.844C244.553 203.076 241.877 199.824 240.104 197.628C239.475 196.85 238.705 195.374 237.903 194.82Z" fill="white"/> <path d="M268.948 198.798H263.882V188.156L260.278 189.448C259.938 189.244 259.609 188.961 259.292 188.598C258.997 188.235 258.85 187.737 258.85 187.102C258.85 185.901 259.575 185.062 261.026 184.586L265.072 183.09H266.194C267.032 183.09 267.701 183.339 268.2 183.838C268.698 184.337 268.948 185.005 268.948 185.844V198.798ZM263.882 195.024H268.948V203.966C268.721 204.034 268.404 204.102 267.996 204.17C267.588 204.238 267.146 204.272 266.67 204.272C265.718 204.272 265.015 204.102 264.562 203.762C264.108 203.422 263.882 202.799 263.882 201.892V195.024Z" fill="#203B53"/> <path d="M192.264 50.828C194.506 48.0908 196.904 46.0194 200.536 45.4211C204.187 44.8199 208.628 45.8182 211.623 48.0046C214.968 50.4478 216.084 53.9221 216.685 57.8338C224.649 63.0644 231.418 71.6641 235.927 79.9526C240.038 87.5087 243.749 96.0726 241.156 104.763C241.182 104.841 241.207 104.92 241.235 104.998C241.397 105.457 241.574 105.913 241.674 106.392C242.394 109.83 241.787 113.261 239.896 116.207C240.249 117.934 240.197 119.494 239.716 121.183C238.948 123.882 236.985 127.125 234.493 128.535C233.318 129.504 231.859 130.416 230.871 131.568C227.701 135.268 227.575 137.978 221.992 138.829C220.733 140.82 219.055 142.258 217.319 143.815L217.345 143.929C216.821 144.384 216.695 144.775 216.488 145.429C210.482 147.148 206.286 148.423 199.854 149.227C193.542 149.59 184.707 148.884 184.707 148.884L178.338 147.825L169.088 145.254C166.319 143.625 163.423 143.055 160.613 141.472C160.32 141.03 160.21 140.826 159.728 140.576C158.464 139.922 157.708 138.097 156.515 137.781C153.781 135.83 151.983 131.98 150.84 128.942C149.831 129.271 148.785 129.305 147.765 129.011C146.293 128.587 145.271 127.571 144.536 126.258C142.643 122.876 143.451 120.208 142.916 116.71C142.612 114.717 141.548 112.837 141.212 110.818C140.09 104.09 142.201 97.1031 143.99 90.6872C143.784 90.2251 143.547 89.7352 143.459 89.2334C142.941 86.2902 144.62 81.7481 146.252 79.3267C148.017 76.7077 150.613 75.3955 152.652 73.133C153.93 71.7158 154.82 70.0295 156.14 68.6162C156.601 68.1174 157.072 67.6273 157.55 67.1449C158.029 66.6625 158.516 66.1891 159.011 65.7246C159.507 65.2598 160.01 64.8038 160.522 64.3572C161.034 63.9102 161.554 63.4721 162.081 63.0437C162.608 62.6153 163.142 62.1961 163.684 61.7862C164.226 61.3764 164.775 60.9765 165.331 60.5863C165.887 60.1961 166.45 59.8159 167.02 59.4453C167.59 59.0751 168.165 58.7148 168.748 58.365C169.331 58.0152 169.918 57.6756 170.513 57.3464C171.108 57.0172 171.708 56.6988 172.313 56.3909C172.918 56.0831 173.529 55.786 174.146 55.4995C174.762 55.2131 175.383 54.9381 176.009 54.6737C176.635 54.4092 177.265 54.1562 177.9 53.9142C178.535 53.6722 179.174 53.4415 179.817 53.2222C180.46 53.0028 181.107 52.7948 181.757 52.5985C182.407 52.4022 183.061 52.2172 183.718 52.0438C186.056 51.4206 188.642 51.1945 191.034 50.725L191.419 51.2808L191.59 51.2045L191.465 50.6216L191.859 50.7342L192.02 50.5814L192.174 50.9179L192.264 50.828Z" fill="#F8CEB3"/> <path d="M206.972 98.5728C207.207 98.8994 207.475 99.2241 207.667 99.5767L207.19 100.66L206.186 100.538L206.972 98.5728Z" fill="#203B53"/> <path d="M185.248 125.504C184.935 125.283 185 125.268 184.911 124.917C185.18 124.336 185.683 124.044 186.185 123.677L187.047 124.394L185.248 125.504Z" fill="#203B53"/> <path d="M186.211 127.172C187.111 127.465 187.945 127.711 188.893 127.816C188.702 128.185 188.587 128.437 188.154 128.585C187.667 128.751 187.203 128.696 186.767 128.429C186.326 128.157 186.29 127.63 186.211 127.172Z" fill="#203B53"/> <path d="M205.831 101.386L206.184 100.539L207.188 100.66C206.557 102.029 205.979 103.494 205.222 104.794L204.603 104.168L205.831 101.386Z" fill="#203B53"/> <path d="M186.186 123.677C187.124 123.408 188.134 123.274 189.013 123.806C189.525 124.116 190.093 124.597 190.295 125.182C190.369 125.396 190.361 125.584 190.366 125.801L190.121 126.11L189.682 126.091C189.491 125.675 189.296 125.3 188.977 124.968C188.445 124.416 187.759 124.43 187.048 124.393L186.186 123.677Z" fill="#203B53"/> <path d="M187.046 124.393C187.757 124.43 188.444 124.415 188.975 124.968C189.294 125.3 189.49 125.675 189.681 126.091C189.369 126.662 189.083 127.192 188.894 127.816C187.946 127.711 187.112 127.465 186.212 127.172C185.846 126.648 185.556 126.065 185.248 125.504L187.046 124.393Z" fill="#FBFBFA"/> <path d="M167.912 110.333C168.367 110.367 168.825 110.452 169.268 110.561C170.417 110.843 171.679 111.545 172.262 112.621C172.509 113.077 172.541 113.315 172.386 113.798L171.921 113.886C171.332 113.7 171.068 113.32 170.682 112.867L170.512 112.663C168.936 111.427 167.097 112.04 165.247 112.053L165.049 111.801L165.167 111.407C165.949 110.682 166.88 110.45 167.912 110.333Z" fill="#203B53"/> <path d="M207.321 113.762C208.17 113.743 209.092 113.775 209.902 114.046C211.111 114.45 211.927 115.265 212.438 116.427C212.701 117.024 212.733 117.488 212.512 118.094L212.134 118.129C211.422 117.717 210.873 116.319 210.311 115.619C208.085 114.42 206.14 115.635 203.839 115.769L203.646 115.515L203.805 115.165C204.864 114.349 206.045 114.053 207.321 113.762Z" fill="#203B53"/> <path d="M193.766 134.965C193.811 135.004 193.862 135.036 193.901 135.081C194.116 135.33 194.224 135.461 194.205 135.793C194.172 136.406 193.841 136.734 193.406 137.128C191.616 138.754 188.807 139.318 186.461 139.116C183.525 138.863 181.374 137.644 179.541 135.401C179.398 134.986 179.266 134.73 179.404 134.298C180.276 134.39 181.302 135.895 182.036 136.488C183.804 137.914 186.466 138.445 188.682 138.131C190.974 137.806 192.395 136.727 193.766 134.965Z" fill="#203B53"/> <path d="M197.51 148.334C203.909 148.192 210.205 146.767 215.66 143.333C216.22 143.566 216.704 143.787 217.32 143.815L217.346 143.929C216.821 144.385 216.695 144.776 216.488 145.43C210.482 147.149 206.705 148.845 200.273 149.648C199.612 149.035 198.379 148.573 197.51 148.334Z" fill="#203B53"/> <path d="M167.367 114.463C167.683 114.478 168 114.493 168.312 114.542C169.132 114.668 169.834 115.271 170.301 115.934C171.122 117.1 171.229 118.719 170.99 120.085C170.651 122.032 169.674 123.532 168.049 124.625C167.7 124.664 167.33 124.68 166.98 124.646C166.261 124.576 165.585 124.029 165.18 123.454C164.265 122.153 164.298 120.149 164.606 118.658C165 116.751 165.742 115.515 167.367 114.463Z" fill="#203B53"/> <path d="M167.536 117.192C168.148 117.389 168.33 117.524 168.642 118.068C168.638 118.777 168.37 119.19 168.018 119.793C167.497 119.515 167.331 119.357 167.06 118.832C167.028 118.145 167.212 117.79 167.536 117.192Z" fill="#FBFBFA"/> <path d="M208.144 118.865C208.561 118.921 208.955 119.016 209.335 119.201C210.284 119.664 210.95 120.829 211.23 121.807C211.736 123.577 211.501 125.771 210.547 127.355C209.916 128.402 209.217 128.769 208.069 129.086C207.699 129.025 207.336 128.939 206.991 128.786C206.13 128.404 205.535 127.535 205.208 126.68C204.535 124.926 204.711 122.719 205.529 121.044C206.124 119.826 206.882 119.278 208.144 118.865Z" fill="#203B53"/> <path d="M207.854 121.134L208.649 121.399C208.994 121.762 209.197 122.002 209.213 122.524C209.234 123.193 208.874 123.656 208.46 124.13C208.293 124.084 208.033 124.022 207.884 123.943C207.43 123.7 207.358 123.459 207.179 123.013C207.231 122.264 207.498 121.785 207.854 121.134Z" fill="#FBFBFA"/> <path d="M214.509 94.3215C215.659 94.7414 216.551 97.0198 217.05 98.1763C217.098 98.289 217.139 98.405 217.184 98.5193L216.368 98.9201C215.992 98.1231 215.489 96.7162 214.736 96.2449C213.787 97.7818 212.872 99.3555 211.773 100.79L212.201 101.582C211.601 102.295 211.018 103.106 210.34 103.739C208.929 105.561 206.758 107.749 204.335 108.006C203.74 108.07 203.538 107.919 203.069 107.577C203.403 106.388 204.054 105.272 204.604 104.168L205.223 104.794C205.98 103.494 206.558 102.03 207.189 100.66L207.666 99.5774C207.474 99.2247 207.206 98.9001 206.971 98.5734C207.041 98.0337 207.286 97.4208 207.439 96.8928L207.459 96.2151L207.395 95.9247L208.682 95.7974C208.732 95.2447 208.831 94.7047 208.924 94.1579C208.941 94.6597 208.846 95.365 209.248 95.7047C210.188 96.4989 212.123 96.3419 213.321 96.4914C213.837 95.8282 214.154 95.0774 214.509 94.3215Z" fill="#203B53"/> <path d="M211.773 100.791L212.201 101.582C211.602 102.295 211.019 103.107 210.34 103.74L210.024 103.582L210.135 103.467L210.391 103.519L210.022 103.385C209.558 103.64 209.117 103.906 208.617 104.081C209.696 103.01 210.733 101.901 211.773 100.791Z" fill="#E49543"/> <path d="M208.617 104.081C209.117 103.905 209.558 103.639 210.022 103.385L210.391 103.519L210.135 103.467L210.024 103.582L210.34 103.74C208.929 105.561 206.758 107.749 204.336 108.007C203.74 108.07 203.538 107.919 203.069 107.578C205.073 106.894 206.913 105.31 208.617 104.081Z" fill="#F7B89F"/> <path d="M208.924 94.1571C208.941 94.6588 208.846 95.3641 209.248 95.7038C210.188 96.4981 212.122 96.341 213.321 96.4906L212.889 97.5604C212.163 98.129 211.658 99.0719 211.078 99.7908C209.737 101.453 207.536 104.09 205.528 104.933L205.223 104.794C205.98 103.494 206.558 102.029 207.189 100.66L207.666 99.577C207.473 99.2243 207.206 98.8997 206.971 98.573C207.041 98.0333 207.285 97.4203 207.439 96.8924L207.459 96.2146L207.395 95.9242L208.682 95.797C208.731 95.2442 208.831 94.7039 208.924 94.1571Z" fill="#E46338"/> <path d="M207.395 95.924L208.682 95.7968L208.344 97.4269L207.44 96.8926L207.46 96.2148L207.395 95.924Z" fill="#203B53"/> <path d="M207.439 96.8924L208.344 97.4267C208.127 98.1072 207.783 98.8808 207.666 99.5769C207.473 99.2243 207.206 98.8996 206.971 98.573C207.041 98.0336 207.285 97.4207 207.439 96.8924Z" fill="#203B53"/> <path d="M214.737 96.2449C215.49 96.7162 215.994 98.1231 216.37 98.9201C220.336 107.499 223.313 116.667 224.205 126.106C224.419 128.376 224.694 130.936 223.948 133.14C223.654 134.009 223.151 134.904 222.552 135.601C222.52 135.082 222.714 134.595 222.842 134.098C223.022 133.398 223.205 132.646 223.211 131.922C223.225 130.08 222.631 127.881 222.302 126.064C221.046 119.141 219.714 112.506 217.203 105.906C216.66 104.476 216.158 102.928 215.348 101.624C214.924 100.94 214.587 100.612 213.797 100.435C213.105 100.585 212.69 101.106 212.202 101.582L211.774 100.79C212.874 99.3554 213.788 97.7818 214.737 96.2449Z" fill="#F69373"/> <path d="M204.936 99.3338C205.066 99.9274 205.128 100.278 205.009 100.889C200.894 106.844 192.948 110.97 185.953 112.235C182.12 112.928 176.494 112.484 173.174 110.293C172.967 110.156 172.842 110.011 172.718 109.8L172.667 109.391C172.696 109.391 172.725 109.395 172.754 109.393C174.747 109.225 176.726 109.339 178.726 109.305C178.789 109.314 178.852 109.329 178.915 109.333C181.251 109.473 183.772 109.194 186.078 108.846C193.815 107.679 199.297 104.627 204.936 99.3338Z" fill="#F7B89F"/> <path d="M216.369 98.9202L217.184 98.5194C221.07 106.205 224.285 115.303 225.287 123.888C225.572 126.329 225.57 128.77 225.559 131.223C229.279 127.429 231.936 122.338 233.876 117.434L234.415 118.523C233.337 122.152 231.842 125.755 229.471 128.741C229.25 129.081 228.993 129.455 228.693 129.727L230.81 129.954C230.867 129.949 230.924 129.941 230.982 129.938C231.834 129.895 232.381 129.436 233.063 128.974C233.531 128.765 233.999 128.66 234.494 128.535C233.319 129.505 231.86 130.416 230.873 131.569C227.702 135.268 227.576 137.979 221.994 138.829C220.734 140.82 219.056 142.259 217.321 143.815C216.705 143.787 216.221 143.565 215.661 143.333C218.562 141.173 220.742 138.72 222.552 135.6C223.151 134.903 223.654 134.008 223.948 133.139C224.693 130.935 224.419 128.375 224.205 126.105C223.312 116.667 220.335 107.499 216.369 98.9202Z" fill="#203B53"/> <path d="M228.693 129.727L230.81 129.954L230.609 130.143C227.58 132.941 227.279 135.814 222.936 137.441C224.196 135.269 226.45 130.838 228.693 129.727Z" fill="#F7B89F"/> <path d="M208.154 129.926C209.692 130.034 211.228 130.156 212.578 130.973C213.916 131.784 214.817 133.057 215.131 134.592C215.17 134.782 215.198 134.972 215.217 135.165C215.236 135.358 215.245 135.551 215.244 135.744C215.243 135.937 215.233 136.13 215.213 136.322C215.193 136.514 215.162 136.705 215.123 136.895C215.083 137.084 215.034 137.271 214.976 137.455C214.917 137.639 214.849 137.82 214.772 137.997C214.695 138.175 214.609 138.347 214.515 138.516C214.42 138.685 214.317 138.848 214.206 139.006C212.974 140.733 211.268 141.379 209.273 141.745C207.298 141.617 205.336 141.217 203.778 139.913C202.667 138.982 201.963 137.704 201.888 136.247C201.804 134.631 202.446 132.943 203.568 131.78C204.827 130.476 206.38 129.951 208.154 129.926Z" fill="#F4747A"/> <path d="M162.659 124.984C164.267 125.048 165.573 125.233 167.002 126.055C168.608 126.977 169.929 128.492 170.358 130.321C170.701 131.784 170.473 133.348 169.613 134.594C168.404 136.346 166.496 136.85 164.522 137.181C162.588 137.254 160.513 136.851 158.901 135.733C157.609 134.837 156.744 133.516 156.516 131.953C156.286 130.38 156.767 128.698 157.74 127.45C158.991 125.844 160.715 125.264 162.659 124.984Z" fill="#E95962"/> <path d="M161.902 86.4745C181.322 83.2854 210.977 87.4677 228.074 97.4178C228.433 98.6872 229.042 99.8729 229.386 101.132C229.792 102.465 230.334 106.219 231.324 106.968C231.82 105.534 231.27 103.738 230.978 102.305L231.285 102.123C234.261 103.149 237.469 104.698 240.187 106.284C240.951 109.42 240.456 112.257 239.133 115.163C237.783 113.908 236.514 113.747 234.767 113.402C234.565 114.49 234.455 115.979 233.879 116.931L233.877 117.433C231.936 122.337 229.279 127.429 225.559 131.223C225.571 128.77 225.572 126.329 225.288 123.888C224.286 115.303 221.071 106.205 217.185 98.5191C217.14 98.4052 217.099 98.2888 217.051 98.1761C216.552 97.0196 215.66 94.7412 214.51 94.3213C214.156 95.0772 213.838 95.828 213.322 96.4904C212.124 96.3409 210.189 96.4983 209.249 95.7037C208.848 95.364 208.942 94.6587 208.925 94.1569C208.832 94.7037 208.733 95.2437 208.683 95.7964L207.396 95.9237L207.46 96.2141C206.648 97.2763 205.856 98.3594 204.937 99.3333C199.297 104.627 193.815 107.679 186.078 108.846C183.772 109.193 181.251 109.472 178.915 109.332C178.852 109.329 178.789 109.314 178.726 109.305C176.726 109.338 174.748 109.225 172.754 109.392C172.725 109.395 172.696 109.391 172.666 109.39C174.085 107.079 177.657 104.322 179.714 102.378C180.518 101.228 181.739 100.162 182.71 99.1431L183.151 98.3435C182.363 98.4593 178.864 101.328 177.961 101.898C173.045 105.002 162.553 109.17 156.754 107.254C156.426 107.221 156.196 107.131 155.89 107.017C155.478 106.458 155.553 105.797 155.535 105.132C155.571 101.42 157.331 97.613 157.372 94.5613C158.17 92.5024 159.524 90.5241 160.666 88.6366L160.223 88.4683C158.951 89.0749 158.602 90.6273 157.735 91.616C157.354 91.3764 157.099 91.3513 156.663 91.3729C154.571 91.4757 152.452 92.0413 150.365 92.2916C148.604 92.5028 146.629 92.4176 144.922 92.8056C144.851 92.8214 144.782 92.8443 144.712 92.8639C144.885 92.025 145.019 91.1768 145.166 90.3328C150.426 88.3313 156.378 87.4824 161.902 86.4745Z" fill="#D56B26"/> <path d="M155.535 105.133C156.681 105.397 157.442 105.848 158.305 106.636C157.747 106.8 157.255 106.946 156.754 107.255C156.426 107.222 156.196 107.132 155.89 107.017C155.477 106.459 155.553 105.798 155.535 105.133Z" fill="#E49543"/> <path d="M208.787 92.9461L208.923 94.1573C208.831 94.7041 208.731 95.244 208.681 95.7968L207.394 95.9241C207.207 95.6303 206.986 95.4784 206.717 95.2621C207.367 94.4204 207.906 93.5657 208.787 92.9461Z" fill="#203B53"/> <path d="M179.714 102.378C180.518 101.228 181.738 100.162 182.709 99.1434L183.369 99.6486C182.238 101.018 181.08 102.405 179.766 103.605C179.903 102.998 179.98 102.929 179.714 102.378Z" fill="#203B53"/> <path d="M179.714 102.378C179.98 102.929 179.903 102.998 179.766 103.605C178.162 105.237 176.507 106.816 174.8 108.34C176.149 108.312 177.491 108.288 178.839 108.337C178.738 108.389 178.638 108.446 178.535 108.494C177.638 108.915 175.751 108.7 174.793 108.52L174.495 108.116L174.226 108.106L173.695 108.626L173.838 108.826C175.396 109.048 177.309 108.556 178.726 109.305C176.726 109.339 174.747 109.225 172.754 109.393C172.724 109.395 172.695 109.391 172.666 109.391C174.084 107.079 177.657 104.323 179.714 102.378Z" fill="#203B53"/> <path d="M208.788 92.9463C210.055 92.5615 213.216 93.5942 214.362 94.2294C214.412 94.2576 214.46 94.2909 214.51 94.3215C214.155 95.0774 213.838 95.8282 213.322 96.4906C212.123 96.341 210.189 96.4985 209.249 95.7039C208.847 95.3641 208.942 94.6588 208.925 94.1571L208.788 92.9463Z" fill="#E49543"/> <path d="M178.838 108.337C180.87 108 182.983 108.11 185.029 107.818C193.94 106.55 201.307 102.501 206.717 95.2617C206.985 95.4779 207.207 95.6299 207.394 95.9236L207.458 96.214C206.646 97.2763 205.854 98.3593 204.935 99.3332C199.295 104.626 193.813 107.678 186.076 108.845C183.77 109.193 181.249 109.472 178.913 109.332C178.85 109.328 178.787 109.314 178.724 109.305C177.308 108.555 175.394 109.047 173.837 108.826L173.694 108.626L174.225 108.105L174.493 108.116L174.792 108.52C175.749 108.7 177.637 108.914 178.534 108.494C178.637 108.446 178.737 108.39 178.838 108.337Z" fill="#203B53"/> <path d="M188.632 91.2085C187.28 94.2363 185.31 96.9753 183.369 99.6487L182.709 99.1435L183.15 98.344C182.362 98.4597 178.863 101.329 177.96 101.899C173.044 105.002 162.552 109.171 156.753 107.255C157.254 106.946 157.746 106.8 158.305 106.635C158.369 106.638 158.434 106.646 158.498 106.644C170.402 106.309 180.898 99.8813 188.632 91.2085Z" fill="#203B53"/> <path d="M193.44 89.3953C196.939 89.5814 203.969 90.9429 207.32 92.0373C203.96 96.2608 199.547 99.0732 194.776 101.436C193.084 102.284 191.271 103.023 189.439 103.502C188.257 103.81 185.791 104.434 184.735 103.716C184.482 103.544 184.535 103.598 184.502 103.342L184.845 103.121L184.581 102.951C186.166 100.469 193.111 91.9179 193.398 89.7878C193.416 89.6576 193.426 89.5267 193.44 89.3953Z" fill="#E49543"/> <path d="M228.398 121.375C226.78 116.085 225.26 110.702 223.036 105.627C221.609 102.367 219.136 99.1154 218.209 95.7002C222.071 97.2203 225.717 99.2033 229.384 101.133C229.791 102.465 230.333 106.22 231.323 106.968C231.819 105.535 231.269 103.738 230.977 102.305L231.284 102.123C234.259 103.15 237.468 104.698 240.186 106.284C240.95 109.42 240.455 112.257 239.132 115.163C237.781 113.908 236.512 113.748 234.765 113.403C234.563 114.49 234.454 115.98 233.877 116.931C233.725 116.607 233.754 116.762 233.798 116.318C233.811 116.194 233.832 116.071 233.848 115.947L233.728 115.871C231.924 117.634 230.459 119.919 228.398 121.375Z" fill="#E49543"/> <path d="M180.862 87.9704C183.624 87.9661 186.483 88.4519 189.222 88.7821C187.431 90.1506 185.771 91.6873 183.994 93.0764C178.814 97.1269 173.19 100.04 166.896 101.95C166.564 102.049 166.229 102.139 165.891 102.22C164.482 102.558 162.313 103.175 161.041 102.192C160.423 101.715 160.215 100.917 160.201 100.173C160.133 96.7009 163.077 91.2406 165.517 88.9428C167.315 87.2506 178.167 87.9087 180.862 87.9704Z" fill="#E49543"/> <path d="M200.536 45.4211C196.904 46.0194 194.506 48.0908 192.264 50.828L192.174 50.9195L192.02 50.583L191.859 50.7358L191.465 50.6232L191.59 51.2061L191.419 51.2824L191.033 50.7266C188.641 51.1961 186.056 51.4222 183.718 52.0454C183.061 52.2188 182.407 52.4038 181.757 52.6002C181.107 52.7964 180.46 53.0044 179.817 53.2238C179.174 53.4431 178.535 53.6738 177.9 53.9158C177.265 54.1578 176.634 54.4108 176.009 54.6753C175.383 54.9397 174.762 55.2147 174.145 55.5011C173.529 55.7876 172.918 56.0847 172.313 56.3925C171.707 56.7004 171.107 57.0189 170.513 57.348C169.918 57.6772 169.33 58.0168 168.748 58.3666C168.165 58.7164 167.589 59.0767 167.02 59.4469C166.45 59.8175 165.887 60.1977 165.331 60.5879C164.775 60.9781 164.226 61.378 163.684 61.7878C163.142 62.1977 162.607 62.6169 162.08 63.0453C161.553 63.4737 161.034 63.9118 160.522 64.3588C160.01 64.8054 159.507 65.2614 159.011 65.7262C158.516 66.1907 158.029 66.6641 157.55 67.1465C157.071 67.6289 156.601 68.119 156.14 68.6178C154.82 70.0311 153.93 71.7174 152.652 73.1346C150.613 75.3972 148.017 76.7093 146.252 79.3283C144.62 81.7497 142.941 86.2918 143.459 89.235C143.547 89.7368 143.784 90.2267 143.99 90.6889C142.2 97.1047 140.09 104.092 141.212 110.819C141.548 112.839 142.612 114.719 142.916 116.712C143.451 120.21 142.642 122.877 144.536 126.259C145.271 127.573 146.293 128.588 147.765 129.012C148.785 129.307 149.831 129.273 150.839 128.943C151.983 131.981 153.781 135.832 156.515 137.783C157.708 138.098 158.463 139.924 159.728 140.578C160.21 140.827 160.32 141.031 160.613 141.473C163.422 143.057 175.301 151.764 200.273 149.649C199.612 149.036 198.378 148.574 197.51 148.335C187.057 148.785 175.778 147.624 166.235 143.112C160.204 140.26 154.615 135.699 152.343 129.224C149.01 119.73 153.107 103.498 157.37 94.5628C158.168 92.5039 159.522 90.526 160.664 88.6381L160.221 88.4698C158.95 89.0761 158.6 90.6288 157.733 91.6175C157.352 91.3779 157.097 91.3528 156.661 91.3744C154.569 91.4772 152.45 92.0428 150.363 92.2931C148.602 92.5043 146.627 92.4187 144.92 92.8072C144.849 92.8229 144.78 92.8458 144.71 92.8654C144.884 92.0265 145.017 91.1783 145.164 90.3343C150.424 88.3316 156.376 87.4827 161.9 86.4744C181.32 83.2852 210.975 87.468 228.072 97.4177C228.431 98.6871 229.041 99.8728 229.384 101.132C229.79 102.465 230.332 106.219 231.322 106.968C231.818 105.534 231.268 103.738 230.977 102.305L231.283 102.123C234.259 103.149 237.467 104.698 240.186 106.284C240.949 109.42 240.454 112.256 239.131 115.163C237.781 113.908 236.512 113.747 234.765 113.402C234.563 114.49 234.454 115.979 233.877 116.931L233.875 117.433L234.413 118.522C233.335 122.151 231.841 125.754 229.47 128.741C229.248 129.08 228.992 129.455 228.692 129.726L230.809 129.954C230.866 129.948 230.923 129.941 230.981 129.938C231.833 129.895 232.379 129.436 233.062 128.974C233.53 128.765 233.998 128.66 234.493 128.535C236.985 127.125 238.948 123.882 239.716 121.183C240.197 119.494 240.249 117.934 239.896 116.207C241.787 113.261 242.394 109.83 241.674 106.392C241.574 105.913 241.397 105.457 241.235 104.998C241.207 104.92 241.182 104.841 241.156 104.763C243.749 96.0726 240.038 87.5087 235.927 79.9526C231.418 71.6641 224.649 63.0644 216.685 57.8338C216.084 53.9221 214.968 50.4478 211.623 48.0046C208.628 45.8182 204.187 44.8199 200.536 45.4211Z" fill="#203B53"/> <path d="M149.674 122.068C149.914 124.019 150.215 125.961 150.579 127.893C149.714 127.921 148.82 128 147.959 127.898C149.069 126.854 147.815 123.895 149.674 122.068Z" fill="#F7B89F"/> <path d="M234.767 126.715C234.517 126.449 234.452 126.342 234.317 126.019C235.013 124.297 235.706 122.551 236.116 120.735C236.468 119.173 236.663 117.557 237.071 116.012C237.162 115.666 237.301 115.467 237.55 115.218C238.51 116.198 239.027 117.106 239.049 118.509C239.095 121.361 237.077 124.453 235.111 126.396C234.999 126.506 234.884 126.611 234.767 126.715Z" fill="#F8CEB3"/> <path d="M229.516 97.9258C233.305 99.945 238.797 101.885 240.185 106.284C237.467 104.698 234.259 103.149 231.283 102.123L230.976 102.304C230.527 100.836 230.111 99.3429 229.516 97.9258Z" fill="#D56B26"/> <path d="M206.127 47.4471C209.112 48.1049 211.792 49.6404 213.427 52.3038C214.392 53.8738 214.761 55.5122 215.028 57.3138C213.054 56.1003 210.998 55.0488 208.859 54.1593C208.487 50.5493 205.741 49.6014 204.587 47.4166L206.127 47.4471Z" fill="#CDDE72"/> <path d="M235.177 114.118C236.033 114.412 236.836 114.64 237.551 115.217C237.302 115.467 237.163 115.666 237.072 116.012C236.664 117.557 236.468 119.173 236.116 120.734C235.706 122.551 235.014 124.297 234.317 126.019C234.453 126.341 234.517 126.449 234.767 126.714L234.398 127.235C234.087 128.037 233.394 128.116 233.062 128.974C232.38 129.436 231.833 129.895 230.981 129.938C230.923 129.941 230.866 129.949 230.809 129.954L228.692 129.726C228.992 129.455 229.248 129.08 229.47 128.741C231.841 125.754 233.335 122.151 234.414 118.523C234.837 117.052 235.02 115.635 235.177 114.118Z" fill="#F69373"/> <path d="M234.399 127.236C234.088 128.038 233.395 128.116 233.063 128.974C232.38 129.437 231.834 129.896 230.982 129.939C230.924 129.942 230.867 129.949 230.81 129.955L228.693 129.727C228.993 129.455 229.249 129.081 229.471 128.742C231.146 129.181 232.93 127.882 234.399 127.236Z" fill="#203B53"/> <path d="M147.959 127.898C147.831 127.834 147.705 127.768 147.58 127.699C146.061 126.85 145.126 125.147 144.699 123.509C143.639 119.439 144.608 115.897 146.718 112.389C146.908 113.52 147.117 114.726 147.496 115.808C148.23 117.902 149.735 119.81 149.674 122.067C147.815 123.895 149.069 126.853 147.959 127.898Z" fill="#F8CEB3"/> <path d="M194.453 50.9963C195.335 50.0076 196.144 49.1332 197.296 48.4363C200.117 46.7306 203.034 46.7422 206.126 47.4472L204.586 47.4164C205.741 49.6011 208.486 50.549 208.858 54.159C204.41 52.2993 199.281 51.059 194.453 50.9963Z" fill="#8CD464"/> <path d="M205.169 54.1644C218.761 58.3359 228.267 68.8381 234.768 81.0842C235.762 82.9568 236.683 84.8284 237.288 86.8652C235.745 85.8405 234.195 84.8262 232.638 83.8228C232.639 83.7487 232.651 83.6739 232.641 83.6007C232.537 82.8447 231.402 81.6446 230.943 81.0164C225.976 74.2206 220.051 67.5149 213.672 62.0093C211.078 59.77 207.981 57.9808 205.513 55.614C205.115 55.2318 204.849 55.0242 204.817 54.4513L205.169 54.1644Z" fill="#CDDE72"/> <path d="M144.711 92.8656C144.78 92.846 144.849 92.8231 144.92 92.8073C146.628 92.4189 148.603 92.5045 150.364 92.2933C152.451 92.043 154.57 91.4774 156.661 91.3746C157.097 91.353 157.353 91.3781 157.734 91.6177C152.882 100.647 150.871 108.139 149.921 118.368C148.647 116.466 148.136 114.79 147.772 112.552C147.669 111.923 147.633 111.19 147.381 110.603C147.257 110.315 147.299 110.418 146.932 110.34C145.573 111.423 144.656 113.706 143.843 115.243C141.328 107.623 142.989 100.457 144.711 92.8656Z" fill="#E49543"/> <path d="M154.471 73.4172C156.407 70.1817 159.226 67.4763 162.087 65.0647C172.396 56.3768 184.707 51.4451 198.306 52.6059L198.157 52.6966C196.556 53.6498 194.763 54.336 193.127 55.2731C186.676 58.9675 181.962 63.3843 177.607 69.338L177.644 69.7636C178.023 69.9913 178.348 70.0348 178.782 70.1009C170.659 69.9703 162.235 71.0209 154.471 73.4172Z" fill="#63C071"/> <path d="M146.097 83.0989C146.311 83.3254 146.507 83.6824 146.835 83.7024C147.635 83.7502 153.207 82.2525 154.659 82.0038C157.714 81.4809 160.748 81.2006 163.837 80.9748C168.828 80.6109 173.875 80.0192 178.876 80.024C184.092 80.0286 189.492 80.3817 194.634 81.2448C204.35 82.8752 217.928 87.3481 226.863 91.3578C228.854 92.2512 230.725 93.3755 232.693 94.3107C234.154 95.0054 239.211 98.6998 240.423 98.377L240.568 98.1276C240.862 99.5158 240.474 101.524 240.318 102.935C237.479 100.81 234.43 99.2205 231.302 97.5823C227.227 95.4483 223.131 93.4742 218.817 91.8635C205.09 86.7376 187.664 83.615 173.003 84.2058C164.45 84.5505 156.182 86.1285 147.937 88.342C147.215 88.5358 145.474 89.2128 144.849 88.8639C144.355 87.3026 145.463 84.5759 146.097 83.0989Z" fill="#9DCF66"/> <path d="M198.306 52.6055C200.634 52.9959 202.92 53.4228 205.169 54.1641L204.817 54.4506C204.849 55.0235 205.115 55.2315 205.514 55.6133C207.981 57.9801 211.078 59.7693 213.673 62.0086C220.051 67.5138 225.976 74.2194 230.943 81.0157C231.402 81.6439 232.537 82.844 232.641 83.6C232.651 83.6732 232.639 83.748 232.638 83.8221C215.756 75.0498 197.777 70.6691 178.781 70.1005C178.348 70.0345 178.023 69.9909 177.643 69.7633L177.607 69.3376C181.962 63.384 186.675 58.9675 193.127 55.2728C194.763 54.3357 196.555 53.6495 198.157 52.6962L198.306 52.6055Z" fill="#8CD464"/> <path d="M146.096 83.0988C148.138 79.2228 150.739 75.7063 155.107 74.3637C157.727 73.5586 160.482 73.1264 163.185 72.6877C179.955 69.9642 197.246 72.1904 213.409 77.0775C218.462 78.6056 223.566 80.3643 228.224 82.872C231.187 84.4669 238.842 88.4532 239.81 91.4725C240.461 93.5055 240.586 96.0091 240.567 98.1283L240.421 98.3777C239.209 98.7005 234.152 95.006 232.692 94.3113C230.724 93.3758 228.853 92.2518 226.862 91.3585C217.926 87.3487 204.349 82.8759 194.633 81.2454C189.49 80.3824 184.09 80.0293 178.875 80.0247C173.873 80.0198 168.827 80.6116 163.835 80.9754C160.747 81.2013 157.713 81.4813 154.658 82.0045C153.205 82.2531 147.634 83.7509 146.834 83.703C146.506 83.6827 146.31 83.3253 146.096 83.0988Z" fill="#CDDE72"/> </svg>  </g>

  <!-- ========================= -->
  <!-- TOP-LEFT SVG -->
  <!-- Original size: 55 x 60 -->
  <!-- ========================= -->
  <g
    id="top-left-icon"
    transform="translate(12 12) scale(1)"
  >
    <svg
      viewBox="0 0 72 84"
      width="72"
      height="84"
    >
<path d="M13.5119 12.9536C12.7326 13.3075 12.03 13.6658 11.4429 14.3051C10.4841 15.3498 10.1116 16.6902 10.2104 18.0885C10.5548 22.9712 14.6976 28.03 18.1693 31.1511C16.5247 31.0525 14.9014 31.0552 13.3111 31.541C11.7462 32.0188 10.2772 32.9681 9.55466 34.4822C8.99652 35.6523 8.84531 37.1473 9.3614 38.361C11.5562 43.5238 23.5288 42.8685 28.2589 44.7457C26.2032 45.3608 24.0333 45.6974 22.0494 46.5302C20.6593 47.1136 18.9786 48.1294 18.4371 49.6187C18.1534 50.3993 18.3173 51.213 18.6813 51.9363C20.5828 55.7134 25.736 57.3422 29.4678 58.594C29.4215 58.8832 29.3846 59.1739 29.3574 59.4656C28.7987 65.2981 35.846 67.1081 40.1502 68.4369C42.687 69.2201 45.2824 70.006 47.8734 70.5848C49.2717 70.8972 51.6242 70.9035 52.5522 72.0387C52.62 72.1221 52.8251 72.3932 52.9119 72.4722C53.2305 72.7614 53.5428 72.7002 53.9255 72.6371C54.8479 71.8095 54.1002 71.6727 54.0276 70.7817C53.9517 69.8535 55.3011 66.8277 55.6641 65.7324C57.2786 60.6148 61.0914 51.4606 59.74 46.4013C59.3796 45.0516 58.6629 43.7472 57.401 43.0568C55.6853 42.118 53.8383 42.4756 52.0751 43.01C53.6133 38.796 55.2799 32.7173 53.495 28.3318C53.009 27.1379 52.119 25.9408 50.873 25.4754C48.155 24.4595 45.6097 28.3821 44.6782 30.4688C44.0732 31.8242 43.7815 33.4128 43.0621 34.6991C42.853 35.0731 42.7491 35.166 42.3808 35.3449C40.1652 33.7671 41.124 25.0986 41.0049 22.4398C40.932 20.812 40.7175 19.064 40.0517 17.562C39.5097 16.3389 38.5085 15.1917 37.2113 14.7535C36.4225 14.4873 35.5922 14.5813 34.8562 14.9591C32.0185 16.417 30.6334 20.6489 29.8061 23.4984C27.6888 19.7989 25.1229 15.7741 21.2632 13.6869C18.7839 12.3463 16.2008 12.1591 13.5119 12.9536Z" fill="#203B53"/> <path d="M10.7517 35.3692C10.5113 36.2385 10.4159 36.9785 10.8517 37.8075C11.7753 39.5643 14.335 40.3933 16.142 40.879C19.9779 41.91 26.4629 42.1289 29.4997 44.5239C29.628 44.2682 29.7853 44.0055 29.7821 43.7094C29.7731 42.823 28.6584 41.7111 28.0621 41.0915C24.5158 37.406 15.6377 35.4756 10.7517 35.3692Z" fill="#75CC7D"/> <path d="M52.7235 69.0898C54.5062 63.3335 59.1381 53.8239 58.5093 48.1684C58.358 46.8086 57.8467 45.3469 56.7255 44.4842C54.6985 42.9257 52.7175 44.4048 50.6154 44.6674L50.4097 44.4461C50.5543 42.9025 51.3465 41.3158 51.7652 39.8138C52.607 36.7932 53.7447 31.1982 52.0057 28.3271C51.5925 27.6442 50.9037 26.9539 50.0734 26.8531C46.1899 26.3817 45.1029 35.411 43.1789 36.5277C42.802 36.7466 42.477 36.855 42.0503 36.6958C38.6112 35.4143 39.874 25.164 39.7142 22.1693C39.6357 20.698 39.3811 19.0636 38.6671 17.7598C38.2757 17.0452 37.5096 16.1116 36.6523 15.9638C32.6467 15.2736 31.1158 25.255 29.9059 26.0849C28.7925 25.4713 28.029 23.0108 27.3825 21.8943C25.6792 18.9526 22.91 15.8876 19.7354 14.5453C17.9291 13.7815 15.872 13.5379 14.0384 14.3539C13.0683 14.7855 12.1959 15.4607 11.8516 16.4987C10.6773 20.0357 15.3246 26.4001 17.63 28.8116C18.4725 29.6924 20.0567 30.615 20.5911 31.6436L20.4135 32.0446C19.0808 32.9853 15.8082 32.2448 13.9869 32.7533C12.3967 33.1978 11.5373 33.9482 10.7503 35.369C15.6363 35.4754 24.5143 37.4058 28.0606 41.0913C28.6569 41.7109 29.7716 42.8228 29.7806 43.7092C29.7838 44.0053 29.6265 44.268 29.4982 44.5237C28.9412 45.5034 28.419 45.7583 27.3976 46.1881C25.4062 46.738 21.2483 47.5717 20.2315 49.5487C19.9219 50.1507 19.9643 50.7999 20.2136 51.4113C21.2537 53.9602 25.0129 55.4154 27.388 56.3134C28.1953 56.6206 29.0065 56.9161 29.8221 57.1999L31.322 57.7835C30.9521 59.3109 30.6287 60.7571 31.4723 62.2072C33.5749 65.8219 47.0578 68.8324 51.2905 69.8329C45.0932 59.0146 38.6127 48.1949 31.1984 38.165C29.9487 36.4511 28.6408 34.7833 27.2741 33.1611C25.8558 31.4713 21.2647 26.8157 20.6544 25.0985C20.832 24.7062 20.9817 24.6106 21.3528 24.4013C21.8088 24.4531 21.9415 24.4788 22.3068 24.7842C23.7618 25.9988 24.9886 27.7893 26.1752 29.2631L31.1428 35.3969C37.8215 43.7926 43.409 53.1876 48.8923 62.3906C49.1332 58.0633 49.9526 53.6214 50.9802 49.4136C51.7328 49.5334 52.1619 49.6607 52.7611 50.1513C52.6153 54.0613 51.3194 60.3114 49.8833 63.9404C50.9273 65.5862 51.7988 67.3731 52.7235 69.0898Z" fill="#91DE7D"/> <path d="M36.5257 22.9656C36.3703 23.0396 36.1677 23.133 36.0229 23.217C35.5825 23.4729 35.4426 23.5214 35.35 24.0243C35.0641 25.5767 34.8671 33.026 35.6474 34.13C36.8422 32.0192 37.0591 28.4373 37.1834 26.0617C37.2431 24.9276 37.3224 23.8571 36.5257 22.9656Z" fill="#203B53"/> <path d="M34.7562 59.5176C34.5991 59.7707 34.4927 60.0095 34.3757 60.2823C34.988 61.4607 44.1671 64.7406 46.0256 65.4059C46.2611 65.4775 46.1185 65.4603 46.4557 65.3776C46.3747 65.1951 46.3895 65.2089 46.2515 65.0137C44.7117 62.8357 37.5934 59.8145 34.7562 59.5176Z" fill="#203B53"/> <path d="M46.6175 34.9128C46.3021 35.0506 45.8931 35.207 45.6867 35.4963C44.6777 36.9094 42.5625 48.975 43.014 50.6034C43.122 50.9935 43.2611 51.0195 43.5894 51.2166C44.2572 49.981 47.5322 37.0747 47.4625 35.9631C47.429 35.4319 46.9909 35.2263 46.6175 34.9128Z" fill="#203B53"/> <path d="M27.3998 46.188C25.4084 46.7379 21.2504 47.5716 20.2337 49.5487C19.924 50.1506 19.9665 50.7999 20.2158 51.4113C21.2558 53.9602 25.015 55.4154 27.3902 56.3134C28.1975 56.6206 29.0087 56.916 29.8243 57.1998C29.8714 56.8989 29.8159 56.6239 30.0859 56.4386C31.8571 55.2226 35.0238 55.6501 37.0733 54.1452C37.4478 54.1762 37.7553 54.1095 38.1211 54.0321L38.259 53.8137L37.9731 53.4692C37.1203 50.8881 33.2692 48.8368 30.8582 47.9363C29.9824 47.6093 28.5854 47.359 27.8448 46.8152C27.7024 46.7107 27.5114 46.3454 27.3998 46.188Z" fill="#75CC7D"/> <path d="M37.973 53.4692C34.9907 51.8808 27.4963 50.1764 24.2047 50.832L24.0053 51.0023C24.3442 51.6247 25.3504 51.9244 25.9951 52.1125C29.5481 53.1503 33.4159 53.6185 37.0731 54.1452C37.4477 54.1762 37.7552 54.1095 38.121 54.0321L38.2589 53.8137L37.973 53.4692Z" fill="#203B53"/>
    </svg>
  </g>

  <!-- ========================= -->
  <!-- BOTTOM-RIGHT SVG -->
  <!-- Original size: 72 x 84 -->
  <!-- ========================= -->
  <g
    id="bottom-right-icon"
    transform="translate(340 220) scale(1)"
  >
    <svg
      viewBox="0 0 55 60"
      width="55"
      height="60"
    >
<path d="M36.7358 53.2061C37.6711 52.9002 38.6436 52.4989 39.2192 51.6607C40.1994 50.2331 39.8457 48.9372 39.5025 47.3919C40.4472 47.3499 41.5306 47.8881 42.4388 48.1871C44.8089 48.968 48.2194 49.6944 50.6339 48.8222C51.6993 48.4376 52.6229 47.6238 53.0604 46.5661C53.3678 45.8225 53.3204 45.0689 52.954 44.3565C51.1465 40.8406 42.8905 38.7917 39.3753 37.7084C41.3965 37.1278 43.9362 36.5596 45.5503 35.1613C46.1611 34.6321 46.6091 33.971 46.6189 33.1398C46.6284 32.2946 46.2246 31.5322 45.6425 30.9416C42.7165 27.9721 33.4663 27.2682 29.4859 27.2269C29.9222 26.4771 30.3622 25.7062 30.3412 24.8129C30.3141 23.6514 29.8488 22.7381 29.005 21.9555C26.3121 19.456 21.8504 19.1476 18.3868 19.2145C15.8135 19.3724 13.3193 19.7134 11.031 20.983C9.28468 19.4249 7.62587 17.8171 6.15193 15.9929C5.03364 14.6089 4.00769 13.0602 2.79486 11.7637C2.46521 11.411 2.03748 11.0733 1.57391 10.9174C1.06759 10.7475 0.786462 10.7697 0.305136 10.9686L0.131334 11.4232C0.671152 15.0599 8.11208 22.0848 11.097 24.5712C10.8178 27.0823 10.6824 29.5587 11.0546 32.0703C11.6176 35.8691 13.0028 40.0954 16.2943 42.4032C17.2977 43.107 18.4923 43.5717 19.7257 43.2862C21.1239 42.9622 21.7613 41.9526 22.503 40.8391C24.2565 44.1292 26.3852 47.3355 29.1083 49.9063C31.2943 51.97 33.6458 53.3064 36.7358 53.2061Z" fill="#203B53"/> <path d="M48.7833 46.5572C49.5042 46.3717 50.0748 46.0978 50.4943 45.4873L50.4081 45.0629C48.2155 42.371 38.4786 39.7273 34.9091 38.6637L33.0088 38.3164C33.825 39.8397 34.6572 41.2897 35.9554 42.4595C39.0866 45.2805 44.622 46.7939 48.7833 46.5572Z" fill="#FCC959"/> <path d="M18.9143 40.7498C19.244 40.6447 19.4774 40.5118 19.7742 40.3383C20.9966 38.3769 19.5091 35.1472 19.0904 33.0145C18.9007 32.0502 18.8668 31.0831 18.8348 30.1036C16.9686 28.7131 15.0385 27.438 13.1985 26.0028L12.7554 25.7199L12.4815 25.9787C11.9309 28.3179 12.5775 31.2031 13.3477 33.4531C14.3669 36.4307 16.0047 39.3099 18.9143 40.7498Z" fill="#FCC959"/> <path d="M20.0908 28.2619C22.5248 27.4192 26.2305 27.4393 28.0651 25.4979C28.2137 24.9716 28.2939 24.8467 27.9943 24.3434C26.8215 22.3733 22.5755 21.5106 20.5144 21.2679C17.7867 21.165 15.4718 21.5523 12.8833 22.3995C14.8812 24.7557 17.5064 26.601 20.0908 28.2619Z" fill="#FCC959"/> <path d="M39.0253 35.3935C40.083 35.2559 41.2736 34.8876 42.2617 34.4855C43.0463 34.1663 43.6241 33.8518 43.9735 33.0498C43.8729 32.673 43.8995 32.5591 43.5973 32.2818C41.2993 30.1729 31.9454 29.4136 28.8067 29.5063C26.9062 29.629 24.9708 29.9978 23.0807 30.246C23.3857 30.4474 23.6808 30.6584 23.9762 30.8736C29.8368 35.1408 31.5859 36.5635 39.0253 35.3935Z" fill="#FCC959"/> <path d="M35.4231 51.0451C36.1493 50.8377 36.4804 50.7155 36.9746 50.1351C37.495 47.4337 30.9786 41.6062 30.4825 37.0468C27.9552 35.6404 25.4594 34.2303 22.8179 33.0446L20.8047 32.0295C21.3322 33.5354 21.9442 35.0057 22.6415 36.4408C25.1908 41.8076 29.5151 48.9274 35.4231 51.0451Z" fill="#FCC959"/>
    </svg>
  </g>

</svg>
