<svg width="29" height="60" viewBox="0 0 29 60" fill="none" xmlns="http://www.w3.org/2000/svg">
<path d="M0.046875 0C-0.0627079 0.468649 0.0546875 1.39877 0.0546875 2.2373C1.20936 3.539 0.999626 3.79833 1.81641 5.08789C1.95076 9.84109 1.80037 14.6177 1.80469 19.374L1.78223 39.0557L1.77246 48.1465C1.7563 50.0437 1.65192 51.9803 1.75 53.874C1.77187 54.2949 1.78806 54.6891 2.06738 55.0156C3.25512 55.125 7.12745 52.57 8.35156 51.8691L9.56738 51.0713C10.3479 52.3125 14.5625 59.6765 15.3955 60C15.8412 59.8569 16.1952 59.3747 16.4531 59.0029C17.0636 58.1228 17.5226 57.064 18.0293 56.1182L21.0771 50.46C22.4354 50.8288 27.8307 52.3302 28.8604 51.8799C29.1414 51.3596 28.9471 50.8787 28.7051 50.373C27.8131 48.5096 26.4193 46.5927 25.7705 44.665C25.3025 43.2743 25.5743 39.0546 25.5791 37.2939L25.6016 18.6191L25.6406 9.81055C25.6315 7.73053 25.5351 5.61567 25.6318 3.53906C25.689 2.30973 25.8083 2.25257 26.1572 1.08203H27.5049C27.5087 0.949712 27.5201 0.537027 27.5293 0H0.046875Z" fill="#203B53"/>
<path d="M23.9346 0C23.8611 0.22372 23.7745 0.43638 23.667 0.632812C23.6393 0.937057 23.5933 1.2498 23.5869 1.55469C23.8795 1.48489 24.1535 1.39397 24.4355 1.29102C24.732 0.91588 24.9369 0.475822 25.0928 0H23.9346Z" fill="#CFFDFF"/>
<path d="M4.24636 0.265621C3.07929 0.326745 1.91361 0.408403 0.749363 0.510703C1.90166 2.61565 1.74909 2.19836 3.11421 4.17141C9.91838 3.81555 16.9084 2.89606 23.5873 1.55442C23.5937 1.24944 23.6393 0.936779 23.667 0.632491L23.5831 0.510721C23.1321 0.464104 18.0881 1.41159 16.9518 1.52866C13.3282 1.90224 9.00626 1.89886 5.36925 1.77448L4.87985 1.22574L4.24636 0.265621Z" fill="#30A0A6"/>
<path d="M24.0752 2.93555C23.6581 3.05561 23.22 3.12825 22.7946 3.21679L22.8209 6.41222C23.0083 11.0865 22.8957 15.8047 22.8858 20.4854L22.8531 27.7689L22.8189 36.0893C22.8139 38.3556 22.7522 40.6609 23.095 42.9078C23.3587 44.6362 24.145 46.6361 25.1992 48.033C25.3866 48.1899 25.6288 48.4578 25.8782 48.4761C25.24 47.2656 24.3025 45.8502 24.1339 44.4884C23.9088 42.6703 24.072 40.667 24.0752 38.8319L24.0819 27.7605L24.0752 2.93555Z" fill="#CFFDFF"/>
<path d="M9.03906 0C7.33614 0.14813 5.71332 0.268795 4.21484 0.388672C4.70326 1.47848 4.39185 0.85823 5.36914 1.77441C9.00615 1.8988 13.3285 1.90287 16.9521 1.5293C18.0882 1.41224 23.1293 0.464747 23.583 0.510742L23.667 0.632812C23.7745 0.43659 23.8649 0.223473 23.9463 0H9.03906Z" fill="#54E6ED"/>
<path d="M6.1014 5.4082L3.39534 5.54912L3.30526 52.8909C4.42721 52.3203 9.23033 49.318 9.95208 49.3171C11.1345 50.2696 14.5144 56.0379 15.4466 57.684C16.1076 56.465 19.637 49.2282 20.4307 48.8976C21.0933 48.6218 25.882 50.0091 26.8721 50.2513C26.5758 49.7055 26.2651 48.9492 25.8791 48.4763C25.6298 48.458 25.3876 48.1901 25.2002 48.0332C22.9181 47.5307 20.646 46.3098 18.8205 44.875C17.9027 47.2028 16.7642 49.2979 15.1535 51.2224C14.9355 51.0185 14.7236 50.8086 14.5175 50.5926C14.3116 50.3766 14.112 50.1549 13.9187 49.9276C13.7254 49.7002 13.5388 49.4674 13.3587 49.2294C13.1788 48.9912 13.0057 48.7482 12.8397 48.5003C12.6736 48.2523 12.5146 47.9998 12.363 47.7427C12.2113 47.4856 12.0672 47.2244 11.9305 46.9591C11.7938 46.6938 11.6647 46.4249 11.5434 46.1521C11.4221 45.8795 11.3086 45.6035 11.203 45.3244C9.5823 46.2729 7.98767 47.0837 6.21043 47.6985L6.18035 26.9377C6.18803 18.1655 6.31956 17.3961 6.14152 8.62406C6.2931 7.62921 6.13031 6.42364 6.1014 5.4082Z" fill="#30A0A6"/>
<path d="M22.7939 3.2168C17.22 4.20268 11.7465 4.97276 6.09967 5.40799C6.12858 6.42343 6.29137 7.62901 6.13979 8.62396C6.31777 17.396 6.1863 18.1654 6.17862 26.9376L6.2087 47.6984C7.98589 47.0836 9.58057 46.2728 11.2013 45.3243C11.3068 45.6034 11.4203 45.8794 11.5417 46.1521C11.6631 46.4247 11.7921 46.6937 11.9288 46.959C12.0654 47.2243 12.2096 47.4855 12.3612 47.7426C12.5129 47.9997 12.6718 48.2523 12.838 48.5002C13.0041 48.7481 13.1771 48.9911 13.357 49.2293C13.5371 49.4673 13.7237 49.7 13.9169 49.9275C14.1103 50.1549 14.3099 50.3766 14.5158 50.5925C14.7218 50.8085 14.9338 51.0184 15.1518 51.2223C16.7625 49.2978 17.901 47.2027 18.8187 44.875C20.6442 46.3097 22.9164 47.5306 25.1985 48.0332C24.1442 46.6363 23.358 44.6363 23.0943 42.9079C22.7514 40.661 22.8131 38.3557 22.8181 36.0894L22.8523 27.769L22.885 20.4855C22.895 15.8048 23.0076 11.0866 22.8202 6.41233L22.7939 3.2168Z" fill="#54E6ED"/>
<path d="M22.7933 3.2168C17.2195 4.20268 11.7459 4.97276 6.09912 5.40799C6.12803 6.42343 6.29082 7.62901 6.13923 8.62396C6.56908 8.2898 9.60162 8.26276 10.3234 8.2074C14.5265 7.88487 18.6765 7.16124 22.8196 6.41222L22.7933 3.2168Z" fill="#30A0A6"/>
</svg>
