<svg width="240" height="240" viewBox="0 0 240 240" fill="none" xmlns="http://www.w3.org/2000/svg">
<path d="M202.995 170.002C202.095 172.038 200.485 173.068 198.454 173.979C196.875 179.578 194.857 184.979 192.737 190.405C193.916 191.904 195.504 193.543 195.725 195.486C195.863 196.706 195.627 197.489 194.86 198.444L193.783 198.545C191.39 197.714 190.763 196.389 189.646 194.33C189.219 195.446 188.836 196.848 188.229 197.877C187.57 198.99 187.246 198.973 186.03 199.378L185.851 199.308C184.261 200.092 183.659 201.856 182.886 203.328C182.947 203.393 183.009 203.459 183.072 203.523C184.084 204.555 185.298 205.616 185.845 206.961C186.328 208.15 186.186 208.966 185.707 210.113C185.013 210.488 184.863 210.667 184.029 210.673C181.804 210.689 180.325 208.919 178.824 207.565L173.079 212.826C173.543 214.233 174.227 215.771 173.622 217.232C173.255 218.12 172.776 218.615 171.774 218.779C170.469 218.992 169.296 218.122 168.267 217.481C165.593 219.561 148.999 232.571 147.679 232.987C146.587 232.801 146.315 232.816 145.504 232.118L145.531 231.228C146.78 228.845 148.886 227.514 151.149 226.135C144.613 227.946 137.586 230.136 130.874 231.112C127.394 231.618 123.057 229.982 119.8 231.303C119.124 232.106 118.821 232.62 117.783 233.003C115.847 232.721 114.076 231.725 112.178 231.537C109.592 231.28 106.936 231.38 104.328 231.125C88.3923 229.562 73.6215 225.564 60.4004 216.546C45.4293 206.337 29.855 184.305 23.5098 167.863C20.5088 160.087 18.8945 151.932 17.4727 143.782C15.6868 142.57 13.8685 141.129 13 139.157C13.3874 137.656 14.622 137.388 15.5859 136.235C16.8495 134.722 16.3441 132.604 16.2109 130.788C16.1283 127.989 16.3287 125.171 16.623 122.387C18.7667 102.096 26.7707 86.5443 43.2744 73.6334L40.2061 70.4136C41.0409 69.0608 41.8839 67.5052 43.6426 67.1666C46.1736 66.6779 48.8815 68.732 50.9209 69.9302C51.7157 69.2617 56.0697 66.1434 56.0635 65.2877C56.0563 64.4497 55.3337 63.6717 55.5908 62.7945C55.8619 61.8726 56.6062 61.1625 57.502 60.7662C58.9951 60.1036 61.8162 61.5595 63.2471 62.106C65.9617 60.6662 68.6908 59.6023 71.5947 58.5572C70.9011 57.9485 70.2634 57.3565 69.8496 56.5308C69.3789 55.5935 69.5 54.6383 69.832 53.691C70.2587 53.2477 70.6422 52.877 71.2324 52.6353C75.1064 51.0519 77.5064 53.1002 80.9346 54.3599C82.0012 54.7516 82.5597 54.8784 83.623 54.4898C84.3063 53.4987 84.882 52.7044 85.8643 51.9488C87.6743 51.6156 89.0379 52.2824 90.6787 52.9127C91.5673 52.6525 91.9474 52.5478 92.6387 51.9068C93.4502 51.1542 92.8893 51.5577 93.7715 50.939C95.2014 49.9373 98.4098 50.8158 100.072 51.0728C98.5647 49.4838 96.9707 48.5253 95.2129 47.2457C94.099 46.4346 93.653 45.7161 93.4404 44.4087C93.956 43.6893 94.1947 43.2351 95.1729 43.0503C98.8859 42.3516 105.294 49.3515 108.324 51.2779C112.022 53.6273 118.464 53.4162 122.777 54.7105C132.463 57.6164 142.454 62.5415 150.786 68.0416C174.061 83.4043 192.678 105.75 198.651 132.626C200.627 141.513 200.743 150.53 202.463 159.408C202.617 160.653 202.643 161.622 201.766 162.633C198.453 166.445 203.245 165.971 202.995 170.002ZM58.5898 166.127C53.0518 160.345 46.9047 155.099 41.1934 149.473C36.2865 144.64 31.7872 139.378 26.668 134.753C25.6599 133.842 23.7259 131.847 22.3545 131.739C22.2883 131.734 22.2213 131.75 22.1543 131.755L22.1299 138.692C28.435 142.46 54.9315 165.319 58.5898 166.127ZM72.6553 158.351C61.9454 148.985 51.0991 140.178 41.3154 129.853C37.5116 125.839 28.8725 114.995 24.2588 112.875C23.6122 113.279 23.7848 113.007 23.6396 113.624C22.999 116.271 22.5841 118.86 22.4365 121.58C28.906 125.576 35.1902 129.829 41.2852 134.335C45.7491 137.618 69.9143 158.385 72.6553 158.351ZM55.1191 189.118C49.8383 181.568 44.2024 174.268 38.2158 167.219C33.8004 162.091 29.0702 157.205 24.958 151.842C25.7295 154.766 26.6101 157.556 27.7305 160.375C32.2205 170.263 39.0613 176.695 46.6875 184.414C48.7822 186.533 50.9378 189.364 53.3437 191.112C52.8329 190.38 50.5875 187.696 50.5918 187.019C51.7867 187.952 53.1667 189.61 54.6182 189.915C55.1041 189.239 54.9998 189.53 55.1191 189.118ZM82.2959 147.671C78.3035 144.524 74.271 141.404 70.54 137.969C65.2729 133.12 32.2603 100.379 29.5664 99.2603C28.7536 99.8081 29.0989 99.4667 28.5478 100.302L26.6025 104.797C32.2965 108.27 37.5666 112.036 42.7705 116.154C48.4148 120.62 78.182 147.205 82.2959 147.671ZM104.359 146.322C100.06 142.754 95.7117 139.218 91.5176 135.538C84.1868 129.103 39.675 88.4006 36.7197 87.6294C35.9033 88.0001 35.4382 88.4046 34.8125 89.025L33.8145 90.4703C34.3424 92.2458 39.5232 95.2559 41.2783 96.5308C47.4886 101.051 53.5264 105.773 59.3936 110.698C66.0503 116.24 98.0221 144.136 103.379 146.24C103.692 146.362 104.033 146.383 104.359 146.322ZM121.569 143.383C116.891 137.524 107.234 129.66 101.349 124.253C85.6774 109.857 64.7317 88.8665 47.0283 77.7378C46.3127 77.9263 45.7421 78.1332 45.0937 78.48C45.7926 80.3897 59.3714 89.3759 62.082 91.3824C67.9073 95.6941 73.3828 100.771 78.7871 105.562C87.9684 113.761 97.1013 122.009 106.186 130.307C109.271 133.114 117.787 141.794 120.796 143.255C121.198 143.451 121.136 143.403 121.569 143.383ZM125.572 125.323C124.09 123.338 122.251 121.643 120.482 119.893C120.941 119.341 121.812 118.643 121.723 117.921C121.371 115.075 117.582 113.499 116.064 111.201C114.864 110.145 113.652 109.102 112.43 108.07C109.886 104.93 107.69 102.751 104.196 100.6C103.737 100.208 103.288 99.8813 102.759 99.5806C96.9001 96.2518 92.3089 90.8042 87.1055 86.5572C79.0691 80.1107 70.6338 74.1832 61.8027 68.7779C60.2069 70.0706 58.4823 71.0783 56.7061 72.1187C76.542 81.8904 93.2201 97.6161 109.592 111.887C113.812 115.565 120.964 123.012 125.572 125.323ZM107.092 89.9898C97.6872 79.981 87.731 70.6924 76.6953 62.3189L71.3711 63.9234C71.6469 64.9822 73.6044 65.7465 74.5869 66.316C82.1049 70.6699 89.0484 75.3538 95.7412 80.8043C99.3902 83.7763 102.98 87.7306 107.007 90.1363L107.092 89.9898ZM118.524 224.516C113.773 220.881 75.0042 193.83 72.8867 193.847L72.9385 194.194C77.9047 198.635 107.305 220.208 108.536 223.025L108.305 224.31C110.034 225.572 114.884 225.412 117.001 225.157C117.764 225.065 117.956 225.035 118.524 224.516ZM90.7002 222.358C89.6092 221.079 88.6041 219.583 86.7344 219.468C85.9703 219.422 85.7175 219.702 85.0889 220.05C86.6382 221.462 88.2527 222.248 90.3594 222.597L90.7002 222.358ZM136.555 222.852C130.909 218.343 87.7126 185.788 86.0801 185.433L86.4248 186.081C94.4466 195.325 110.103 206.496 119.958 214.742C123.605 217.794 126.57 221.631 130.273 224.572C132.031 224.269 134.973 224.143 136.422 223.189L136.555 222.852ZM154.582 218.131C150.746 216.153 147.118 214.004 143.575 211.578C138.312 207.972 92.3287 173.953 90.6416 174.166L91.9258 175.339C106.268 187.241 121.465 198.214 135.273 210.692C138.979 214.04 143.169 217.452 146.168 221.414C148.482 220.599 152.828 219.654 154.582 218.131ZM126.407 76.6099C119.056 69.9971 111.889 62.9663 104.146 56.7906C101.199 57.4047 98.3727 57.6751 95.3701 57.8628C96.2354 58.9972 122.308 74.634 125.954 76.731L126.407 76.6099ZM164.188 213.128C157.251 208.529 150.887 202.816 144.413 197.623C135.681 190.618 126.604 184.305 117.396 177.905C113.676 175.318 110.241 172.376 106.339 170.038L106.151 170.204C106.645 170.772 107.127 171.347 107.664 171.877C118.291 180.81 129.411 189.166 139.862 198.296C146.595 204.179 152.788 211.518 160.233 216.517C161.711 215.462 163.037 214.531 164.188 213.128ZM173.512 205.02C167.75 200.861 136.453 172.269 132.518 171.861C132.979 172.406 133.419 172.953 133.932 173.453C143.482 181.765 152.737 190.2 161.456 199.33C164.365 202.375 167.604 205.477 169.936 208.96C171.229 207.714 172.577 206.546 173.512 205.02ZM181.861 194.956C179.063 192.047 176.174 189.221 173.198 186.479C169.31 182.942 137.152 154.769 135.005 154.091C135.228 154.904 135.488 155.233 136.099 155.831C145.031 163.996 174.309 189.889 178.929 198.617L181.861 194.956ZM149.766 117.621C149.209 116.802 148.765 116.41 147.901 115.873C147.785 115.801 147.076 115.383 146.962 115.267C146.055 114.347 147.112 114.062 146.937 112.969C145.787 112.926 144.988 113.166 143.923 113.522L143.511 113.663L143.538 113.234L143.541 113.234L144.267 112.338C144.015 111.123 142.768 110.023 141.729 109.347C140.566 108.589 139.372 108.088 137.962 108.347C137.834 109.165 138.153 109.37 138.649 110.034C139.088 110.62 139.569 111.183 140.063 111.734L141.562 113.369C142.704 115.289 144.426 117.637 146.342 118.886C147.315 119.522 147.821 119.574 148.947 119.386C149.541 118.656 149.649 118.53 149.766 117.621ZM183.745 106.909C172.174 90.402 158.607 76.6203 140.363 66.7808C139.721 66.8693 139.91 66.7287 139.665 66.9673C149.735 75.1341 159.679 83.3278 168.984 92.314C173.968 97.1266 178.444 102.415 183.422 107.216L183.745 106.909ZM193.423 165.144C185.392 155.597 177.156 146.327 168.76 137.078C162.866 130.585 157.088 124.044 150.569 118.112C149.605 119.103 148.246 120.169 148.093 121.563C148.499 123.113 150.08 124.428 151.176 125.6C160.398 136.433 169.293 147.509 177.862 158.825C182.405 164.719 187.185 170.448 191.113 176.752C192.692 173.15 193.323 169.036 193.423 165.144ZM194.578 156.556C195.386 155.408 195.286 153.559 195.201 152.186C195.082 149.54 194.923 146.888 194.871 144.24C193.551 144.838 193.001 145.274 191.529 145.109C189.04 143.318 187.029 140.918 184.866 138.777C180.844 134.867 176.88 130.901 172.971 126.888C171.67 125.548 170.418 123.815 169.019 122.626C168.435 122.13 167.758 121.999 167.02 121.861C166.947 120.649 167.082 120.504 166.215 119.648C165.346 119.406 164.498 119.201 163.616 119.007C162.88 118.845 162.649 118.67 162.134 118.17L162.284 117.588L163.646 116.873C163.606 116.016 163.126 115.421 162.406 114.878C161.356 114.088 159.913 114.119 158.639 114.042L157.814 113.437C158.286 112.638 157.974 112.992 158.778 112.394C157.271 110.057 153.314 106.736 150.947 105.125C150.005 105.515 149.997 105.684 149.473 106.549L149.537 107.204L151.373 106.658L151.666 106.964C151.39 107.444 151.13 107.835 150.797 108.272L150.808 108.419L152 109.021C152.01 109.75 152.083 109.402 151.796 110.067C153.059 110.601 154.416 109.904 155.587 110.341C154.667 110.695 153.774 111.064 152.882 111.479L152.886 111.982L153.662 112.486C154.373 112.304 156.048 111.597 156.694 111.78C156.1 112.446 155.556 112.75 154.752 113.156L155.185 113.257L154.486 113.355C156.072 116.078 161.763 121.09 164.212 123.708C169.766 129.626 175.288 135.575 180.774 141.552C184.193 145.341 190.582 154.101 194.578 156.556ZM188.694 182.524C180.094 175.62 172.503 167.001 164.71 159.25C162.112 156.665 159.543 153.748 156.64 151.5L157.464 153C163.202 159.18 169.052 165.247 174.653 171.544C178.612 175.996 182.336 181.03 186.773 185.025L187.503 185.042C188.304 184.205 188.423 183.596 188.694 182.524ZM193.812 138.575C194.313 137.817 194.131 137.734 194.02 136.881C193.773 135.493 193.572 134.082 193.273 132.704C186.982 127.644 181.808 121.926 176.35 116.082C172.969 112.462 169.454 108.431 165.388 105.513L164.972 105.569L165.901 106.831C172.752 112.43 181.226 122.727 186.842 129.68C188.832 132.144 191.272 136.821 193.812 138.575Z" fill="#FFFFFF"/>
<path d="M194.602 30.0001C195.549 30.3047 195.697 30.4174 196.373 31.1507C197.811 36.3011 193.693 57.8241 192.98 64.7292C198.106 63.5375 221.897 59.0106 225.685 60.1119C226.06 60.8966 226.083 61.0698 225.851 61.9531C225.128 64.7083 222.773 67.6687 221.224 70.0506C212.547 83.3903 202.495 94.2399 188.564 102.228C185.997 103.64 182.811 105.933 179.847 105.987C178.782 105.442 178.34 105.001 178.072 103.8C177.657 101.937 177.951 99.8167 178.061 97.9172C178.333 93.2051 177.539 88.867 175.604 84.5558C172.149 76.8541 165.78 69.681 158.806 64.9808C156.766 63.6055 153.797 62.3675 152.27 60.468L152.36 59.6542C154.328 57.5658 159.89 55.6319 162.583 54.1409C165.484 52.5094 168.312 50.7623 171.069 48.8994C176.182 45.5118 181.262 41.945 185.909 37.9333C188.881 35.367 191.479 32.3916 194.602 30.0001Z" fill="#203B53"/>
<path d="M192.967 36.0509C193.988 41.4597 188.772 59.0359 188.843 66.1485C188.854 67.2946 188.968 67.6075 189.802 68.3728C190.847 68.6737 191.723 68.779 192.812 68.6685C195.858 68.3594 198.975 67.494 202.013 66.9706C208.175 65.9447 214.344 64.9598 220.52 64.0168C212.144 77.1691 203.515 88.9887 190.052 97.4169C187.079 99.2081 184.151 100.843 180.812 101.852C180.937 96.7957 180.861 92.0649 179.464 87.1526C176.31 76.0551 167.179 66.0985 157.279 60.5128C169.667 55.3758 182.65 44.6225 192.967 36.0509Z" fill="#EE5855"/>
<path d="M112.305 58.6835C120.684 58.2243 131.117 59.1285 138.975 61.9964C142.566 63.3068 146.274 65.0591 149.351 67.3439C159.173 74.6357 168.583 89.4762 173.598 100.412C180.726 115.956 182.379 134.213 176.251 150.355C176.076 150.827 175.895 151.298 175.71 151.767C175.524 152.235 175.331 152.701 175.133 153.164C174.935 153.628 174.732 154.089 174.523 154.548C174.313 155.006 174.098 155.462 173.878 155.915C173.658 156.368 173.431 156.819 173.199 157.266C172.967 157.714 172.73 158.159 172.488 158.6C172.245 159.042 171.996 159.481 171.743 159.916C171.489 160.352 171.23 160.784 170.965 161.213C170.701 161.643 170.431 162.068 170.156 162.49C169.881 162.913 169.601 163.331 169.315 163.747C169.03 164.163 168.739 164.574 168.444 164.982C168.148 165.391 167.847 165.795 167.542 166.196C167.236 166.597 166.926 166.994 166.61 167.387C166.294 167.78 165.974 168.169 165.649 168.554C165.324 168.939 164.994 169.32 164.659 169.697C164.325 170.074 163.986 170.447 163.641 170.815C163.297 171.183 162.949 171.548 162.596 171.908C162.243 172.267 161.886 172.623 161.524 172.974C161.162 173.325 160.796 173.671 160.426 174.013C160.055 174.355 159.68 174.693 159.302 175.025C158.923 175.357 158.54 175.685 158.153 176.008C157.767 176.331 157.375 176.65 156.98 176.962C156.585 177.276 156.187 177.584 155.785 177.888C155.383 178.191 154.976 178.489 154.566 178.783C154.157 179.076 153.743 179.365 153.326 179.648C152.909 179.931 152.489 180.209 152.064 180.481C151.641 180.754 151.214 181.021 150.783 181.283C150.352 181.545 149.919 181.802 149.482 182.054C149.045 182.305 148.604 182.55 148.162 182.791C147.719 183.031 147.272 183.266 146.824 183.496C146.375 183.725 145.923 183.948 145.469 184.167C145.015 184.385 144.558 184.597 144.098 184.804C128.065 191.944 109.856 191.71 93.6097 185.479C84.9597 194.433 74.5304 202.29 63.3336 207.769C57.8136 210.304 44.6785 216.612 39.0838 216.459C38.1915 216.434 38.1632 216.457 37.536 215.779C36.9618 210.998 46.4592 190.526 48.9538 184.926C43.7623 184.874 20.6549 184.384 17.3226 181.709C16.8888 181.361 17.0306 180.933 17.0023 180.422C20.3637 172.436 46.7056 156.898 54.8046 151.284C51.5059 144.911 49.7594 136.538 49.2831 129.412C47.9966 110.197 53.2635 93.1214 66.0141 78.7259C77.4073 65.864 95.4681 59.7415 112.305 58.6835Z" fill="#203B53"/>
<path d="M56.0737 154.111C57.1676 155.683 58.3085 157.219 59.4964 158.721C60.6843 160.222 61.917 161.687 63.1946 163.113C64.4721 164.54 65.7922 165.925 67.1541 167.271C68.5167 168.616 69.9189 169.919 71.3607 171.179C72.8033 172.438 74.2824 173.653 75.7988 174.822C77.3153 175.991 78.8661 177.112 80.4512 178.187C82.0364 179.261 83.6529 180.286 85.3008 181.261C86.9486 182.237 88.6241 183.16 90.3287 184.033C75.2456 197.225 61.5139 204.914 42.7975 211.842L41.9635 211.819C42.065 209.827 43.4739 207.406 44.1982 205.513C45.6392 201.745 46.8339 197.94 48.3914 194.202C49.999 190.342 51.9664 186.566 53.3761 182.635C53.6299 181.925 53.8338 181.476 53.6471 180.725C51.7782 179.753 47.2177 180.844 44.974 180.896C37.2461 181.072 29.3159 180.251 21.5933 179.806C31.7507 169.879 44.1288 161.696 56.0737 154.111Z" fill="#F5C539"/>
<path d="M110.277 62.0966C110.872 62.0503 111.468 62.019 112.065 62.0018C125.762 61.6173 140.952 63.0217 151.349 72.8656C164.574 85.3885 176.605 108.523 176.971 126.725C176.984 127.215 176.99 127.704 176.991 128.195C176.992 128.685 176.986 129.175 176.974 129.665C176.963 130.156 176.945 130.645 176.921 131.134C176.897 131.624 176.867 132.113 176.831 132.602C176.795 133.091 176.753 133.58 176.705 134.067C176.657 134.555 176.603 135.042 176.543 135.529C176.483 136.015 176.417 136.501 176.345 136.986C176.273 137.471 176.195 137.954 176.111 138.438C176.027 138.921 175.937 139.402 175.841 139.883C175.745 140.364 175.643 140.843 175.536 141.321C175.427 141.8 175.314 142.276 175.194 142.752C175.075 143.227 174.95 143.701 174.818 144.173C174.687 144.646 174.55 145.116 174.407 145.585C174.264 146.054 174.116 146.521 173.961 146.986C173.806 147.451 173.647 147.915 173.48 148.375C173.314 148.837 173.143 149.296 172.966 149.753C172.789 150.21 172.606 150.665 172.417 151.117C172.228 151.57 172.034 152.02 171.835 152.467C171.635 152.915 171.43 153.36 171.219 153.803C171.009 154.246 170.793 154.685 170.571 155.123C170.349 155.56 170.122 155.994 169.89 156.426C169.658 156.857 169.42 157.286 169.177 157.712C168.935 158.138 168.686 158.561 168.433 158.98C168.18 159.4 167.921 159.816 167.658 160.229C167.394 160.643 167.125 161.053 166.851 161.459C166.577 161.866 166.299 162.269 166.015 162.669C165.731 163.068 165.442 163.465 165.149 163.857C164.856 164.25 164.558 164.639 164.255 165.024C163.951 165.409 163.644 165.79 163.331 166.168C163.018 166.545 162.701 166.919 162.379 167.289C162.057 167.659 161.731 168.024 161.4 168.386C161.069 168.748 160.734 169.106 160.394 169.459C149.203 180.97 134.492 186.78 118.542 186.988C97.9128 187.234 84.5619 177.985 69.5818 165.107C58.5776 155.647 53.2771 143.697 52.2415 129.256C51.002 111.981 56.0793 94.6843 67.4755 81.5597C77.7181 69.7633 94.9374 63.2428 110.277 62.0966Z" fill="#FDFCFB"/>
<path d="M38.4048 151.882C38.3098 151.795 38.2142 151.708 38.1192 151.621C38.2692 151.03 38.5195 150.445 38.5492 149.849C38.6307 148.206 38.9547 146.639 39.4213 145.054C40.0134 143.042 40.7064 141.07 41.5329 139.159C42.9314 135.927 44.4557 132.75 45.9711 129.57C47.003 127.406 48.1173 125.281 49.1804 123.131C50.1536 121.163 51.0542 119.157 52.079 117.217C54.9908 111.705 57.95 106.218 60.889 100.721C62.9843 96.8027 65.1509 92.9242 67.3814 89.0793C69.3288 85.7233 71.2268 82.3408 73.2688 79.0397C75.3688 75.6445 77.6109 72.3568 80.1558 69.2819C81.5251 67.6278 82.9946 66.062 84.8069 64.871C86.287 63.8982 87.9247 63.2906 89.68 63.1912C91.097 63.1106 92.5379 63.124 93.9397 63.4821C94.5434 63.8598 95.1561 64.2249 95.7503 64.6182C97.1088 65.5177 98.4612 66.4263 99.8105 67.3391C102.383 69.0791 104.975 70.7918 107.516 72.5758C110.686 74.8006 113.81 77.0895 116.96 79.3416C117.371 79.6355 117.821 79.8742 118.253 80.1388C118.462 80.2812 118.672 80.4238 118.881 80.5662L118.859 80.5487C119.052 80.6878 119.244 80.8276 119.437 80.9666L119.417 80.9509C120.703 82.1577 122.163 83.1241 123.661 84.0398C123.842 84.0998 124.022 84.1606 124.202 84.2206L124.181 84.201C124.311 84.3494 124.418 84.53 124.575 84.6415C129.23 87.9541 133.949 91.1712 138.814 94.1668C139.064 94.3204 139.374 94.3779 139.656 94.4808L139.635 94.4626C139.98 94.9808 140.467 95.2612 141.081 95.3278L141.054 95.3072C141.15 95.4346 141.246 95.5628 141.342 95.6903C141.45 95.7964 141.542 95.9293 141.668 96.004C143.943 97.3469 146.225 98.6747 148.496 100.023C149.803 100.798 151.093 101.602 152.39 102.394C152.18 102.514 151.855 102.586 151.779 102.763C151.5 103.416 151.283 104.098 151.08 104.779C150.386 107.117 149.725 109.463 149.019 111.797C148.091 114.868 146.932 117.855 145.718 120.824C143.824 125.457 141.588 129.918 139.098 134.253C138.492 135.308 137.778 136.3 137.113 137.32C136.359 135.751 135.461 134.272 134.38 132.904C133.738 132.09 133.003 131.389 132.028 130.996C130.583 130.414 129.268 130.787 128.397 132.059C127.378 133.546 127.189 135.556 128.625 137.144C129.102 137.671 129.664 138.124 130.206 138.588C131.49 139.685 132.78 140.773 133.577 142.31C133.291 142.842 133.064 143.419 132.705 143.897C131.883 144.992 131.007 146.048 130.131 147.101C129.819 147.475 129.636 147.861 129.702 148.349C128.917 147.564 128.131 146.782 127.351 145.994C126.602 145.239 125.846 144.496 124.879 144.017C124.486 143.588 124.008 143.308 123.435 143.199C122.637 142.645 121.727 142.473 120.782 142.422C120.583 142.377 120.387 142.313 120.186 142.289C117.465 141.966 114.876 142.511 112.454 143.702C107.331 146.22 103.666 150.139 101.68 155.516C101.007 157.336 100.61 159.255 101.174 161.22C101.13 162.276 101.619 163.157 102.093 164.044C102.486 164.827 102.88 165.61 103.273 166.393C100.794 167.213 98.243 167.715 95.684 168.203C93.3191 168.655 90.9266 168.861 88.5363 168.919C86.6113 168.965 84.664 169.127 82.7432 168.735C82.448 168.675 82.1338 168.713 81.8293 168.696C81.2202 168.662 80.6066 168.661 80.004 168.577C76.5673 168.102 73.1833 167.406 69.8595 166.377C67.2782 165.58 64.7185 164.729 62.2374 163.671C60.1749 162.79 58.14 161.835 56.137 160.827C53.5401 159.52 50.9317 158.222 48.4285 156.749C45.4855 155.015 42.6526 153.095 39.7653 151.267C39.4815 151.086 39.1517 150.98 38.7466 150.794C38.6102 151.227 38.5071 151.555 38.4048 151.882ZM77.415 156.956C78.1732 158.586 79.5225 159.659 80.9572 160.622C82.6763 161.776 84.6053 162.344 86.6632 162.54C87.7511 162.644 88.7783 162.477 89.8025 162.139C90.6247 161.868 91.0767 161.35 91.0676 160.466C91.6754 160.925 92.2516 160.926 92.8773 160.449C94.7883 158.992 96.0495 157.139 96.3862 154.731C96.7867 151.863 94.877 150.225 92.0749 151.026C91.4389 151.208 90.8369 151.503 90.2102 151.719C89.3909 152.001 88.5785 152.338 87.734 152.505C85.9548 152.86 84.5764 151.944 84.2023 150.184C84.0663 149.544 84.0807 148.868 84.0607 148.208C84.0383 147.494 84.1159 146.773 84.0466 146.065C83.7697 143.245 81.1356 142.752 79.565 143.692C78.8559 144.117 78.2426 144.642 77.7533 145.316C76.3117 147.299 75.8004 149.569 75.7683 151.959C75.7594 152.606 76.0021 153.26 76.1586 153.904C76.2411 154.243 76.561 154.339 76.8539 154.438C76.7328 154.649 76.6109 154.862 76.468 155.112C76.785 155.73 77.0997 156.343 77.415 156.956ZM76.3952 116.522C75.2685 115.686 74.0774 114.989 72.6577 114.786C71.5178 114.424 70.3495 114.37 69.1674 114.461C65.7684 114.72 62.855 116.126 60.3424 118.356C56.7277 121.564 54.6192 125.637 53.7141 130.355C53.5315 131.309 53.3819 132.275 53.5305 133.254C53.2584 133.651 53.1819 134.083 53.2575 134.557C53.3783 135.312 53.53 136.054 53.9808 136.695C54.2278 137.231 54.4747 137.767 54.7217 138.302C56.8243 142.766 62.7814 146.469 69.404 143.679C77.4658 140.284 80.9342 132.021 80.7106 126.387C80.6218 124.163 80.1852 122.032 78.8575 120.174C78.5395 118.618 77.7269 117.395 76.3952 116.522ZM83.3752 108.148C83.6119 106.978 83.2697 106.023 82.2917 105.331C81.2305 104.581 80.0654 104.095 78.7436 104.062C75.9695 103.995 73.3921 104.71 70.9796 106.048C70.5809 106.269 70.201 106.543 69.862 106.847C69.3103 107.343 69.5071 108.079 70.2527 108.217C70.95 108.346 71.67 108.353 72.3795 108.415C72.7838 108.451 73.2148 108.412 73.5859 108.542C74.8333 108.98 76.0629 109.472 77.292 109.961C77.8126 110.168 78.3274 110.397 78.8253 110.653C80.7185 111.629 82.9932 110.581 83.3752 108.148Z" fill="#C73131"/>
<path d="M137.114 137.318C137.779 136.298 138.493 135.305 139.099 134.251C141.589 129.916 143.825 125.456 145.719 120.822C146.932 117.852 148.092 114.866 149.021 111.795C149.726 109.461 150.387 107.115 151.081 104.777C151.284 104.096 151.502 103.414 151.78 102.761C151.856 102.584 152.181 102.512 152.391 102.392C152.708 102.554 153.027 102.713 153.342 102.877C156.23 104.381 159.106 105.907 162.009 107.38C163.366 108.068 164.774 108.656 166.158 109.289C166.261 109.397 166.35 109.527 166.469 109.611C167.613 110.425 168.935 110.727 170.292 110.924C170.473 110.99 170.649 111.085 170.837 111.114C171.33 111.192 171.852 111.166 172.32 111.315C174.116 111.887 175.951 112.13 177.829 112.103C179.542 112.46 181.237 112.147 182.922 111.907C183.804 111.782 184.658 111.457 185.524 111.223C186.546 110.91 187.578 110.626 188.587 110.276C189.947 109.805 191.19 109.1 192.3 108.181C192.559 107.966 192.732 107.647 192.945 107.376L192.929 107.389C193.625 107.167 194.122 106.728 194.401 106.05L194.386 106.067C194.847 106.081 195.049 105.685 195.354 105.454C195.865 105.067 196.372 104.674 196.879 104.283C197.716 104.695 197.918 104.934 197.617 105.476C196.839 106.878 196.712 108.496 196.054 109.931C194.823 112.617 193.623 115.317 192.353 117.984C189.924 123.091 187.456 128.18 184.997 133.271C184.755 133.772 184.46 134.246 184.19 134.732C183.785 133.851 183.051 133.616 182.162 133.716C181.705 133.767 181.252 133.851 180.798 133.922C178.165 134.333 175.511 134.503 172.859 134.266C169.794 133.992 166.816 133.284 163.963 132.093C163.021 131.7 162.07 131.325 161.109 130.983C160.79 130.87 160.426 130.886 160.136 130.85C159.734 131.432 159.359 131.915 159.048 132.436C158.262 133.75 157.455 135.056 156.752 136.415C156.149 137.582 156.386 138.557 157.335 139.458C157.557 139.668 157.799 139.866 158.06 140.022C158.805 140.467 159.541 140.933 160.321 141.309C163.4 142.794 166.696 143.492 170.071 143.774C172.362 143.965 174.665 143.887 176.934 143.411C178.208 143.143 179.375 142.667 180.309 141.721C180.368 141.949 180.426 142.177 180.485 142.405C179.176 144.999 177.913 147.617 176.547 150.181C173.884 155.178 171.104 160.112 168.483 165.13C165.368 171.098 162.371 177.128 159.318 183.129C159.088 183.581 158.819 184.014 158.57 184.454C158.229 183.304 157.387 183.013 156.306 183.129C156.103 183.15 155.9 183.177 155.696 183.193C154.628 183.281 153.561 183.373 152.492 183.451C148.674 183.731 144.948 183.313 141.364 181.924C140.035 181.409 138.738 180.809 137.433 180.231C136.438 179.79 135.832 179.912 135.173 180.77C134.956 181.051 134.798 181.377 134.618 181.686C133.794 183.105 133.202 184.622 132.665 186.17C132.487 186.685 132.518 187.076 132.864 187.426C133.438 188.005 134.001 188.615 134.658 189.089C137.024 190.794 139.717 191.748 142.569 192.18C144.023 192.4 145.523 192.432 146.995 192.377C150.008 192.264 153.036 192.111 155.6 190.187C154.044 193.188 152.32 196.085 150.281 198.787C149.138 200.301 147.889 201.72 146.466 202.979C144.061 205.106 141.314 206.489 138.066 206.678C136.999 206.74 135.919 206.689 134.85 206.609C130.667 206.296 126.736 205.045 122.934 203.333C117.102 200.707 111.506 197.63 105.992 194.401C94.5687 187.709 83.3667 180.66 72.2548 173.467C63.2878 167.662 54.2144 162.027 45.1114 156.44C43.2829 155.318 41.5003 154.119 39.7116 152.934C39.2468 152.626 38.8373 152.236 38.4022 151.883C38.5045 151.556 38.6076 151.229 38.7436 150.793C39.1488 150.978 39.4785 151.085 39.7623 151.266C42.6496 153.094 45.4824 155.015 48.4255 156.748C50.928 158.221 53.537 159.52 56.134 160.826C58.1378 161.834 60.1719 162.789 62.2344 163.67C64.7163 164.728 67.2752 165.579 69.8565 166.376C73.1804 167.404 76.5644 168.101 80.001 168.576C80.6037 168.66 81.2172 168.661 81.8263 168.695C82.1309 168.712 82.4458 168.674 82.7402 168.734C84.661 169.126 86.6084 168.964 88.5333 168.917C90.9245 168.859 93.3161 168.654 95.681 168.202C98.2401 167.714 100.791 167.212 103.27 166.392C103.563 166.742 103.863 167.085 104.147 167.442C105.666 169.348 107.508 170.862 109.687 171.95C111.913 173.062 114.253 173.764 116.771 173.528C119.854 173.238 122.801 172.43 125.49 170.859C129.684 168.405 131.885 164.616 132.41 159.882C132.868 155.755 132.068 151.848 129.7 148.349C129.635 147.861 129.818 147.475 130.129 147.101C131.006 146.049 131.881 144.993 132.704 143.897C133.062 143.42 133.289 142.842 133.575 142.31C134.348 143.102 134.573 144.19 135.094 145.118C135.316 145.515 135.501 145.952 135.801 146.28C136.583 147.137 137.407 146.676 137.796 145.971C137.917 145.752 137.987 145.497 138.033 145.249C138.264 143.995 138.426 142.755 138.178 141.459C137.911 140.05 137.586 138.668 137.114 137.318Z" fill="#B21A1E"/>
<path d="M166.16 109.289C164.775 108.656 163.367 108.069 162.01 107.38C159.107 105.907 156.23 104.381 153.343 102.877C153.027 102.713 152.709 102.553 152.393 102.392C151.095 101.6 149.806 100.796 148.499 100.021C146.227 98.6729 143.945 97.3451 141.671 96.0022C141.544 95.9274 141.453 95.7945 141.344 95.6885C141.528 95.3492 141.204 95.3937 141.056 95.3053L141.083 95.326C140.693 94.8838 140.273 94.4905 139.637 94.4608L139.658 94.479C139.446 93.8948 138.876 93.6969 138.426 93.3966C134.055 90.4805 129.673 87.5819 125.285 84.6918C124.954 84.4737 124.552 84.3603 124.184 84.1985L124.205 84.2182C124.119 84.0939 124.033 83.9697 123.947 83.8454C122.685 82.7668 121.268 81.9118 119.86 81.0471C119.739 80.9724 119.568 80.98 119.42 80.9492L119.44 80.9649C119.247 80.8259 119.054 80.686 118.862 80.547L118.883 80.5644C118.674 80.422 118.465 80.2794 118.256 80.137C117.824 79.8724 117.374 79.6336 116.963 79.3398C113.812 77.0877 110.687 74.7986 107.518 72.5739C104.977 70.79 102.385 69.0773 99.8129 67.3373C98.4635 66.4245 97.1111 65.5159 95.7526 64.6164C95.1585 64.2231 94.5465 63.8581 93.942 63.4802C93.7453 63.325 93.5596 63.1536 93.3504 63.0181C90.8342 61.3828 88.2823 59.801 85.8096 58.1035C84.4307 57.1564 83.1684 56.0359 81.8828 54.9583C81.4487 54.5946 81.0545 54.2061 80.472 54.108C80.6422 54.0023 80.8133 53.896 81.032 53.7599C80.847 52.2904 81.7521 51.58 82.9877 51.0743C84.5338 50.4411 86.1618 50.3407 87.7924 50.3053C88.2265 50.2956 88.6934 50.5028 89.0991 50.704C90.2404 51.2699 91.3597 51.8813 92.4847 52.4812C92.8882 52.696 93.282 52.9273 93.6816 53.1516C93.9901 53.4828 94.2539 53.8752 94.6134 54.1359C96.7788 55.7032 98.9654 57.2396 101.145 58.7866C101.586 59.1312 102.011 59.4981 102.469 59.8175C109.888 64.9934 117.315 70.1581 124.732 75.3361C135.13 82.5957 145.83 89.3803 156.787 95.7619C160.187 97.7428 163.617 99.6772 167.24 101.226C170.724 102.714 174.259 104.032 178.13 104.097C182.059 104.163 185.6 103.176 188.579 100.486C190.708 98.5647 192.072 96.2134 192.551 93.4005C192.791 91.993 192.738 90.5531 192.549 89.1218C192.146 86.077 191.006 83.2936 189.524 80.6489C188.3 78.4657 186.968 76.3423 185.659 74.2069C184.859 72.9007 184.01 71.6241 183.183 70.3347C182.789 69.4188 182.247 68.6013 181.551 67.8875C181.245 67.4161 180.955 66.934 180.632 66.4753C174.798 58.1847 168.536 50.2214 162.092 42.4009C159.488 39.2408 156.683 36.2571 153.718 33.4303C153.318 33.0496 152.852 32.7391 152.417 32.3955L152.434 32.4129C152.301 31.9933 152.036 31.7221 151.583 31.6681C151.221 31.316 150.859 30.9638 150.498 30.6118C150.414 30.0452 149.888 29.827 149.573 29.4434C149.053 28.8132 148.45 28.2427 147.997 27.5695C147.18 26.354 147.297 25.1701 148.218 24.211C149.364 23.0181 150.709 22.7088 151.946 23.4355C152.512 23.7684 153.034 24.203 153.509 24.6627C154.648 25.7643 155.773 26.883 156.858 28.0379C160.674 32.1011 164.454 36.1982 168.278 40.2534C172.703 44.9465 176.888 49.8452 180.814 54.9606C184.177 59.3423 187.53 63.7342 190.754 68.2181C194.515 73.4502 197.233 79.2283 199.123 85.3868C199.587 86.8987 199.985 88.443 200.252 90.0011C200.934 93.9884 200.16 97.7388 198.123 101.217C197.583 102.14 196.905 102.983 196.291 103.862C195.556 104.51 194.812 105.149 194.393 106.068L194.408 106.051C193.762 106.327 193.18 106.673 192.936 107.391L192.952 107.378C192.597 107.549 192.221 107.688 191.891 107.898C189.828 109.204 187.66 110.27 185.279 110.863C182.972 111.447 180.65 111.936 178.252 111.937C178.113 111.937 177.974 112.046 177.835 112.105C175.957 112.132 174.122 111.89 172.326 111.318C171.859 111.169 171.336 111.194 170.843 111.117C170.656 111.087 170.48 110.992 170.298 110.927C170.239 110.812 170.208 110.631 170.118 110.596C169.565 110.379 169.002 110.187 168.437 110.003C167.677 109.755 166.917 109.526 166.16 109.289Z" fill="#E05857"/>
<path d="M80.4692 54.1083C81.0524 54.2066 81.4467 54.595 81.88 54.9586C83.1656 56.0362 84.4279 57.1567 85.8068 58.1038C88.2795 59.8013 90.8321 61.384 93.3476 63.0184C93.5567 63.1547 93.7424 63.3261 93.9393 63.4806C92.5373 63.1233 91.0965 63.1098 89.6796 63.1897C87.9242 63.2891 86.2864 63.8974 84.8064 64.8695C82.9941 66.0605 81.5248 67.6255 80.1553 69.2804C77.6106 72.3545 75.3683 75.6429 73.2684 79.0382C71.2262 82.34 69.3276 85.7217 67.381 89.0778C65.1505 92.9227 62.984 96.8004 60.8886 100.72C57.9488 106.217 54.9896 111.704 52.0785 117.215C51.0538 119.156 50.1531 121.161 49.1799 123.129C48.1169 125.279 47.0025 127.404 45.9706 129.569C44.4553 132.748 42.9308 135.926 41.5324 139.157C40.7052 141.069 40.013 143.041 39.4209 145.053C38.9542 146.637 38.631 148.205 38.5487 149.847C38.5191 150.444 38.268 151.029 38.1188 151.619C37.719 151.308 37.2941 151.024 36.9243 150.682C36.3656 150.164 35.8179 149.651 35.1991 149.188C33.8614 148.188 33.4342 146.74 33.5927 145.103C33.723 143.763 34.1323 142.492 34.6798 141.281C35.8382 138.721 36.9523 136.133 38.2781 133.659C42.8209 125.188 46.9932 116.534 51.2178 107.903C58.7917 92.4303 66.5814 77.0672 75.0307 62.0489C76.0081 60.3116 76.9556 58.5571 77.9428 56.826C78.296 56.2059 78.6996 55.6103 79.1288 55.0398C79.4654 54.5952 79.8408 54.156 80.4692 54.1083Z" fill="#D03E3E"/>
<path d="M150.493 30.6103C150.855 30.9625 151.217 31.3146 151.579 31.6667C151.753 32.0401 151.992 32.3397 152.43 32.4116L152.413 32.3941C152.587 33.0708 153.096 33.5211 153.526 34.0188C154.896 35.6016 156.277 37.176 157.656 38.7524C158.967 40.2518 160.282 41.748 161.592 43.2486C163.371 45.2885 165.171 47.3112 166.919 49.3778C168.436 51.1715 169.903 53.0079 171.368 54.8447C171.778 55.3594 172.104 55.9423 172.468 56.4939C172.221 56.3212 171.934 56.1857 171.735 55.9701C169.97 54.0626 168.268 52.0929 166.456 50.233C163.537 47.2396 160.728 44.1392 157.418 41.538C155.839 40.2966 154.211 39.1734 152.416 38.3104C151.462 37.8515 150.427 37.4264 149.39 37.3021C147.107 37.0274 144.942 37.6382 142.905 38.6678C142.331 38.957 142.143 39.4354 142.324 40.1001C142.524 40.8378 142.832 41.5452 143.053 42.2777C143.377 43.3511 143.733 44.421 143.953 45.5166C144.269 47.0904 143.093 48.4544 141.966 48.755C140.901 49.039 139.781 49.1307 138.66 48.7564C137.36 48.3221 136.022 47.9978 134.7 47.6315C134.553 47.5908 134.396 47.5609 134.246 47.5664C133.128 47.6063 132 47.5801 130.894 47.72C128.916 47.9695 126.982 48.4471 125.083 49.0688C122.414 49.9433 119.791 50.9389 117.18 51.9729C112.242 53.9278 107.358 55.9979 102.602 58.3703C102.157 58.5922 101.63 58.6498 101.141 58.7837C98.9613 57.2367 96.774 55.7002 94.6094 54.133C94.2497 53.873 93.986 53.4807 93.6776 53.1488C93.5451 51.8222 93.7086 51.3802 94.8359 51.0065C96.1414 50.5735 97.5025 50.3128 98.835 49.9596C99.2216 49.8575 99.6554 49.777 99.9588 49.5441C101.453 48.3969 103.21 47.831 104.944 47.2217C106.44 46.6964 107.959 46.2394 109.47 45.757C114.2 44.2471 118.836 42.4918 123.371 40.4667C124.677 39.8837 126.01 39.3555 127.349 38.8501C128.742 38.3231 130.061 38.5597 131.288 39.3797C132.181 39.9766 133.062 40.5932 133.975 41.1566C134.756 41.6391 135.567 42.0796 136.387 42.4921C136.625 42.6112 136.943 42.5705 137.317 42.6141C137.262 41.8647 136.956 41.3341 136.642 40.8209C136.056 39.8618 135.426 38.9291 134.835 37.9724C134.596 37.5847 134.359 37.1795 134.215 36.7504C133.985 36.064 134.174 35.5497 134.77 35.1514C135.061 34.957 135.4 34.81 135.738 34.7164C139.588 33.6526 143.352 32.3376 147.054 30.8408C148.173 30.3904 149.314 30.1971 150.493 30.6103Z" fill="#FCEFD3"/>
<path d="M180.309 141.72C179.376 142.667 178.209 143.142 176.934 143.41C174.665 143.886 172.363 143.965 170.072 143.773C166.696 143.491 163.4 142.793 160.322 141.308C159.542 140.932 158.805 140.466 158.061 140.021C157.799 139.865 157.557 139.667 157.336 139.457C156.387 138.555 156.149 137.58 156.752 136.414C157.455 135.055 158.262 133.749 159.048 132.435C159.36 131.914 159.734 131.43 160.136 130.849C160.426 130.885 160.791 130.869 161.109 130.982C162.071 131.324 163.021 131.699 163.963 132.092C166.816 133.283 169.794 133.991 172.86 134.265C175.512 134.502 178.165 134.332 180.799 133.921C181.253 133.85 181.706 133.766 182.162 133.715C183.052 133.615 183.786 133.85 184.19 134.731C183.442 136.319 182.694 137.907 181.946 139.495C181.565 139.673 181.449 140.006 181.424 140.391L181.438 140.371C181.063 140.821 180.686 141.271 180.309 141.72Z" fill="#F19700"/>
<path d="M155.602 190.187C153.038 192.11 150.009 192.263 146.997 192.376C145.524 192.431 144.024 192.399 142.571 192.179C139.719 191.747 137.025 190.794 134.66 189.088C134.003 188.615 133.44 188.005 132.866 187.425C132.52 187.075 132.489 186.684 132.667 186.169C133.204 184.621 133.796 183.105 134.62 181.685C134.799 181.376 134.958 181.051 135.175 180.769C135.834 179.911 136.44 179.789 137.435 180.23C138.739 180.808 140.036 181.408 141.366 181.924C144.95 183.313 148.676 183.73 152.494 183.451C153.563 183.373 154.63 183.28 155.698 183.193C155.902 183.175 156.104 183.15 156.308 183.128C157.388 183.012 158.23 183.303 158.572 184.453C157.778 186.468 156.676 188.32 155.602 190.187Z" fill="#F19700"/>
<path d="M53.5298 133.254C53.3805 132.275 53.5299 131.31 53.7135 130.355C54.6185 125.637 56.727 121.564 60.3417 118.356C62.8544 116.126 65.7677 114.72 69.1667 114.46C70.3488 114.37 71.5171 114.424 72.6547 114.785C72.3064 114.872 71.9535 114.938 71.618 115.055C71.4714 115.107 71.3622 115.263 71.1798 115.421C71.8655 115.685 72.4293 115.914 73.0024 116.119C73.4085 116.264 73.7142 116.506 73.9004 116.897C74.0159 117.65 74.1235 118.405 74.2495 119.156C74.3427 119.71 74.4767 120.256 74.5636 120.81C75.0126 123.649 74.4958 126.282 72.9248 128.713C71.2008 131.38 68.9775 133.523 66.2406 135.11C65.4549 135.565 64.5803 135.906 63.7071 136.161C62.2094 136.599 60.7031 136.557 59.186 136.098C57.6904 135.645 56.3794 134.896 55.1712 133.937C54.684 133.551 54.208 133.168 53.5298 133.254Z" fill="white"/>
<path d="M76.8525 154.437C76.5588 154.337 76.2397 154.242 76.1572 153.903C76.0007 153.259 75.758 152.605 75.7669 151.958C75.799 149.568 76.311 147.298 77.7519 145.315C78.242 144.641 78.8544 144.116 79.5636 143.691C81.1341 142.751 83.7683 143.244 84.0452 146.064C84.1145 146.772 84.0376 147.493 84.0592 148.207C84.0792 148.867 84.0648 149.543 84.2009 150.183C84.575 151.943 85.9534 152.859 87.7326 152.504C88.5763 152.336 89.3889 151.999 90.2088 151.718C90.8355 151.502 91.4383 151.207 92.0734 151.025C94.8749 150.223 96.7853 151.862 96.3848 154.73C96.0489 157.138 94.7869 158.991 92.8759 160.448C92.25 160.926 91.674 160.924 91.066 160.466C90.5099 159.516 89.9858 158.54 89.0815 157.854C89.0294 157.767 88.9929 157.665 88.923 157.596C86.0519 154.746 82.5282 153.694 78.5712 153.848C77.9473 153.873 77.3754 154.091 76.8525 154.437Z" fill="#581207"/>
<path d="M53.5305 133.254C54.2078 133.168 54.6847 133.551 55.1711 133.937C56.3792 134.897 57.6902 135.646 59.1859 136.098C60.703 136.557 62.2094 136.598 63.707 136.161C64.5804 135.905 65.4549 135.565 66.2405 135.11C68.9775 133.523 71.2008 131.38 72.9248 128.713C74.4957 126.282 75.0124 123.65 74.5635 120.81C74.4759 120.256 74.3419 119.709 74.2494 119.156C74.1234 118.405 74.0159 117.65 73.9004 116.897C74.7297 117.657 75.5131 118.432 76.0062 119.489C76.9005 121.405 77.2078 123.387 76.8243 125.457C76.6673 126.303 76.4046 127.136 76.139 127.957C75.2474 130.711 73.937 133.224 71.9007 135.326C69.4245 137.881 66.4904 139.441 62.8914 139.691C60.1318 139.883 57.6346 139.235 55.3884 137.614C54.9345 137.287 54.4514 137.001 53.9815 136.696C53.5307 136.054 53.3798 135.313 53.2582 134.558C53.182 134.083 53.2592 133.651 53.5305 133.254Z" fill="#00A6AA"/>
<path d="M102.78 164.483C102.552 164.337 102.323 164.191 102.093 164.043C101.618 163.155 101.13 162.273 101.174 161.218C101.591 160.604 102.152 160.54 102.79 160.806C103.591 161.141 104.377 161.512 105.186 161.823C107.263 162.622 109.393 162.664 111.509 162.058C114.688 161.147 117.396 159.437 119.469 156.85C121.938 153.772 122.611 150.272 121.607 146.454C121.426 145.765 121.245 145.076 121.064 144.387C121.404 144.695 121.799 144.961 122.072 145.32C122.5 145.884 122.95 146.469 123.203 147.118C123.9 148.908 124.103 150.763 123.794 152.686C123.63 153.708 123.336 154.678 122.968 155.627C122.318 157.302 121.443 158.84 120.24 160.205C119.247 161.332 118.124 162.285 116.874 163.082C114.915 164.331 112.82 165.254 110.46 165.391C109.547 165.443 108.628 165.406 107.713 165.42C106.579 165.438 105.482 165.257 104.408 164.887C103.881 164.706 103.324 164.616 102.78 164.483Z" fill="#00A6AA"/>
<path d="M137.114 137.318C137.586 138.668 137.911 140.05 138.18 141.457C138.429 142.753 138.267 143.992 138.036 145.247C137.99 145.495 137.919 145.75 137.799 145.969C137.41 146.675 136.586 147.136 135.803 146.278C135.503 145.949 135.318 145.512 135.096 145.116C134.575 144.188 134.35 143.1 133.578 142.308C132.781 140.772 131.49 139.684 130.207 138.587C129.665 138.122 129.102 137.67 128.626 137.143C127.19 135.555 127.379 133.545 128.398 132.058C129.27 130.786 130.584 130.412 132.029 130.995C133.004 131.388 133.738 132.088 134.381 132.903C135.462 134.27 136.36 135.748 137.114 137.318Z" fill="#8F1A15"/>
<path d="M53.9808 136.695C54.4507 137 54.9338 137.286 55.3877 137.613C57.6339 139.234 60.1311 139.882 62.8907 139.691C66.4898 139.44 69.4238 137.88 71.9 135.325C73.9363 133.223 75.2467 130.71 76.1383 127.956C76.4047 127.135 76.6674 126.303 76.8235 125.456C77.2064 123.386 76.899 121.404 76.0055 119.488C75.513 118.432 74.729 117.656 73.8997 116.896C73.7142 116.505 73.4077 116.263 73.0024 116.118C72.4294 115.912 71.8648 115.684 71.1798 115.42C71.3622 115.263 71.4721 115.106 71.618 115.055C71.9534 114.937 72.3064 114.871 72.6547 114.785C74.0775 114.988 75.2686 115.685 76.3945 116.521C76.4195 116.666 76.3937 116.857 76.477 116.948C77.4056 117.967 78.0047 119.183 78.5819 120.413C79.3809 124.178 78.6831 127.741 77.0252 131.135C75.371 134.52 72.8932 137.226 69.757 139.28C66.1374 141.65 62.2398 142.011 58.1721 140.568C57.2956 140.256 56.5205 139.769 55.8089 139.172C55.4572 138.876 55.0909 138.6 54.7263 138.308C54.4746 137.767 54.2277 137.231 53.9808 136.695Z" fill="#008B8F"/>
<path d="M83.3758 108.148C82.9938 110.581 80.7184 111.629 78.8252 110.654C78.3273 110.397 77.8125 110.168 77.2919 109.961C76.0628 109.472 74.8331 108.981 73.5858 108.542C73.2147 108.412 72.7837 108.451 72.3794 108.416C71.6699 108.353 70.9498 108.347 70.2526 108.217C69.507 108.079 69.3102 107.343 69.8619 106.847C70.2009 106.543 70.5816 106.269 70.9795 106.049C73.392 104.71 75.9694 103.995 78.7435 104.063C80.0655 104.094 81.2304 104.581 82.2916 105.331C83.2696 106.023 83.6117 106.978 83.3758 108.148Z" fill="#8F1A15"/>
<path d="M76.8518 154.437C77.374 154.091 77.9467 153.872 78.5721 153.848C82.5293 153.693 86.0528 154.746 88.924 157.596C88.9939 157.664 89.0304 157.767 89.0825 157.854C88.9578 158.349 88.5997 158.574 88.1494 158.767C85.685 159.824 83.2459 159.377 80.8576 158.578C79.6631 158.178 78.5591 157.506 77.4143 156.956C77.0997 156.343 76.7843 155.73 76.4667 155.111C76.6095 154.861 76.7307 154.648 76.8518 154.437Z" fill="#EA6481"/>
<path d="M77.4152 156.956C78.56 157.506 79.6632 158.178 80.8585 158.578C83.2475 159.377 85.6861 159.823 88.1503 158.767C88.6006 158.574 88.9587 158.349 89.0834 157.854C89.9885 158.54 90.5118 159.515 91.0679 160.465C91.0769 161.35 90.625 161.868 89.8029 162.139C88.7787 162.476 87.7515 162.643 86.6635 162.539C84.6057 162.343 82.6765 161.776 80.9575 160.622C79.5221 159.658 78.1734 158.586 77.4152 156.956Z" fill="#E04A6D"/>
<path d="M80.7115 126.387C80.6227 124.163 80.1859 122.033 78.8585 120.174C78.5405 118.618 77.727 117.395 76.3962 116.522C76.4212 116.667 76.3953 116.857 76.4787 116.948C77.4072 117.968 78.0063 119.183 78.5836 120.414C79.3826 124.179 78.6848 127.741 77.0269 131.135C75.3727 134.52 72.8949 137.226 69.7587 139.28C66.1391 141.65 62.2415 142.011 58.1738 140.568C57.2972 140.257 56.5222 139.769 55.8106 139.172C55.4589 138.877 55.0926 138.6 54.7279 138.308C56.8262 142.765 62.7832 146.468 69.4058 143.678C77.4666 140.284 80.9351 132.022 80.7115 126.387Z" fill="white"/>
<path d="M112.437 143.7C107.314 146.218 103.649 150.137 101.663 155.514C100.99 157.334 100.593 159.253 101.157 161.218C101.575 160.604 102.136 160.54 102.774 160.806C103.574 161.142 104.36 161.512 105.169 161.823C107.246 162.622 109.376 162.664 111.492 162.059C114.671 161.148 117.379 159.437 119.453 156.85C121.921 153.772 122.594 150.273 121.59 146.454C121.409 145.765 121.228 145.076 121.047 144.387C120.907 143.61 120.03 143.673 119.477 143.096C119.984 142.947 120.346 142.839 120.711 142.732C120.73 142.628 120.748 142.523 120.767 142.419C120.568 142.374 120.372 142.311 120.171 142.287C117.448 141.963 114.859 142.509 112.437 143.7Z" fill="white"/>
<path d="M132.396 159.879C132.854 155.752 132.054 151.845 129.686 148.347C128.902 147.562 128.115 146.78 127.335 145.992C126.586 145.237 125.83 144.494 124.863 144.015C124.47 143.585 123.992 143.306 123.419 143.197C122.621 142.643 121.711 142.471 120.766 142.42C120.747 142.524 120.729 142.629 120.71 142.733C121.598 142.98 122.486 143.226 123.374 143.473C123.738 143.74 124.101 144.007 124.464 144.273C125.747 145.787 126.232 147.603 126.355 149.521C126.59 153.172 125.687 156.528 123.507 159.486C121.659 161.992 119.364 164.009 116.583 165.427C113.664 166.916 110.574 167.419 107.358 166.721C106.272 166.486 105.217 166.048 104.199 165.588C103.663 165.346 103.239 164.86 102.764 164.483C102.535 164.337 102.306 164.191 102.076 164.043C102.469 164.824 102.862 165.608 103.256 166.39C103.549 166.74 103.849 167.083 104.133 167.44C105.652 169.346 107.494 170.86 109.672 171.948C111.899 173.06 114.238 173.762 116.757 173.526C119.84 173.236 122.787 172.428 125.475 170.857C129.67 168.403 131.871 164.613 132.396 159.879Z" fill="white"/>
<path d="M101.142 58.7853C101.631 58.6514 102.158 58.5937 102.603 58.3718C107.357 55.9993 112.243 53.9294 117.181 51.9745C119.793 50.9406 122.414 49.9449 125.084 49.0703C126.983 48.4479 128.917 47.9711 130.895 47.7215C132.001 47.5817 133.128 47.6078 134.246 47.5679C134.397 47.5626 134.554 47.5923 134.7 47.633C136.023 47.9993 137.36 48.3236 138.661 48.7579C139.781 49.1323 140.901 49.0406 141.967 48.7565C143.094 48.4559 144.27 47.092 143.954 45.5181C143.734 44.4218 143.378 43.3519 143.054 42.2793C142.833 41.5469 142.525 40.8393 142.325 40.1016C142.143 39.437 142.332 38.9586 142.905 38.6694C144.943 37.639 147.107 37.0288 149.391 37.3036C150.427 37.4287 151.462 37.8531 152.416 38.3119C154.211 39.1748 155.84 40.2982 157.419 41.5395C160.728 44.1406 163.538 47.2412 166.456 50.2346C168.27 52.0946 169.971 54.0642 171.735 55.9716C171.935 56.1881 172.223 56.3229 172.469 56.4954C172.798 56.8835 173.147 57.2554 173.452 57.6614C175.937 60.9687 178.411 64.2829 180.893 67.5914C181.075 67.8346 181.292 68.053 181.494 68.2829C181.961 69.0448 182.344 69.8756 183.18 70.3356C184.006 71.6251 184.855 72.9024 185.656 74.2079C186.965 76.3424 188.296 78.4659 189.52 80.6498C191.002 83.2945 192.143 86.0773 192.545 89.1227C192.734 90.5532 192.787 91.9939 192.548 93.4015C192.068 96.2144 190.704 98.5656 188.576 100.487C185.596 103.176 182.056 104.163 178.126 104.098C174.256 104.033 170.72 102.715 167.236 101.227C163.613 99.6781 160.184 97.7438 156.783 95.7628C145.827 89.3806 135.127 82.5966 124.728 75.337C117.312 70.1583 109.885 64.9944 102.465 59.8184C102.008 59.4969 101.583 59.1299 101.142 58.7853Z" fill="#FAE3B3"/>
<path d="M181.495 68.2822C181.512 68.1504 181.53 68.0195 181.547 67.8877C182.244 68.6016 182.786 69.419 183.18 70.3349C182.345 69.8749 181.962 69.0441 181.495 68.2822Z" fill="#B8B8B3"/>
<path d="M123.391 143.473C123.755 143.74 124.118 144.007 124.482 144.273C125.765 145.787 126.25 147.603 126.373 149.521C126.608 153.172 125.705 156.528 123.525 159.486C121.677 161.992 119.382 164.009 116.601 165.427C113.682 166.916 110.592 167.419 107.376 166.722C106.29 166.486 105.235 166.049 104.216 165.589C103.681 165.347 103.257 164.861 102.782 164.484C103.325 164.616 103.882 164.707 104.408 164.888C105.483 165.258 106.579 165.439 107.713 165.421C108.628 165.407 109.546 165.444 110.46 165.391C112.82 165.255 114.915 164.331 116.874 163.083C118.124 162.285 119.247 161.333 120.24 160.206C121.442 158.841 122.318 157.303 122.968 155.628C123.336 154.679 123.629 153.708 123.794 152.687C124.103 150.764 123.901 148.908 123.203 147.119C122.95 146.469 122.5 145.884 122.072 145.321C121.799 144.961 121.404 144.695 121.064 144.388C120.924 143.611 120.046 143.673 119.493 143.097C120 142.947 120.363 142.84 120.727 142.733C121.615 142.979 122.503 143.226 123.391 143.473Z" fill="#008B8F"/>
<path d="M199.031 82.2301C198.475 80.9662 197.889 79.7139 197.263 78.4839C194.075 72.2173 190.219 66.3632 186.161 60.6377C179.633 51.4293 172.278 42.9147 164.459 34.7902C160.378 30.55 156.28 26.3279 152.21 22.0792C151.668 21.5139 151.067 21.3886 150.405 21.6347C148.347 22.3998 146.828 23.7778 145.892 25.7761C145.674 26.2421 145.762 26.6825 146.096 27.0589C146.469 27.4798 146.87 27.8755 147.249 28.291C147.468 28.5315 147.668 28.79 147.933 29.1095C147.374 29.2959 146.939 29.4353 146.508 29.587C142.601 30.9584 138.692 32.3231 134.792 33.7142C134.22 33.918 133.654 34.1936 133.155 34.5366C132.4 35.0563 132.241 35.7223 132.604 36.5515C132.767 36.923 132.994 37.2699 133.224 37.6071C133.569 38.1145 133.957 38.5936 134.298 39.1042C134.429 39.3003 134.483 39.5493 134.572 39.7744C133.354 39.4926 132.476 38.8818 131.735 38.1351C130.342 36.7306 128.84 36.639 127.127 37.4523C125.65 38.1541 124.147 38.8098 122.627 39.4137C114.881 42.4908 107.13 45.5602 99.3689 48.5974C97.2274 49.4353 95.0348 50.1414 92.8762 50.936C92.2926 51.1504 91.8186 51.1132 91.3015 50.744C90.5121 50.1809 89.6543 49.7141 88.859 49.1587C88.272 48.7494 87.661 48.6498 86.9713 48.7405C84.9624 49.0046 83.1119 49.7018 81.365 50.7088C80.1839 51.3889 79.1919 52.2331 78.6911 53.5553C78.5655 53.8867 78.3586 54.1872 78.1906 54.5025C71.6854 66.7237 65.1249 78.9158 58.6914 91.175C52.9469 102.122 47.3265 113.134 41.684 124.134C39.2827 128.816 36.9553 133.536 34.6116 138.246C33.6989 140.079 32.9367 141.979 32.3871 143.953C31.7693 146.174 32.1752 148.109 34.0773 149.586C34.8444 150.181 35.5751 150.829 36.3729 151.379C40.4989 154.218 44.5992 157.096 48.789 159.839C53.1063 162.665 57.5089 165.36 61.887 168.093C75.3668 176.508 88.9001 184.837 102.601 192.888C109.96 197.212 117.438 201.315 125.313 204.649C128.922 206.177 132.623 207.278 136.589 207.275C141.876 207.271 146.285 205.413 149.502 201.116C150.633 199.605 151.729 198.05 152.661 196.412C155.211 191.928 157.756 187.436 160.139 182.862C165.027 173.484 169.85 164.071 174.621 154.634C180.014 143.966 185.33 133.258 190.662 122.559C193.214 117.438 195.811 112.337 197.969 107.03C198.894 104.756 199.866 102.49 200.44 100.102C201.904 94.0025 201.579 88.0204 199.031 82.2301ZM105.12 48.4191C105.465 48.6449 105.809 48.8595 106.142 49.0888C113.859 54.391 121.326 60.0305 128.662 65.8419C141.454 75.9741 154.677 85.5229 167.902 95.0699C168.228 95.305 168.576 95.5079 168.875 95.6997C169.23 95.5475 169.382 95.2973 169.186 95.0784C168.885 94.7421 168.504 94.4711 168.135 94.2025C164.287 91.4077 160.445 88.605 156.582 85.8318C146.776 78.7918 137.206 71.4425 127.702 64.0021C120.978 58.7378 114.174 53.5789 107.135 48.7377C106.86 48.549 106.464 48.4481 106.407 48.0243C107.59 47.297 118.56 42.8798 122.926 41.376C123.236 41.6537 123.591 41.9386 123.909 42.2603C127.183 45.5716 130.449 48.8907 133.727 52.1985C134.006 52.4806 134.343 52.7097 134.668 52.9423C134.716 52.9765 134.87 52.9233 134.931 52.8648C134.995 52.8035 135.064 52.6535 135.032 52.6018C134.852 52.3013 134.676 51.9845 134.437 51.7337C132.385 49.5881 130.335 47.4418 128.254 45.3242C126.856 43.9018 125.411 42.5271 123.924 41.0695C124.727 40.3497 125.734 40.1318 126.626 39.7079C127.499 39.2933 128.37 38.8498 129.436 38.7112C129.845 39.0336 130.285 39.3765 130.721 39.7249C132.324 41.0067 134.014 42.1515 135.918 42.9434C136.339 43.1182 136.783 43.2493 137.227 43.3564C137.657 43.4597 138.06 43.3221 138.328 42.9746C138.633 42.5787 138.654 42.1138 138.411 41.6748C138.213 41.3186 137.98 40.9795 137.74 40.6492C136.866 39.4487 135.978 38.2591 135.104 37.0579C134.869 36.7346 134.668 36.3858 134.417 35.9963C134.943 35.5377 135.548 35.4099 136.099 35.1888C136.664 34.9621 137.244 34.7696 137.888 34.5362C138.167 34.8424 138.453 35.1224 138.699 35.4327C150.406 50.132 162.373 64.6181 174.331 79.1118C174.621 79.4642 174.947 79.7904 175.286 80.0967C175.345 80.1505 175.564 80.0698 175.679 80.0004C175.741 79.9629 175.793 79.79 175.759 79.7284C175.588 79.4217 175.415 79.1093 175.193 78.8395C173.601 76.9007 171.985 74.9814 170.399 73.0372C160.658 61.0959 150.922 49.1499 141.187 37.2033C140.416 36.2574 139.662 35.2971 138.917 34.3148C140.233 33.5755 143.805 32.2935 146.681 31.5175C147.066 31.9994 147.49 32.5069 147.889 33.0323C154.366 41.5505 160.842 50.07 167.314 58.5914C168.398 60.0185 169.464 61.4591 170.549 62.8857C170.899 63.3448 171.216 63.454 171.401 63.2255C171.669 62.8958 171.409 62.6519 171.238 62.4213C169.558 60.1612 167.886 57.8951 166.182 55.6528C160.294 47.9083 154.394 40.1743 148.501 32.4343C148.229 32.0763 147.973 31.7047 147.64 31.242C148.325 30.9257 148.937 30.7626 149.631 30.6508C150.033 31.0326 150.442 31.4125 150.84 31.8032C157.293 38.1107 163.265 44.8488 168.867 51.9189C172.651 56.6959 176.353 61.5357 179.792 66.5691C182.915 71.1394 185.822 75.8393 188.165 80.8657C189.225 83.1383 190.226 85.4359 190.807 87.89C190.824 87.9332 190.863 87.9807 190.854 88.0174C190.826 88.1374 190.782 88.2539 190.744 88.3715C190.662 88.2775 190.581 88.1828 190.5 88.0881C190.173 87.6981 189.829 87.3208 189.524 86.9148C185.312 81.3054 181.106 75.6922 176.896 70.0801C176.62 69.7122 176.343 69.3434 176.049 68.9896C175.84 68.7407 175.474 68.6749 175.394 68.8658C175.326 69.0254 175.305 69.2802 175.389 69.415C175.686 69.8921 176.029 70.34 176.367 70.7902C181.037 77.0168 185.708 83.2413 190.379 89.4665C190.655 89.8352 190.963 90.1857 191.191 90.5825C191.364 90.8818 191.512 91.2353 191.535 91.5742C191.616 92.807 191.511 94.0091 191.05 95.1914C190.006 97.8662 187.463 100.585 184.755 101.805C184.663 101.762 184.552 101.739 184.483 101.673C181.19 98.455 177.876 95.258 174.613 92.0086C163.408 80.8491 152.221 69.6713 141.027 58.5011C140.701 58.1758 140.395 57.8233 140.03 57.5492C139.864 57.4246 139.577 57.4603 139.168 57.3945C139.384 57.8042 139.471 58.1044 139.662 58.3061C140.435 59.1234 141.239 59.9136 142.035 60.7088C152.942 71.5872 163.843 82.4723 174.763 93.338C177.193 95.756 179.695 98.1016 182.154 100.492C182.699 101.021 183.279 101.526 183.733 102.294C183.423 102.429 183.172 102.562 182.907 102.65C180.608 103.41 178.281 103.373 175.936 102.892C173.873 102.468 171.887 101.8 169.931 101.034C164.342 98.8477 159.103 95.9702 153.975 92.8865C146.745 88.5391 139.726 83.8608 132.676 79.2326C122.717 72.6937 112.919 65.9217 103.244 58.971C100.628 57.0919 97.9629 55.2825 95.3233 53.4377C94.9533 53.1791 94.5976 52.8996 94.096 52.525C97.8592 51.1213 101.47 49.7772 105.12 48.4191ZM134.596 39.9183C134.595 39.8924 134.668 39.8622 134.707 39.8342C134.733 39.906 134.758 39.9778 134.783 40.0471C134.737 40.0808 134.697 40.1095 134.658 40.1375C134.635 40.0638 134.601 39.9921 134.596 39.9183ZM123.429 201.743C123.063 201.609 122.733 201.516 122.426 201.372C115.115 197.934 108.054 194.026 101.119 189.89C87.6927 181.881 74.383 173.681 61.0956 165.444C53.2311 160.569 45.49 155.516 37.9144 150.208C36.9151 149.508 36 148.681 35.0841 147.869C33.9626 146.874 33.7228 145.635 34.225 144.241C34.6226 143.135 34.9482 141.994 35.4492 140.937C37.1786 137.291 38.9134 133.646 40.7508 130.055C47.1972 117.458 53.6206 104.85 60.179 92.3122C66.5241 80.182 73.0229 68.1317 79.4585 56.0487C79.671 55.6503 79.9237 55.2731 80.2278 54.7696C82.3801 56.292 84.37 57.7261 86.3864 59.1209C95.2125 65.2266 104.027 71.3485 112.883 77.4122C120.936 82.9264 129.011 88.4099 137.121 93.8391C143.704 98.2452 150.427 102.427 157.432 106.142C160.776 107.916 164.214 109.479 167.762 110.802C167.903 110.854 168.035 110.933 168.251 111.038C168.134 111.366 168.051 111.702 167.901 112.007C162.309 123.317 156.711 134.625 151.112 145.932C142.068 164.198 133.021 182.462 123.974 200.726C123.817 201.042 123.641 201.347 123.429 201.743ZM148.543 199.355C148.361 199.601 148.179 199.848 147.991 200.091C145.155 203.752 141.36 205.396 136.79 205.421C132.874 205.443 129.222 204.366 125.695 202.77C125.56 202.709 125.444 202.607 125.326 202.528C125.699 201.272 129.592 193.26 131.976 188.841C132.279 189.006 132.596 189.149 132.879 189.339C136.097 191.503 139.656 192.611 143.512 192.9C146.278 193.108 149.024 193.029 151.768 192.656C152.006 192.623 152.25 192.64 152.728 192.627C151.353 195.096 150.062 197.296 148.543 199.355ZM157.343 184.232C156.395 185.978 155.402 187.703 154.492 189.47C154.154 190.126 153.727 190.468 153.002 190.596C151.039 190.94 149.064 191.158 147.073 191.162C145.748 191.164 144.416 191.133 143.097 191.014C139.843 190.719 136.809 189.737 134.075 187.912C133.699 187.661 133.351 187.37 132.852 186.992C133.983 184.709 135.04 182.579 136.147 180.343C139.457 182.209 142.846 183.535 146.544 184.002C150.217 184.465 153.843 184.215 157.393 183.414C157.63 183.798 157.457 184.023 157.343 184.232ZM159.147 180.758C153.375 183.447 142.882 182.905 137.168 178.586C137.54 177.398 155.46 141.166 156.289 139.953C158.433 141.211 160.61 142.422 163.017 143.153C165.385 143.872 167.812 144.231 170.267 144.372C172.75 144.515 175.234 144.406 177.776 143.983C177.221 145.626 161.198 177.199 159.147 180.758ZM179.18 141.56C173.095 143.932 162.132 142.195 157.077 138.059C158.17 135.857 159.273 133.632 160.401 131.359C161.099 131.771 161.705 132.143 162.326 132.49C164.677 133.806 167.223 134.517 169.871 134.91C173.651 135.471 177.406 135.319 181.14 134.53C181.578 134.438 182.019 134.366 182.798 134.222C181.478 136.899 180.31 139.269 179.18 141.56ZM195.706 107.647C194.22 110.84 192.762 114.048 191.222 117.215C189.012 121.761 186.717 126.265 184.515 130.814C184.139 131.591 183.644 131.967 182.847 132.195C177.563 133.714 172.263 133.818 166.95 132.411C165.113 131.924 163.408 131.102 161.834 130.027C161.67 129.915 161.538 129.756 161.296 129.529C164.262 123.541 167.182 117.648 170.121 111.714C170.449 111.767 170.692 111.803 170.933 111.845C172.948 112.197 174.949 112.673 176.978 112.875C181.443 113.318 185.741 112.619 189.776 110.576C191.704 109.599 193.454 108.363 195.052 106.909C195.314 106.672 195.595 106.457 195.873 106.24C195.901 106.219 195.971 106.252 196.099 106.272C196.158 106.774 195.909 107.211 195.706 107.647ZM196.264 105.983C196.241 105.943 196.196 105.898 196.204 105.866C196.211 105.834 196.273 105.814 196.31 105.789C196.333 105.828 196.354 105.867 196.377 105.907C196.338 105.933 196.301 105.958 196.264 105.983ZM194.952 104.406C190.707 108.846 185.531 111.148 179.354 111.129C175.254 111.116 171.344 110.205 167.537 108.745C161.788 106.539 156.408 103.609 151.127 100.478C142.945 95.6279 135.038 90.3504 127.193 84.9786C114.962 76.6025 102.745 68.2046 90.5351 59.7985C87.7562 57.8854 85.0271 55.9001 82.2766 53.9464C81.9492 53.7134 81.6318 53.4664 81.2401 53.1733C81.4564 52.9599 81.6075 52.7547 81.8083 52.6235C83.2341 51.6886 84.7743 51.039 86.4548 50.6981C87.2106 50.5448 87.8291 50.6464 88.4737 51.089C90.7907 52.6806 93.1667 54.186 95.4705 55.7965C102.51 60.7171 109.482 65.7349 116.561 70.5971C128.146 78.5561 139.846 86.3467 151.814 93.726C156.69 96.7326 161.685 99.5241 166.949 101.802C169.721 103.001 172.546 104.04 175.509 104.696C182.797 106.309 188.94 102.79 192.087 97.3033C193.193 95.3759 193.586 93.3075 193.344 91.0977C193.115 88.9987 192.575 86.979 191.871 84.9999C190.375 80.7878 188.334 76.836 186.07 72.994C182.868 67.5599 179.235 62.4215 175.435 57.3938C169.658 49.7512 163.625 42.3225 156.978 35.4144C154.424 32.7603 151.779 30.1934 149.176 27.5851C148.744 27.1534 148.319 26.7156 147.954 26.3451C147.839 25.758 148.186 25.4792 148.445 25.1823C149.088 24.4415 149.83 23.824 150.883 23.4579C151.306 23.9022 151.751 24.3814 152.208 24.849C155.244 27.964 158.286 31.0737 161.319 34.1922C167.998 41.0587 174.419 48.1522 180.251 55.7624C185.207 62.2303 189.869 68.9013 193.845 76.0232C195.115 78.2986 196.246 80.6559 197.346 83.0206C198.676 85.8821 199.318 88.9302 199.448 92.0773C199.64 96.7973 198.247 100.961 194.952 104.406Z" fill="#203B53"/>
<path d="M81.07 124.767C80.7436 121.052 79.343 117.793 76.3172 115.49C73.2643 113.166 69.7457 112.136 65.9276 112.806C60.7015 113.723 56.5226 116.39 53.5615 120.841C53.0857 121.557 52.7174 122.359 52.402 123.161C51.9487 124.313 51.9107 125.461 52.8684 126.483C52.4461 128.532 52.0866 130.437 52.1767 132.401C52.3215 135.551 53.2199 138.425 55.2418 140.881C57.7216 143.891 60.9722 145.225 64.8311 145.115C67.396 145.041 69.7407 144.206 71.9116 142.875C77.9354 139.178 81.6874 131.805 81.07 124.767ZM61.738 120.555C63.1949 118.403 65.2607 117.227 67.824 116.916C68.1206 116.881 68.4314 116.955 68.6304 116.971C69.7272 117.228 70.1651 117.95 69.8643 118.947C69.7484 119.33 69.5689 119.717 69.3295 120.035C67.8533 122.007 65.8981 123.191 63.435 123.455C62.9973 123.502 62.5133 123.425 62.0949 123.279C61.437 123.05 61.1369 122.506 61.2676 121.828C61.3531 121.387 61.4904 120.919 61.738 120.555ZM58.9341 124.841C59.3333 124.704 59.7702 125.031 59.7837 125.456C59.8096 126.235 59.1606 127.191 58.3721 127.412C58.1204 127.483 57.7541 127.409 57.5393 127.26C57.391 127.156 57.4134 126.809 57.3829 126.674C57.5759 125.685 58.1045 125.125 58.9341 124.841ZM53.6427 133.983C53.6722 134.041 53.7025 134.1 53.732 134.158C53.6807 134.159 53.63 134.159 53.5786 134.159C53.5998 134.1 53.6217 134.041 53.6427 133.983ZM54.4116 136.472C53.8376 135.885 53.6544 135.156 53.6021 134.376C53.5983 134.318 53.6841 134.253 53.7479 134.19L53.7485 134.191C53.8757 134.266 54.0268 134.318 54.1256 134.421C56.5827 136.956 59.6245 137.624 62.98 137.078C66.3164 136.535 69.1086 134.895 71.4639 132.506C74.0898 129.842 75.7907 126.703 76.0909 122.924C76.3186 120.056 75.5883 117.482 73.4999 115.396C73.6821 115.38 73.9013 115.294 74.0433 115.364C75.4458 116.053 76.6501 116.929 77.252 118.482C78.3233 121.243 78.468 124.029 77.7725 126.904C76.894 130.536 75.1134 133.647 72.4589 136.238C68.8451 139.764 64.5557 141.19 59.5385 140.147C58.3039 139.89 57.2257 139.323 56.317 138.467C55.6497 137.836 55.0552 137.129 54.4116 136.472ZM55.9329 139.852C55.9244 139.856 55.9159 139.861 55.9074 139.865C55.8931 139.848 55.8778 139.831 55.8634 139.814C55.8862 139.827 55.9092 139.839 55.9329 139.852ZM71.2249 141.788C69.3555 143.006 67.2703 143.692 65.0231 143.826C61.477 144.038 58.4922 142.895 56.1647 140.162C56.0868 140.07 56.0065 139.979 55.9276 139.889C56.1084 139.921 56.3114 139.926 56.4563 140.022C58.6163 141.443 61.0266 141.761 63.5217 141.564C67.1734 141.276 70.3434 139.846 72.9769 137.295C76.5996 133.785 78.7834 129.552 79.2766 124.498C79.3408 123.84 79.3392 123.177 79.3738 122.394C79.9315 123.456 80.0036 124.519 80.0064 125.553C80.0269 132.549 77.0799 137.975 71.2249 141.788Z" fill="#203B53"/>
<path d="M127.321 144.675C126.088 143.866 124.773 143.168 123.445 142.521C120.42 141.047 117.205 140.578 113.89 141.081C105.376 142.376 99.3777 149.745 99.826 158.119C100.171 164.559 103.319 169.431 109.124 172.245C114.973 175.078 120.724 174.514 126.116 170.815C126.41 170.614 126.674 170.369 126.996 170.108C128.675 170.711 129.492 170.57 130.611 169.46C131.079 168.996 131.493 168.466 131.864 167.921C132.994 166.262 133.825 164.446 134.375 162.523C135.21 159.607 135.299 156.669 134.265 153.774C132.921 150.009 130.693 146.885 127.321 144.675ZM126.245 145.764L126.254 145.801L126.18 145.728C126.202 145.739 126.223 145.752 126.245 145.764ZM108.59 147.021C109.656 145.414 111.235 144.523 113.043 143.991C114.034 143.699 115.038 143.594 116.059 143.841C117.441 144.176 117.937 145.235 117.302 146.517C117.257 146.607 117.192 146.688 117.14 146.776C115.873 148.909 112.491 150.528 110.039 150.175C108.123 149.899 107.524 148.63 108.59 147.021ZM105.907 151.29C106.205 151.27 106.512 151.513 106.555 151.803C106.708 152.833 105.513 154.064 104.365 153.902C104.259 153.745 103.982 153.521 103.968 153.282C103.912 152.384 104.954 151.356 105.907 151.29ZM103.074 163.92C102.084 163.11 101.991 162.923 101.751 161.343C101.842 161.341 101.957 161.3 102.019 161.341C104.544 163.009 107.329 163.464 110.242 162.894C115.962 161.774 120.064 158.538 122.39 153.167C123.13 151.458 123.383 149.633 123.167 147.761C123.006 146.361 122.513 145.088 121.73 143.924C121.513 143.599 121.281 143.284 120.927 142.782C122.625 143.224 123.873 143.838 124.67 145.263C125.701 147.108 126.174 149.054 126.032 151.144C125.928 152.683 125.616 154.184 125 155.608C123.678 158.665 121.808 161.293 119.092 163.288C116.627 165.099 113.848 166.1 110.834 166.238C108.025 166.367 105.336 165.772 103.074 163.92ZM103.878 166.128C103.845 166.12 103.826 166.056 103.801 166.016C103.842 165.994 103.889 165.948 103.923 165.957C103.956 165.965 103.974 166.029 104 166.069C103.959 166.091 103.911 166.137 103.878 166.128ZM130.559 163.294C128.329 168.747 124.094 171.924 118.232 172.623C112.757 173.275 108.201 171.32 104.599 167.153C104.409 166.934 104.297 166.647 104.159 166.386C104.142 166.355 104.187 166.292 104.228 166.168C104.501 166.24 104.792 166.283 105.056 166.389C109.228 168.063 113.34 167.626 117.23 165.667C122.699 162.914 125.895 158.342 127.041 152.345C127.382 150.557 127.182 148.78 126.67 147.04C126.544 146.611 126.39 146.19 126.248 145.766C127.053 146.194 127.638 146.883 128.189 147.582C131.958 152.364 132.856 157.674 130.559 163.294Z" fill="#203B53"/>
<path d="M93.2908 149.732C92.1837 149.747 91.1958 150.13 90.2209 150.597C89.5308 150.927 88.8385 151.256 88.1314 151.547C87.1809 151.939 86.324 151.676 85.5578 151.065C84.6874 150.371 84.3605 149.447 84.4558 148.349C84.5357 147.435 84.6542 146.517 84.647 145.602C84.6293 143.192 82.3937 142.087 80.6642 142.471C79.3058 142.773 78.2067 143.461 77.2908 144.462C75.8975 145.984 75.1124 147.808 74.9372 149.844C74.6399 153.286 75.6344 156.322 78.1098 158.783C80.1988 160.86 82.7673 162.053 85.7907 162.699C86.2432 162.715 86.8531 162.758 87.4635 162.755C90.6932 162.736 95.0682 159.575 96.3205 156.285C96.7698 155.105 96.9834 153.924 96.8013 152.684C96.5292 150.836 95.1493 149.707 93.2908 149.732ZM87.4 161.615C83.7186 161.646 78.8253 159.143 77.0989 155.461C77.0392 155.334 77.0374 155.181 77.0099 155.046C81.6276 152.957 88.743 155.946 90.359 160.714C89.4904 161.356 88.4507 161.606 87.4 161.615ZM95.4153 155.421C94.8913 157.212 93.3293 159.011 91.4719 159.998C90.1493 157.27 88.0559 155.333 85.2387 154.226C82.4398 153.126 79.5655 152.995 76.5656 153.782C76.4577 153.524 76.3032 153.271 76.246 152.997C75.8117 150.929 76.0209 148.923 76.9305 147.011C77.4904 145.835 78.2967 144.853 79.4269 144.17C80.0954 143.767 80.7997 143.493 81.6069 143.592C82.6796 143.723 83.2984 144.243 83.4587 145.314C83.5402 145.858 83.4595 146.429 83.44 146.986C83.4131 147.75 83.2886 148.521 83.3583 149.274C83.524 151.048 84.6505 152.109 86.218 152.743C86.7395 152.954 87.3194 153.001 87.8754 152.798C88.5933 152.537 89.3126 152.277 90.0177 151.984C90.5836 151.749 91.1079 151.395 91.6891 151.22C92.3145 151.031 92.9862 150.888 93.6329 150.906C94.6956 150.934 95.3106 151.523 95.5899 152.544C95.8588 153.525 95.6885 154.485 95.4153 155.421Z" fill="#203B53"/>
<path d="M134.057 131.318C133.506 130.798 132.877 130.334 132.217 129.96C130.845 129.18 129.732 129.386 128.636 130.533C127.881 131.323 127.364 132.261 127.053 133.3C126.654 134.629 126.925 135.832 127.876 136.853C128.188 137.188 128.541 137.488 128.894 137.781C129.325 138.139 129.785 138.465 130.218 138.823C132.062 140.349 133.513 142.158 134.31 144.452C134.511 145.028 134.778 145.591 135.092 146.113C135.323 146.497 135.642 146.852 135.99 147.137C136.524 147.572 137.189 147.463 137.59 146.898C137.792 146.612 137.952 146.278 138.05 145.942C138.221 145.354 138.33 144.748 138.389 144.486C139.208 139.589 137.55 134.619 134.057 131.318ZM136.946 145.574C136.877 145.75 136.786 145.917 136.639 146.23C136.356 145.857 136.118 145.606 135.956 145.312C135.734 144.91 135.538 144.488 135.387 144.055C134.504 141.506 132.876 139.51 130.813 137.832C130.258 137.38 129.697 136.936 129.135 136.494C128.07 135.656 127.834 134.588 128.263 133.34C128.55 132.505 128.995 131.768 129.635 131.153C130.179 130.631 130.823 130.518 131.471 130.851C132.01 131.129 132.529 131.482 132.977 131.891C135.931 134.587 137.412 137.955 137.468 141.949C137.486 143.184 137.402 144.407 136.946 145.574Z" fill="#203B53"/>
<path d="M69.2493 108.431C69.7889 108.564 70.3782 108.677 70.9166 108.599C72.4696 108.374 73.846 108.91 75.2216 109.461C76.0264 109.783 76.7951 110.193 77.5852 110.553C78.1891 110.829 78.797 111.097 79.4106 111.35C80.5383 111.817 81.5178 111.521 82.3654 110.713C83.2037 109.915 83.706 108.918 84.0248 107.644C84.1877 106.726 83.9495 105.777 83.1597 104.989C82.5671 104.396 81.8531 103.979 81.0657 103.753C77.0928 102.61 73.3684 103.201 69.9336 105.491C69.4353 105.823 69.002 106.294 68.6392 106.775C68.1266 107.459 68.4156 108.227 69.2493 108.431ZM70.1399 106.813C73.3927 104.416 76.9589 103.73 80.8362 104.94C81.3519 105.101 81.8454 105.433 82.263 105.787C82.9065 106.333 83.0901 107.089 82.7702 107.871C82.5219 108.478 82.2049 109.076 81.8122 109.599C81.1713 110.452 80.5157 110.591 79.5259 110.177C78.8685 109.901 78.2359 109.567 77.586 109.274C76.7048 108.876 75.8269 108.467 74.9294 108.107C73.643 107.592 72.3159 107.277 70.91 107.439C70.5613 107.478 70.2065 107.459 69.5865 107.474C69.884 107.114 69.9854 106.928 70.1399 106.813Z" fill="#203B53"/>
<path d="M103.924 54.6905C104.273 54.9869 104.62 55.2899 104.993 55.5537C113.674 61.6852 122.358 67.8133 131.046 73.9356C131.325 74.1322 131.647 74.2679 131.914 74.4134C132.25 74.2005 132.348 73.9471 132.123 73.739C131.75 73.3953 131.327 73.1033 130.911 72.8095C122.314 66.7365 113.714 60.6656 105.112 54.5988C104.791 54.3723 104.44 54.1892 104.102 53.9848C103.81 54.5004 103.786 54.5727 103.924 54.6905Z" fill="#203B53"/>
<path d="M147.782 73.4419C141.785 68.4483 135.679 63.5891 129.473 58.8582C129.149 58.6118 128.829 58.355 128.477 58.1538C128.326 58.0674 128.101 58.1122 127.929 58.0987C127.74 58.6089 128.049 58.8234 128.332 59.0415C129.584 60.0064 130.856 60.9472 132.09 61.9348C137.146 65.9823 142.191 70.0452 147.241 74.1004C147.598 74.3871 147.96 74.6724 148.345 74.9186C148.424 74.9685 148.662 74.8814 148.741 74.7869C148.815 74.6984 148.842 74.4553 148.776 74.3849C148.466 74.0496 148.132 73.7339 147.782 73.4419Z" fill="#203B53"/>
<path d="M143.004 192.896C143.289 192.253 143.797 191.928 144.438 191.64C144.937 189.872 145.574 188.167 146.244 186.454C145.871 185.98 145.37 185.462 145.3 184.848C145.257 184.463 145.331 184.216 145.573 183.915L145.914 183.882C146.669 184.145 146.867 184.563 147.219 185.213C147.354 184.861 147.476 184.418 147.667 184.093C147.875 183.742 147.978 183.747 148.362 183.62L148.418 183.641C148.92 183.393 149.111 182.837 149.355 182.373C149.335 182.352 149.315 182.33 149.295 182.31C148.976 181.984 148.593 181.649 148.42 181.225C148.268 180.849 148.312 180.591 148.463 180.229C148.682 180.11 148.73 180.054 148.994 180.052C149.696 180.047 150.163 180.606 150.637 181.034L152.452 179.373C152.305 178.928 152.089 178.443 152.28 177.982C152.396 177.702 152.547 177.544 152.863 177.493C153.275 177.425 153.646 177.7 153.971 177.903C154.815 177.246 160.054 173.139 160.472 173.006C160.817 173.065 160.903 173.061 161.159 173.281L161.151 173.561C160.757 174.314 160.091 174.734 159.376 175.169C161.44 174.598 163.659 173.906 165.779 173.598C166.878 173.438 168.247 173.955 169.276 173.538C169.489 173.284 169.585 173.122 169.913 173C170.524 173.09 171.084 173.405 171.683 173.464C172.5 173.545 173.338 173.514 174.162 173.594C179.194 174.088 183.859 175.35 188.034 178.198C192.761 181.422 197.679 188.379 199.683 193.572C200.631 196.027 201.14 198.602 201.589 201.176C202.153 201.559 202.728 202.013 203.002 202.636C202.88 203.11 202.489 203.195 202.185 203.559C201.786 204.037 201.946 204.706 201.988 205.28C202.014 206.164 201.951 207.053 201.858 207.932C201.181 214.34 198.654 219.251 193.442 223.329L194.411 224.345C194.147 224.772 193.881 225.264 193.326 225.371C192.526 225.525 191.671 224.876 191.027 224.498C190.776 224.709 189.402 225.693 189.403 225.963C189.405 226.228 189.634 226.474 189.552 226.751C189.467 227.042 189.231 227.266 188.949 227.391C188.477 227.6 187.586 227.141 187.134 226.968C186.277 227.423 185.416 227.759 184.499 228.089C184.718 228.282 184.92 228.468 185.05 228.729C185.199 229.025 185.16 229.326 185.055 229.625C184.92 229.765 184.799 229.883 184.613 229.959C183.39 230.459 182.632 229.812 181.549 229.415C181.213 229.291 181.036 229.251 180.701 229.374C180.485 229.687 180.303 229.938 179.993 230.176C179.421 230.281 178.99 230.071 178.472 229.872C178.192 229.954 178.071 229.987 177.853 230.189C177.597 230.427 177.774 230.299 177.496 230.495C177.044 230.811 176.03 230.534 175.505 230.453C175.981 230.954 176.485 231.257 177.041 231.662C177.392 231.918 177.533 232.144 177.6 232.557C177.437 232.784 177.362 232.927 177.053 232.986C175.881 233.206 173.857 230.997 172.9 230.388C171.732 229.646 169.698 229.713 168.335 229.304C165.277 228.387 162.123 226.831 159.492 225.094C152.142 220.243 146.262 213.186 144.375 204.699C143.752 201.892 143.715 199.045 143.172 196.242C143.124 195.848 143.115 195.542 143.392 195.223C144.438 194.019 142.926 194.169 143.004 192.896ZM188.605 194.12C190.354 195.946 192.296 197.603 194.099 199.379C195.649 200.906 197.069 202.568 198.686 204.028C199.004 204.316 199.615 204.945 200.048 204.979C200.069 204.98 200.091 204.976 200.112 204.974L200.119 202.784C198.127 201.593 189.76 194.375 188.605 194.12ZM184.164 196.576C187.546 199.533 190.971 202.314 194.06 205.575C195.261 206.842 197.99 210.267 199.447 210.937C199.651 210.809 199.596 210.894 199.642 210.7C199.844 209.864 199.975 209.046 200.022 208.188C197.979 206.926 195.995 205.583 194.07 204.16C192.66 203.122 185.029 196.565 184.164 196.576ZM189.702 186.86C191.369 189.244 193.149 191.549 195.04 193.775C196.434 195.394 197.928 196.938 199.226 198.631C198.982 197.708 198.704 196.827 198.35 195.937C196.932 192.814 194.772 190.783 192.364 188.345C191.702 187.676 191.022 186.782 190.262 186.23C190.424 186.461 191.133 187.309 191.131 187.523C190.754 187.228 190.318 186.704 189.86 186.608C189.706 186.821 189.739 186.73 189.702 186.86ZM181.12 199.948C182.38 200.942 183.653 201.928 184.832 203.012C186.495 204.544 196.92 214.883 197.771 215.236C198.027 215.063 197.918 215.171 198.092 214.907L198.707 213.488C196.908 212.391 195.244 211.201 193.601 209.901C191.819 208.49 182.42 200.096 181.12 199.948ZM174.152 200.375C175.509 201.501 176.883 202.617 178.208 203.78C180.522 205.812 194.575 218.662 195.511 218.909C195.769 218.792 195.916 218.664 196.114 218.468L196.429 218.012C196.263 217.452 194.626 216.501 194.072 216.098C192.111 214.671 190.204 213.18 188.351 211.625C186.249 209.874 176.153 201.064 174.461 200.4C174.362 200.361 174.255 200.355 174.152 200.375ZM168.717 201.302C170.195 203.153 173.244 205.636 175.103 207.343C180.052 211.89 186.666 218.518 192.256 222.033C192.482 221.973 192.663 221.908 192.868 221.798C192.647 221.195 188.358 218.358 187.502 217.724C185.663 216.362 183.934 214.759 182.227 213.246C179.328 210.657 176.444 208.051 173.576 205.431C172.601 204.545 169.911 201.804 168.961 201.342C168.834 201.281 168.854 201.296 168.717 201.302ZM167.454 207.005C167.922 207.632 168.502 208.168 169.06 208.72C168.915 208.894 168.641 209.115 168.668 209.342C168.779 210.241 169.976 210.739 170.456 211.465C170.834 211.799 171.217 212.128 171.603 212.454C172.406 213.445 173.1 214.134 174.204 214.813C174.349 214.937 174.491 215.04 174.658 215.135C176.508 216.186 177.957 217.906 179.6 219.248C182.138 221.283 184.803 223.155 187.591 224.862C188.095 224.454 188.64 224.136 189.201 223.807C182.937 220.721 177.669 215.755 172.5 211.249C171.167 210.087 168.909 207.735 167.454 207.005ZM173.29 218.164C176.259 221.324 179.403 224.258 182.888 226.902L184.569 226.395C184.482 226.061 183.865 225.819 183.554 225.639C181.18 224.264 178.987 222.785 176.874 221.064C175.721 220.125 174.587 218.876 173.316 218.117L173.29 218.164ZM169.679 175.681C171.18 176.829 183.42 185.371 184.09 185.367L184.075 185.256C182.506 183.854 173.222 177.041 172.833 176.152L172.906 175.747C172.36 175.348 170.828 175.398 170.16 175.479C169.919 175.508 169.859 175.518 169.679 175.681ZM178.465 176.363C178.81 176.766 179.127 177.238 179.717 177.275C179.959 177.289 180.038 177.201 180.237 177.091C179.748 176.646 179.238 176.398 178.573 176.288L178.465 176.363ZM163.985 176.207C165.768 177.63 179.409 187.911 179.924 188.023L179.816 187.819C177.283 184.9 172.338 181.372 169.226 178.768C168.074 177.804 167.139 176.592 165.969 175.664C165.414 175.759 164.484 175.799 164.027 176.1L163.985 176.207ZM158.292 177.698C159.504 178.323 160.649 179.001 161.768 179.767C163.43 180.905 177.951 191.649 178.484 191.582L178.079 191.211C173.549 187.453 168.75 183.988 164.389 180.047C163.219 178.99 161.897 177.912 160.95 176.661C160.219 176.918 158.846 177.217 158.292 177.698ZM167.19 222.388C169.511 224.476 171.774 226.697 174.219 228.647C175.15 228.453 176.043 228.368 176.991 228.309C176.717 227.951 168.484 223.012 167.333 222.35L167.19 222.388ZM155.259 179.278C157.45 180.73 159.459 182.534 161.503 184.174C164.261 186.386 167.127 188.38 170.035 190.401C171.21 191.218 172.295 192.147 173.527 192.885L173.586 192.833C173.431 192.653 173.278 192.472 173.109 192.304C169.753 189.484 166.241 186.845 162.941 183.961C160.815 182.104 158.858 179.786 156.507 178.208C156.041 178.541 155.623 178.835 155.259 179.278ZM152.315 181.838C154.135 183.153 164.018 192.18 165.26 192.309C165.115 192.137 164.975 191.964 164.813 191.806C161.797 189.181 158.875 186.518 156.122 183.635C155.203 182.674 154.18 181.694 153.444 180.594C153.036 180.987 152.61 181.356 152.315 181.838ZM149.678 185.016C150.562 185.935 151.474 186.827 152.414 187.693C153.641 188.809 163.792 197.702 164.474 197.92C164.404 197.664 164.322 197.56 164.129 197.372C161.309 194.793 152.063 186.616 150.604 183.86L149.678 185.016ZM159.813 209.438C159.989 209.696 160.129 209.82 160.402 209.99C160.438 210.012 160.663 210.144 160.699 210.181C160.985 210.472 160.651 210.562 160.707 210.907C161.07 210.92 161.322 210.844 161.659 210.732L161.789 210.688L161.78 210.823L161.779 210.823L161.549 211.106C161.629 211.49 162.023 211.837 162.351 212.05C162.718 212.29 163.095 212.448 163.541 212.367C163.581 212.108 163.48 212.043 163.324 211.833C163.185 211.648 163.034 211.471 162.877 211.296L162.404 210.781C162.043 210.174 161.5 209.433 160.895 209.039C160.588 208.838 160.427 208.821 160.072 208.88C159.884 209.111 159.85 209.151 159.813 209.438ZM149.083 212.821C152.738 218.033 157.022 222.386 162.783 225.493C162.985 225.465 162.926 225.509 163.003 225.434C159.824 222.855 156.683 220.267 153.745 217.429C152.171 215.909 150.757 214.24 149.185 212.723L149.083 212.821ZM146.027 194.43C148.563 197.445 151.164 200.373 153.815 203.293C155.676 205.344 157.501 207.409 159.56 209.283C159.865 208.97 160.293 208.633 160.341 208.193C160.213 207.704 159.714 207.288 159.368 206.917C156.456 203.497 153.647 199.999 150.941 196.426C149.506 194.565 147.997 192.756 146.756 190.765C146.258 191.902 146.058 193.201 146.027 194.43ZM145.663 197.142C145.407 197.505 145.438 198.089 145.465 198.523C145.503 199.358 145.553 200.196 145.57 201.032C145.986 200.843 146.161 200.705 146.625 200.757C147.412 201.323 148.046 202.081 148.729 202.757C149.999 203.992 151.251 205.244 152.486 206.511C152.897 206.934 153.292 207.481 153.734 207.857C153.918 208.014 154.131 208.055 154.365 208.099C154.387 208.482 154.345 208.527 154.619 208.797C154.893 208.874 155.161 208.939 155.44 209C155.672 209.052 155.745 209.106 155.908 209.264L155.86 209.448L155.43 209.674C155.443 209.945 155.594 210.133 155.822 210.304C156.153 210.554 156.609 210.543 157.011 210.568L157.272 210.759C157.123 211.012 157.221 210.9 156.967 211.088C157.443 211.826 158.692 212.875 159.44 213.384C159.737 213.261 159.74 213.207 159.906 212.934L159.885 212.728L159.306 212.9L159.213 212.803C159.3 212.652 159.382 212.528 159.488 212.39L159.484 212.343L159.108 212.154C159.105 211.924 159.082 212.033 159.172 211.824C158.774 211.655 158.345 211.875 157.975 211.737C158.266 211.625 158.548 211.508 158.83 211.377L158.828 211.218L158.583 211.059C158.358 211.116 157.829 211.34 157.625 211.283C157.813 211.072 157.985 210.976 158.239 210.848L158.102 210.816L158.323 210.785C157.822 209.925 156.025 208.343 155.251 207.516C153.497 205.647 151.753 203.768 150.021 201.88C148.941 200.684 146.925 197.917 145.663 197.142ZM147.52 188.942C150.236 191.122 152.633 193.844 155.094 196.292C155.915 197.108 156.726 198.03 157.643 198.74L157.382 198.265C155.571 196.313 153.723 194.398 151.955 192.41C150.705 191.004 149.528 189.413 148.126 188.152L147.897 188.147C147.644 188.411 147.606 188.603 147.52 188.942ZM145.905 202.821C145.747 203.06 145.803 203.087 145.838 203.356C145.916 203.794 145.98 204.24 146.075 204.675C148.061 206.273 149.695 208.079 151.418 209.924C152.486 211.067 153.596 212.34 154.88 213.261L155.011 213.244L154.717 212.845C152.554 211.077 149.878 207.825 148.105 205.629C147.477 204.851 146.707 203.375 145.905 202.821Z" fill="white"/>
<path d="M172.038 190.819C174.532 190.819 176.458 191.351 177.818 192.417C179.178 193.459 179.858 194.887 179.858 196.701C179.858 197.471 179.711 198.163 179.416 198.775C179.122 199.364 178.748 199.863 178.294 200.271C177.841 200.679 177.354 200.996 176.832 201.223C177.467 201.427 178.045 201.744 178.566 202.175C179.11 202.605 179.541 203.161 179.858 203.841C180.198 204.498 180.368 205.314 180.368 206.289C180.368 207.581 180.017 208.703 179.314 209.655C178.612 210.584 177.637 211.298 176.39 211.797C175.166 212.273 173.738 212.511 172.106 212.511C170.633 212.511 169.375 212.363 168.332 212.069C167.312 211.797 166.53 211.411 165.986 210.913C165.442 210.391 165.17 209.825 165.17 209.213C165.17 208.669 165.295 208.193 165.544 207.785C165.816 207.377 166.145 207.071 166.53 206.867C167.029 207.207 167.664 207.558 168.434 207.921C169.228 208.283 170.248 208.465 171.494 208.465C172.718 208.465 173.659 208.227 174.316 207.751C174.974 207.275 175.302 206.64 175.302 205.847C175.302 205.076 175.03 204.475 174.486 204.045C173.942 203.614 173.058 203.399 171.834 203.399H168.74C168.582 203.172 168.446 202.9 168.332 202.583C168.242 202.243 168.196 201.857 168.196 201.427C168.196 200.973 168.242 200.577 168.332 200.237C168.446 199.897 168.582 199.625 168.74 199.421H171.766C172.809 199.421 173.568 199.228 174.044 198.843C174.52 198.457 174.758 197.902 174.758 197.177C174.758 196.474 174.464 195.919 173.874 195.511C173.285 195.08 172.424 194.865 171.29 194.865C170.338 194.865 169.488 194.989 168.74 195.239C168.015 195.488 167.414 195.783 166.938 196.123C166.598 195.873 166.304 195.567 166.054 195.205C165.828 194.842 165.714 194.423 165.714 193.947C165.714 193.267 165.975 192.7 166.496 192.247C167.018 191.793 167.754 191.442 168.706 191.193C169.681 190.943 170.792 190.819 172.038 190.819Z" fill="#203B53"/>
<path d="M30.1223 9.038C34.7358 8.68927 39.5798 10.7802 43.0799 13.6928C46.6255 16.6436 48.7024 21.4378 49.1123 25.9727C49.5551 30.8779 47.9529 35.6197 44.8108 39.3872C41.3907 43.4885 36.8098 45.4256 31.5997 45.8893C27.4234 45.9979 22.6115 45.6912 19.1734 43.005C15.4686 40.1108 12.6143 34.7921 12.1174 30.1302C11.5607 24.907 12.9875 19.8865 16.3167 15.8124C19.8298 11.5134 24.711 9.60778 30.1223 9.038Z" fill="#FACA2E"/>
<path d="M40.1726 17.5774C40.4817 17.6167 40.7915 17.6676 41.054 17.8561C41.4381 18.1323 41.4409 18.3392 41.4918 18.7654C40.8131 20.6226 36.2188 24.1807 34.4521 25.31C33.8678 25.3259 33.8526 25.2856 33.373 24.94C33.2422 24.6602 33.1039 24.523 33.1725 24.204C33.506 22.652 38.7253 18.6222 40.1726 17.5774Z" fill="#020201"/>
<path d="M27.2283 13.8477L28.0005 13.9485C29.4258 14.9872 29.8721 21.6152 30.2789 23.592C30.4833 24.5862 30.8158 25.5001 31.1949 26.4395C34.3674 27.8072 39.9776 28.7013 42.5386 30.4562C43.0051 30.776 43.2877 31.0695 43.3867 31.6475C43.1784 32.1125 43.1101 32.1713 42.6931 32.4701C41.1518 32.7973 34.8127 30.2769 32.726 29.727C33.5791 32.2282 35.0826 35.7152 35.5204 38.2182C35.6036 38.6946 35.5562 39.0313 35.2856 39.4384C34.8375 39.6616 34.8502 39.6577 34.365 39.5342C32.6167 38.0611 31.2635 31.8522 30.4065 29.4631C29.8272 30.0131 29.2755 30.5974 28.7135 31.1654C27.2195 33.0335 25.6078 35.411 23.7241 36.894C23.1935 37.3113 22.6796 37.5738 21.9938 37.4963C21.5486 37.1981 21.5408 37.2314 21.4173 36.715C21.9712 34.5784 26.6027 30.1775 28.2866 28.331C25.0589 26.8515 21.1726 26.2089 18.1348 24.3867C17.6665 24.1055 17.4165 23.9251 17.3429 23.3561C17.281 22.8779 17.5176 22.4782 17.8063 22.1267C17.9771 22.0644 18.1369 21.9463 18.3187 21.9406C18.66 21.9297 28.0659 25.9344 29.1022 26.3295C27.9661 24.0284 27.1095 18.239 26.7378 15.5358C26.6236 14.7032 26.7424 14.4882 27.2283 13.8477Z" fill="#020201"/>
</svg>
