<svg width="671" height="130" viewBox="0 0 671 130" fill="none" xmlns="http://www.w3.org/2000/svg">
<path d="M626.907 116.711C642.41 119.04 656.812 119.937 670.018 119.233L670.55 129.22C656.525 129.967 641.432 129.005 625.422 126.6L626.907 116.711ZM542.272 94.5166C556.787 99.5537 570.788 103.932 584.223 107.556L581.618 117.211C567.919 113.516 553.69 109.064 538.994 103.964L542.272 94.5166ZM460.416 62.0137C474.278 68.0713 487.846 73.7785 501.082 79.0713L497.369 88.3564C484.02 83.0186 470.354 77.2697 456.411 71.1768L460.416 62.0137ZM25.8799 55.209C17.5402 55.7289 8.92529 56.0107 0 56.0107V46.0107C8.71427 46.0107 17.1217 45.7357 25.2578 45.2285L25.8799 55.209ZM376.42 24.0303C384.097 27.1615 391.996 30.6405 400.138 34.4912L405.174 36.8672C410.201 39.2331 415.198 41.5679 420.165 43.8682L415.963 52.9424C410.976 50.6329 405.959 48.2892 400.915 45.915L395.862 43.5312C387.876 39.7542 380.144 36.3491 372.644 33.29L376.42 24.0303ZM127.197 37.0811C111.384 41.4 94.8478 45.5266 77.1113 48.8174L75.2871 38.9854C92.6484 35.7642 108.893 31.7144 124.562 27.4346L127.197 37.0811ZM225.606 12.5283C208.926 14.9863 192.749 18.8299 176.325 23.2646L173.719 13.6104C190.316 9.12861 206.917 5.17494 224.148 2.63574L225.606 12.5283ZM276.014 0C292.123 0.822632 309.099 3.25164 327.354 7.78906L324.941 17.4941C307.295 13.1079 290.956 10.7764 275.503 9.9873L276.014 0Z" fill="#54E6ED"/>
</svg>
