<svg width="60" height="60" viewBox="0 0 60 60" fill="none" xmlns="http://www.w3.org/2000/svg">
<path d="M59.999 40.1053C59.7148 40.748 59.2064 41.0735 58.5654 41.3611C58.0667 43.1292 57.429 44.8345 56.7597 46.5476C57.132 47.0211 57.6334 47.5395 57.7031 48.1531C57.7468 48.538 57.6725 48.7853 57.4306 49.0867L57.0898 49.1189C56.3343 48.8563 56.1365 48.4379 55.7841 47.7879C55.6492 48.1405 55.5278 48.5834 55.3359 48.908C55.1281 49.2592 55.0253 49.2539 54.6415 49.3816L54.5849 49.3601C54.0833 49.6079 53.8924 50.1639 53.6484 50.6287C53.6679 50.6494 53.6879 50.6708 53.7079 50.6912C54.0275 51.017 54.4102 51.3518 54.5829 51.7762C54.7357 52.1519 54.6912 52.4099 54.54 52.7723C54.3209 52.8909 54.2731 52.9471 54.0097 52.949C53.3071 52.9538 52.8402 52.3952 52.3661 51.9676L50.5517 53.6287C50.698 54.0728 50.9142 54.558 50.7236 55.0193C50.6076 55.2997 50.4567 55.4568 50.1406 55.5086C49.7283 55.5759 49.3573 55.3009 49.0322 55.0984C48.1879 55.7552 42.9495 59.8622 42.5312 59.9949C42.1866 59.9361 42.1008 59.9407 41.8447 59.7205L41.8525 59.4402C42.2467 58.6877 42.9123 58.267 43.6269 57.8318C41.563 58.4036 39.3439 59.095 37.2245 59.4031C36.1255 59.563 34.7562 59.0465 33.7275 59.4637C33.5141 59.717 33.4185 59.8795 33.0908 60.0008C32.4794 59.9116 31.9197 59.5964 31.3202 59.5369C30.5036 59.4558 29.6652 59.4877 28.8417 59.407C23.8094 58.9137 19.1447 57.6512 14.9697 54.8035C10.242 51.5794 5.32397 44.6218 3.32025 39.4295C2.3726 36.974 1.86301 34.3988 1.414 31.825C0.850051 31.4423 0.275206 30.9878 0.0009142 30.365C0.123236 29.8911 0.513892 29.8065 0.818297 29.4422C1.21731 28.9644 1.0576 28.2952 1.01556 27.7215C0.989489 26.8378 1.05252 25.948 1.14545 25.0691C1.82239 18.6614 4.34981 13.7498 9.56146 9.67265L8.59271 8.65605C8.8563 8.22889 9.12244 7.73762 9.67767 7.63066C10.4769 7.47634 11.3325 8.12532 11.9765 8.5037C12.2277 8.29249 13.6011 7.30865 13.6005 7.03788C13.5982 6.77323 13.3698 6.52684 13.4511 6.2498C13.5368 5.95882 13.7719 5.73526 14.0546 5.61015C14.5262 5.40091 15.4173 5.86046 15.8691 6.033C16.7263 5.57835 17.5879 5.24191 18.5048 4.91191C18.2858 4.71968 18.0837 4.53302 17.9531 4.27226C17.8045 3.97641 17.8434 3.67478 17.9482 3.37577C18.0829 3.23579 18.2042 3.1181 18.3906 3.04179C19.6137 2.542 20.3716 3.18893 21.454 3.58671C21.7907 3.71036 21.9671 3.75026 22.3027 3.62773C22.5184 3.31474 22.7005 3.06362 23.0107 2.82499C23.5823 2.71976 24.013 2.93065 24.5312 3.12968C24.8118 3.04754 24.932 3.01471 25.1503 2.8123C25.4066 2.57466 25.2294 2.70188 25.5078 2.50663C25.9593 2.19022 26.973 2.46746 27.498 2.54863C27.0219 2.04679 26.518 1.74378 25.9628 1.33964C25.6112 1.08358 25.4704 0.8569 25.4033 0.444133C25.566 0.217006 25.6415 0.0737861 25.9501 0.0154221C27.1226 -0.20523 29.1464 2.00469 30.1035 2.61308C31.2712 3.35502 33.3057 3.2883 34.6679 3.69706C37.7262 4.61466 40.8805 6.17031 43.5117 7.90702C50.8615 12.7584 56.7417 19.8155 58.6279 28.3025C59.2515 31.109 59.288 33.9562 59.831 36.7596C59.8796 37.1529 59.8883 37.4589 59.6113 37.7781C58.5653 38.9818 60.0777 38.8323 59.999 40.1053ZM14.3984 38.8807C12.6495 37.0547 10.7078 35.3985 8.90423 33.6219C7.35468 32.0955 5.93396 30.4337 4.31732 28.9734C3.99907 28.6858 3.38901 28.0557 2.95599 28.0213C2.93513 28.0197 2.91362 28.0254 2.89252 28.0271L2.8847 30.2176C4.87623 31.4079 13.2434 38.6255 14.3984 38.8807ZM18.8398 36.4256C15.4578 33.4679 12.0328 30.686 8.9433 27.4256C7.74207 26.1579 5.01348 22.734 3.55658 22.0642C3.35256 22.1918 3.40697 22.1064 3.36127 22.3006C3.15896 23.1367 3.02798 23.9546 2.98138 24.8133C5.02436 26.0753 7.00883 27.4187 8.93353 28.8416C10.3438 29.8792 17.9746 36.4366 18.8398 36.4256ZM13.3017 46.1414C11.6341 43.7572 9.85425 41.4521 7.9638 39.2264C6.56949 37.6068 5.07586 36.0634 3.77728 34.3699C4.02091 35.2931 4.29947 36.1741 4.65326 37.0642C6.07114 40.1871 8.23134 42.2185 10.6396 44.656C11.3009 45.3252 11.9817 46.2185 12.7411 46.7703C12.5792 46.5385 11.8705 45.6918 11.872 45.4783C12.2493 45.7728 12.6852 46.297 13.1435 46.3934C13.2969 46.1799 13.2641 46.2711 13.3017 46.1414ZM21.8837 33.0525C20.6231 32.0588 19.3499 31.0736 18.1718 29.9891C16.509 28.4583 6.08786 18.1227 5.23334 17.7654C4.97655 17.9385 5.08519 17.8305 4.91107 18.0945L4.29681 19.5135C6.09478 20.6099 7.75904 21.7991 9.40228 23.0994C11.1842 24.5095 20.5831 32.9037 21.8837 33.0525ZM28.8515 32.6267C27.4939 31.5001 26.1203 30.3838 24.7958 29.2215C22.4811 27.1896 8.42809 14.3388 7.49213 14.0926C7.23424 14.2096 7.08719 14.3371 6.88959 14.533L6.57416 14.9891C6.74075 15.5497 8.3773 16.5005 8.93158 16.9031C10.8927 18.3306 12.7996 19.8217 14.6523 21.3767C16.7546 23.1271 26.8503 31.936 28.5419 32.6004C28.6409 32.639 28.7485 32.6462 28.8515 32.6267ZM34.2861 31.699C32.8086 29.8487 29.7589 27.3655 27.9003 25.658C22.9516 21.1116 16.3375 14.4829 10.747 10.9685C10.521 11.0281 10.3404 11.0934 10.1357 11.2029C10.356 11.8058 14.6449 14.6435 15.5009 15.2771C17.3405 16.6388 19.0697 18.2426 20.7763 19.7557C23.6754 22.3444 26.5592 24.949 29.4277 27.5691C30.4019 28.4554 33.0918 31.1963 34.0419 31.658C34.169 31.7197 34.1492 31.7053 34.2861 31.699ZM35.5497 25.9949C35.0817 25.3684 34.5014 24.8334 33.9433 24.281C34.0882 24.1068 34.363 23.8859 34.3349 23.658C34.2237 22.7591 33.0269 22.2617 32.5478 21.5359C32.1688 21.2026 31.7865 20.8725 31.4003 20.5467C30.5971 19.555 29.903 18.8674 28.7997 18.1883C28.6548 18.0645 28.5128 17.9609 28.3456 17.866C26.4958 16.8148 25.0462 15.0948 23.4033 13.7537C20.8654 11.7179 18.2008 9.84641 15.412 8.13945C14.9083 8.54743 14.3643 8.86575 13.8036 9.19413C20.0675 12.28 25.334 17.2461 30.5038 21.7527C31.8365 22.914 34.0945 25.265 35.5497 25.9949ZM29.7148 14.8377C26.745 11.677 23.6001 8.74367 20.1152 6.09941L18.4345 6.60624C18.5217 6.94058 19.1399 7.18229 19.4501 7.3621C21.824 8.73696 24.0164 10.2162 26.1298 11.9373C27.282 12.8758 28.416 14.1239 29.6874 14.8836L29.7148 14.8377ZM33.3242 57.3191C31.822 56.17 19.583 47.6301 18.913 47.6346L18.9286 47.7439C20.4968 49.1464 29.7817 55.9586 30.1708 56.8484L30.0976 57.2547C30.6439 57.653 32.1755 57.6029 32.8437 57.5223C33.0846 57.4934 33.1446 57.483 33.3242 57.3191ZM24.538 56.6385C24.1936 56.2348 23.8763 55.7617 23.2861 55.7254C23.0449 55.7108 22.9647 55.799 22.7665 55.909C23.2558 56.3546 23.7653 56.6033 24.4306 56.7137L24.538 56.6385ZM39.0185 56.7937C37.2356 55.3697 23.5946 45.0892 23.079 44.9773L23.1874 45.1824C25.7206 48.1017 30.6653 51.6293 33.7773 54.2332C34.929 55.197 35.8656 56.4081 37.0351 57.3367C37.5901 57.2411 38.5191 57.2014 38.9765 56.9002L39.0185 56.7937ZM44.7109 55.3035C43.4997 54.6787 42.3541 54.0004 41.2353 53.2342C39.5736 52.0959 25.0522 41.3525 24.5195 41.4197L24.9247 41.7898C29.454 45.5482 34.2536 49.0135 38.6142 52.9539C39.7843 54.0111 41.1065 55.0888 42.0536 56.3396C42.7842 56.0825 44.1569 55.7841 44.7109 55.3035ZM35.8134 10.6121C33.4924 8.52406 31.2292 6.30433 28.7841 4.35429C27.8537 4.54822 26.9608 4.63288 26.0126 4.69218C26.2859 5.05039 34.5192 9.98791 35.6708 10.6502L35.8134 10.6121ZM47.7451 53.7234C45.5544 52.2711 43.5442 50.4668 41.4999 48.8269C38.7426 46.615 35.8762 44.6216 32.9687 42.6004C31.7937 41.7834 30.7087 40.8545 29.4765 40.116L29.4169 40.1687C29.5729 40.3481 29.7258 40.5294 29.8954 40.6971C33.2511 43.5176 36.7623 46.1566 40.0624 49.0398C42.1884 50.8975 44.1449 53.2151 46.496 54.7937C46.9625 54.4605 47.3816 54.1667 47.7451 53.7234ZM50.6884 51.1629C48.8681 49.8486 38.9858 40.8211 37.7431 40.6922C37.8887 40.8642 38.0286 41.0362 38.1904 41.1941C41.2061 43.8191 44.1283 46.483 46.8818 49.366C47.8003 50.3276 48.8233 51.3074 49.5595 52.407C49.9679 52.0137 50.3932 51.6449 50.6884 51.1629ZM53.3251 47.9851C52.4413 47.0666 51.5295 46.1742 50.5898 45.3084C49.3627 44.1921 39.2094 35.2958 38.5292 35.0799C38.5996 35.3365 38.681 35.4411 38.874 35.6297C41.6945 38.2079 50.9398 46.384 52.3994 49.1404L53.3251 47.9851ZM43.1904 23.5633C43.0147 23.3048 42.874 23.181 42.6015 23.0115C42.565 22.9889 42.3407 22.8568 42.3046 22.8201C42.0183 22.5294 42.3519 22.4395 42.2968 22.0945C41.9337 22.081 41.6811 22.1559 41.3447 22.2684L41.2148 22.3133L41.2236 22.1775L41.2245 22.1775L41.454 21.8953C41.3747 21.5114 40.9801 21.1643 40.6523 20.951C40.2849 20.7116 39.9082 20.5528 39.4628 20.6346C39.4226 20.8929 39.5229 20.958 39.6796 21.1678C39.818 21.3526 39.9698 21.5299 40.1259 21.7039L40.5995 22.2205C40.9602 22.827 41.5044 23.5683 42.1093 23.9627C42.4164 24.1631 42.5762 24.1801 42.9316 24.1209C43.1189 23.8903 43.1537 23.8503 43.1904 23.5633ZM53.9199 20.1805C50.2658 14.9679 45.9817 10.6158 40.2206 7.50859C40.018 7.53643 40.0772 7.49185 39.9999 7.56718C43.1796 10.146 46.3203 12.7335 49.2587 15.5711C50.8325 17.0908 52.2463 18.7608 53.8183 20.2771L53.9199 20.1805ZM56.9765 38.5701C54.4407 35.5555 51.8397 32.6283 49.1884 29.7078C47.3274 27.6576 45.5027 25.5918 43.4443 23.7185C43.1396 24.0315 42.7104 24.3682 42.662 24.8084C42.7906 25.2976 43.2896 25.7128 43.6357 26.0828C46.5478 29.5038 49.3565 33.0017 52.0624 36.575C53.497 38.4362 55.0064 40.2457 56.247 42.2361C56.7457 41.0988 56.9451 39.7991 56.9765 38.5701ZM57.3408 35.8582C57.5959 35.4957 57.5649 34.912 57.538 34.4783C57.5006 33.6428 57.45 32.8055 57.4335 31.9695C57.0171 32.1584 56.8431 32.2959 56.3788 32.2439C55.5926 31.6783 54.9573 30.9199 54.2744 30.2439C53.0043 29.0092 51.7521 27.7574 50.5175 26.49C50.1068 26.067 49.7123 25.519 49.2704 25.1434C49.0863 24.9867 48.872 24.9458 48.6386 24.9021C48.6158 24.5193 48.6584 24.4731 48.3847 24.2029C48.1102 24.1264 47.842 24.062 47.5634 24.0008C47.3314 23.9496 47.2582 23.8948 47.0956 23.7371L47.1435 23.5525L47.5732 23.3269C47.5603 23.0565 47.4089 22.8684 47.1816 22.6971C46.8499 22.4475 46.3944 22.4579 45.9921 22.4334L45.7324 22.242C45.881 21.99 45.7823 22.1013 46.0361 21.9129C45.5601 21.1749 44.3109 20.1258 43.5634 19.617C43.2659 19.7402 43.2632 19.7938 43.0976 20.0672L43.1181 20.2732L43.6982 20.1014L43.79 20.198C43.7029 20.3494 43.6209 20.4731 43.5156 20.6111L43.5195 20.657L43.8954 20.8475C43.8987 21.0776 43.9217 20.9678 43.831 21.1775C44.2298 21.3463 44.6586 21.1263 45.0283 21.2644C44.7378 21.3762 44.4556 21.4928 44.1738 21.6238L44.1757 21.783L44.4208 21.9412C44.6454 21.8838 45.1739 21.6609 45.3779 21.7185C45.1902 21.929 45.0185 22.0251 44.7646 22.1531L44.9013 22.1853L44.6806 22.2166C45.1813 23.0766 46.9786 24.6584 47.7519 25.4851C49.5059 27.3542 51.2499 29.2334 52.9824 31.1209C54.0619 32.3173 56.0789 35.0826 57.3408 35.8582ZM55.4833 44.0594C52.7675 41.8793 50.3702 39.1567 47.9091 36.7088C47.0887 35.8928 46.277 34.9715 45.3603 34.2615L45.621 34.7351C47.4329 36.6869 49.2799 38.6029 51.0488 40.5916C52.2988 41.9972 53.4757 43.5869 54.8769 44.8484L55.1064 44.8543C55.3592 44.5901 55.3976 44.3978 55.4833 44.0594ZM57.0995 30.1805C57.2578 29.9411 57.2002 29.9146 57.165 29.6453C57.0873 29.2068 57.024 28.7613 56.9296 28.326C54.9427 26.7282 53.3084 24.9226 51.5849 23.0769C50.5175 21.9338 49.4069 20.6613 48.123 19.74L47.9921 19.7576L48.2861 20.156C50.4492 21.9243 53.125 25.1751 54.8984 27.3709C55.5269 28.149 56.2976 29.6265 57.0995 30.1805Z" fill="#30A0A6"/>
</svg>
