<svg width="60" height="60" viewBox="0 0 60 60" fill="none" xmlns="http://www.w3.org/2000/svg">
<path d="M19.8947 59.998C19.252 59.7138 18.9265 59.2054 18.6389 58.5644C16.8708 58.0658 15.1655 57.428 13.4524 56.7587C12.9789 57.131 12.4605 57.6324 11.8469 57.7021C11.462 57.7458 11.2147 57.6715 10.9133 57.4296L10.8811 57.0888C11.1437 56.3333 11.5621 56.1355 12.2121 55.7831C11.8595 55.6482 11.4166 55.5268 11.092 55.3349C10.7408 55.1271 10.7461 55.0243 10.6184 54.6406L10.6399 54.5839C10.3921 54.0823 9.83606 53.8915 9.3713 53.6474C9.35064 53.6669 9.32921 53.687 9.3088 53.707C8.98303 54.0265 8.64821 54.4093 8.22384 54.582C7.84813 54.7347 7.59008 54.6902 7.22774 54.539C7.10915 54.3199 7.05293 54.2721 7.05098 54.0087C7.04622 53.3061 7.60476 52.8392 8.03243 52.3652L6.3713 50.5507C5.92722 50.697 5.442 50.9132 4.98067 50.7226C4.70031 50.6066 4.54323 50.4557 4.49141 50.1396C4.4241 49.7273 4.69914 49.3564 4.90157 49.0312C4.24478 48.187 0.137815 42.9485 0.00508652 42.5302C0.0638787 42.1856 0.0592972 42.0998 0.279501 41.8437L0.559774 41.8515C1.3123 42.2458 1.73298 42.9113 2.16817 43.6259C1.59637 41.562 0.905023 39.3429 0.596884 37.2236C0.436979 36.1245 0.953539 34.7552 0.536337 33.7265C0.282965 33.5131 0.120474 33.4175 -0.000772031 33.0898C0.0884156 32.4784 0.403555 31.9187 0.463095 31.3193C0.544238 30.5026 0.512324 29.6642 0.592978 28.8408C1.08631 23.8084 2.34882 19.1438 5.1965 14.9687C8.42064 10.241 15.3782 5.32299 20.5705 3.31927C23.026 2.37162 25.6012 1.86203 28.175 1.41302C28.5577 0.849073 29.0122 0.274228 29.635 -6.36898e-05C30.1089 0.122258 30.1935 0.512914 30.5578 0.817319C31.0356 1.21633 31.7048 1.05662 32.2785 1.01458C33.1622 0.988512 34.052 1.05155 34.9309 1.14447C41.3386 1.82141 46.2502 4.34883 50.3274 9.56048L51.344 8.59174C51.7711 8.85532 52.2624 9.12147 52.3693 9.6767C52.5237 10.476 51.8747 11.3315 51.4963 11.9755C51.7075 12.2267 52.6914 13.6001 52.9621 13.5995C53.2268 13.5973 53.4732 13.3688 53.7502 13.4501C54.0412 13.5358 54.2647 13.7709 54.3899 14.0536C54.5991 14.5252 54.1395 15.4163 53.967 15.8681C54.4217 16.7253 54.7581 17.5869 55.0881 18.5038C55.2803 18.2848 55.467 18.0828 55.7277 17.9521C56.0236 17.8035 56.3252 17.8425 56.6242 17.9472C56.7642 18.0819 56.8819 18.2032 56.9582 18.3896C57.458 19.6127 56.8111 20.3706 56.4133 21.4531C56.2896 21.7897 56.2497 21.9662 56.3723 22.3017C56.6853 22.5174 56.9364 22.6995 57.175 23.0097C57.2802 23.5813 57.0694 24.0121 56.8703 24.5302C56.9525 24.8108 56.9853 24.9311 57.1877 25.1494C57.4253 25.4056 57.2981 25.2284 57.4934 25.5068C57.8098 25.9583 57.5325 26.972 57.4514 27.497C57.9532 27.0209 58.2562 26.517 58.6604 25.9619C58.9164 25.6103 59.1431 25.4694 59.5559 25.4023C59.783 25.5651 59.9262 25.6405 59.9846 25.9492C60.2052 27.1217 57.9953 29.1454 57.3869 30.1025C56.645 31.2702 56.7117 33.3047 56.3029 34.6669C55.3853 37.7252 53.8297 40.8795 52.093 43.5107C47.2416 50.8605 40.1845 56.7407 31.6975 58.6269C28.891 59.2506 26.0438 59.2871 23.2404 59.83C22.8471 59.8786 22.5411 59.8873 22.2219 59.6103C21.0182 58.5644 21.1677 60.0767 19.8947 59.998ZM21.1193 14.3974C22.9453 12.6485 24.6025 10.7069 26.3791 8.90326C27.9054 7.35378 29.5674 5.93292 31.0276 4.31634C31.3154 3.99793 31.9447 3.38698 31.9787 2.95404C31.9802 2.93319 31.9755 2.91165 31.9738 2.89056L29.7834 2.88373C28.5934 4.87496 21.3745 13.2424 21.1193 14.3974ZM23.5754 18.8388C26.533 15.4569 29.3141 12.0318 32.5744 8.94232C33.842 7.74115 37.266 5.01256 37.9358 3.5556C37.8083 3.35169 37.894 3.4061 37.6994 3.36029C36.8633 3.158 36.0454 3.027 35.1867 2.98041C33.9248 5.0233 32.5822 7.00792 31.1594 8.93255C30.1222 10.3424 23.5644 17.9736 23.5754 18.8388ZM13.8596 13.3007C16.2437 11.6331 18.5489 9.85326 20.7746 7.96283C22.3941 6.56859 23.9367 5.07481 25.6301 3.7763C24.7069 4.01992 23.8259 4.29852 22.9358 4.65228C19.8131 6.07016 17.7824 8.23047 15.3449 10.6386C14.6757 11.3 13.7816 11.9805 13.2297 12.7402C13.4608 12.5788 14.3074 11.8705 14.5217 11.871C14.2272 12.2483 13.704 12.6842 13.6076 13.1425C13.8212 13.2961 13.7294 13.263 13.8596 13.3007ZM26.9475 21.8827C27.9412 20.6221 28.9264 19.3489 30.0109 18.1708C31.542 16.5077 41.8825 6.08205 42.2356 5.23138C42.0628 4.97498 42.1701 5.08399 41.9065 4.91009L40.4865 4.29584C39.39 6.09389 38.201 7.75799 36.9006 9.4013C35.4905 11.1833 27.0958 20.5826 26.9475 21.8827ZM27.3742 28.8505C28.5008 27.4929 29.6172 26.1193 30.7795 24.7949C32.812 22.4795 45.6628 8.42654 45.9084 7.49115C45.7913 7.23324 45.6629 7.08625 45.467 6.88861L45.0109 6.57318C44.4502 6.74015 43.5004 8.3764 43.0979 8.9306C41.6703 10.8917 40.1784 12.7985 38.6233 14.6513C36.8724 16.7542 28.064 26.8494 27.3996 28.541C27.3611 28.6399 27.3548 28.7475 27.3742 28.8505ZM28.302 34.2851C30.1523 32.8076 32.6355 29.7579 34.343 27.8994C38.8893 22.9507 45.5172 16.3364 49.0315 10.746C48.9719 10.5201 48.9076 10.3394 48.7981 10.1347C48.1952 10.355 45.3565 14.6439 44.7229 15.4999C43.3613 17.3394 41.7583 19.0688 40.2453 20.7753C37.6564 23.6746 35.0511 26.5581 32.4309 29.4267C31.5446 30.4009 28.8035 33.091 28.342 34.041C28.2803 34.168 28.2956 34.1481 28.302 34.2851ZM34.0051 35.5488C34.6319 35.0806 35.1675 34.5006 35.7199 33.9423C35.894 34.0872 36.1143 34.3618 36.342 34.3339C37.241 34.2229 37.7392 33.026 38.465 32.5468C38.7983 32.1679 39.1276 31.7853 39.4533 31.3994C40.445 30.5961 41.1335 29.902 41.8127 28.7988C41.9364 28.6539 42.0391 28.5117 42.134 28.3447C43.1852 26.4946 44.9061 25.0454 46.2473 23.4023C48.283 20.8645 50.1546 18.1999 51.8615 15.4111C51.4534 14.9072 51.1354 14.3626 50.8068 13.8017C47.7211 20.0656 42.7549 25.3329 38.2483 30.5029C37.087 31.8356 34.7348 34.0936 34.0051 35.5488ZM45.1633 29.7128C48.3238 26.7431 51.2574 23.599 53.9016 20.1142L53.3947 18.4335C53.0605 18.5206 52.8187 19.1378 52.6389 19.4482C51.264 21.8222 49.7848 24.0154 48.0637 26.1288C47.1251 27.2811 45.8761 28.4149 45.1164 29.6865L45.1633 29.7128ZM2.68087 33.3232C3.8291 31.8223 12.3694 19.5827 12.3654 18.912L12.2561 18.9277C10.8536 20.4958 4.04112 29.7802 3.15157 30.1689L2.7463 30.0966C2.34784 30.6427 2.39804 32.1744 2.47872 32.8427C2.50757 33.0834 2.51721 33.1437 2.68087 33.3232ZM3.36251 24.537C3.76616 24.1926 4.23821 23.8752 4.27462 23.2851C4.28919 23.0439 4.20103 22.9639 4.09103 22.7656C3.6455 23.2547 3.39762 23.7645 3.28731 24.4296L3.36251 24.537ZM3.20626 39.0175C4.63014 37.2348 14.9108 23.5936 15.0227 23.0781L14.8186 23.1865C11.8993 25.7196 8.37171 30.6643 5.76778 33.7763C4.80403 34.928 3.59184 35.8637 2.66329 37.0331C2.759 37.5881 2.79853 38.518 3.09981 38.9755L3.20626 39.0175ZM4.69649 44.7099C5.32129 43.4986 6.00057 42.3532 6.76681 41.2343C7.90527 39.5724 18.6485 25.0512 18.5813 24.5185L18.2102 24.9238C14.4518 29.453 10.9865 34.2526 7.0461 38.6132C5.98888 39.7833 4.91123 41.1056 3.66036 42.0527C3.91742 42.7831 4.21597 44.1558 4.69649 44.7099ZM49.3879 35.8124C51.4761 33.4913 53.6965 31.2284 55.6467 28.7831C55.4528 27.8527 55.3671 26.9598 55.3078 26.0117C54.9482 26.2874 50.0119 34.5185 49.3498 35.6699L49.3879 35.8124ZM6.27755 47.7431C7.72974 45.5527 9.5333 43.543 11.1731 41.499C13.3849 38.7417 15.3785 35.8751 17.3996 32.9677C18.2166 31.7927 19.1465 30.7078 19.885 29.4755L19.8322 29.416C19.6531 29.5718 19.4715 29.724 19.3039 29.8935C16.4833 33.2492 13.8444 36.7612 10.9611 40.0615C9.10352 42.1875 6.78586 44.1439 5.20723 46.4951C5.54035 46.9614 5.83444 47.3797 6.27755 47.7431ZM8.83712 50.6874C10.1507 48.8678 19.1799 38.9849 19.3088 37.7421C19.1367 37.8877 18.9638 38.0276 18.8059 38.1894C16.1811 41.205 13.5178 44.1275 10.635 46.8808C9.67341 47.7993 8.69352 48.8224 7.59395 49.5585C7.98706 49.9667 8.35541 50.3923 8.83712 50.6874ZM12.0158 53.3242C12.9344 52.4404 13.8268 51.5285 14.6926 50.5888C15.8091 49.3614 24.7025 39.2102 24.9201 38.5283C24.6637 38.5986 24.5597 38.6802 24.3713 38.873C21.793 41.6936 13.6157 50.9394 10.8596 52.3984L12.0158 53.3242ZM36.4367 43.1894C36.6952 43.0137 36.8199 42.8731 36.9895 42.6005C37.0121 42.5641 37.1442 42.3396 37.1809 42.3036C37.4714 42.0177 37.5615 42.351 37.9065 42.2958C37.92 41.9327 37.8441 41.6801 37.7316 41.3437L37.6877 41.2138L37.8225 41.2226L37.8225 41.2236L38.1057 41.4531C38.4896 41.3736 38.8367 40.9791 39.05 40.6513C39.2893 40.2839 39.4472 39.9072 39.3654 39.4619C39.1074 39.4217 39.0427 39.522 38.8332 39.6786C38.6482 39.8172 38.4702 39.9687 38.2961 40.1249L37.7805 40.5986C37.174 40.9592 36.4317 41.5025 36.0373 42.1074C35.8367 42.4147 35.8209 42.5751 35.8801 42.9306C36.1104 43.1178 36.1501 43.1527 36.4367 43.1894ZM39.8195 53.9189C45.0322 50.2648 49.3852 45.9808 52.4924 40.2197C52.4645 40.0169 52.5082 40.0762 52.4328 39.999C49.8539 43.1788 47.2666 46.3193 44.4289 49.2578C42.9092 50.8316 41.2392 52.2453 39.7229 53.8173L39.8195 53.9189ZM21.4299 56.9755C24.4446 54.4396 27.3725 51.8388 30.2932 49.1874C32.3435 47.3263 34.409 45.5009 36.2824 43.4423C35.9696 43.1378 35.6325 42.7096 35.1926 42.6611C34.7033 42.7895 34.2872 43.2885 33.9172 43.6347C30.4963 46.5467 26.9982 49.3556 23.425 52.0615C21.564 53.4959 19.7551 55.0055 17.7649 56.246C18.9021 56.7446 20.2011 56.9441 21.4299 56.9755ZM24.1418 57.3398C24.5042 57.5949 25.088 57.5639 25.5217 57.537C26.3574 57.4996 27.1953 57.449 28.0315 57.4326C27.8424 57.0158 27.7049 56.8416 27.757 56.3769C28.3226 55.5909 29.0802 54.9561 29.7561 54.2734C30.9908 53.0033 32.2436 51.7511 33.5109 50.5165C33.934 50.1059 34.481 49.7103 34.8566 49.2685C35.0131 49.0844 35.0542 48.8709 35.0979 48.6376C35.4806 48.6149 35.527 48.6573 35.7971 48.3837C35.8736 48.1092 35.938 47.841 35.9992 47.5624C36.0505 47.3303 36.1061 47.2573 36.2639 47.0947L36.4475 47.1425L36.674 47.5722C36.9442 47.5591 37.1317 47.4078 37.3029 47.1806C37.5527 46.8489 37.5431 46.3935 37.5676 45.9911L37.758 45.7304C38.0104 45.8792 37.8993 45.781 38.0881 46.0351C38.8261 45.559 39.8752 44.3098 40.384 43.5624C40.2608 43.265 40.2069 43.262 39.9338 43.0966L39.7268 43.1171L39.8996 43.6962L39.802 43.789C39.6508 43.702 39.5277 43.6198 39.3899 43.5146L39.343 43.5185L39.1535 43.8945C38.9233 43.8978 39.0324 43.9208 38.8225 43.83C38.6538 44.2287 38.8746 44.6577 38.7365 45.0273C38.6247 44.7368 38.5081 44.4547 38.3772 44.1728L38.218 44.1747L38.0588 44.4199C38.1162 44.6445 38.3392 45.173 38.2815 45.3769C38.0712 45.1893 37.9749 45.0175 37.8469 44.7636L37.8156 44.9003L37.7844 44.6796C36.9244 45.1802 35.3416 46.9777 34.5149 47.7509C32.6458 49.5049 30.7676 51.2489 28.8801 52.9814C27.6838 54.0609 24.9172 56.0778 24.1418 57.3398ZM15.9416 55.4824C18.1217 52.7666 20.8433 50.3692 23.2912 47.9081C24.1073 47.0876 25.0284 46.2761 25.7385 45.3593L25.2649 45.6201C23.313 47.432 21.3972 49.2789 19.4084 51.0478C18.0028 52.2978 16.4131 53.4747 15.1516 54.8759L15.1467 55.1054C15.411 55.3583 15.603 55.3965 15.9416 55.4824ZM29.8205 57.0976C30.0597 57.2558 30.0858 57.1992 30.3547 57.164C30.7931 57.0863 31.2388 57.0221 31.674 56.9277C33.2717 54.9409 35.0775 53.3074 36.9231 51.5839C38.0662 50.5165 39.3397 49.406 40.2609 48.122L40.2434 47.9911L39.8449 48.2851C38.0767 50.4483 34.825 53.1239 32.6291 54.8974C31.8511 55.5258 30.3746 56.2958 29.8205 57.0976Z" fill="#30A0A6"/>
</svg>
